<?xml version="1.0" ?><!DOCTYPE svg  PUBLIC '-//W3C//DTD SVG 1.1//EN'  'http://www.w3.org/Graphics/SVG/1.1/DTD/svg11.dtd'><svg enable-background="new 0 0 512 512" height="512px" id="Calque_1" version="1.1" viewBox="0 0 512 512" width="512px" xml:space="preserve" xmlns="http://www.w3.org/2000/svg" xmlns:xlink="http://www.w3.org/1999/xlink"><g><path d="M512,256c0,141.386-114.599,255.997-255.991,255.997C114.623,511.997,0,397.386,0,256   S114.623,0.003,256.009,0.003C397.401,0.003,512,114.614,512,256z" fill="#EBEEEF"/><g id="analyses"><g><rect fill="#27AAE1" height="226.628" width="25.45" x="144.973" y="140.396"/><g><polygon fill="#27AAE1" points="191.697,157.67 123.698,157.67 157.698,123.695     "/></g></g><g><rect fill="#27AAE1" height="25.425" width="226.628" x="144.973" y="341.599"/><g><polygon fill="#27AAE1" points="354.326,320.324 354.326,388.299 388.326,354.324     "/></g></g><g><path d="M228.822,298.949c0,5.926-8.35,10.75-18.65,10.75l0,0c-10.3,0-18.649-4.824-18.649-10.75v-64.03     c0-5.938,8.35-10.75,18.649-10.75l0,0c10.3,0,18.65,4.813,18.65,10.75V298.949z" fill="#FEDB52"/><path d="M228.822,233.332c0,5.063-8.25,9.163-18.438,9.163s-18.438-4.1-18.438-9.163s8.25-9.163,18.438-9.163     S228.822,228.269,228.822,233.332z" fill="#D7B442"/><path d="M209.922,309.674c0.087,0,0.175,0.025,0.25,0.025c10.313,0,18.663-4.824,18.663-10.75     l0.012-65.13c0-5.938-8.362-9.65-18.675-9.65c-2.5,0-4.875,0.3-7.05,0.8c6.775,2.1,17.025,6.762,17.025,16.125     c0,13.925,0,58.281,0,58.281S218.047,306,209.922,309.674z" fill="#996026" opacity="0.2"/><path d="M289.928,298.949c0,5.926-8.35,10.75-18.65,10.75l0,0c-10.318,0-18.668-4.824-18.668-10.75v-93.367     c0-5.95,8.35-10.763,18.668-10.763l0,0c10.301,0,18.65,4.813,18.65,10.763V298.949z" fill="#E2574C"/><path d="M289.928,203.982c0,5.063-8.25,9.175-18.45,9.175c-10.181,0-18.443-4.112-18.443-9.175     s8.263-9.163,18.443-9.163C281.678,194.819,289.928,198.919,289.928,203.982z" fill="#BE1E2D"/><path d="M271.228,309.475c0.075,0,0.175,0.024,0.25,0.024c10.3,0,18.649-4.825,18.649-10.749     v-93.368c0-5.95-8.35-10.763-18.649-10.763c-2.5,0-4.881,0.3-7.056,0.813c6.781,2.088,17.006,6.75,17.006,16.112     c0,13.925,0,87.631,0,87.631S279.328,305.799,271.228,309.475z" fill="#96291F" opacity="0.33"/><path d="M351.027,298.949c0,5.926-8.375,10.75-18.676,10.75l0,0c-10.3,0-18.649-4.824-18.649-10.75V176.22     c0-5.938,8.35-10.75,18.649-10.75l0,0c10.301,0,18.676,4.813,18.676,10.75V298.949z" fill="#8DC63F"/><path d="M351.027,174.632c0,5.062-8.275,9.175-18.45,9.175c-10.2,0-18.45-4.113-18.45-9.175     c0-5.05,8.25-9.163,18.45-9.163C342.752,165.47,351.027,169.582,351.027,174.632z" fill="#009444"/><path d="M332.102,309.674c0.101,0,0.176,0.025,0.25,0.025c10.325,0,18.676-4.824,18.676-10.75     l0.024-123.729c0-5.938-8.375-9.75-18.7-9.75c-2.5,0-4.875,0.3-7.05,0.813c6.775,2.1,17.025,6.763,17.025,16.112     c0,13.938,0,116.98,0,116.98S340.227,306,332.102,309.674z" fill="#006838" opacity="0.33"/></g></g></g><g/><g/><g/><g/><g/><g/></svg>