<?xml version="1.0" ?><!DOCTYPE svg  PUBLIC '-//W3C//DTD SVG 1.1//EN'  'http://www.w3.org/Graphics/SVG/1.1/DTD/svg11.dtd'><svg enable-background="new 0 0 512 512" height="512px" id="Calque_1" version="1.1" viewBox="0 0 512 512" width="512px" xml:space="preserve" xmlns="http://www.w3.org/2000/svg" xmlns:xlink="http://www.w3.org/1999/xlink"><g><circle cx="256.003" cy="256" fill="#A1C656" r="255.997"/><g id="battery_2_"><path clip-rule="evenodd" d="M345.177,274.274c0,9.075,7.087,16.463,15.825,16.463h7.399    c8.726,0,15.8-7.388,15.8-16.463v-36.537c0-9.087-7.074-16.45-15.8-16.45h-7.399c-8.738,0-15.825,7.362-15.825,16.45V274.274z" fill="#344E5D" fill-rule="evenodd"/><path d="M343.877,216.913V295.1H146.304v-78.187H343.877 M352.102,198.388H138.079    c-5.675,0-10.274,4.613-10.274,10.3v94.636c0,5.7,4.6,10.3,10.274,10.3h214.022c5.7,0,10.3-4.6,10.3-10.3v-94.636    C362.401,203.001,357.802,198.388,352.102,198.388L352.102,198.388z" fill="#FFFFFF"/><polygon fill="#FFFFFF" points="249.728,249.112 259.828,234.038 238.503,224.188 232.328,246.038 230.403,252.888     234.178,255.438 245.078,262.838 230.378,287.813 256.503,264.675 259.652,261.888 256.028,257.225   "/></g></g><g/><g/><g/><g/><g/><g/></svg>