<?xml version="1.0" ?><!DOCTYPE svg  PUBLIC '-//W3C//DTD SVG 1.1//EN'  'http://www.w3.org/Graphics/SVG/1.1/DTD/svg11.dtd'><svg enable-background="new 0 0 512 512" height="512px" id="Calque_1" version="1.1" viewBox="0 0 512 512" width="512px" xml:space="preserve" xmlns="http://www.w3.org/2000/svg" xmlns:xlink="http://www.w3.org/1999/xlink"><g><path d="M511.979,256.016C511.979,397.385,397.363,512,256.006,512C114.625,512,0.022,397.385,0.022,256.016   C0.022,114.641,114.625,0,256.006,0C397.363,0,511.979,114.641,511.979,256.016z" fill="#E1695C"/><g id="calculator"><path d="M360.441,376.087c0,5.175-4.2,9.374-9.399,9.374H160.945c-5.187,0-9.387-4.199-9.387-9.374V147.188    c0-5.175,4.2-9.387,9.387-9.387h190.097c5.199,0,9.399,4.212,9.399,9.387V376.087z" fill="#D1D3D4"/><path d="M360.441,364.813c0,5.175-4.2,9.375-9.399,9.375H160.945c-5.187,0-9.387-4.2-9.387-9.375V135.926    c0-5.187,4.2-9.387,9.387-9.387h190.097c5.199,0,9.399,4.2,9.399,9.387V364.813z" fill="#E6E7E8"/><rect fill="#C0BFDA" height="56.283" width="160.099" x="175.944" y="151.55"/><rect fill="#A3A2BE" height="10.012" width="160.099" x="175.944" y="151.55"/><rect fill="#D1D3D4" height="5.637" opacity="0.7" width="208.245" x="151.871" y="228.156"/><rect fill="#1C75BC" height="95.998" width="38.496" x="297.547" y="252.691"/><rect fill="#1568A1" height="6.899" width="38.496" x="297.547" y="348.589"/><rect fill="#FFFFFF" height="101.935" width="112.89" x="175.982" y="252.879"/><rect fill="#F1F2F2" height="6.949" width="112.877" x="175.919" y="348.564"/><g><rect fill="#F1F2F2" height="98.16" width="1.875" x="250.257" y="252.879"/><rect fill="#F1F2F2" height="98.16" width="1.875" x="212.716" y="252.879"/></g><g><rect fill="#F1F2F2" height="1.875" width="112.878" x="176.145" y="284.119"/><rect fill="#F1F2F2" height="1.874" width="112.878" x="176.145" y="317.917"/></g><path d="M309.745,272.371v-1.65h13.649v1.65H309.745z" fill="#FFFFFF"/><path d="M315.67,307.317v-5.324h-5.3v-2.649h5.3v-5.275h2.649v5.275h5.325v2.649h-5.325v5.324H315.67z" fill="#FFFFFF"/><path d="M310.37,327.091v-2.624h13.274v2.624H310.37z M310.37,332.74v-2.649h13.274v2.649H310.37z" fill="#FFFFFF"/><g><path d="M277.548,194.708c0.425-5.375,2.625-10.924,6.55-15.449h-9.124v-3.237h13.099v2.8     c-4.199,4.649-6.475,10.287-6.75,15.886H277.548z" fill="#58595B"/><path d="M291.771,187.359l0.4-11.337h11.524v3.087h-8.25l-0.175,5.012c0.975-1.038,2.325-1.313,3.725-1.313     c3.025,0,5.399,2.125,5.399,5.875c0,4.012-2.649,6.662-6.449,6.662c-3.399,0-6.074-2.237-6.225-5.462h3.649     c0.15,1.55,1.125,2.487,2.575,2.487c2.024,0,2.774-1.399,2.774-3.524c0-1.938-0.824-3.087-2.549-3.087     c-1.325,0-2.101,0.563-2.625,1.6H291.771z" fill="#58595B"/><path d="M307.57,194.708c0.025-3.462,0.85-5.862,5.625-9.287c2.675-1.912,3.449-2.875,3.449-4.45     c0-1.887-1.125-2.45-2.574-2.45c-1.65,0-2.725,0.825-2.725,3.325h-3.525c0-4.037,2.25-6.45,6.074-6.45     c3.775,0,6.35,1.775,6.35,5.462c0,2.838-1.425,4.475-5.399,7.325c-1.45,1.038-2.524,2.387-2.6,3.337h8.05v3.187H307.57z" fill="#58595B"/></g><g><path d="M193.605,276.07v-10.306h-3.063v-2.024c2.563,0,3.412-0.862,3.6-2.6h2.375v14.93H193.605z" fill="#A7A9AC"/><path d="M225.665,276.07c0.013-2.75,0.675-4.675,4.493-7.405c2.15-1.525,2.775-2.3,2.775-3.55     c0-1.525-0.925-1.975-2.075-1.975c-1.325,0-2.2,0.649-2.2,2.662h-2.793c0-3.213,1.787-5.162,4.868-5.162     c3,0,5.05,1.425,5.05,4.375c0,2.274-1.125,3.574-4.325,5.855c-1.149,0.824-2,1.899-2.074,2.675h6.449v2.524H225.665z" fill="#A7A9AC"/><path d="M268.605,267.327c2.493,0,3.019-0.938,3.019-2.05c0-1.487-0.575-2.287-1.925-2.287     c-1.119,0-1.994,0.9-1.994,2.449h-2.725c0-2.85,2-4.799,4.818-4.799c2.6,0,4.649,1.675,4.649,4.087c0,1.337-0.6,2.675-1.774,3.35     c1.425,0.588,2.225,1.794,2.225,3.693c0,2.975-2.125,4.825-5.25,4.825c-3.093,0-4.918-1.851-4.918-4.9h2.824     c0,1.75,0.775,2.5,2.219,2.5c1.226,0,2.15-0.899,2.15-2.475c0-1.75-0.9-2.35-3.318-2.35V267.327z" fill="#A7A9AC"/></g><g><path d="M194.468,309.893v-3.275h-5.812v-2.549l5.45-9.125h3.287v9.399h1.675v2.274h-1.675v3.275H194.468z      M194.53,299.068l-3.063,5.274h3.063V299.068z" fill="#A7A9AC"/><path d="M226.303,304.018l0.313-9.074h9.218v2.475h-6.6l-0.15,4c0.8-0.824,1.875-1.05,2.975-1.05     c2.449,0,4.324,1.7,4.324,4.7c0,3.225-2.125,5.324-5.149,5.324c-2.725,0-4.868-1.8-4.968-4.375h2.918c0.1,1.25,0.875,2,2.05,2     c1.625,0,2.225-1.125,2.225-2.824c0-1.551-0.675-2.476-2.05-2.476c-1.05,0-1.675,0.45-2.075,1.3H226.303z" fill="#A7A9AC"/><path d="M270.424,298.168c-0.075-0.924-0.6-1.399-1.575-1.399c-1.593,0-2.368,1.55-2.543,4.749     c0.7-0.824,1.574-1.399,3.068-1.399c2.35,0,4.225,1.825,4.225,4.95c0,3.049-2,5.324-4.919,5.324c-3.524,0-5.249-2.575-5.249-7.5     c0-5.975,1.85-8.449,5.543-8.449c2.425,0,4.024,1.325,4.35,3.725H270.424z M270.724,305.193c0-1.7-0.875-2.775-2.144-2.775     c-1.3,0-2.225,1.1-2.225,2.75c0,1.699,0.824,2.875,2.274,2.875C269.974,308.043,270.724,306.793,270.724,305.193z" fill="#A7A9AC"/></g><g><path d="M190.706,341.79c0.337-4.3,2.1-8.725,5.25-12.35h-7.299v-2.6h10.474v2.274     c-3.362,3.7-5.187,8.2-5.412,12.675H190.706z" fill="#A7A9AC"/><path d="M236.408,337.44c0,2.824-1.7,4.874-5.15,4.874c-3.443,0-5.206-2.125-5.206-4.749     c0-1.726,0.8-3.075,2.356-3.8c-1.256-0.625-1.707-2.025-1.707-3.275c0-2.374,1.932-4.124,4.556-4.124     c2.95,0,4.475,1.75,4.475,4.024c0,1.3-0.4,2.65-1.55,3.25C235.533,334.24,236.408,335.766,236.408,337.44z M233.383,337.44     c0-1.375-0.675-2.351-2.15-2.351s-2.125,0.926-2.125,2.351c0,1.55,0.625,2.449,2.125,2.449S233.383,338.99,233.383,337.44z      M233.058,330.766c0-1.225-0.625-2.024-1.825-2.024c-1.225,0-1.825,0.8-1.825,2.024c0,1.175,0.601,2,1.825,2     C232.434,332.766,233.058,331.94,233.058,330.766z" fill="#A7A9AC"/><path d="M266.756,338.564c0.074,0.926,0.6,1.4,1.574,1.4c1.594,0,2.369-1.525,2.544-4.699     c-0.7,0.8-1.575,1.375-3.069,1.375c-2.35,0-4.225-1.851-4.225-4.95c0-3.05,1.976-5.324,4.925-5.324     c3.519,0,5.243,2.55,5.243,7.474c0,6-1.85,8.475-5.543,8.475c-2.425,0-4.024-1.324-4.35-3.75H266.756z M270.824,331.591     c0-1.7-0.825-2.875-2.27-2.875c-1.35,0-2.1,1.25-2.1,2.85c0,1.7,0.85,2.774,2.15,2.774     C269.898,334.34,270.824,333.24,270.824,331.591z" fill="#A7A9AC"/></g></g></g><g/><g/><g/><g/><g/><g/></svg>