<?xml version="1.0" ?><!DOCTYPE svg  PUBLIC '-//W3C//DTD SVG 1.1//EN'  'http://www.w3.org/Graphics/SVG/1.1/DTD/svg11.dtd'><svg enable-background="new 0 0 512 512" height="512px" id="Calque_1" version="1.1" viewBox="0 0 512 512" width="512px" xml:space="preserve" xmlns="http://www.w3.org/2000/svg" xmlns:xlink="http://www.w3.org/1999/xlink"><g><path d="M511.975,256.025C511.975,397.387,397.361,512,256.006,512C114.626,512,0.025,397.387,0.025,256.025   C0.025,114.639,114.626,0,256.006,0C397.361,0,511.975,114.639,511.975,256.025z" fill="#EBEEEF"/><g id="play_1_"><path d="M256.006,148.386c59.337,0,107.583,48.27,107.583,107.589c0,59.369-48.246,107.615-107.583,107.615    c-59.344,0-107.615-48.246-107.615-107.615C148.392,196.656,196.662,148.386,256.006,148.386 M256.006,129.263    c-69.993,0-126.738,56.719-126.738,126.712c0,70.018,56.745,126.762,126.738,126.762c69.987,0,126.731-56.744,126.731-126.762    C382.737,185.982,325.993,129.263,256.006,129.263L256.006,129.263z" fill="#4CB576"/><g id="arrow_12_"><path clip-rule="evenodd" d="M228.109,255.925c0-18.598-0.025-37.171,0-55.77     c0-4.074,2.95-7.024,6.75-6.549c1.25,0.149,2.625,0.824,3.6,1.649c19.397,16.823,38.74,33.697,58.113,50.545     c0.925,0.825,1.874,1.6,2.774,2.425c4.949,4.5,4.975,11.124,0,15.499c-7.574,6.674-15.198,13.248-22.798,19.848     c-12.468,10.824-24.941,21.673-37.365,32.521c-2.149,1.9-4.424,3.075-7.249,1.825c-2.875-1.274-3.875-3.7-3.85-6.8     C228.134,292.722,228.109,274.323,228.109,255.925z" fill="#4CB576" fill-rule="evenodd"/></g></g></g><g/><g/><g/><g/><g/><g/></svg>