<?xml version="1.0" ?><!DOCTYPE svg  PUBLIC '-//W3C//DTD SVG 1.1//EN'  'http://www.w3.org/Graphics/SVG/1.1/DTD/svg11.dtd'><svg enable-background="new 0 0 512 512" height="512px" id="Calque_1" version="1.1" viewBox="0 0 512 512" width="512px" xml:space="preserve" xmlns="http://www.w3.org/2000/svg" xmlns:xlink="http://www.w3.org/1999/xlink"><g><path d="M512,256.003c0,141.367-114.599,255.991-255.991,255.991C114.623,511.994,0,397.37,0,256.003   C0,114.617,114.623,0.006,256.009,0.006C397.401,0.006,512,114.617,512,256.003z" fill="#EBEEEF"/><g id="chair"><path d="M193.873,350.796c0,4.1,4.7,7.425,10.5,7.425h101.806c5.8,0,10.524-3.325,10.524-7.425v-10.225    c0-4.101-4.725-7.425-10.524-7.425H204.372c-5.8,0-10.5,3.324-10.5,7.425V350.796z" fill="#EABC8E"/><rect fill="#BE1E2D" height="37.6" width="180.779" x="166.048" y="279.222"/><path d="M187.397,293.922c0,5.8,4.725,10.5,10.525,10.5h115.98c5.8,0,10.524-4.7,10.524-10.5v-129.63    c0-5.8-4.725-10.5-10.524-10.5h-115.98c-5.8,0-10.525,4.7-10.525,10.5V293.922z" fill="#E2574C"/><path d="M313.902,153.792h-23.2c5.8,0,10.525,4.7,10.525,10.5v129.63c0,5.8-4.726,10.5-10.525,10.5    h23.2c5.8,0,10.524-4.7,10.524-10.5v-129.63C324.427,158.492,319.702,153.792,313.902,153.792z" fill="#BE1E2D" opacity="0.44"/><path d="M186.923,238.741c-2.9-14.25-15.525-24.975-30.65-24.975c-17.275,0-31.275,14-31.275,31.274    c0,12.05,6.825,22.475,16.8,27.73v74.75c0,5.799,4.7,10.499,10.5,10.499h24.75c5.8,0,10.5-4.7,10.5-10.499V242.216    C187.548,240.991,187.322,239.841,186.923,238.741z" fill="#D84F48"/><path d="M387.001,245.041c0-17.275-14.024-31.274-31.3-31.274c-15.124,0-27.725,10.725-30.649,24.975    c-0.375,1.1-0.625,2.25-0.625,3.475v105.306c0,5.799,4.7,10.499,10.525,10.499h24.725c5.8,0,10.524-4.7,10.524-10.499v-74.75    C380.177,267.516,387.001,257.091,387.001,245.041z" fill="#D84F48"/><path d="M355.701,213.767c-2.35,0-4.6,0.325-6.824,0.825c13.875,3.225,24.199,15.625,24.199,30.45    c0,12.05-6.824,22.475-16.8,27.73v74.75c0,5.799-4.7,10.499-10.499,10.499h13.899c5.8,0,10.524-4.7,10.524-10.499v-74.75    c9.976-5.256,16.8-15.681,16.8-27.73C387.001,227.766,372.977,213.767,355.701,213.767z" fill="#BE1E2D" opacity="0.44"/><path d="M150.598,234.416c0,0-0.075,0.725-0.1,1.9c-0.075,1.149-0.15,2.75-0.2,4.5    c-0.025,1.75,0.075,3.675,0.225,5.575c0.125,0.95,0.2,1.9,0.425,2.825c0.1,0.95,0.399,1.85,0.625,2.775    c0.225,0.925,0.625,1.8,0.85,2.75c0.475,0.875,0.75,1.8,1.15,2.701c0.475,0.874,0.875,1.749,1.274,2.649    c0.476,0.85,0.925,1.675,1.3,2.5c0.775,1.649,1.7,2.925,2.175,4.05c0.5,1.075,0.775,1.775,0.775,1.775s-0.7-0.051-1.899-0.301    c-1.125-0.324-2.95-0.6-4.7-1.675c-0.9-0.5-1.925-1.024-2.9-1.725c-0.925-0.8-1.875-1.675-2.825-2.65    c-0.875-1-1.675-2.225-2.45-3.45c-0.65-1.299-1.275-2.699-1.7-4.149c-0.275-1.475-0.675-2.95-0.625-4.45    c-0.125-1.5,0.1-2.95,0.35-4.3c0.6-2.725,1.65-5.025,2.975-6.725c1.2-1.75,2.575-2.9,3.575-3.6    C149.923,234.666,150.598,234.416,150.598,234.416z" fill="#FFFFFF"/><path d="M187.397,339.646c0,4.1,4.75,7.399,10.575,7.399h115.88c5.825,0,10.574-3.3,10.574-7.399v-35.425    c0-4.101-4.749-7.425-10.574-7.425h-115.88c-5.825,0-10.575,3.324-10.575,7.425V339.646z" fill="#C74842"/><path d="M313.853,296.797h-23.2c5.85,0,10.575,3.324,10.575,7.425v35.425    c0,4.1-4.726,7.399-10.575,7.399h23.2c5.825,0,10.574-3.3,10.574-7.399v-35.425C324.427,300.121,319.678,296.797,313.853,296.797z    " fill="#96291F" opacity="0.44"/></g></g><g/><g/><g/><g/><g/><g/></svg>