<?xml version="1.0" ?><!DOCTYPE svg  PUBLIC '-//W3C//DTD SVG 1.1//EN'  'http://www.w3.org/Graphics/SVG/1.1/DTD/svg11.dtd'><svg enable-background="new 0 0 512 512" height="512px" id="Calque_1" version="1.1" viewBox="0 0 512 512" width="512px" xml:space="preserve" xmlns="http://www.w3.org/2000/svg" xmlns:xlink="http://www.w3.org/1999/xlink"><g><path d="M511.979,256.025C511.979,397.387,397.389,512,256.009,512C114.636,512,0.021,397.387,0.021,256.025   C0.021,114.639,114.636,0,256.009,0C397.389,0,511.979,114.639,511.979,256.025z" fill="#344E5D"/><g id="Analytics"><path d="M367.167,320.519c0,5.675-4.6,10.274-10.274,10.274H154.507c-5.649,0-10.249-4.6-10.249-10.274V191.481    c0-5.675,4.6-10.274,10.249-10.274h202.386c5.675,0,10.274,4.6,10.274,10.274V320.519z" fill="#44B39D"/><path d="M367.167,191.481c0-5.675-4.6-10.274-10.274-10.274H154.507c-5.649,0-10.249,4.6-10.249,10.274v73.593    l53.694,30.146l69.968-53.145l42.527,19.799l56.72-48.821V191.481z" fill="#BE1E2D"/><path d="M199.002,290.222l68.918-46.445l42.527,18.099l53.271-46.446l1.399,0.05    c-2.5-0.5-5.225-0.85-8.225-1.025l-47.42,26.897l-42.527-15.648l-68.443,33.222l-54.244-37.621v44.021L199.002,290.222z" fill="#961B25" opacity="0.44"/><path d="M367.167,208.305L309.873,258l-39.847-19.474c-0.05-0.024-0.1-0.024-0.149-0.05    c-0.101-0.05-0.25-0.075-0.375-0.125c-0.101-0.05-0.2-0.075-0.301-0.1c-0.149-0.025-0.25-0.025-0.375-0.05    c-0.105-0.025-0.23-0.025-0.355-0.025s-0.225,0-0.35,0c-0.125,0.025-0.226,0.025-0.351,0.05c-0.1,0.025-0.225,0.05-0.35,0.1    c-0.125,0.025-0.226,0.05-0.325,0.1c-0.1,0.025-0.225,0.075-0.325,0.15c-0.125,0.05-0.225,0.1-0.325,0.175    c-0.05,0.024-0.1,0.05-0.149,0.075l-69.568,48.595l-52.47-26.223v8.199l51.12,25.548l0,0l0.024,0.024    c0.175,0.075,0.351,0.125,0.55,0.176c0.075,0.05,0.15,0.074,0.25,0.1c0.275,0.075,0.55,0.1,0.825,0.1h0.025    c0.3,0,0.6-0.05,0.899-0.125c0.05,0,0.075,0,0.1-0.024c0.275-0.075,0.55-0.2,0.8-0.351c0.05-0.024,0.1-0.05,0.149-0.074    c0.05-0.025,0.101-0.051,0.125-0.075l69.618-48.62l40.103,19.573c0,0,0.025,0.024,0.05,0.024c0.175,0.075,0.351,0.125,0.525,0.176    c0.075,0.024,0.149,0.074,0.25,0.074c0.175,0.051,0.375,0.051,0.55,0.075c0.075,0,0.15,0.024,0.225,0.024h0.025    c0.3,0,0.575-0.049,0.875-0.125c0.05-0.024,0.125-0.024,0.175-0.049c0.274-0.076,0.55-0.2,0.825-0.351    c0.024-0.024,0.05-0.05,0.074-0.075c0.15-0.1,0.301-0.175,0.426-0.3l54.319-47.12V208.305z" fill="#FFFFFF"/><path d="M159.406,266.749c0,8.649-7,15.648-15.648,15.648c-8.624,0-15.624-6.999-15.624-15.648    c0-8.624,7-15.648,15.624-15.648C152.407,251.101,159.406,258.125,159.406,266.749z" fill="#EEB144"/><path d="M212.226,285.822c0,8.648-7,15.648-15.624,15.648c-8.649,0-15.648-7-15.648-15.648    c0-8.624,6.999-15.623,15.648-15.623C205.227,270.199,212.226,277.198,212.226,285.822z" fill="#EEB144"/><path d="M284.125,246.226c0,8.624-6.999,15.649-15.654,15.649c-8.625,0-15.624-7.025-15.624-15.649    c0-8.649,6.999-15.649,15.624-15.649C277.126,230.577,284.125,237.577,284.125,246.226z" fill="#EEB144"/><path d="M325.221,259.425c0,8.624-6.999,15.648-15.648,15.648c-8.648,0-15.648-7.024-15.648-15.648    c0-8.649,7-15.648,15.648-15.648C318.222,243.776,325.221,250.775,325.221,259.425z" fill="#EEB144"/><path d="M383.891,213.929c0,8.649-7,15.648-15.624,15.648c-8.648,0-15.648-7-15.648-15.648    c0-8.625,7-15.649,15.648-15.649C376.891,198.28,383.891,205.305,383.891,213.929z" fill="#EEB144"/></g></g><g/><g/><g/><g/><g/><g/></svg>