<?xml version="1.0" ?><!DOCTYPE svg  PUBLIC '-//W3C//DTD SVG 1.1//EN'  'http://www.w3.org/Graphics/SVG/1.1/DTD/svg11.dtd'><svg enable-background="new 0 0 512 512" height="512px" id="Calque_1" version="1.1" viewBox="0 0 512 512" width="512px" xml:space="preserve" xmlns="http://www.w3.org/2000/svg" xmlns:xlink="http://www.w3.org/1999/xlink"><g><path d="M511.979,256.025C511.979,397.387,397.389,512,256.009,512C114.636,512,0.021,397.387,0.021,256.025   C0.021,114.639,114.636,0,256.009,0C397.389,0,511.979,114.639,511.979,256.025z" fill="#489BA8"/><g id="mobile"><path d="M176.829,183.157c0,2.024,1.65,3.675,3.65,3.675l0,0c2.05,0,3.675-1.65,3.675-3.675v-20.923    c0-2.025-1.625-3.65-3.675-3.65l0,0c-2,0-3.65,1.625-3.65,3.65V183.157z" fill="#1E313A"/><path d="M176.829,197.105c0,1.625,1.3,2.925,2.925,2.925l0,0c1.625,0,2.925-1.3,2.925-2.925v-3.674    c0-1.6-1.3-2.925-2.925-2.925l0,0c-1.625,0-2.925,1.325-2.925,2.925V197.105z" fill="#1E313A"/><path d="M176.829,211.43c0,1.625,1.3,2.949,2.925,2.949l0,0c1.625,0,2.925-1.325,2.925-2.949v-3.675    c0-1.6-1.3-2.925-2.925-2.925l0,0c-1.625,0-2.925,1.325-2.925,2.925V211.43z" fill="#1E313A"/><path d="M275.9,131.063c0,2.225,1.801,4.049,4.025,4.049h34.496c2.225,0,4.05-1.825,4.05-4.049l0,0    c0-2.225-1.825-4.05-4.05-4.05h-34.496C277.701,127.013,275.9,128.837,275.9,131.063L275.9,131.063z" fill="#1E313A"/><path d="M335.195,379.488c0,3.024-2.45,5.499-5.475,5.499H184.403c-3.049,0-5.524-2.475-5.524-5.499V135.112    c0-3.05,2.475-5.524,5.524-5.524h145.317c3.024,0,5.475,2.475,5.475,5.524V379.488z" fill="#2D4453"/><path d="M324.196,346.441c0,3.05-2.475,5.499-5.499,5.499H195.402c-3.05,0-5.499-2.449-5.499-5.499V157.135    c0-3.05,2.449-5.5,5.499-5.5h123.295c3.024,0,5.499,2.45,5.499,5.5V346.441z" fill="#44B39D"/><g><path d="M244.673,140.886c0,0.4,0.325,0.725,0.725,0.725h30.829c0.399,0,0.749-0.325,0.749-0.725l0,0     c0-0.425-0.35-0.75-0.749-0.75h-30.829C244.998,140.136,244.673,140.461,244.673,140.886L244.673,140.886z" fill="#FFFFFF"/><path d="M237.148,140.886c0,1.1,0.9,2,2,2l0,0c1.125,0,2.024-0.899,2.024-2l0,0c0-1.125-0.899-2.025-2.024-2.025     l0,0C238.048,138.861,237.148,139.762,237.148,140.886L237.148,140.886z" fill="#FFFFFF"/></g><path d="M275.026,384.987c0.25-1.175,0.375-2.399,0.375-3.649c0-10.149-8.23-18.373-18.354-18.373    s-18.349,8.224-18.349,18.373c0,1.25,0.125,2.475,0.375,3.649H275.026z" fill="#1E313A"/><path d="M303.323,129.587h-118.92c-3.049,0-5.524,2.475-5.524,5.524v234.602    C255.847,307.57,293.074,172.733,303.323,129.587z" fill="#FFFFFF" opacity="0.07"/></g></g><g/><g/><g/><g/><g/><g/></svg>