<?xml version="1.0" ?><!DOCTYPE svg  PUBLIC '-//W3C//DTD SVG 1.1//EN'  'http://www.w3.org/Graphics/SVG/1.1/DTD/svg11.dtd'><svg enable-background="new 0 0 512 512" height="512px" id="Calque_1" version="1.1" viewBox="0 0 512 512" width="512px" xml:space="preserve" xmlns="http://www.w3.org/2000/svg" xmlns:xlink="http://www.w3.org/1999/xlink"><g><path d="M511.979,256.025C511.979,397.387,397.389,512,255.997,512C114.636,512,0.021,397.387,0.021,256.025   C0.021,114.639,114.636,0,255.997,0C397.389,0,511.979,114.639,511.979,256.025z" fill="#EBEEEF"/><g id="left"><path clip-rule="evenodd" d="M303.049,255.925c0-18.598,0-37.196,0-55.77    c0-4.074-2.95-7.024-6.75-6.549c-1.25,0.149-2.6,0.824-3.574,1.675c-12.549,10.849-25.029,21.723-37.528,32.622    c0-9.274,0-18.499,0-27.748c-0.025-4.074-2.95-7.024-6.75-6.549c-1.25,0.149-2.649,0.824-3.6,1.675    c-19.398,16.798-38.746,33.671-58.119,50.545c-0.925,0.8-1.875,1.575-2.8,2.425c-4.925,4.475-4.949,11.099,0.025,15.474    c7.575,6.674,15.199,13.248,22.798,19.848c12.449,10.849,24.922,21.648,37.372,32.521c2.149,1.875,4.424,3.075,7.249,1.825    c2.875-1.274,3.85-3.7,3.85-6.8c-0.025-8.998-0.025-18.022-0.025-27.021c12.274,10.674,24.553,21.298,36.778,31.996    c2.149,1.875,4.449,3.075,7.249,1.825c2.875-1.274,3.875-3.7,3.85-6.8C303.023,292.722,303.049,274.323,303.049,255.925z" fill="#4CB576" fill-rule="evenodd"/><path d="M255.997,148.386c59.351,0,107.621,48.27,107.621,107.614c0,59.319-48.27,107.614-107.621,107.614    c-59.344,0-107.615-48.295-107.615-107.614C148.382,196.656,196.652,148.386,255.997,148.386 M255.997,129.263    c-69.993,0-126.738,56.744-126.738,126.737s56.745,126.737,126.738,126.737c70,0,126.744-56.744,126.744-126.737    S325.996,129.263,255.997,129.263L255.997,129.263z" fill="#4CB576"/></g></g><g/><g/><g/><g/><g/><g/></svg>