<?xml version="1.0" ?><!DOCTYPE svg  PUBLIC '-//W3C//DTD SVG 1.1//EN'  'http://www.w3.org/Graphics/SVG/1.1/DTD/svg11.dtd'><svg enable-background="new 0 0 512 512" height="512px" id="Calque_1" version="1.1" viewBox="0 0 512 512" width="512px" xml:space="preserve" xmlns="http://www.w3.org/2000/svg" xmlns:xlink="http://www.w3.org/1999/xlink"><g><circle cx="256.003" cy="256" fill="#EBEEEF" r="255.997"/><g id="Headphone_1_"><path d="M208.61,169.132c2.413,0.725,4.944,0.9,7.562,0.675c10.95-6.938,24.925-11.1,40.162-11.1    c15.193,0,29.144,4.137,40.068,11.038c2.625,0.274,5.175,0.137,7.638-0.613c16.112-4.962,11.075-14.112,11.075-14.112    c-21.338-12.725-45.813-13.275-58.781-12.45c-12.969-0.825-37.449-0.275-58.793,12.45    C197.541,155.02,192.51,164.17,208.61,169.132z" fill="#414042"/><path d="M215.46,141.933c0,0-0.557,0.337-1.519,0.913c-0.494,0.288-1.087,0.637-1.756,1.038    c-0.688,0.387-1.443,0.825-2.281,1.313c-1.656,0.962-3.587,2.087-5.656,3.3c-0.512,0.3-1.043,0.612-1.568,0.912    c-0.531,0.325-1.063,0.65-1.606,0.963c-1.087,0.625-2.162,1.3-3.244,1.975c-1.094,0.638-2.137,1.363-3.207,2.013    c-1.05,0.675-2.075,1.35-3.075,2c-0.962,0.688-1.913,1.35-2.812,1.962c-0.863,0.65-1.694,1.275-2.457,1.837    c-0.756,0.6-1.431,1.15-2.031,1.638c-0.619,0.475-1.1,0.95-1.519,1.337c-0.825,0.75-1.337,1.163-1.337,1.163s0.344-0.538,1-1.475    c0.325-0.462,0.7-1.05,1.237-1.637c0.513-0.6,1.081-1.3,1.763-1.988c0.693-0.7,1.443-1.45,2.262-2.212    c0.856-0.725,1.744-1.5,2.706-2.25c0.981-0.712,1.969-1.513,3.031-2.225c1.056-0.7,2.131-1.45,3.244-2.113    s2.219-1.325,3.344-1.938c1.1-0.637,2.225-1.188,3.307-1.725c1.081-0.575,2.156-1.025,3.168-1.5    c1.012-0.45,1.981-0.85,2.881-1.212c1.8-0.712,3.331-1.25,4.412-1.587C214.828,142.083,215.46,141.933,215.46,141.933z" fill="#FFFFFF" opacity="0.44"/><path d="M275.953,376.549c-1.65,0-3.013-1.325-3.051-2.976c-0.037-1.7,1.301-3.1,2.976-3.125    c26.199-0.6,47.699-10.475,63.874-29.324c12.162-14.149,16.6-28.375,16.649-28.524c0.5-1.601,2.2-2.5,3.8-2.025    c1.625,0.5,2.525,2.2,2.051,3.8c-0.2,0.625-4.801,15.4-17.7,30.524c-11.95,14-33.524,30.825-68.524,31.65    C276.003,376.549,275.978,376.549,275.953,376.549z" fill="#6D6E71"/><path d="M157.561,264.193c-1.75-7.5-2.65-15.25-2.65-23.125c0-27.1,10.55-52.562,29.706-71.724    c19.156-19.149,44.631-29.699,71.718-29.699c27.094,0,52.556,10.55,71.705,29.699c19.163,19.162,29.713,44.625,29.713,71.724    c0,7.875-0.9,15.625-2.65,23.125h7.8c1.612-7.45,2.476-15.187,2.476-23.125c0-60.237-48.824-109.048-109.043-109.048    c-60.23,0-109.049,48.812-109.049,109.048c0,7.938,0.856,15.675,2.476,23.125H157.561z" fill="#D1D3D4"/><path d="M256.303,128.595c-32.706,0-62.33,13.4-83.705,34.987l12.406,12.4    c18.193-18.425,43.424-29.85,71.299-29.85c27.9,0,53.149,11.45,71.361,29.899l12.388-12.388    C318.689,142.008,289.027,128.595,256.303,128.595z" fill="#00A79D"/><path d="M139.204,304.774c0,1,0.788,1.774,1.775,1.774l0,0c0.981,0,1.781-0.774,1.781-1.774v-33.55    c0-0.975-0.8-1.774-1.781-1.774l0,0c-0.987,0-1.775,0.8-1.775,1.774V304.774z" fill="#00A79D"/><path d="M142.636,310.624c0,2.101,1.962,3.825,4.387,3.825h14.612c2.418,0,4.387-1.725,4.387-3.825v-45.243    c0-2.112-1.969-3.813-4.387-3.813h-14.612c-2.425,0-4.387,1.7-4.387,3.813V310.624z" fill="#414042"/><rect fill="#D1D3D4" height="61.519" width="10.156" x="160.429" y="257.256"/><path d="M372.802,304.774c0,1-0.8,1.774-1.775,1.774l0,0c-1,0-1.787-0.774-1.787-1.774v-33.55    c0-0.975,0.787-1.774,1.787-1.774l0,0c0.976,0,1.775,0.8,1.775,1.774V304.774z" fill="#00A79D"/><path d="M369.364,310.624c0,2.101-1.963,3.825-4.388,3.825h-14.625c-2.412,0-4.375-1.725-4.375-3.825v-45.243    c0-2.112,1.963-3.813,4.375-3.813h14.625c2.425,0,4.388,1.7,4.388,3.813V310.624z" fill="#414042"/><rect fill="#D1D3D4" height="61.519" width="10.174" x="341.402" y="257.256"/><path d="M282.053,373.498c0,5.45-4.45,9.9-9.912,9.9h-21.856c-5.481,0-9.918-4.45-9.918-9.9l0,0    c0-5.5,4.437-9.924,9.918-9.924h21.856C277.603,363.574,282.053,367.998,282.053,373.498L282.053,373.498z" fill="#808285"/></g></g><g/><g/><g/><g/><g/><g/></svg>