<?xml version="1.0" ?><!DOCTYPE svg  PUBLIC '-//W3C//DTD SVG 1.1//EN'  'http://www.w3.org/Graphics/SVG/1.1/DTD/svg11.dtd'><svg enable-background="new 0 0 512 512" height="512px" id="Calque_1" version="1.1" viewBox="0 0 512 512" width="512px" xml:space="preserve" xmlns="http://www.w3.org/2000/svg" xmlns:xlink="http://www.w3.org/1999/xlink"><g><path d="M512,256c0,141.386-114.599,255.997-255.991,255.997C114.623,511.997,0,397.386,0,256   S114.623,0.003,256.009,0.003C397.401,0.003,512,114.614,512,256z" fill="#EBEEEF"/><g id="arrow_7_"><path clip-rule="evenodd" d="M255.859,333.725c-38.55,0-77.124,0.012-115.699,0    c-8.45-0.025-14.575-6.125-13.575-13.976c0.325-2.6,1.725-5.45,3.475-7.475c34.85-40.237,69.85-80.387,104.824-120.549    c1.675-1.938,3.3-3.912,5.05-5.787c9.3-10.25,23.024-10.325,32.118,0.025c13.825,15.712,27.449,31.512,41.175,47.287    c22.475,25.838,44.899,51.712,67.449,77.499c3.925,4.5,6.374,9.2,3.774,15.025c-2.649,5.975-7.675,8.037-14.1,8    C332.177,333.674,294.027,333.725,255.859,333.725z" fill="#44B39D" fill-rule="evenodd"/></g></g><g/><g/><g/><g/><g/><g/></svg>