<?xml version="1.0" ?><!DOCTYPE svg  PUBLIC '-//W3C//DTD SVG 1.1//EN'  'http://www.w3.org/Graphics/SVG/1.1/DTD/svg11.dtd'><svg enable-background="new 0 0 512 512" height="512px" id="Calque_1" version="1.1" viewBox="0 0 512 512" width="512px" xml:space="preserve" xmlns="http://www.w3.org/2000/svg" xmlns:xlink="http://www.w3.org/1999/xlink"><g><path d="M512,256c0,141.386-114.599,255.997-255.991,255.997C114.623,511.997,0,397.386,0,256   S114.623,0.003,256.009,0.003C397.401,0.003,512,114.614,512,256z" fill="#344E5D"/><g id="tree"><path d="M165.485,292.8c0,0-4.725-177.148,219.666-133.849c0,0-52.749,21.274-59.05,97.624    C319.803,332.949,208.01,340.824,165.485,292.8z" fill="#8DC63F"/><path d="M202.885,256.075c0,0,2.35-2.2,10.425-4.225c4.05-1,8.825-2.05,14-2.75c5.15-0.775,10.7-1.175,16.25-1.2    c2.774,0.125,5.55,0,8.274,0.375c2.7,0.274,5.375,0.475,7.925,1.024c2.55,0.45,5,0.9,7.275,1.65    c2.269,0.675,4.443,1.15,6.344,2.025c1.899,0.775,3.649,1.475,5.2,2.1c1.475,0.8,2.774,1.5,3.824,2.075    c2.101,1.149,3.301,1.8,3.301,1.8s-1.25-0.575-3.426-1.575c-1.1-0.475-2.399-1.075-3.925-1.75c-1.575-0.525-3.35-1.075-5.3-1.725    c-1.9-0.726-4.1-1.025-6.344-1.55c-2.275-0.55-4.725-0.8-7.225-1.075c-2.5-0.375-5.125-0.375-7.775-0.45    c-2.649-0.175-5.35,0.15-8.05,0.225c-5.35,0.425-10.675,1.2-15.6,2.275c-4.925,1.05-9.45,2.375-13.25,3.625    c-7.7,2.55-12.35,4.875-12.35,4.875L202.885,256.075z" fill="#39B54A"/><path d="M225.984,239.8c0,0,2.5-2.25,10.4-6.225c4.175-0.275,9.024-0.475,14.25-0.25    c5.2,0.175,10.75,0.725,16.2,1.7c2.719,0.6,5.469,0.975,8.068,1.8c2.625,0.75,5.226,1.425,7.625,2.425    c2.45,0.9,4.775,1.75,6.875,2.9c2.125,1.075,4.2,1.925,5.9,3.1c1.75,1.1,3.35,2.1,4.75,3c1.324,1.05,2.449,1.95,3.399,2.7    c1.851,1.5,2.925,2.35,2.925,2.35s-1.125-0.774-3.1-2.125c-0.975-0.675-2.175-1.5-3.525-2.425c-1.475-0.8-3.125-1.675-4.925-2.625    c-1.75-1.05-3.85-1.75-5.999-2.65c-2.125-0.95-4.476-1.625-6.926-2.325c-2.375-0.825-4.975-1.275-7.574-1.825    c-2.575-0.625-5.275-0.775-7.919-1.2c-5.375-0.524-10.75-0.7-15.775-0.5c-5.05,0.15-9.725,0.675-13.7,1.225    c-8,1.175-13,2.65-13,2.65L225.984,239.8z" fill="#39B54A"/><path d="M359.201,166.926c-7.674,2.775-16.199,7.025-25.549,11.05c-4.7,2-9.45,4.225-14.176,6.725    c-4.774,2.399-9.624,4.875-14.449,7.325c-4.9,2.35-9.575,5.125-14.25,7.7c-4.65,2.6-9.225,5.175-13.675,7.65    c-8.669,5.325-16.894,10.025-23.693,14.5c-13.775,8.675-22.575,15.025-22.575,15.025s8.925-6.2,22.825-14.6    c6.875-4.35,15.193-8.9,23.943-14.05c4.476-2.4,9.101-4.875,13.8-7.4c4.7-2.5,9.425-5.175,14.35-7.425    c4.851-2.375,9.726-4.725,14.525-7.05c4.774-2.4,9.55-4.55,14.25-6.45c9.399-3.825,17.949-7.899,25.624-10.524    c6.575-2.3,12.125-4.25,16.425-5.75c5.176-3.3,8.575-4.7,8.575-4.7c-1.05-0.2-2.05-0.325-3.101-0.525    C378.127,159.901,369.977,162.926,359.201,166.926z" fill="#39B54A"/><path d="M326.102,256.575c5.45-65.975,45.5-90.774,56.324-96.299    c-96.898,23.949-84.448,87.773-105.923,121.498c-21.319,33.55-80.418,22.7-105.993,16.101    C216.16,340.124,320.053,330.149,326.102,256.575z" fill="#39B54A" opacity="0.44"/><path d="M194.385,263.85c0,0-0.15-15.5,2.975-30.549c0.725-3.75,1.725-7.475,2.8-10.9    c1.125-3.4,2.425-6.5,3.675-9.05c1.4-2.525,2.55-4.6,3.65-5.875c1-1.325,1.575-2.075,1.575-2.075s-0.5,0.825-1.35,2.225    c-0.95,1.35-1.875,3.55-2.975,6.125c-0.975,2.625-1.925,5.75-2.65,9.175c-0.7,3.45-1.275,7.125-1.625,10.85    c-0.7,7.425-0.725,14.899-0.475,20.475c0.25,5.625,0.675,9.25,0.675,9.25L194.385,263.85z" fill="#39B54A"/><path d="M211.16,249.375c0,0,0.05-0.9,0.35-2.725c0.2-1.825,0.7-4.3,1.375-7.2c0.625-2.95,1.8-6.225,2.9-9.775    c1.575-3.375,2.7-7.2,4.775-10.575c0.975-1.725,1.925-3.425,2.9-5.125c0.825-1.725,2.125-3.175,3.225-4.65    c1.1-1.45,2.175-2.875,3.175-4.2c0.95-1.4,2.075-2.525,3.175-3.5c4.2-4.025,7-6.7,7-6.7s-2.5,2.925-6.25,7.325    c-0.975,1.075-1.95,2.274-2.75,3.75c-0.85,1.4-1.75,2.875-2.7,4.4c-0.9,1.55-2,3.025-2.65,4.825c-0.75,1.7-1.5,3.45-2.25,5.2    c-1.675,3.399-2.375,7.199-3.525,10.524c-0.7,3.475-1.5,6.675-1.775,9.45c-0.375,2.825-0.6,5.1-0.625,6.675    c-0.1,1.525-2.925,2.55-2.925,2.55L211.16,249.375z" fill="#39B54A"/><path d="M127.561,346.824c-0.05,0.125,1.175-2.551,3.375-6.575c2.2-4.05,5.4-9.7,9.625-16.25    c2.05-3.3,4.425-6.774,6.95-10.425c2.475-3.675,5.399-7.35,8.225-11.25c3.075-3.75,6.05-7.725,9.425-11.524    c3.325-3.825,6.625-7.75,10.275-11.375c3.5-3.75,7.125-7.375,10.85-10.774c3.6-3.525,7.4-6.726,11.075-9.75    c3.6-3.175,7.325-5.925,10.85-8.5c3.5-2.65,6.85-5.05,10.125-7.025c3.2-2.025,6.149-3.9,8.75-5.55c2.725-1.475,5.1-2.75,7.05-3.8    c3.875-2.1,6.1-3.275,6.1-3.275s-2.075,1.425-5.675,3.976c-1.8,1.25-4,2.8-6.5,4.55c-2.375,1.925-5.05,4.1-7.975,6.475    c-2.976,2.3-5.976,5.05-9.075,8.025c-3.15,2.899-6.425,6-9.55,9.475c-3.25,3.375-6.525,6.9-9.6,10.699    c-3.2,3.7-6.3,7.575-9.225,11.575c-3.05,3.9-5.8,8.05-8.55,12.05c-2.774,3.976-5.175,8.15-7.675,12.025    c-2.25,4.05-4.6,7.824-6.525,11.6c-2,3.725-3.85,7.275-5.425,10.6c-3.225,6.6-5.6,12.225-7.15,16.15    c-1.6,3.949-2.2,5.925-2.275,6.074c-2,4.825-7.5,7.125-12.325,5.125C127.886,357.174,125.561,351.648,127.561,346.824z" fill="#EABC8E"/><path d="M252.634,180.226c0,0,2.75-2.35,7.45-4.75c2.325-1.3,5.15-2.475,8.2-3.675    c3.068-1.225,6.469-2.1,9.844-3.05c3.475-0.6,6.899-1.4,10.225-1.6c3.325-0.175,6.425-0.325,9.075-0.101    c5.35,0.625,8.725,1.625,8.725,1.625s-3.5,1.125-8.475,1.976c-2.5,0.6-5.375,1.399-8.475,1.975c-1.551,0.2-3.101,0.85-4.726,1.15    c-1.625,0.35-3.274,0.725-4.899,1.1c-1.65,0.4-3.301,0.775-4.926,1.175c-1.6,0.425-3.25,0.6-4.774,1.05    c-3.094,0.75-6.069,1.25-8.594,1.775C256.209,179.826,252.634,180.226,252.634,180.226z" fill="#FFFFFF"/></g></g><g/><g/><g/><g/><g/><g/></svg>