<?xml version="1.0" ?><!DOCTYPE svg  PUBLIC '-//W3C//DTD SVG 1.1//EN'  'http://www.w3.org/Graphics/SVG/1.1/DTD/svg11.dtd'><svg enable-background="new 0 0 512 512" height="512px" id="Calque_1" version="1.1" viewBox="0 0 512 512" width="512px" xml:space="preserve" xmlns="http://www.w3.org/2000/svg" xmlns:xlink="http://www.w3.org/1999/xlink"><g><path d="M512,256c0,141.386-114.599,255.997-255.991,255.997C114.623,511.997,0,397.386,0,256   S114.623,0.003,256.009,0.003C397.401,0.003,512,114.614,512,256z" fill="#344E5D"/><g id="Garden"><path clip-rule="evenodd" d="M257.584,277.612c31.019-1.476,63.969-14.625,63.969-14.625    c1.199-129.148-53.919-137.848-64.644-138.323l0,0c0,0-0.325-0.025-0.9-0.025c-0.575,0-0.9,0.025-0.9,0.025l0,0    c-10.725,0.475-65.85,9.175-64.649,138.323c0,0,32.975,13.149,63.974,14.625v0.149c0.525-0.024,1.05-0.05,1.575-0.074    c0.525,0.024,1.049,0.05,1.575,0.074V277.612z" fill="#C3D7DB" fill-rule="evenodd"/><path clip-rule="evenodd" d="M256.909,124.664L256.909,124.664    c0,0-0.325-0.025-0.9-0.025c-0.575,0-0.875,0.025-0.875,0.025v153.048c0.275,0,0.575-0.024,0.875-0.024    c0.525,0.024,1.049,0.05,1.575,0.074v-0.149c31.019-1.476,63.969-14.625,63.969-14.625    C322.752,133.839,267.634,125.139,256.909,124.664z" fill="#A8BEC6" fill-rule="evenodd" opacity="0.4"/><polygon clip-rule="evenodd" fill="#80929B" fill-rule="evenodd" points="246.759,329.537 265.259,329.537 265.259,277.012     255.659,263.688 246.759,277.012   "/><polygon clip-rule="evenodd" fill="#5C717C" fill-rule="evenodd" points="265.259,329.537 265.259,277.012 255.659,263.688     255.659,329.537   "/><path clip-rule="evenodd" d="M265.259,292.813    c-2.625-3.25-5.825-5.45-9.25-5.45c-3.425,0-6.6,2.2-9.25,5.425v36.75h18.5V292.813z" fill="#2D4453" fill-rule="evenodd" opacity="0.38"/><path clip-rule="evenodd" d="M239.734,371.086c0,8.975,7.3,16.275,16.275,16.275l0,0    c9,0,16.268-7.301,16.268-16.275v-50.774c0-8.975-7.269-24.074-16.268-24.074l0,0c-8.975,0-16.275,15.1-16.275,24.074V371.086z" fill="#CF7E31" fill-rule="evenodd"/><path clip-rule="evenodd" d="M265.659,321.012c0,18.324,0,48.549,0,48.549    s-0.025,11.301-10,17.75c0.125,0,0.25,0.051,0.35,0.051c9,0,16.268-7.301,16.268-16.275v-50.774    c0-8.975-7.269-24.074-16.268-24.074C256.009,296.237,265.659,302.712,265.659,321.012z" fill="#754C29" fill-rule="evenodd" opacity="0.42"/></g></g><g/><g/><g/><g/><g/><g/></svg>