<?xml version="1.0" ?><!DOCTYPE svg  PUBLIC '-//W3C//DTD SVG 1.1//EN'  'http://www.w3.org/Graphics/SVG/1.1/DTD/svg11.dtd'><svg enable-background="new 0 0 512 512" height="512px" id="Calque_1" version="1.1" viewBox="0 0 512 512" width="512px" xml:space="preserve" xmlns="http://www.w3.org/2000/svg" xmlns:xlink="http://www.w3.org/1999/xlink"><g><path d="M512,256c0,141.388-114.612,256-256,256S0,397.388,0,256S114.612,0,256,0S512,114.612,512,256z" fill="#EBEEEF"/><g id="quote_1_"><path d="M188.45,202.469c11.475-27.237,32-49.225,32-49.225c-105.3,9.35-134.15,99.05-134.15,99.05h0.1    c-2.825,8.2-4.4,16.981-4.4,26.131c0,44.3,36.05,80.325,80.35,80.325c44.3,0,80.325-36.025,80.325-80.325    C242.675,243.269,219.975,213.331,188.45,202.469z" fill="#44B39D"/><path d="M188.525,202.494c-2.75,6.8-10.65,28.175-10.35,49.263c0,0,11.9-25.938,32.65-37.288    C204.125,209.369,196.625,205.294,188.525,202.494z" fill="#2C846D" opacity="0.65"/><path d="M375.775,202.469c11.475-27.237,32-49.225,32-49.225c-105.301,9.35-134.176,99.05-134.176,99.05h0.101    c-2.825,8.2-4.375,16.981-4.375,26.131c0,44.3,36.05,80.325,80.325,80.325c44.3,0,80.35-36.025,80.35-80.325    C430,243.269,407.275,213.331,375.775,202.469z" fill="#44B39D"/><path d="M375.825,202.494c-2.75,6.8-10.625,28.175-10.351,49.263c0,0,11.926-25.938,32.676-37.288    C391.45,209.369,383.95,205.294,375.825,202.494z" fill="#2C846D" opacity="0.65"/></g></g><g/><g/><g/><g/><g/><g/></svg>