<?xml version="1.0" ?><!DOCTYPE svg  PUBLIC '-//W3C//DTD SVG 1.1//EN'  'http://www.w3.org/Graphics/SVG/1.1/DTD/svg11.dtd'><svg enable-background="new 0 0 512 512" height="512px" id="Calque_1" version="1.1" viewBox="0 0 512 512" width="512px" xml:space="preserve" xmlns="http://www.w3.org/2000/svg" xmlns:xlink="http://www.w3.org/1999/xlink"><g><path d="M511.98,256.016C511.98,397.385,397.391,512,256.009,512C114.634,512,0.019,397.385,0.019,256.016   C0.019,114.641,114.634,0,256.009,0C397.391,0,511.98,114.641,511.98,256.016z" fill="#CFD5D6"/><g id="speakers"><path d="M339.596,369.237c0,8.35-6.774,15.099-15.099,15.099H187.515c-8.325,0-15.099-6.749-15.099-15.099V142.75    c0-8.336,6.774-15.099,15.099-15.099h136.982c8.324,0,15.099,6.762,15.099,15.099V369.237z" fill="#414042"/><g><path d="M280.801,192.921c0,13.687-11.1,24.811-24.792,24.811c-13.699,0-24.798-11.124-24.798-24.811     c0-13.698,11.1-24.81,24.798-24.81C269.701,168.111,280.801,179.223,280.801,192.921z" fill="#1B1B1C"/><path d="M256.009,168.111c13.692,0,24.792,11.112,24.792,24.81c0,13.687-11.1,24.811-24.792,24.811     c-13.699,0-24.798-11.124-24.798-24.811C231.211,179.223,242.311,168.111,256.009,168.111 M256.009,161.637     c-17.249,0-31.272,14.036-31.272,31.284c0,17.236,14.024,31.272,31.272,31.272c17.243,0,31.266-14.036,31.266-31.272     C287.275,175.673,273.252,161.637,256.009,161.637L256.009,161.637z" fill="#F0C946"/></g><path d="M255.534,186.697l6.475-17.798c0,0,7.269,1.899,11.567,6.749l-11.317,12.124L255.534,186.697z" opacity="0.8"/><path d="M246.31,192.921c0,5.35,4.35,9.699,9.699,9.699c5.349,0,9.699-4.35,9.699-9.699    c0-5.374-4.35-9.711-9.699-9.711C250.66,183.209,246.31,187.547,246.31,192.921z" fill="#EFDB7A"/><g><path d="M298.074,297.244c0,23.223-18.849,42.07-42.065,42.07c-23.223,0-42.072-18.848-42.072-42.07     c0-23.224,18.849-42.053,42.072-42.053C279.226,255.191,298.074,274.021,298.074,297.244z" fill="#1B1B1C"/><path d="M256.009,255.191c23.216,0,42.065,18.83,42.065,42.053c0,23.223-18.849,42.07-42.065,42.07     c-23.223,0-42.072-18.848-42.072-42.07C213.938,274.021,232.786,255.191,256.009,255.191 M256.009,244.392     c-29.148,0-52.846,23.711-52.846,52.853c0,29.146,23.698,52.845,52.846,52.845c29.141,0,52.839-23.698,52.839-52.845     C308.849,268.103,285.15,244.392,256.009,244.392L256.009,244.392z" fill="#F0C946"/></g><path d="M255.185,286.694l10.974-30.166c0,0,12.343,3.2,19.667,11.424l-19.217,20.592L255.185,286.694z" opacity="0.8"/><path d="M239.536,297.244c0,9.074,7.375,16.448,16.474,16.448s16.442-7.374,16.442-16.448    c0-9.1-7.343-16.449-16.442-16.449S239.536,288.145,239.536,297.244z" fill="#EFDB7A"/></g></g><g/><g/><g/><g/><g/><g/></svg>