<?xml version="1.0" ?><!DOCTYPE svg  PUBLIC '-//W3C//DTD SVG 1.1//EN'  'http://www.w3.org/Graphics/SVG/1.1/DTD/svg11.dtd'><svg enable-background="new 0 0 512 512" height="512px" id="Calque_1" version="1.1" viewBox="0 0 512 512" width="512px" xml:space="preserve" xmlns="http://www.w3.org/2000/svg" xmlns:xlink="http://www.w3.org/1999/xlink"><g><path d="M511.975,256.025C511.975,397.387,397.374,512,256,512S0.025,397.387,0.025,256.025   C0.025,114.639,114.626,0,256,0S511.975,114.639,511.975,256.025z" fill="#A1C656"/><g><rect fill="#D1D3D4" height="88.741" width="2.399" x="232.478" y="295.134"/><polygon fill="#EFC84A" points="226.728,297.634 240.626,297.634 236.902,289.385 230.452,289.385   "/><path d="M236.902,289.385h-6.45l-1.55,3.449c1.625,0.313,3.1,0.487,4.45,0.525v0.012    c0.1,0,0.225-0.012,0.325-0.012c0.125,0,0.225,0.012,0.35,0.012v-0.012c1.325-0.038,2.824-0.213,4.449-0.525L236.902,289.385z" fill="#C09A2E"/><path d="M292.496,211.017c0-57.419-51.944-60.419-58.469-60.557v-0.012c0,0-0.125,0-0.35,0s-0.325,0-0.325,0v0.012    c-6.55,0.138-58.495,3.138-58.495,60.557c0,60.444,42.046,80.218,58.495,80.755v0.013c0.1,0,0.225,0,0.325-0.013    c0.125,0.013,0.225,0.013,0.35,0.013v-0.013C250.476,291.234,292.496,271.461,292.496,211.017z" fill="#FEDB52"/><path d="M202.405,180.745c0,0-0.05,0.1-0.175,0.274c-0.1,0.188-0.225,0.45-0.425,0.775    c-0.175,0.313-0.375,0.7-0.65,1.125c-0.25,0.438-0.525,0.925-0.825,1.449c-0.6,0.976-1.3,2.15-2.024,3.4    c-0.35,0.625-0.75,1.212-1.1,1.85c-0.175,0.325-0.375,0.649-0.575,0.962c-0.175,0.325-0.35,0.65-0.525,0.963    c-0.4,0.637-0.725,1.3-1.075,1.938c-0.101,0.149-0.175,0.312-0.275,0.462c-0.075,0.163-0.175,0.325-0.25,0.487    c-0.175,0.313-0.325,0.638-0.5,0.938c-0.075,0.15-0.175,0.313-0.274,0.463c-0.05,0.162-0.125,0.313-0.2,0.462    c-0.175,0.3-0.325,0.601-0.475,0.9c-0.325,0.575-0.6,1.137-0.85,1.675c-0.15,0.25-0.3,0.513-0.425,0.75    c-0.15,0.25-0.275,0.475-0.375,0.7c-0.225,0.45-0.425,0.837-0.6,1.163c-0.375,0.662-0.625,1.037-0.625,1.037    s-0.175-0.4-0.375-1.149c-0.1-0.375-0.2-0.825-0.3-1.35c-0.101-0.525-0.101-1.113-0.125-1.775c-0.025-0.325,0-0.675,0-1.025    c-0.025-0.35,0.05-0.7,0.075-1.075c0.05-0.375,0.1-0.75,0.175-1.138c0.024-0.188,0.05-0.388,0.1-0.587s0.1-0.4,0.125-0.6    c0.125-0.387,0.25-0.787,0.35-1.2c0.075-0.188,0.125-0.4,0.2-0.6c0.075-0.2,0.175-0.387,0.25-0.575    c0.325-0.8,0.675-1.6,1.125-2.35c0.225-0.375,0.425-0.75,0.675-1.125c0.25-0.35,0.5-0.7,0.75-1.038c0.5-0.7,1.1-1.3,1.65-1.887    c0.275-0.3,0.575-0.563,0.85-0.825c0.3-0.25,0.575-0.513,0.899-0.725c0.601-0.45,1.15-0.85,1.725-1.175    c0.55-0.35,1.1-0.6,1.575-0.824c0.5-0.2,0.925-0.375,1.3-0.476c0.375-0.125,0.675-0.2,0.875-0.225    C202.28,180.745,202.405,180.745,202.405,180.745z" fill="#FBF7C1"/><rect fill="#D1D3D4" height="88.729" width="2.374" x="277.148" y="272.823"/><path d="M234.027,150.46v-0.012c0,0-0.125,0-0.35,0s-0.325,0-0.325,0v0.012    c-2.475,0.05-11.349,0.513-21.473,4.112c-12.724,86.917,45.071,116.014,56.07,120.713c13.198-12.448,24.547-32.871,24.547-64.269    C292.496,153.598,240.552,150.598,234.027,150.46z" fill="#AC852D" opacity="0.2"/><polygon fill="#27AAE1" points="271.373,275.298 285.297,275.298 281.572,267.062 275.098,267.062   "/><path d="M281.572,267.062h-6.475l-1.549,3.449c1.624,0.313,3.124,0.476,4.449,0.525v0.013    c0.1,0,0.225-0.013,0.35-0.013c0.1,0,0.225,0.013,0.325,0.013v-0.013c1.325-0.05,2.825-0.213,4.449-0.525L281.572,267.062z" fill="#1C75BC"/><path d="M337.143,188.694c0-57.42-51.92-60.419-58.47-60.569l0,0c0,0-0.125,0-0.325,0c-0.225,0-0.35,0-0.35,0l0,0    c-6.55,0.15-58.47,3.149-58.47,60.569c0,60.444,42.021,80.217,58.47,80.742v0.024c0.1,0,0.225,0,0.35,0c0.1,0,0.225,0,0.325,0    v-0.024C295.121,268.911,337.143,249.138,337.143,188.694z" fill="#27AAE1"/><path d="M337.143,188.694c0-44.521-31.197-56.32-48.271-59.444    c46.72,31.521,22.048,109.526,13.923,131.412C319.644,249.763,337.143,227.703,337.143,188.694z" fill="#1C75BC" opacity="0.17"/><path d="M253.775,152.748c0,0-0.05,0.125-0.2,0.387c-0.15,0.25-0.325,0.625-0.6,1.063    c-0.25,0.45-0.55,0.975-0.9,1.6c-0.35,0.575-0.75,1.25-1.175,1.975c-0.825,1.387-1.774,3-2.825,4.725    c-0.475,0.875-1.025,1.7-1.5,2.6c-0.275,0.45-0.525,0.899-0.8,1.324c-0.25,0.45-0.5,0.9-0.75,1.35    c-0.55,0.875-0.975,1.8-1.475,2.675c-0.15,0.225-0.275,0.45-0.4,0.65c-0.1,0.225-0.225,0.45-0.325,0.675    c-0.225,0.45-0.475,0.888-0.7,1.313c-0.125,0.213-0.25,0.425-0.375,0.638c-0.1,0.225-0.2,0.425-0.3,0.649    c-0.225,0.425-0.425,0.825-0.649,1.238c-0.476,0.8-0.825,1.587-1.2,2.325c-0.2,0.362-0.375,0.712-0.575,1.063    c-0.2,0.325-0.375,0.65-0.524,0.962c-0.3,0.625-0.575,1.163-0.85,1.625c-0.5,0.913-0.875,1.438-0.875,1.438s-0.225-0.575-0.5-1.6    c-0.125-0.513-0.275-1.15-0.4-1.875c-0.15-0.737-0.15-1.563-0.2-2.475c0-0.45,0-0.925,0-1.412    c-0.024-0.488,0.075-0.988,0.125-1.513c0.05-0.5,0.125-1.037,0.225-1.575c0.025-0.274,0.075-0.55,0.125-0.824    c0.075-0.275,0.15-0.538,0.225-0.813c0.15-0.55,0.3-1.1,0.475-1.663c0.075-0.275,0.175-0.563,0.25-0.85    c0.125-0.275,0.226-0.537,0.351-0.813c0.475-1.087,0.949-2.212,1.574-3.262c0.3-0.5,0.601-1.025,0.925-1.538    c0.35-0.5,0.7-0.987,1.05-1.462c0.7-0.962,1.5-1.813,2.275-2.625c0.4-0.425,0.825-0.774,1.225-1.149c0.4-0.35,0.8-0.7,1.225-1.013    c0.825-0.612,1.625-1.188,2.4-1.637c0.774-0.475,1.524-0.825,2.199-1.137c0.675-0.288,1.275-0.513,1.8-0.663    c0.5-0.163,0.925-0.25,1.225-0.313C253.625,152.748,253.775,152.748,253.775,152.748z" fill="#67CAEC"/></g></g><g/><g/><g/><g/><g/><g/></svg>