<?xml version="1.0" ?><!DOCTYPE svg  PUBLIC '-//W3C//DTD SVG 1.1//EN'  'http://www.w3.org/Graphics/SVG/1.1/DTD/svg11.dtd'><svg enable-background="new 0 0 512 512" height="512px" id="Calque_1" version="1.1" viewBox="0 0 512 512" width="512px" xml:space="preserve" xmlns="http://www.w3.org/2000/svg" xmlns:xlink="http://www.w3.org/1999/xlink"><g><path d="M512,256c0,141.386-114.599,255.997-255.991,255.997C114.623,511.997,0,397.386,0,256   S114.623,0.003,256.009,0.003C397.401,0.003,512,114.614,512,256z" fill="#344E5D"/><g id="buy"><path d="M157.636,344.849c0,1.925,1.55,3.476,3.475,3.476h182.316c1.9,0,3.476-1.551,3.476-3.476l11.6-101.192    c0-1.925-1.575-3.475-3.476-3.475H149.511c-1.913,0-3.476,1.55-3.476,3.475L157.636,344.849z" fill="#9EAFB6"/><path d="M165.11,344.849c0,1.925,1.563,3.476,3.475,3.476h182.317c1.924,0,3.475-1.551,3.475-3.476l11.6-101.192    c0-1.925-1.575-3.475-3.475-3.475H156.998c-1.925,0-3.475,1.55-3.475,3.475L165.11,344.849z" fill="#80929B"/><path d="M194.81,254.856c-1.637,0-3.3-0.388-4.862-1.2c-5.087-2.688-7.037-8.987-4.362-14.1l37.1-70.299    c2.688-5.087,8.987-7.05,14.087-4.363c5.087,2.688,7.05,9,4.35,14.1l-37.075,70.299    C202.172,252.831,198.56,254.856,194.81,254.856z" fill="#F15E4A"/><path d="M324.677,254.856c-3.749,0-7.374-2.025-9.249-5.563l-37.075-70.299c-2.675-5.1-0.725-11.413,4.351-14.1    c5.1-2.688,11.424-0.725,14.1,4.363l37.1,70.299c2.675,5.112,0.725,11.412-4.375,14.1    C327.977,254.469,326.302,254.856,324.677,254.856z" fill="#F15E4A"/><path d="M324.677,254.856c-3.749,0-7.374-2.025-9.249-5.563l-37.075-70.299c-2.675-5.1-0.725-11.413,4.351-14.1    c5.1-2.688,11.424-0.725,14.1,4.363l37.1,70.299c2.675,5.112,0.725,11.412-4.375,14.1    C327.977,254.469,326.302,254.856,324.677,254.856z" fill="#F15E4A"/><path d="M236.772,164.895c-0.6-0.313-1.225-0.55-1.85-0.737c0.15,3.888-1.4,12.587-10.75,31.287    c-14.937,29.875-18.675,37.649-18.675,37.649l6.95,0.275l28.675-54.375C243.822,173.895,241.859,167.582,236.772,164.895z" fill="#BE1E2D" opacity="0.44"/><path d="M316.928,232.794c0,0-15.25-27.074-25.525-46.387c-6.399-12.025-7.125-18.862-6.75-22.3    c-0.649,0.2-1.3,0.462-1.949,0.787c-5.075,2.688-7.025,9-4.351,14.1l29.075,55.125L316.928,232.794z" fill="#F16668"/><g><path d="M323.902,325.149c0,1.925,1.55,3.5,3.475,3.5h3.875c1.925,0,3.475-1.575,3.475-3.5v-47.875     c0-1.925-1.55-3.475-3.475-3.475h-3.875c-1.925,0-3.475,1.55-3.475,3.475V325.149z" fill="#2D4453"/><path d="M289.127,325.149c0,1.925,1.551,3.5,3.476,3.5h3.85c1.925,0,3.476-1.575,3.476-3.5v-47.875     c0-1.925-1.551-3.475-3.476-3.475h-3.85c-1.925,0-3.476,1.55-3.476,3.475V325.149z" fill="#2D4453"/><path d="M254.334,325.149c0,1.925,1.563,3.5,3.475,3.5h3.875c1.913,0,3.463-1.575,3.463-3.5v-47.875     c0-1.925-1.55-3.475-3.463-3.475h-3.875c-1.912,0-3.475,1.55-3.475,3.475V325.149z" fill="#2D4453"/><path d="M219.547,325.149c0,1.925,1.563,3.5,3.475,3.5h3.863c1.925,0,3.487-1.575,3.487-3.5v-47.875     c0-1.925-1.563-3.475-3.487-3.475h-3.863c-1.913,0-3.475,1.55-3.475,3.475V325.149z" fill="#2D4453"/><path d="M184.772,325.149c0,1.925,1.55,3.5,3.475,3.5h3.862c1.913,0,3.475-1.575,3.475-3.5v-47.875     c0-1.925-1.563-3.475-3.475-3.475h-3.862c-1.925,0-3.475,1.55-3.475,3.475V325.149z" fill="#2D4453"/></g><polygon fill="#5C717C" opacity="0.5" points="147.948,258.606 363.427,265.256 365.201,250.432 147.248,252.682   "/><path d="M334.102,240.031c-0.074-0.15-0.125-0.313-0.199-0.475l-7.625-14.438h-23.6l10.6,20.087    h20.824V240.031z" fill="#BE4230" opacity="0.44"/><path d="M216.797,225.119H193.21l-7.625,14.438c-0.938,1.8-1.3,3.75-1.162,5.649h21.774    L216.797,225.119z" fill="#BE4230" opacity="0.44"/><path d="M388.376,252.144c0,1.925-1.575,3.488-3.499,3.488H127.111c-1.913,0-3.475-1.563-3.475-3.488v-17.375    c0-1.913,1.563-3.475,3.475-3.475h257.766c1.924,0,3.499,1.563,3.499,3.475V252.144z" fill="#BFD3D8"/><path d="M388.376,252.144c0,1.925-1.575,3.488-3.499,3.488H134.598c-1.925,0-3.475-1.563-3.475-3.488v-17.375    c0-1.913,1.55-3.475,3.475-3.475h250.279c1.924,0,3.499,1.563,3.499,3.475V252.144z" fill="#A8BEC6"/></g></g><g/><g/><g/><g/><g/><g/></svg>