<?xml version="1.0" ?><!DOCTYPE svg  PUBLIC '-//W3C//DTD SVG 1.1//EN'  'http://www.w3.org/Graphics/SVG/1.1/DTD/svg11.dtd'><svg enable-background="new 0 0 512 512" height="512px" id="Calque_1" version="1.1" viewBox="0 0 512 512" width="512px" xml:space="preserve" xmlns="http://www.w3.org/2000/svg" xmlns:xlink="http://www.w3.org/1999/xlink"><g><path d="M512,256.003c0,141.367-114.599,255.991-255.991,255.991C114.623,511.994,0,397.37,0,256.003   C0,114.617,114.623,0.006,256.009,0.006C397.401,0.006,512,114.617,512,256.003z" fill="#A1C656"/><g id="task"><polygon fill="#FEDB52" points="182.123,349.296 314.103,349.296 386.126,277.297 386.126,172.267 182.123,172.267   "/><polygon fill="#D7B442" opacity="0.44" points="337.977,325.446 235.772,204.616 207.997,224.016 182.123,221.142     182.123,349.296 314.103,349.296   "/><polygon fill="#FBF7C1" points="314.103,349.296 386.126,277.297 314.103,277.297   "/><g id="pin_1_"><g><polygon fill="#A8BEC6" points="263.422,269.347 281.253,273.222 268.571,260.416 199.047,220.392 193.897,229.316     "/><path d="M215.047,229.591c0.175,1.2,0.601,2.65,1.351,4.425l50.199,28.9l14.656,10.306l-12.682-12.806      L215.047,229.591z" fill="#80929B"/><polygon fill="#5C717C" opacity="0.44" points="219.122,243.916 224.272,234.966 219.822,232.391 214.672,241.341     "/></g><g><polygon fill="#D8444B" points="203.172,248.991 220.672,218.541 166.173,187.191 148.673,217.616     "/><path d="M153.673,220.517c4.725-2.775,15.1-10.175,25.35-25.925l-12.85-7.4l-17.5,30.425      L153.673,220.517z" fill="#96291F" opacity="0.27"/><path d="M125.873,227.116c15.075,0.2,29.7-7.375,37.649-21.2c7.95-13.825,7.15-30.275-0.575-43.2      L125.873,227.116z" fill="#E9484B"/><path d="M198.697,269.072c-14.075-16.631-19.125-35.531-11.175-49.356c7.95-13.8,26.85-18.925,48.25-15.1      L198.697,269.072z" fill="#E9484B"/><path d="M201.473,207.517l-32.55-18.75c0.85-9.05-1.275-18.2-5.975-26.05l-10.85,18.825      c3.9,1.274,12.7,5.649,14.825,19.425l24.399,14.05c0,0,18.925-8.85,38.774-0.5l5.675-9.9      C222.772,202.292,210.747,203.292,201.473,207.517z" fill="#BE1E2D" opacity="0.44"/><path d="M192.623,235.791c0,0,0.25,0.275,0.65,0.725c0.375,0.475,0.925,1.05,1.425,1.825      c0.5,0.725,1.125,1.55,1.6,2.45c0.275,0.45,0.525,0.9,0.75,1.4c0.275,0.45,0.425,0.975,0.7,1.425      c0.226,0.45,0.476,0.925,0.65,1.425s0.375,0.975,0.575,1.4c0.425,0.9,0.6,1.925,0.899,2.725c0.601,1.6,0.8,3.175,0.8,3.175      s-1.425-0.125-3.25-1.075c-0.975-0.425-1.75-1.25-2.625-2.125c-0.95-0.85-1.5-2.024-2.15-3.149c-0.55-1.175-0.875-2.45-1.1-3.65      c-0.1-1.2-0.2-2.3,0-3.3c0.125-0.975,0.375-1.825,0.625-2.375C192.397,236.091,192.623,235.791,192.623,235.791z" fill="#FFFFFF"/></g></g></g></g><g/><g/><g/><g/><g/><g/></svg>