<?xml version="1.0" ?><!DOCTYPE svg  PUBLIC '-//W3C//DTD SVG 1.1//EN'  'http://www.w3.org/Graphics/SVG/1.1/DTD/svg11.dtd'><svg enable-background="new 0 0 512 512" height="512px" id="Calque_1" version="1.1" viewBox="0 0 512 512" width="512px" xml:space="preserve" xmlns="http://www.w3.org/2000/svg" xmlns:xlink="http://www.w3.org/1999/xlink"><g><path d="M511.975,256.025C511.975,397.387,397.374,512,256,512S0.025,397.387,0.025,256.025   C0.025,114.639,114.626,0,256,0S511.975,114.639,511.975,256.025z" fill="#344E5D"/><g id="code"><rect fill="#FFFFFF" height="23.448" width="185.588" x="185.4" y="161.034"/><path d="M376.688,161.659H135.218c-4.424,0-8.024,3.575-8.024,8.024v173.258c0,4.425,3.6,8.024,8.024,8.024    h241.471c4.425,0,8.024-3.6,8.024-8.024V169.684C384.713,165.234,381.113,161.659,376.688,161.659z M361.99,182.907H198.649    c-4.399,0-7.975-3.05-7.975-6.824c0-3.75,3.575-6.8,7.975-6.8H361.99c4.398,0,7.974,3.05,7.974,6.8    C369.964,179.857,366.389,182.907,361.99,182.907z" fill="#E6E7E8"/><path d="M376.764,161.659H135.318c-4.45,0-8.024,3.575-8.024,8.024v20.848h257.519v-20.848    C384.813,165.234,381.213,161.659,376.764,161.659z M361.99,182.907H198.649c-4.399,0-7.975-3.05-7.975-6.824    c0-3.75,3.575-6.8,7.975-6.8H361.99c4.398,0,7.974,3.05,7.974,6.8C369.964,179.857,366.389,182.907,361.99,182.907z" fill="#27AAE1"/><path d="M142.33,176.083c0,2.774,2.237,5.024,5.012,5.024l0,0c2.775,0,5.012-2.25,5.012-5.024l0,0    c0-2.75-2.237-5-5.012-5l0,0C144.567,171.083,142.33,173.333,142.33,176.083L142.33,176.083z" fill="#E7CE3C"/><path d="M155.166,176.083c0,2.774,2.25,5.024,5.024,5.024l0,0c2.763,0,5-2.25,5-5.024l0,0c0-2.75-2.237-5-5-5l0,0    C157.416,171.083,155.166,173.333,155.166,176.083L155.166,176.083z" fill="#8DC63F"/><path d="M168.015,176.083c0,2.774,2.237,5.024,5.012,5.024l0,0c2.775,0,5.024-2.25,5.024-5.024l0,0    c0-2.75-2.25-5-5.024-5l0,0C170.252,171.083,168.015,173.333,168.015,176.083L168.015,176.083z" fill="#F15A29"/><g><rect fill="#A7A9AC" height="10.424" width="110.032" x="168.79" y="219.354"/><rect fill="#A7A9AC" height="10.424" width="110.009" x="191.987" y="242.526"/><rect fill="#A7A9AC" height="10.398" width="110.033" x="215.16" y="265.725"/><rect fill="#A7A9AC" height="10.424" width="110.009" x="191.987" y="284.247"/><rect fill="#A7A9AC" height="10.424" width="110.032" x="168.79" y="305.096"/></g></g></g><g/><g/><g/><g/><g/><g/></svg>