<?xml version="1.0" ?><!DOCTYPE svg  PUBLIC '-//W3C//DTD SVG 1.1//EN'  'http://www.w3.org/Graphics/SVG/1.1/DTD/svg11.dtd'><svg enable-background="new 0 0 512 512" height="512px" id="Calque_1" version="1.1" viewBox="0 0 512 512" width="512px" xml:space="preserve" xmlns="http://www.w3.org/2000/svg" xmlns:xlink="http://www.w3.org/1999/xlink"><g><path d="M512,256.003c0,141.367-114.599,255.991-255.991,255.991C114.623,511.994,0,397.37,0,256.003   C0,114.617,114.623,0.006,256.009,0.006C397.401,0.006,512,114.617,512,256.003z" fill="#344E5D"/><g id="Shirt"><rect fill="#E6E7E8" height="196.766" width="151.255" x="180.322" y="166.43"/><polygon fill="#E6E7E8" points="349.152,260.678 293.327,204.829 331.727,166.43 387.576,222.254   "/><polygon fill="#A7A9AC" opacity="0.27" points="255.646,226.153 285.402,214.154 299.728,222.229 325.427,193.579     309.627,177.804 275.128,194.679   "/><polygon fill="#D1D3D4" points="300.603,148.805 255.947,226.153 211.272,148.805   "/><polygon fill="#43B39C" points="300.603,148.805 315.502,174.504 294.577,207.554 278.428,199.104 255.947,226.153   "/><polygon fill="#00A084" points="225.072,172.654 286.828,172.654 300.603,148.805 211.272,148.805   "/><polygon fill="#A7A9AC" opacity="0.27" points="351.302,258.028 331.302,220.754 331.477,242.979 349.152,260.678   "/><polygon fill="#E6E7E8" points="162.848,260.678 218.697,204.829 180.272,166.43 124.448,222.254   "/><polygon fill="#A7A9AC" opacity="0.27" points="160.723,258.028 180.723,220.754 180.548,242.979 162.848,260.678   "/><polygon fill="#43B39C" points="211.247,148.805 196.348,174.504 217.247,207.554 233.422,199.104 255.896,226.153   "/></g></g><g/><g/><g/><g/><g/><g/></svg>