<?xml version="1.0" ?><!DOCTYPE svg  PUBLIC '-//W3C//DTD SVG 1.1//EN'  'http://www.w3.org/Graphics/SVG/1.1/DTD/svg11.dtd'><svg enable-background="new 0 0 512 512" height="512px" id="Calque_1" version="1.1" viewBox="0 0 512 512" width="512px" xml:space="preserve" xmlns="http://www.w3.org/2000/svg" xmlns:xlink="http://www.w3.org/1999/xlink"><g><path d="M512,256c0,141.386-114.599,255.997-255.991,255.997C114.623,511.997,0,397.386,0,256   S114.623,0.003,256.009,0.003C397.401,0.003,512,114.614,512,256z" fill="#EBEEEF"/><g id="quote_5_"><path d="M323.552,202.47c-11.475-27.237-31.999-49.237-31.999-49.237c105.299,9.362,134.173,99.062,134.173,99.062    l-0.1,0.013c2.825,8.199,4.375,16.969,4.375,26.118c0,44.3-36.05,80.349-80.349,80.349c-44.275,0-80.324-36.049-80.324-80.349    C269.328,243.269,292.027,213.319,323.552,202.47z" fill="#44B39D"/><path d="M323.502,202.482c2.75,6.8,10.625,28.174,10.325,49.274c0,0-11.899-25.937-32.649-37.299    C307.877,209.369,315.402,205.282,323.502,202.482z" fill="#2C846D" opacity="0.65"/><path d="M136.248,202.47c-11.5-27.237-32-49.237-32-49.237c105.299,9.362,134.148,99.062,134.148,99.062    l-0.1,0.013c2.825,8.199,4.375,16.969,4.375,26.118c0,44.3-36.024,80.349-80.324,80.349c-44.299,0-80.349-36.049-80.349-80.349    C81.999,243.269,104.724,213.319,136.248,202.47z" fill="#44B39D"/><path d="M136.173,202.482c2.75,6.8,10.65,28.174,10.35,49.274c0,0-11.925-25.937-32.674-37.299    C120.573,209.369,128.073,205.282,136.173,202.482z" fill="#2C846D" opacity="0.65"/></g></g><g/><g/><g/><g/><g/><g/></svg>