<?xml version="1.0" ?><!DOCTYPE svg  PUBLIC '-//W3C//DTD SVG 1.1//EN'  'http://www.w3.org/Graphics/SVG/1.1/DTD/svg11.dtd'><svg enable-background="new 0 0 512 512" height="512px" id="Calque_1" version="1.1" viewBox="0 0 512 512" width="512px" xml:space="preserve" xmlns="http://www.w3.org/2000/svg" xmlns:xlink="http://www.w3.org/1999/xlink"><g><path d="M512,256c0,141.386-114.599,255.997-256.003,255.997C114.623,511.997,0,397.386,0,256   S114.623,0.003,255.997,0.003C397.401,0.003,512,114.614,512,256z" fill="#43B39C"/><g id="basket_1_"><rect fill="#BC6F2E" height="117.098" width="201.828" x="155.323" y="125.471"/><polygon fill="#D98D39" points="339.827,139.533 357.151,125.471 357.151,153.183 351.777,174.682   "/><polygon fill="#D98D39" points="172.01,139.533 154.698,125.471 154.698,153.183 160.073,174.682   "/><polygon fill="#F3BF6B" points="366.252,155.095 339.827,139.607 339.827,193.819   "/><polyline fill="#F3BF6B" points="172.073,193.819 145.636,155.095 172.073,139.607   "/><polygon fill="#EEB144" points="138.911,386.523 373.102,386.523 359.427,232.544 366.252,155.095 145.748,155.095     152.573,233.457   "/><polygon fill="#F1943F" opacity="0.65" points="152.423,232.544 359.427,232.544 366.252,155.095 145.748,155.095   "/><path d="M214.672,187.895c-4.912,0-8.887,3.975-8.887,8.888c0,4.899,3.975,8.887,8.887,8.887    c4.9,0,8.875-3.988,8.875-8.887C223.547,191.87,219.572,187.895,214.672,187.895L214.672,187.895z" fill="#A55F26"/><path d="M297.228,187.895c-4.9,0-8.875,3.975-8.875,8.888c0,4.899,3.975,8.887,8.875,8.887    c4.925,0,8.899-3.988,8.899-8.887C306.127,191.87,302.152,187.895,297.228,187.895L297.228,187.895z" fill="#A55F26"/><path d="M294.553,203.97c0.774,4,1.199,8.175,1.199,12.475c0,27.975-17.774,50.737-39.63,50.737    c-21.862,0-39.625-22.763-39.625-50.737c0-4.3,0.413-8.475,1.2-12.475h-5.55c-0.726,4.012-1.125,8.187-1.125,12.475    c0,31,20.225,56.206,45.099,56.206c24.856,0,45.106-25.207,45.106-56.206c0-4.288-0.4-8.462-1.15-12.475H294.553z" fill="#CF7E31" opacity="0.5"/><path d="M256.072,267.644c-12.9,0-23.288-4.263-30.9-12.688c-17.887-19.812-13.8-55.424-13.625-56.937    c0.238-1.875,2.013-3.15,3.825-2.987c1.875,0.225,3.225,1.938,3,3.825c-0.05,0.325-3.888,34.037,11.9,51.512    c6.45,7.125,15.387,10.587,26.8,10.412c11.499-0.225,20.506-4.1,26.756-11.525c15.024-17.85,10.249-50.45,10.199-50.787    c-0.3-1.863,1-3.625,2.875-3.9c1.8-0.287,3.625,1,3.9,2.862c0.225,1.463,5.3,36.037-11.725,56.237    c-7.575,9.013-18.301,13.712-31.869,13.962C256.822,267.644,256.447,267.644,256.072,267.644z" fill="#FFFFFF"/></g></g><g/><g/><g/><g/><g/><g/></svg>