<?xml version="1.0" ?><!DOCTYPE svg  PUBLIC '-//W3C//DTD SVG 1.1//EN'  'http://www.w3.org/Graphics/SVG/1.1/DTD/svg11.dtd'><svg enable-background="new 0 0 512 512" height="512px" id="Calque_1" version="1.1" viewBox="0 0 512 512" width="512px" xml:space="preserve" xmlns="http://www.w3.org/2000/svg" xmlns:xlink="http://www.w3.org/1999/xlink"><g><path d="M512,256c0,141.386-114.599,255.997-255.991,255.997C114.623,511.997,0,397.386,0,256   S114.623,0.003,256.009,0.003C397.401,0.003,512,114.614,512,256z" fill="#87BEC5"/><g id="flashlight"><rect fill="#2D4453" height="20.263" width="91.605" x="210.197" y="128.214"/><rect fill="#2D4453" height="206.135" width="48.669" x="231.659" y="177.651"/><rect fill="#5C717C" height="12.663" width="48.669" x="231.659" y="350.836"/><polygon fill="#5C717C" points="231.672,178.463 280.303,178.463 301.803,148.477 210.197,148.477   "/><polygon fill="#1E2F38" opacity="0.38" points="280.328,363.499 280.328,350.836 280.328,178.451 301.803,148.477     279.328,148.477 279.328,148.664 269.027,178.451 269.027,383.786 280.328,383.786   "/><g><path d="M250.271,265.888c0,3.737,2.563,6.749,5.725,6.749l0,0c3.163,0,5.725-3.012,5.725-6.749v-40.55     c0-3.737-2.563-6.763-5.725-6.763l0,0c-3.163,0-5.725,3.025-5.725,6.763V265.888z" fill="#1C2D33"/><path d="M255.997,273.912c-3.75,0-6.8-3.6-6.8-8.024v-40.55c0-4.425,3.05-8.025,6.8-8.025s6.8,3.6,6.8,8.025     v40.55C262.797,270.313,259.746,273.912,255.997,273.912z M255.997,219.838c-2.575,0-4.65,2.462-4.65,5.5v40.55     c0,3.024,2.075,5.487,4.65,5.487c2.562,0,4.65-2.463,4.65-5.487v-40.55C260.646,222.3,258.559,219.838,255.997,219.838z" fill="#E6E7E8"/></g><path d="M250.271,240.525c0,3.725,2.563,6.762,5.725,6.762l0,0c3.163,0,5.725-3.038,5.725-6.762v-15.188    c0-3.737-2.563-6.763-5.725-6.763l0,0c-3.163,0-5.725,3.025-5.725,6.763V240.525z" fill="#44B39D"/><rect fill="#1E2F38" height="20.263" opacity="0.38" width="22.475" x="279.328" y="128.214"/></g></g><g/><g/><g/><g/><g/><g/></svg>