<?xml version="1.0" ?><!DOCTYPE svg  PUBLIC '-//W3C//DTD SVG 1.1//EN'  'http://www.w3.org/Graphics/SVG/1.1/DTD/svg11.dtd'><svg enable-background="new 0 0 512 512" height="512px" id="Calque_1" version="1.1" viewBox="0 0 512 512" width="512px" xml:space="preserve" xmlns="http://www.w3.org/2000/svg" xmlns:xlink="http://www.w3.org/1999/xlink"><g><path d="M512,256c0,141.386-114.599,255.997-255.991,255.997C114.623,511.997,0,397.386,0,256   S114.623,0.003,256.009,0.003C397.401,0.003,512,114.614,512,256z" fill="#EBEEEF"/><g id="Directions_1_"><rect fill="#27AAE1" height="15.475" width="94.449" x="128.536" y="292.975"/><g><rect fill="#27AAE1" height="15.487" width="95.124" x="278.152" y="204.101"/><g><polygon fill="#27AAE1" points="362.752,191.151 362.752,232.525 383.451,211.838     "/></g></g><polygon fill="#27AAE1" points="222.922,308.437 210.935,298.649 278.027,204.063 290.027,213.851   "/><rect fill="#27AAE1" height="15.487" width="94.449" x="128.536" y="203.538"/><g><rect fill="#27AAE1" height="15.475" width="95.124" x="278.152" y="292.412"/><g><polygon fill="#27AAE1" points="362.752,320.85 362.752,279.475 383.451,300.149     "/></g></g><polygon fill="#27AAE1" points="222.922,203.551 210.935,213.338 278.027,307.924 290.027,298.137   "/></g></g><g/><g/><g/><g/><g/><g/></svg>