<?xml version="1.0" ?><!DOCTYPE svg  PUBLIC '-//W3C//DTD SVG 1.1//EN'  'http://www.w3.org/Graphics/SVG/1.1/DTD/svg11.dtd'><svg enable-background="new 0 0 512 512" height="512px" id="Calque_1" version="1.1" viewBox="0 0 512 512" width="512px" xml:space="preserve" xmlns="http://www.w3.org/2000/svg" xmlns:xlink="http://www.w3.org/1999/xlink"><g><path d="M512,256c0,141.388-114.612,256-256,256S0,397.388,0,256S114.612,0,256,0S512,114.612,512,256z" fill="#D6D9B8"/><g id="eject"><path d="M296.013,183.775v29.138c34.575,5.538,61.1,35.5,61.1,71.6c0,40.024-32.575,72.587-72.6,72.587    c-36.1,0-66.05-26.524-71.575-61.087h-29.15c5.725,50.6,48.6,89.938,100.725,89.938c56.024,0,101.45-45.425,101.45-101.438    C385.963,232.375,346.612,189.487,296.013,183.775z" fill="#35707F"/><path clip-rule="evenodd" d="M297.338,304.225c-7.625,4.551-17.176,3.25-23.801-3.362    c-7.524-7.5-75.925-75.887-83.45-83.425l-26.1-26.375l0.2,20.25c0,0.5,0.025,1,0.075,1.475c0,0.325-0.025,0.637-0.025,0.962    c-0.475,12.862-13.35,21.45-25.475,17.15c-8-2.85-12.7-9.862-12.7-19.1c-0.025-27.887-0.025-55.775,0-83.65    c0-0.587,0.05-1.163,0.125-2.1c0.925,0.088,1.75,0.225,2.55,0.225c19.45,0.013,38.925,0.013,58.4,0.013    c8.575,0,17.15-0.1,25.725,0.025c7.575,0.138,13.3,3.7,16.775,10.388c6.475,12.425-2.25,27.313-16.275,27.75    c-7.075,0.212-14.175-0.05-21.25-0.1c-0.1,0.2-0.175,0.4-0.275,0.6c0.5,0.512,1,1.012,1.525,1.512    c3.725,3.75,7.475,7.488,11.225,11.238c11.8,11.8,84.575,84.45,96.3,96.337C309.888,283.138,308.088,297.75,297.338,304.225z" fill="#43B39C" fill-rule="evenodd"/></g></g><g/><g/><g/><g/><g/><g/></svg>