<?xml version="1.0" ?><!DOCTYPE svg  PUBLIC '-//W3C//DTD SVG 1.1//EN'  'http://www.w3.org/Graphics/SVG/1.1/DTD/svg11.dtd'><svg enable-background="new 0 0 512 512" height="512px" id="Calque_1" version="1.1" viewBox="0 0 512 512" width="512px" xml:space="preserve" xmlns="http://www.w3.org/2000/svg" xmlns:xlink="http://www.w3.org/1999/xlink"><g><path d="M511.975,256.025C511.975,397.387,397.361,512,256.006,512C114.62,512,0.025,397.387,0.025,256.025   C0.025,114.639,114.62,0,256.006,0C397.361,0,511.975,114.639,511.975,256.025z" fill="#EBEEEF"/><g><path clip-rule="evenodd" d="M124.519,290.172c7.824-1.275,15.648-2.5,23.423-3.9    c0.825-0.149,1.75-1.174,2.125-2.024c2.025-4.55,3.75-9.199,5.825-13.749c0.65-1.399,0.55-2.249-0.275-3.424    c-4.55-6.399-8.999-12.849-13.324-19.023c5.175-5.175,10.199-10.224,15.349-15.398c6.075,4.324,12.424,8.774,18.673,13.349    c1.425,1.05,2.45,1.1,4.1,0.3c4.2-1.95,8.524-3.699,12.874-5.249c1.675-0.625,2.45-1.35,2.725-3.15    c1.15-7.674,2.45-15.274,3.725-23.173c6.924,0,13.724-0.025,20.498,0.075c0.5,0,1.275,1.05,1.4,1.725    c1.3,7.125,2.575,14.224,3.699,21.373c0.3,1.925,1.125,2.65,2.925,3.25c4.274,1.55,8.475,3.3,12.599,5.274    c1.6,0.75,2.65,0.85,4.125-0.25c6.249-4.6,12.574-9.074,18.798-13.573c5,5.199,9.968,10.273,15.167,15.623    c-4.024,5.725-8.324,12.074-12.842,18.248c-1.375,1.875-1.4,3.2-0.35,5.274c1.949,3.8,3.568,7.824,4.918,11.899    c0.649,2,1.6,2.675,3.5,2.975c7.574,1.149,15.123,2.425,22.872,3.675c0,7.199,0,14.299,0,21.623    c-5.649,1-11.274,2.449-16.998,2.899c-6.05,0.45-10.05,2.35-11.049,8.949c-0.369,2.524-1.919,4.975-3.269,7.249    c-1.075,1.8-1.05,3.1,0.225,4.8c4.594,6.149,9.018,12.424,13.418,18.522c-5.175,5.075-10.249,10.074-15.518,15.274    c-5.975-4.2-12.424-8.624-18.773-13.224c-1.574-1.15-2.699-0.976-4.374-0.176c-4.1,1.95-8.324,3.7-12.599,5.25    c-1.725,0.6-2.45,1.399-2.725,3.149c-1.3,7.624-2.725,15.249-4.1,22.873c-7.25,0-14.474,0-21.723,0    c-1.274-7.899-2.5-15.823-3.899-23.673c-0.15-0.8-1.25-1.725-2.1-2.074c-4.325-1.875-8.799-3.45-13.074-5.45    c-1.699-0.774-2.799-0.875-4.349,0.25c-6.299,4.55-12.674,8.925-18.673,13.124c-5.225-5.199-10.274-10.225-15.423-15.374    c4.424-6.174,8.949-12.573,13.574-18.897c0.85-1.176,0.899-2.05,0.25-3.45c-2.05-4.425-3.95-8.949-5.649-13.523    c-0.575-1.55-1.275-2.175-2.825-2.425c-7.624-1.3-15.273-2.725-22.873-4.074C124.519,304.67,124.519,297.421,124.519,290.172z     M240.933,301.396c0.075-16.474-13.374-30.072-29.997-30.322c-16.498-0.225-30.347,13.474-30.472,30.122    c-0.101,16.549,13.648,30.348,30.247,30.322C227.234,331.518,240.808,317.969,240.933,301.396z" fill="#44B39D" fill-rule="evenodd"/><path clip-rule="evenodd" d="M381.238,156.035c2.124,5.174,4.149,10.174,6.249,15.249    c-5.05,3.175-9.874,6.324-14.823,9.299c-1.575,0.95-1.976,2-1.875,3.75c0.175,3.1,0.199,6.199-0.025,9.299    c-0.15,1.85,0.3,2.95,1.975,3.925c4.875,2.899,9.649,6,14.699,9.149c-2.1,5.024-4.15,9.974-6.324,15.198    c-5.175-1.175-10.324-2.125-15.35-3.524c-2.924-0.825-4.849-0.525-6.749,2.125c-1.624,2.25-4.1,3.9-6.049,5.95    c-0.625,0.675-1.101,1.925-0.925,2.774c1.074,5.225,2.299,10.424,3.574,15.599c0.375,1.524,0.1,2.325-1.475,2.899    c-3.875,1.45-7.699,3-11.449,4.7c-1.55,0.7-2.25,0.3-3.074-1.05c-2.625-4.35-5.449-8.574-8.074-12.924    c-0.95-1.625-1.875-2.15-3.875-1.95c-3.149,0.35-6.374,0.225-9.523,0c-1.601-0.125-2.5,0.15-3.351,1.525    c-3.1,4.974-6.324,9.874-9.648,14.999c-4.8-2-9.574-3.925-14.249-6.024c-0.425-0.2-0.6-1.65-0.425-2.425    c1.1-5.1,2.274-10.224,3.575-15.323c0.374-1.375,0.024-2.125-1.025-3.075c-2.525-2.3-5.024-4.699-7.274-7.299    c-1.1-1.25-2.075-1.5-3.524-1.15c-5.05,1.15-10.1,2.225-15.117,3.375c-1.35,0.3-2.2,0.25-2.8-1.275    c-1.5-4.025-3.125-8.024-4.85-11.974c-0.575-1.35-0.226-1.95,0.95-2.649c4.499-2.7,8.942-5.524,13.441-8.249    c1.226-0.725,1.7-1.475,1.551-3.075c-0.275-3.25-0.4-6.574-0.025-9.799c0.25-2.1-0.375-3.075-2.024-4.075    c-4.769-2.95-9.418-6.049-14.293-9.199c2.101-5.05,4.175-10.024,6.325-15.199c5.617,1.325,11.167,2.525,16.642,3.924    c1.825,0.5,2.925,0.15,4.2-1.325c2.174-2.525,4.824-4.649,7.099-7.125c0.625-0.649,1.125-1.875,0.975-2.725    c-0.975-5.174-2.024-10.324-3.274-15.398c-0.4-1.725-0.15-2.475,1.5-3.1c4.425-1.675,8.774-3.5,13.349-5.35    c3.075,4.975,6.149,9.874,9.099,14.799c0.851,1.425,1.75,1.95,3.475,1.85c3.25-0.2,6.55-0.125,9.8,0.05    c1.649,0.101,2.649-0.25,3.55-1.774c2.924-4.95,6.049-9.799,9.199-14.824c5.1,2.125,10.073,4.225,15.223,6.375    c-1.3,5.774-2.549,11.374-3.874,16.973c-0.425,1.675-0.15,2.75,1.274,3.975c2.475,2.1,4.75,4.5,6.899,6.95    c1.05,1.225,1.925,1.55,3.5,1.149C369.664,158.609,375.389,157.385,381.238,156.035z M346.217,188.707    c-0.125-12.674-10.449-22.898-23.174-22.848c-12.599,0.05-22.997,10.499-22.922,23.098c0.05,12.549,10.448,22.948,23.072,23.048    C335.792,212.079,346.316,201.431,346.217,188.707z" fill="#337FC2" fill-rule="evenodd"/></g></g><g/><g/><g/><g/><g/><g/></svg>