<?xml version="1.0" ?><!DOCTYPE svg  PUBLIC '-//W3C//DTD SVG 1.1//EN'  'http://www.w3.org/Graphics/SVG/1.1/DTD/svg11.dtd'><svg enable-background="new 0 0 512 512" height="512px" id="Calque_1" version="1.1" viewBox="0 0 512 512" width="512px" xml:space="preserve" xmlns="http://www.w3.org/2000/svg" xmlns:xlink="http://www.w3.org/1999/xlink"><g><path d="M512,256c0,141.386-114.599,255.997-255.991,255.997C114.623,511.997,0,397.386,0,256   S114.623,0.003,256.009,0.003C397.401,0.003,512,114.614,512,256z" fill="#EBEEEF"/><g id="Alternative"><path clip-rule="evenodd" d="M257.972,210.106c5.6-3.337,10.537-6.274,15.656-9.337    c-3.8-7.45-7.507-14.763-11.244-22.063c-2.513-4.899-5.149-9.737-7.575-14.675c-0.4-0.837-0.387-2.325,0.1-3.075    c6.712-10.125,14.769-19.05,25.318-25.237c4.05-2.375,8.649-4.125,13.225-5.275c7.8-1.962,14.825,1.325,18.875,8.35    c5.351,9.225,10.5,18.55,15.725,27.837c0.625,1.087,1.226,2.188,1.95,3.462c7.025-2.9,14-5.775,21.574-8.9    c-0.549,1-0.75,1.5-1.074,1.962c-11.2,16.737-22.425,33.475-33.6,50.237c-0.85,1.274-1.7,1.737-3.3,1.587    c-14.226-1.274-28.45-2.438-42.675-3.649C266.884,210.981,262.847,210.569,257.972,210.106z" fill="#39B54A" fill-rule="evenodd"/><g><path clip-rule="evenodd" d="M257.972,210.106c0.862,0.088,1.688,0.163,2.5,0.25     c0.313-0.725,0.625-1.475,0.95-2.3C260.271,208.744,259.172,209.395,257.972,210.106z" fill="#009444" fill-rule="evenodd"/><path clip-rule="evenodd" d="M267.222,188.22c14.706-54.524,35.681-54.449,42.756-52.637     c-4.15-4.738-10.05-6.763-16.525-5.138c-4.575,1.15-9.175,2.9-13.225,5.275c-10.55,6.188-18.606,15.112-25.318,25.237     c-0.487,0.75-0.5,2.237-0.1,3.075c2.425,4.938,5.062,9.775,7.575,14.675C263.996,181.857,265.621,185.057,267.222,188.22z" fill="#009444" fill-rule="evenodd"/></g><path clip-rule="evenodd" d="M307.902,133.396c0,0-2.7-2.388-8.5-4.025    c-4.875-1.55-20.225-5.55-43.081-5c-2.55,0.038-5.113,0.163-7.637,0.375c-0.175,0-0.351,0.025-0.525,0.038    c-0.075,0-0.175,0.012-0.25,0.024c-0.775,0.05-1.575,0.125-2.375,0.2l0.025,0.038c-3.675,0.425-7.325,1.05-11,1.925    c-11.15,2.712-20.075,8.262-26.275,18.413c-8.35,13.637-17.45,26.824-26.225,40.212c-0.525,0.8-1,1.625-1.6,2.587    c16.225,10.087,32.25,20.05,48.35,30.062c0.525-0.763,0.95-1.337,1.325-1.938c10.375-16.438,20.649-32.925,31.174-49.274    c3.551-5.537,7.363-10.987,11.619-16c4.85-5.75,10.175-10.887,16.4-14.774C293.152,134.208,302.353,129.47,307.902,133.396z" fill="#D7DF23" fill-rule="evenodd"/><path clip-rule="evenodd" d="M297.978,282.1c0.5,6.5,0.95,12.225,1.399,18.175    c8.375-0.1,16.575-0.175,24.775-0.274c5.5-0.075,11-0.301,16.524-0.275c0.925,0.025,2.25,0.675,2.7,1.45    c6.1,10.524,10.5,21.675,11.375,33.899c0.324,4.675-0.15,9.574-1.15,14.175c-1.699,7.875-7.774,12.7-15.85,13.225    c-10.65,0.675-21.3,1.15-31.925,1.726c-1.25,0.074-2.524,0.149-3.975,0.225c-0.525,7.574-1.05,15.1-1.601,23.25    c-0.649-0.9-1.024-1.325-1.3-1.801c-10.024-17.475-20.024-34.975-30.074-52.424c-0.781-1.325-0.807-2.3,0.024-3.65    c7.45-12.175,14.825-24.424,22.225-36.624C293.228,289.699,295.377,286.274,297.978,282.1z" fill="#39B54A" fill-rule="evenodd"/><g><path clip-rule="evenodd" d="M297.978,282.1c-0.476,0.75-0.9,1.45-1.351,2.15     c0.525,0.6,1.051,1.199,1.65,1.85C298.178,284.774,298.077,283.5,297.978,282.1z" fill="#009444" fill-rule="evenodd"/><path clip-rule="evenodd" d="M313.478,300.125c42.324,37.374,32.949,56.124,28.199,61.674     c6.075-1.625,10.5-6.025,11.925-12.55c1-4.601,1.475-9.5,1.15-14.175c-0.875-12.225-5.275-23.375-11.375-33.899     c-0.45-0.775-1.775-1.425-2.7-1.45c-5.524-0.025-11.024,0.2-16.524,0.275C320.602,300.05,317.027,300.074,313.478,300.125z" fill="#009444" fill-rule="evenodd"/></g><path clip-rule="evenodd" d="M344.552,360.898c0,0,3.325-1.375,7.375-5.824    c3.55-3.676,13.95-15.65,23.6-36.4c1.101-2.3,2.125-4.625,3.05-7c0.075-0.149,0.15-0.324,0.2-0.475    c0.05-0.075,0.075-0.15,0.101-0.25c0.3-0.725,0.574-1.45,0.875-2.2h-0.051c1.25-3.475,2.301-7.024,3.15-10.699    c2.525-11.2,1.5-21.65-4.825-31.731c-8.524-13.55-16.3-27.537-24.399-41.337c-0.475-0.825-1-1.625-1.6-2.587    c-16.25,10.063-32.275,19.987-48.4,29.975c0.45,0.8,0.775,1.45,1.15,2.05c10.1,16.606,20.324,33.131,30.324,49.806    c3.375,5.649,6.551,11.475,9.176,17.5c3,6.899,5.225,13.949,5.949,21.249C350.377,347.324,350.527,357.674,344.552,360.898z" fill="#D7DF23" fill-rule="evenodd"/><path clip-rule="evenodd" d="M219.51,276.175c-5.8-3-10.925-5.625-16.2-8.356    c-4.325,7.156-8.575,14.182-12.8,21.206c-2.825,4.726-5.55,9.525-8.475,14.2c-0.475,0.775-1.75,1.55-2.625,1.525    c-12.15-0.326-23.975-2.451-34.825-8.15c-4.15-2.175-8.075-5.15-11.45-8.425c-5.8-5.575-6.725-13.275-2.925-20.443    c5.024-9.4,10.225-18.7,15.325-28.05c0.6-1.1,1.2-2.213,1.925-3.5c-6.2-4.438-12.3-8.825-18.95-13.6    c1.125-0.075,1.65-0.15,2.2-0.137c20.149,0.662,40.274,1.35,60.424,1.975c1.55,0.05,2.375,0.525,3.1,1.963    c6.425,12.75,12.95,25.437,19.45,38.149C215.535,268.144,217.31,271.8,219.51,276.175z" fill="#39B54A" fill-rule="evenodd"/><g><path clip-rule="evenodd" d="M219.51,276.175c-0.4-0.775-0.75-1.525-1.125-2.25     c-0.775,0.125-1.575,0.25-2.45,0.399C217.135,274.949,218.26,275.524,219.51,276.175z" fill="#009444" fill-rule="evenodd"/><path clip-rule="evenodd" d="M196.01,279.899c-54.024,16.351-65.074-1.5-67.274-8.475     c-1.825,6.024-0.4,12.125,4.4,16.75c3.375,3.274,7.3,6.25,11.45,8.425c10.85,5.699,22.675,7.824,34.825,8.15     c0.875,0.024,2.15-0.75,2.625-1.525c2.925-4.675,5.65-9.475,8.475-14.2C192.335,286,194.185,282.925,196.01,279.899z" fill="#009444" fill-rule="evenodd"/></g><path clip-rule="evenodd" d="M127.986,274.35c0,0-0.6,3.575,1.075,9.35    c1.275,4.95,5.975,20.075,18.525,39.2c1.375,2.149,2.825,4.25,4.35,6.3c0.1,0.125,0.2,0.275,0.325,0.4    c0.05,0.074,0.1,0.149,0.149,0.225c0.45,0.625,0.925,1.25,1.4,1.9l0.025-0.051c2.325,2.9,4.775,5.676,7.475,8.3    c8.175,8.05,17.6,12.7,29.5,12.601c16-0.125,32,0.625,48,0.975c0.95,0.025,1.925,0,3.05,0c-0.025-19.1-0.025-37.949-0.05-56.924    c-0.925-0.051-1.625-0.101-2.35-0.101c-19.425-0.125-38.85-0.125-58.299-0.399c-6.575-0.101-13.2-0.45-19.725-1.4    c-7.425-1.075-14.625-2.9-21.2-6.125C136.461,286.449,127.586,281.125,127.986,274.35z" fill="#D7DF23" fill-rule="evenodd"/></g></g><g/><g/><g/><g/><g/><g/></svg>