<?xml version="1.0" ?><!DOCTYPE svg  PUBLIC '-//W3C//DTD SVG 1.1//EN'  'http://www.w3.org/Graphics/SVG/1.1/DTD/svg11.dtd'><svg enable-background="new 0 0 512 512" height="512px" id="Calque_1" version="1.1" viewBox="0 0 512 512" width="512px" xml:space="preserve" xmlns="http://www.w3.org/2000/svg" xmlns:xlink="http://www.w3.org/1999/xlink"><g><path d="M512,256c0,141.386-114.599,255.997-256.003,255.997C114.623,511.997,0,397.386,0,256   S114.623,0.003,255.997,0.003C397.401,0.003,512,114.614,512,256z" fill="#EBEEEF"/><g id="arrow"><path clip-rule="evenodd" d="M255.896,301.199c0,13.85-0.025,27,0.013,40.125    c0.013,7.25-3.188,12.574-9.737,15.537c-6.775,3.088-13.087,1.65-18.3-3.475c-33.85-33.325-67.624-66.699-101.437-100.074    c-0.35-0.337-0.612-0.75-1.313-1.6c1.9-1.775,3.788-3.45,5.575-5.226c32.1-31.649,64.137-63.336,96.236-94.948    c10.025-9.888,25.012-6.4,28.462,6.537c0.425,1.575,0.475,3.275,0.475,4.912c0.05,12.138,0.025,24.275,0.025,36.388    c0,1.412,0,2.787,0,4.313c44.98,6.187,80.605,27.424,106.08,64.849c19.85,29.175,26.649,61.837,24.524,97.611    c-1.175-1.675-1.95-2.75-2.675-3.824c-20.375-29.338-47.549-48.662-82.724-56.112c-7.325-1.55-14.8-2.688-22.274-3.513    C271.402,301.887,263.884,301.725,255.896,301.199z" fill="#44B39D" fill-rule="evenodd"/><path d="M255.896,203.688V248.7c0,0,11.875-23.225,30.956-37.875    C277.078,207.563,266.771,205.176,255.896,203.688z" fill="#2C846D" opacity="0.65"/></g></g><g/><g/><g/><g/><g/><g/></svg>