<?xml version="1.0" ?><!DOCTYPE svg  PUBLIC '-//W3C//DTD SVG 1.1//EN'  'http://www.w3.org/Graphics/SVG/1.1/DTD/svg11.dtd'><svg enable-background="new 0 0 512 512" height="512px" id="Calque_1" version="1.1" viewBox="0 0 512 512" width="512px" xml:space="preserve" xmlns="http://www.w3.org/2000/svg" xmlns:xlink="http://www.w3.org/1999/xlink"><g><path d="M511.979,256.025C511.979,397.387,397.389,512,256.009,512C114.636,512,0.021,397.387,0.021,256.025   C0.021,114.639,114.636,0,256.009,0C397.389,0,511.979,114.639,511.979,256.025z" fill="#A1C656"/><g><polygon fill="#EAA97D" points="297.648,296.571 353.969,369.464 337.82,369.464 245.048,294.096   "/><polygon fill="#BA7029" points="301.799,296.571 358.093,369.464 341.944,369.464 249.197,294.096   "/><polygon fill="#EAA97D" points="210.226,296.571 153.907,369.464 170.055,369.464 262.796,294.096   "/><polygon fill="#D98D39" points="214.376,296.571 158.056,369.464 174.205,369.464 266.945,294.096   "/><polygon fill="#C67B2E" points="271.552,303.221 290.199,369.863 281.5,369.863 238.423,306.945   "/><path d="M358.693,142.136H149.182c-4.575,0-8.299,3.7-8.299,8.274v144.111c0,4.549,3.725,8.273,8.299,8.273    h209.511c4.574,0,8.273-3.725,8.273-8.273V150.41C366.967,145.836,363.268,142.136,358.693,142.136z" fill="#E09157"/><g><path d="M371.117,294.521c0,4.549-3.7,8.273-8.274,8.273H153.307c-4.574,0-8.274-3.725-8.274-8.273V150.41     c0-4.574,3.7-8.274,8.274-8.274h209.536c4.574,0,8.274,3.7,8.274,8.274V294.521z" fill="#F1F2F2"/><path d="M359.118,154.135v136.637H157.057V154.135H359.118 M362.843,142.136H153.307     c-4.574,0-8.274,3.7-8.274,8.274v144.111c0,4.549,3.7,8.273,8.274,8.273h209.536c4.574,0,8.274-3.725,8.274-8.273V150.41     C371.117,145.836,367.417,142.136,362.843,142.136L362.843,142.136z" fill="#CF7E31"/></g><g><rect fill="#414042" height="11.6" width="48.87" x="279.126" y="266.773"/><rect fill="#D98D39" height="3.024" width="48.87" x="279.126" y="274.923"/><rect fill="#939598" height="5.499" width="48.87" x="279.126" y="278.373"/></g><g opacity="0.5"><polygon fill="#BCBEC0" points="279.126,266.773 279.126,274.923 279.126,277.947 279.126,278.373 289.625,278.373      289.625,277.947 289.625,274.923 289.625,266.773    "/><rect fill="#BCBEC0" height="5.499" width="10.499" x="279.126" y="278.373"/></g><rect fill="#D1D3D4" height="1.25" width="179.438" x="166.78" y="181.532"/><rect fill="#D1D3D4" height="1.25" width="179.438" x="166.78" y="198.105"/><rect fill="#D1D3D4" height="1.25" width="179.438" x="166.78" y="214.679"/><rect fill="#D1D3D4" height="1.25" width="179.438" x="166.78" y="231.252"/><rect fill="#D1D3D4" height="1.25" width="179.438" x="166.78" y="247.826"/><rect fill="#B76C38" height="129.638" width="3.949" x="355.269" y="154.135"/><polygon fill="#6D6E71" opacity="0.15" points="352.693,283.747 327.996,266.773 327.996,283.872   "/><g><rect fill="#EEB144" height="21.523" width="258.381" x="126.81" y="283.747"/><rect fill="#F4CF98" height="21.523" width="22.373" x="126.81" y="283.747"/></g></g></g><g/><g/><g/><g/><g/><g/></svg>