<?xml version="1.0" ?><!DOCTYPE svg  PUBLIC '-//W3C//DTD SVG 1.1//EN'  'http://www.w3.org/Graphics/SVG/1.1/DTD/svg11.dtd'><svg enable-background="new 0 0 512 512" height="512px" id="Calque_1" version="1.1" viewBox="0 0 512 512" width="512px" xml:space="preserve" xmlns="http://www.w3.org/2000/svg" xmlns:xlink="http://www.w3.org/1999/xlink"><g><path d="M511.98,256.016C511.98,397.385,397.391,512,256.009,512C114.634,512,0.019,397.385,0.019,256.016   C0.019,114.641,114.634,0,256.009,0C397.391,0,511.98,114.641,511.98,256.016z" fill="#EBEEEF"/><g id="microphone"><path d="M295.949,367.737c0,9.8-17.198,17.749-38.453,17.749c-21.223,0-38.446-7.949-38.446-17.749    c0-9.799,17.224-17.748,38.446-17.748C278.751,349.989,295.949,357.938,295.949,367.737z" fill="#515251"/><rect fill="#D1D3D4" height="5.912" width="140.97" x="186.027" y="250.416"/><path d="M273.651,383.836c5.399-1.149,10.149-2.875,13.824-4.999l-22.654-13.349l-14.599,0.399L273.651,383.836z" opacity="0.72"/><path d="M250.097,324.966v39.822c0,0.375,0.075,0.725,0.125,1.1c2.45,1.175,8.5,3.3,14.599-0.399    c0.024-0.226,0.075-0.476,0.075-0.7v-39.822H250.097z" fill="#414042"/><path d="M202.301,258.841c0,29.403,23.823,53.251,53.22,53.251l0,0c29.404,0,53.252-23.848,53.252-53.251v-79.106    c0-29.397-23.848-53.233-53.252-53.233l0,0c-29.397,0-53.22,23.835-53.22,53.233V258.841z" fill="#D1D3D4"/><g><defs><path d="M202.301,258.841c0,29.403,23.823,53.251,53.22,53.251l0,0c29.404,0,53.252-23.848,53.252-53.251v-79.106      c0-29.397-23.848-53.233-53.252-53.233l0,0c-29.397,0-53.22,23.835-53.22,53.233V258.841z" id="SVGID_1_"/></defs><clipPath id="SVGID_2_"><use overflow="visible" xlink:href="#SVGID_1_"/></clipPath><g clip-path="url(#SVGID_2_)"><path d="M279.201,187.234h53.221c4.35,0,7.874-3.537,7.874-7.887s-3.524-7.887-7.874-7.887h-53.221      c-4.375,0-7.899,3.538-7.899,7.887S274.826,187.234,279.201,187.234z" fill="#808285"/><path d="M332.422,196.608h-53.221c-4.375,0-7.899,3.524-7.899,7.887c0,4.35,3.524,7.875,7.899,7.875h53.221      c4.35,0,7.874-3.525,7.874-7.875C340.296,200.133,336.771,196.608,332.422,196.608z" fill="#808285"/><path d="M332.422,221.769h-53.221c-4.375,0-7.899,3.525-7.899,7.875s3.524,7.887,7.899,7.887h53.221      c4.35,0,7.874-3.537,7.874-7.887S336.771,221.769,332.422,221.769z" fill="#808285"/></g></g><g><defs><path d="M308.773,258.841c0,29.403-23.848,53.251-53.252,53.251l0,0c-29.397,0-53.22-23.848-53.22-53.251v-79.106      c0-29.397,23.823-53.233,53.22-53.233l0,0c29.404,0,53.252,23.835,53.252,53.233V258.841z" id="SVGID_3_"/></defs><clipPath id="SVGID_4_"><use overflow="visible" xlink:href="#SVGID_3_"/></clipPath><g clip-path="url(#SVGID_4_)"><path d="M231.874,187.234h-53.246c-4.35,0-7.874-3.537-7.874-7.887s3.524-7.887,7.874-7.887h53.246      c4.35,0,7.874,3.538,7.874,7.887S236.224,187.234,231.874,187.234z" fill="#808285"/><path d="M178.628,196.608h53.246c4.35,0,7.874,3.524,7.874,7.887c0,4.35-3.524,7.875-7.874,7.875h-53.246      c-4.35,0-7.874-3.525-7.874-7.875C170.754,200.133,174.278,196.608,178.628,196.608z" fill="#808285"/><path d="M178.628,221.769h53.246c4.35,0,7.874,3.525,7.874,7.875s-3.524,7.887-7.874,7.887h-53.246      c-4.35,0-7.874-3.537-7.874-7.887S174.278,221.769,178.628,221.769z" fill="#808285"/></g></g><path d="M202.301,249.441v9.399c0,29.403,23.823,53.251,53.22,53.251c29.404,0,53.252-23.848,53.252-53.251v-9.399    H202.301z" fill="#00A79D"/><path d="M202.301,247.467v11.374c0,0.149,0,0.3,0,0.45h106.447c0-0.15,0.025-0.301,0.025-0.45v-11.374H202.301z" fill="#F9ED32"/><path d="M319.697,244.992c0.925,4.3,1.4,8.75,1.4,13.311c0,35.891-29.197,65.063-65.076,65.063    c-35.872,0-65.069-29.173-65.069-65.063c0-4.562,0.475-9.011,1.375-13.311h-9.024c-0.8,4.325-1.225,8.774-1.225,13.311    c0,40.766,33.172,73.938,73.943,73.938c40.778,0,73.925-33.172,73.925-73.938c0-4.537-0.425-8.986-1.225-13.311H319.697z" fill="#D1D3D4"/><path d="M308.773,258.841v-79.106c0-29.397-23.848-53.233-53.252-53.233v185.59    C284.926,312.092,308.773,288.244,308.773,258.841z" opacity="0.1"/><path d="M233.349,142.351c0,0-1.425,0.85-3.649,2.6c-1.15,0.85-2.45,1.975-3.875,3.325    c-0.725,0.675-1.425,1.449-2.175,2.237c-0.7,0.862-1.525,1.662-2.25,2.637c-0.725,0.95-1.5,1.925-2.175,3.025    c-0.75,1.05-1.375,2.225-2.024,3.425c-0.65,1.175-1.175,2.475-1.725,3.799c-0.4,1.363-1.025,2.675-1.25,4.138    c-0.175,0.725-0.325,1.437-0.5,2.162c-0.101,0.75-0.175,1.5-0.25,2.25l-0.125,1.125c-0.025,0.175-0.075,0.425-0.05,0.524    l-0.025,0.6c0,0.8-0.025,1.6-0.05,2.4c-0.101,3.2-0.175,6.475-0.275,9.736c-0.1,3.25-0.275,6.512-0.25,9.712    c0.025,3.2-0.05,6.35-0.075,9.399c-0.075,3.05-0.125,5.999-0.175,8.799c0,2.8-0.05,5.45-0.075,7.899    c-0.075,4.887-0.275,8.975-0.325,11.824c-0.075,2.862-0.15,4.5-0.15,4.5s-0.175-1.625-0.425-4.475    c-0.225-2.85-0.55-6.924-0.8-11.824c-0.15-2.45-0.3-5.1-0.425-7.899c-0.1-2.8-0.175-5.774-0.225-8.85    c-0.05-3.062-0.149-6.237-0.149-9.449c-0.075-3.237,0.024-6.499,0.125-9.762c0.125-3.262,0.25-6.512,0.375-9.724    c0.025-0.8,0.075-1.612,0.1-2.388l0.025-0.6c0-0.288,0.05-0.438,0.075-0.65l0.175-1.225c0.1-0.813,0.2-1.625,0.35-2.412    c0.2-0.788,0.4-1.563,0.6-2.325l0.3-1.149c0.125-0.375,0.275-0.738,0.4-1.113c0.275-0.725,0.55-1.45,0.825-2.15    c0.675-1.375,1.3-2.725,2.05-3.949c0.75-1.237,1.475-2.438,2.35-3.487c0.775-1.088,1.65-2.063,2.5-2.987    c0.825-0.95,1.7-1.75,2.524-2.537c0.85-0.738,1.65-1.45,2.45-2.063c1.6-1.225,3.024-2.225,4.249-2.975    c1.226-0.775,2.25-1.275,2.925-1.625C232.974,142.5,233.349,142.351,233.349,142.351z" fill="#FFFFFF" opacity="0.33"/></g></g><g/><g/><g/><g/><g/><g/></svg>