<?xml version="1.0" ?><!DOCTYPE svg  PUBLIC '-//W3C//DTD SVG 1.1//EN'  'http://www.w3.org/Graphics/SVG/1.1/DTD/svg11.dtd'><svg enable-background="new 0 0 512 512" height="512px" id="Calque_1" version="1.1" viewBox="0 0 512 512" width="512px" xml:space="preserve" xmlns="http://www.w3.org/2000/svg" xmlns:xlink="http://www.w3.org/1999/xlink"><g><path d="M512,256c0,141.388-114.612,256-256,256S0,397.388,0,256S114.612,0,256,0S512,114.612,512,256z" fill="#EBEEEF"/><g id="link"><path d="M310.85,270.563c-19.175,3.138-38.899-3.112-52.75-16.725c-24-23.612-24.325-62.35-0.725-86.362    l21.575-21.962c9.149-9.3,20.8-15.35,33.649-17.45c19.176-3.138,38.875,3.1,52.726,16.725c24.024,23.6,24.35,62.337,0.75,86.362    l-21.601,21.95C335.325,262.412,323.7,268.45,310.85,270.563z M316.45,151.587c-7.825,1.288-14.925,4.95-20.5,10.65l-21.575,21.95    c-14.4,14.625-14.2,38.263,0.45,52.65c8.425,8.3,20.45,12.113,32.175,10.2c7.825-1.288,14.9-4.962,20.475-10.638l21.601-21.95    c14.399-14.65,14.2-38.288-0.45-52.675C340.175,153.475,328.15,149.675,316.45,151.587z" fill="#80929B"/><path d="M199.375,383.925c-19.175,3.163-38.875-3.112-52.725-16.712c-24-23.613-24.325-62.363-0.725-86.363    L167.5,258.9c9.15-9.325,20.775-15.351,33.625-17.45c19.2-3.163,38.9,3.1,52.75,16.7c24,23.625,24.35,62.35,0.75,86.375    l-21.6,21.949C223.875,375.8,212.25,381.825,199.375,383.925z M205,264.95c-7.85,1.3-14.925,4.975-20.5,10.649l-21.575,21.95    c-14.4,14.65-14.2,38.275,0.45,52.675c8.425,8.288,20.45,12.113,32.175,10.176c7.825-1.275,14.9-4.95,20.475-10.625l21.6-21.976    c14.4-14.625,14.2-38.25-0.475-52.649C228.725,266.838,216.7,263.05,205,264.95z" fill="#80929B"/><path d="M240.5,344.475c-24.9,28.226-47.85,36.325-60.375,38.588    c6.45,1.063,13.05,1.088,19.625,0.013c12.85-2.101,24.475-8.138,33.65-17.45l21.575-21.95c21.75-22.125,23.15-56.774,4.425-80.563    C263.35,275.45,270.5,310.425,240.5,344.475z" fill="#2D4453" opacity="0.27"/><path d="M316.425,244.125c-2.975,1.375-6.125,2.362-9.425,2.913    c-11.725,1.913-23.75-1.9-32.175-10.2c-1.075-1.038-2.025-2.137-2.95-3.275l-16.8,17.038c0.975,1.1,1.975,2.188,3.024,3.237    c13.851,13.613,33.575,19.863,52.75,16.725c8.375-1.388,16.226-4.463,23.226-9.013L316.425,244.125z" fill="#2D4453" opacity="0.38"/><path d="M264.325,331.55c13.125-23.425,9.6-53.675-10.45-73.399c-1.05-1.051-2.175-2.025-3.325-3    l-16.8,17.025c1.175,0.925,2.325,1.9,3.4,2.976c10.55,10.35,13.55,25.438,9.125,38.55L264.325,331.55z" fill="#2D4453" opacity="0.38"/><path d="M221.675,262.575c-7.7,7.813-7.575,20.399,0.225,28.087l0,0c7.825,7.688,20.425,7.588,28.1-0.237    l42.45-43.212c7.7-7.813,7.6-20.387-0.226-28.075l0,0c-7.824-7.688-20.399-7.575-28.074,0.237L221.675,262.575z" fill="#A8BEC6"/><path d="M351.575,231.95c-24.875,28.212-47.825,36.313-60.351,38.575    c6.426,1.05,13.051,1.087,19.625,0.037c12.851-2.112,24.476-8.15,33.625-17.462l21.601-21.95    c21.75-22.137,23.149-56.788,4.425-80.563C374.45,162.925,381.6,197.875,351.575,231.95z" fill="#2D4453" opacity="0.27"/><path d="M292.45,247.212c7.7-7.813,7.6-20.387-0.226-28.075c-0.824-0.825-1.725-1.538-2.649-2.163    c2.225,7.75,2.524,18.862-7.525,29.3c-17.899,18.637-38.7,38.7-38.7,38.7s-10.25,5.113-20.375,6.65    c7.875,6.688,19.675,6.275,27.025-1.2L292.45,247.212z" fill="#2D4453" opacity="0.17"/><path d="M277.05,223.288c0,0-0.325,0.337-0.85,0.887c-0.525,0.513-1.226,1.35-2.125,2.175    c-0.825,0.975-1.875,1.887-2.9,3.012c-0.524,0.563-1.1,1.088-1.675,1.613c-0.55,0.575-1.125,1.15-1.7,1.712s-1.2,1.063-1.75,1.638    c-0.55,0.575-1.125,1.112-1.675,1.625c-1.175,1.025-2.25,1.975-3.2,2.787c-1.875,1.65-3.475,2.563-3.475,2.563    s0.399-1.737,1.524-4.087c0.301-0.587,0.575-1.237,0.976-1.862c0.399-0.625,0.825-1.275,1.3-1.925c0.5-0.65,1-1.325,1.525-1.975    c0.524-0.675,1.199-1.25,1.8-1.863c0.625-0.587,1.274-1.188,1.899-1.737c0.676-0.513,1.4-1,2.051-1.45    c1.324-0.938,2.774-1.575,3.949-2.1c1.25-0.475,2.301-0.775,3.101-0.887C276.6,223.275,277.05,223.288,277.05,223.288z" fill="#D4E3E8"/></g></g><g/><g/><g/><g/><g/><g/></svg>