<?xml version="1.0" ?><!DOCTYPE svg  PUBLIC '-//W3C//DTD SVG 1.1//EN'  'http://www.w3.org/Graphics/SVG/1.1/DTD/svg11.dtd'><svg enable-background="new 0 0 512 512" height="512px" id="Calque_1" version="1.1" viewBox="0 0 512 512" width="512px" xml:space="preserve" xmlns="http://www.w3.org/2000/svg" xmlns:xlink="http://www.w3.org/1999/xlink"><g><path d="M512,256c0,141.386-114.599,255.997-256.003,255.997C114.623,511.997,0,397.386,0,256   S114.623,0.003,255.997,0.003C397.401,0.003,512,114.614,512,256z" fill="#344E5D"/><g id="home"><rect fill="#D1A673" height="69.287" width="28.449" x="168.548" y="157.864"/><rect fill="#E1C682" height="69.287" width="9.313" x="168.548" y="157.864"/><g><path d="M160.023,154.251c0,5.125,4.175,9.3,9.3,9.3h26.9c5.125,0,9.3-4.175,9.3-9.3l0,0     c0-5.149-4.175-9.312-9.3-9.312h-26.9C164.198,144.939,160.023,149.102,160.023,154.251L160.023,154.251z" fill="#CF7E31"/><path d="M169.335,154.251c0,5.125,4.163,9.3,9.313,9.3h17.575c5.125,0,9.3-4.175,9.3-9.3l0,0     c0-5.149-4.175-9.312-9.3-9.312h-17.575C173.498,144.939,169.335,149.102,169.335,154.251L169.335,154.251z" fill="#996026"/></g><path d="M362.602,223.325c-1.425,0-2.775,0.35-3.95,0.95v-4.563l-104.405-79.274l-99.849,89.824    c-1.475-1.112-3.313-1.763-5.3-1.737c-4.85,0.025-8.75,3.975-8.725,8.825l0.975,134.735c-0.15,0.638-0.238,1.3-0.238,1.975    c0,4.851,3.938,8.775,8.775,8.775h0.237h0.05h212.204c0.024,0,0.074-0.013,0.1-0.013c0.05,0,0.1,0.013,0.125,0.013    c4.85,0,8.775-3.925,8.775-8.775V232.088C371.377,227.25,367.451,223.325,362.602,223.325z" fill="#D1A673"/><polygon fill="#4B3014" opacity="0.2" points="168.723,163.576 197.122,179.826 197.022,163.464   "/><polygon fill="#4B3014" opacity="0.17" points="140.636,264.338 264.922,160.514 257.422,151.551 140.636,249.088   "/><rect fill="#311F0F" height="103.324" width="55.556" x="259.696" y="279.524"/><g><rect fill="#311F0F" height="34.112" width="34.112" x="204.223" y="279.524"/><path d="M235.747,282.125v28.924h-28.925v-28.924H235.747 M238.334,279.524h-34.112v34.112h34.112V279.524     L238.334,279.524z" fill="#E8C095"/></g><polygon fill="#311F0F" opacity="0.17" points="321.902,272.563 371.451,308.212 371.127,371.886 253.021,284.262   "/><rect fill="#E8BE91" height="11.699" width="68.881" x="253.021" y="272.563"/><rect fill="#F6D3B2" height="11.699" width="11.275" x="253.021" y="272.563"/><path d="M384.426,229.913l-119.029-97.924c-0.025-0.025-0.063-0.038-0.088-0.063    c-0.425-0.338-0.887-0.613-1.35-0.888c-0.263-0.163-0.513-0.362-0.763-0.5c-0.412-0.213-0.837-0.35-1.263-0.513    c-0.337-0.137-0.688-0.313-1.05-0.412c-0.362-0.113-0.737-0.138-1.112-0.213c-0.425-0.087-0.85-0.2-1.275-0.237    c-0.449-0.038-0.887,0-1.324,0c-0.375,0-0.725-0.038-1.1,0c-0.488,0.063-0.975,0.188-1.462,0.288    c-0.313,0.075-0.612,0.1-0.913,0.188c-0.4,0.125-0.8,0.325-1.2,0.487c-0.363,0.15-0.738,0.275-1.101,0.462    c-0.3,0.163-0.575,0.388-0.875,0.575c-0.425,0.275-0.837,0.513-1.225,0.837c-0.025,0.025-0.063,0.038-0.1,0.063L127.573,234.013    v31.225l67.749-54.949l-0.013,0.013l62.112-52.05l127.004,104.474V229.913z" fill="#996026"/><path d="M257.621,129.164c-0.149,0-0.299,0-0.449,0c-0.375,0-0.725-0.038-1.1,0    c-0.488,0.063-0.975,0.188-1.462,0.288c-0.313,0.075-0.612,0.1-0.913,0.188c-0.4,0.125-0.8,0.325-1.2,0.487    c-0.363,0.15-0.738,0.275-1.101,0.462c-0.3,0.163-0.575,0.388-0.875,0.575c-0.425,0.275-0.837,0.513-1.225,0.837    c-0.025,0.025-0.063,0.038-0.1,0.063L127.573,234.013v12.912l130.048-106.798V129.164z" fill="#CF7E31"/></g></g><g/><g/><g/><g/><g/><g/></svg>