<?xml version="1.0" ?><!DOCTYPE svg  PUBLIC '-//W3C//DTD SVG 1.1//EN'  'http://www.w3.org/Graphics/SVG/1.1/DTD/svg11.dtd'><svg enable-background="new 0 0 512 512" height="512px" id="Calque_1" version="1.1" viewBox="0 0 512 512" width="512px" xml:space="preserve" xmlns="http://www.w3.org/2000/svg" xmlns:xlink="http://www.w3.org/1999/xlink"><g><path d="M512,256c0,141.386-114.624,255.997-255.997,255.997C114.604,511.997,0.006,397.386,0.006,256   S114.604,0.003,256.003,0.003C397.376,0.003,512,114.614,512,256z" fill="#EBEEEF"/><g id="layers"><polygon clip-rule="evenodd" fill="#F15A29" fill-rule="evenodd" points="256.603,226.944 387.501,293 256.003,357.824     124.505,292.375   "/><polygon clip-rule="evenodd" fill="#BE1E2D" fill-rule="evenodd" opacity="0.65" points="151.979,278.774 256.003,330.549     360.151,279.199 256.603,226.944   "/><polygon clip-rule="evenodd" fill="#44B39D" fill-rule="evenodd" points="256.603,190.557 387.501,256.606 256.003,321.449     124.505,256.006   "/><polygon clip-rule="evenodd" fill="#1D7C63" fill-rule="evenodd" opacity="0.44" points="151.979,242.394 256.003,294.149     360.151,242.807 256.603,190.557   "/><polygon clip-rule="evenodd" fill="#E7CE3C" fill-rule="evenodd" points="256.603,154.17 387.501,220.231 256.003,285.074     124.505,219.619   "/></g></g><g/><g/><g/><g/><g/><g/></svg>