<?xml version="1.0" ?><!DOCTYPE svg  PUBLIC '-//W3C//DTD SVG 1.1//EN'  'http://www.w3.org/Graphics/SVG/1.1/DTD/svg11.dtd'><svg enable-background="new 0 0 512 512" height="512px" id="Calque_1" version="1.1" viewBox="0 0 512 512" width="512px" xml:space="preserve" xmlns="http://www.w3.org/2000/svg" xmlns:xlink="http://www.w3.org/1999/xlink"><g><path d="M512,256.003c0,141.367-114.599,255.991-255.991,255.991C114.623,511.994,0,397.37,0,256.003   C0,114.617,114.623,0.006,256.009,0.006C397.401,0.006,512,114.617,512,256.003z" fill="#43B39C"/><g id="Candle"><g><path d="M251.896,215.666c0,0,82.306-33.699,4.4-91.198c0,0,5.875,22.799-13.237,48.574     C223.959,198.816,251.896,215.666,251.896,215.666z" fill="#E27C3C"/><path d="M251.896,215.666c0,0,34.881-26.299,13.838-56.999C265.734,158.667,231.909,189.367,251.896,215.666z" fill="#FEDB52"/></g><path d="M254.322,232.666c-1.15,0-2.1-0.925-2.1-2.1v-28.05c0-1.175,0.95-2.1,2.1-2.1    c1.175,0,2.125,0.925,2.125,2.1v28.05C256.447,231.741,255.497,232.666,254.322,232.666z" fill="#414042"/><rect fill="#EABC8E" height="166.304" width="64.293" x="222.185" y="221.216"/><rect fill="#DEB58D" height="166.304" width="21.068" x="265.409" y="221.216"/><path d="M222.185,221.216v22.275c3.725,0.675,7.35-0.7,9.425-5.5c5.2-12,16.8-15.2,17.2-5.6    c0.399,9.6,12.387,11.2,12.387,1.6c0-5.9,3.438-10.275,6.138-12.775H222.185z" fill="#FCD2AC"/></g></g><g/><g/><g/><g/><g/><g/></svg>