<?xml version="1.0" ?><!DOCTYPE svg  PUBLIC '-//W3C//DTD SVG 1.1//EN'  'http://www.w3.org/Graphics/SVG/1.1/DTD/svg11.dtd'><svg enable-background="new 0 0 512 512" height="512px" id="Calque_1" version="1.1" viewBox="0 0 512 512" width="512px" xml:space="preserve" xmlns="http://www.w3.org/2000/svg" xmlns:xlink="http://www.w3.org/1999/xlink"><g><path d="M512.003,256c0,141.388-114.601,256-255.994,256C114.622,512-0.003,397.388-0.003,256S114.622,0,256.009,0   C397.402,0,512.003,114.612,512.003,256z" fill="#E1695C"/><g id="globe"><polygon fill="#E6E7E8" points="306.729,301.175 224.859,138.694 230.909,135.631 312.777,298.125   "/><path d="M300.678,362.55c0,12.95-22.699,23.425-50.719,23.425c-28.012,0-50.725-10.475-50.725-23.425    c0-12.925,22.712-23.399,50.725-23.399C277.979,339.15,300.678,349.625,300.678,362.55z" fill="#515251"/><path d="M271.253,383.8c7.125-1.524,13.399-3.8,18.25-6.6L259.609,359.6l-19.263,0.525L271.253,383.8z" opacity="0.72"/><path d="M240.209,306.15v52.524c0,0.5,0.075,0.976,0.138,1.45c3.25,1.55,11.225,4.35,19.263-0.525    c0.025-0.3,0.1-0.625,0.1-0.925V306.15H240.209z" fill="#414042"/><path d="M342.128,218.756c0,42.163-34.175,76.343-76.331,76.343c-42.163,0-76.338-34.181-76.338-76.343    c0-42.15,34.175-76.325,76.338-76.325C307.953,142.431,342.128,176.606,342.128,218.756z" fill="#337FC2"/><path d="M261.271,140.181" fill="#414042"/><path clip-rule="evenodd" d="M266.371,141.756c42.781,0.063,76.982,34.387,76.807,77.137    c-0.175,42.8-34.574,76.906-77.293,76.656c-42.588-0.274-76.451-34.281-76.488-76.844    C189.347,175.944,223.609,141.694,266.371,141.756z M212.959,211.306c3.475,1.638,6.813,3.9,10.463,4.75    c3.762,0.863,4.675,2.525,5.087,6.125c0.4,3.363,1.487,8.337,3.788,9.462c7.65,3.713,12.787,11.738,22.087,12.7    c0.962,0.1,2.225,4.05,2.137,6.163c-0.125,3.012-1.325,6-2.15,8.962c-0.425,1.5-0.587,3.4-1.6,4.338    c-4.512,4.274-4.462,10.344-2.9,14.644c1.2,3.325,6.888,6.675,10.863,7.05c19.769,1.875,37.168-4.325,51.769-17.943    c0.8-0.75,1.075-2.038,2.125-4.15c-7.05,3.638-10.899,10.568-18.625,9.744c2.25-6.619,3.825-13.106,6.625-19.019    c2.95-6.212,2.425-11.388-3.476-15.613c1.926-0.35,3.426-0.625,4.951-0.887c0.024-0.625,0.074-1.263,0.125-1.875    c-3-0.45-6-1.15-9-1.313c-4.5-0.238-8.726,1-13.176-2.337c-8.125-6.063-5.449-20.85-0.824-26.2c2.524-2.9,5.174-5.712,7.674-8.45    c-4.524-6.112-3.699-9.25,2.4-11.1c-7.275-8.3-7.275-8.3-3.025-12.975c2.176,1.85,4.4,3.712,7.375,6.225    c-0.799-4.925-1.85-8.3-1.85-11.7c-0.05-6.65,5.325-3.975,9-4.288c-8.775-11.15-42.855-17.087-61.469-6.4    c13.438-0.587,25.35-6.75,36.544-0.725c0.5,6.313-1.601,9.625-7.476,10.275c-2.08,0.238-4.006,1.863-6.031,2.738    c-2,0.85-4.063,1.55-6.1,2.3c0.113-2.325,0.238-4.65,0.313-6.975c0.025-1.425,0.438-3.162-0.213-4.175    c-0.549-0.85-2.799-1.538-3.562-1.063c-1,0.575-1.512,2.337-1.775,3.688c-0.225,1.075,0.212,2.288,0.4,3.85    c-11.675,1.987-3.125,11.9-5.913,16.112C231.509,188.444,215.734,191.631,212.959,211.306z M246.734,282.775    c-4.863-5.101-9.85-10.375-14.9-15.582c-3.313-3.425-7.075-6.5-9.975-10.237c-3.875-5-10.3-10.712-9.963-15.725    c0.75-10.625-8.662-13.263-11.475-22.35C194.947,243.244,220.172,276.35,246.734,282.775z M225.984,225.181    c0.987-4.925-1.3-7.15-6.688-7.35c-4.138-0.15-8.263-1.025-13.063-1.675c0.813,2.75,2,6.775,2.95,9.975    C214.722,225.819,220.021,225.531,225.984,225.181z M209.984,203.394c-7.1-0.1-8.725,1.9-8.2,10.913    C204.797,210.581,212.472,211.631,209.984,203.394z M322.428,200.169c0.15-0.325,0.301-0.663,0.426-0.975    c-4.176-1.65-8.326-3.3-12.851-5.087c-0.575,1.325-1.375,3.212-2.575,6.063C312.979,200.169,317.703,200.169,322.428,200.169z     M295.378,194.619c0.399,0.462,0.8,0.913,1.2,1.375c3.175-0.775,6.35-1.563,9.625-2.362c-3.051-1.55-5.125-2.613-7.7-3.913    C297.527,191.269,296.453,192.944,295.378,194.619z" fill="#8DC63F" fill-rule="evenodd"/><path d="M316.053,288.1c-2.699,1.95-5.475,3.775-8.449,5.4c-41.382,22.95-93.732,7.95-116.669-33.443    c-22.938-41.388-7.938-93.738,33.462-116.675c5.25-2.913,10.7-5.225,16.225-6.938l-5.762-10.413c-5.5,1.862-10.9,4.2-16.138,7.112    c-47.05,26.075-64.087,85.55-38.025,132.588c26.075,47.044,85.549,64.094,132.581,38.019c2.75-1.525,5.375-3.175,7.926-4.925    L316.053,288.1z" fill="#D1D3D4"/><path clip-rule="evenodd" d="M340.354,197.744    c-14.625-50.962-64.326-57.025-76.982-55.788c18.057,4.55,54.906,18.963,64.957,62.05c8.199,35.15-3.025,59.762-13.075,73.668    C328.652,265.719,351.953,238.156,340.354,197.744z" fill="#006838" fill-rule="evenodd" opacity="0.2"/><path d="M238.172,160.056c0,0-2.575,2.025-6.425,5.075c-1.862,1.487-3.95,3.262-6.15,5.112    c-2.125,1.95-4.45,3.9-6.462,6.138c-4.263,4.25-7.888,9.038-10.45,12.975c-1.325,1.962-2.362,3.7-3.087,4.95    c-0.763,1.225-1.288,1.962-1.288,1.962s-0.075-0.85-0.1-2.337c-0.037-1.5,0.025-3.663,0.663-6.137c0.212-1.3,0.575-2.65,1.175-4    c0.525-1.4,1.05-2.9,1.925-4.263c1.487-2.9,3.638-5.675,6.013-8.175c2.45-2.45,5.162-4.588,7.912-6.238    c2.775-1.625,5.475-2.875,7.925-3.612C234.646,159.881,238.172,160.056,238.172,160.056z" fill="#FFFFFF" opacity="0.3"/></g></g><g/><g/><g/><g/><g/><g/></svg>