<?xml version="1.0" ?><!DOCTYPE svg  PUBLIC '-//W3C//DTD SVG 1.1//EN'  'http://www.w3.org/Graphics/SVG/1.1/DTD/svg11.dtd'><svg enable-background="new 0 0 512 512" height="512px" id="Calque_1" version="1.1" viewBox="0 0 512 512" width="512px" xml:space="preserve" xmlns="http://www.w3.org/2000/svg" xmlns:xlink="http://www.w3.org/1999/xlink"><g><path d="M512.003,256c0,141.388-114.601,256-255.994,256C114.622,512-0.003,397.388-0.003,256S114.622,0,256.009,0   C397.402,0,512.003,114.612,512.003,256z" fill="#344E5D"/><g id="cd"><path d="M256.009,130.35c-69.4,0-125.65,56.25-125.65,125.65c0,69.388,56.25,125.65,125.65,125.65    c69.393,0,125.643-56.263,125.643-125.65C381.652,186.6,325.402,130.35,256.009,130.35z M256.009,285.138    c-16.1,0-29.138-13.038-29.138-29.138c0-16.087,13.038-29.138,29.138-29.138c16.094,0,29.143,13.05,29.143,29.138    C285.152,272.1,272.104,285.138,256.009,285.138z" fill="#A8BEC6"/><path d="M256.009,385.75c-71.55,0-129.75-58.213-129.75-129.75c0-71.538,58.2-129.75,129.75-129.75    c71.543,0,129.744,58.212,129.744,129.75C385.753,327.537,327.553,385.75,256.009,385.75z M256.009,134.438    c-67.025,0-121.55,54.55-121.55,121.563c0,67.025,54.525,121.55,121.55,121.55c67.018,0,121.543-54.524,121.543-121.55    C377.553,188.987,323.027,134.438,256.009,134.438z" fill="#C6DBE0"/><path d="M256.009,204.55c-28.4,0-51.438,23.038-51.438,51.45c0,28.412,23.038,51.45,51.438,51.45    c28.418,0,51.444-23.038,51.444-51.45C307.453,227.587,284.428,204.55,256.009,204.55z M256.009,285.6    c-16.337,0-29.575-13.25-29.575-29.6c0-16.35,13.238-29.587,29.575-29.587c16.344,0,29.594,13.237,29.594,29.587    C285.604,272.35,272.354,285.6,256.009,285.6z" fill="#5C717C"/><path d="M256.009,219.125c-20.363,0-36.875,16.5-36.875,36.875c0,20.362,16.512,36.875,36.875,36.875    c20.369,0,36.869-16.513,36.869-36.875C292.878,235.625,276.378,219.125,256.009,219.125z M256.009,285.6    c-16.337,0-29.575-13.25-29.575-29.6c0-16.35,13.238-29.587,29.575-29.587c16.344,0,29.594,13.237,29.594,29.587    C285.604,272.35,272.354,285.6,256.009,285.6z" fill="#80929B"/><path d="M183.771,148.3l51.675,87.063c5.275-5.5,12.538-8.9,20.563-8.9    c0.8,0,1.575,0.05,2.35,0.113l-8-100.238C226.709,127.563,202.222,135.25,183.771,148.3z" fill="#FFFFFF" opacity="0.27"/><path d="M329.428,363.713l-51.675-87.051c-5.274,5.5-12.531,8.888-20.569,8.888    c-0.787,0-1.549-0.05-2.337-0.125l7.987,100.25C286.479,384.463,310.979,376.763,329.428,363.713z" fill="#FFFFFF" opacity="0.27"/></g></g><g/><g/><g/><g/><g/><g/></svg>