<?xml version="1.0" ?><!DOCTYPE svg  PUBLIC '-//W3C//DTD SVG 1.1//EN'  'http://www.w3.org/Graphics/SVG/1.1/DTD/svg11.dtd'><svg enable-background="new 0 0 512 512" height="512px" id="Calque_1" version="1.1" viewBox="0 0 512 512" width="512px" xml:space="preserve" xmlns="http://www.w3.org/2000/svg" xmlns:xlink="http://www.w3.org/1999/xlink"><g><path d="M512,256.003c0,141.369-114.612,255.994-256,255.994S0,397.372,0,256.003c0-141.388,114.612-256,256-256   S512,114.616,512,256.003z" fill="#EFC84A"/><g id="vlc"><polygon fill="#E6E7E8" points="158.4,360.723 352.9,360.723 267.675,127.166 243.625,127.166   "/><g><defs><polygon id="SVGID_1_" points="158.4,360.723 352.9,360.723 267.675,127.166 243.625,127.166     "/></defs><clipPath id="SVGID_2_"><use overflow="visible" xlink:href="#SVGID_1_"/></clipPath><rect clip-path="url(#SVGID_2_)" fill="#F79038" height="58.15" width="202.375" x="144.425" y="185.791"/><rect clip-path="url(#SVGID_2_)" fill="#F79038" height="58.15" width="237.275" x="148.375" y="303.146"/></g><polygon fill="#BE1E2D" opacity="0.17" points="260.4,127.166 324.125,360.723 352.9,360.723 267.675,127.166   "/><rect fill="#EE7023" height="24.301" width="240.95" x="135.525" y="360.521"/><path d="M243.5,213.791c0,0,0.6,6.85-0.6,16.375c-0.975,9.625-3.825,21.875-7.925,33.699    c-4.15,11.832-9.525,23.232-14.75,31.357c-5,8.199-9.75,13.174-9.75,13.174s-0.625-6.85,0.575-16.399    c0.975-9.601,3.825-21.851,7.95-33.681c4.15-11.826,9.55-23.201,14.775-31.326C238.75,218.791,243.5,213.791,243.5,213.791z" fill="#FFFFFF" opacity="0.65"/></g></g><g/><g/><g/><g/><g/><g/></svg>