<?xml version="1.0" ?><!DOCTYPE svg  PUBLIC '-//W3C//DTD SVG 1.1//EN'  'http://www.w3.org/Graphics/SVG/1.1/DTD/svg11.dtd'><svg enable-background="new 0 0 512 512" height="512px" id="Calque_1" version="1.1" viewBox="0 0 512 512" width="512px" xml:space="preserve" xmlns="http://www.w3.org/2000/svg" xmlns:xlink="http://www.w3.org/1999/xlink"><g><path d="M512,256c0,141.386-114.599,255.997-255.991,255.997C114.623,511.997,0,397.386,0,256   S114.623,0.003,256.009,0.003C397.401,0.003,512,114.614,512,256z" fill="#E1695C"/><g id="bulb_1_"><path d="M238.284,370.411c0,9.513,7.7,17.225,17.212,17.225c9.525,0,17.231-7.712,17.231-17.225    c0-9.524-7.706-17.225-17.231-17.225C245.984,353.187,238.284,360.887,238.284,370.411z" fill="#A7428E"/><polygon fill="#F0C946" points="290.053,374.036 220.522,348.599 220.522,332.486 290.053,357.937   "/><polygon fill="#F0C946" points="290.053,348.599 220.522,323.149 220.522,307.037 290.053,332.486   "/><polygon fill="#996026" opacity="0.27" points="248.56,342.749 240.147,339.674 220.522,347.324 220.522,348.599 229.159,351.749       "/><polygon fill="#996026" opacity="0.27" points="259.809,337.523 279.228,328.524 273.828,326.549 252.521,334.85   "/><path d="M252.422,360.273l9.762,3.563l17.419-9.725l-8.8-3.213    C263.472,353.124,254.472,358.924,252.422,360.273z" fill="#996026" opacity="0.27"/><polygon fill="#FEDB52" points="220.522,374.036 290.053,348.599 290.053,332.486 220.522,357.937   "/><polygon fill="#FEDB52" points="220.522,348.599 290.053,323.149 290.053,307.037 220.522,332.486   "/><rect fill="#FEDB52" height="25.138" width="32.162" x="220.522" y="310.111"/><path d="M320.277,201.213c-6.75-18.3-21.925-27.912-35.925-32.962c-25.606-8.85-52.043-1.8-61.943,1.525    c-12.813,5.387-25.875,14.837-32,31.437c-11.063,30.05,0.837,53.762,6.425,62.524c1.075,1.888,5.15,8.938,7.375,13    c5.912,12.013,15.325,32.874,16.262,46.05h69.755c0.899-12.788,9.774-32.838,15.725-44.975c0.025-0.051,0.05-0.075,0.075-0.125    c2.125-4.037,8.45-14.938,8.45-14.938l0,0C320.277,253.275,330.952,230.2,320.277,201.213z" fill="#FEDB52"/><path d="M223.16,190.413c0,0-0.513,0.675-1.425,1.863c-0.887,1.175-2.087,2.862-3.438,4.862    c-0.662,1.012-1.35,2.113-2.024,3.288c-0.75,1.125-1.3,2.438-2.025,3.688c-0.563,1.337-1.287,2.625-1.775,4.037    c-0.25,0.713-0.5,1.413-0.788,2.112c-0.25,0.7-0.4,1.438-0.6,2.163c-0.5,1.425-0.663,2.912-0.95,4.362    c-0.35,1.45-0.25,2.925-0.462,4.35c-0.15,1.413,0.05,2.8-0.013,4.15c-0.075,1.362,0.212,2.612,0.288,3.813    c0.15,1.188,0.125,2.35,0.362,3.313c0.213,0.962,0.325,1.85,0.438,2.587c0.213,1.45,0.288,2.351,0.288,2.351    s-0.563-0.638-1.45-1.875c-0.438-0.613-0.988-1.351-1.55-2.25c-0.65-0.863-1.075-1.976-1.6-3.175    c-0.487-1.225-1.212-2.5-1.475-4.012c-0.3-1.488-0.813-3.063-0.888-4.75c-0.037-0.838-0.087-1.7-0.125-2.563l-0.05-1.325    c0.025-0.438,0.1-0.875,0.138-1.325c0.188-1.774,0.399-3.587,0.95-5.325c0.262-0.862,0.475-1.75,0.8-2.6    c0.337-0.825,0.712-1.637,1.075-2.45c0.325-0.825,0.788-1.575,1.237-2.313c0.462-0.75,0.875-1.488,1.363-2.163    c1.024-1.325,1.962-2.638,3.05-3.688c0.537-0.537,1.037-1.075,1.563-1.55c0.55-0.45,1.075-0.888,1.587-1.313    c0.975-0.85,2.012-1.475,2.887-2.063c0.913-0.538,1.713-0.987,2.4-1.313C222.31,190.638,223.16,190.413,223.16,190.413z" fill="#FBF7C1"/><polygon fill="#FBF7C1" points="263.222,146.089 250.347,146.089 247.134,124.364 266.446,124.364   "/><polygon fill="#FBF7C1" points="320.727,164.039 310.002,156.938 319.303,137.052 335.402,147.701   "/><polygon fill="#FBF7C1" points="344.902,208.226 340.677,196.063 360.127,185.901 366.451,204.15   "/><polygon fill="#FBF7C1" points="167.098,208.226 171.323,196.063 151.86,185.901 145.536,204.15   "/><polygon fill="#FBF7C1" points="196.297,164.039 207.035,156.938 197.735,137.052 181.623,147.701   "/></g></g><g/><g/><g/><g/><g/><g/></svg>