<?xml version="1.0" ?><!DOCTYPE svg  PUBLIC '-//W3C//DTD SVG 1.1//EN'  'http://www.w3.org/Graphics/SVG/1.1/DTD/svg11.dtd'><svg enable-background="new 0 0 512 512" height="512px" id="Calque_1" version="1.1" viewBox="0 0 512 512" width="512px" xml:space="preserve" xmlns="http://www.w3.org/2000/svg" xmlns:xlink="http://www.w3.org/1999/xlink"><g><path d="M512,256c0,141.386-114.599,255.997-255.991,255.997C114.623,511.997,0,397.386,0,256   S114.623,0.003,256.009,0.003C397.401,0.003,512,114.614,512,256z" fill="#43b39c"/><g id="chart"><rect fill="#ebeeef" height="182.166" width="35.125" x="339.477" y="202.782"/><rect fill="#E64E3C" height="130.592" width="35.1" x="288.978" y="254.356"/><rect fill="#E7CE3C" height="107.549" width="35.131" x="238.447" y="277.399"/><rect fill="#E27D3C" height="72.424" width="35.125" x="187.935" y="312.524"/><rect fill="#337FC2" height="49.374" width="35.137" x="137.411" y="335.574"/><g><polygon points="370.276,159.583 374.602,127.045 344.252,139.558    "/></g><path d="M148.798,276.324c3.788,0,6.862,3.075,6.862,6.851c0,3.774-3.075,6.85-6.862,6.85c-3.775,0-6.862-3.075-6.862-6.85    C141.936,279.399,145.023,276.324,148.798,276.324 M148.798,271.925c-6.212,0-11.25,5.024-11.25,11.25    c0,6.2,5.038,11.25,11.25,11.25c6.213,0,11.25-5.05,11.25-11.25C160.048,276.949,155.011,271.925,148.798,271.925L148.798,271.925    z"/><path d="M194.797,260.369c-14.737,6.725-27.612,11.955-37.362,15.655c1.387,1.7,2.287,3.775,2.512,6.075    c9.837-3.725,22.762-8.975,37.512-15.73C196.022,264.719,195.072,262.656,194.797,260.369z"/><path d="M245.847,234.144c-10.962,6.3-21.7,12.012-31.85,17.062c1.513,1.588,2.575,3.6,2.963,5.862    c10.449-5.199,21.5-11.087,32.787-17.6C247.959,238.144,246.597,236.294,245.847,234.144z"/><path d="M256.422,223.594c3.787,0,6.862,3.087,6.862,6.862c0,3.788-3.075,6.863-6.862,6.863c-3.788,0-6.862-3.075-6.862-6.863    C249.56,226.682,252.634,223.594,256.422,223.594 M256.422,219.207c-6.213,0-11.25,5.037-11.25,11.25s5.037,11.25,11.25,11.25    c6.212,0,11.25-5.038,11.25-11.25S262.634,219.207,256.422,219.207L256.422,219.207z"/><path d="M296.353,201.157c-10.475,7.8-21.125,15.024-31.693,21.674c1.487,1.625,2.5,3.688,2.85,5.962    c10.894-6.837,21.894-14.287,32.693-22.325C298.428,205.132,297.077,203.294,296.353,201.157z"/><path d="M357.802,143.77c-13.425,16.262-28.7,31.012-44.774,44.299c1.85,1.213,3.35,2.95,4.25,5.025    c16.35-13.538,31.899-28.563,45.6-45.125L357.802,143.77z"/><path d="M306.928,190.657c3.8,0,6.875,3.075,6.875,6.862c0,3.775-3.075,6.862-6.875,6.862c-3.775,0-6.851-3.087-6.851-6.862    C300.077,193.732,303.152,190.657,306.928,190.657 M306.928,186.27c-6.2,0-11.25,5.038-11.25,11.25s5.05,11.237,11.25,11.237    c6.225,0,11.25-5.025,11.25-11.237S313.152,186.27,306.928,186.27L306.928,186.27z"/><path d="M205.91,252.144c3.787,0,6.862,3.088,6.862,6.862c0,3.775-3.075,6.863-6.862,6.863c-3.788,0-6.863-3.088-6.863-6.863    C199.047,255.231,202.122,252.144,205.91,252.144 M205.91,247.756c-6.213,0-11.25,5.05-11.25,11.25    c0,6.213,5.037,11.244,11.25,11.244c6.212,0,11.25-5.031,11.25-11.244C217.16,252.807,212.122,247.756,205.91,247.756    L205.91,247.756z"/></g></g><g/><g/><g/><g/><g/><g/></svg>