<?xml version="1.0" ?><!DOCTYPE svg  PUBLIC '-//W3C//DTD SVG 1.1//EN'  'http://www.w3.org/Graphics/SVG/1.1/DTD/svg11.dtd'><svg enable-background="new 0 0 512 512" height="512px" id="Calque_1" version="1.1" viewBox="0 0 512 512" width="512px" xml:space="preserve" xmlns="http://www.w3.org/2000/svg" xmlns:xlink="http://www.w3.org/1999/xlink"><g><path d="M512,256c0,141.386-114.599,255.997-255.997,255.997C114.63,511.997,0.006,397.386,0.006,256   S114.63,0.003,256.003,0.003C397.401,0.003,512,114.614,512,256z" fill="#A1C656"/><g id="Parameters"><g><path d="M310.952,366.373c0,6.525,5.275,11.801,11.8,11.801l0,0c6.525,0,11.813-5.275,11.813-11.801V152.72     c0-6.512-5.287-11.8-11.813-11.8l0,0c-6.524,0-11.8,5.288-11.8,11.8V366.373z" fill="#2D4453"/><path d="M322.752,140.92c6.525,0,11.813,5.288,11.813,11.8v213.653c0,6.525-5.287,11.801-11.813,11.801     c-6.524,0-11.8-5.275-11.8-11.801V152.72C310.952,146.208,316.228,140.92,322.752,140.92 M322.752,135.033     c-9.75,0-17.675,7.938-17.675,17.687v213.653c0,9.75,7.925,17.7,17.675,17.7s17.688-7.95,17.688-17.7V152.72     C340.439,142.97,332.502,135.033,322.752,135.033L322.752,135.033z" fill="#5C717C"/></g><g><path d="M244.803,366.373c0,6.525,5.288,11.801,11.813,11.801l0,0c6.513,0,11.8-5.275,11.8-11.801V152.72     c0-6.512-5.287-11.8-11.8-11.8l0,0c-6.524,0-11.813,5.288-11.813,11.8V366.373z" fill="#2D4453"/><path d="M256.615,140.92c6.513,0,11.8,5.288,11.8,11.8v213.653c0,6.525-5.287,11.801-11.8,11.801     c-6.524,0-11.813-5.275-11.813-11.801V152.72C244.803,146.208,250.091,140.92,256.615,140.92 M256.615,135.033     c-9.762,0-17.687,7.938-17.687,17.687v213.653c0,9.75,7.925,17.7,17.687,17.7c9.737,0,17.688-7.95,17.688-17.7V152.72     C274.303,142.97,266.353,135.033,256.615,135.033L256.615,135.033z" fill="#5C717C"/></g><g><path d="M176.304,366.373c0,6.525,5.275,11.801,11.8,11.801l0,0c6.525,0,11.8-5.275,11.8-11.801V152.72     c0-6.512-5.274-11.8-11.8-11.8l0,0c-6.524,0-11.8,5.288-11.8,11.8V366.373z" fill="#2D4453"/><path d="M188.104,140.92c6.525,0,11.8,5.288,11.8,11.8v213.653c0,6.525-5.274,11.801-11.8,11.801     c-6.524,0-11.8-5.275-11.8-11.801V152.72C176.304,146.208,181.579,140.92,188.104,140.92 M188.104,135.033     c-9.75,0-17.687,7.938-17.687,17.687v213.653c0,9.75,7.937,17.7,17.687,17.7s17.688-7.95,17.688-17.7V152.72     C205.791,142.97,197.854,135.033,188.104,135.033L188.104,135.033z" fill="#5C717C"/></g><g><path d="M299.127,208.794c0,13.362,10.851,24.2,24.213,24.2s24.199-10.837,24.199-24.2     c0-13.363-10.837-24.2-24.199-24.2S299.127,195.432,299.127,208.794z" fill="#44B39D"/><path d="M323.34,184.595c13.362,0,24.199,10.837,24.199,24.2c0,13.362-10.837,24.2-24.199,24.2     s-24.213-10.837-24.213-24.2C299.127,195.432,309.978,184.595,323.34,184.595 M323.34,175.182     c-18.537,0-33.612,15.075-33.612,33.612c0,18.525,15.075,33.612,33.612,33.612s33.611-15.087,33.611-33.612     C356.951,190.257,341.877,175.182,323.34,175.182L323.34,175.182z" fill="#E6E7E8"/></g><g><path d="M233.003,279.675c0,13.35,10.825,24.175,24.188,24.175s24.2-10.825,24.2-24.175     c0-13.381-10.838-24.219-24.2-24.219S233.003,266.294,233.003,279.675z" fill="#44B39D"/><path d="M257.19,255.456c13.362,0,24.2,10.838,24.2,24.219c0,13.35-10.838,24.175-24.2,24.175     s-24.188-10.825-24.188-24.175C233.003,266.294,243.828,255.456,257.19,255.456 M257.19,246.057     c-18.537,0-33.612,15.074-33.612,33.618c0,18.524,15.075,33.6,33.612,33.6s33.612-15.075,33.612-33.6     C290.803,261.131,275.728,246.057,257.19,246.057L257.19,246.057z" fill="#E6E7E8"/></g><g><path d="M164.479,161.545c0,13.362,10.837,24.2,24.2,24.2c13.375,0,24.2-10.837,24.2-24.2s-10.825-24.2-24.2-24.2     C175.316,137.345,164.479,148.183,164.479,161.545z" fill="#44B39D"/><path d="M188.679,137.345c13.375,0,24.2,10.837,24.2,24.2s-10.825,24.2-24.2,24.2     c-13.362,0-24.2-10.837-24.2-24.2S175.316,137.345,188.679,137.345 M188.679,127.933c-18.524,0-33.6,15.075-33.6,33.612     c0,18.524,15.075,33.612,33.6,33.612c18.537,0,33.612-15.088,33.612-33.612C222.291,143.008,207.216,127.933,188.679,127.933     L188.679,127.933z" fill="#E6E7E8"/></g></g></g><g/><g/><g/><g/><g/><g/></svg>