<?xml version="1.0" ?><!DOCTYPE svg  PUBLIC '-//W3C//DTD SVG 1.1//EN'  'http://www.w3.org/Graphics/SVG/1.1/DTD/svg11.dtd'><svg enable-background="new 0 0 512 512" height="512px" id="Calque_1" version="1.1" viewBox="0 0 512 512" width="512px" xml:space="preserve" xmlns="http://www.w3.org/2000/svg" xmlns:xlink="http://www.w3.org/1999/xlink"><g><path d="M512,256c0,141.388-114.612,256-256,256S0,397.388,0,256S114.612,0,256,0S512,114.612,512,256z" fill="#E27C3C"/><g id="wifi"><g id="rss_1_"><path d="M337.15,215.35" fill="#FBB040"/><g><defs><polygon id="SVGID_1_" points="246.056,297.213 265.943,297.213 421.6,120.525 90.4,120.525      "/></defs><clipPath id="SVGID_2_"><use overflow="visible" xlink:href="#SVGID_1_"/></clipPath><g clip-path="url(#SVGID_2_)"><path d="M256,138.45c-86.081,0-156.119,70.037-156.119,156.125c0,86.087,70.038,156.112,156.119,156.112       c86.088,0,156.125-70.025,156.125-156.112C412.125,208.487,342.088,138.45,256,138.45z M256,424.013       c-71.381,0-129.45-58.063-129.45-129.438c0-71.388,58.069-129.475,129.45-129.475c71.375,0,129.45,58.087,129.45,129.475       C385.45,365.95,327.375,424.013,256,424.013z" fill="#FBB040"/><path d="M256,183.45c-64.944,0-117.788,52.85-117.788,117.8S191.056,419.037,256,419.037       c64.95,0,117.787-52.837,117.787-117.787S320.95,183.45,256,183.45z M256,392.362c-50.237,0-91.112-40.875-91.112-91.112       c0-50.25,40.875-91.125,91.112-91.125c50.25,0,91.125,40.875,91.125,91.125C347.125,351.487,306.25,392.362,256,392.362z" fill="#FBB040"/><path d="M262.237,210.362c23.851,1.625,45.213,12.45,60.538,28.975       c0.699,0.075,1.05,0.087,1.05,0.087l2.774-23.6c0,0-79.156-31.688-81.106-31.688c-0.163,0-0.55-0.038-1.119-0.1       c-11.956,1.175-23.4,4.137-34.044,8.637C218.612,192.85,238.856,195.05,262.237,210.362z" fill="#D98D39" opacity="0.65"/><path d="M256,229.575c-43.188,0-78.337,35.149-78.337,78.337c0,43.2,35.15,78.351,78.337,78.351       c43.2,0,78.338-35.15,78.338-78.351C334.338,264.725,299.2,229.575,256,229.575z M256,359.588       c-28.487,0-51.663-23.176-51.663-51.676c0-28.487,23.175-51.662,51.663-51.662c28.5,0,51.675,23.175,51.675,51.662       C307.675,336.412,284.5,359.588,256,359.588z" fill="#FBB040"/><path d="M254.894,229.6c-11.318,0.163-22.056,2.725-31.737,7.225       c7.181,2.475,22.475,8.65,33.85,19.45c15.582,0.3,29.494,7.512,38.77,18.7c5.75-0.324,9.725-1.375,9.725-1.375l-14.725-29.175       C290.775,244.425,272.95,234.737,254.894,229.6z" fill="#D98D39" opacity="0.65"/></g></g><path d="M319.95,236.237c-81.288-76.95-155.394-32.837-156.131-32.362l-17.7-20.075     c0.962-0.612,25.2-17.9,60.35-20.487c32.044-2.388,80.856,4.837,131.369,52.663L319.95,236.237z" fill="#FFDE17"/><path d="M290.5,269.438c-52.294-47.725-97.587-33.513-98.069-33.337l-17.637-20     c2.637-0.913,68.344-25.8,133.231,33.4L290.5,269.438z" fill="#FFDE17"/><path d="M273.412,292.4c0,9.612-7.793,17.412-17.412,17.412c-9.612,0-17.406-7.8-17.406-17.412     c0-9.613,7.794-17.4,17.406-17.4C265.619,275,273.412,282.787,273.412,292.4z" fill="#FFDE17"/></g><path d="M153.969,380.487c0,6.075,4.919,10.987,10.994,10.987H347.05c6.063,0,10.987-4.912,10.987-10.987V344.75    c0-6.063-4.925-10.987-10.987-10.987H164.962c-6.075,0-10.994,4.925-10.994,10.987V380.487z" fill="#2D4453"/><g><path d="M201.688,362.625c0,6.45-5.225,11.675-11.681,11.675c-6.45,0-11.681-5.225-11.681-11.675     c0-6.463,5.231-11.688,11.681-11.688C196.462,350.938,201.688,356.162,201.688,362.625z" fill="#39B54A"/><path d="M234.681,362.625c0,6.45-5.225,11.675-11.681,11.675c-6.45,0-11.681-5.225-11.681-11.675     c0-6.463,5.231-11.688,11.681-11.688C229.456,350.938,234.681,356.162,234.681,362.625z" fill="#39B54A"/><path d="M267.688,362.625c0,6.45-5.231,11.675-11.681,11.675c-6.457,0-11.681-5.225-11.681-11.675     c0-6.463,5.225-11.688,11.681-11.688C262.456,350.938,267.688,356.162,267.688,362.625z" fill="#80929B"/><path d="M300.675,362.625c0,6.45-5.225,11.675-11.675,11.675s-11.675-5.225-11.675-11.675     c0-6.463,5.225-11.688,11.675-11.688S300.675,356.162,300.675,362.625z" fill="#80929B"/><path d="M333.675,362.625c0,6.45-5.225,11.675-11.675,11.675s-11.675-5.225-11.675-11.675     c0-6.463,5.225-11.688,11.675-11.688S333.675,356.162,333.675,362.625z" fill="#E9484B"/></g></g></g><g/><g/><g/><g/><g/><g/></svg>