<?xml version="1.0" ?><!DOCTYPE svg  PUBLIC '-//W3C//DTD SVG 1.1//EN'  'http://www.w3.org/Graphics/SVG/1.1/DTD/svg11.dtd'><svg enable-background="new 0 0 512 512" height="512px" id="Calque_1" version="1.1" viewBox="0 0 512 512" width="512px" xml:space="preserve" xmlns="http://www.w3.org/2000/svg" xmlns:xlink="http://www.w3.org/1999/xlink"><g><path d="M512,256c0,141.386-114.599,255.997-255.991,255.997C114.623,511.997,0,397.386,0,256   S114.623,0.003,256.009,0.003C397.401,0.003,512,114.614,512,256z" fill="#E1695C"/><g id="Clapper"><rect clip-rule="evenodd" fill="#2D4453" fill-rule="evenodd" height="148.429" width="251.652" x="136.398" y="241.694"/><g><defs><rect height="38.156" id="SVGID_1_" width="251.652" x="136.398" y="241.694"/></defs><use clip-rule="evenodd" fill="#243842" fill-rule="evenodd" overflow="visible" xlink:href="#SVGID_1_"/><clipPath id="SVGID_2_"><use overflow="visible" xlink:href="#SVGID_1_"/></clipPath><polygon clip-path="url(#SVGID_2_)" fill="#E6E7E8" points="340.502,308.624 322.502,290.625 395.676,217.469 413.676,235.457         "/><polygon clip-path="url(#SVGID_2_)" fill="#E6E7E8" points="272.603,308.624 254.622,290.625 327.777,217.469 345.777,235.457         "/><polygon clip-path="url(#SVGID_2_)" fill="#E6E7E8" points="204.71,308.624 186.723,290.625 259.884,217.469 277.878,235.457         "/><polygon clip-path="url(#SVGID_2_)" fill="#E6E7E8" points="136.823,308.624 118.823,290.625 191.998,217.469 209.985,235.457         "/></g><g><defs><polygon id="SVGID_3_" points="373.977,157.857 136.686,241.682 123.974,205.694 361.252,121.87     "/></defs><use clip-rule="evenodd" fill="#243842" fill-rule="evenodd" overflow="visible" xlink:href="#SVGID_3_"/><clipPath id="SVGID_4_"><use overflow="visible" xlink:href="#SVGID_3_"/></clipPath><polygon clip-path="url(#SVGID_4_)" fill="#E6E7E8" points="191.098,252.969 202.06,230.019 108.711,185.407 97.736,208.357         "/><polygon clip-path="url(#SVGID_4_)" fill="#E6E7E8" points="255.109,230.356 266.071,207.395 172.723,162.782 161.748,185.745         "/><rect clip-path="url(#SVGID_4_)" fill="#E6E7E8" height="103.467" transform="matrix(-0.4312 0.9022 -0.9022 -0.4312 554.7424 -1.7951)" width="25.45" x="265.212" y="122.224"/><polygon clip-path="url(#SVGID_4_)" fill="#E6E7E8" points="383.151,185.12 394.126,162.17 300.752,117.558 289.803,140.508         "/></g><rect fill="#5C717C" height="50.4" width="168.804" x="176.448" y="310.924"/><g><rect fill="#A8BEC6" height="10.4" width="136.805" x="192.447" y="320.924"/><rect fill="#A8BEC6" height="10.4" width="136.805" x="192.447" y="340.924"/></g></g></g><g/><g/><g/><g/><g/><g/></svg>