<?xml version="1.0" ?><!DOCTYPE svg  PUBLIC '-//W3C//DTD SVG 1.1//EN'  'http://www.w3.org/Graphics/SVG/1.1/DTD/svg11.dtd'><svg enable-background="new 0 0 512 512" height="512px" id="Calque_1" version="1.1" viewBox="0 0 512 512" width="512px" xml:space="preserve" xmlns="http://www.w3.org/2000/svg" xmlns:xlink="http://www.w3.org/1999/xlink"><g><path d="M512,256c0,141.386-114.599,255.997-255.991,255.997C114.623,511.997,0,397.386,0,256   S114.623,0.003,256.009,0.003C397.401,0.003,512,114.614,512,256z" fill="#EBEEEF"/><g id="arrow_1_"><path clip-rule="evenodd" d="M178.285,255.862c0-38.562-0.025-77.137,0-115.711    c0-8.45,6.1-14.563,13.95-13.575c2.625,0.325,5.475,1.725,7.5,3.462c40.25,34.875,80.368,69.849,120.542,104.824    c1.925,1.688,3.899,3.325,5.8,5.05c10.225,9.313,10.3,23.012-0.05,32.137c-15.675,13.825-31.5,27.462-47.274,41.175    c-25.844,22.475-51.719,44.899-77.493,67.449c-4.5,3.912-9.225,6.375-15.024,3.774c-5.976-2.649-8.05-7.675-8.025-14.125    C178.335,332.174,178.285,294.012,178.285,255.862z" fill="#44B39D" fill-rule="evenodd"/></g></g><g/><g/><g/><g/><g/><g/></svg>