<?xml version="1.0" ?><!DOCTYPE svg  PUBLIC '-//W3C//DTD SVG 1.1//EN'  'http://www.w3.org/Graphics/SVG/1.1/DTD/svg11.dtd'><svg enable-background="new 0 0 512 512" height="512px" id="Calque_1" version="1.1" viewBox="0 0 512 512" width="512px" xml:space="preserve" xmlns="http://www.w3.org/2000/svg" xmlns:xlink="http://www.w3.org/1999/xlink"><g><path d="M512,256c0,141.386-114.599,255.997-256.003,255.997C114.617,511.997,0.006,397.386,0.006,256   S114.617,0.003,255.997,0.003C397.401,0.003,512,114.614,512,256z" fill="#D6D9B8"/><g id="battery_charge"><path clip-rule="evenodd" d="M344.352,274.274c0,9.088,7.375,16.45,16.475,16.45h7.7    c9.101,0,16.476-7.362,16.476-16.45V237.75c0-9.1-7.375-16.462-16.476-16.462h-7.7c-9.1,0-16.475,7.362-16.475,16.462V274.274z" fill="#344E5D" fill-rule="evenodd"/><path d="M343.102,216.913v78.199H145.536v-78.199H343.102 M351.326,198.388H137.305    c-5.682,0-10.288,4.613-10.288,10.3v94.649c0,5.675,4.606,10.287,10.288,10.287h214.021c5.7,0,10.301-4.612,10.301-10.287v-94.649    C361.627,203.001,357.026,198.388,351.326,198.388L351.326,198.388z" fill="#FFFFFF"/><g><rect clip-rule="evenodd" fill="#3CB29D" fill-rule="evenodd" height="59.674" width="35.143" x="157.679" y="226.175"/><rect clip-rule="evenodd" fill="#3CB29D" fill-rule="evenodd" height="59.674" width="35.137" x="203.729" y="226.175"/><rect clip-rule="evenodd" fill="#3CB29D" fill-rule="evenodd" height="59.674" width="35.156" x="249.771" y="226.175"/><rect clip-rule="evenodd" fill="#3CB29D" fill-rule="evenodd" height="59.674" width="35.149" x="295.827" y="226.175"/></g></g></g><g/><g/><g/><g/><g/><g/></svg>