<?xml version="1.0" ?><!DOCTYPE svg  PUBLIC '-//W3C//DTD SVG 1.1//EN'  'http://www.w3.org/Graphics/SVG/1.1/DTD/svg11.dtd'><svg enable-background="new 0 0 512 512" height="512px" id="Calque_1" version="1.1" viewBox="0 0 512 512" width="512px" xml:space="preserve" xmlns="http://www.w3.org/2000/svg" xmlns:xlink="http://www.w3.org/1999/xlink"><g><path d="M512,256c0,141.386-114.599,255.997-256.003,255.997C114.623,511.997,0,397.386,0,256   S114.623,0.003,255.997,0.003C397.401,0.003,512,114.614,512,256z" fill="#EFC84A"/><g id="lab"><path d="M384.426,365.836l-96.098-144.061v-74.149h10.274c5.3,0,9.6-4.3,9.6-9.612c0-5.3-4.3-9.6-9.6-9.6h-85.068    c-5.3,0-9.612,4.3-9.612,9.6c0,5.313,4.313,9.612,9.612,9.612h10.288v74.149l-95.124,142.599c-2.612,4.725-3.4,9.524-1.025,13.524    c2.5,3.438,6.525,5.688,11.087,5.688h234.616c2.649,0,5.1-0.787,7.199-2.075c1.25-0.85,2.45-2.024,3.426-3.662    C387.126,372.573,385.326,367.674,384.426,365.836z" fill="#E6E7E8"/><path d="M361.127,354.299l-43-64.462c-8.024,1.538-25.449,2.413-51.155-9.375    c-27.75-12.749-46.524-15.762-53.899-16.475l-59.449,89.124c-2.112,3.838-2.75,7.725-0.825,10.975    c2.013,2.787,5.275,4.613,8.987,4.613h190.392c2.149,0,4.125-0.639,5.825-1.688c1.024-0.688,2-1.638,2.8-2.963    C363.326,359.762,361.852,355.786,361.127,354.299z" fill="#2D4453"/><polygon fill="#D1D3D4" opacity="0.5" points="223.972,154.451 288.328,161.326 288.328,147.626 223.972,147.626   "/><path d="M269.953,326.312c0,5.487,4.449,9.95,9.949,9.95s9.95-4.463,9.95-9.95c0-5.5-4.45-9.962-9.95-9.962    S269.953,320.812,269.953,326.312z" fill="#5C717C"/><path d="M269.953,359.599c0,2.275,1.85,4.112,4.1,4.112c2.275,0,4.125-1.837,4.125-4.112    c0-2.274-1.85-4.125-4.125-4.125C271.803,355.474,269.953,357.324,269.953,359.599z" fill="#5C717C"/><path d="M258.959,337.624c0,2.274,1.838,4.125,4.112,4.125c2.275,0,4.125-1.851,4.125-4.125    s-1.85-4.112-4.125-4.112C260.797,333.512,258.959,335.35,258.959,337.624z" fill="#5C717C"/><path d="M278.178,320.137c0,0-0.45,0.3-1.025,0.75c-0.324,0.175-0.6,0.525-0.949,0.75    c-0.25,0.338-0.65,0.575-0.9,0.938c-0.275,0.35-0.6,0.662-0.775,1.05c-0.175,0.362-0.524,0.663-0.574,1.025    c-0.275,0.649-0.575,1.149-0.575,1.149s-0.15-0.5-0.175-1.337c-0.051-0.4,0.074-0.875,0.25-1.375    c0.1-0.237,0.125-0.525,0.324-0.737l0.5-0.676c0.351-0.449,0.851-0.737,1.25-1.024c0.476-0.213,0.926-0.4,1.325-0.463    C277.628,319.999,278.178,320.137,278.178,320.137z" fill="#FFFFFF"/><path d="M273.753,357.236c0,0-0.2,0.162-0.425,0.388c-0.226,0.225-0.525,0.462-0.75,0.75    c-0.101,0.138-0.25,0.263-0.325,0.412c-0.075,0.15-0.25,0.275-0.275,0.425c-0.149,0.263-0.3,0.488-0.3,0.488    s-0.1-0.226-0.15-0.601c-0.05-0.362,0.125-0.862,0.45-1.263c0.351-0.362,0.8-0.6,1.15-0.637    C273.503,357.148,273.753,357.249,273.753,357.236z" fill="#FFFFFF"/><path d="M262.422,335.148c0,0-0.2,0.163-0.426,0.389c-0.225,0.212-0.524,0.462-0.737,0.75    c-0.112,0.137-0.263,0.25-0.337,0.424c-0.063,0.15-0.238,0.264-0.275,0.413c-0.15,0.274-0.3,0.487-0.3,0.487    s-0.101-0.213-0.15-0.588s0.125-0.875,0.45-1.274c0.35-0.362,0.8-0.601,1.175-0.638    C262.184,335.074,262.422,335.174,262.422,335.148z" fill="#FFFFFF"/><rect fill="#FFFFFF" height="74.787" opacity="0.38" width="7.55" x="269.953" y="147.589"/><polygon fill="#FFFFFF" opacity="0.2" points="277.503,222.175 269.953,222.175 280.953,382.936 313.178,382.936   "/><rect fill="#FFFFFF" height="74.549" opacity="0.38" width="7.537" x="256.222" y="147.589"/><polygon fill="#FFFFFF" opacity="0.2" points="256.222,221.95 263.759,221.95 252.784,382.936 220.522,382.936   "/><path d="M308.202,138.014c0-5.3-4.3-9.6-9.6-9.6h-85.068c-5.3,0-9.612,4.3-9.612,9.6    c0,0.226,0.05,0.45,0.075,0.663h104.155C308.152,138.464,308.202,138.239,308.202,138.014z" fill="#FFFFFF" opacity="0.44"/></g></g><g/><g/><g/><g/><g/><g/></svg>