<?xml version="1.0" ?><!DOCTYPE svg  PUBLIC '-//W3C//DTD SVG 1.1//EN'  'http://www.w3.org/Graphics/SVG/1.1/DTD/svg11.dtd'><svg enable-background="new 0 0 512 512" height="512px" id="Calque_1" version="1.1" viewBox="0 0 512 512" width="512px" xml:space="preserve" xmlns="http://www.w3.org/2000/svg" xmlns:xlink="http://www.w3.org/1999/xlink"><g><path d="M511.98,256.016C511.98,397.385,397.391,512,256.009,512C114.634,512,0.019,397.385,0.019,256.016   C0.019,114.641,114.634,0,256.009,0C397.391,0,511.98,114.641,511.98,256.016z" fill="#EBEEEF"/><g id="abacus"><g><rect clip-rule="evenodd" fill="#80929B" fill-rule="evenodd" height="9.912" width="232.912" x="139.532" y="211.37"/><rect clip-rule="evenodd" fill="#80929B" fill-rule="evenodd" height="9.899" width="232.912" x="139.532" y="290.719"/></g><path d="M367.493,143.676v224.637H144.506V143.676H367.493 M387.316,123.852H124.683v264.284h262.634V123.852    L387.316,123.852z" fill="#EF4136"/><rect clip-rule="evenodd" fill="#2D4453" fill-rule="evenodd" height="69.381" width="20.648" x="161.854" y="181.647"/><rect clip-rule="evenodd" fill="#2D4453" fill-rule="evenodd" height="69.381" width="20.648" x="191.603" y="181.647"/><rect clip-rule="evenodd" fill="#2D4453" fill-rule="evenodd" height="69.381" width="20.648" x="221.375" y="181.647"/><rect clip-rule="evenodd" fill="#2D4453" fill-rule="evenodd" height="69.375" width="20.648" x="320.547" y="260.99"/><rect clip-rule="evenodd" fill="#2D4453" fill-rule="evenodd" height="69.375" width="20.673" x="270.927" y="260.99"/></g></g><g/><g/><g/><g/><g/><g/></svg>