<?xml version="1.0" ?><!DOCTYPE svg  PUBLIC '-//W3C//DTD SVG 1.1//EN'  'http://www.w3.org/Graphics/SVG/1.1/DTD/svg11.dtd'><svg enable-background="new 0 0 512 512" height="512px" id="Calque_1" version="1.1" viewBox="0 0 512 512" width="512px" xml:space="preserve" xmlns="http://www.w3.org/2000/svg" xmlns:xlink="http://www.w3.org/1999/xlink"><g><path d="M511.975,256.025C511.975,397.387,397.361,512,256,512C114.626,512,0.025,397.387,0.025,256.025   C0.025,114.639,114.626,0,256,0C397.361,0,511.975,114.639,511.975,256.025z" fill="#EBEEEF"/><g id="radar"><path d="M191.663,360.777l-17.686-3.662c6.712-32.334,30.035-47.783,31.022-48.433l9.836,15.148l-4.924-7.574    l4.962,7.549C214.698,323.931,196.787,336.08,191.663,360.777z" fill="#EEB144"/><path d="M187.188,326.73c6.212,3.125,16.386,4.524,19.223,4.85c4.587-5.137,8.387-7.725,8.462-7.774    l-4.962-7.549l-1.837-2.825c-2.949-0.512-6.012-0.675-8.236-0.725C196.412,315.682,191.725,320.331,187.188,326.73z" fill="#D7972C" opacity="0.5"/><polygon fill="#EEB144" points="267.13,248.638 262.493,243.989 294.996,211.492 299.646,216.129   "/><path d="M177.626,129.9l183.338,203.605c0,0-90.291,53.069-165.277-14.249    C120.707,251.95,156.828,159.472,177.626,129.9z" fill="#C49A6C"/><path d="M243.882,388.225c-6.774-23.585-30.997-41.046-59.832-41.046s-53.045,17.461-59.807,41.046H243.882z" fill="#C49A6C"/><path d="M329.668,217.929c-0.575-0.575-0.95-1.362-0.975-2.237c-0.025-1.25-1.15-29.359-30.072-31.622    c-1.8-0.15-3.15-1.725-3.025-3.524c0.15-1.825,1.726-3.175,3.525-3.024c18.248,1.425,27.146,11.749,31.371,20.147    c4.525,8.949,4.775,17.499,4.775,17.861c0.024,1.812-1.4,3.312-3.2,3.362C331.117,218.916,330.268,218.541,329.668,217.929z" fill="#2BB673"/><path d="M352.74,216.991c-0.824-0.825-1.35-1.938-1.375-3.175l0,0c0-0.125-0.399-12.724-6.949-25.497    c-8.523-16.648-23.122-25.897-43.42-27.485c-2.575-0.212-4.5-2.437-4.275-4.999c0.176-2.563,2.425-4.487,5-4.274    c29.747,2.337,44.246,19.16,51.145,32.859c7.399,14.624,7.8,28.584,7.8,29.172c0.075,2.562-1.976,4.699-4.55,4.749    C354.79,218.366,353.591,217.854,352.74,216.991z" fill="#2BB673"/><path d="M377.488,219.666c-1.05-1.05-1.725-2.5-1.775-4.1l0,0c0-0.2-0.6-19.098-10.398-38.296    c-12.849-25.123-34.847-39.084-65.469-41.471c-3.3-0.275-5.774-3.163-5.524-6.474c0.25-3.325,3.149-5.8,6.475-5.537    c43.896,3.437,65.243,28.234,75.442,48.433c10.898,21.598,11.499,42.184,11.523,43.046c0.075,3.324-2.574,6.074-5.898,6.162    C380.163,221.466,378.588,220.791,377.488,219.666z" fill="#2BB673"/><path d="M184.051,347.179c-6.237,0-12.261,0.825-17.936,2.337    c12.074-0.112,46.095,2.912,61.594,38.709h16.173C237.108,364.64,212.886,347.179,184.051,347.179z" fill="#8B5E3C" opacity="0.27"/><path d="M154.091,365.052c0,0-0.063,0.063-0.175,0.175c-0.125,0.113-0.274,0.288-0.5,0.476    c-0.425,0.412-1.037,0.975-1.774,1.637c-0.713,0.65-1.563,1.413-2.462,2.213c-0.45,0.399-0.9,0.824-1.375,1.225    c-0.437,0.45-0.925,0.85-1.375,1.3c-0.45,0.45-0.913,0.862-1.338,1.313c-0.212,0.213-0.438,0.438-0.662,0.65    c-0.225,0.212-0.4,0.437-0.612,0.662c-0.4,0.412-0.813,0.824-1.163,1.237c-0.35,0.412-0.737,0.787-1.025,1.162    c-0.3,0.375-0.6,0.7-0.862,1.013c-0.25,0.313-0.475,0.587-0.65,0.813c-0.375,0.462-0.625,0.725-0.625,0.725    s0.025-0.338,0.125-0.938c0.05-0.287,0.1-0.662,0.2-1.074c0.125-0.413,0.275-0.851,0.45-1.338c0.162-0.5,0.425-1,0.7-1.525    c0.25-0.549,0.6-1.074,0.962-1.6c0.35-0.55,0.763-1.074,1.213-1.6c0.412-0.525,0.925-0.987,1.412-1.475    c0.487-0.475,1.025-0.912,1.537-1.35c0.275-0.2,0.55-0.4,0.813-0.575c0.275-0.2,0.538-0.388,0.813-0.55    c1.075-0.7,2.137-1.226,3.087-1.625c0.938-0.4,1.763-0.638,2.35-0.775C153.741,365.09,154.091,365.052,154.091,365.052z" fill="#FFFFFF" opacity="0.65"/><path d="M360.965,333.505l-8.924-9.911c-20.648,11.486-74.518,35.509-132.544,12.986    C288.497,376.101,360.965,333.505,360.965,333.505z" fill="#A97C50" opacity="0.4"/><path d="M177.626,129.9c-20.798,29.572-56.919,122.05,18.061,189.356    c1.612,1.463,3.225,2.85,4.849,4.188l0,0c-37.309-45.258-0.262-128.7,12.511-154.197L177.626,129.9z" fill="#E9C198" opacity="0.27"/><path d="M178.451,172.57c0,0-0.25,1-0.688,2.737c-0.225,0.875-0.475,1.938-0.787,3.138    c-0.288,1.212-0.612,2.574-0.975,4.062c-0.712,2.975-1.512,6.438-2.287,10.162c-0.387,1.85-0.762,3.774-1.125,5.724    c-0.35,1.95-0.725,3.95-1.012,5.924c-0.175,1-0.325,2-0.463,3c-0.137,0.987-0.274,1.975-0.399,2.962    c-0.238,1.962-0.45,3.912-0.613,5.787c-0.175,1.875-0.313,3.7-0.4,5.425c-0.063,0.875-0.075,1.725-0.112,2.524    c-0.013,0.425-0.025,0.825-0.05,1.212c0,0.387,0,0.788-0.013,1.163c-0.05,1.524-0.013,2.912-0.013,4.149    c0.025,1.25,0.05,2.337,0.063,3.225c0.063,0.9,0.075,1.6,0.1,2.087c0.012,0.487,0.012,0.737,0.012,0.737s-0.075-0.238-0.225-0.7    c-0.15-0.45-0.388-1.125-0.638-2c-0.225-0.875-0.513-1.95-0.787-3.175c-0.238-1.25-0.525-2.649-0.725-4.199    c-0.125-0.775-0.212-1.575-0.288-2.4c-0.075-0.85-0.162-1.712-0.2-2.6c-0.112-1.8-0.149-3.674-0.125-5.624    c0.025-0.975,0.038-1.975,0.101-2.975c0.063-1,0.112-2.013,0.225-3.025c0.088-1.025,0.175-2.05,0.325-3.075    c0.125-1.025,0.275-2.063,0.438-3.087c0.325-2.038,0.712-4.087,1.149-6.075c0.463-1.987,0.95-3.937,1.487-5.812    c0.525-1.875,1.113-3.649,1.688-5.324c0.6-1.675,1.188-3.25,1.788-4.688c1.163-2.862,2.3-5.187,3.15-6.787    c0.412-0.813,0.774-1.425,1.012-1.85C178.313,172.783,178.451,172.57,178.451,172.57z" fill="#FFFFFF" opacity="0.65"/><path d="M288.072,227.703l4.399-4.412c1.749-4.225-0.375-5.774-3.399-5.875l-7.324,7.3    C283.672,226.153,286.396,227.165,288.072,227.703z" fill="#D7972C" opacity="0.5"/><path d="M283.647,215.991c0,6.649,5.374,12.049,12.023,12.049s12.049-5.399,12.049-12.049    s-5.399-12.036-12.049-12.036S283.647,209.342,283.647,215.991z" fill="#8DC63F"/><g opacity="0.5"><path d="M298.57,209.817c0,0-0.125,0.025-0.375,0.05c-0.199,0.037-0.524,0.075-0.899,0.137     s-0.774,0.113-1.2,0.188c-0.225,0.038-0.425,0.075-0.649,0.125c-0.2,0.05-0.425,0.075-0.625,0.15     c-0.2,0.05-0.4,0.112-0.601,0.188c-0.1,0.038-0.199,0.063-0.299,0.1c-0.101,0.038-0.2,0.075-0.301,0.113     c-0.199,0.063-0.35,0.162-0.524,0.25c-0.2,0.075-0.351,0.149-0.5,0.25c-0.15,0.1-0.325,0.149-0.45,0.237     c-0.125,0.087-0.25,0.162-0.35,0.212c-0.2,0.125-0.325,0.175-0.325,0.175s0-0.125,0.075-0.362     c0.024-0.113,0.05-0.262,0.125-0.425c0.05-0.162,0.149-0.337,0.25-0.512c0.05-0.1,0.1-0.175,0.175-0.275     c0.05-0.1,0.149-0.175,0.225-0.275c0.175-0.175,0.351-0.375,0.575-0.525c0.2-0.163,0.45-0.325,0.7-0.438     c0.249-0.138,0.524-0.213,0.8-0.3c0.274-0.088,0.574-0.113,0.85-0.138c0.275-0.025,0.55-0.025,0.8,0     c0.525,0.05,1,0.175,1.375,0.325c0.375,0.162,0.675,0.35,0.875,0.487C298.471,209.705,298.57,209.817,298.57,209.817z" fill="#FFFFFF"/><path d="M291.146,212.441l0.05-0.475c0,0,0-0.15,0.075-0.412c0.05-0.163,0.075-0.288,0.125-0.45     c0.05-0.163,0.15-0.313,0.25-0.487l0.225-0.351c0.051-0.087,0.101-0.149,0.176-0.225l0.074-0.075     c0.176-0.2,0.351-0.412,0.625-0.575c0.2-0.15,0.45-0.337,0.75-0.462c0.25-0.138,0.525-0.225,0.825-0.313     c0.25-0.075,0.475-0.1,0.7-0.125l0.175-0.025c0.35-0.024,0.6-0.024,0.875,0c0.5,0.05,0.975,0.15,1.45,0.351     c0.35,0.149,0.674,0.325,0.924,0.524c0.226,0.15,0.325,0.275,0.325,0.288l0.325,0.362l-0.475,0.087c0,0-0.15,0.025-0.375,0.063     l-1.225,0.175c-0.275,0.05-0.575,0.1-0.875,0.15l-0.625,0.112c-0.075,0.013-0.2,0.05-0.301,0.063     c-0.1,0.025-0.199,0.05-0.3,0.075c-0.225,0.075-0.425,0.125-0.6,0.188c-0.05,0.013-0.125,0.038-0.175,0.063     c-0.051,0-0.1,0.025-0.125,0.038c-0.125,0.05-0.2,0.087-0.3,0.125c-0.125,0.038-0.25,0.1-0.375,0.163l-0.15,0.075     c-0.149,0.05-0.3,0.125-0.475,0.237c-0.075,0.037-0.15,0.087-0.226,0.112c-0.074,0.05-0.149,0.075-0.199,0.125     c-0.101,0.05-0.2,0.112-0.275,0.175l-0.075,0.025c-0.225,0.137-0.375,0.2-0.375,0.2L291.146,212.441z M295.671,208.992     c-0.149,0-0.274,0.013-0.425,0.025l-0.15,0.012c-0.225,0.025-0.425,0.05-0.6,0.113c-0.275,0.075-0.55,0.163-0.75,0.275     c-0.274,0.125-0.5,0.275-0.699,0.425c-0.2,0.125-0.375,0.313-0.525,0.487l-0.075,0.088c-0.05,0.05-0.1,0.1-0.125,0.15l-0.2,0.325     c-0.1,0.15-0.149,0.275-0.199,0.4c-0.025,0.063-0.051,0.125-0.051,0.175c0.025-0.025,0.075-0.05,0.125-0.087     c0.075-0.063,0.15-0.087,0.25-0.137c0.075-0.038,0.125-0.075,0.2-0.101c0.2-0.125,0.375-0.225,0.55-0.274l0.101-0.075     c0.149-0.063,0.3-0.138,0.45-0.175c0.074-0.038,0.149-0.063,0.225-0.101l0.05-0.024c0.05-0.025,0.101-0.038,0.175-0.05     c0.025-0.012,0.075-0.025,0.125-0.05c0.175-0.063,0.375-0.125,0.65-0.2c0.074-0.025,0.225-0.05,0.35-0.075     c0.075-0.025,0.175-0.05,0.25-0.075l0.675-0.125c0.3-0.05,0.601-0.1,0.9-0.138l0.975-0.137c-0.149-0.1-0.35-0.2-0.6-0.325     c-0.425-0.163-0.851-0.275-1.3-0.3C295.896,208.992,295.796,208.992,295.671,208.992z" fill="#FFFFFF"/></g></g></g><g/><g/><g/><g/><g/><g/></svg>