<?xml version="1.0" ?><!DOCTYPE svg  PUBLIC '-//W3C//DTD SVG 1.1//EN'  'http://www.w3.org/Graphics/SVG/1.1/DTD/svg11.dtd'><svg enable-background="new 0 0 512 512" height="512px" id="Calque_1" version="1.1" viewBox="0 0 512 512" width="512px" xml:space="preserve" xmlns="http://www.w3.org/2000/svg" xmlns:xlink="http://www.w3.org/1999/xlink"><g><path d="M512,256c0,141.386-114.599,255.997-256.003,255.997C114.623,511.997,0,397.386,0,256   S114.623,0.003,255.997,0.003C397.401,0.003,512,114.614,512,256z" fill="#EBEEEF"/><g id="arrow_6_"><path clip-rule="evenodd" d="M248.322,125.414c-14.025,3.5-23.525,15.987-23.55,31.262    c-0.025,17.312-0.05,34.625-0.05,51.937l0.325,60.486l-23.1-23.574c-0.575-0.575-1.1-1.163-1.625-1.763    c-0.375-0.375-0.75-0.725-1.125-1.088c-15.375-14.287-40.074-9.35-49.1,9.588c-5.925,12.487-3.274,25.987,7.351,36.637    c32.124,32.125,64.274,64.249,96.424,96.387c0.649,0.662,1.399,1.237,2.575,2.263c0.975-1.176,1.725-2.288,2.674-3.213    c22.406-22.438,44.831-44.85,67.256-67.287c9.875-9.862,19.875-19.637,29.574-29.674c8.601-8.875,11.101-19.588,7.4-31.288    c-6.85-21.762-34.05-28.887-50.749-13.212c-8.4,7.875-16.25,16.375-24.351,24.588c-0.35-0.138-0.674-0.263-1-0.375    c0-1.15,0-2.338,0-3.5c0-8.625,0-17.263,0-25.9c0-27.187,0.101-54.424-0.049-81.624    C287.103,135.214,268.172,120.427,248.322,125.414z" fill="#44B39D" fill-rule="evenodd"/><path clip-rule="evenodd" d="M225.047,269.1l19.2,18.963    c0,0-17.25-42.013-19.475-71.824L225.047,269.1z" fill="#2C846D" fill-rule="evenodd" opacity="0.65"/></g></g><g/><g/><g/><g/><g/><g/></svg>