<?xml version="1.0" ?><!DOCTYPE svg  PUBLIC '-//W3C//DTD SVG 1.1//EN'  'http://www.w3.org/Graphics/SVG/1.1/DTD/svg11.dtd'><svg enable-background="new 0 0 512 512" height="512px" id="Calque_1" version="1.1" viewBox="0 0 512 512" width="512px" xml:space="preserve" xmlns="http://www.w3.org/2000/svg" xmlns:xlink="http://www.w3.org/1999/xlink"><g><path d="M512,256c0,141.386-114.599,255.997-255.991,255.997C114.623,511.997,0,397.386,0,256   S114.623,0.003,256.009,0.003C397.401,0.003,512,114.614,512,256z" fill="#E1695C"/><g id="bulb"><path d="M235.947,367.286c0,11.2,9.05,20.263,20.25,20.263s20.281-9.063,20.281-20.263    c0-11.188-9.081-20.263-20.281-20.263S235.947,356.099,235.947,367.286z" fill="#A7428E"/><polygon fill="#F0C946" points="296.827,371.561 215.047,341.624 215.047,322.687 296.827,352.624   "/><polygon fill="#F0C946" points="296.827,341.624 215.047,311.687 215.047,292.75 296.827,322.687   "/><polygon fill="#996026" opacity="0.27" points="248.047,334.749 238.147,331.137 215.047,340.137 215.047,341.624     225.197,345.349   "/><polygon fill="#996026" opacity="0.27" points="261.271,328.611 284.103,318.024 277.777,315.712 252.697,325.475   "/><path d="M252.572,355.374l11.475,4.188l20.506-11.438l-10.325-3.788    C265.571,346.961,254.997,353.773,252.572,355.374z" fill="#996026" opacity="0.27"/><polygon fill="#FEDB52" points="215.047,371.561 296.827,341.624 296.827,322.687 215.047,352.624   "/><polygon fill="#FEDB52" points="215.047,341.624 296.827,311.687 296.827,292.75 215.047,322.687   "/><rect fill="#FEDB52" height="29.574" width="37.85" x="215.047" y="296.362"/><path d="M332.377,168.276c-7.925-21.538-25.774-32.837-42.25-38.787c-30.105-10.4-61.205-2.113-72.854,1.8    c-15.075,6.337-30.425,17.462-37.65,36.987c-13,35.35,0.975,63.236,7.575,73.549c1.275,2.2,6.05,10.5,8.675,15.287    c6.95,14.125,18.025,38.662,19.125,54.149h82.03c1.075-15.037,11.55-38.611,18.525-52.887c0.024-0.063,0.074-0.088,0.1-0.15    c2.475-4.75,9.925-17.574,9.925-17.574l0,0C332.377,229.513,344.952,202.363,332.377,168.276z" fill="#FEDB52"/><path d="M218.147,155.576c0,0-0.601,0.788-1.65,2.188c-1.05,1.375-2.475,3.362-4.05,5.725    c-0.775,1.175-1.6,2.476-2.4,3.863c-0.875,1.325-1.524,2.863-2.375,4.325c-0.65,1.575-1.525,3.1-2.075,4.763    c-0.3,0.825-0.601,1.65-0.925,2.475c-0.3,0.825-0.475,1.7-0.725,2.55c-0.6,1.663-0.775,3.425-1.1,5.125    c-0.425,1.712-0.3,3.438-0.55,5.112c-0.175,1.675,0.05,3.313,0,4.887c-0.1,1.601,0.225,3.075,0.3,4.488    c0.2,1.4,0.149,2.762,0.45,3.887c0.25,1.15,0.375,2.188,0.525,3.038c0.225,1.725,0.325,2.775,0.325,2.775s-0.65-0.75-1.7-2.2    c-0.525-0.712-1.175-1.587-1.825-2.65c-0.774-1.013-1.274-2.325-1.899-3.737c-0.55-1.425-1.4-2.95-1.726-4.713    c-0.35-1.75-0.95-3.6-1.05-5.575c-0.05-1-0.1-2.012-0.125-3.038l-0.075-1.55c0.05-0.513,0.125-1.038,0.175-1.55    c0.225-2.101,0.45-4.226,1.1-6.275c0.325-1.013,0.55-2.063,0.95-3.05c0.399-0.987,0.85-1.938,1.274-2.888    c0.375-0.975,0.9-1.862,1.45-2.725c0.525-0.875,1.025-1.75,1.6-2.55c1.2-1.55,2.3-3.088,3.575-4.325    c0.65-0.625,1.225-1.263,1.85-1.825c0.625-0.525,1.25-1.05,1.85-1.537c1.15-1.013,2.4-1.738,3.4-2.425    c1.075-0.65,2.025-1.163,2.825-1.538C217.147,155.826,218.147,155.576,218.147,155.576z" fill="#FBF7C1"/></g></g><g/><g/><g/><g/><g/><g/></svg>