<?xml version="1.0" ?><!DOCTYPE svg  PUBLIC '-//W3C//DTD SVG 1.1//EN'  'http://www.w3.org/Graphics/SVG/1.1/DTD/svg11.dtd'><svg enable-background="new 0 0 512 512" height="512px" id="Calque_1" version="1.1" viewBox="0 0 512 512" width="512px" xml:space="preserve" xmlns="http://www.w3.org/2000/svg" xmlns:xlink="http://www.w3.org/1999/xlink"><g><path d="M512,256.003c0,141.367-114.599,255.991-255.991,255.991C114.623,511.994,0,397.37,0,256.003   C0,114.617,114.623,0.006,256.009,0.006C397.401,0.006,512,114.617,512,256.003z" fill="#EBEEEF"/><g id="bucket"><path d="M255.896,265.328c-38.649,0-70.124-31.324-70.124-69.849c0-38.5,31.475-69.824,70.124-69.824    c38.706,0,70.155,31.324,70.155,69.824C326.052,234.004,294.603,265.328,255.896,265.328z M255.896,130.979    c-35.699,0-64.774,28.95-64.774,64.5c0,35.575,29.075,64.524,64.774,64.524c35.756,0,64.806-28.949,64.806-64.524    C320.702,159.93,291.652,130.979,255.896,130.979z" fill="#A8BEC6"/><rect fill="#2D4453" height="186.617" width="149.079" x="181.473" y="199.729"/><rect fill="#80929B" height="9.5" width="161.079" x="175.473" y="190.604"/><rect fill="#EE2A7B" height="9.5" width="16" x="175.473" y="190.604"/><rect fill="#18262D" height="186.617" opacity="0.38" width="25.024" x="305.527" y="199.729"/><rect fill="#DA1C5C" height="71.042" width="149.079" x="181.473" y="257.504"/><path d="M181.848,199.204v21.7c3.95,1.225,8.275,1.225,11.6,0.275    c7.025-2,35.6-41.25,26.075,14.425c-9.5,55.643,55.155,31.3,42.624,8.425c-12.55-22.85-3.025-39.749,5-26.324    c8.057,13.399,22.081,13.399,25.581-1.5c1.8-7.55,0.225-15.6-1.775-21.725h-102.93    C185.772,196.104,183.697,197.654,181.848,199.204z" fill="#18262D" opacity="0.15"/><rect fill="#9E1F63" height="71.042" opacity="0.38" width="24.524" x="306.027" y="257.504"/><path d="M181.473,195.429v21.725c3.95,1.2,8.275,1.2,11.6,0.275c7.025-2,35.6-41.25,26.075,14.4    c-9.5,55.643,55.155,31.299,42.624,8.45c-12.55-22.875-3.025-39.749,5-26.324c8.057,13.399,22.081,13.399,25.581-1.5    c1.8-7.55,0.225-15.6-1.775-21.725h-102.93C185.373,192.329,183.322,193.904,181.473,195.429z" fill="#EE2A7B"/><path d="M232.447,225.229c0,0,0.25,2.05,0.25,4.8c-0.025,2.775-0.175,6.325-0.45,9.675    c-0.225,3.35-0.525,6.55-0.225,8.975c0.25,1.125,0.3,2.375,0.7,3.024c0.3,0.75,0.476,1.3,0.476,1.3s-0.476-0.1-1.325-0.5    c-0.8-0.375-2-1.125-2.925-2.45c-0.875-1.325-1.875-3-2.226-4.9c-0.55-1.9-0.5-3.925-0.45-5.9c0.275-3.975,1.775-7.575,3.175-10.1    C230.897,226.629,232.447,225.229,232.447,225.229z" fill="#FFFFFF"/></g></g><g/><g/><g/><g/><g/><g/></svg>