<?xml version="1.0" ?><!DOCTYPE svg  PUBLIC '-//W3C//DTD SVG 1.1//EN'  'http://www.w3.org/Graphics/SVG/1.1/DTD/svg11.dtd'><svg enable-background="new 0 0 512 512" height="512px" id="Calque_1" version="1.1" viewBox="0 0 512 512" width="512px" xml:space="preserve" xmlns="http://www.w3.org/2000/svg" xmlns:xlink="http://www.w3.org/1999/xlink"><g><path d="M512,256c0,141.388-114.612,256-256,256S0,397.388,0,256S114.612,0,256,0S512,114.612,512,256z" fill="#344E5D"/><g id="Anchor"><path clip-rule="evenodd" d="M376.838,326.938l-4.351-7.875    c-8.3-15.225-16.575-30.375-25.075-45.9c-17.175,9.5-33.75,18.7-51.574,28.575c10.625,3.2,19.149,5.775,27.675,8.351    c-7.5,25.649-34.4,48.199-55.075,46.375c0-29.825,0-59.65,0-90.676c7.25,0,13.9,0,20.2,0c0-8.925,0-16.649,0-25.3    c-7.2,0-13.55,0-19.8,0c-2.65-11.8-1.851-19.425,10.8-25.3c19.274-8.95,27.975-33.525,22-53.65    c-5.726-19.275-25.851-35.675-46.725-34.375c-22.125,1.375-39.7,13.45-45.5,34.4c-5.775,20.925,2.375,44.2,21.7,53.475    c13.15,6.275,11.6,14.75,9.725,26.05c-7.5,0-14.6,0-22.125,0c0,8.7,0,16.45,0,25.375c7.925,0,15.275,0,22.525,0    c0,30.975,0,60.725,0,90.574c-23.7-2.625-48.25-23.875-50.725-43.85c7.45-2.375,15-4.775,24.375-7.775    c-18.1-9.925-34.3-18.824-51.45-28.25c-9.35,17.15-18.425,33.801-28.275,51.825c10.65-2.975,19.45-5.45,28.575-8    c1.475,2.825,2.825,5.3,4.075,7.825c17.525,35.45,46.8,54.925,85.55,56.05c33.875,1,61.375-13.274,80.9-40.375    c7.75-9.6,14.425-26.175,14.425-26.175L376.838,326.938z M233.063,174.538c-0.05-12,10.275-22.85,22.15-23.25    c11.2-0.375,23.925,12.4,23.475,23.575c-0.5,12-11.225,22.125-23.375,22.05C242.288,196.837,233.112,187.612,233.063,174.538z" fill="#27AAE1" fill-rule="evenodd"/><rect clip-rule="evenodd" fill="#21A5D3" fill-rule="evenodd" height="25.976" width="69.925" x="218.712" y="240.487"/><path clip-rule="evenodd" d="M255.188,196.913    c-12.95-0.125-22.075-9.35-22.125-22.375c-0.05-12,10.275-22.825,22.125-23.25v-24.125c-0.1,0-0.2-0.025-0.275,0    c-22.125,1.375-39.7,13.45-45.5,34.4c-5.775,20.925,2.375,44.2,21.7,53.475c13.15,6.275,11.6,14.75,9.725,26.05    c-7.5,0-14.6,0-22.125,0c0,8.7,0,16.45,0,25.375c7.925,0,15.275,0,22.525,0c0,30.975,0,60.725,0,90.574    c-23.7-2.625-48.25-23.875-50.725-43.85c7.45-2.375,15-4.775,24.375-7.775c-18.1-9.925-34.3-18.824-51.45-28.25    c-9.35,17.15-18.425,33.801-28.275,51.825c10.65-2.975,19.45-5.45,28.575-8c1.475,2.825,2.825,5.3,4.075,7.825    c17.525,35.45,46.8,54.925,85.55,56.05c0.6,0.025,1.2,0,1.825,0V196.913z" fill="#1C75BC" fill-rule="evenodd" opacity="0.44"/><rect clip-rule="evenodd" fill="#2B3990" fill-rule="evenodd" height="10.476" opacity="0.27" width="27.3" x="241.163" y="266.487"/><path clip-rule="evenodd" d="M323.688,310.938l-0.55,0.35    c-1.101,3.5-2.55,6.926-4.325,10.226l23.825,9.7c3.625-6.875,6.05-12.9,6.05-12.9l-25.175-8.225L323.688,310.938z" fill="#2B3990" fill-rule="evenodd" opacity="0.27"/><path clip-rule="evenodd" d="M194.413,324.987l-23.975,8.8    c-3.625-6.875-6.7-12.8-6.7-12.8l26.65-7.85c0,0,0.4,2.45,1.2,5C192.362,320.688,193.538,323.313,194.413,324.987z" fill="#2B3990" fill-rule="evenodd" opacity="0.27"/></g></g><g/><g/><g/><g/><g/><g/></svg>