<?xml version="1.0" ?><!DOCTYPE svg  PUBLIC '-//W3C//DTD SVG 1.1//EN'  'http://www.w3.org/Graphics/SVG/1.1/DTD/svg11.dtd'><svg enable-background="new 0 0 512 512" height="512px" id="Calque_1" version="1.1" viewBox="0 0 512 512" width="512px" xml:space="preserve" xmlns="http://www.w3.org/2000/svg" xmlns:xlink="http://www.w3.org/1999/xlink"><g><path d="M512,256c0,141.388-114.612,256-256,256S0,397.388,0,256S114.612,0,256,0S512,114.612,512,256z" fill="#E1695C"/><g id="card"><path d="M385.925,324.325c0,6.675-5.412,12.1-12.087,12.1H138.025c-6.675,0-12.1-5.425-12.1-12.1V187.681    c0-6.688,5.425-12.1,12.1-12.1h235.813c6.675,0,12.087,5.413,12.087,12.1V324.325z" fill="#E6E7E8"/><rect fill="#2D4453" height="31.45" width="260" x="126.075" y="197.344"/><rect fill="#FFFFFF" height="17.537" width="146.337" x="142.85" y="245.719"/><rect fill="#A7A9AC" height="65.906" width="3.637" x="373.838" y="248.144"/><rect fill="#D1D3D4" height="5.45" width="116.087" x="199.7" y="184.044"/><rect fill="#D1D3D4" height="10.274" width="197.125" x="142.85" y="272.325"/><rect fill="#D1D3D4" height="6.525" width="167.5" x="142.85" y="289.175"/><rect fill="#D1D3D4" height="6.55" width="148.15" x="142.85" y="301.275"/><rect fill="#D1D3D4" height="6.524" width="40.512" x="294.025" y="301.9"/><path d="M338.775,319.5H173.1c-6.688,0-12.1,5.4-12.1,12.075v4.85h189.85v-4.85    C350.85,324.9,345.438,319.5,338.775,319.5z" fill="#D1D3D4" opacity="0.33"/></g></g><g/><g/><g/><g/><g/><g/></svg>