<?xml version="1.0" ?><!DOCTYPE svg  PUBLIC '-//W3C//DTD SVG 1.1//EN'  'http://www.w3.org/Graphics/SVG/1.1/DTD/svg11.dtd'><svg enable-background="new 0 0 512 512" height="512px" id="Calque_1" version="1.1" viewBox="0 0 512 512" width="512px" xml:space="preserve" xmlns="http://www.w3.org/2000/svg" xmlns:xlink="http://www.w3.org/1999/xlink"><g><path d="M512,256c0,141.388-114.6,256-256.006,256C114.612,512,0,397.388,0,256S114.612,0,255.994,0   C397.4,0,512,114.612,512,256z" fill="#D6D9B8"/><g id="burn"><path clip-rule="evenodd" d="M388.8,256c0,73.35-59.45,132.8-132.806,132.8    C182.656,388.8,123.2,329.35,123.2,256c0-73.337,59.456-132.8,132.793-132.8C329.35,123.2,388.8,182.663,388.8,256z" fill="#EFC84A" fill-rule="evenodd"/><g><defs><path d="M388.8,256c0,73.35-59.45,132.8-132.806,132.8C182.656,388.8,123.2,329.35,123.2,256      c0-73.337,59.456-132.8,132.793-132.8C329.35,123.2,388.8,182.663,388.8,256z" id="SVGID_1_"/></defs><clipPath id="SVGID_2_"><use overflow="visible" xlink:href="#SVGID_1_"/></clipPath><g clip-path="url(#SVGID_2_)"><polygon clip-rule="evenodd" fill="#414042" fill-rule="evenodd" points="172.163,401.45 340.275,401.45 256.219,255.862           "/><polygon clip-rule="evenodd" fill="#414042" fill-rule="evenodd" points="340.775,110.55 256.219,255.862 424.35,256.425           "/><polygon clip-rule="evenodd" fill="#414042" fill-rule="evenodd" points="171.231,110.55 87.65,256.425 255.769,255.862     "/></g></g><path clip-rule="evenodd" d="M256.531,388.775C329.625,388.487,388.8,329.175,388.8,256    c0-67.913-51-123.825-116.8-131.737c25.325,12.625,102.175,57.837,99.05,141.237C368.375,337.075,296.775,373.763,256.531,388.775    z" fill-rule="evenodd" opacity="0.33"/><path d="M213.719,163.638c0,0-0.95,0.75-2.625,2.063c-1.7,1.162-3.875,3.15-6.575,5.325    c-2.787,2.025-5.587,4.938-8.9,7.488c-1.5,1.462-3.043,2.962-4.612,4.5c-1.55,1.537-3.388,2.85-4.644,4.675    c-2.712,3.425-6.225,6.325-8.25,9.913c-2.087,3.512-5.168,6.337-6.425,9.462c-3.144,5.962-5.969,10.175-5.969,10.175    s0.038-4.688,1.194-12.087c0.281-3.825,2.688-7.475,4.525-11.762c0.994-2.113,2.056-4.3,3.744-6.088l4.65-5.737    c1.538-1.975,3.606-3.362,5.4-4.987c1.85-1.563,3.737-3.025,5.619-4.325c3.994-2.275,7.594-4.55,11.119-5.663    C208.769,163.888,213.719,163.638,213.719,163.638z" fill="#FFFFFF" opacity="0.65"/></g></g><g/><g/><g/><g/><g/><g/></svg>