<?xml version="1.0" ?><!DOCTYPE svg  PUBLIC '-//W3C//DTD SVG 1.1//EN'  'http://www.w3.org/Graphics/SVG/1.1/DTD/svg11.dtd'><svg enable-background="new 0 0 512 512" height="512px" id="Calque_1" version="1.1" viewBox="0 0 512 512" width="512px" xml:space="preserve" xmlns="http://www.w3.org/2000/svg" xmlns:xlink="http://www.w3.org/1999/xlink"><g><path d="M512,256c0,141.386-114.599,255.997-255.991,255.997C114.623,511.997,0,397.386,0,256   S114.623,0.003,256.009,0.003C397.401,0.003,512,114.614,512,256z" fill="#43B39C"/><g id="brush_1_"><path clip-rule="evenodd" d="M262.459,320.824c0,0,27.969-46-6.712-193.673l-6.15,0.113    c0,0-26.937,136.46,0.575,193.222L262.459,320.824z" fill="#996026" fill-rule="evenodd"/><path clip-rule="evenodd" d="M262.459,320.824c0,0,12.519,12.638,8.094,31.975    c-4.406,19.35,3.625,32.05,3.625,32.05s-59.081-26.337-24.006-64.362L262.459,320.824z" fill="#FBF7C1" fill-rule="evenodd"/><path clip-rule="evenodd" d="M273.027,262.3c-5.855,2.175-18.131,4.7-34.905-2.438    c1.025,23.25,4.462,44.975,12.05,60.624l12.287,0.338C262.459,320.824,272.053,305.049,273.027,262.3z" fill="#F1943F" fill-rule="evenodd"/><path clip-rule="evenodd" d="M255.747,127.151l-4.275,0.075    c2.85,16.938,22.156,136.448,6.825,193.46c-0.025,0.013-0.025,0.013-0.013,0.025l4.175,0.112    C262.459,320.824,290.428,274.824,255.747,127.151z" fill="#4B3014" fill-rule="evenodd" opacity="0.24"/><path clip-rule="evenodd" d="M274.178,384.849c0,0-6.756-10.7-4.45-27.412    c-1.868,1.774-5.368,2.875-11.269-2.825c-6.063-5.862-11.612-0.162-14.95,5.013C252.972,375.398,274.178,384.849,274.178,384.849z    " fill="#EE3533" fill-rule="evenodd"/><path d="M250.997,286.475c0,0-0.075-0.175-0.188-0.513c-0.113-0.325-0.288-0.813-0.488-1.425    c-0.375-1.237-0.887-3.013-1.4-5.162c-0.525-2.138-1.025-4.663-1.475-7.375c-0.113-0.676-0.212-1.363-0.313-2.063    c-0.1-0.7-0.2-1.412-0.288-2.125c-0.188-1.425-0.325-2.888-0.475-4.35c-0.113-1.463-0.226-2.926-0.3-4.375    c-0.075-1.438-0.1-2.863-0.1-4.238c-0.013-2.762,0.125-5.363,0.375-7.575c0.125-1.113,0.275-2.125,0.45-3.013    c0.175-0.9,0.375-1.675,0.55-2.313c0.2-0.625,0.375-1.112,0.525-1.425c0.137-0.338,0.225-0.5,0.225-0.5s0,0.188,0,0.537    c-0.025,0.338,0.025,0.85,0.05,1.487c0.05,0.638,0.101,1.4,0.175,2.275c0.075,0.888,0.188,1.875,0.313,2.962    c0.238,2.15,0.525,4.675,0.825,7.362c0.088,0.675,0.163,1.363,0.213,2.05c0.1,0.7,0.162,1.399,0.225,2.112    c0.15,1.412,0.275,2.875,0.413,4.3c0.112,1.45,0.237,2.9,0.337,4.325c0.113,1.425,0.2,2.838,0.275,4.188    c0.15,2.725,0.237,5.274,0.25,7.475c0.025,2.188,0,4.037-0.05,5.325c-0.025,0.649-0.075,1.175-0.101,1.5    C251.009,286.287,250.997,286.475,250.997,286.475z" fill="#FFFFFF" opacity="0.38"/></g></g><g/><g/><g/><g/><g/><g/></svg>