<?xml version="1.0" ?><!DOCTYPE svg  PUBLIC '-//W3C//DTD SVG 1.1//EN'  'http://www.w3.org/Graphics/SVG/1.1/DTD/svg11.dtd'><svg enable-background="new 0 0 512 512" height="512px" id="Calque_1" version="1.1" viewBox="0 0 512 512" width="512px" xml:space="preserve" xmlns="http://www.w3.org/2000/svg" xmlns:xlink="http://www.w3.org/1999/xlink"><g><path d="M512,256c0,141.388-114.625,256-255.994,256C114.606,512,0,397.388,0,256S114.606,0,256.006,0   C397.375,0,512,114.612,512,256z" fill="#D6D9B8"/><g id="mute"><path d="M281.175,257.619c0,18.206-14.769,32.98-32.994,32.98c-18.212,0-32.975-14.774-32.975-32.98    c0-18.226,14.763-32.988,32.975-32.988C266.406,224.631,281.175,239.394,281.175,257.619z" fill="#18262D"/><path d="M248.181,224.631c-4.575,0-8.925,0.925-12.875,2.612    c-10.7,12.888-14.775,27.35,0.763,22.55c27.95-8.638,40.106,2.188,45.006,9.837c0.024-0.662,0.1-1.337,0.1-2.012    C281.175,239.394,266.406,224.631,248.181,224.631z" fill="#2D4453" opacity="0.65"/><polygon fill="#80929B" points="172.431,316.45 259.794,383.675 259.794,128.319 172.431,195.556   "/><rect fill="#2D4453" height="121.207" width="40.225" x="113.781" y="195.569"/><rect fill="#A8BEC6" height="121.207" width="18.938" x="153.494" y="195.569"/><polygon fill="#FFFFFF" opacity="0.3" points="259.906,178.681 172.681,221.606 113.781,221.731 113.781,195.231 172.431,195.231     259.794,128.319   "/><path d="M396.575,210.306c-1.075,0.138-2.675,0.3-4.625,0.75c-1.976,0.363-4.325,0.975-7.05,1.775    c-2.625,0.913-5.75,1.738-8.9,3.175c-1.575,0.7-3.25,1.413-4.95,2.163c-1.675,0.862-3.375,1.775-5.149,2.7    c-3.601,1.788-7,4.288-10.676,6.675c-0.55,0.387-1.074,0.85-1.625,1.262c-0.6-0.712-1.199-1.45-1.875-2.112    c-1.649-1.688-3.35-3.288-4.975-4.913c-1.6-1.675-3.4-3.112-5.175-4.513c-1.775-1.412-3.476-2.837-5.25-4.137    c-3.675-2.375-7.101-4.863-10.675-6.663c-1.775-0.938-3.5-1.825-5.15-2.7c-1.725-0.75-3.375-1.475-4.975-2.175    c-3.15-1.425-6.25-2.263-8.875-3.175c-2.726-0.775-5.075-1.4-7.075-1.763c-1.95-0.438-3.55-0.612-4.601-0.763    c-1.074-0.137-1.649-0.137-1.649-0.137s0.475,0.313,1.375,0.925c0.875,0.587,2.149,1.475,3.774,2.6    c1.65,1.063,3.525,2.587,5.75,4.05c2.125,1.688,4.625,3.375,7.176,5.463c1.274,1,2.625,2.037,4.024,3.125    c1.351,1.125,2.726,2.287,4.15,3.475c2.95,2.238,5.649,5.075,8.7,7.613c2.774,2.887,5.899,5.563,8.649,8.675    c1.95,2.138,3.925,4.3,5.825,6.538c-0.975,0.95-1.975,1.888-2.925,2.875c-1.675,1.65-3.05,3.587-4.601,5.375    c-1.449,1.862-3,3.638-4.324,5.587c-1.325,1.975-2.525,3.988-3.75,5.95c-2.65,3.825-4.325,8.163-6.176,12.169    c-2,3.925-2.875,8.2-4.05,12.025c-0.475,1.95-1.175,3.774-1.425,5.675c-0.25,1.85-0.5,3.675-0.725,5.4    c-0.375,3.475-0.9,6.6-0.775,9.425c0.025,2.85,0.2,5.3,0.325,7.3c0.25,4,0.575,6.25,0.575,6.25s0.949-2.175,2.25-5.875    c0.649-1.875,1.475-4.1,2.25-6.65c0.35-1.3,0.975-2.6,1.6-3.975c0.575-1.375,1.2-2.825,1.825-4.325    c1.225-3.024,2.425-6.3,4.25-9.5c1.774-3.25,3.1-6.825,5.35-10.149c2.101-3.351,3.925-6.976,6.476-10.244    c1.175-1.7,2.399-3.362,3.55-5.112c1.2-1.7,2.625-3.25,3.925-4.888c1.575-2.138,3.35-4.1,5.125-6.063    c0.375,0.55,0.75,1.112,1.15,1.65c2.524,3.288,4.35,6.925,6.449,10.275c2.25,3.3,3.601,6.888,5.351,10.132    c1.825,3.199,3.05,6.475,4.25,9.5c0.649,1.5,1.274,2.949,1.85,4.324c0.625,1.375,1.25,2.676,1.575,3.976    c0.775,2.55,1.6,4.774,2.25,6.649c1.325,3.7,2.275,5.875,2.275,5.875s0.324-2.25,0.574-6.25c0.101-2,0.301-4.475,0.325-7.3    c0.125-2.825-0.425-5.95-0.774-9.425c-0.25-1.725-0.476-3.55-0.75-5.425c-0.226-1.875-0.926-3.7-1.4-5.656    c-1.2-3.825-2.075-8.088-4.05-12.025c-1.851-4-3.525-8.325-6.175-12.162c-0.95-1.5-1.9-3.025-2.851-4.525    c0.55-0.55,1.15-1.1,1.7-1.675c3.05-2.55,5.775-5.375,8.7-7.612c1.425-1.2,2.825-2.363,4.175-3.488    c1.375-1.075,2.725-2.112,4.025-3.112c2.55-2.087,5.024-3.775,7.149-5.462c2.25-1.463,4.125-2.988,5.775-4.05    c1.625-1.125,2.899-2,3.774-2.6c0.9-0.612,1.375-0.925,1.375-0.925S397.65,210.156,396.575,210.306z" fill="#E1413E"/></g></g><g/><g/><g/><g/><g/><g/></svg>