<?xml version="1.0" ?><!DOCTYPE svg  PUBLIC '-//W3C//DTD SVG 1.1//EN'  'http://www.w3.org/Graphics/SVG/1.1/DTD/svg11.dtd'><svg enable-background="new 0 0 512 512" height="512px" id="Calque_1" version="1.1" viewBox="0 0 512 512" width="512px" xml:space="preserve" xmlns="http://www.w3.org/2000/svg" xmlns:xlink="http://www.w3.org/1999/xlink"><g><path d="M512,256c0,141.386-114.599,255.997-255.991,255.997C114.623,511.997,0,397.386,0,256   S114.623,0.003,256.009,0.003C397.401,0.003,512,114.614,512,256z" fill="#344E5D"/><g id="user_8_"><path d="M229.747,257.838c0,0-0.625,29.437-14.4,40.699c0,0,43.825,33.175,85.78,0.638    c0,0-16.274-8.775-19.399-37.575C278.578,232.788,229.747,257.838,229.747,257.838z" fill="#E6B984"/><path d="M282.027,264.088l-12.774-15.976c-13.269-2.25-32.881,6.538-38.156,9.063    c-0.475,0.362-0.925,0.737-1.375,1.125c-0.05,1.525-0.35,6.938-1.575,13.5c7.913,4.475,27,13.274,32.012,11.712    c5.087-1.587,16.844-8.5,23.368-11.712C282.928,269.425,282.402,266.85,282.027,264.088z" fill="#D8A97C"/><path d="M384.852,386.611c-3.025-16.463-17.275-60.662-84.499-87.762c0,0-15.05,11.787-45.406,9.712    c-11.7-0.825-21.15-3.575-39.6-10.024c0,0-79.599,32.649-88.174,88.074H384.852z" fill="#E9484B"/><path d="M237.885,131.376c0,0-68.875,8.137-29.425,91.399c0,0,13.774,44.462,45.699,56.361    c0,0,4.388,2.5,10.649-0.637c6.27-3.138,36.894-27.962,39.394-51.125c0,0,27.6-26.512,17.575-65.336    C311.777,123.227,245.396,119.477,237.885,131.376z" fill="#F0D2B1"/><path d="M206.46,213.388c0.637,1.45,1.287,2.9,2,4.388c0,0,0.037,0.112,0.087,0.263    c5.225-11.525,21.025-43.925,36.375-51.612c0,0,19.425,16.288,33.181,21.288c13.774,5.012,25.925,17.538,25.3,41.012    c0.375-17.075,0.375-62.925,0.375-62.925S203.947,73.777,206.46,213.388z" fill="#E5B680" opacity="0.72"/><path d="M248.047,162.039c0,0,87.205-37.362,1.125-35.875c-5.612,0.95-9.725,2.737-11.287,5.212    c0,0-68.875,8.137-29.425,91.399C206.422,183.963,248.047,162.039,248.047,162.039z" fill="#453129"/><path d="M321.777,162.039c-10-38.812-76.381-42.562-83.893-30.662c0,0,1.412,41.325,37.093,50.087    c35.7,8.762,27.399,54.462,27.399,54.462S331.802,200.863,321.777,162.039z" fill="#533A2D"/><path d="M221.135,150.164c0,0-1.2,1.399-3,3.537c-0.862,1.075-1.913,2.275-2.938,3.612    c-0.55,0.65-1.05,1.375-1.588,2.088c-0.563,0.688-1.037,1.45-1.563,2.175c-0.5,0.725-0.975,1.487-1.45,2.212    c-0.413,0.775-0.925,1.488-1.288,2.238c-0.337,0.762-0.787,1.438-1.063,2.149c-0.275,0.713-0.612,1.375-0.85,1.988    c-0.2,0.65-0.4,1.25-0.588,1.762c-0.188,0.525-0.25,1-0.362,1.4c-0.2,0.787-0.337,1.25-0.337,1.25s-0.087-0.463-0.163-1.288    c-0.025-0.425-0.125-0.938-0.087-1.5c0.038-0.575,0.075-1.238,0.15-1.962c0.087-0.713,0.288-1.475,0.475-2.275    c0.188-0.825,0.512-1.612,0.825-2.462c0.338-0.838,0.763-1.663,1.175-2.513c0.475-0.825,0.975-1.638,1.487-2.413    c0.575-0.762,1.1-1.575,1.725-2.275c0.6-0.712,1.225-1.388,1.837-2.013c0.6-0.662,1.262-1.237,1.85-1.774    c0.587-0.563,1.212-1,1.763-1.45C219.397,150.938,221.135,150.164,221.135,150.164z" fill="#FBF7C1" opacity="0.65"/><path d="M263.084,308.861c0,0,11.443,10.338,10.719,17.851c0,0,38.975-15.65,39.675-21.913    c0,0-8.7-12.736-20.125-12.412L263.084,308.861z" fill="#F5959B"/><path d="M252.909,308.262c0,0-4.037,2.9-7.6,8c-2.2,3.138-4.013,7.475-5.6,11l-38.112-22.313    c0,0,4.25-4.287,9.112-7.688c3.587-2.5,7.587-4.137,10-5.199L252.909,308.262z" fill="#F5959B"/></g></g><g/><g/><g/><g/><g/><g/></svg>