<?xml version="1.0" ?><!DOCTYPE svg  PUBLIC '-//W3C//DTD SVG 1.1//EN'  'http://www.w3.org/Graphics/SVG/1.1/DTD/svg11.dtd'><svg enable-background="new 0 0 512 512" height="512px" id="Calque_1" version="1.1" viewBox="0 0 512 512" width="512px" xml:space="preserve" xmlns="http://www.w3.org/2000/svg" xmlns:xlink="http://www.w3.org/1999/xlink"><g><path d="M512,256c0,141.386-114.599,255.997-255.991,255.997C114.623,511.997,0,397.386,0,256   S114.623,0.003,256.009,0.003C397.401,0.003,512,114.614,512,256z" fill="#CFD5D6"/><g id="user_5_"><path d="M229.734,257.831c0,0-0.625,29.443-14.399,40.693c0,0,43.824,33.175,85.768,0.625    c0,0-16.274-8.75-19.399-37.556C278.578,232.781,229.734,257.831,229.734,257.831z" fill="#E6B984"/><path d="M282.003,264.081l-12.775-15.975c-13.243-2.25-32.868,6.537-38.143,9.075    c-0.475,0.35-0.925,0.712-1.375,1.087c-0.05,1.55-0.325,6.963-1.575,13.531c7.925,4.475,27,13.274,32.024,11.7    c5.075-1.575,16.844-8.5,23.368-11.7C282.928,269.425,282.402,266.856,282.003,264.081z" fill="#D8A97C"/><path d="M384.826,386.599c-3.024-16.45-17.25-60.649-84.499-87.749c0,0-15.024,11.774-45.393,9.699    c-11.7-0.8-21.125-3.574-39.599-10.024c0,0-79.6,32.649-88.174,88.074H384.826z" fill="#009444"/><path d="M237.885,131.37c0,0-68.875,8.125-29.425,91.399c0,0,13.774,44.462,45.699,56.356    c0,0,4.375,2.524,10.649-0.625c6.244-3.125,36.869-27.969,39.394-51.131c0,0,27.575-26.512,17.575-65.324    C311.752,123.233,245.384,119.483,237.885,131.37z" fill="#F0D2B1"/><path d="M206.46,213.382c0.625,1.45,1.275,2.9,2,4.388c0,0,0.025,0.1,0.075,0.262    c5.25-11.525,21.025-43.937,36.375-51.612c0,0,19.425,16.262,33.193,21.3c13.774,5,25.899,17.524,25.274,40.999    c0.375-17.074,0.4-62.924,0.4-62.924S203.935,73.783,206.46,213.382z" fill="#E5B680" opacity="0.72"/><path d="M248.06,162.045c0,0,87.192-37.375,1.1-35.887c-5.6,0.938-9.725,2.725-11.274,5.212    c0,0-68.875,8.125-29.425,91.399C206.41,183.957,248.06,162.045,248.06,162.045z" fill="#453129"/><path d="M321.777,162.045c-10.025-38.812-76.393-42.562-83.893-30.675c0,0,1.399,41.313,37.093,50.087    c35.675,8.763,27.375,54.462,27.375,54.462S331.777,200.857,321.777,162.045z" fill="#533A2D"/><path d="M221.135,150.145c0,0-1.2,1.413-3,3.55c-0.875,1.063-1.9,2.274-2.95,3.6    c-0.55,0.675-1.05,1.388-1.575,2.087c-0.55,0.688-1.024,1.45-1.575,2.188c-0.5,0.725-0.975,1.488-1.45,2.212    c-0.4,0.763-0.925,1.487-1.275,2.237c-0.35,0.75-0.8,1.438-1.075,2.15c-0.275,0.7-0.625,1.362-0.85,1.987    c-0.175,0.65-0.4,1.237-0.575,1.763c-0.2,0.525-0.25,0.987-0.375,1.388c-0.2,0.787-0.325,1.25-0.325,1.25    s-0.075-0.462-0.175-1.275c-0.024-0.412-0.125-0.938-0.075-1.5c0.025-0.587,0.05-1.237,0.15-1.962    c0.075-0.725,0.275-1.475,0.45-2.288c0.2-0.813,0.525-1.6,0.85-2.45c0.325-0.837,0.75-1.662,1.175-2.512    c0.475-0.813,0.975-1.637,1.5-2.413c0.575-0.775,1.075-1.575,1.7-2.274c0.6-0.738,1.225-1.4,1.85-2.025    c0.6-0.662,1.25-1.225,1.85-1.775c0.6-0.538,1.2-0.988,1.775-1.438C219.41,150.945,221.135,150.145,221.135,150.145z" fill="#FBF7C1" opacity="0.65"/><path d="M263.084,308.85c0,0,11.419,10.35,10.719,17.85c0,0,38.949-15.65,39.675-21.9c0,0-8.7-12.749-20.15-12.424    L263.084,308.85z" fill="#8DC63F"/><path d="M253.034,308.249c0,0-4.025,2.9-7.6,8c-2.2,3.15-4.025,7.476-5.6,11l-38.1-22.3c0,0,4.238-4.3,9.1-7.699    c3.575-2.5,7.587-4.125,10-5.2L253.034,308.249z" fill="#8DC63F"/></g></g><g/><g/><g/><g/><g/><g/></svg>