<?xml version="1.0" ?><!DOCTYPE svg  PUBLIC '-//W3C//DTD SVG 1.1//EN'  'http://www.w3.org/Graphics/SVG/1.1/DTD/svg11.dtd'><svg enable-background="new 0 0 512 512" height="512px" id="Calque_1" version="1.1" viewBox="0 0 512 512" width="512px" xml:space="preserve" xmlns="http://www.w3.org/2000/svg" xmlns:xlink="http://www.w3.org/1999/xlink"><g><path d="M511.975,256.025C511.975,397.387,397.387,512,256,512C114.626,512,0.025,397.387,0.025,256.025   C0.025,114.639,114.626,0,256,0C397.387,0,511.975,114.639,511.975,256.025z" fill="#E1695C"/><g id="award"><path d="M306.47,203.23v-66.019c0-5.375-3.837-9.749-8.549-9.749h-83.592c-4.699,0-8.512,4.374-8.512,9.749v66.019    h-0.063v49.745l51.183,55.845l49.558-55.845V203.23H306.47z" fill="#BF2735"/><path d="M306.345,137.212c0-5.375-3.812-9.749-8.524-9.749h-9.311v145.636l17.885-20.123V203.23h-0.05V137.212z" fill="#9C1C29"/><path d="M205.73,137.212c0-5.375,3.812-9.749,8.524-9.749h9.287l0.037,144.811l-17.911-19.298V203.23h0.063    V137.212z" fill="#9C1C29"/><rect fill="#9C1C29" height="167.408" width="27.185" x="242.526" y="127.888"/><polygon fill="#821525" opacity="0.55" points="256.938,308.82 280.072,282.747 255.95,253.8 233.277,282.997   "/><g id="star_1_"><polygon fill="#F9ED32" points="256.362,253.4 274.598,296.621 316.02,303.92 285.785,337.143 292.534,384.537 255.6,361.865      218.354,383.862 225.766,336.592 195.993,302.795 237.515,296.296    "/><polygon fill="#FBB040" points="256.362,253.4 255.9,318.794 237.515,296.296    "/><polygon fill="#FBB040" points="255.9,318.794 195.993,302.795 225.778,336.917    "/><polygon fill="#FBB040" points="255.9,318.794 218.354,383.862 255.6,361.865    "/><polygon fill="#FBB040" points="255.9,318.794 292.534,384.537 285.984,336.967    "/><polygon fill="#FBB040" points="255.9,318.794 316.02,303.92 274.473,296.371    "/></g></g></g><g/><g/><g/><g/><g/><g/></svg>