<?xml version="1.0" ?><!DOCTYPE svg  PUBLIC '-//W3C//DTD SVG 1.1//EN'  'http://www.w3.org/Graphics/SVG/1.1/DTD/svg11.dtd'><svg enable-background="new 0 0 512 512" height="512px" id="Calque_1" version="1.1" viewBox="0 0 512 512" width="512px" xml:space="preserve" xmlns="http://www.w3.org/2000/svg" xmlns:xlink="http://www.w3.org/1999/xlink"><g><path d="M511.975,256.025C511.975,397.387,397.387,512,255.994,512C114.626,512,0.025,397.387,0.025,256.025   C0.025,114.639,114.626,0,255.994,0C397.387,0,511.975,114.639,511.975,256.025z" fill="#EFC84A"/><g id="heart"><path clip-rule="evenodd" d="M256.144,181.282c5.25-8.437,11.799-15.386,19.779-20.936    c40.671-28.359,97.866-5.037,106.765,43.746c4.524,24.835-3.024,46.021-21.197,63.394c-32.247,30.847-64.645,61.52-96.772,92.491    c-5.874,5.662-12.199,4.874-17.298-0.075c-26.473-25.672-53.295-50.995-79.942-76.468c-7.25-6.924-14.898-13.511-21.498-20.998    c-17.354-19.698-22.354-42.621-13.967-67.443c8.468-25.097,26.416-40.896,52.588-45.47c29.622-5.187,53.245,5.524,70.468,30.197    C255.369,180.145,255.644,180.558,256.144,181.282z" fill="#EE3533" fill-rule="evenodd"/><path d="M188.75,175.271c0,0-0.75,0.65-2.1,1.774c-0.65,0.55-1.425,1.225-2.325,1.987    c-0.875,0.763-1.875,1.638-2.95,2.563c-1.025,1-2.2,1.95-3.325,3.087c-0.575,0.55-1.175,1.113-1.775,1.688    c-0.575,0.588-1.149,1.2-1.75,1.8c-1.25,1.175-2.299,2.587-3.499,3.862c-1.075,1.388-2.25,2.737-3.2,4.2    c-0.95,1.475-2.05,2.887-2.774,4.424c-0.4,0.763-0.8,1.513-1.225,2.237c-0.325,0.775-0.65,1.55-0.975,2.3    c-0.3,0.775-0.649,1.5-0.95,2.25c-0.225,0.775-0.425,1.524-0.65,2.25c-0.225,0.75-0.475,1.462-0.7,2.162    c-0.125,0.712-0.25,1.412-0.375,2.087c-0.225,1.35-0.625,2.625-0.75,3.775c-0.075,1.137-0.2,2.15-0.3,3    c-0.2,1.7-0.399,2.737-0.399,2.737s-0.45-0.888-1.075-2.524c-0.325-0.825-0.725-1.838-1.1-3.025    c-0.35-1.188-0.5-2.587-0.725-4.125c-0.1-0.763-0.2-1.587-0.275-2.425c0.05-0.838,0.075-1.712,0.125-2.6    c0.075-0.9,0.125-1.838,0.2-2.775c0.125-0.938,0.425-1.862,0.65-2.837c0.225-0.962,0.5-1.95,0.8-2.925    c0.375-0.938,0.8-1.887,1.225-2.837c0.75-1.962,2-3.662,3.125-5.462c1.2-1.725,2.6-3.275,3.975-4.8    c1.475-1.375,2.9-2.825,4.475-3.912c0.775-0.563,1.525-1.137,2.275-1.662c0.8-0.475,1.55-0.938,2.3-1.388    c1.5-0.938,3.025-1.563,4.375-2.225c2.8-1.15,5.199-1.887,6.949-2.225C187.75,175.32,188.75,175.271,188.75,175.271z" fill="#FFFFFF" opacity="0.44"/></g></g><g/><g/><g/><g/><g/><g/></svg>