<?xml version="1.0" ?><!DOCTYPE svg  PUBLIC '-//W3C//DTD SVG 1.1//EN'  'http://www.w3.org/Graphics/SVG/1.1/DTD/svg11.dtd'><svg enable-background="new 0 0 512 512" height="512px" id="Calque_1" version="1.1" viewBox="0 0 512 512" width="512px" xml:space="preserve" xmlns="http://www.w3.org/2000/svg" xmlns:xlink="http://www.w3.org/1999/xlink"><g><path d="M511.98,256.02C511.98,397.393,397.393,512,255.995,512C114.623,512,0.02,397.393,0.02,256.02   C0.02,114.642,114.623,0,255.995,0C397.393,0,511.98,114.642,511.98,256.02z" fill="#43B39C"/><g id="disc"><path d="M372.765,372.765c0,8.079-6.52,14.599-14.598,14.599H153.828c-8.073,0-14.598-6.52-14.598-14.599V139.23    c0-8.054,6.524-14.603,14.598-14.603h204.339c8.078,0,14.598,6.549,14.598,14.603V372.765z" fill="#3F5A68"/><path d="M175.74,124.627v94.868c0,8.049,6.524,14.598,14.598,14.598h131.329c8.078,0,14.598-6.549,14.598-14.598    v-94.868H175.74z" fill="#2D4453"/><path d="M321.667,267.765H190.338c-8.073,0-14.598,6.529-14.598,14.608v104.99h160.524v-104.99    C336.265,274.294,329.745,267.765,321.667,267.765z" fill="#E6E7E8"/><path d="M257.932,124.627v90.48c0,3.225,2.622,5.838,5.848,5.838h52.544c3.226,0,5.823-2.613,5.823-5.838v-90.48    H257.932z" fill="#D1D3D4"/><path d="M292.971,191.76c0,3.24,2.627,5.838,5.853,5.838h4.373c3.226,0,5.823-2.598,5.823-5.838v-35.02    c0-3.211-2.598-5.838-5.823-5.838h-4.373c-3.226,0-5.853,2.627-5.853,5.838V191.76z" fill="#2D4453"/><path d="M321.667,267.765H190.338c-8.073,0-14.598,6.529-14.598,14.608v17.401h160.524v-17.401    C336.265,274.294,329.745,267.765,321.667,267.765z" fill="#FFFFFF" opacity="0.44"/></g></g><g/><g/><g/><g/><g/><g/></svg>