<?xml version="1.0" ?><!DOCTYPE svg  PUBLIC '-//W3C//DTD SVG 1.1//EN'  'http://www.w3.org/Graphics/SVG/1.1/DTD/svg11.dtd'><svg enable-background="new 0 0 512 512" height="512px" id="Calque_1" version="1.1" viewBox="0 0 512 512" width="512px" xml:space="preserve" xmlns="http://www.w3.org/2000/svg" xmlns:xlink="http://www.w3.org/1999/xlink"><g><path d="M512,256c0,141.386-114.599,255.997-255.991,255.997C114.623,511.997,0,397.386,0,256   S114.623,0.003,256.009,0.003C397.401,0.003,512,114.614,512,256z" fill="#43B39C"/><g id="desk"><path d="M297.353,141.177c0,5.512,4.2,9.975,9.399,9.975c5.176,0,9.375-4.463,9.375-9.975    c0-5.5-4.199-9.963-9.375-9.963C301.553,131.214,297.353,135.677,297.353,141.177z" fill="#C76028"/><rect fill="#D1D3D4" height="99.135" transform="matrix(0.7071 0.7071 -0.7071 0.7071 326.0815 -138.2323)" width="21.708" x="319.048" y="274.931"/><rect fill="#D1D3D4" height="99.135" transform="matrix(0.7071 -0.7071 0.7071 0.7071 -74.7238 304.2512)" width="21.708" x="319.048" y="192.758"/><path d="M334.202,261.975l23.074,23.075l15.351-15.35l-18.2-18.213    C346.227,251.875,338.952,255.9,334.202,261.975z" fill="#A7A9AC" opacity="0.5"/><path d="M208.197,384.036h153.104C361.302,384.036,290.303,306.024,208.197,384.036z" fill="#E1C682"/><path d="M273.078,229.3c-15.119,15.125-39.631,15.125-54.743,0l0,0c-15.125-15.112-15.125-39.625,0-54.75    l35.249-35.262c15.125-15.112,39.644-15.112,54.743,0l0,0c15.125,15.125,15.125,39.637,0,54.762L273.078,229.3z" fill="#E27D3C"/><path d="M308.327,139.289c-0.475-0.487-1-0.963-1.5-1.425c-5.425,13.274-22.8,45.299-74.593,86.023    c-4.037,3.188-7.375,6.1-10.075,8.763c15.175,11.662,37.012,10.55,50.918-3.35l35.249-35.25    C323.452,178.926,323.452,154.414,308.327,139.289z" fill="#CD652B" opacity="0.4"/><path d="M357.276,281.774l-24.074,24.087c4.3,6.275,11.125,10.65,19.024,11.663l20.4-20.399    L357.276,281.774z" fill="#A7A9AC" opacity="0.5"/><path d="M247.547,287.699c-16.95,18.975-49.875,17.2-73.549-3.949c-23.674-21.15-29.137-53.662-12.2-72.637    c16.938-18.962,49.874-17.2,73.549,3.95S264.484,268.737,247.547,287.699z" fill="#D1D3D4"/><path d="M185.897,245.013c-12.899-15.638-22.212-23.837-28.887-27.125c-10.713,19.263-4.075,47.063,16.987,65.862    c1.188,1.063,2.413,2.063,3.638,3.037C173.26,262.037,185.897,245.013,185.897,245.013z" fill="#E6E7E8"/><path d="M123.136,198.663l139.023,123.773c0,0,48.693-66.287-7.038-117.898    C199.397,152.914,161.26,167.576,123.136,198.663z" fill="#E1C682"/><path d="M149.398,204.088c0,0,0.188-0.175,0.563-0.487c0.35-0.3,0.837-0.712,1.475-1.225    c1.263-1.013,3.075-2.4,5.325-3.95c1.125-0.775,2.35-1.588,3.675-2.413c1.313-0.825,2.725-1.663,4.2-2.487    c1.488-0.813,3.025-1.638,4.637-2.4c1.588-0.775,3.25-1.487,4.913-2.163c0.837-0.325,1.688-0.637,2.525-0.95    c0.85-0.275,1.688-0.588,2.538-0.838s1.688-0.513,2.525-0.712c0.85-0.212,1.675-0.425,2.487-0.587    c0.425-0.088,0.825-0.175,1.226-0.25c0.412-0.075,0.813-0.138,1.212-0.2c0.388-0.063,0.788-0.125,1.175-0.188    c0.387-0.05,0.775-0.087,1.163-0.125c0.375-0.05,0.75-0.1,1.112-0.138c0.375-0.012,0.737-0.037,1.1-0.063    c0.712-0.037,1.4-0.087,2.063-0.075s1.3-0.012,1.9,0.012c0.6,0.038,1.162,0.075,1.7,0.101c1.063,0.087,1.987,0.237,2.737,0.313    c1.487,0.287,2.35,0.45,2.35,0.45s-0.875,0.025-2.375,0.063c-0.75,0.075-1.649,0.113-2.688,0.262    c-0.512,0.075-1.05,0.163-1.625,0.25c-0.563,0.088-1.162,0.238-1.787,0.375c-0.612,0.113-1.25,0.3-1.913,0.488    c-0.325,0.087-0.65,0.175-0.987,0.275c-0.337,0.112-0.675,0.225-1.012,0.338c-0.338,0.112-0.688,0.237-1.038,0.35    c-0.337,0.138-0.688,0.275-1.037,0.4c-0.35,0.149-0.713,0.287-1.075,0.425c-0.337,0.162-0.7,0.313-1.05,0.475    c-0.725,0.3-1.425,0.663-2.15,1.025c-0.725,0.337-1.438,0.75-2.149,1.137c-0.713,0.388-1.413,0.825-2.125,1.238    c-0.7,0.45-1.388,0.9-2.088,1.35c-1.362,0.938-2.712,1.888-3.987,2.9c-1.287,0.987-2.513,2.024-3.688,3.037    c-1.15,1.025-2.25,2.038-3.263,3.038c-1.012,0.975-1.938,1.938-2.787,2.825c-1.675,1.8-3,3.35-3.888,4.438    c-0.425,0.538-0.775,0.963-0.975,1.25c-0.2,0.263-0.3,0.4-0.3,0.4L149.398,204.088z" fill="#EFE0BD"/><path d="M246.185,384.036c18.374-22,48.743-28.45,66.093-30.325    c-27.675-8.625-64.593-7.199-104.08,30.325H246.185z" fill="#CEB272" opacity="0.5"/><path d="M237.897,300.85l24.262,21.587c0,0,45.743-62.262-2.188-113.086    C264.534,220.775,277.103,262.4,237.897,300.85z" fill="#CEB272" opacity="0.5"/><path d="M334.327,284.612c0,15.05,12.2,27.274,27.274,27.274c15.05,0,27.274-12.225,27.274-27.274    c0-15.075-12.225-27.287-27.274-27.287C346.527,257.325,334.327,269.537,334.327,284.612z" fill="#E27D3C"/></g></g><g/><g/><g/><g/><g/><g/></svg>