<?xml version="1.0" ?><!DOCTYPE svg  PUBLIC '-//W3C//DTD SVG 1.1//EN'  'http://www.w3.org/Graphics/SVG/1.1/DTD/svg11.dtd'><svg enable-background="new 0 0 512 512" height="512px" id="Calque_1" version="1.1" viewBox="0 0 512 512" width="512px" xml:space="preserve" xmlns="http://www.w3.org/2000/svg" xmlns:xlink="http://www.w3.org/1999/xlink"><g><path d="M512,256c0,141.386-114.599,255.997-255.991,255.997C114.623,511.997,0,397.386,0,256   S114.623,0.003,256.009,0.003C397.401,0.003,512,114.614,512,256z" fill="#EBEEEF"/><g id="Gym"><path d="M127.273,257.95c0,4.05,3.274,7.325,7.325,7.325h242.829c4.024,0,7.325-3.275,7.325-7.325v-3.925    c0-4.025-3.301-7.325-7.325-7.325H134.598c-4.05,0-7.325,3.3-7.325,7.325V257.95z" fill="#A8BEC6"/><rect fill="#80929B" height="69.424" width="16.124" x="336.327" y="221.275"/><rect fill="#80929B" height="91.199" width="22.6" x="310.478" y="210.4"/><rect fill="#80929B" height="69.424" width="16.149" x="160.248" y="221.275"/><rect fill="#80929B" height="91.199" width="22.6" x="179.647" y="210.4"/></g></g><g/><g/><g/><g/><g/><g/></svg>