<?xml version="1.0" ?><!DOCTYPE svg  PUBLIC '-//W3C//DTD SVG 1.1//EN'  'http://www.w3.org/Graphics/SVG/1.1/DTD/svg11.dtd'><svg enable-background="new 0 0 512 512" height="512px" id="Calque_1" version="1.1" viewBox="0 0 512 512" width="512px" xml:space="preserve" xmlns="http://www.w3.org/2000/svg" xmlns:xlink="http://www.w3.org/1999/xlink"><g><path d="M512,256c0,141.388-114.612,256-256,256S0,397.388,0,256S114.612,0,256,0S512,114.612,512,256z" fill="#EBEEEF"/><g id="glass"><path d="M279.2,269.237c38.813-12.024,67.475-53.35,67.475-102.6c0-13.863-2.35-27.063-6.45-39.2H322.85    c0.9,2.675,3.938,10.038,5,17.125c1.413,6.925,1.825,14.938,1.825,22.075c0,49.2-33.05,89.237-73.675,89.237    c-40.612,0-73.663-40.038-73.663-89.237c0-7.513,0.794-14.938,2.35-22.2c0,0,2.219-10.862,4.913-17h-17.819    c-4.119,12.138-6.444,25.337-6.444,39.2c0,49.275,28.669,90.6,67.506,102.612c5.05,3.2,14.319,10.912,14.494,24.65    c0.231,18.875,0.113,53.074,0.113,53.074s2.656,11.688-31.525,26.726c0,0-9.912,3.3-8.5,10.862h45.225h6.731h45.207    c1.412-7.563-8.5-10.862-8.5-10.862c-34.163-15.038-31.507-26.726-31.507-26.726s-0.125-34.199,0.112-53.074    C264.862,280.138,274.162,272.438,279.2,269.237z" fill="#A8BEC6"/><rect fill="#A8BEC6" height="16.05" width="168.812" x="171.663" y="127.45"/><path d="M296.088,373.7c-20.525-9.038-27.726-16.851-30.231-21.65    c2.412,7.925,8.969,23.237,24.644,32.513h14.088C306,377,296.088,373.7,296.088,373.7z" fill="#80929B" opacity="0.38"/><path d="M193.775,168.288c1.113,41.762,28.563,75.325,62.225,75.325c33.675,0,61.125-33.563,62.225-75.325H193.775    z" fill="#EE3533"/><path d="M216.563,183.35c0,0,1.4,2.6,3.306,6.163c1.656,3.462,3.869,8.075,6.082,12.7l1.744,3.225    c0.637,1.025,0.918,2.288,1.663,3.138c0.668,0.925,1.206,1.912,1.744,2.862c0.606,0.875,0.931,2,1.587,2.663    c2.294,2.987,3.862,5.712,3.862,5.712s-2.737-0.5-6.912-2.337c-1.119-0.388-1.913-1.25-2.9-2.038    c-0.962-0.813-2.006-1.675-2.975-2.675c-2.031-1.925-3.3-4.588-4.913-7.038c-1.056-2.675-2.225-5.35-2.712-7.988    c-0.488-2.65-0.844-5.112-0.7-7.275C215.513,186.15,216.563,183.35,216.563,183.35z" fill="#FFFFFF"/></g></g><g/><g/><g/><g/><g/><g/></svg>