<?xml version="1.0" ?><!DOCTYPE svg  PUBLIC '-//W3C//DTD SVG 1.1//EN'  'http://www.w3.org/Graphics/SVG/1.1/DTD/svg11.dtd'><svg enable-background="new 0 0 512 512" height="512px" id="Calque_1" version="1.1" viewBox="0 0 512 512" width="512px" xml:space="preserve" xmlns="http://www.w3.org/2000/svg" xmlns:xlink="http://www.w3.org/1999/xlink"><g><path d="M511.979,256.016C511.979,397.385,397.363,512,256,512C114.625,512,0.022,397.385,0.022,256.016   C0.022,114.641,114.625,0,256,0C397.363,0,511.979,114.641,511.979,256.016z" fill="#87BEC5"/><g id="paper_2_"><polygon fill="#EFC84A" points="161.702,385.761 303.82,385.761 350.167,339.415 350.167,126.227 161.702,126.227   "/><polygon fill="#CF7E31" opacity="0.27" points="304.195,385.761 350.292,339.415 304.296,339.415 258.193,385.761   "/><polygon fill="#F9D97C" points="303.945,385.761 350.292,339.415 303.945,339.415   "/><g><rect fill="#FFFFFF" height="10.299" width="71.406" x="181.4" y="176.36"/><rect fill="#FFFFFF" height="10.299" width="39.822" x="290.646" y="176.36"/></g><rect fill="#FFFFFF" height="11.149" opacity="0.8" width="148.994" x="181.475" y="214.957"/><rect fill="#FFFFFF" height="11.149" opacity="0.8" width="148.994" x="181.475" y="236.768"/><rect fill="#FFFFFF" height="11.155" opacity="0.8" width="97.248" x="181.475" y="258.591"/></g></g><g/><g/><g/><g/><g/><g/></svg>