<?xml version="1.0" ?><!DOCTYPE svg  PUBLIC '-//W3C//DTD SVG 1.1//EN'  'http://www.w3.org/Graphics/SVG/1.1/DTD/svg11.dtd'><svg enable-background="new 0 0 512 512" height="512px" id="Calque_1" version="1.1" viewBox="0 0 512 512" width="512px" xml:space="preserve" xmlns="http://www.w3.org/2000/svg" xmlns:xlink="http://www.w3.org/1999/xlink"><g><path d="M512,256c0,141.389-114.626,256.003-255.997,256.003C114.602,512.003,0,397.389,0,256   C0,114.611,114.602-0.003,256.003-0.003C397.374-0.003,512,114.611,512,256z" fill="#A1C656"/><g id="user_7_"><path d="M229.728,257.862c0,0-0.6,29.413-14.4,40.7c0,0,43.851,33.176,85.795,0.613    c0,0-16.301-8.763-19.426-37.563C278.572,232.813,229.728,257.862,229.728,257.862z" fill="#E6B984"/><path d="M282.022,264.1l-12.8-15.987c-13.244-2.237-32.87,6.55-38.145,9.075c-0.45,0.35-0.925,0.725-1.35,1.112    c-0.05,1.525-0.35,6.95-1.6,13.513c7.925,4.476,27,13.275,32.025,11.7c5.101-1.575,16.844-8.487,23.369-11.7    C282.922,269.425,282.397,266.875,282.022,264.1z" fill="#D8A97C"/><path d="M384.824,386.614c-3-16.463-17.251-60.651-84.502-87.751c0,0-15.025,11.787-45.394,9.7    c-11.675-0.8-21.125-3.575-39.6-10.001c0,0-79.602,32.626-88.176,88.052H384.824z" fill="#1C75BC"/><path d="M237.878,131.386c0,0-68.876,8.125-29.425,91.401c0,0,13.775,44.45,45.701,56.351c0,0,4.4,2.5,10.65-0.625    c6.243-3.138,36.894-27.963,39.369-51.138c0,0,27.625-26.488,17.601-65.313C311.748,123.236,245.378,119.486,237.878,131.386z" fill="#F0D2B1"/><path d="M206.453,213.387c0.625,1.45,1.3,2.9,2,4.388c0,0,0.025,0.112,0.075,0.263    c5.25-11.513,21.025-43.913,36.4-51.601c0,0,19.4,16.275,33.169,21.275c13.775,5.012,25.9,17.55,25.275,41.013    c0.375-17.075,0.399-62.913,0.399-62.913S203.928,73.798,206.453,213.387z" fill="#E5B680" opacity="0.72"/><path d="M248.053,162.062c0,0,87.195-37.388,1.1-35.9c-5.6,0.95-9.7,2.75-11.275,5.225    c0,0-68.876,8.125-29.425,91.401C206.428,183.962,248.053,162.062,248.053,162.062z" fill="#453129"/><path d="M321.773,162.062c-10.025-38.826-76.396-42.576-83.896-30.676c0,0,1.4,41.313,37.095,50.076    c35.675,8.762,27.4,54.476,27.4,54.476S331.798,200.887,321.773,162.062z" fill="#533A2D"/><path d="M221.128,150.161c0,0-1.2,1.425-3,3.538c-0.85,1.075-1.9,2.288-2.95,3.625    c-0.55,0.637-1.05,1.363-1.575,2.075c-0.55,0.688-1.024,1.45-1.55,2.163c-0.5,0.737-0.975,1.513-1.475,2.225    c-0.4,0.775-0.9,1.5-1.275,2.238c-0.35,0.762-0.775,1.438-1.075,2.15c-0.25,0.713-0.6,1.388-0.825,1.987    c-0.2,0.65-0.4,1.25-0.6,1.775c-0.175,0.525-0.25,1-0.35,1.4c-0.225,0.775-0.35,1.25-0.35,1.25s-0.075-0.462-0.175-1.3    c0-0.399-0.125-0.925-0.075-1.5c0.025-0.575,0.075-1.237,0.15-1.95c0.075-0.712,0.275-1.475,0.475-2.275    c0.175-0.813,0.525-1.625,0.825-2.475c0.325-0.837,0.75-1.663,1.175-2.5c0.475-0.825,0.975-1.638,1.5-2.438    c0.575-0.75,1.101-1.563,1.726-2.263c0.575-0.7,1.2-1.375,1.825-2.025c0.6-0.65,1.25-1.2,1.85-1.75c0.6-0.55,1.225-1,1.775-1.45    C219.378,150.937,221.128,150.161,221.128,150.161z" fill="#FBF7C1" opacity="0.65"/><path d="M263.078,308.876c0,0,11.444,10.337,10.719,17.837c0,0,38.951-15.649,39.676-21.912    c0,0-8.7-12.726-20.15-12.413L263.078,308.876z" fill="#27AAE1"/><path d="M252.953,308.264c0,0-4.025,2.899-7.6,8c-2.2,3.149-4.025,7.475-5.601,11l-38.101-22.301    c0,0,4.25-4.287,9.101-7.7c3.575-2.487,7.6-4.125,10-5.2L252.953,308.264z" fill="#27AAE1"/></g></g><g/><g/><g/><g/><g/><g/></svg>