<?xml version="1.0" ?><!DOCTYPE svg  PUBLIC '-//W3C//DTD SVG 1.1//EN'  'http://www.w3.org/Graphics/SVG/1.1/DTD/svg11.dtd'><svg enable-background="new 0 0 512 512" height="512px" id="Calque_1" version="1.1" viewBox="0 0 512 512" width="512px" xml:space="preserve" xmlns="http://www.w3.org/2000/svg" xmlns:xlink="http://www.w3.org/1999/xlink"><g><path d="M511.975,256.025C511.975,397.387,397.374,512,256,512S0.025,397.387,0.025,256.025   C0.025,114.639,114.626,0,256,0S511.975,114.639,511.975,256.025z" fill="#E27C3C"/><g id="expand"><polygon fill="#FFFFFF" points="352.841,189.419 385.513,189.419 385.513,125.275 321.369,125.275 321.369,157.947     352.841,157.947   "/><polygon fill="#FFFFFF" points="159.153,189.419 159.153,157.947 191.85,157.947 191.85,125.275 126.494,125.275 126.494,189.419       "/><g><polygon fill="#FFFFFF" points="191.85,354.041 159.153,354.041 159.153,321.356 126.494,321.356 126.494,386.725      191.85,386.725    "/><polygon fill="#FFFFFF" points="352.841,321.356 352.841,354.041 321.369,354.041 321.369,386.725 385.513,386.725      385.513,321.356    "/></g></g></g><g/><g/><g/><g/><g/><g/></svg>