<?xml version="1.0" ?><!DOCTYPE svg  PUBLIC '-//W3C//DTD SVG 1.1//EN'  'http://www.w3.org/Graphics/SVG/1.1/DTD/svg11.dtd'><svg enable-background="new 0 0 512 512" height="512px" id="Calque_1" version="1.1" viewBox="0 0 512 512" width="512px" xml:space="preserve" xmlns="http://www.w3.org/2000/svg" xmlns:xlink="http://www.w3.org/1999/xlink"><g><path d="M512,256c0,141.386-114.599,255.997-256.003,255.997C114.623,511.997,0,397.386,0,256   S114.623,0.003,255.997,0.003C397.401,0.003,512,114.614,512,256z" fill="#EBEEEF"/><g id="arrow_8_"><path clip-rule="evenodd" d="M255.896,210.77c0-13.838,0-26.975,0.025-40.125    c0-7.25-3.2-12.575-9.75-15.537c-6.775-3.075-13.075-1.65-18.287,3.487c-33.85,33.325-67.649,66.699-101.437,100.074    c-0.35,0.337-0.625,0.763-1.3,1.612c1.887,1.763,3.762,3.45,5.563,5.213c32.087,31.655,64.137,63.355,96.236,94.979    c10.012,9.875,24.987,6.375,28.449-6.575c0.425-1.55,0.475-3.274,0.5-4.899c0.025-12.125,0-24.274,0-36.399    c0-1.375,0-2.775,0-4.275c44.98-6.199,80.631-27.449,106.08-64.88c19.85-29.162,26.625-61.824,24.524-97.611    c-1.175,1.675-1.95,2.75-2.675,3.825c-20.375,29.35-47.549,48.662-82.724,56.125c-7.325,1.55-14.8,2.687-22.25,3.5    C271.402,210.106,263.871,210.27,255.896,210.77z" fill="#44B39D" fill-rule="evenodd"/><path d="M255.896,308.324v-45.056c0,0,11.875,23.256,30.932,37.881    C277.078,304.424,266.771,306.824,255.896,308.324z" fill="#2C846D" opacity="0.65"/></g></g><g/><g/><g/><g/><g/><g/></svg>