<?xml version="1.0" ?><!DOCTYPE svg  PUBLIC '-//W3C//DTD SVG 1.1//EN'  'http://www.w3.org/Graphics/SVG/1.1/DTD/svg11.dtd'><svg enable-background="new 0 0 512 512" height="512px" id="Calque_1" version="1.1" viewBox="0 0 512 512" width="512px" xml:space="preserve" xmlns="http://www.w3.org/2000/svg" xmlns:xlink="http://www.w3.org/1999/xlink"><g><path d="M512,256c0,141.388-114.625,256-255.994,256C114.606,512,0,397.388,0,256S114.606,0,256.006,0   C397.375,0,512,114.612,512,256z" fill="#43B39C"/><g id="news"><polygon fill="#BCBCBC" points="334.6,262.925 387,285.813 293.025,331.588   "/><polygon fill="#C6C6C5" points="293.65,330.375 380.975,275.775 335.2,259.713   "/><polygon fill="#D1D3D4" points="294.85,327.975 371.325,265.325 336,255.688   "/><polygon fill="#E6E7E8" points="195.481,180.413 369.525,212.925 293.025,331.588 125.006,259.9   "/><polygon fill="#6D6E71" points="184.431,209.925 168.056,229.8 202.406,241.837 218.656,219.563   "/><g><defs><polygon id="SVGID_1_" points="224.681,220.763 202.106,252.688 289.125,291.838 318.35,245.763     "/></defs><clipPath id="SVGID_2_"><use overflow="visible" xlink:href="#SVGID_1_"/></clipPath><g clip-path="url(#SVGID_2_)"><polygon fill="#6D6E71" points="217.956,219.962 216.356,224.575 318.75,255.288 320.35,248.275     "/><polygon fill="#6D6E71" points="210.331,234.212 312.7,267.338 314.325,261.537 211.931,229.612     "/><polygon fill="#6D6E71" points="204.306,242.638 306.7,280.588 308.3,274.787 205.906,238.05     "/></g></g><polygon fill="#D1D3D4" points="329.05,232.013 194.256,197.875 197.581,194.563 333.375,225.275   "/><path d="M136.581,264.838l133.719,57.05l23.65-37.588l-129.494-49.688    C164.456,234.612,143.156,257.425,136.581,264.838z" fill="#D1D3D4"/><polygon opacity="0.03" points="208.631,295.575 293.025,331.588 369.525,212.925 274.925,195.25   "/></g></g><g/><g/><g/><g/><g/><g/></svg>