<?xml version="1.0" ?><!DOCTYPE svg  PUBLIC '-//W3C//DTD SVG 1.1//EN'  'http://www.w3.org/Graphics/SVG/1.1/DTD/svg11.dtd'><svg enable-background="new 0 0 512 512" height="512px" id="Calque_1" version="1.1" viewBox="0 0 512 512" width="512px" xml:space="preserve" xmlns="http://www.w3.org/2000/svg" xmlns:xlink="http://www.w3.org/1999/xlink"><g><path d="M512,256c0,141.388-114.612,256-256,256S0,397.388,0,256S114.612,0,256,0S512,114.612,512,256z" fill="#344E5D"/><g id="Bandage"><path d="M199.663,375.05c0,4.025,3.275,7.3,7.3,7.3h98.075c4.025,0,7.301-3.274,7.301-7.3v-238.1    c0-4.05-3.275-7.3-7.301-7.3h-98.075c-4.025,0-7.3,3.25-7.3,7.3V375.05z" fill="#DE9174"/><path d="M214.563,296.575c0,4.024,3.25,7.3,7.288,7.3h68.3c4.024,0,7.287-3.275,7.287-7.3V215.4    c0-4.025-3.263-7.3-7.287-7.3h-68.3c-4.038,0-7.288,3.275-7.288,7.3V296.575z" fill="#BA705B"/><g><path d="M245.513,232.85c0,2.725-2.2,4.95-4.925,4.95c-2.712,0-4.913-2.225-4.913-4.95c0-2.7,2.2-4.9,4.913-4.9     C243.313,227.95,245.513,230.15,245.513,232.85z" fill="#935446"/><path d="M266.063,232.85c0,2.725-2.213,4.95-4.925,4.95c-2.726,0-4.925-2.225-4.925-4.95c0-2.7,2.2-4.9,4.925-4.9     C263.85,227.95,266.063,230.15,266.063,232.85z" fill="#935446"/><path d="M286.588,232.85c0,2.725-2.2,4.95-4.9,4.95c-2.725,0-4.925-2.225-4.925-4.95c0-2.7,2.2-4.9,4.925-4.9     C284.388,227.95,286.588,230.15,286.588,232.85z" fill="#935446"/><path d="M235.237,248.275c0,2.725-2.2,4.925-4.925,4.925c-2.7,0-4.913-2.2-4.913-4.925c0-2.7,2.212-4.9,4.913-4.9     C233.038,243.375,235.237,245.575,235.237,248.275z" fill="#935446"/><path d="M255.788,248.275c0,2.725-2.212,4.925-4.925,4.925c-2.725,0-4.925-2.2-4.925-4.925     c0-2.7,2.2-4.9,4.925-4.9C253.575,243.375,255.788,245.575,255.788,248.275z" fill="#935446"/><path d="M276.338,248.275c0,2.725-2.226,4.925-4.926,4.925c-2.725,0-4.925-2.2-4.925-4.925     c0-2.7,2.2-4.9,4.925-4.9C274.112,243.375,276.338,245.575,276.338,248.275z" fill="#935446"/><path d="M245.513,263.7c0,2.725-2.2,4.925-4.925,4.925c-2.712,0-4.913-2.2-4.913-4.925     c0-2.726,2.2-4.925,4.913-4.925C243.313,258.775,245.513,260.975,245.513,263.7z" fill="#935446"/><path d="M266.063,263.7c0,2.725-2.213,4.925-4.925,4.925c-2.726,0-4.925-2.2-4.925-4.925     c0-2.726,2.2-4.925,4.925-4.925C263.85,258.775,266.063,260.975,266.063,263.7z" fill="#935446"/><path d="M286.588,263.7c0,2.725-2.2,4.925-4.9,4.925c-2.725,0-4.925-2.2-4.925-4.925     c0-2.726,2.2-4.925,4.925-4.925C284.388,258.775,286.588,260.975,286.588,263.7z" fill="#935446"/><path d="M235.237,279.1c0,2.726-2.2,4.926-4.925,4.926c-2.7,0-4.913-2.2-4.913-4.926     c0-2.699,2.212-4.899,4.913-4.899C233.038,274.2,235.237,276.4,235.237,279.1z" fill="#935446"/><path d="M255.788,279.1c0,2.726-2.212,4.926-4.925,4.926c-2.725,0-4.925-2.2-4.925-4.926     c0-2.699,2.2-4.899,4.925-4.899C253.575,274.2,255.788,276.4,255.788,279.1z" fill="#935446"/><path d="M276.338,279.1c0,2.726-2.226,4.926-4.926,4.926c-2.725,0-4.925-2.2-4.925-4.926     c0-2.699,2.2-4.899,4.925-4.899C274.112,274.2,276.338,276.4,276.338,279.1z" fill="#935446"/></g></g></g><g/><g/><g/><g/><g/><g/></svg>