<?xml version="1.0" ?><!DOCTYPE svg  PUBLIC '-//W3C//DTD SVG 1.1//EN'  'http://www.w3.org/Graphics/SVG/1.1/DTD/svg11.dtd'><svg enable-background="new 0 0 512 512" height="512px" id="Calque_1" version="1.1" viewBox="0 0 512 512" width="512px" xml:space="preserve" xmlns="http://www.w3.org/2000/svg" xmlns:xlink="http://www.w3.org/1999/xlink"><g><circle cx="256.003" cy="256" fill="#EBEEEF" r="255.997"/><g id="arrow_4_"><path clip-rule="evenodd" d="M333.727,255.862c0-38.562,0.025-77.137,0-115.698    c0-8.45-6.125-14.575-13.975-13.587c-2.6,0.325-5.449,1.737-7.475,3.475c-40.25,34.874-80.399,69.861-120.574,104.823    c-1.925,1.675-3.875,3.313-5.8,5.05c-10.225,9.3-10.3,23.025,0.05,32.149c15.699,13.801,31.524,27.463,47.299,41.162    c25.825,22.475,51.725,44.9,77.499,67.438c4.5,3.925,9.2,6.375,15.025,3.787c5.975-2.65,8.024-7.675,8.024-14.1    C333.677,332.187,333.727,294.037,333.727,255.862z" fill="#44B39D" fill-rule="evenodd"/></g></g><g/><g/><g/><g/><g/><g/></svg>