<?xml version="1.0" ?><!DOCTYPE svg  PUBLIC '-//W3C//DTD SVG 1.1//EN'  'http://www.w3.org/Graphics/SVG/1.1/DTD/svg11.dtd'><svg enable-background="new 0 0 512 512" height="512px" id="Calque_1" version="1.1" viewBox="0 0 512 512" width="512px" xml:space="preserve" xmlns="http://www.w3.org/2000/svg" xmlns:xlink="http://www.w3.org/1999/xlink"><g><path d="M512,256c0,141.386-114.599,255.997-255.991,255.997C114.623,511.997,0,397.386,0,256   S114.623,0.003,256.009,0.003C397.401,0.003,512,114.614,512,256z" fill="#A1C656"/><g id="truck"><path d="M150.16,304.512c0,7.2,5.838,13.025,13.038,13.025h185.604c7.2,0,13.024-5.825,13.024-13.025V157.188    c0-7.2-5.824-13.024-13.024-13.024H163.198c-7.2,0-13.038,5.825-13.038,13.024V304.512z" fill="#EFC84A"/><path d="M332.477,197.813c-57.523-0.726-69.793,82.099-72.418,119.724h88.743c7.2,0,13.024-5.825,13.024-13.025    v-81.349L332.477,197.813z" fill="#E9A02D"/><polygon fill="#E9A02D" opacity="0.44" points="213.26,144.039 280.428,199.738 194.223,202.138 194.572,144.039   "/><path d="M184.647,264.287c0,7.2,3.425,13.025,7.663,13.025h3.812c4.25,0,7.675-5.825,7.675-13.025V139.964    c0-7.2-3.425-13.025-7.675-13.025h-3.812c-4.238,0-7.663,5.825-7.663,13.025V264.287z" fill="#FBF7C1"/><path d="M203.797,202.713v-62.749c0-7.2-3.425-13.025-7.675-13.025h-1.625    c1.675,3.85,3.263,10.15,3.263,20.275c0,21.55,0,52.424,0,52.424S200.247,201.138,203.797,202.713z" fill="#DDB843" opacity="0.44"/><g><path d="M176.973,308.986c0,1.551,1.462,2.801,3.25,2.801h151.529c1.8,0,3.25-1.25,3.25-2.801V200.638     c0-1.575-1.45-2.825-3.25-2.825H180.223c-1.788,0-3.25,1.25-3.25,2.825V308.986z" fill="#1C75BC"/><path d="M185.123,278.412c0,1.55,1.45,2.825,3.25,2.825h135.229c1.801,0,3.275-1.275,3.275-2.825v-70.349     c0-1.55-1.475-2.825-3.275-2.825H188.373c-1.8,0-3.25,1.275-3.25,2.825V278.412z" fill="#A2DEF7"/><path d="M282.103,295.512c-16.118,0-29.218-13.1-29.218-29.225c0-16.1,13.1-29.199,29.218-29.199     c16.1,0,29.2,13.1,29.2,29.199C311.303,282.412,298.202,295.512,282.103,295.512z M282.103,242.813     c-12.95,0-23.469,10.55-23.469,23.475c0,12.95,10.519,23.475,23.469,23.475c12.925,0,23.45-10.524,23.45-23.475     C305.553,253.362,295.027,242.813,282.103,242.813z" fill="#414042"/><path d="M323.602,205.238h-25.699v74.449h28.574c0.226-0.375,0.4-0.801,0.4-1.275v-70.349     C326.877,206.513,325.402,205.238,323.602,205.238z" fill="#FFFFFF" opacity="0.38"/></g><g><g><path d="M181.723,378.561c0,3.601,2.925,6.5,6.525,6.5h14.737c3.6,0,6.512-2.899,6.512-6.5v-34.874      c0-3.601-2.912-6.5-6.512-6.5h-14.737c-3.6,0-6.525,2.899-6.525,6.5V378.561z" fill="#2D3E50"/><path d="M302.478,378.561c0,3.601,2.925,6.5,6.524,6.5h14.75c3.6,0,6.5-2.899,6.5-6.5v-34.874      c0-3.601-2.9-6.5-6.5-6.5h-14.75c-3.6,0-6.524,2.899-6.524,6.5V378.561z" fill="#2D3E50"/></g><path d="M162.598,331.437v20.3c0,3.6,2.925,6.525,6.525,6.525h173.729c3.601,0,6.525-2.926,6.525-6.525v-20.3     H162.598z" fill="#1C75BC"/><path d="M342.852,260.713H169.123c-3.601,0-6.525,2.925-6.525,6.524v64.35h186.779v-64.35     C349.377,263.638,346.452,260.713,342.852,260.713z" fill="#27AAE1"/><path d="M342.852,260.713H169.123c-3.601,0-6.525,2.925-6.525,6.524v64.35h186.779v-64.35     C349.377,263.638,346.452,260.713,342.852,260.713z" fill="#27AAE1"/><g><path d="M301.527,296.137c0,8.225,6.65,14.85,14.85,14.85c8.2,0,14.85-6.625,14.85-14.85      c0-8.199-6.649-14.824-14.85-14.824C308.178,281.313,301.527,287.938,301.527,296.137z" fill="#8BD5EE"/><path d="M180.76,296.137c0,8.225,6.65,14.85,14.862,14.85c8.188,0,14.838-6.625,14.838-14.85      c0-8.199-6.65-14.824-14.838-14.824C187.41,281.313,180.76,287.938,180.76,296.137z" fill="#8BD5EE"/></g><path d="M349.377,331.587v-64.35c0-3.6-2.925-6.524-6.525-6.524h-23.225     c1.95,1.675,4.15,5.399,4.15,13.725c0,9.699,0,38.1,0,57.149H349.377z" fill="#2B3990" opacity="0.27"/><path d="M323.802,358.262h19.125c3.575,0,6.45-2.9,6.45-6.45v-20.125h-25.575V358.262z" fill="#2B3990" opacity="0.38"/></g></g></g><g/><g/><g/><g/><g/><g/></svg>