<?xml version="1.0" ?><!DOCTYPE svg  PUBLIC '-//W3C//DTD SVG 1.1//EN'  'http://www.w3.org/Graphics/SVG/1.1/DTD/svg11.dtd'><svg enable-background="new 0 0 512 512" height="512px" id="Calque_1" version="1.1" viewBox="0 0 512 512" width="512px" xml:space="preserve" xmlns="http://www.w3.org/2000/svg" xmlns:xlink="http://www.w3.org/1999/xlink"><g><path d="M512,256.003c0,141.367-114.599,255.991-255.991,255.991C114.623,511.994,0,397.37,0,256.003   C0,114.617,114.623,0.006,256.009,0.006C397.401,0.006,512,114.617,512,256.003z" fill="#344E5D"/><g id="pen_2_"><rect fill="#754C29" height="10.925" width="16.449" x="279.553" y="167.329"/><path d="M261.784,326.221l-13.987-5.375c0-0.199,0-0.324,0-0.324l-0.425,0.15l-0.976-0.375c0,0,0,0.25,0,0.725    l-15.774,5.425l-13.625,26.075c0,0,21.9,15.524,27.649,33.324v-33.4c-2.475-0.699-4.325-2.949-4.325-5.674    c0-3.25,2.625-5.875,5.9-5.875c3.25,0,5.862,2.625,5.862,5.875c0,2.725-1.813,4.975-4.313,5.674v33.2    c5.763-17.825,27.631-33.35,27.631-33.35L261.784,326.221z" fill="#80929B"/><path d="M245.797,340.946v-19.726l-15.175,5.226l-13.625,26.075c0,0,21.9,15.524,27.649,33.324    v-33.4c-2.475-0.699-4.325-2.949-4.325-5.674C240.322,343.671,242.747,341.146,245.797,340.946z" fill="#A8BEC6" opacity="0.65"/><path d="M293.327,216.629c0,3.075,2.5,5.55,5.575,5.55l0,0c3.05,0,5.55-2.475,5.55-5.55v-53.8    c0-3.05-2.5-5.55-5.55-5.55l0,0c-3.075,0-5.575,2.5-5.575,5.55V216.629z" fill="#9E5B25"/><path d="M216.872,314.646c0,6.875,5.575,12.449,12.45,12.449h33.762c6.869,0,12.443-5.574,12.443-12.449v-69.368    c0-6.875-5.574-12.45-12.443-12.45h-33.762c-6.875,0-12.45,5.575-12.45,12.45V314.646z" fill="#EEB144"/><path d="M259.634,327.096h3.45c6.869,0,12.443-5.574,12.443-12.449v-54.594    c-2.725-10.949-6.3-12.399-9.306,6.575v48.919C266.222,315.547,265.146,322.896,259.634,327.096z" fill="#8B5E3C" opacity="0.22"/><path d="M284.878,268.403V164.829c0-21.35-17.331-38.674-38.656-38.674c-21.375,0-38.674,17.325-38.674,38.674    v103.574H284.878z" fill="#CF7E31"/><path d="M284.878,268.403V164.829c0-21.35-17.331-38.674-38.656-38.674    c-3.625,0-7.125,0.525-10.45,1.45c7.1,0.625,36.38,5.1,37.556,36.349c1.149,30.575,0.324,88.749,0.074,104.449H284.878z" fill="#8B5E3C" opacity="0.44"/><path d="M231.997,147.529c0,0-1.725,1.55-2.925,3.976c-0.775,1.125-1.125,2.7-1.675,4.274    c-0.6,1.5-0.825,3.425-1.4,5.1c-0.425,1.8-0.625,3.7-1.175,5.425c-0.55,1.725-0.825,3.475-1.175,4.95    c-0.775,2.95-1.8,5.075-1.8,5.075s-1.025-1.975-1.8-5.1c-0.2-1.575-1.024-3.425-0.825-5.45c0.025-2.05,0.175-4.2,0.575-6.375    c0.825-2.125,1.226-4.325,2.575-6.125c1.15-1.875,2.675-3.274,4.15-4.274c1.35-1.101,2.95-1.351,3.925-1.55    C231.472,147.33,231.997,147.529,231.997,147.529z" fill="#FFFFFF"/><rect fill="#754C29" height="9.194" opacity="0.38" width="58.58" x="216.822" y="268.503"/></g></g><g/><g/><g/><g/><g/><g/></svg>