<?xml version="1.0" ?><!DOCTYPE svg  PUBLIC '-//W3C//DTD SVG 1.1//EN'  'http://www.w3.org/Graphics/SVG/1.1/DTD/svg11.dtd'><svg enable-background="new 0 0 512 512" height="512px" id="Calque_1" version="1.1" viewBox="0 0 512 512" width="512px" xml:space="preserve" xmlns="http://www.w3.org/2000/svg" xmlns:xlink="http://www.w3.org/1999/xlink"><g><path d="M511.98,256.016C511.98,397.385,397.391,512,256.009,512C114.634,512,0.019,397.385,0.019,256.016   C0.019,114.641,114.634,0,256.009,0C397.391,0,511.98,114.641,511.98,256.016z" fill="#D6D9B8"/><g id="bag"><path d="M138.294,332.716c0,9.948,8.075,18.048,18.049,18.048h199.302c9.975,0,18.049-8.1,18.049-18.048V226.668    c0-9.974-8.074-18.048-18.049-18.048H156.343c-9.974,0-18.049,8.074-18.049,18.048V332.716z" fill="#A97C50"/><path d="M138.294,300.568v32.147c0,9.948,8.075,18.048,18.049,18.048h199.302    c9.975,0,18.049-8.1,18.049-18.048v-32.147H138.294z" fill="#4B3014" opacity="0.17"/><rect fill="#3C2415" height="22.561" opacity="0.52" width="234.649" x="138.669" y="240.955"/><path d="M277.801,170.273c4.975,0,9.024,4.049,9.024,9.024v23.311c0,4.975-4.05,9.024-9.024,9.024h-43.615    c-4.975,0-9.024-4.049-9.024-9.024v-23.311c0-4.975,4.049-9.024,9.024-9.024H277.801 M277.801,161.249h-43.615    c-9.974,0-18.048,8.074-18.048,18.048v23.311c0,9.961,8.074,18.048,18.048,18.048h43.615c9.975,0,18.049-8.087,18.049-18.048    v-23.311C295.85,169.323,287.775,161.249,277.801,161.249L277.801,161.249z" fill="#C2B59B"/><path d="M387.967,242.467c0,9.962-8.074,18.049-18.049,18.049H142.069c-9.974,0-18.048-8.087-18.048-18.049    v-39.859c0-9.961,8.074-18.048,18.048-18.048h227.849c9.975,0,18.049,8.087,18.049,18.048V242.467z" fill="#9B8579"/><path d="M369.918,184.56H142.069c-9.974,0-18.048,8.087-18.048,18.048v20.311h263.946v-20.311    C387.967,192.646,379.893,184.56,369.918,184.56z" fill="#C2B59B" opacity="0.27"/><g><defs><path d="M138.294,300.568v32.147c0,9.948,8.075,18.048,18.049,18.048h199.302c9.975,0,18.049-8.1,18.049-18.048      v-32.147H138.294z" id="SVGID_1_"/></defs><clipPath id="SVGID_2_"><use overflow="visible" xlink:href="#SVGID_1_"/></clipPath><g clip-path="url(#SVGID_2_)" opacity="0.33"><polygon fill="#4B3014" points="194.364,422.982 184.19,438.257 175.166,422.982 175.166,297.469 194.364,297.469     "/><polygon fill="#4B3014" points="335.821,422.982 325.672,438.257 316.647,422.982 316.647,297.469 335.821,297.469     "/></g></g><polygon fill="#F0C946" points="316.623,307.718 326.797,322.991 335.821,307.718 335.821,182.197 316.623,182.197   "/><rect fill="#E6E7E8" height="10.549" width="33.847" x="309.299" y="283.095"/><polygon fill="#F0C946" points="175.166,307.718 185.315,322.991 194.339,307.718 194.339,182.197 175.166,182.197   "/><rect fill="#E6E7E8" height="10.549" width="33.822" x="167.842" y="283.095"/><path d="M229.486,241.742c0,3.312,2.675,5.999,6.024,5.999h39.841c3.324,0,6.024-2.687,6.024-5.999l0,0    c0-3.325-2.7-6.024-6.024-6.024h-39.841C232.161,235.718,229.486,238.417,229.486,241.742L229.486,241.742z" fill="#C2B59B"/><rect fill="#726658" height="3.25" opacity="0.5" width="8.999" x="286.825" y="181.322"/><rect fill="#726658" height="3.25" opacity="0.5" width="9" x="216.112" y="181.322"/></g></g><g/><g/><g/><g/><g/><g/></svg>