<?xml version="1.0" ?><!DOCTYPE svg  PUBLIC '-//W3C//DTD SVG 1.1//EN'  'http://www.w3.org/Graphics/SVG/1.1/DTD/svg11.dtd'><svg enable-background="new 0 0 512 512" height="512px" id="Calque_1" version="1.1" viewBox="0 0 512 512" width="512px" xml:space="preserve" xmlns="http://www.w3.org/2000/svg" xmlns:xlink="http://www.w3.org/1999/xlink"><g><path d="M512,256c0,141.386-114.599,255.997-255.991,255.997C114.623,511.997,0,397.386,0,256   S114.623,0.003,256.009,0.003C397.401,0.003,512,114.614,512,256z" fill="#E1695C"/><g id="minimum"><path d="M362.627,149.37v213.278H149.36V149.37H362.627 M385.901,126.095H126.086v259.803h259.815V126.095    L385.901,126.095z" fill="#FFFFFF"/><polyline fill="#EEB144" points="337.977,187.732 335.752,207.52 323.752,195.52   "/><polyline fill="#EEB144" points="187.735,174.032 213.76,178.319 200.56,191.919   "/><polyline fill="#EEB144" points="174.035,324.274 177.76,301.125 193.76,315.124   "/><polyline fill="#EEB144" points="324.277,337.975 302.553,325.524 310.553,317.124   "/><g><polygon fill="#F9D422" points="291.377,234.332 277.678,220.619 324.277,174.032 337.977,187.732    "/><g><polygon fill="#F9D422" points="303.428,241.894 270.128,208.582 270.128,241.881     "/></g></g><g><polygon fill="#F9D422" points="324.277,337.975 277.678,291.399 291.377,277.699 337.977,324.274    "/><g><polygon fill="#F9D422" points="270.128,303.424 303.428,270.125 270.128,270.125     "/></g></g><g><polygon fill="#F9D422" points="220.609,234.332 174.035,187.732 187.735,174.032 234.334,220.619    "/><g><polygon fill="#F9D422" points="241.884,208.582 208.585,241.894 241.884,241.881     "/></g></g><g><polygon fill="#F9D422" points="187.735,337.975 174.035,324.274 220.635,277.699 234.334,291.399    "/><g><polygon fill="#F9D422" points="208.585,270.125 241.884,303.424 241.884,270.125     "/></g></g></g></g><g/><g/><g/><g/><g/><g/></svg>