<?xml version="1.0" ?><!DOCTYPE svg  PUBLIC '-//W3C//DTD SVG 1.1//EN'  'http://www.w3.org/Graphics/SVG/1.1/DTD/svg11.dtd'><svg enable-background="new 0 0 512 512" height="512px" id="Calque_1" version="1.1" viewBox="0 0 512 512" width="512px" xml:space="preserve" xmlns="http://www.w3.org/2000/svg" xmlns:xlink="http://www.w3.org/1999/xlink"><g><path d="M512,256c0,141.386-114.599,255.997-255.991,255.997C114.623,511.997,0,397.386,0,256   S114.623,0.003,256.009,0.003C397.401,0.003,512,114.614,512,256z" fill="#EBEEEF"/><g id="pause"><g><path clip-rule="evenodd" d="M206.585,311.799c0,3.976,3.212,7.176,7.175,7.176h27.05     c3.962,0,7.188-3.2,7.188-7.176V200.182c0-3.95-3.226-7.162-7.188-7.162h-27.05c-3.962,0-7.175,3.212-7.175,7.162V311.799z" fill="#4CB576" fill-rule="evenodd"/><path clip-rule="evenodd" d="M264.009,311.799c0,3.976,3.213,7.176,7.169,7.176h27.074     c3.95,0,7.15-3.2,7.15-7.176V200.182c0-3.95-3.2-7.162-7.15-7.162h-27.074c-3.956,0-7.169,3.212-7.169,7.162V311.799z" fill="#4CB576" fill-rule="evenodd"/></g><path d="M256.009,148.383c59.318,0,107.618,48.262,107.618,107.611c0,59.356-48.3,107.63-107.618,107.63    c-59.337,0-107.624-48.274-107.624-107.63C148.386,196.645,196.672,148.383,256.009,148.383 M256.009,129.258    c-70,0-126.749,56.737-126.749,126.736c0,70.005,56.749,126.754,126.749,126.754c69.993,0,126.743-56.749,126.743-126.754    C382.752,185.995,326.002,129.258,256.009,129.258L256.009,129.258z" fill="#4CB576"/></g></g><g/><g/><g/><g/><g/><g/></svg>