<?xml version="1.0" ?><!DOCTYPE svg  PUBLIC '-//W3C//DTD SVG 1.1//EN'  'http://www.w3.org/Graphics/SVG/1.1/DTD/svg11.dtd'><svg enable-background="new 0 0 512 512" height="512px" id="Calque_1" version="1.1" viewBox="0 0 512 512" width="512px" xml:space="preserve" xmlns="http://www.w3.org/2000/svg" xmlns:xlink="http://www.w3.org/1999/xlink"><g><path d="M512,256c0,141.386-114.599,255.997-255.991,255.997C114.623,511.997,0,397.386,0,256   S114.623,0.003,256.009,0.003C397.401,0.003,512,114.614,512,256z" fill="#CFD5D6"/><g id="user_1_"><path d="M313.952,216.663c0,0-11.25,50.212,12.975,68.387c0,0-4.75,18.087-26.6,13.813    c-21.874-4.3-26.199-20.75-26.199-20.75l11.25-42.399L313.952,216.663z" fill="#533A2D"/><path d="M200.085,202.813c0,0,11.6,58.611-13.425,79.823c0,0,4.9,21.113,27.475,16.101    c22.6-4.987,27.05-24.188,27.05-24.188l-11.6-49.512L200.085,202.813z" fill="#453129"/><path d="M229.734,257.838c0,0-0.625,29.437-14.399,40.699c0,0,43.824,33.199,85.768,0.625    c0,0-16.274-8.75-19.399-37.563C278.578,232.8,229.734,257.838,229.734,257.838z" fill="#E6B984"/><path d="M282.003,264.1l-12.775-15.987c-13.243-2.237-32.868,6.55-38.118,9.075c-0.5,0.35-0.95,0.725-1.375,1.1    c-0.075,1.551-0.35,6.95-1.6,13.525c7.925,4.475,27,13.274,32.024,11.699c5.075-1.574,16.844-8.487,23.368-11.699    C282.902,269.438,282.402,266.862,282.003,264.1z" fill="#D8A97C"/><path d="M384.826,386.611c-3.024-16.476-17.25-60.649-84.499-87.749c0,0-15.024,11.787-45.393,9.699    c-11.7-0.8-21.125-3.575-39.599-10.024c0,0-79.574,32.649-88.174,88.074H384.826z" fill="#1C75BC"/><path d="M203.935,303.924c8.2,9.888,37.75,44.263,52.675,45.388c14.769,1.125,44.568-36.013,52.718-46.562    c-2.899-1.325-5.875-2.625-9-3.888c0,0-15.024,11.787-45.393,9.699c-11.7-0.8-21.125-3.575-39.599-10.024    C215.335,298.537,210.859,300.412,203.935,303.924z" fill="#27AAE1"/><path d="M237.885,131.376c0,0-68.875,8.137-29.425,91.412c0,0,13.774,44.449,45.699,56.349    c0,0,4.375,2.513,10.649-0.625c6.244-3.125,36.869-27.974,39.369-51.124c0,0,27.624-26.524,17.6-65.324    C311.752,123.239,245.384,119.477,237.885,131.376z" fill="#F0D2B1"/><path d="M206.46,213.4c0.625,1.438,1.3,2.888,2,4.375c0,0,0.025,0.112,0.1,0.275    c5.225-11.538,21-43.938,36.375-51.612c0,0,19.399,16.275,33.168,21.287c13.774,5,25.899,17.525,25.274,41.012    c0.375-17.075,0.4-62.924,0.4-62.924S203.935,73.79,206.46,213.4z" fill="#E5B680" opacity="0.72"/><path d="M248.06,162.863c0,0,87.192-38.224,1.1-36.699c-5.6,0.975-9.725,2.8-11.274,5.325    c0,0-68.875,8.325-29.425,93.474C206.41,185.264,248.06,162.863,248.06,162.863z" fill="#453129"/><path d="M321.777,162.063c-10.025-38.824-76.393-42.587-83.893-30.687c0,0,1.399,41.325,37.068,50.087    c35.699,8.775,27.399,54.462,27.399,54.462S331.802,200.863,321.777,162.063z" fill="#533A2D"/><path d="M221.135,150.164c0,0-1.2,1.412-3,3.55c-0.875,1.063-1.9,2.275-2.95,3.6    c-0.55,0.663-1.05,1.375-1.575,2.088c-0.55,0.7-1.024,1.438-1.575,2.175c-0.5,0.737-0.95,1.487-1.45,2.225    c-0.4,0.763-0.9,1.488-1.275,2.213c-0.35,0.775-0.8,1.462-1.075,2.175c-0.25,0.7-0.6,1.362-0.825,2    c-0.2,0.638-0.425,1.225-0.6,1.737c-0.175,0.538-0.25,1.013-0.375,1.413c-0.175,0.774-0.325,1.237-0.325,1.237    s-0.075-0.463-0.175-1.288c-0.024-0.4-0.125-0.925-0.075-1.5c0.025-0.575,0.075-1.225,0.15-1.95    c0.075-0.726,0.275-1.476,0.475-2.288c0.175-0.813,0.5-1.612,0.825-2.462c0.325-0.838,0.75-1.675,1.175-2.5    c0.475-0.825,0.975-1.65,1.5-2.425c0.575-0.762,1.1-1.563,1.7-2.275c0.6-0.7,1.225-1.388,1.85-2.025c0.6-0.65,1.25-1.2,1.85-1.75    c0.6-0.55,1.225-1.012,1.75-1.45C219.41,150.964,221.135,150.164,221.135,150.164z" fill="#FBF7C1" opacity="0.65"/><path d="M300.327,298.862c0,0-33.118,40.724-41.343,45.474c-8.2,4.775-44.575-45.324-44.575-45.324l9.325-4.125" fill="#E6B984"/></g></g><g/><g/><g/><g/><g/><g/></svg>