<?xml version="1.0" ?><!DOCTYPE svg  PUBLIC '-//W3C//DTD SVG 1.1//EN'  'http://www.w3.org/Graphics/SVG/1.1/DTD/svg11.dtd'><svg enable-background="new 0 0 512 512" height="512px" id="Calque_1" version="1.1" viewBox="0 0 512 512" width="512px" xml:space="preserve" xmlns="http://www.w3.org/2000/svg" xmlns:xlink="http://www.w3.org/1999/xlink"><g><path d="M512,256.003c0,141.367-114.599,255.991-255.991,255.991C114.623,511.994,0,397.37,0,256.003   C0,114.617,114.623,0.006,256.009,0.006C397.401,0.006,512,114.617,512,256.003z" fill="#344E5D"/><g id="tent"><polygon fill="#C3D8DD" points="247.353,198.741 147.904,326.096 176.179,327.096   "/><polygon fill="#5C717C" points="258.652,184.767 385.576,326.921 331.002,326.921   "/><polygon fill="#80929B" points="172.254,326.921 258.652,177.292 345.052,326.921   "/><polygon fill="#2D4453" opacity="0.27" points="247.178,263.341 326.977,326.671 282.978,326.921   "/><polygon fill="#FEDB52" points="243.178,256.091 223.503,326.921 282.978,326.921 277.603,299.496   "/><polygon fill="#A8BEC6" points="230.854,326.921 258.303,177.892 172.254,326.921   "/><polygon fill="#A8BEC6" points="243.178,256.091 282.978,326.921 299.553,299.847   "/><path d="M181.504,326.771c0,0,27.774-20.8,43.225-59.206c0,0-13.3,45.906-28.25,59.355    L181.504,326.771z" fill="#FFFFFF" opacity="0.27"/><path d="M334.802,346.596c-0.45,0-0.875-0.274-1.075-0.699l-75.748-165.83l-129.449,146.83    c-0.45,0.5-1.2,0.524-1.7,0.1c-0.475-0.425-0.55-1.2-0.1-1.7l130.673-148.204c0.275-0.3,0.676-0.45,1.075-0.375    c0.4,0.05,0.75,0.3,0.925,0.675l76.5,167.505c0.274,0.6,0,1.3-0.601,1.574C335.152,346.546,334.977,346.596,334.802,346.596z" fill="#D1D3D4"/><path d="M263.103,179.642h-9.824c-0.65,0-1.175-0.525-1.175-1.175c0-0.675,0.525-1.225,1.175-1.225h9.824    c0.65,0,1.2,0.55,1.2,1.225C264.303,179.117,263.753,179.642,263.103,179.642z" fill="#D1D3D4"/><path d="M257.553,179.217c-0.125,0-0.25-0.025-0.4-0.075c-0.625-0.225-0.949-0.9-0.725-1.525    c1.15-3.25,4.025-10.95,6.05-12.075c0.601-0.3,1.325-0.1,1.625,0.5c0.325,0.575,0.101,1.3-0.475,1.625    c-0.9,0.6-3.3,6.05-4.95,10.75C258.503,178.892,258.053,179.217,257.553,179.217z" fill="#D1D3D4"/><path d="M257.902,178.617c-0.574,0-1.074-0.425-1.174-1c-0.55-2.975-2.5-9.325-5.05-9.85    c-0.625-0.125-1.075-0.75-0.925-1.399c0.125-0.65,0.775-1.075,1.4-0.925c4.825,0.95,6.725,10.65,6.925,11.75    c0.125,0.65-0.325,1.275-0.976,1.4C258.053,178.592,257.979,178.617,257.902,178.617z" fill="#D1D3D4"/></g></g><g/><g/><g/><g/><g/><g/></svg>