<?xml version="1.0" ?><!DOCTYPE svg  PUBLIC '-//W3C//DTD SVG 1.1//EN'  'http://www.w3.org/Graphics/SVG/1.1/DTD/svg11.dtd'><svg enable-background="new 0 0 512 512" height="512px" id="Calque_1" version="1.1" viewBox="0 0 512 512" width="512px" xml:space="preserve" xmlns="http://www.w3.org/2000/svg" xmlns:xlink="http://www.w3.org/1999/xlink"><g><path d="M512,256c0,141.388-114.625,256-255.994,256C114.612,512,0,397.388,0,256S114.612,0,256.006,0   C397.375,0,512,114.612,512,256z" fill="#EFC84A"/><g id="battery_1_"><path clip-rule="evenodd" d="M344.35,274.275c0,9.087,7.375,16.449,16.476,16.449h7.7    c9.1,0,16.449-7.362,16.449-16.449v-36.538c0-9.087-7.35-16.462-16.449-16.462h-7.7c-9.101,0-16.476,7.375-16.476,16.462V274.275z    " fill="#344E5D" fill-rule="evenodd"/><path d="M343.1,216.9v78.2H145.531v-78.2H343.1 M351.325,198.388H137.3c-5.681,0-10.287,4.6-10.287,10.287v94.65    c0,5.688,4.606,10.3,10.287,10.3h214.025c5.7,0,10.3-4.612,10.3-10.3v-94.65C361.625,202.987,357.025,198.388,351.325,198.388    L351.325,198.388z" fill="#FFFFFF"/><rect clip-rule="evenodd" fill="#E2574C" fill-rule="evenodd" height="59.675" width="35.144" x="157.669" y="226.163"/></g></g><g/><g/><g/><g/><g/><g/></svg>