<?xml version="1.0" ?><!DOCTYPE svg  PUBLIC '-//W3C//DTD SVG 1.1//EN'  'http://www.w3.org/Graphics/SVG/1.1/DTD/svg11.dtd'><svg enable-background="new 0 0 512 512" height="512px" id="Calque_1" version="1.1" viewBox="0 0 512 512" width="512px" xml:space="preserve" xmlns="http://www.w3.org/2000/svg" xmlns:xlink="http://www.w3.org/1999/xlink"><g><path d="M512,256c0,141.388-114.625,256-255.994,256C114.606,512,0,397.388,0,256S114.606,0,256.006,0   C397.375,0,512,114.612,512,256z" fill="#CFD5D6"/><g id="indd"><g><path d="M151.906,375.9c0,4.75,3.875,8.6,8.625,8.6h190.943c4.775,0,8.625-3.85,8.625-8.6V188.344l-60.85-60.85     H160.531c-4.75,0-8.625,3.863-8.625,8.613V375.9z" fill="#E03092"/><g><path d="M196.881,235.606v40.669h-9.225v-40.669H196.881z" fill="#FFFFFF"/><path d="M204.831,276.275v-40.669h10.75l8.438,14.9c2.413,4.288,4.825,9.363,6.638,13.937h0.175      c-0.6-5.362-0.775-10.862-0.775-16.95v-11.887h8.45v40.669h-9.663l-8.688-15.694c-2.413-4.337-5.075-9.587-7.05-14.35      l-0.188,0.05c0.237,5.375,0.362,11.112,0.362,17.75v12.244H204.831z" fill="#FFFFFF"/><path d="M246.431,236.144c3.388-0.537,7.788-0.837,12.438-0.837c7.725,0,12.73,1.388,16.656,4.337      c4.225,3.138,6.875,8.15,6.875,15.325c0,7.787-2.851,13.162-6.75,16.481c-4.301,3.55-10.807,5.25-18.769,5.25      c-4.775,0-8.15-0.3-10.45-0.601V236.144z M255.669,269.325c0.787,0.2,2.05,0.2,3.2,0.2c8.324,0.05,13.756-4.531,13.756-14.244      c0.05-8.45-4.894-12.913-12.794-12.913c-2.05,0-3.375,0.175-4.162,0.363V269.325z" fill="#FFFFFF"/><path d="M288.4,236.144c3.375-0.537,7.8-0.837,12.449-0.837c7.7,0,12.726,1.388,16.625,4.337      c4.226,3.138,6.9,8.15,6.9,15.325c0,7.787-2.85,13.162-6.775,16.481c-4.274,3.55-10.8,5.25-18.75,5.25      c-4.774,0-8.149-0.3-10.449-0.601V236.144z M297.625,269.325c0.8,0.2,2.075,0.2,3.225,0.2c8.301,0.05,13.75-4.531,13.75-14.244      c0.051-8.45-4.899-12.913-12.8-12.913c-2.05,0-3.375,0.175-4.175,0.363V269.325z" fill="#FFFFFF"/></g></g><g><polygon fill="#B7217A" opacity="0.65" points="360.1,188.331 356.875,185.106 301.4,185.194 360.1,244.406    "/><path d="M299.25,127.494v52.225c0,4.763,3.875,8.625,8.625,8.625H360.1v-0.013L299.25,127.494z" fill="#EA85B6"/></g></g></g><g/><g/><g/><g/><g/><g/></svg>