<?xml version="1.0" ?><!DOCTYPE svg  PUBLIC '-//W3C//DTD SVG 1.1//EN'  'http://www.w3.org/Graphics/SVG/1.1/DTD/svg11.dtd'><svg enable-background="new 0 0 512 512" height="512px" id="Calque_1" version="1.1" viewBox="0 0 512 512" width="512px" xml:space="preserve" xmlns="http://www.w3.org/2000/svg" xmlns:xlink="http://www.w3.org/1999/xlink"><g><path d="M512.003,256c0,141.388-114.612,256-256,256s-256-114.612-256-256s114.612-256,256-256   S512.003,114.612,512.003,256z" fill="#43B39C"/><g id="lock"><path d="M363.953,384.575c0,1.899-1.525,3.45-3.426,3.45H151.484c-1.9,0-3.444-1.551-3.444-3.45V227.656    c0-1.888,1.543-3.438,3.444-3.438h209.043c1.9,0,3.426,1.55,3.426,3.438V384.575z" fill="#EFC84A"/><path d="M363.953,271.125c0,1.9-1.525,3.45-3.426,3.45H151.484c-1.9,0-3.444-1.55-3.444-3.45v-43.469    c0-1.888,1.543-3.438,3.444-3.438h209.043c1.9,0,3.426,1.55,3.426,3.438V271.125z" fill="#D7B442"/><g><path d="M210.934,250.131c0,3.875-8.087,7.012-18.043,7.012c-9.963,0-18.05-3.137-18.05-7.012     c0-3.863,8.087-7.013,18.05-7.013C202.847,243.119,210.934,246.269,210.934,250.131z" fill="#B48D2E"/><path d="M337.152,250.206c0,3.875-8.074,7.013-18.049,7.013c-9.951,0-18.038-3.138-18.038-7.013     s8.087-7.025,18.038-7.025C329.078,243.181,337.152,246.331,337.152,250.206z" fill="#B48D2E"/></g><path d="M329.503,193.031c-2.375-38.462-34.399-69.05-73.45-69.05c-39.056,0-71.081,30.587-73.438,69.05h-0.244    v55.425c0,0.038-0.019,0.075-0.019,0.113c0,1.887,4.637,3.425,10.356,3.425c5.725,0,10.356-1.525,10.356-3.425l0.013,0.012v-51    c0-29.212,23.762-52.975,52.975-52.975c29.2,0,52.975,23.762,52.975,52.975v50.763c-0.012,0.075-0.024,0.15-0.024,0.225    c0,1.887,4.625,3.425,10.325,3.425c5.688,0,10.3-1.525,10.324-3.413l0,0v-55.55H329.503z" fill="#E6E7E8"/><path d="M252.778,144.469l0.063,0.25c1.063-0.063,2.138-0.112,3.212-0.112    c29.2,0,52.975,23.762,52.975,52.975v50.763c-0.012,0.075-0.024,0.15-0.024,0.225c0,1.887,4.625,3.425,10.325,3.425    c0.3,0,0.6,0,0.887-0.012c0-5.788,0-21.7,0-59.838C320.215,140.169,252.778,144.469,252.778,144.469z" fill="#D1D3D4" opacity="0.27"/><path d="M253.184,124.069c-37.737,1.45-68.269,31.45-70.569,68.962h-0.244v55.425    c0,0.038-0.019,0.075-0.019,0.113c0,1.887,4.637,3.425,10.356,3.425c0.3,0,0.594,0,0.875-0.012    c2.075-49.913-7.256-64.513,20.963-104.513C225.122,132.494,239.215,126.044,253.184,124.069z" fill="#D1D3D4" opacity="0.27"/><g><path d="M269.315,316.3c0-7.375-5.962-13.325-13.319-13.325c-7.344,0-13.306,5.95-13.306,13.325     c0,4.125,1.894,7.851,4.875,10.275l-4.669,28.375h26.207l-4.663-28.375C267.416,324.15,269.315,320.425,269.315,316.3z" fill="#754C29"/></g></g></g><g/><g/><g/><g/><g/><g/></svg>