<?xml version="1.0" ?><!DOCTYPE svg  PUBLIC '-//W3C//DTD SVG 1.1//EN'  'http://www.w3.org/Graphics/SVG/1.1/DTD/svg11.dtd'><svg enable-background="new 0 0 512 512" height="512px" id="Calque_1" version="1.1" viewBox="0 0 512 512" width="512px" xml:space="preserve" xmlns="http://www.w3.org/2000/svg" xmlns:xlink="http://www.w3.org/1999/xlink"><g><path d="M512,256c0,141.388-114.612,256-256,256S0,397.388,0,256S114.612,0,256,0S512,114.612,512,256z" fill="#EBEEEF"/><g id="cream"><path d="M243.406,379c0,3.275,2.65,5.925,5.925,5.925h13.338c3.274,0,5.925-2.649,5.925-5.925v-98.55    c0-3.275-2.65-5.925-5.925-5.925h-13.338c-3.275,0-5.925,2.649-5.925,5.925V379z" fill="#EABC8E"/><path d="M243.406,310.938v17.313l25.188,12.85v-42.112C260.943,294.537,249.85,292.425,243.406,310.938z" fill="#CEA684"/><path d="M281.563,127.075h-51.125c-16.369,0-29.638,13.275-29.638,29.637V223.4h110.4v-66.688    C311.2,140.35,297.925,127.075,281.563,127.075z" fill="#39B54A"/><path d="M281.563,127.075h-51.125c-16.369,0-29.638,13.275-29.638,29.637v11.863    c0-16.363,13.269-29.638,29.638-29.638h51.125c16.362,0,29.638,13.275,29.638,29.638v-11.863    C311.2,140.35,297.925,127.075,281.563,127.075z" fill="#F9ED32" opacity="0.2"/><g><defs><path d="M281.563,127.075h-51.125c-16.369,0-29.638,13.275-29.638,29.637V223.4h110.4v-66.688      C311.2,140.35,297.925,127.075,281.563,127.075z" id="SVGID_1_"/></defs><clipPath id="SVGID_2_"><use overflow="visible" xlink:href="#SVGID_1_"/></clipPath><path clip-path="url(#SVGID_2_)" d="M268.594,271.838c0,4.762,3.856,8.612,8.619,8.612l0,0     c4.762,0,8.612-3.851,8.612-8.612v-110.95c0-4.763-3.851-8.625-8.612-8.625l0,0c-4.763,0-8.619,3.862-8.619,8.625V271.838z" fill="#009444"/><path clip-path="url(#SVGID_2_)" d="M227.075,271.838c0,4.762,3.856,8.612,8.612,8.612l0,0     c4.756,0,8.612-3.851,8.612-8.612v-110.95c0-4.763-3.856-8.625-8.612-8.625l0,0c-4.756,0-8.612,3.862-8.612,8.625V271.838z" fill="#009444"/></g><path d="M281.563,318.287h-51.125c-16.369,0-29.638-13.262-29.638-29.637v-66.675h110.4v66.675    C311.2,305.025,297.925,318.287,281.563,318.287z" fill="#EFC84A"/><path d="M281.563,318.287h-51.125c-16.369,0-29.638-13.262-29.638-29.637v-11.863    c0,16.375,13.269,29.638,29.638,29.638h51.125c16.362,0,29.638-13.263,29.638-29.638v11.863    C311.2,305.025,297.925,318.287,281.563,318.287z" fill="#F3B459"/><g><defs><path d="M281.563,318.287h-51.125c-16.369,0-29.638-13.262-29.638-29.637v-66.675h110.4v66.675      C311.2,305.025,297.925,318.287,281.563,318.287z" id="SVGID_3_"/></defs><clipPath id="SVGID_4_"><use overflow="visible" xlink:href="#SVGID_3_"/></clipPath><path clip-path="url(#SVGID_4_)" d="M268.594,173.538c0-4.763,3.856-8.613,8.619-8.613l0,0     c4.762,0,8.612,3.85,8.612,8.613v110.95c0,4.763-3.851,8.612-8.612,8.612l0,0c-4.763,0-8.619-3.85-8.619-8.612V173.538z" fill="#D98D39"/><path clip-path="url(#SVGID_4_)" d="M227.075,173.538c0-4.763,3.856-8.613,8.612-8.613l0,0     c4.756,0,8.612,3.85,8.612,8.613v110.95c0,4.763-3.856,8.612-8.612,8.612l0,0c-4.756,0-8.612-3.85-8.612-8.612V173.538z" fill="#D98D39"/></g></g></g><g/><g/><g/><g/><g/><g/></svg>