<?xml version="1.0" ?><!DOCTYPE svg  PUBLIC '-//W3C//DTD SVG 1.1//EN'  'http://www.w3.org/Graphics/SVG/1.1/DTD/svg11.dtd'><svg enable-background="new 0 0 512 512" height="512px" id="Calque_1" version="1.1" viewBox="0 0 512 512" width="512px" xml:space="preserve" xmlns="http://www.w3.org/2000/svg" xmlns:xlink="http://www.w3.org/1999/xlink"><g><path d="M512,256c0,141.388-114.612,256-256,256S0,397.388,0,256S114.612,0,256,0S512,114.612,512,256z" fill="#A1C656"/><g id="umbrella"><path d="M259.225,211.487h-7.062c0.5,1.825,0.788,3.738,0.788,5.713v139.763c0,11.837-9.625,21.462-21.463,21.462    c-11.45,0-20.8-9.013-21.412-20.325h-6.838c0.6,15.088,13.025,27.188,28.25,27.188c15.613,0,28.313-12.712,28.313-28.324V217.2    C259.8,215.25,259.612,213.337,259.225,211.487z" fill="#2D4453"/><path d="M169.625,232.913c19.413,0,36.063,6.45,43.237,15.65c7.175-9.2,23.825-15.65,43.225-15.65    c19.387,0,36.05,6.45,43.225,15.65c7.175-9.2,23.825-15.65,43.225-15.65c15.575,0,29.375,4.163,37.926,10.575    C376.362,182.263,322.037,133.8,255.6,133.8c-66.738,0-121.263,48.888-124.95,110.488    C139.1,237.425,153.4,232.913,169.625,232.913z" fill="#44B39D"/><path d="M256.837,134.413V133.8h-2.05v1.013c-6.525,4.775-51.813,40.913-41.925,113.75    c7.1-9.1,23.475-15.5,42.6-15.638v-0.012h1.25v0.012c19.113,0.138,35.488,6.538,42.6,15.638    C309.537,173.1,260.537,137.025,256.837,134.413z" fill="#70C7B3"/><path d="M260.138,131.05c0,2.4-1.95,4.35-4.35,4.35s-4.325-1.95-4.325-4.35c0-2.4,1.925-4.337,4.325-4.337    S260.138,128.65,260.138,131.05z" fill="#F9ED32"/><path d="M133.513,246.388c0,1.637-1.325,2.962-2.975,2.962c-1.638,0-2.95-1.325-2.95-2.962    c0-1.638,1.313-2.963,2.95-2.963C132.188,243.425,133.513,244.75,133.513,246.388z" fill="#F9ED32"/><path d="M215.788,246.388c0,1.637-1.35,2.962-2.975,2.962c-1.65,0-2.975-1.325-2.975-2.962    c0-1.638,1.325-2.963,2.975-2.963C214.438,243.425,215.788,244.75,215.788,246.388z" fill="#F9ED32"/><path d="M302.162,246.388c0,1.637-1.337,2.962-2.975,2.962c-1.65,0-2.975-1.325-2.975-2.962    c0-1.638,1.324-2.963,2.975-2.963C300.825,243.425,302.162,244.75,302.162,246.388z" fill="#F9ED32"/><path d="M384.412,246.388c0,1.637-1.324,2.962-2.975,2.962c-1.638,0-2.95-1.325-2.95-2.962    c0-1.638,1.313-2.963,2.95-2.963C383.088,243.425,384.412,244.75,384.412,246.388z" fill="#F9ED32"/><path d="M256.837,133.8" fill="#2D4453"/><path d="M353.588,233.663c10.949,1.438,20.425,4.975,26.875,9.825    c-3.625-53.887-46.125-97.875-101.563-107.65C332.225,156.362,348.888,211.063,353.588,233.663z" fill="#2D8E77" opacity="0.2"/></g></g><g/><g/><g/><g/><g/><g/></svg>