<?xml version="1.0" ?><!DOCTYPE svg  PUBLIC '-//W3C//DTD SVG 1.1//EN'  'http://www.w3.org/Graphics/SVG/1.1/DTD/svg11.dtd'><svg enable-background="new 0 0 512 512" height="512px" id="Calque_1" version="1.1" viewBox="0 0 512 512" width="512px" xml:space="preserve" xmlns="http://www.w3.org/2000/svg" xmlns:xlink="http://www.w3.org/1999/xlink"><g><path d="M512,256c0,141.386-114.599,255.997-255.991,255.997C114.623,511.997,0,397.386,0,256   S114.623,0.003,256.009,0.003C397.401,0.003,512,114.614,512,256z" fill="#35707F"/><g id="user"><path d="M313.952,216.663c0,0-11.25,50.212,12.975,68.387c0,0-4.725,18.087-26.6,13.813    c-21.85-4.3-26.175-20.75-26.175-20.75l11.25-42.399L313.952,216.663z" fill="#533A2D"/><path d="M200.072,202.813c0,0,11.625,58.611-13.399,79.823c0,0,4.899,21.113,27.475,16.101    c22.574-4.987,27.049-24.188,27.049-24.188l-11.625-49.512L200.072,202.813z" fill="#453129"/><path d="M229.747,257.838c0,0-0.625,29.437-14.4,40.699c0,0,43.825,33.199,85.78,0.625    c0,0-16.299-8.75-19.424-37.563C278.578,232.8,229.747,257.838,229.747,257.838z" fill="#E6B984"/><path d="M282.027,264.1l-12.8-15.987c-13.231-2.237-32.855,6.55-38.131,9.075c-0.475,0.35-0.925,0.725-1.375,1.1    c-0.05,1.551-0.35,6.95-1.575,13.525c7.9,4.475,26.975,13.274,32,11.699c5.1-1.574,16.856-8.487,23.381-11.699    C282.928,269.438,282.402,266.862,282.027,264.1z" fill="#D8A97C"/><path d="M384.826,386.611c-3-16.476-17.25-60.649-84.499-87.749c0,0-15.024,11.787-45.38,9.699    c-11.7-0.8-21.15-3.575-39.6-10.024c0,0-79.599,32.649-88.174,88.074H384.826z" fill="#D1D3D4"/><path d="M203.922,303.924c8.2,9.888,37.774,44.263,52.699,45.388c14.756,1.125,44.581-36.013,52.731-46.562    c-2.9-1.325-5.875-2.625-9.025-3.888c0,0-15.024,11.787-45.38,9.699c-11.7-0.8-21.15-3.575-39.6-10.024    C215.347,298.537,210.847,300.412,203.922,303.924z" fill="#E6E7E8"/><path d="M237.872,131.376c0,0-68.85,8.137-29.425,91.412c0,0,13.775,44.449,45.699,56.349    c0,0,4.4,2.513,10.65-0.625c6.281-3.125,36.905-27.974,39.405-51.124c0,0,27.6-26.524,17.575-65.324    C311.752,123.239,245.396,119.477,237.872,131.376z" fill="#F0D2B1"/><path d="M206.447,213.4c0.65,1.438,1.3,2.888,2,4.375c0,0,0.05,0.112,0.1,0.275    c5.225-11.538,21-43.938,36.375-51.612c0,0,19.399,16.275,33.181,21.287c13.774,5,25.899,17.525,25.274,41.012    c0.4-17.075,0.4-62.924,0.4-62.924S203.947,73.79,206.447,213.4z" fill="#E5B680" opacity="0.72"/><path d="M248.047,162.863c0,0,87.23-38.224,1.1-36.699c-5.6,0.975-9.7,2.8-11.274,5.325    c0,0-68.85,8.325-29.425,93.474C206.422,185.264,248.047,162.863,248.047,162.863z" fill="#453129"/><path d="M321.777,162.063c-10.025-38.824-76.381-42.587-83.905-30.687c0,0,1.425,41.325,37.105,50.087    c35.675,8.775,27.399,54.462,27.399,54.462S331.802,200.863,321.777,162.063z" fill="#533A2D"/><path d="M221.122,150.164c0,0-1.2,1.412-3,3.55c-0.85,1.063-1.9,2.275-2.925,3.6    c-0.55,0.663-1.05,1.375-1.6,2.088c-0.55,0.7-1.025,1.438-1.55,2.175c-0.5,0.737-0.975,1.487-1.45,2.225    c-0.425,0.763-0.925,1.488-1.3,2.213c-0.325,0.775-0.775,1.462-1.05,2.175c-0.275,0.7-0.625,1.362-0.85,2    c-0.2,0.638-0.4,1.225-0.6,1.737c-0.175,0.538-0.25,1.013-0.35,1.413c-0.2,0.774-0.35,1.237-0.35,1.237s-0.075-0.463-0.15-1.288    c-0.025-0.4-0.125-0.925-0.1-1.5c0.05-0.575,0.075-1.225,0.149-1.95c0.1-0.726,0.3-1.476,0.475-2.288    c0.175-0.813,0.525-1.612,0.825-2.462c0.35-0.838,0.75-1.675,1.2-2.5c0.45-0.825,0.95-1.65,1.475-2.425    c0.575-0.762,1.1-1.563,1.725-2.275c0.6-0.7,1.2-1.388,1.825-2.025c0.6-0.65,1.25-1.2,1.875-1.75c0.575-0.55,1.2-1.012,1.75-1.45    C219.397,150.964,221.122,150.164,221.122,150.164z" fill="#FBF7C1" opacity="0.65"/><path d="M300.327,298.862c0,0-33.105,40.724-41.331,45.474c-8.225,4.775-44.574-45.324-44.574-45.324l9.3-4.125" fill="#E6B984"/></g></g><g/><g/><g/><g/><g/><g/></svg>