<?xml version="1.0" ?><!DOCTYPE svg  PUBLIC '-//W3C//DTD SVG 1.1//EN'  'http://www.w3.org/Graphics/SVG/1.1/DTD/svg11.dtd'><svg enable-background="new 0 0 512 512" height="512px" id="Calque_1" version="1.1" viewBox="0 0 512 512" width="512px" xml:space="preserve" xmlns="http://www.w3.org/2000/svg" xmlns:xlink="http://www.w3.org/1999/xlink"><g><path d="M512,256c0,141.386-114.599,255.997-255.991,255.997C114.623,511.997,0,397.386,0,256   S114.623,0.003,256.009,0.003C397.401,0.003,512,114.614,512,256z" fill="#EFC84A"/><g id="prohibited"><path d="M255.984,165.188c50.068,0,90.817,40.737,90.817,90.812s-40.749,90.812-90.817,90.812    c-50.074,0-90.799-40.737-90.799-90.812S205.91,165.188,255.984,165.188 M255.984,128.526    c-70.399,0-127.474,57.074-127.474,127.474c0,70.412,57.074,127.474,127.474,127.474c70.418,0,127.492-57.062,127.492-127.474    C383.477,185.601,326.402,128.526,255.984,128.526L255.984,128.526z" fill="#E2574C"/><polygon fill="#E2574C" points="325.277,343.361 166.01,184.088 191.935,158.151 351.201,317.437   "/></g></g><g/><g/><g/><g/><g/><g/></svg>