<?xml version="1.0" ?><!DOCTYPE svg  PUBLIC '-//W3C//DTD SVG 1.1//EN'  'http://www.w3.org/Graphics/SVG/1.1/DTD/svg11.dtd'><svg enable-background="new 0 0 512 512" height="512px" id="Calque_1" version="1.1" viewBox="0 0 512 512" width="512px" xml:space="preserve" xmlns="http://www.w3.org/2000/svg" xmlns:xlink="http://www.w3.org/1999/xlink"><g><path d="M512,256c0,141.388-114.612,256-256,256S0,397.388,0,256S114.612,0,256,0S512,114.612,512,256z" fill="#EBEEEF"/><g id="money"><g><g><polygon fill="#00A084" points="160.563,345.3 364.65,281.2 330.825,173.581 126.756,237.694     "/><path d="M322.625,189.294l26.3,83.706l-180.156,56.6l-26.3-83.706L322.625,189.294 M330.825,173.581      l-204.069,64.113L160.563,345.3l204.088-64.1L330.825,173.581L330.825,173.581z" fill="#43B39C"/></g><path d="M309.037,196.194c2,6.387,8.801,9.925,15.188,7.925c6.375-2.012,9.926-8.813,7.926-15.188     s-8.801-9.925-15.2-7.925C310.575,183.006,307.025,189.806,309.037,196.194z" fill="#43B39C"/><path d="M134.344,251.081c2.006,6.375,8.806,9.913,15.188,7.913c6.381-2,9.938-8.8,7.931-15.188     c-2.006-6.375-8.813-9.938-15.194-7.925C135.888,237.881,132.337,244.694,134.344,251.081z" fill="#43B39C"/><path d="M158.775,328.825c2,6.399,8.806,9.95,15.188,7.95c6.388-2.025,9.931-8.825,7.925-15.2     c-2-6.375-8.8-9.925-15.188-7.925C160.319,315.65,156.769,322.45,158.775,328.825z" fill="#43B39C"/><path d="M333.838,275.15c2.012,6.399,8.8,9.949,15.188,7.925c6.387-2,9.938-8.8,7.925-15.182     c-2-6.388-8.8-9.938-15.175-7.925C335.375,261.969,331.838,268.769,333.838,275.15z" fill="#43B39C"/><path d="M273.4,250.744c4.8,15.313-3.7,31.606-19,36.407c-15.3,4.8-31.594-3.7-36.4-19.007     c-4.813-15.3,3.7-31.6,18.994-36.4C252.3,226.944,268.594,235.444,273.4,250.744z" fill="#067A64"/><g><path d="M248.725,274.075l-1.181-3.775c-2.575,0.625-4.713,0.675-6.381,0.101      c-1.688-0.551-2.788-1.656-3.306-3.307c-0.256-0.825-0.213-1.575,0.15-2.263c0.344-0.7,0.938-1.175,1.769-1.425      c0.725-0.225,1.394-0.213,2.006,0.075c0.612,0.287,1.025,0.75,1.237,1.412c0.2,0.663,0.169,1.237-0.125,1.737      c-0.281,0.513-0.781,0.875-1.494,1.101l-0.237,0.063c0.793,0.425,1.656,0.662,2.575,0.7c0.932,0.037,1.963-0.113,3.094-0.45      l-2.106-6.713c-2.85,0.2-5.019-0.024-6.494-0.662c-1.475-0.638-2.469-1.763-2.975-3.388c-0.55-1.737-0.344-3.4,0.619-4.975      c0.962-1.575,2.563-2.862,4.8-3.85l-0.85-2.737l2.438-0.763l0.85,2.738c2.144-0.575,4.057-0.575,5.738-0.025      c1.688,0.575,2.744,1.512,3.15,2.825c0.256,0.8,0.219,1.538-0.112,2.188c-0.332,0.663-0.863,1.113-1.606,1.35      c-0.725,0.225-1.394,0.2-1.987-0.038c-0.606-0.262-1.013-0.688-1.2-1.288c-0.175-0.563-0.112-1.087,0.194-1.575      c0.3-0.475,0.813-0.837,1.525-1.1c-0.712-0.337-1.494-0.5-2.319-0.525c-0.819,0-1.712,0.137-2.668,0.438l2.012,6.413      c3.063-0.388,5.413-0.263,7.075,0.375c1.656,0.638,2.769,1.85,3.319,3.625c0.612,1.925,0.375,3.7-0.713,5.3      c-1.075,1.6-2.931,2.9-5.537,3.919l1.175,3.725L248.725,274.075z M241.413,250.781c-1.1,0.5-1.863,1.1-2.3,1.788      c-0.425,0.688-0.506,1.462-0.25,2.3c0.244,0.763,0.719,1.3,1.419,1.575c0.712,0.288,1.694,0.35,2.975,0.188L241.413,250.781z       M249.269,267.219c1.394-0.5,2.369-1.138,2.932-1.875c0.563-0.75,0.693-1.6,0.387-2.55c-0.262-0.851-0.8-1.413-1.612-1.688      c-0.813-0.275-2.031-0.3-3.669-0.075L249.269,267.219z" fill="#77CAB7"/></g></g><polygon fill="#095F4E" opacity="0.4" points="126.756,237.694 156.75,321.075 261.956,313.725 325.875,293.25 142.669,232.769       "/><g><g><polygon fill="#00A084" points="156.75,321.075 367.862,286.6 349.675,175.269 138.581,209.744     "/><path d="M339.338,189.656l14.137,86.594l-186.368,30.425l-14.144-86.581L339.338,189.656 M349.675,175.269      l-211.094,34.475l18.169,111.332L367.862,286.6L349.675,175.269L349.675,175.269z" fill="#43B39C"/></g><path d="M324.9,194.544c1.074,6.612,7.3,11.087,13.912,10.012c6.6-1.075,11.075-7.313,10-13.913     c-1.088-6.6-7.313-11.075-13.912-10C328.3,181.719,323.825,187.944,324.9,194.544z" fill="#43B39C"/><path d="M144.181,224.056c1.082,6.613,7.313,11.087,13.913,10.013c6.6-1.087,11.081-7.313,10.006-13.913     c-1.082-6.6-7.313-11.1-13.913-10C147.587,211.231,143.112,217.456,144.181,224.056z" fill="#43B39C"/><path d="M157.319,304.5c1.081,6.6,7.306,11.1,13.913,10c6.6-1.075,11.081-7.3,10-13.9     c-1.069-6.6-7.3-11.074-13.913-10C160.725,291.675,156.244,297.9,157.319,304.5z" fill="#43B39C"/><path d="M338.237,276.25c1.075,6.575,7.3,11.075,13.913,9.975c6.6-1.05,11.074-7.274,10-13.899     c-1.075-6.594-7.301-11.081-13.913-9.994C341.638,263.406,337.15,269.625,338.237,276.25z" fill="#43B39C"/><path d="M281.875,243.481c2.588,15.837-8.15,30.769-23.975,33.344c-15.825,2.575-30.757-8.144-33.338-23.981     c-2.587-15.825,8.156-30.75,23.975-33.337C264.369,216.919,279.3,227.669,281.875,243.481z" fill="#067A64"/><g><path d="M254.138,263.068l-0.631-3.899c-2.638,0.25-4.756,0-6.337-0.8c-1.588-0.788-2.519-2.025-2.794-3.738      c-0.144-0.85,0.006-1.587,0.462-2.238c0.444-0.625,1.094-1.012,1.957-1.15c0.75-0.125,1.406,0,1.975,0.363      c0.569,0.362,0.906,0.887,1.019,1.563c0.112,0.688-0.006,1.262-0.363,1.712c-0.35,0.462-0.894,0.75-1.637,0.875l-0.25,0.038      c0.725,0.525,1.556,0.887,2.456,1.05c0.913,0.162,1.95,0.162,3.131-0.013l-1.138-6.938c-2.85-0.212-4.956-0.725-6.331-1.575      c-1.369-0.837-2.194-2.1-2.469-3.775c-0.294-1.8,0.144-3.413,1.319-4.838c1.181-1.438,2.95-2.475,5.306-3.125l-0.462-2.837      l2.519-0.4l0.462,2.825c2.2-0.263,4.094,0,5.682,0.8c1.587,0.8,2.5,1.875,2.719,3.237c0.131,0.825-0.007,1.538-0.432,2.138      c-0.412,0.612-1,0.975-1.774,1.112c-0.75,0.113-1.413,0-1.969-0.325c-0.563-0.337-0.894-0.813-0.994-1.438      c-0.094-0.587,0.038-1.1,0.406-1.525c0.381-0.438,0.931-0.725,1.662-0.888c-0.656-0.425-1.399-0.712-2.212-0.837      s-1.719-0.113-2.707,0.063l1.082,6.625c3.081,0.05,5.399,0.5,6.95,1.362c1.55,0.875,2.475,2.225,2.769,4.063      c0.337,2-0.156,3.725-1.456,5.15c-1.294,1.425-3.307,2.45-6.032,3.088l0.631,3.862L254.138,263.068z M250.206,238.981      c-1.156,0.337-2.006,0.813-2.531,1.438c-0.519,0.625-0.712,1.375-0.568,2.25c0.131,0.787,0.525,1.387,1.175,1.762      c0.663,0.375,1.631,0.575,2.913,0.6L250.206,238.981z M255.644,256.356c1.456-0.3,2.507-0.775,3.169-1.438      c0.669-0.65,0.912-1.475,0.756-2.463c-0.144-0.875-0.594-1.5-1.362-1.9c-0.769-0.375-1.969-0.575-3.619-0.587L255.644,256.356z" fill="#77CAB7"/></g></g><polygon fill="#095F4E" opacity="0.4" points="157.506,206.769 169.619,283.625 350.1,289.5 367.862,286.6 364.725,269.425     171.65,204.419   "/><g><g><rect fill="#00A084" height="112.806" width="213.913" x="171.337" y="166.694"/><path d="M372.7,179.231v87.725H183.869v-87.725H372.7 M385.25,166.694H171.337V279.5H385.25V166.694      L385.25,166.694z" fill="#43B39C"/></g><circle cx="369.788" cy="181.731" fill="#43B39C" r="12.113"/><path d="M174.563,181.731c0,6.688,5.425,12.112,12.112,12.112c6.694,0,12.119-5.425,12.119-12.112     s-5.425-12.113-12.119-12.113C179.987,169.619,174.563,175.044,174.563,181.731z" fill="#43B39C"/><path d="M174.563,263.256c0,6.694,5.425,12.094,12.112,12.094c6.694,0,12.119-5.399,12.119-12.094     c0-6.7-5.425-12.125-12.119-12.125C179.987,251.131,174.563,256.556,174.563,263.256z" fill="#43B39C"/><path d="M357.675,264.506c0,6.694,5.425,12.119,12.112,12.119S381.9,271.2,381.9,264.506     c0-6.699-5.426-12.112-12.113-12.112S357.675,257.807,357.675,264.506z" fill="#43B39C"/><path d="M307.325,223.094c0,16.038-13,29.05-29.038,29.05c-16.037,0-29.037-13.012-29.037-29.05     c0-16.025,13-29.038,29.037-29.038C294.325,194.056,307.325,207.069,307.325,223.094z" fill="#067A64"/><g><path d="M276.8,237.944v-3.938c-2.649-0.175-4.7-0.775-6.125-1.813c-1.45-1.038-2.169-2.413-2.169-4.138      c0-0.862,0.275-1.575,0.819-2.125c0.55-0.55,1.25-0.837,2.125-0.837c0.763,0,1.388,0.225,1.899,0.688      c0.5,0.438,0.75,1.013,0.75,1.712c0,0.688-0.225,1.225-0.649,1.625c-0.425,0.388-1,0.587-1.75,0.587h-0.25      c0.625,0.65,1.388,1.125,2.263,1.438c0.862,0.313,1.887,0.475,3.087,0.5v-7.037c-2.787-0.663-4.774-1.525-6-2.575      c-1.225-1.05-1.825-2.425-1.825-4.125c0-1.825,0.7-3.35,2.075-4.563c1.4-1.225,3.3-1.962,5.75-2.237v-2.85h2.55v2.85      c2.213,0.1,4.038,0.675,5.476,1.712s2.149,2.25,2.149,3.625c0,0.837-0.25,1.512-0.75,2.05c-0.512,0.538-1.149,0.8-1.949,0.8      c-0.75,0-1.375-0.2-1.875-0.625c-0.5-0.425-0.75-0.95-0.75-1.575c0-0.6,0.199-1.075,0.649-1.438      c0.425-0.375,1.025-0.575,1.775-0.6c-0.575-0.55-1.275-0.938-2.05-1.188c-0.775-0.262-1.676-0.387-2.676-0.387v6.725      c3.025,0.525,5.25,1.35,6.625,2.463c1.4,1.1,2.088,2.6,2.088,4.45c0,2.038-0.75,3.65-2.263,4.85s-3.662,1.888-6.45,2.075v3.9      H276.8z M276.8,213.556c-1.2,0.138-2.112,0.475-2.737,1.013c-0.612,0.525-0.925,1.237-0.925,2.125      c0,0.8,0.287,1.438,0.888,1.925c0.574,0.475,1.5,0.837,2.774,1.063V213.556z M279.362,231.581      c1.487-0.063,2.612-0.362,3.362-0.912c0.75-0.538,1.138-1.313,1.138-2.313c0-0.888-0.35-1.588-1.037-2.088      c-0.688-0.512-1.851-0.9-3.476-1.175L279.362,231.581z" fill="#77CAB7"/></g></g></g></g><g/><g/><g/><g/><g/><g/></svg>