<?xml version="1.0" ?><!DOCTYPE svg  PUBLIC '-//W3C//DTD SVG 1.1//EN'  'http://www.w3.org/Graphics/SVG/1.1/DTD/svg11.dtd'><svg enable-background="new 0 0 512 512" height="512px" id="Calque_1" version="1.1" viewBox="0 0 512 512" width="512px" xml:space="preserve" xmlns="http://www.w3.org/2000/svg" xmlns:xlink="http://www.w3.org/1999/xlink"><g><path d="M512,256c0,141.388-114.612,256-256,256S0,397.388,0,256S114.612,0,256,0S512,114.612,512,256z" fill="#344E5D"/><g id="weather"><path d="M329.55,192.25c-1.125,0-2.225,0.038-3.35,0.112c-1.275-36.25-31.075-65.237-67.625-65.237    c-28.75,0-53.325,17.925-63.125,43.2c-4.775-2.8-10.35-4.413-16.275-4.413c-17.8,0-32.2,14.413-32.2,32.2    c0,5.475,1.35,10.613,3.75,15.113C135.4,221.8,125,238.2,125,257.025c0,25.824,19.55,47.087,44.65,49.824v0.301h167.6v-0.513    c28.075-3.75,49.75-27.813,49.75-56.925C387,217.975,361.275,192.25,329.55,192.25z" fill="#27AAE1"/><g><path d="M272.525,384.888c-2.075,0-4.2-0.7-5.926-2.125c-4-3.3-4.6-9.2-1.3-13.2l36.601-44.625     c3.274-4.013,9.175-4.6,13.175-1.3c4,3.274,4.575,9.175,1.3,13.188l-36.6,44.625C277.925,383.713,275.25,384.888,272.525,384.888     z" fill="#A8BEC6"/><path d="M218.95,384.888c-2.1,0-4.2-0.7-5.95-2.125c-4-3.3-4.575-9.2-1.3-13.2l36.6-44.625     c3.275-4.013,9.175-4.6,13.175-1.3c4.025,3.274,4.601,9.175,1.325,13.188l-36.6,44.625     C224.35,383.713,221.65,384.888,218.95,384.888z" fill="#A8BEC6"/><path d="M165.35,384.888c-2.1,0-4.2-0.7-5.925-2.125c-4-3.3-4.6-9.2-1.3-13.2l36.575-44.625     c3.3-4.013,9.2-4.6,13.2-1.3c4,3.274,4.575,9.175,1.3,13.188l-36.6,44.625C170.75,383.713,168.05,384.888,165.35,384.888z" fill="#A8BEC6"/></g></g></g><g/><g/><g/><g/><g/><g/></svg>