<?xml version="1.0" ?><!DOCTYPE svg  PUBLIC '-//W3C//DTD SVG 1.1//EN'  'http://www.w3.org/Graphics/SVG/1.1/DTD/svg11.dtd'><svg enable-background="new 0 0 512 512" height="512px" id="Calque_1" version="1.1" viewBox="0 0 512 512" width="512px" xml:space="preserve" xmlns="http://www.w3.org/2000/svg" xmlns:xlink="http://www.w3.org/1999/xlink"><g><path d="M512,256c0,141.386-114.599,255.997-255.991,255.997C114.623,511.997,0,397.386,0,256   S114.623,0.003,256.009,0.003C397.401,0.003,512,114.614,512,256z" fill="#EBEEEF"/><g id="music_1_"><path clip-rule="evenodd" d="M211.56,314.549c0-8.25,0-16.149,0-24.049    c0-39.912,0-79.824,0-119.724c0-0.8,0-1.601,0-2.4c-0.075-5.1-0.075-5.1,4.9-6.287c32.574-7.763,65.143-15.538,97.718-23.313    c17.249-4.1,34.475-8.2,51.724-12.3c0.325-0.087,0.675-0.112,1.325-0.212c0,3.55,0,6.987,0,10.425    c0,54.212-0.075,108.423,0.075,162.635c0.024,15.35-7.375,25.875-20.125,33.25c-17.725,10.237-42.425,8.6-58.624-3.737    c-19.2-14.65-19.1-39.737,0.475-54.013c14.75-10.749,31.15-12.374,48.425-7.562c1.175,0.325,2.325,0.737,3.6,1.149    c0-30.225,0-60.249,0-90.549c-34.499,8.225-68.849,16.425-103.442,24.688c0,5.337,0,10.575,0,15.8    c0,42.037-0.175,84.073,0.1,126.123c0.1,16-7.025,27.425-20.75,34.425c-19.925,10.15-39.675,9.125-58.024-4.075    c-10.05-7.237-15.35-17.35-14.05-30.137c1-9.899,6.2-17.55,13.975-23.313c15.175-11.225,31.975-13.05,49.799-7.725    C209.485,313.899,210.31,314.174,211.56,314.549z" fill="#43B39C" fill-rule="evenodd" id="music"/><path d="M188.06,325.1c0,0-1.575,3.487-4,7.55c-2.4,4.1-5.575,9.012-7.7,13.412c-0.7,1.063-0.95,2.138-1.5,3.188    c-0.075,1.063-0.925,2.05-0.95,3.075c-0.5,2.024-0.775,4.149-0.65,6.274c0.075,4.226,1.15,8.038,0.925,8.101    c0.225-0.201-3.95-0.588-7.65-5.163c-1.95-2.138-3.55-5.6-3.9-9.513c-0.475-3.949,0.625-8.112,2.25-11.625    c3.625-6.999,9.575-11.35,14.45-13.324C184.185,324.949,188.06,325.1,188.06,325.1z" fill="#FFFFFF"/><path d="M318.303,280.287c0,0-1.575,3.487-4,7.537c-2.4,4.113-5.575,9.025-7.7,13.426    c-0.7,1.049-0.95,2.125-1.5,3.188c-0.075,1.063-0.925,2.049-0.95,3.074c-0.5,2.013-0.775,4.15-0.65,6.263    c0.075,4.225,1.15,8.05,0.926,8.112c0.225-0.2-3.95-0.588-7.65-5.162c-1.95-2.15-3.55-5.601-3.9-9.525    c-0.475-3.949,0.625-8.1,2.25-11.612c3.625-7.013,9.575-11.35,14.45-13.337C314.428,280.137,318.303,280.287,318.303,280.287z" fill="#FFFFFF"/></g></g><g/><g/><g/><g/><g/><g/></svg>