<?xml version="1.0" ?><!DOCTYPE svg  PUBLIC '-//W3C//DTD SVG 1.1//EN'  'http://www.w3.org/Graphics/SVG/1.1/DTD/svg11.dtd'><svg enable-background="new 0 0 512 512" height="512px" id="Calque_1" version="1.1" viewBox="0 0 512 512" width="512px" xml:space="preserve" xmlns="http://www.w3.org/2000/svg" xmlns:xlink="http://www.w3.org/1999/xlink"><g><path d="M512,256.003c0,141.369-114.612,255.994-256,255.994S0,397.372,0,256.003c0-141.388,114.612-256,256-256   S512,114.616,512,256.003z" fill="#A1C656"/><g id="users"><g id="user_11_"><path d="M328.725,224.916c0,0-8.899,39.65,10.25,54.031c0,0-3.725,14.3-21.024,10.9     c-17.25-3.375-20.675-16.375-20.675-16.375l8.899-33.507L328.725,224.916z" fill="#533A2D"/><path d="M238.775,213.966c0,0,9.175,46.3-10.6,63.081c0,0,3.875,16.676,21.7,12.725     c17.85-3.949,21.375-19.125,21.375-19.125l-9.175-39.105L238.775,213.966z" fill="#453129"/><path d="M262.2,257.441c0,0-0.5,23.256-11.375,32.156c0,0,34.625,26.225,67.774,0.5     c0,0-12.875-6.926-15.35-29.682C300.775,237.666,262.2,257.441,262.2,257.441z" fill="#E6B984"/><path d="M303.5,262.391l-10.1-12.65c-10.45-1.75-25.976,5.2-30.125,7.175c-0.375,0.3-0.726,0.574-1.101,0.875     c-0.024,1.225-0.274,5.5-1.225,10.675c6.225,3.556,21.3,10.507,25.274,9.257c4.025-1.226,13.301-6.701,18.476-9.232     C304.225,266.591,303.8,264.566,303.5,262.391z" fill="#D8A97C"/><path d="M384.725,359.172c-2.375-13-13.649-47.925-66.774-69.324c0,0-11.851,9.324-35.851,7.674     c-9.225-0.625-16.699-2.824-31.274-7.924c0,0-62.875,25.799-69.65,69.574H384.725z" fill="#D1D3D4"/><path d="M241.8,293.848c6.475,7.824,29.851,34.975,41.625,35.875c11.675,0.875,35.226-28.451,41.675-36.801     c-2.3-1.05-4.649-2.074-7.149-3.074c0,0-11.851,9.324-35.851,7.674c-9.225-0.625-16.699-2.824-31.274-7.924     C250.825,289.598,247.275,291.072,241.8,293.848z" fill="#E6E7E8"/><path d="M268.625,157.541c0,0-54.4,6.425-23.25,72.2c0,0,10.875,35.125,36.1,44.531c0,0,3.476,1.976,8.426-0.5     c4.949-2.475,29.149-22.105,31.125-40.406c0,0,21.8-20.925,13.875-51.6C326.975,151.116,274.575,148.141,268.625,157.541z" fill="#F0D2B1"/><path d="M243.8,222.341c0.5,1.125,1.025,2.275,1.575,3.45c0,0,0.05,0.075,0.075,0.225     c4.125-9.125,16.6-34.725,28.75-40.775c0,0,15.325,12.85,26.2,16.8c10.899,3.95,20.475,13.85,19.975,32.4     c0.325-13.475,0.325-49.7,0.325-49.7S241.825,112.041,243.8,222.341z" fill="#E5B680" opacity="0.72"/><path d="M276.65,182.416c0,0,68.925-30.2,0.875-29c-4.426,0.75-7.65,2.225-8.9,4.2c0,0-54.4,6.575-23.25,73.85     C243.775,200.116,276.65,182.416,276.65,182.416z" fill="#453129"/><path d="M334.9,181.766c-7.926-30.65-60.325-33.625-66.275-24.225c0,0,1.125,32.625,29.3,39.55     c28.2,6.95,21.65,43.025,21.65,43.025S342.825,212.441,334.9,181.766z" fill="#533A2D"/><path d="M255.4,172.366c0,0-0.95,1.125-2.375,2.8c-0.675,0.85-1.5,1.8-2.325,2.875     c-0.425,0.5-0.825,1.075-1.25,1.625c-0.425,0.55-0.825,1.15-1.225,1.725c-0.4,0.575-0.775,1.175-1.15,1.75     c-0.325,0.625-0.725,1.175-1.025,1.775c-0.25,0.6-0.625,1.125-0.825,1.7c-0.225,0.55-0.5,1.075-0.675,1.575     c-0.15,0.5-0.325,0.975-0.475,1.375c-0.15,0.425-0.2,0.8-0.275,1.125c-0.15,0.6-0.275,0.975-0.275,0.975     s-0.075-0.375-0.125-1.025c-0.025-0.325-0.1-0.725-0.075-1.175c0.05-0.45,0.05-0.975,0.125-1.55     c0.075-0.575,0.225-1.175,0.375-1.8c0.125-0.65,0.4-1.275,0.65-1.95c0.275-0.65,0.575-1.325,0.95-1.975     c0.35-0.65,0.75-1.3,1.15-1.925c0.45-0.6,0.875-1.225,1.375-1.8c0.475-0.55,0.95-1.075,1.425-1.575c0.475-0.525,1-0.975,1.5-1.4     c0.45-0.425,0.95-0.8,1.375-1.15C254.025,172.991,255.4,172.366,255.4,172.366z" fill="#FBF7C1" opacity="0.65"/><path d="M317.95,289.848c0,0-26.125,32.174-32.65,35.924c-6.475,3.775-35.2-35.799-35.2-35.799l7.35-3.25" fill="#E6B984"/></g><path d="M182.4,353.572l4.05,5.6h158.925c-6.3-41.35-19.375-44.175-49.8-74.025    c-32.851-32.23-17.05-3.774-1.25-58.131c12.55-43.225-8-66.025-16.976-73.55c-0.125,0.025-0.25,0.05-0.399,0.075    c-0.575,0.125-1.101,0.25-1.625,0.375c-0.5,0.125-1,0.275-1.476,0.425c-0.574,0.175-1.125,0.375-1.625,0.6    c-0.3,0.125-0.55,0.275-0.824,0.4c-0.5,0.275-1.025,0.55-1.426,0.85c-0.125,0.1-0.225,0.225-0.35,0.35    c-0.35,0.325-0.775,0.625-1,1c0,0-31.05,3.7-32.75,33.95c-0.45,6.275,0.525,13.85,3.05,22.6l-0.15-0.125    c0,0,9.175,46.3-10.6,63.081c0,0,3.875,16.676,21.7,12.725c0.425-0.1,0.75-0.274,1.15-0.375c-0.075,0.051-0.125,0.15-0.2,0.201    c0,0-3.025,1.274-7.675,3.6c-0.45,0.225-0.85,0.4-1.35,0.65l0,0C225.2,302.322,190.625,323.172,182.4,353.572z" fill="#3C2415" opacity="0.2"/><g id="user_10_"><path d="M208.325,257.466c0,0-0.5,23.231-11.375,32.156c0,0,34.625,26.2,67.774,0.476     c0,0-12.875-6.926-15.35-29.682C246.9,237.666,208.325,257.466,208.325,257.466z" fill="#E6B984"/><path d="M249.625,262.391L239.5,249.766c-10.45-1.775-25.95,5.175-30.1,7.175c-0.4,0.275-0.75,0.575-1.1,0.875     c-0.05,1.199-0.275,5.475-1.25,10.674c6.25,3.531,21.325,10.482,25.3,9.257c4.025-1.25,13.3-6.726,18.45-9.257     C250.325,266.591,249.925,264.591,249.625,262.391z" fill="#D8A97C"/><path d="M330.85,359.172c-2.375-13-13.649-47.9-66.774-69.324c0,0-11.85,9.324-35.85,7.674     c-9.25-0.625-16.7-2.824-31.275-7.899c0,0-62.9,25.774-69.675,69.55H330.85z" fill="#D1D3D4"/><path d="M214.75,157.541c0,0-54.425,6.425-23.25,72.225c0,0,10.875,35.1,36.1,44.506c0,0,3.475,1.976,8.425-0.5     c4.95-2.475,29.125-22.081,31.125-40.406c0,0,21.8-20.925,13.875-51.6C273.125,151.116,220.7,148.141,214.75,157.541z" fill="#F0D2B1"/><path d="M189.925,222.341c0.5,1.125,1.025,2.275,1.575,3.45c0,0,0.025,0.1,0.075,0.2     c4.125-9.075,16.6-34.675,28.75-40.75c0,0,15.325,12.85,26.2,16.8c10.875,3.975,20.45,13.875,19.975,32.4     c0.3-13.475,0.3-49.7,0.3-49.7S187.925,112.041,189.925,222.341z" fill="#E5B680" opacity="0.72"/><path d="M222.775,181.766c0,0,68.9-29.525,0.875-28.35c-4.425,0.75-7.675,2.175-8.9,4.125     c0,0-54.425,6.425-23.25,72.225C189.9,199.091,222.775,181.766,222.775,181.766z" fill="#453129"/><path d="M281.025,181.766c-7.9-30.65-60.325-33.625-66.275-24.225c0,0,1.1,32.65,29.3,39.575     c28.2,6.925,21.65,43.025,21.65,43.025S288.95,212.441,281.025,181.766z" fill="#533A2D"/><path d="M201.5,172.391c0,0-0.925,1.1-2.35,2.775c-0.7,0.85-1.5,1.825-2.325,2.875     c-0.45,0.5-0.825,1.075-1.25,1.625c-0.45,0.55-0.825,1.15-1.25,1.725c-0.375,0.575-0.75,1.175-1.15,1.75     c-0.3,0.625-0.7,1.175-1,1.775c-0.275,0.6-0.625,1.125-0.85,1.7c-0.2,0.55-0.475,1.075-0.65,1.575     c-0.175,0.5-0.325,0.975-0.475,1.4c-0.15,0.4-0.2,0.775-0.3,1.1c-0.125,0.625-0.25,0.975-0.25,0.975s-0.075-0.35-0.125-1.025     c-0.025-0.3-0.1-0.725-0.075-1.175c0.025-0.45,0.05-0.975,0.125-1.55c0.05-0.55,0.2-1.15,0.375-1.8     c0.125-0.625,0.4-1.275,0.65-1.95c0.25-0.65,0.575-1.3,0.925-1.975c0.375-0.65,0.775-1.275,1.175-1.925     c0.45-0.6,0.875-1.225,1.375-1.775c0.45-0.575,0.95-1.1,1.45-1.6c0.45-0.525,0.975-0.95,1.45-1.4     c0.475-0.425,0.975-0.775,1.4-1.125C200.15,172.991,201.5,172.391,201.5,172.391z" fill="#FBF7C1" opacity="0.65"/><path d="M226.5,297.372c0,0-6.175,5.05-8.9,13.75l-24.575-19.625c0,0,7-9.399,10.725-11.774L226.5,297.372z" fill="#E6E7E8"/><path d="M234.65,297.771c0,0,9.05,8.15,8.475,14.101c0,0,30.775-12.375,31.35-17.325c0,0-6.875-10.05-15.925-9.8     L234.65,297.771z" fill="#E6E7E8"/></g></g></g><g/><g/><g/><g/><g/><g/></svg>