<?xml version="1.0" ?><!DOCTYPE svg  PUBLIC '-//W3C//DTD SVG 1.1//EN'  'http://www.w3.org/Graphics/SVG/1.1/DTD/svg11.dtd'><svg enable-background="new 0 0 512 512" height="512px" id="Calque_1" version="1.1" viewBox="0 0 512 512" width="512px" xml:space="preserve" xmlns="http://www.w3.org/2000/svg" xmlns:xlink="http://www.w3.org/1999/xlink"><g><path d="M512.003,256c0,141.388-114.601,256-255.994,256C114.622,512-0.003,397.388-0.003,256S114.622,0,256.009,0   C397.402,0,512.003,114.612,512.003,256z" fill="#35707F"/><g id="picture"><polygon fill="#E7CE3C" points="356.253,198.188 258.984,158.138 260.484,154.475 357.753,194.525   "/><polygon fill="#E7CE3C" points="154.784,198.188 153.284,194.525 250.559,154.475 252.059,158.138   "/><g><path d="M384.729,358.338c0,3.649-2.951,6.612-6.601,6.612H133.859c-3.65,0-6.6-2.963-6.6-6.612V195.925     c0-3.65,2.95-6.612,6.6-6.612h244.269c3.649,0,6.601,2.962,6.601,6.612V358.338z" fill="#46C1EC"/><path d="M368.878,205.163V349.1H143.084V205.163H368.878 M378.128,189.313H133.859c-3.65,0-6.6,2.962-6.6,6.612     v162.413c0,3.649,2.95,6.612,6.6,6.612h244.269c3.649,0,6.601-2.963,6.601-6.612V195.925     C384.729,192.275,381.777,189.313,378.128,189.313L378.128,189.313z" fill="#E6E7E8"/></g><path d="M266.334,157.4c0,5.712-4.625,10.35-10.35,10.35c-5.7,0-10.325-4.638-10.325-10.35    s4.625-10.35,10.325-10.35C261.709,147.05,266.334,151.688,266.334,157.4z" fill="#8B5E3C"/><g><defs><rect height="144.812" id="SVGID_1_" width="225.794" x="143.084" y="204.725"/></defs><clipPath id="SVGID_2_"><use overflow="visible" xlink:href="#SVGID_1_"/></clipPath><polygon clip-path="url(#SVGID_2_)" fill="#E6E7E8" points="324.428,254.462 313.003,231.125 299.354,247.413 283.928,260.188      251.359,275.15 245.209,284.388 225.409,290.55 210.434,294.513 209.434,294.6 195.034,300.675 176.734,303.925 201.634,315.2      271.178,324.45 308.152,322.237 333.229,286.15    "/><polygon clip-path="url(#SVGID_2_)" fill="#D1D3D4" points="371.078,283.063 334.128,260.188 317.828,239.938 313.003,231.125      324.428,265.463 317.402,276.025 299.354,293.2 294.053,308.6 294.503,317.85 371.979,310.8    "/><path clip-path="url(#SVGID_2_)" d="M289.652,315.638c0,0-76.143-18.925-110.468-4.838     c-34.325,14.075,42.7,24.2,42.7,24.2S289.229,321.8,289.652,315.638z" fill="#009444"/><path clip-path="url(#SVGID_2_)" d="M239.059,327.525c0,0,84.044-33.013,135.994-17.163     c51.95,15.851,7.926,55.888-84.5,50.612C198.109,355.7,239.059,327.525,239.059,327.525z" fill="#39B54A"/><path clip-path="url(#SVGID_2_)" d="M140.009,294.95c0,0,84.075,15.412,141.293,53.263     c57.225,37.85-145.693,2.637-145.693,2.637L140.009,294.95z" fill="#8DC63F"/><path clip-path="url(#SVGID_2_)" d="M122.859,220.35c0,19.075,15.45,34.55,34.55,34.55     c19.075,0,34.55-15.475,34.55-34.55c0-19.087-15.475-34.55-34.55-34.55C138.309,185.8,122.859,201.263,122.859,220.35z" fill="#F9ED32"/></g></g></g><g/><g/><g/><g/><g/><g/></svg>