<?xml version="1.0" ?><!DOCTYPE svg  PUBLIC '-//W3C//DTD SVG 1.1//EN'  'http://www.w3.org/Graphics/SVG/1.1/DTD/svg11.dtd'><svg enable-background="new 0 0 512 512" height="512px" id="Calque_1" version="1.1" viewBox="0 0 512 512" width="512px" xml:space="preserve" xmlns="http://www.w3.org/2000/svg" xmlns:xlink="http://www.w3.org/1999/xlink"><g><path d="M512,256c0,141.388-114.612,256-256,256S0,397.388,0,256S114.612,0,256,0S512,114.612,512,256z" fill="#D6D9B8"/><g id="coupon"><path d="M315.987,384.987h-28.524v-19.149h28.524c1.175,0,2.325-0.051,3.476-0.176l1.824,19.075    C319.537,384.912,317.763,384.987,315.987,384.987z M254.563,384.987h-32.925v-19.149h32.925V384.987z M186.263,382.963    c-12.975-3.676-24.05-12-31.225-23.45l16.225-10.175c4.65,7.425,11.825,12.824,20.225,15.175L186.263,382.963z M356.213,367.162    l-14.2-12.85c5.85-6.475,9.075-14.85,9.075-23.6l19.149-0.525v0.525C370.237,344.213,365.263,357.162,356.213,367.162z     M165.938,322.787h-19.15v-32.925h19.15V322.787z M370.237,297.263h-19.149v-32.9h19.149V297.263z M165.938,256.962h-19.15    v-32.925h19.15V256.962z M370.237,231.438h-19.149v-7.675c0-6.675-1.875-13.175-5.426-18.775l16.176-10.25    c5.5,8.675,8.425,18.725,8.399,29.05V231.438z M325.362,189.913c-3.05-0.825-6.2-1.25-9.375-1.25h-20.85v-19.15h20.85    c4.9,0,9.75,0.65,14.45,1.95L325.362,189.913z M262.213,188.663h-32.9v-19.15h32.9V188.663z" fill="#414042"/><path clip-rule="evenodd" d="M230.563,180.087l40.6,28.25c0,0-10.25,8.975-27.5-0.275    c-17.225-9.275-30.275-17-30.275-17" fill="#C03B2B" fill-rule="evenodd"/><path clip-rule="evenodd" d="M256.563,146.063c-4.175,0.45-7.85,2.2-11.475,4.225    c-9.95,5.55-19.9,11.05-29.85,16.6c-0.625,0.325-1.05,0.525-1.725,0.025c-5.175-3.675-10.35-7.325-15.55-10.95    c-2.65-1.825-5.525-3.1-8.7-3.625c-0.975-0.175-1.925-0.325-2.725-0.45c0-2.375,0.2-4.55-0.025-6.7    c-1.2-11.1-11.35-19.175-22.5-18.075c-12.775,1.3-21.275,13.425-18.1,25.8c2.4,9.325,10.8,15.65,20.2,15.6    c6.1-0.025,12.175-0.025,18.275-0.075c2.25-0.025,4.025,0.8,5.575,2.425c2,2.075,4.05,4.1,6.1,6.1    c0.825,0.775,1.775,1.45,2.65,2.2c-3.45,3.45-6.525,6.575-9.625,9.65c-1.15,1.125-2.625,1.575-4.225,1.575    c-5.375,0-10.725-0.025-16.075,0c-2.025,0-4.075-0.1-6.025,0.225c-12.275,2-20.025,13.95-16.75,26.025    c0.075,0.3,0.025,0.875-0.15,1c-2.1,1.325-3.275,3.275-4.1,5.525c0,1.125,0,2.25,0,3.35c0.8,1.45,1.375,3.1,2.45,4.275    c2.725,3,7.125,3.425,10.525,1.125c1.825-1.2,3.625-1.55,5.7-0.875c1.175,0.375,2.425,0.55,3.65,0.675    c10.8,1.2,21.15-6.95,22.425-17.725c0.25-2.325,0.025-4.675,0.025-7.05c0.55-0.075,1.15-0.15,1.725-0.225    c3.375-0.5,6.5-1.625,9.3-3.55c6.05-4.2,12.05-8.475,18.075-12.7c18.925-13.275,37.825-26.575,56.725-39.85    c0.375-0.25,0.7-0.525,1.15-0.85C268.162,146.462,262.537,145.413,256.563,146.063z M165.962,156.862    c-5.05,0.025-9.15-4.025-9.225-9.1c-0.075-5.025,4.075-9.275,9.075-9.325c5.075-0.025,9.35,4.025,9.375,8.95    C175.237,152.763,171.288,156.813,165.962,156.862z M166.038,220.288c-5.05,0.025-9.25-4.15-9.3-9.225    c-0.05-5,4.275-9.3,9.25-9.275c5.1,0.05,9.225,4.2,9.225,9.3C175.212,216.038,170.987,220.263,166.038,220.288z" fill="#E2574C" fill-rule="evenodd"/><g opacity="0.38"><defs><path d="M256.563,146.063c-4.175,0.45-7.85,2.2-11.475,4.225c-9.95,5.55-19.9,11.05-29.85,16.6      c-0.625,0.325-1.05,0.525-1.725,0.025c-5.175-3.675-10.35-7.325-15.55-10.95c-2.65-1.825-5.525-3.1-8.7-3.625      c-0.975-0.175-1.925-0.325-2.725-0.45c0-2.375,0.2-4.55-0.025-6.7c-1.2-11.1-11.35-19.175-22.5-18.075      c-12.775,1.3-21.275,13.425-18.1,25.8c2.4,9.325,10.8,15.65,20.2,15.6c6.1-0.025,12.175-0.025,18.275-0.075      c2.25-0.025,4.025,0.8,5.575,2.425c2,2.075,4.05,4.1,6.1,6.1c0.825,0.775,1.775,1.45,2.65,2.2      c-3.45,3.45-6.525,6.575-9.625,9.65c-1.15,1.125-2.625,1.575-4.225,1.575c-5.375,0-10.725-0.025-16.075,0      c-2.025,0-4.075-0.1-6.025,0.225c-12.275,2-20.025,13.95-16.75,26.025c0.075,0.3,0.025,0.875-0.15,1      c-2.1,1.325-3.275,3.275-4.1,5.525c0,1.125,0,2.25,0,3.35c0.8,1.45,1.375,3.1,2.45,4.275c2.725,3,7.125,3.425,10.525,1.125      c1.825-1.2,3.625-1.55,5.7-0.875c1.175,0.375,2.425,0.55,3.65,0.675c10.8,1.2,21.15-6.95,22.425-17.725      c0.25-2.325,0.025-4.675,0.025-7.05c0.55-0.075,1.15-0.15,1.725-0.225c3.375-0.5,6.5-1.625,9.3-3.55      c6.05-4.2,12.05-8.475,18.075-12.7c18.925-13.275,37.825-26.575,56.725-39.85c0.375-0.25,0.7-0.525,1.15-0.85      C268.162,146.462,262.537,145.413,256.563,146.063z M165.962,156.862c-5.05,0.025-9.15-4.025-9.225-9.1      c-0.075-5.025,4.075-9.275,9.075-9.325c5.075-0.025,9.35,4.025,9.375,8.95C175.237,152.763,171.288,156.813,165.962,156.862z       M166.038,220.288c-5.05,0.025-9.25-4.15-9.3-9.225c-0.05-5,4.275-9.3,9.25-9.275c5.1,0.05,9.225,4.2,9.225,9.3      C175.212,216.038,170.987,220.263,166.038,220.288z" id="SVGID_1_" opacity="0.38"/></defs><use clip-rule="evenodd" fill="#EF4136" fill-rule="evenodd" overflow="visible" xlink:href="#SVGID_1_"/><clipPath id="SVGID_2_"><use overflow="visible" xlink:href="#SVGID_1_"/></clipPath><g clip-path="url(#SVGID_2_)"><path clip-rule="evenodd" d="M204.313,178.362c0,4,3.225,7.225,7.2,7.225      c3.975,0,7.2-3.225,7.2-7.225c0-3.975-3.225-7.2-7.2-7.2C207.538,171.163,204.313,174.388,204.313,178.362z" fill="#BE1E2D" fill-rule="evenodd"/><path clip-rule="evenodd" d="M204.396,178.417c0,4,3.225,7.225,7.2,7.225      s7.2-3.226,7.2-7.225c0-3.975-3.225-7.2-7.2-7.2S204.396,174.442,204.396,178.417z" fill="#BE1E2D" fill-rule="evenodd"/><path clip-rule="evenodd" d="M204.48,178.471c0,4,3.225,7.225,7.2,7.225      c3.975,0,7.2-3.225,7.2-7.225c0-3.975-3.225-7.199-7.2-7.199C207.706,171.271,204.48,174.496,204.48,178.471z" fill="#BE1E2D" fill-rule="evenodd"/><path clip-rule="evenodd" d="M204.564,178.525c0,4,3.225,7.225,7.201,7.225      c3.974,0,7.199-3.225,7.199-7.225c0-3.975-3.225-7.2-7.199-7.2C207.789,171.325,204.564,174.55,204.564,178.525z" fill="#BE1E2D" fill-rule="evenodd"/><path clip-rule="evenodd" d="M204.647,178.579c0,4,3.226,7.226,7.201,7.226      c3.975,0,7.2-3.225,7.2-7.226c0-3.975-3.225-7.199-7.2-7.199C207.873,171.379,204.647,174.604,204.647,178.579z" fill="#BE1E2D" fill-rule="evenodd"/><path clip-rule="evenodd" d="M204.732,178.634c0,4,3.225,7.225,7.2,7.225      c3.975,0,7.2-3.225,7.2-7.225c0-3.975-3.225-7.2-7.2-7.2C207.957,171.434,204.732,174.659,204.732,178.634z" fill="#BE1E2D" fill-rule="evenodd"/><path clip-rule="evenodd" d="M204.815,178.688c0,4,3.226,7.225,7.2,7.225      s7.2-3.225,7.2-7.225c0-3.975-3.226-7.2-7.2-7.2S204.815,174.713,204.815,178.688z" fill="#BE1E2D" fill-rule="evenodd"/><path clip-rule="evenodd" d="M204.9,178.742c0,4,3.225,7.225,7.2,7.225      c3.975,0,7.2-3.225,7.2-7.225c0-3.975-3.225-7.2-7.2-7.2C208.125,171.542,204.9,174.768,204.9,178.742z" fill="#BE1E2D" fill-rule="evenodd"/><path clip-rule="evenodd" d="M204.984,178.796c0,4,3.225,7.226,7.2,7.226      c3.975,0,7.2-3.226,7.2-7.226c0-3.975-3.225-7.199-7.2-7.199C208.208,171.597,204.984,174.821,204.984,178.796z" fill="#BE1E2D" fill-rule="evenodd"/><path clip-rule="evenodd" d="M205.067,178.85c0,4,3.225,7.225,7.2,7.225      c3.975,0,7.2-3.225,7.2-7.225c0-3.975-3.226-7.2-7.2-7.2C208.292,171.65,205.067,174.875,205.067,178.85z" fill="#BE1E2D" fill-rule="evenodd"/><path clip-rule="evenodd" d="M205.151,178.905c0,4,3.225,7.225,7.2,7.225      c3.975,0,7.2-3.225,7.2-7.225c0-3.975-3.225-7.2-7.2-7.2C208.376,171.705,205.151,174.93,205.151,178.905z" fill="#BE1E2D" fill-rule="evenodd"/><path clip-rule="evenodd" d="M205.235,178.959c0,4,3.226,7.225,7.201,7.225      c3.974,0,7.2-3.225,7.2-7.225c0-3.975-3.226-7.2-7.2-7.2C208.46,171.759,205.235,174.984,205.235,178.959z" fill="#BE1E2D" fill-rule="evenodd"/><path clip-rule="evenodd" d="M205.319,179.013c0,4,3.225,7.225,7.2,7.225      c3.974,0,7.2-3.225,7.2-7.225c0-3.975-3.226-7.2-7.2-7.2C208.544,171.813,205.319,175.038,205.319,179.013z" fill="#BE1E2D" fill-rule="evenodd"/><path clip-rule="evenodd" d="M205.403,179.067c0,4,3.226,7.225,7.2,7.225      s7.2-3.225,7.2-7.225c0-3.975-3.226-7.2-7.2-7.2S205.403,175.093,205.403,179.067z" fill="#BE1E2D" fill-rule="evenodd"/><path clip-rule="evenodd" d="M205.486,179.121c0,4,3.226,7.226,7.201,7.226      c3.974,0,7.2-3.225,7.2-7.226c0-3.974-3.226-7.199-7.2-7.199C208.712,171.922,205.486,175.147,205.486,179.121z" fill="#BE1E2D" fill-rule="evenodd"/><path clip-rule="evenodd" d="M205.57,179.175c0,4,3.225,7.225,7.2,7.225      c3.975,0,7.2-3.225,7.2-7.225c0-3.975-3.226-7.2-7.2-7.2C208.795,171.976,205.57,175.201,205.57,179.175z" fill="#BE1E2D" fill-rule="evenodd"/><path clip-rule="evenodd" d="M205.655,179.23c0,4,3.225,7.225,7.2,7.225      s7.2-3.225,7.2-7.225c0-3.975-3.225-7.2-7.2-7.2S205.655,175.255,205.655,179.23z" fill="#BE1E2D" fill-rule="evenodd"/><path clip-rule="evenodd" d="M205.738,179.284c0,4,3.225,7.225,7.2,7.225      c3.975,0,7.199-3.225,7.199-7.225c0-3.975-3.225-7.2-7.199-7.2C208.963,172.084,205.738,175.31,205.738,179.284z" fill="#BE1E2D" fill-rule="evenodd"/><path clip-rule="evenodd" d="M205.822,179.338c0,4,3.225,7.225,7.2,7.225      s7.2-3.225,7.2-7.225c0-3.975-3.225-7.2-7.2-7.2S205.822,175.364,205.822,179.338z" fill="#BE1E2D" fill-rule="evenodd"/><path clip-rule="evenodd" d="M205.906,179.393c0,4,3.225,7.225,7.2,7.225      c3.975,0,7.199-3.225,7.199-7.225c0-3.975-3.225-7.2-7.199-7.2C209.131,172.193,205.906,175.418,205.906,179.393z" fill="#BE1E2D" fill-rule="evenodd"/><path clip-rule="evenodd" d="M205.99,179.446c0,4,3.225,7.225,7.2,7.225      c3.975,0,7.2-3.225,7.2-7.225c0-3.975-3.225-7.199-7.2-7.199C209.215,172.247,205.99,175.472,205.99,179.446z" fill="#BE1E2D" fill-rule="evenodd"/><path clip-rule="evenodd" d="M206.074,179.501c0,4,3.226,7.225,7.201,7.225      c3.975,0,7.199-3.225,7.199-7.225c0-3.975-3.225-7.2-7.199-7.2C209.299,172.301,206.074,175.526,206.074,179.501z" fill="#BE1E2D" fill-rule="evenodd"/><path clip-rule="evenodd" d="M206.157,179.555c0,4,3.226,7.225,7.201,7.225      c3.975,0,7.2-3.225,7.2-7.225c0-3.975-3.225-7.2-7.2-7.2C209.383,172.355,206.157,175.581,206.157,179.555z" fill="#BE1E2D" fill-rule="evenodd"/><path clip-rule="evenodd" d="M206.242,179.61c0,4,3.225,7.225,7.2,7.225      c3.975,0,7.2-3.226,7.2-7.225c0-3.975-3.225-7.2-7.2-7.2C209.467,172.41,206.242,175.635,206.242,179.61z" fill="#BE1E2D" fill-rule="evenodd"/><path clip-rule="evenodd" d="M206.326,179.664c0,4,3.225,7.225,7.2,7.225      c3.975,0,7.2-3.225,7.2-7.225c0-3.975-3.225-7.2-7.2-7.2C209.55,172.464,206.326,175.689,206.326,179.664z" fill="#BE1E2D" fill-rule="evenodd"/><path clip-rule="evenodd" d="M206.409,179.718c0,4,3.225,7.225,7.2,7.225      c3.975,0,7.2-3.225,7.2-7.225c0-3.975-3.225-7.2-7.2-7.2C209.634,172.518,206.409,175.743,206.409,179.718z" fill="#BE1E2D" fill-rule="evenodd"/><path clip-rule="evenodd" d="M206.494,179.772c0,4,3.225,7.225,7.2,7.225      c3.975,0,7.2-3.225,7.2-7.225c0-3.974-3.226-7.2-7.2-7.2C209.718,172.572,206.494,175.798,206.494,179.772z" fill="#BE1E2D" fill-rule="evenodd"/><path clip-rule="evenodd" d="M206.577,179.826c0,4,3.225,7.225,7.2,7.225      c3.975,0,7.2-3.225,7.2-7.225c0-3.975-3.225-7.2-7.2-7.2C209.802,172.626,206.577,175.852,206.577,179.826z" fill="#BE1E2D" fill-rule="evenodd"/><path clip-rule="evenodd" d="M206.661,179.88c0,4,3.225,7.225,7.201,7.225      c3.974,0,7.199-3.225,7.199-7.225c0-3.975-3.225-7.2-7.199-7.2C209.886,172.681,206.661,175.906,206.661,179.88z" fill="#BE1E2D" fill-rule="evenodd"/><path clip-rule="evenodd" d="M206.745,179.935c0,4,3.225,7.225,7.2,7.225      c3.975,0,7.2-3.225,7.2-7.225c0-3.975-3.225-7.2-7.2-7.2C209.97,172.735,206.745,175.96,206.745,179.935z" fill="#BE1E2D" fill-rule="evenodd"/><path clip-rule="evenodd" d="M206.829,179.989c0,4,3.225,7.226,7.2,7.226      c3.975,0,7.2-3.226,7.2-7.226c0-3.975-3.225-7.2-7.2-7.2C210.054,172.789,206.829,176.014,206.829,179.989z" fill="#BE1E2D" fill-rule="evenodd"/><path clip-rule="evenodd" d="M206.912,180.043c0,4,3.226,7.225,7.201,7.225      c3.974,0,7.2-3.225,7.2-7.225c0-3.975-3.226-7.2-7.2-7.2C210.138,172.843,206.912,176.068,206.912,180.043z" fill="#BE1E2D" fill-rule="evenodd"/><path clip-rule="evenodd" d="M206.997,180.098c0,4,3.225,7.225,7.2,7.225      c3.974,0,7.199-3.225,7.199-7.225c0-3.975-3.225-7.2-7.199-7.2C210.222,172.898,206.997,176.123,206.997,180.098z" fill="#BE1E2D" fill-rule="evenodd"/><path clip-rule="evenodd" d="M207.081,180.152c0,4,3.225,7.225,7.2,7.225      c3.974,0,7.2-3.225,7.2-7.225c0-3.975-3.226-7.2-7.2-7.2C210.306,172.952,207.081,176.177,207.081,180.152z" fill="#BE1E2D" fill-rule="evenodd"/><path clip-rule="evenodd" d="M207.164,180.206c0,4,3.226,7.225,7.2,7.225      s7.2-3.225,7.2-7.225c0-3.975-3.225-7.2-7.2-7.2S207.164,176.231,207.164,180.206z" fill="#BE1E2D" fill-rule="evenodd"/><path clip-rule="evenodd" d="M207.248,180.26c0,4,3.225,7.225,7.2,7.225      c3.975,0,7.2-3.225,7.2-7.225c0-3.975-3.225-7.2-7.2-7.2C210.473,173.06,207.248,176.285,207.248,180.26z" fill="#BE1E2D" fill-rule="evenodd"/><path clip-rule="evenodd" d="M207.332,180.314c0,4,3.226,7.225,7.201,7.225      c3.974,0,7.199-3.225,7.199-7.225c0-3.975-3.225-7.2-7.199-7.2C210.557,173.114,207.332,176.339,207.332,180.314z" fill="#BE1E2D" fill-rule="evenodd"/><path clip-rule="evenodd" d="M207.416,180.369c0,3.999,3.225,7.224,7.2,7.224      c3.975,0,7.199-3.225,7.199-7.224c0-3.976-3.225-7.2-7.199-7.2C210.641,173.169,207.416,176.394,207.416,180.369z" fill="#BE1E2D" fill-rule="evenodd"/><path clip-rule="evenodd" d="M207.5,180.423c0,4,3.226,7.225,7.2,7.225s7.2-3.225,7.2-7.225      c0-3.975-3.225-7.2-7.2-7.2S207.5,176.448,207.5,180.423z" fill="#BE1E2D" fill-rule="evenodd"/><path clip-rule="evenodd" d="M207.583,180.477c0,4,3.226,7.225,7.201,7.225      s7.2-3.225,7.2-7.225c0-3.975-3.225-7.2-7.2-7.2S207.583,176.502,207.583,180.477z" fill="#BE1E2D" fill-rule="evenodd"/><path clip-rule="evenodd" d="M207.667,180.531c0,4,3.226,7.225,7.2,7.225      c3.975,0,7.2-3.225,7.2-7.225c0-3.975-3.225-7.2-7.2-7.2C210.893,173.332,207.667,176.557,207.667,180.531z" fill="#BE1E2D" fill-rule="evenodd"/><path clip-rule="evenodd" d="M207.751,180.585c0,4,3.225,7.225,7.2,7.225      c3.975,0,7.2-3.225,7.2-7.225c0-3.975-3.225-7.2-7.2-7.2C210.977,173.386,207.751,176.611,207.751,180.585z" fill="#BE1E2D" fill-rule="evenodd"/><path clip-rule="evenodd" d="M207.835,180.64c0,4,3.225,7.225,7.2,7.225      c3.975,0,7.2-3.225,7.2-7.225c0-3.975-3.225-7.2-7.2-7.2C211.061,173.439,207.835,176.665,207.835,180.64z" fill="#BE1E2D" fill-rule="evenodd"/><path clip-rule="evenodd" d="M207.919,180.694c0,4,3.225,7.225,7.2,7.225      c3.975,0,7.2-3.225,7.2-7.225c0-3.975-3.225-7.2-7.2-7.2C211.144,173.494,207.919,176.719,207.919,180.694z" fill="#BE1E2D" fill-rule="evenodd"/><path clip-rule="evenodd" d="M208.003,180.748c0,4,3.225,7.225,7.2,7.225      c3.975,0,7.2-3.225,7.2-7.225c0-3.975-3.225-7.2-7.2-7.2C211.228,173.548,208.003,176.773,208.003,180.748z" fill="#BE1E2D" fill-rule="evenodd"/><path clip-rule="evenodd" d="M208.087,180.802c0,4,3.225,7.225,7.2,7.225      c3.975,0,7.2-3.225,7.2-7.225c0-3.974-3.225-7.2-7.2-7.2C211.312,173.603,208.087,176.828,208.087,180.802z" fill="#BE1E2D" fill-rule="evenodd"/><path clip-rule="evenodd" d="M208.171,180.856c0,4,3.225,7.225,7.2,7.225      c3.975,0,7.2-3.225,7.2-7.225c0-3.975-3.225-7.2-7.2-7.2C211.396,173.656,208.171,176.882,208.171,180.856z" fill="#BE1E2D" fill-rule="evenodd"/><path clip-rule="evenodd" d="M208.254,180.91c0,4,3.225,7.226,7.2,7.226      c3.975,0,7.2-3.225,7.2-7.226c0-3.974-3.225-7.2-7.2-7.2C211.479,173.71,208.254,176.936,208.254,180.91z" fill="#BE1E2D" fill-rule="evenodd"/><path clip-rule="evenodd" d="M208.338,180.965c0,4,3.226,7.225,7.2,7.225      c3.975,0,7.2-3.226,7.2-7.225c0-3.975-3.225-7.2-7.2-7.2C211.564,173.765,208.338,176.99,208.338,180.965z" fill="#BE1E2D" fill-rule="evenodd"/><path clip-rule="evenodd" d="M208.423,181.02c0,4,3.225,7.225,7.2,7.225      c3.974,0,7.199-3.225,7.199-7.225c0-3.975-3.225-7.2-7.199-7.2C211.647,173.819,208.423,177.044,208.423,181.02z" fill="#BE1E2D" fill-rule="evenodd"/><path clip-rule="evenodd" d="M208.506,181.073c0,4,3.225,7.225,7.2,7.225      c3.975,0,7.199-3.225,7.199-7.225c0-3.975-3.225-7.199-7.199-7.199C211.731,173.874,208.506,177.099,208.506,181.073z" fill="#BE1E2D" fill-rule="evenodd"/><path clip-rule="evenodd" d="M208.59,181.127c0,4,3.226,7.225,7.2,7.225      s7.2-3.225,7.2-7.225c0-3.975-3.226-7.2-7.2-7.2S208.59,177.152,208.59,181.127z" fill="#BE1E2D" fill-rule="evenodd"/><path clip-rule="evenodd" d="M208.674,181.182c0,4,3.225,7.225,7.2,7.225      c3.975,0,7.2-3.225,7.2-7.225c0-3.975-3.225-7.2-7.2-7.2C211.899,173.982,208.674,177.207,208.674,181.182z" fill="#BE1E2D" fill-rule="evenodd"/><path clip-rule="evenodd" d="M208.758,181.236c0,4,3.226,7.225,7.2,7.225      s7.2-3.225,7.2-7.225c0-3.975-3.226-7.2-7.2-7.2S208.758,177.261,208.758,181.236z" fill="#BE1E2D" fill-rule="evenodd"/><path clip-rule="evenodd" d="M208.842,181.291c0,4,3.225,7.225,7.2,7.225      c3.975,0,7.199-3.225,7.199-7.225c0-3.975-3.225-7.2-7.199-7.2C212.067,174.091,208.842,177.316,208.842,181.291z" fill="#BE1E2D" fill-rule="evenodd"/><path clip-rule="evenodd" d="M208.925,181.345c0,4,3.226,7.225,7.2,7.225      s7.2-3.225,7.2-7.225c0-3.975-3.226-7.2-7.2-7.2S208.925,177.37,208.925,181.345z" fill="#BE1E2D" fill-rule="evenodd"/><path clip-rule="evenodd" d="M209.01,181.399c0,4,3.225,7.225,7.2,7.225      c3.975,0,7.2-3.225,7.2-7.225c0-3.975-3.225-7.2-7.2-7.2C212.235,174.199,209.01,177.424,209.01,181.399z" fill="#BE1E2D" fill-rule="evenodd"/><path clip-rule="evenodd" d="M209.093,181.453c0,4,3.226,7.225,7.201,7.225      c3.974,0,7.2-3.225,7.2-7.225c0-3.975-3.226-7.2-7.2-7.2C212.319,174.253,209.093,177.479,209.093,181.453z" fill="#BE1E2D" fill-rule="evenodd"/><path clip-rule="evenodd" d="M209.178,181.507c0,4,3.225,7.225,7.199,7.225      s7.2-3.225,7.2-7.225c0-3.975-3.226-7.199-7.2-7.199S209.178,177.532,209.178,181.507z" fill="#BE1E2D" fill-rule="evenodd"/><path clip-rule="evenodd" d="M209.262,181.562c0,4,3.225,7.225,7.199,7.225      c3.975,0,7.2-3.225,7.2-7.225c0-3.975-3.225-7.199-7.2-7.199C212.486,174.362,209.262,177.587,209.262,181.562z" fill="#BE1E2D" fill-rule="evenodd"/><path clip-rule="evenodd" d="M209.345,181.616c0,4,3.225,7.225,7.2,7.225      c3.975,0,7.2-3.226,7.2-7.225c0-3.975-3.226-7.2-7.2-7.2C212.57,174.416,209.345,177.641,209.345,181.616z" fill="#BE1E2D" fill-rule="evenodd"/><path clip-rule="evenodd" d="M209.429,181.67c0,4,3.225,7.225,7.2,7.225      c3.974,0,7.199-3.225,7.199-7.225c0-3.975-3.225-7.2-7.199-7.2C212.654,174.47,209.429,177.695,209.429,181.67z" fill="#BE1E2D" fill-rule="evenodd"/><path clip-rule="evenodd" d="M209.513,181.724c0,4.001,3.225,7.226,7.2,7.226      c3.975,0,7.2-3.225,7.2-7.226c0-3.975-3.225-7.199-7.2-7.199C212.737,174.524,209.513,177.749,209.513,181.724z" fill="#BE1E2D" fill-rule="evenodd"/><path clip-rule="evenodd" d="M209.597,181.778c0,4,3.226,7.226,7.2,7.226      s7.2-3.226,7.2-7.226c0-3.975-3.225-7.199-7.2-7.199S209.597,177.804,209.597,181.778z" fill="#BE1E2D" fill-rule="evenodd"/><path clip-rule="evenodd" d="M209.681,181.833c0,4,3.225,7.225,7.2,7.225      c3.975,0,7.2-3.225,7.2-7.225c0-3.975-3.225-7.2-7.2-7.2C212.905,174.633,209.681,177.858,209.681,181.833z" fill="#BE1E2D" fill-rule="evenodd"/><path clip-rule="evenodd" d="M209.764,181.887c0,4,3.226,7.225,7.2,7.225      c3.975,0,7.2-3.225,7.2-7.225c0-3.975-3.225-7.2-7.2-7.2C212.989,174.687,209.764,177.912,209.764,181.887z" fill="#BE1E2D" fill-rule="evenodd"/><path clip-rule="evenodd" d="M209.848,181.941c0,4,3.226,7.225,7.2,7.225      c3.976,0,7.2-3.226,7.2-7.225c0-3.975-3.225-7.2-7.2-7.2C213.073,174.741,209.848,177.966,209.848,181.941z" fill="#BE1E2D" fill-rule="evenodd"/><path clip-rule="evenodd" d="M209.933,181.995c0,4,3.225,7.225,7.2,7.225      c3.975,0,7.199-3.225,7.199-7.225c0-3.975-3.225-7.199-7.199-7.199C213.157,174.796,209.933,178.021,209.933,181.995z" fill="#BE1E2D" fill-rule="evenodd"/><path clip-rule="evenodd" d="M210.016,182.049c0,4,3.225,7.225,7.2,7.225      s7.2-3.225,7.2-7.225c0-3.975-3.225-7.2-7.2-7.2S210.016,178.074,210.016,182.049z" fill="#BE1E2D" fill-rule="evenodd"/><path clip-rule="evenodd" d="M210.1,182.104c0,4,3.225,7.225,7.2,7.225      c3.975,0,7.2-3.225,7.2-7.225c0-3.975-3.225-7.2-7.2-7.2C213.325,174.903,210.1,178.129,210.1,182.104z" fill="#BE1E2D" fill-rule="evenodd"/><path clip-rule="evenodd" d="M210.184,182.158c0,4,3.225,7.225,7.2,7.225      c3.975,0,7.2-3.225,7.2-7.225c0-3.976-3.225-7.2-7.2-7.2C213.408,174.958,210.184,178.183,210.184,182.158z" fill="#BE1E2D" fill-rule="evenodd"/><path clip-rule="evenodd" d="M210.268,182.212c0,4,3.226,7.225,7.2,7.225      s7.2-3.225,7.2-7.225c0-3.975-3.226-7.2-7.2-7.2S210.268,178.238,210.268,182.212z" fill="#BE1E2D" fill-rule="evenodd"/><path clip-rule="evenodd" d="M210.352,182.267c0,4,3.225,7.225,7.2,7.225      c3.975,0,7.199-3.225,7.199-7.225c0-3.975-3.225-7.2-7.199-7.2C213.577,175.066,210.352,178.292,210.352,182.267z" fill="#BE1E2D" fill-rule="evenodd"/><path clip-rule="evenodd" d="M210.435,182.32c0,4,3.226,7.225,7.2,7.225      c3.975,0,7.2-3.225,7.2-7.225c0-3.975-3.225-7.2-7.2-7.2C213.66,175.12,210.435,178.346,210.435,182.32z" fill="#BE1E2D" fill-rule="evenodd"/><path clip-rule="evenodd" d="M210.519,182.375c0,4,3.225,7.225,7.201,7.225      c3.974,0,7.199-3.225,7.199-7.225c0-3.975-3.225-7.2-7.199-7.2C213.744,175.175,210.519,178.4,210.519,182.375z" fill="#BE1E2D" fill-rule="evenodd"/><path clip-rule="evenodd" d="M210.604,182.43c0,4,3.225,7.225,7.2,7.225      c3.975,0,7.2-3.225,7.2-7.225c0-3.976-3.225-7.2-7.2-7.2C213.828,175.229,210.604,178.454,210.604,182.43z" fill="#BE1E2D" fill-rule="evenodd"/><path clip-rule="evenodd" d="M210.687,182.483c0,4,3.225,7.225,7.2,7.225      s7.2-3.225,7.2-7.225c0-3.975-3.226-7.2-7.2-7.2S210.687,178.509,210.687,182.483z" fill="#BE1E2D" fill-rule="evenodd"/><path clip-rule="evenodd" d="M210.771,182.537c0,4,3.225,7.225,7.2,7.225      c3.975,0,7.2-3.225,7.2-7.225c0-3.975-3.226-7.2-7.2-7.2C213.996,175.337,210.771,178.563,210.771,182.537z" fill="#BE1E2D" fill-rule="evenodd"/><path clip-rule="evenodd" d="M210.854,182.592c0,4,3.226,7.225,7.2,7.225      s7.2-3.225,7.2-7.225c0-3.975-3.226-7.2-7.2-7.2S210.854,178.617,210.854,182.592z" fill="#BE1E2D" fill-rule="evenodd"/><path clip-rule="evenodd" d="M210.938,182.646c0,4,3.226,7.225,7.2,7.225      s7.2-3.225,7.2-7.225c0-3.975-3.225-7.2-7.2-7.2S210.938,178.671,210.938,182.646z" fill="#BE1E2D" fill-rule="evenodd"/><path clip-rule="evenodd" d="M211.022,182.7c0,4,3.225,7.225,7.2,7.225      c3.975,0,7.2-3.225,7.2-7.225c0-3.975-3.225-7.2-7.2-7.2C214.248,175.5,211.022,178.726,211.022,182.7z" fill="#BE1E2D" fill-rule="evenodd"/><path clip-rule="evenodd" d="M211.106,182.754c0,4,3.225,7.225,7.201,7.225      c3.974,0,7.199-3.225,7.199-7.225c0-3.975-3.225-7.2-7.199-7.2C214.331,175.554,211.106,178.779,211.106,182.754z" fill="#BE1E2D" fill-rule="evenodd"/><path clip-rule="evenodd" d="M211.19,182.809c0,4,3.225,7.225,7.201,7.225      c3.974,0,7.199-3.225,7.199-7.225c0-3.975-3.225-7.2-7.199-7.2C214.415,175.608,211.19,178.833,211.19,182.809z" fill="#BE1E2D" fill-rule="evenodd"/><path clip-rule="evenodd" d="M211.274,182.863c0,4,3.225,7.225,7.2,7.225      c3.975,0,7.199-3.225,7.199-7.225c0-3.975-3.225-7.2-7.199-7.2C214.499,175.663,211.274,178.888,211.274,182.863z" fill="#BE1E2D" fill-rule="evenodd"/><path clip-rule="evenodd" d="M211.358,182.917c0,4,3.225,7.225,7.199,7.225      s7.2-3.225,7.2-7.225c0-3.975-3.226-7.2-7.2-7.2S211.358,178.942,211.358,182.917z" fill="#BE1E2D" fill-rule="evenodd"/><path clip-rule="evenodd" d="M211.441,182.971c0,4,3.225,7.226,7.2,7.226      c3.975,0,7.2-3.226,7.2-7.226c0-3.975-3.225-7.2-7.2-7.2C214.667,175.771,211.441,178.996,211.441,182.971z" fill="#BE1E2D" fill-rule="evenodd"/><path clip-rule="evenodd" d="M211.525,183.025c0,4,3.226,7.225,7.2,7.225      c3.975,0,7.2-3.225,7.2-7.225c0-3.975-3.225-7.2-7.2-7.2C214.751,175.825,211.525,179.051,211.525,183.025z" fill="#BE1E2D" fill-rule="evenodd"/><path clip-rule="evenodd" d="M211.61,183.08c0,4,3.225,7.225,7.2,7.225      c3.975,0,7.2-3.225,7.2-7.225c0-3.975-3.225-7.2-7.2-7.2C214.835,175.88,211.61,179.105,211.61,183.08z" fill="#BE1E2D" fill-rule="evenodd"/><path clip-rule="evenodd" d="M211.693,183.134c0,4,3.225,7.225,7.2,7.225      c3.975,0,7.199-3.225,7.199-7.225c0-3.975-3.225-7.2-7.199-7.2C214.918,175.934,211.693,179.159,211.693,183.134z" fill="#BE1E2D" fill-rule="evenodd"/><path clip-rule="evenodd" d="M211.777,183.188c0,4,3.225,7.225,7.201,7.225      c3.975,0,7.199-3.225,7.199-7.225c0-3.975-3.225-7.2-7.199-7.2C215.002,175.988,211.777,179.213,211.777,183.188z" fill="#BE1E2D" fill-rule="evenodd"/><path clip-rule="evenodd" d="M211.861,183.242c0,4,3.225,7.225,7.2,7.225      c3.975,0,7.199-3.225,7.199-7.225c0-3.975-3.225-7.2-7.199-7.2C215.086,176.042,211.861,179.268,211.861,183.242z" fill="#BE1E2D" fill-rule="evenodd"/><path clip-rule="evenodd" d="M211.945,183.297c0,4,3.225,7.225,7.2,7.225      c3.975,0,7.2-3.225,7.2-7.225c0-3.975-3.225-7.2-7.2-7.2C215.17,176.097,211.945,179.322,211.945,183.297z" fill="#BE1E2D" fill-rule="evenodd"/><path clip-rule="evenodd" d="M212.029,183.351c0,4,3.225,7.226,7.2,7.226      c3.975,0,7.199-3.226,7.199-7.226c0-3.975-3.225-7.2-7.199-7.2C215.254,176.15,212.029,179.376,212.029,183.351z" fill="#BE1E2D" fill-rule="evenodd"/><path clip-rule="evenodd" d="M212.113,183.405c0,4,3.225,7.225,7.2,7.225      c3.975,0,7.2-3.225,7.2-7.225c0-3.975-3.226-7.2-7.2-7.2C215.337,176.205,212.113,179.43,212.113,183.405z" fill="#BE1E2D" fill-rule="evenodd"/><path clip-rule="evenodd" d="M212.197,183.459c0,4,3.225,7.225,7.2,7.225      c3.975,0,7.2-3.225,7.2-7.225c0-3.975-3.225-7.2-7.2-7.2C215.422,176.259,212.197,179.484,212.197,183.459z" fill="#BE1E2D" fill-rule="evenodd"/><path clip-rule="evenodd" d="M212.281,183.514c0,4,3.225,7.225,7.201,7.225      c3.974,0,7.199-3.225,7.199-7.225c0-3.975-3.225-7.2-7.199-7.2C215.506,176.313,212.281,179.539,212.281,183.514z" fill="#BE1E2D" fill-rule="evenodd"/><path clip-rule="evenodd" d="M212.364,183.568c0,4,3.225,7.225,7.2,7.225      c3.975,0,7.2-3.225,7.2-7.225c0-3.975-3.226-7.2-7.2-7.2C215.589,176.368,212.364,179.593,212.364,183.568z" fill="#BE1E2D" fill-rule="evenodd"/><path clip-rule="evenodd" d="M212.448,183.622c0,4,3.225,7.225,7.2,7.225      c3.975,0,7.199-3.225,7.199-7.225c0-3.975-3.225-7.2-7.199-7.2C215.673,176.422,212.448,179.647,212.448,183.622z" fill="#BE1E2D" fill-rule="evenodd"/><path clip-rule="evenodd" d="M212.532,183.676c0,4,3.225,7.225,7.2,7.225      c3.975,0,7.2-3.225,7.2-7.225c0-3.975-3.225-7.2-7.2-7.2C215.757,176.476,212.532,179.701,212.532,183.676z" fill="#BE1E2D" fill-rule="evenodd"/><path clip-rule="evenodd" d="M212.616,183.73c0,4,3.226,7.225,7.2,7.225      s7.199-3.225,7.199-7.225c0-3.975-3.225-7.2-7.199-7.2S212.616,179.756,212.616,183.73z" fill="#BE1E2D" fill-rule="evenodd"/><path clip-rule="evenodd" d="M212.7,183.784c0,4,3.225,7.226,7.201,7.226      c3.975,0,7.199-3.225,7.199-7.226c0-3.975-3.225-7.2-7.199-7.2C215.925,176.584,212.7,179.81,212.7,183.784z" fill="#BE1E2D" fill-rule="evenodd"/><path clip-rule="evenodd" d="M212.784,183.838c0,4,3.225,7.225,7.2,7.225      s7.2-3.225,7.2-7.225c0-3.975-3.226-7.2-7.2-7.2S212.784,179.863,212.784,183.838z" fill="#BE1E2D" fill-rule="evenodd"/><path clip-rule="evenodd" d="M212.868,183.893c0,4,3.225,7.225,7.199,7.225      s7.2-3.226,7.2-7.225c0-3.975-3.226-7.2-7.2-7.2S212.868,179.918,212.868,183.893z" fill="#BE1E2D" fill-rule="evenodd"/><path clip-rule="evenodd" d="M212.952,183.947c0,4,3.225,7.225,7.2,7.225      c3.974,0,7.199-3.225,7.199-7.225c0-3.975-3.225-7.2-7.199-7.2C216.177,176.747,212.952,179.973,212.952,183.947z" fill="#BE1E2D" fill-rule="evenodd"/><path clip-rule="evenodd" d="M213.035,184.001c0,4,3.226,7.225,7.2,7.225      s7.2-3.225,7.2-7.225c0-3.975-3.226-7.2-7.2-7.2S213.035,180.026,213.035,184.001z" fill="#BE1E2D" fill-rule="evenodd"/><path clip-rule="evenodd" d="M213.119,184.056c0,4,3.225,7.225,7.2,7.225      c3.975,0,7.199-3.225,7.199-7.225c0-3.975-3.225-7.2-7.199-7.2C216.344,176.855,213.119,180.081,213.119,184.056z" fill="#BE1E2D" fill-rule="evenodd"/><path clip-rule="evenodd" d="M213.203,184.109c0,4,3.225,7.225,7.2,7.225      c3.975,0,7.2-3.225,7.2-7.225c0-3.974-3.226-7.2-7.2-7.2C216.428,176.91,213.203,180.135,213.203,184.109z" fill="#BE1E2D" fill-rule="evenodd"/><path clip-rule="evenodd" d="M213.287,184.165c0,4,3.226,7.225,7.2,7.225      s7.2-3.226,7.2-7.225c0-3.975-3.226-7.201-7.2-7.201S213.287,180.189,213.287,184.165z" fill="#BE1E2D" fill-rule="evenodd"/><path clip-rule="evenodd" d="M213.371,184.219c0,4,3.225,7.225,7.201,7.225      c3.974,0,7.199-3.225,7.199-7.225c0-3.976-3.225-7.201-7.199-7.201C216.596,177.018,213.371,180.243,213.371,184.219z" fill="#BE1E2D" fill-rule="evenodd"/><path clip-rule="evenodd" d="M213.454,184.272c0,4,3.226,7.225,7.2,7.225      c3.976,0,7.2-3.225,7.2-7.225c0-3.975-3.225-7.2-7.2-7.2C216.68,177.072,213.454,180.298,213.454,184.272z" fill="#BE1E2D" fill-rule="evenodd"/><path clip-rule="evenodd" d="M213.539,184.327c0,4,3.225,7.225,7.2,7.225      c3.975,0,7.199-3.225,7.199-7.225c0-3.975-3.225-7.2-7.199-7.2C216.764,177.126,213.539,180.352,213.539,184.327z" fill="#BE1E2D" fill-rule="evenodd"/><path clip-rule="evenodd" d="M213.623,184.381c0,4,3.225,7.225,7.2,7.225      c3.975,0,7.199-3.225,7.199-7.225c0-3.975-3.225-7.2-7.199-7.2C216.848,177.181,213.623,180.406,213.623,184.381z" fill="#BE1E2D" fill-rule="evenodd"/><path clip-rule="evenodd" d="M213.707,184.435c0,4,3.225,7.225,7.2,7.225      c3.975,0,7.2-3.225,7.2-7.225c0-3.975-3.225-7.2-7.2-7.2C216.932,177.235,213.707,180.46,213.707,184.435z" fill="#BE1E2D" fill-rule="evenodd"/><path clip-rule="evenodd" d="M213.79,184.489c0,4,3.225,7.225,7.2,7.225      c3.975,0,7.2-3.225,7.2-7.225c0-3.975-3.226-7.2-7.2-7.2C217.015,177.29,213.79,180.515,213.79,184.489z" fill="#BE1E2D" fill-rule="evenodd"/><path clip-rule="evenodd" d="M213.874,184.544c0,4,3.225,7.225,7.2,7.225      c3.975,0,7.2-3.225,7.2-7.225c0-3.975-3.225-7.2-7.2-7.2C217.099,177.344,213.874,180.569,213.874,184.544z" fill="#BE1E2D" fill-rule="evenodd"/><path clip-rule="evenodd" d="M213.958,184.598c0,4,3.226,7.225,7.2,7.225      s7.2-3.225,7.2-7.225c0-3.975-3.226-7.2-7.2-7.2S213.958,180.623,213.958,184.598z" fill="#BE1E2D" fill-rule="evenodd"/><path clip-rule="evenodd" d="M214.042,184.652c0,4,3.225,7.225,7.2,7.225      c3.975,0,7.2-3.225,7.2-7.225c0-3.975-3.225-7.2-7.2-7.2C217.267,177.452,214.042,180.677,214.042,184.652z" fill="#BE1E2D" fill-rule="evenodd"/><path clip-rule="evenodd" d="M214.126,184.706c0,4,3.225,7.225,7.2,7.225      c3.975,0,7.199-3.225,7.199-7.225c0-3.975-3.225-7.2-7.199-7.2C217.351,177.506,214.126,180.731,214.126,184.706z" fill="#BE1E2D" fill-rule="evenodd"/><path clip-rule="evenodd" d="M214.21,184.761c0,4,3.225,7.225,7.2,7.225      c3.975,0,7.2-3.225,7.2-7.225c0-3.976-3.225-7.2-7.2-7.2C217.435,177.561,214.21,180.785,214.21,184.761z" fill="#BE1E2D" fill-rule="evenodd"/><path clip-rule="evenodd" d="M214.293,184.815c0,4,3.226,7.225,7.201,7.225      c3.974,0,7.199-3.225,7.199-7.225c0-3.975-3.225-7.201-7.199-7.201C217.519,177.614,214.293,180.84,214.293,184.815z" fill="#BE1E2D" fill-rule="evenodd"/><path clip-rule="evenodd" d="M214.377,184.869c0,4,3.225,7.225,7.2,7.225      c3.975,0,7.2-3.225,7.2-7.225c0-3.975-3.225-7.2-7.2-7.2C217.603,177.669,214.377,180.895,214.377,184.869z" fill="#BE1E2D" fill-rule="evenodd"/><path clip-rule="evenodd" d="M214.461,184.923c0,4,3.225,7.225,7.2,7.225      c3.975,0,7.2-3.225,7.2-7.225c0-3.975-3.225-7.201-7.2-7.201C217.687,177.723,214.461,180.948,214.461,184.923z" fill="#BE1E2D" fill-rule="evenodd"/><path clip-rule="evenodd" d="M214.545,184.978c0,4,3.226,7.225,7.2,7.225      s7.2-3.225,7.2-7.225c0-3.975-3.226-7.2-7.2-7.2S214.545,181.003,214.545,184.978z" fill="#BE1E2D" fill-rule="evenodd"/><path clip-rule="evenodd" d="M214.629,185.031c0,4,3.225,7.226,7.2,7.226      c3.975,0,7.2-3.226,7.2-7.226c0-3.975-3.225-7.199-7.2-7.199C217.854,177.832,214.629,181.057,214.629,185.031z" fill="#BE1E2D" fill-rule="evenodd"/><path clip-rule="evenodd" d="M214.713,185.086c0,4,3.225,7.225,7.2,7.225      c3.975,0,7.199-3.225,7.199-7.225c0-3.975-3.225-7.2-7.199-7.2C217.938,177.886,214.713,181.111,214.713,185.086z" fill="#BE1E2D" fill-rule="evenodd"/><path clip-rule="evenodd" d="M214.797,185.14c0,4,3.225,7.225,7.2,7.225      c3.975,0,7.2-3.225,7.2-7.225c0-3.975-3.225-7.2-7.2-7.2C218.022,177.94,214.797,181.165,214.797,185.14z" fill="#BE1E2D" fill-rule="evenodd"/><path clip-rule="evenodd" d="M214.881,185.194c0,4,3.225,7.225,7.2,7.225      c3.975,0,7.2-3.225,7.2-7.225c0-3.975-3.225-7.2-7.2-7.2C218.106,177.995,214.881,181.219,214.881,185.194z" fill="#BE1E2D" fill-rule="evenodd"/><path clip-rule="evenodd" d="M214.965,185.249c0,4,3.225,7.224,7.2,7.224      c3.975,0,7.199-3.224,7.199-7.224c0-3.976-3.225-7.2-7.199-7.2C218.189,178.049,214.965,181.273,214.965,185.249z" fill="#BE1E2D" fill-rule="evenodd"/><path clip-rule="evenodd" d="M215.048,185.303c0,4,3.226,7.225,7.201,7.225      s7.2-3.225,7.2-7.225c0-3.975-3.225-7.2-7.2-7.2S215.048,181.328,215.048,185.303z" fill="#BE1E2D" fill-rule="evenodd"/><path clip-rule="evenodd" d="M215.132,185.356c0,4,3.225,7.226,7.2,7.226      c3.974,0,7.2-3.225,7.2-7.226c0-3.975-3.226-7.199-7.2-7.199C218.357,178.157,215.132,181.382,215.132,185.356z" fill="#BE1E2D" fill-rule="evenodd"/><path clip-rule="evenodd" d="M215.216,185.411c0,4,3.225,7.225,7.2,7.225      s7.2-3.225,7.2-7.225c0-3.975-3.226-7.2-7.2-7.2S215.216,181.437,215.216,185.411z" fill="#BE1E2D" fill-rule="evenodd"/><path clip-rule="evenodd" d="M215.3,185.465c0,4,3.226,7.225,7.2,7.225s7.2-3.225,7.2-7.225      c0-3.975-3.226-7.2-7.2-7.2S215.3,181.49,215.3,185.465z" fill="#BE1E2D" fill-rule="evenodd"/><path clip-rule="evenodd" d="M215.384,185.52c0,4,3.225,7.225,7.2,7.225      c3.975,0,7.2-3.225,7.2-7.225c0-3.975-3.226-7.2-7.2-7.2C218.609,178.32,215.384,181.545,215.384,185.52z" fill="#BE1E2D" fill-rule="evenodd"/><path clip-rule="evenodd" d="M215.468,185.574c0,4,3.226,7.225,7.2,7.225      s7.199-3.225,7.199-7.225c0-3.975-3.225-7.2-7.199-7.2S215.468,181.599,215.468,185.574z" fill="#BE1E2D" fill-rule="evenodd"/><path clip-rule="evenodd" d="M215.552,185.628c0,4,3.225,7.225,7.2,7.225      c3.975,0,7.2-3.225,7.2-7.225c0-3.975-3.225-7.2-7.2-7.2C218.777,178.428,215.552,181.653,215.552,185.628z" fill="#BE1E2D" fill-rule="evenodd"/><path clip-rule="evenodd" d="M215.636,185.683c0,4,3.225,7.225,7.2,7.225      c3.975,0,7.199-3.225,7.199-7.225c0-3.975-3.225-7.2-7.199-7.2C218.86,178.482,215.636,181.708,215.636,185.683z" fill="#BE1E2D" fill-rule="evenodd"/><path clip-rule="evenodd" d="M215.72,185.736c0,4,3.225,7.225,7.2,7.225      s7.2-3.225,7.2-7.225c0-3.975-3.225-7.2-7.2-7.2S215.72,181.762,215.72,185.736z" fill="#BE1E2D" fill-rule="evenodd"/><path clip-rule="evenodd" d="M215.803,185.791c0,4,3.225,7.225,7.201,7.225      c3.974,0,7.199-3.225,7.199-7.225c0-3.975-3.225-7.2-7.199-7.2C219.028,178.591,215.803,181.816,215.803,185.791z" fill="#BE1E2D" fill-rule="evenodd"/><path clip-rule="evenodd" d="M215.887,185.845c0,4,3.225,7.225,7.2,7.225      c3.975,0,7.2-3.225,7.2-7.225c0-3.975-3.225-7.2-7.2-7.2C219.112,178.645,215.887,181.87,215.887,185.845z" fill="#BE1E2D" fill-rule="evenodd"/><path clip-rule="evenodd" d="M215.971,185.899c0,4,3.225,7.225,7.2,7.225      c3.975,0,7.2-3.225,7.2-7.225c0-3.976-3.225-7.2-7.2-7.2C219.196,178.699,215.971,181.924,215.971,185.899z" fill="#BE1E2D" fill-rule="evenodd"/><path clip-rule="evenodd" d="M216.055,185.953c0,4,3.225,7.225,7.2,7.225      s7.2-3.225,7.2-7.225c0-3.975-3.225-7.2-7.2-7.2S216.055,181.979,216.055,185.953z" fill="#BE1E2D" fill-rule="evenodd"/><path clip-rule="evenodd" d="M216.139,186.008c0,4,3.226,7.225,7.2,7.225      s7.2-3.225,7.2-7.225c0-3.975-3.226-7.2-7.2-7.2S216.139,182.033,216.139,186.008z" fill="#BE1E2D" fill-rule="evenodd"/><path clip-rule="evenodd" d="M216.223,186.062c0,4,3.225,7.225,7.2,7.225      c3.975,0,7.2-3.225,7.2-7.225c0-3.975-3.225-7.2-7.2-7.2C219.448,178.862,216.223,182.087,216.223,186.062z" fill="#BE1E2D" fill-rule="evenodd"/><path clip-rule="evenodd" d="M216.307,186.116c0,4,3.225,7.225,7.2,7.225      c3.975,0,7.2-3.225,7.2-7.225c0-3.975-3.225-7.2-7.2-7.2C219.531,178.916,216.307,182.142,216.307,186.116z" fill="#BE1E2D" fill-rule="evenodd"/><path clip-rule="evenodd" d="M216.391,186.17c0,4,3.225,7.226,7.2,7.226      c3.974,0,7.199-3.225,7.199-7.226c0-3.975-3.225-7.2-7.199-7.2C219.615,178.97,216.391,182.195,216.391,186.17z" fill="#BE1E2D" fill-rule="evenodd"/><path clip-rule="evenodd" d="M216.475,186.225c0,4,3.225,7.225,7.2,7.225      c3.974,0,7.199-3.225,7.199-7.225c0-3.975-3.225-7.2-7.199-7.2C219.7,179.024,216.475,182.25,216.475,186.225z" fill="#BE1E2D" fill-rule="evenodd"/><path clip-rule="evenodd" d="M216.558,186.279c0,4,3.225,7.225,7.2,7.225      c3.975,0,7.2-3.225,7.2-7.225c0-3.975-3.225-7.2-7.2-7.2C219.783,179.079,216.558,182.304,216.558,186.279z" fill="#BE1E2D" fill-rule="evenodd"/><path clip-rule="evenodd" d="M216.642,186.333c0,4,3.225,7.225,7.2,7.225      c3.975,0,7.2-3.225,7.2-7.225c0-3.975-3.225-7.2-7.2-7.2C219.867,179.133,216.642,182.358,216.642,186.333z" fill="#BE1E2D" fill-rule="evenodd"/><path clip-rule="evenodd" d="M216.726,186.388c0,3.999,3.225,7.224,7.2,7.224      s7.2-3.225,7.2-7.224c0-3.976-3.226-7.2-7.2-7.2S216.726,182.412,216.726,186.388z" fill="#BE1E2D" fill-rule="evenodd"/><path clip-rule="evenodd" d="M216.81,186.441c0,4,3.226,7.225,7.201,7.225      c3.974,0,7.199-3.225,7.199-7.225c0-3.975-3.225-7.2-7.199-7.2C220.035,179.241,216.81,182.466,216.81,186.441z" fill="#BE1E2D" fill-rule="evenodd"/><path clip-rule="evenodd" d="M216.894,186.495c0,4,3.226,7.225,7.2,7.225      s7.2-3.225,7.2-7.225c0-3.975-3.226-7.199-7.2-7.199S216.894,182.521,216.894,186.495z" fill="#BE1E2D" fill-rule="evenodd"/><path clip-rule="evenodd" d="M216.978,186.55c0,4,3.225,7.225,7.2,7.225      c3.975,0,7.2-3.225,7.2-7.225c0-3.975-3.225-7.2-7.2-7.2C220.203,179.35,216.978,182.575,216.978,186.55z" fill="#BE1E2D" fill-rule="evenodd"/><path clip-rule="evenodd" d="M217.062,186.604c0,4,3.225,7.225,7.2,7.225      c3.975,0,7.199-3.225,7.199-7.225c0-3.975-3.225-7.2-7.199-7.2C220.286,179.404,217.062,182.629,217.062,186.604z" fill="#BE1E2D" fill-rule="evenodd"/><path clip-rule="evenodd" d="M217.146,186.658c0,4,3.225,7.225,7.2,7.225      c3.975,0,7.2-3.225,7.2-7.225c0-3.975-3.225-7.2-7.2-7.2C220.371,179.458,217.146,182.684,217.146,186.658z" fill="#BE1E2D" fill-rule="evenodd"/><path clip-rule="evenodd" d="M217.229,186.713c0,4,3.225,7.225,7.2,7.225      s7.2-3.225,7.2-7.225c0-3.975-3.225-7.2-7.2-7.2S217.229,182.738,217.229,186.713z" fill="#BE1E2D" fill-rule="evenodd"/><path clip-rule="evenodd" d="M217.313,186.767c0,4,3.225,7.225,7.201,7.225      c3.974,0,7.199-3.225,7.199-7.225c0-3.975-3.226-7.2-7.199-7.2C220.538,179.566,217.313,182.792,217.313,186.767z" fill="#BE1E2D" fill-rule="evenodd"/><path clip-rule="evenodd" d="M217.397,186.821c0,4,3.225,7.225,7.2,7.225      s7.2-3.225,7.2-7.225c0-3.975-3.226-7.2-7.2-7.2S217.397,182.846,217.397,186.821z" fill="#BE1E2D" fill-rule="evenodd"/><path clip-rule="evenodd" d="M217.48,186.875c0,4,3.226,7.225,7.201,7.225      c3.974,0,7.2-3.225,7.2-7.225c0-3.975-3.226-7.2-7.2-7.2C220.706,179.675,217.48,182.9,217.48,186.875z" fill="#BE1E2D" fill-rule="evenodd"/><path clip-rule="evenodd" d="M217.564,186.929c0,4,3.226,7.225,7.2,7.225      s7.2-3.225,7.2-7.225c0-3.975-3.225-7.2-7.2-7.2S217.564,182.955,217.564,186.929z" fill="#BE1E2D" fill-rule="evenodd"/><path clip-rule="evenodd" d="M217.648,186.983c0,4,3.225,7.225,7.2,7.225      c3.975,0,7.2-3.225,7.2-7.225c0-3.975-3.226-7.2-7.2-7.2C220.874,179.783,217.648,183.009,217.648,186.983z" fill="#BE1E2D" fill-rule="evenodd"/><path clip-rule="evenodd" d="M217.732,187.038c0,4,3.225,7.225,7.2,7.225      c3.975,0,7.2-3.225,7.2-7.225c0-3.976-3.225-7.2-7.2-7.2C220.957,179.838,217.732,183.063,217.732,187.038z" fill="#BE1E2D" fill-rule="evenodd"/><path clip-rule="evenodd" d="M217.816,187.092c0,4,3.225,7.225,7.2,7.225      c3.975,0,7.199-3.225,7.199-7.225c0-3.975-3.225-7.2-7.199-7.2C221.042,179.892,217.816,183.117,217.816,187.092z" fill="#BE1E2D" fill-rule="evenodd"/><path clip-rule="evenodd" d="M217.9,187.146c0,4,3.225,7.225,7.2,7.225      c3.975,0,7.2-3.225,7.2-7.225c0-3.976-3.225-7.2-7.2-7.2C221.125,179.946,217.9,183.171,217.9,187.146z" fill="#BE1E2D" fill-rule="evenodd"/><path clip-rule="evenodd" d="M217.984,187.201c0,4,3.225,7.225,7.201,7.225      c3.974,0,7.199-3.225,7.199-7.225c0-3.975-3.225-7.201-7.199-7.201C221.209,180,217.984,183.226,217.984,187.201z" fill="#BE1E2D" fill-rule="evenodd"/><path clip-rule="evenodd" d="M218.068,187.255c0,4,3.225,7.225,7.2,7.225      c3.975,0,7.2-3.225,7.2-7.225c0-3.975-3.225-7.2-7.2-7.2C221.293,180.055,218.068,183.28,218.068,187.255z" fill="#BE1E2D" fill-rule="evenodd"/><path clip-rule="evenodd" d="M218.152,187.309c0,4,3.225,7.225,7.201,7.225      c3.974,0,7.199-3.225,7.199-7.225c0-3.975-3.225-7.2-7.199-7.2C221.377,180.108,218.152,183.334,218.152,187.309z" fill="#BE1E2D" fill-rule="evenodd"/><path clip-rule="evenodd" d="M218.235,187.363c0,4,3.226,7.225,7.2,7.225      c3.975,0,7.2-3.225,7.2-7.225c0-3.975-3.225-7.2-7.2-7.2C221.461,180.163,218.235,183.388,218.235,187.363z" fill="#BE1E2D" fill-rule="evenodd"/><path clip-rule="evenodd" d="M218.319,187.417c0,4,3.226,7.225,7.2,7.225      s7.2-3.226,7.2-7.225c0-3.975-3.225-7.2-7.2-7.2S218.319,183.442,218.319,187.417z" fill="#BE1E2D" fill-rule="evenodd"/><path clip-rule="evenodd" d="M218.403,187.472c0,4,3.225,7.225,7.2,7.225      c3.975,0,7.2-3.225,7.2-7.225c0-3.975-3.226-7.2-7.2-7.2C221.628,180.271,218.403,183.497,218.403,187.472z" fill="#BE1E2D" fill-rule="evenodd"/><path clip-rule="evenodd" d="M218.487,187.526c0,4,3.226,7.225,7.2,7.225      s7.2-3.225,7.2-7.225c0-3.975-3.225-7.2-7.2-7.2S218.487,183.551,218.487,187.526z" fill="#BE1E2D" fill-rule="evenodd"/><path clip-rule="evenodd" d="M218.571,187.58c0,4,3.225,7.225,7.2,7.225      c3.974,0,7.199-3.225,7.199-7.225c0-3.975-3.225-7.2-7.199-7.2C221.796,180.38,218.571,183.605,218.571,187.58z" fill="#BE1E2D" fill-rule="evenodd"/><path clip-rule="evenodd" d="M218.655,187.634c0,4.001,3.225,7.225,7.2,7.225      s7.2-3.224,7.2-7.225c0-3.975-3.225-7.199-7.2-7.199S218.655,183.659,218.655,187.634z" fill="#BE1E2D" fill-rule="evenodd"/><path clip-rule="evenodd" d="M218.739,187.688c0,4,3.225,7.225,7.201,7.225      c3.975,0,7.199-3.225,7.199-7.225c0-3.975-3.225-7.2-7.199-7.2C221.964,180.489,218.739,183.714,218.739,187.688z" fill="#BE1E2D" fill-rule="evenodd"/><path clip-rule="evenodd" d="M218.823,187.743c0,4,3.225,7.225,7.2,7.225      c3.976,0,7.2-3.225,7.2-7.225c0-3.975-3.225-7.2-7.2-7.2C222.048,180.543,218.823,183.768,218.823,187.743z" fill="#BE1E2D" fill-rule="evenodd"/><path clip-rule="evenodd" d="M218.907,187.797c0,4,3.225,7.225,7.2,7.225      c3.974,0,7.2-3.225,7.2-7.225c0-3.975-3.226-7.2-7.2-7.2C222.132,180.597,218.907,183.822,218.907,187.797z" fill="#BE1E2D" fill-rule="evenodd"/><path clip-rule="evenodd" d="M218.99,187.852c0,4,3.226,7.225,7.2,7.225      s7.2-3.225,7.2-7.225c0-3.975-3.226-7.2-7.2-7.2S218.99,183.876,218.99,187.852z" fill="#BE1E2D" fill-rule="evenodd"/><path clip-rule="evenodd" d="M219.074,187.905c0,4,3.225,7.225,7.2,7.225      c3.975,0,7.2-3.225,7.2-7.225c0-3.975-3.225-7.2-7.2-7.2C222.299,180.706,219.074,183.931,219.074,187.905z" fill="#BE1E2D" fill-rule="evenodd"/><path clip-rule="evenodd" d="M219.158,187.96c0,4,3.226,7.225,7.2,7.225      s7.2-3.225,7.2-7.225c0-3.975-3.226-7.2-7.2-7.2S219.158,183.985,219.158,187.96z" fill="#BE1E2D" fill-rule="evenodd"/><path clip-rule="evenodd" d="M219.242,188.014c0,4,3.225,7.225,7.2,7.225      c3.975,0,7.2-3.225,7.2-7.225c0-3.975-3.225-7.2-7.2-7.2C222.467,180.814,219.242,184.039,219.242,188.014z" fill="#BE1E2D" fill-rule="evenodd"/><path clip-rule="evenodd" d="M219.326,188.068c0,4,3.225,7.225,7.2,7.225      c3.975,0,7.2-3.225,7.2-7.225c0-3.975-3.225-7.2-7.2-7.2C222.551,180.868,219.326,184.093,219.326,188.068z" fill="#BE1E2D" fill-rule="evenodd"/><path clip-rule="evenodd" d="M219.41,188.122c0,4,3.225,7.225,7.2,7.225      c3.975,0,7.199-3.225,7.199-7.225c0-3.975-3.225-7.2-7.199-7.2C222.635,180.922,219.41,184.147,219.41,188.122z" fill="#BE1E2D" fill-rule="evenodd"/><path clip-rule="evenodd" d="M219.494,188.177c0,4,3.226,7.224,7.2,7.224      s7.2-3.224,7.2-7.224c0-3.976-3.225-7.2-7.2-7.2S219.494,184.201,219.494,188.177z" fill="#BE1E2D" fill-rule="evenodd"/><path clip-rule="evenodd" d="M219.578,188.231c0,4,3.225,7.224,7.2,7.224      c3.975,0,7.2-3.225,7.2-7.224c0-3.975-3.225-7.2-7.2-7.2C222.803,181.031,219.578,184.256,219.578,188.231z" fill="#BE1E2D" fill-rule="evenodd"/><path clip-rule="evenodd" d="M219.661,188.285c0,4,3.226,7.225,7.2,7.225      c3.975,0,7.2-3.225,7.2-7.225c0-3.976-3.225-7.2-7.2-7.2C222.887,181.085,219.661,184.31,219.661,188.285z" fill="#BE1E2D" fill-rule="evenodd"/><path clip-rule="evenodd" d="M219.745,188.339c0,4,3.225,7.225,7.201,7.225      c3.975,0,7.2-3.225,7.2-7.225c0-3.975-3.225-7.2-7.2-7.2C222.97,181.139,219.745,184.364,219.745,188.339z" fill="#BE1E2D" fill-rule="evenodd"/><path clip-rule="evenodd" d="M219.829,188.394c0,4,3.226,7.225,7.2,7.225      s7.2-3.225,7.2-7.225c0-3.975-3.225-7.2-7.2-7.2S219.829,184.418,219.829,188.394z" fill="#BE1E2D" fill-rule="evenodd"/><path clip-rule="evenodd" d="M219.913,188.447c0,4,3.225,7.225,7.2,7.225      c3.975,0,7.2-3.225,7.2-7.225c0-3.975-3.225-7.2-7.2-7.2C223.138,181.248,219.913,184.473,219.913,188.447z" fill="#BE1E2D" fill-rule="evenodd"/><path clip-rule="evenodd" d="M219.997,188.502c0,4,3.225,7.225,7.2,7.225      c3.975,0,7.2-3.225,7.2-7.225c0-3.975-3.225-7.2-7.2-7.2C223.222,181.302,219.997,184.527,219.997,188.502z" fill="#BE1E2D" fill-rule="evenodd"/><path clip-rule="evenodd" d="M220.081,188.556c0,4,3.225,7.225,7.2,7.225      c3.975,0,7.199-3.225,7.199-7.225c0-3.975-3.225-7.2-7.199-7.2C223.306,181.356,220.081,184.581,220.081,188.556z" fill="#BE1E2D" fill-rule="evenodd"/><path clip-rule="evenodd" d="M220.165,188.61c0,4,3.226,7.225,7.2,7.225      s7.2-3.225,7.2-7.225c0-3.975-3.225-7.2-7.2-7.2S220.165,184.635,220.165,188.61z" fill="#BE1E2D" fill-rule="evenodd"/><path clip-rule="evenodd" d="M220.249,188.665c0,4,3.225,7.225,7.201,7.225      c3.974,0,7.199-3.225,7.199-7.225c0-3.975-3.225-7.2-7.199-7.2C223.474,181.464,220.249,184.689,220.249,188.665z" fill="#BE1E2D" fill-rule="evenodd"/><path clip-rule="evenodd" d="M220.333,188.719c0,4,3.225,7.225,7.2,7.225      c3.975,0,7.2-3.225,7.2-7.225c0-3.975-3.225-7.2-7.2-7.2C223.558,181.519,220.333,184.744,220.333,188.719z" fill="#BE1E2D" fill-rule="evenodd"/><path clip-rule="evenodd" d="M220.416,188.773c0,4,3.226,7.224,7.201,7.224      c3.975,0,7.2-3.225,7.2-7.224c0-3.976-3.225-7.201-7.2-7.201C223.642,181.573,220.416,184.798,220.416,188.773z" fill="#BE1E2D" fill-rule="evenodd"/><path clip-rule="evenodd" d="M220.5,188.827c0,4,3.226,7.225,7.2,7.225s7.2-3.225,7.2-7.225      c0-3.975-3.226-7.2-7.2-7.2S220.5,184.853,220.5,188.827z" fill="#BE1E2D" fill-rule="evenodd"/><path clip-rule="evenodd" d="M220.584,188.881c0,4,3.226,7.225,7.2,7.225      s7.2-3.225,7.2-7.225c0-3.975-3.225-7.2-7.2-7.2S220.584,184.906,220.584,188.881z" fill="#BE1E2D" fill-rule="evenodd"/><path clip-rule="evenodd" d="M220.668,188.936c0,4,3.225,7.225,7.2,7.225      c3.975,0,7.2-3.225,7.2-7.225c0-3.975-3.225-7.2-7.2-7.2C223.893,181.735,220.668,184.961,220.668,188.936z" fill="#BE1E2D" fill-rule="evenodd"/><path clip-rule="evenodd" d="M220.752,188.99c0,4,3.225,7.225,7.2,7.225      c3.975,0,7.2-3.224,7.2-7.225c0-3.975-3.225-7.2-7.2-7.2C223.977,181.79,220.752,185.015,220.752,188.99z" fill="#BE1E2D" fill-rule="evenodd"/><path clip-rule="evenodd" d="M220.836,189.044c0,4,3.225,7.225,7.2,7.225      c3.975,0,7.2-3.225,7.2-7.225c0-3.975-3.225-7.2-7.2-7.2C224.061,181.844,220.836,185.069,220.836,189.044z" fill="#BE1E2D" fill-rule="evenodd"/><path clip-rule="evenodd" d="M220.919,189.099c0,4,3.226,7.225,7.201,7.225      c3.975,0,7.199-3.225,7.199-7.225c0-3.975-3.225-7.201-7.199-7.201C224.145,181.898,220.919,185.124,220.919,189.099z" fill="#BE1E2D" fill-rule="evenodd"/><path clip-rule="evenodd" d="M221.003,189.153c0,4,3.225,7.225,7.2,7.225      s7.2-3.225,7.2-7.225c0-3.976-3.225-7.201-7.2-7.201S221.003,185.177,221.003,189.153z" fill="#BE1E2D" fill-rule="evenodd"/><path clip-rule="evenodd" d="M221.087,189.207c0,4,3.225,7.225,7.2,7.225      c3.974,0,7.2-3.225,7.2-7.225c0-3.975-3.226-7.2-7.2-7.2C224.313,182.006,221.087,185.232,221.087,189.207z" fill="#BE1E2D" fill-rule="evenodd"/><path clip-rule="evenodd" d="M221.171,189.261c0,4,3.226,7.225,7.2,7.225      c3.975,0,7.2-3.225,7.2-7.225c0-3.975-3.225-7.2-7.2-7.2C224.396,182.061,221.171,185.286,221.171,189.261z" fill="#BE1E2D" fill-rule="evenodd"/><path clip-rule="evenodd" d="M221.255,189.315c0,4,3.226,7.225,7.201,7.225      c3.975,0,7.2-3.225,7.2-7.225c0-3.975-3.225-7.201-7.2-7.201C224.48,182.115,221.255,185.34,221.255,189.315z" fill="#BE1E2D" fill-rule="evenodd"/><path clip-rule="evenodd" d="M221.339,189.37c0,4,3.225,7.224,7.2,7.224      s7.2-3.224,7.2-7.224c0-3.975-3.225-7.201-7.2-7.201S221.339,185.395,221.339,189.37z" fill="#BE1E2D" fill-rule="evenodd"/><path clip-rule="evenodd" d="M221.423,189.424c0,4,3.225,7.224,7.2,7.224      c3.975,0,7.2-3.225,7.2-7.224c0-3.976-3.225-7.201-7.2-7.201C224.648,182.223,221.423,185.448,221.423,189.424z" fill="#BE1E2D" fill-rule="evenodd"/><path clip-rule="evenodd" d="M221.507,189.478c0,4,3.225,7.224,7.2,7.224      c3.975,0,7.2-3.224,7.2-7.224c0-3.975-3.225-7.201-7.2-7.201C224.732,182.277,221.507,185.503,221.507,189.478z" fill="#BE1E2D" fill-rule="evenodd"/><path clip-rule="evenodd" d="M221.591,189.532c0,4,3.225,7.225,7.2,7.225      c3.975,0,7.2-3.225,7.2-7.225c0-3.975-3.225-7.2-7.2-7.2C224.816,182.332,221.591,185.557,221.591,189.532z" fill="#BE1E2D" fill-rule="evenodd"/><path clip-rule="evenodd" d="M221.674,189.586c0,4,3.225,7.225,7.2,7.225      c3.975,0,7.2-3.225,7.2-7.225c0-3.975-3.225-7.2-7.2-7.2C224.899,182.386,221.674,185.611,221.674,189.586z" fill="#BE1E2D" fill-rule="evenodd"/><path clip-rule="evenodd" d="M221.758,189.641c0,4,3.225,7.225,7.201,7.225      c3.974,0,7.2-3.225,7.2-7.225c0-3.975-3.226-7.2-7.2-7.2C224.983,182.44,221.758,185.666,221.758,189.641z" fill="#BE1E2D" fill-rule="evenodd"/><path clip-rule="evenodd" d="M221.842,189.695c0,4,3.225,7.225,7.2,7.225      c3.975,0,7.2-3.225,7.2-7.225c0-3.975-3.225-7.201-7.2-7.201C225.067,182.494,221.842,185.72,221.842,189.695z" fill="#BE1E2D" fill-rule="evenodd"/><path clip-rule="evenodd" d="M221.926,189.749c0,4,3.226,7.225,7.201,7.225      c3.975,0,7.2-3.225,7.2-7.225c0-3.975-3.225-7.2-7.2-7.2C225.151,182.549,221.926,185.774,221.926,189.749z" fill="#BE1E2D" fill-rule="evenodd"/><path clip-rule="evenodd" d="M222.01,189.803c0,4,3.225,7.225,7.2,7.225      s7.2-3.224,7.2-7.225c0-3.975-3.226-7.2-7.2-7.2S222.01,185.828,222.01,189.803z" fill="#BE1E2D" fill-rule="evenodd"/><path clip-rule="evenodd" d="M222.094,189.857c0,4,3.225,7.225,7.2,7.225      c3.974,0,7.199-3.225,7.199-7.225c0-3.975-3.225-7.2-7.199-7.2C225.319,182.658,222.094,185.882,222.094,189.857z" fill="#BE1E2D" fill-rule="evenodd"/><path clip-rule="evenodd" d="M222.178,189.912c0,4,3.226,7.225,7.2,7.225      s7.2-3.225,7.2-7.225c0-3.976-3.225-7.2-7.2-7.2S222.178,185.937,222.178,189.912z" fill="#BE1E2D" fill-rule="evenodd"/><path clip-rule="evenodd" d="M222.262,189.966c0,4,3.225,7.225,7.2,7.225      c3.975,0,7.199-3.225,7.199-7.225c0-3.975-3.225-7.2-7.199-7.2C225.487,182.766,222.262,185.991,222.262,189.966z" fill="#BE1E2D" fill-rule="evenodd"/><path clip-rule="evenodd" d="M222.345,190.02c0,4,3.226,7.225,7.201,7.225      c3.974,0,7.2-3.225,7.2-7.225c0-3.975-3.226-7.2-7.2-7.2C225.571,182.82,222.345,186.045,222.345,190.02z" fill="#BE1E2D" fill-rule="evenodd"/><path clip-rule="evenodd" d="M222.429,190.074c0,4,3.225,7.225,7.201,7.225      c3.974,0,7.199-3.225,7.199-7.225c0-3.975-3.225-7.2-7.199-7.2C225.654,182.875,222.429,186.1,222.429,190.074z" fill="#BE1E2D" fill-rule="evenodd"/><path clip-rule="evenodd" d="M222.513,190.128c0,4,3.226,7.225,7.2,7.225      s7.2-3.225,7.2-7.225c0-3.975-3.225-7.2-7.2-7.2S222.513,186.153,222.513,190.128z" fill="#BE1E2D" fill-rule="evenodd"/><path clip-rule="evenodd" d="M222.597,190.183c0,4,3.226,7.224,7.201,7.224      c3.975,0,7.2-3.224,7.2-7.224c0-3.976-3.225-7.2-7.2-7.2C225.822,182.983,222.597,186.208,222.597,190.183z" fill="#BE1E2D" fill-rule="evenodd"/><path clip-rule="evenodd" d="M222.681,190.237c0,4,3.225,7.224,7.2,7.224      c3.974,0,7.2-3.225,7.2-7.224c0-3.975-3.226-7.2-7.2-7.2C225.906,183.037,222.681,186.262,222.681,190.237z" fill="#BE1E2D" fill-rule="evenodd"/><path clip-rule="evenodd" d="M222.765,190.292c0,4,3.225,7.225,7.2,7.225      c3.974,0,7.199-3.225,7.199-7.225c0-3.976-3.225-7.2-7.199-7.2C225.99,183.091,222.765,186.316,222.765,190.292z" fill="#BE1E2D" fill-rule="evenodd"/><path clip-rule="evenodd" d="M222.849,190.345c0,4,3.226,7.225,7.2,7.225      c3.975,0,7.2-3.225,7.2-7.225c0-3.975-3.225-7.2-7.2-7.2C226.074,183.146,222.849,186.371,222.849,190.345z" fill="#BE1E2D" fill-rule="evenodd"/><path clip-rule="evenodd" d="M222.933,190.399c0,4,3.225,7.225,7.2,7.225      c3.975,0,7.2-3.225,7.2-7.225c0-3.975-3.225-7.2-7.2-7.2C226.158,183.2,222.933,186.424,222.933,190.399z" fill="#BE1E2D" fill-rule="evenodd"/><path clip-rule="evenodd" d="M223.017,190.454c0,4,3.225,7.225,7.2,7.225      c3.975,0,7.199-3.225,7.199-7.225c0-3.975-3.225-7.2-7.199-7.2C226.242,183.254,223.017,186.479,223.017,190.454z" fill="#BE1E2D" fill-rule="evenodd"/><path clip-rule="evenodd" d="M223.1,190.508c0,4,3.225,7.225,7.201,7.225      c3.975,0,7.2-3.225,7.2-7.225c0-3.975-3.225-7.2-7.2-7.2C226.325,183.308,223.1,186.533,223.1,190.508z" fill="#BE1E2D" fill-rule="evenodd"/><path clip-rule="evenodd" d="M223.184,190.563c0,4,3.226,7.225,7.2,7.225      c3.975,0,7.2-3.225,7.2-7.225c0-3.976-3.225-7.2-7.2-7.2C226.41,183.362,223.184,186.587,223.184,190.563z" fill="#BE1E2D" fill-rule="evenodd"/><path clip-rule="evenodd" d="M223.268,190.617c0,4,3.225,7.224,7.201,7.224      c3.974,0,7.199-3.225,7.199-7.224c0-3.975-3.225-7.2-7.199-7.2C226.493,183.417,223.268,186.642,223.268,190.617z" fill="#BE1E2D" fill-rule="evenodd"/><path clip-rule="evenodd" d="M223.352,190.671c0,4,3.225,7.224,7.2,7.224      c3.975,0,7.2-3.224,7.2-7.224c0-3.975-3.225-7.2-7.2-7.2C226.577,183.471,223.352,186.696,223.352,190.671z" fill="#BE1E2D" fill-rule="evenodd"/><path clip-rule="evenodd" d="M223.436,190.725c0,4,3.225,7.225,7.2,7.225      c3.975,0,7.2-3.225,7.2-7.225c0-3.975-3.225-7.2-7.2-7.2C226.661,183.525,223.436,186.75,223.436,190.725z" fill="#BE1E2D" fill-rule="evenodd"/><path clip-rule="evenodd" d="M223.52,190.779c0,4,3.225,7.225,7.2,7.225      c3.975,0,7.2-3.225,7.2-7.225c0-3.975-3.225-7.2-7.2-7.2C226.745,183.579,223.52,186.804,223.52,190.779z" fill="#BE1E2D" fill-rule="evenodd"/><path clip-rule="evenodd" d="M223.604,190.833c0,4,3.225,7.225,7.201,7.225      c3.974,0,7.2-3.225,7.2-7.225c0-3.975-3.226-7.2-7.2-7.2C226.829,183.633,223.604,186.858,223.604,190.833z" fill="#BE1E2D" fill-rule="evenodd"/><path clip-rule="evenodd" d="M223.688,190.888c0,4,3.225,7.225,7.2,7.225      c3.975,0,7.2-3.225,7.2-7.225c0-3.975-3.225-7.2-7.2-7.2C226.913,183.688,223.688,186.913,223.688,190.888z" fill="#BE1E2D" fill-rule="evenodd"/></g></g><path clip-rule="evenodd" d="M204.313,178.362c0,4,3.225,7.225,7.2,7.225    c3.975,0,7.2-3.225,7.2-7.225c0-3.975-3.225-7.2-7.2-7.2C207.538,171.163,204.313,174.388,204.313,178.362z" fill="#F58B86" fill-rule="evenodd"/><path clip-rule="evenodd" d="M236.212,175.987c12.05-8.45,24.1-16.9,36.15-25.375    c0.375-0.25,0.7-0.525,1.15-0.85c-5.351-3.3-10.976-4.35-16.95-3.7c-4.175,0.45-7.85,2.2-11.475,4.225    c-6.5,3.625-13,7.25-19.525,10.85L236.212,175.987z" fill="#FEDB52" fill-rule="evenodd"/><path clip-rule="evenodd" d="M222.337,196.263c5.4,3.05,12.85,7.225,21.325,11.8    c17.25,9.25,27.5,0.275,27.5,0.275l-38.35-26.675L222.337,196.263z" fill="#FEDB52" fill-rule="evenodd"/></g></g><g/><g/><g/><g/><g/><g/></svg>