<?xml version="1.0" ?><!DOCTYPE svg  PUBLIC '-//W3C//DTD SVG 1.1//EN'  'http://www.w3.org/Graphics/SVG/1.1/DTD/svg11.dtd'><svg enable-background="new 0 0 512 512" height="512px" id="Calque_1" version="1.1" viewBox="0 0 512 512" width="512px" xml:space="preserve" xmlns="http://www.w3.org/2000/svg" xmlns:xlink="http://www.w3.org/1999/xlink"><g><circle cx="256.003" cy="256" fill="#EBEEEF" r="255.997"/><g id="arrow_11_"><path clip-rule="evenodd" d="M248.315,386.573c-14-3.5-23.524-16.024-23.55-31.249    c-0.025-17.325-0.025-34.638-0.025-51.963l0.325-60.486l-23.1,23.575c-0.575,0.6-1.1,1.175-1.625,1.8    c-0.375,0.35-0.75,0.713-1.125,1.088c-15.375,14.262-40.074,9.324-49.099-9.613c-5.95-12.487-3.275-25.987,7.35-36.649    c32.1-32.149,64.274-64.249,96.424-96.374c0.65-0.638,1.4-1.25,2.55-2.25c0.976,1.163,1.75,2.25,2.675,3.2    c22.425,22.425,44.824,44.862,67.274,67.287c9.875,9.875,19.85,19.649,29.574,29.687c8.601,8.862,11.075,19.562,7.375,31.274    c-6.85,21.799-34.05,28.9-50.724,13.212c-8.4-7.888-16.25-16.375-24.375-24.563c-0.325,0.101-0.65,0.238-1,0.351    c0,1.188,0,2.337,0,3.5c0,8.6,0,17.237,0,25.887c0,27.188,0.125,54.412-0.025,81.624    C287.09,376.773,268.19,391.561,248.315,386.573z" fill="#44B39D" fill-rule="evenodd"/><path clip-rule="evenodd" d="M225.066,242.875l19.174-18.962    c0,0-17.225,42.012-19.475,71.824L225.066,242.875z" fill="#2C846D" fill-rule="evenodd" opacity="0.65"/></g></g><g/><g/><g/><g/><g/><g/></svg>