<?xml version="1.0" ?><!DOCTYPE svg  PUBLIC '-//W3C//DTD SVG 1.1//EN'  'http://www.w3.org/Graphics/SVG/1.1/DTD/svg11.dtd'><svg enable-background="new 0 0 512 512" height="512px" id="Calque_1" version="1.1" viewBox="0 0 512 512" width="512px" xml:space="preserve" xmlns="http://www.w3.org/2000/svg" xmlns:xlink="http://www.w3.org/1999/xlink"><g><circle cx="256.003" cy="256" fill="#A0D1DC" r="255.997"/><g id="glasses"><rect fill="#E1413E" height="42.225" width="100.536" x="270.703" y="273.8"/><rect fill="#4596D1" height="45.062" width="105.886" x="133.623" y="274.438"/><polygon fill="#414042" points="123.936,262.362 185.897,188.088 185.897,199.576 141.579,267.275   "/><path d="M234.528,280v29.949h-91.099V280H234.528 M248.484,266.05H129.479v57.862h119.005V266.05L248.484,266.05z" fill="#E6E7E8"/><polygon fill="#414042" points="388.076,262.362 326.102,188.088 326.102,199.576 370.427,267.275   "/><path d="M368.576,280v29.949h-91.099V280H368.576 M382.526,266.05H263.521v57.862h119.005V266.05L382.526,266.05z" fill="#E6E7E8"/><rect fill="#E6E7E8" height="11.899" width="263.859" x="124.167" y="262.362"/><rect fill="#D1D3D4" height="20.124" width="5.675" x="382.401" y="262.338"/><rect fill="#D1D3D4" height="20.124" width="5.675" x="123.917" y="262.338"/></g></g><g/><g/><g/><g/><g/><g/></svg>