<?xml version="1.0" ?><!DOCTYPE svg  PUBLIC '-//W3C//DTD SVG 1.1//EN'  'http://www.w3.org/Graphics/SVG/1.1/DTD/svg11.dtd'><svg enable-background="new 0 0 512 512" height="512px" id="Calque_1" version="1.1" viewBox="0 0 512 512" width="512px" xml:space="preserve" xmlns="http://www.w3.org/2000/svg" xmlns:xlink="http://www.w3.org/1999/xlink"><g><path d="M512,256c0,141.386-114.599,255.997-255.997,255.997C114.63,511.997,0.006,397.386,0.006,256   S114.63,0.003,256.003,0.003C397.401,0.003,512,114.614,512,256z" fill="#35707F"/><g id="location"><path clip-rule="evenodd" d="M199.829,220.944c0,29.875,24.225,54.105,54.099,54.105    c29.9,0,54.125-24.231,54.125-54.105c0-29.887-24.225-54.125-54.125-54.125C224.053,166.82,199.829,191.057,199.829,220.944z" fill="#BE4230" fill-rule="evenodd"/><path clip-rule="evenodd" d="M348.552,202.457c-8.399-38.399-32.399-62.749-70.324-73.149    c-4.825-1.337-9.899-1.813-14.85-2.688c-5,0-9.975,0-14.95,0c-0.575,0.163-1.125,0.413-1.7,0.463c-10.35,0.85-20.2,3.625-29.7,7.8    c-47.024,20.725-68.624,76.699-47.749,123.674c3.899,8.787,9.6,16.368,15.074,24.168c22.65,32.199,45.075,64.6,67.574,96.924    c1.3,1.85,2.6,3.7,4.025,5.725c0.675-0.925,1.199-1.6,1.675-2.274c8.975-12.9,17.925-25.8,26.925-38.675    c16.175-23.125,32.399-46.249,48.549-69.374C348.452,253.031,354.252,228.594,348.552,202.457z M254.053,267.781    c-25.949-0.063-46.999-21.037-47.099-46.949c-0.125-26,20.975-47.063,47.125-47.087c26.1-0.025,47.299,21.049,47.299,46.999    C301.377,246.606,280.027,267.818,254.053,267.781z" fill="#F15E4A" fill-rule="evenodd"/><g opacity="0.55"><defs><path d="M348.552,202.457c-8.399-38.399-32.399-62.749-70.324-73.149      c-4.825-1.337-9.899-1.813-14.85-2.688c-5,0-9.975,0-14.95,0c-0.575,0.163-1.125,0.413-1.7,0.463      c-10.35,0.85-20.2,3.625-29.7,7.8c-47.024,20.725-68.624,76.699-47.749,123.674c3.899,8.787,9.6,16.368,15.074,24.168      c22.65,32.199,45.075,64.6,67.574,96.924c1.3,1.85,2.6,3.7,4.025,5.725c0.675-0.925,1.199-1.6,1.675-2.274      c8.975-12.9,17.925-25.8,26.925-38.675c16.175-23.125,32.399-46.249,48.549-69.374      C348.452,253.031,354.252,228.594,348.552,202.457z" id="SVGID_1_" opacity="0.55"/></defs><clipPath id="SVGID_2_"><use overflow="visible" xlink:href="#SVGID_1_"/></clipPath><g clip-path="url(#SVGID_2_)"><path clip-rule="evenodd" d="M206.954,220.832c-0.125-26,20.975-47.063,47.125-47.087      c26.1-0.025,47.299,21.049,47.299,46.999c0,25.862-21.35,47.074-47.324,47.037C228.104,267.719,207.054,246.744,206.954,220.832      z M316.053,220.682c0-34.3-27.825-62.099-62.125-62.099c-34.274,0-62.074,27.799-62.074,62.099      c0,34.287,27.8,62.093,62.074,62.093C288.228,282.774,316.053,254.969,316.053,220.682z" fill="#BE4230" fill-rule="evenodd"/><path clip-rule="evenodd" d="M207.683,221.513c-0.125-26,20.975-47.063,47.125-47.087      c26.1-0.025,47.3,21.05,47.299,46.999c0,25.862-21.35,47.074-47.324,47.037C228.833,268.399,207.783,247.425,207.683,221.513z       M316.782,221.363c0-34.3-27.825-62.1-62.125-62.1c-34.274,0-62.074,27.799-62.074,62.1c0,34.287,27.799,62.092,62.074,62.092      C288.957,283.455,316.782,255.65,316.782,221.363z" fill="#BE4230" fill-rule="evenodd"/><path clip-rule="evenodd" d="M208.413,222.194c-0.125-26,20.975-47.063,47.125-47.087      c26.099-0.026,47.299,21.05,47.298,46.999c0,25.862-21.349,47.074-47.324,47.037      C229.563,269.081,208.513,248.106,208.413,222.194z M317.512,222.044c0-34.299-27.825-62.099-62.124-62.099      c-34.275,0-62.075,27.8-62.075,62.099c0,34.287,27.8,62.093,62.075,62.093C289.687,284.137,317.512,256.331,317.512,222.044z" fill="#BE4230" fill-rule="evenodd"/><path clip-rule="evenodd" d="M209.143,222.875c-0.125-26,20.974-47.063,47.125-47.087      c26.1-0.026,47.299,21.049,47.299,46.999c0,25.862-21.35,47.075-47.324,47.038C230.292,269.763,209.243,248.788,209.143,222.875      z M318.241,222.725c0-34.299-27.824-62.099-62.124-62.099c-34.275,0-62.075,27.8-62.075,62.099      c0,34.288,27.8,62.093,62.075,62.093C290.417,284.817,318.241,257.013,318.241,222.725z" fill="#BE4230" fill-rule="evenodd"/><path clip-rule="evenodd" d="M209.873,223.556c-0.125-26,20.975-47.063,47.125-47.087      c26.099-0.026,47.298,21.05,47.297,46.999c0,25.862-21.35,47.074-47.323,47.038      C231.022,270.443,209.972,249.469,209.873,223.556z M318.971,223.406c0-34.3-27.824-62.099-62.124-62.099      c-34.275,0-62.075,27.799-62.075,62.099c0,34.288,27.799,62.093,62.075,62.093C291.146,285.499,318.971,257.693,318.971,223.406      z" fill="#BE4230" fill-rule="evenodd"/><path clip-rule="evenodd" d="M210.603,224.237c-0.125-26,20.974-47.063,47.125-47.087      c26.099-0.026,47.299,21.05,47.298,46.999c0,25.862-21.35,47.075-47.324,47.038C231.752,271.125,210.702,250.15,210.603,224.237      z M319.7,224.087c0-34.299-27.824-62.1-62.122-62.1c-34.276,0-62.076,27.8-62.076,62.1c0,34.288,27.8,62.093,62.076,62.093      C291.876,286.18,319.7,258.375,319.7,224.087z" fill="#BE4230" fill-rule="evenodd"/><path clip-rule="evenodd" d="M211.332,224.918c-0.125-26,20.974-47.063,47.126-47.087      c26.098-0.026,47.299,21.05,47.297,46.999c0,25.861-21.349,47.074-47.324,47.037      C232.482,271.806,211.432,250.831,211.332,224.918z M320.43,224.768c0-34.3-27.824-62.1-62.122-62.1      c-34.276,0-62.076,27.8-62.076,62.1c0,34.288,27.799,62.093,62.076,62.093C292.605,286.861,320.43,259.056,320.43,224.768z" fill="#BE4230" fill-rule="evenodd"/><path clip-rule="evenodd" d="M212.061,225.599c-0.125-26,20.975-47.063,47.126-47.087      c26.098-0.027,47.299,21.05,47.297,46.998c0,25.862-21.35,47.075-47.324,47.039      C233.211,272.486,212.162,251.512,212.061,225.599z M321.158,225.449c0-34.3-27.823-62.1-62.121-62.1      c-34.276,0-62.076,27.8-62.076,62.1c0,34.288,27.8,62.093,62.076,62.093C293.335,287.542,321.158,259.737,321.158,225.449z" fill="#BE4230" fill-rule="evenodd"/><path clip-rule="evenodd" d="M212.791,226.28c-0.125-25.999,20.975-47.063,47.127-47.087      c26.098-0.026,47.299,21.05,47.297,46.999c0,25.861-21.35,47.074-47.324,47.039C233.941,273.168,212.892,252.193,212.791,226.28      z M321.889,226.13c0-34.299-27.823-62.1-62.121-62.1c-34.277,0-62.077,27.8-62.077,62.1c0,34.288,27.8,62.093,62.077,62.093      C294.065,288.224,321.889,260.418,321.889,226.13z" fill="#BE4230" fill-rule="evenodd"/><path clip-rule="evenodd" d="M213.521,226.961c-0.125-26,20.975-47.063,47.127-47.087      c26.098-0.026,47.299,21.051,47.297,46.999c0,25.861-21.35,47.075-47.324,47.038      C234.671,273.85,213.621,252.875,213.521,226.961z M322.618,226.811c0-34.299-27.823-62.1-62.121-62.1      c-34.276,0-62.076,27.8-62.076,62.1c0,34.289,27.8,62.093,62.076,62.093C294.795,288.904,322.618,261.1,322.618,226.811z" fill="#BE4230" fill-rule="evenodd"/><path clip-rule="evenodd" d="M214.25,227.643c-0.125-26,20.975-47.063,47.128-47.088      c26.097-0.026,47.298,21.05,47.296,46.999c0,25.861-21.35,47.075-47.324,47.039C235.4,274.53,214.351,253.556,214.25,227.643z       M323.348,227.492c0-34.299-27.823-62.1-62.121-62.1c-34.276,0-62.076,27.8-62.076,62.1c0,34.288,27.8,62.093,62.076,62.093      C295.524,289.585,323.348,261.78,323.348,227.492z" fill="#BE4230" fill-rule="evenodd"/><path clip-rule="evenodd" d="M214.98,228.324c-0.125-26,20.975-47.063,47.127-47.087      c26.097-0.027,47.299,21.05,47.297,46.998c0,25.861-21.351,47.074-47.325,47.039C236.13,275.212,215.081,254.237,214.98,228.324      z M324.077,228.174c0-34.3-27.823-62.101-62.12-62.101c-34.277,0-62.077,27.801-62.077,62.101      c0,34.288,27.8,62.093,62.077,62.093C296.254,290.267,324.077,262.462,324.077,228.174z" fill="#BE4230" fill-rule="evenodd"/><path clip-rule="evenodd" d="M215.71,229.004c-0.125-26,20.975-47.063,47.127-47.087      c26.097-0.027,47.299,21.051,47.296,46.999c0,25.861-21.35,47.074-47.324,47.038C236.86,275.893,215.81,254.918,215.71,229.004z       M324.807,228.854c0-34.299-27.823-62.1-62.12-62.1c-34.277,0-62.077,27.801-62.077,62.1c0,34.289,27.8,62.093,62.077,62.093      C296.983,290.947,324.807,263.143,324.807,228.854z" fill="#BE4230" fill-rule="evenodd"/><path clip-rule="evenodd" d="M216.44,229.686c-0.125-25.999,20.975-47.063,47.127-47.087      c26.097-0.027,47.299,21.051,47.296,46.999c0,25.861-21.35,47.074-47.324,47.038C237.59,276.574,216.54,255.6,216.44,229.686z       M325.536,229.536c0-34.299-27.822-62.1-62.119-62.1c-34.277,0-62.077,27.801-62.077,62.1c0,34.289,27.8,62.093,62.077,62.093      C297.714,291.629,325.536,263.824,325.536,229.536z" fill="#BE4230" fill-rule="evenodd"/><path clip-rule="evenodd" d="M217.169,230.367c-0.125-25.999,20.975-47.063,47.127-47.087      c26.097-0.027,47.3,21.051,47.296,46.998c0,25.86-21.35,47.074-47.324,47.039C238.319,277.256,217.27,256.28,217.169,230.367z       M326.266,230.217c0-34.299-27.822-62.1-62.119-62.1c-34.277,0-62.077,27.801-62.077,62.1c0,34.288,27.8,62.093,62.077,62.093      C298.443,292.31,326.266,264.505,326.266,230.217z" fill="#BE4230" fill-rule="evenodd"/><path clip-rule="evenodd" d="M217.899,231.048c-0.125-25.999,20.975-47.063,47.128-47.088      c26.096-0.027,47.299,21.051,47.295,46.998c0,25.86-21.35,47.074-47.324,47.038      C239.049,277.937,217.999,256.961,217.899,231.048z M326.994,230.897c0-34.299-27.821-62.101-62.118-62.101      c-34.277,0-62.077,27.802-62.077,62.101c0,34.289,27.8,62.094,62.077,62.094C299.173,292.991,326.994,265.187,326.994,230.897z" fill="#BE4230" fill-rule="evenodd"/><path clip-rule="evenodd" d="M218.629,231.729c-0.125-25.999,20.975-47.063,47.128-47.087      c26.096-0.028,47.3,21.051,47.296,46.998c0,25.86-21.35,47.074-47.324,47.038C239.779,278.618,218.729,257.643,218.629,231.729z       M327.725,231.579c0-34.299-27.821-62.1-62.117-62.1c-34.279,0-62.079,27.801-62.079,62.1c0,34.289,27.8,62.093,62.079,62.093      C299.903,293.672,327.725,265.867,327.725,231.579z" fill="#BE4230" fill-rule="evenodd"/><path clip-rule="evenodd" d="M219.359,232.41c-0.125-25.999,20.975-47.063,47.128-47.088      c26.096-0.027,47.299,21.051,47.295,46.998c0,25.86-21.35,47.074-47.324,47.039C240.509,279.299,219.459,258.324,219.359,232.41      z M328.454,232.26c0-34.299-27.821-62.101-62.117-62.101c-34.278,0-62.078,27.802-62.078,62.101      c0,34.289,27.8,62.093,62.078,62.093C300.633,294.354,328.454,266.549,328.454,232.26z" fill="#BE4230" fill-rule="evenodd"/><path clip-rule="evenodd" d="M220.088,233.091c-0.125-25.999,20.974-47.063,47.128-47.087      c26.096-0.028,47.299,21.051,47.295,46.998c0,25.86-21.35,47.074-47.324,47.04C241.238,279.979,220.188,259.006,220.088,233.091      z M329.183,232.94c0-34.298-27.82-62.1-62.116-62.1c-34.278,0-62.078,27.801-62.078,62.1c0,34.289,27.8,62.094,62.078,62.094      C301.362,295.034,329.183,267.229,329.183,232.94z" fill="#BE4230" fill-rule="evenodd"/><path clip-rule="evenodd" d="M220.818,233.772c-0.125-25.999,20.975-47.064,47.129-47.088      c26.095-0.027,47.299,21.052,47.294,46.998c0,25.86-21.35,47.074-47.324,47.039      C241.968,280.661,220.918,259.687,220.818,233.772z M329.912,233.622c0-34.299-27.82-62.101-62.115-62.101      c-34.279,0-62.079,27.802-62.079,62.101c0,34.29,27.8,62.093,62.079,62.093C302.092,295.715,329.912,267.911,329.912,233.622z" fill="#BE4230" fill-rule="evenodd"/><path clip-rule="evenodd" d="M221.548,234.453c-0.125-25.999,20.975-47.063,47.129-47.088      c26.095-0.028,47.299,21.052,47.294,46.998c0,25.859-21.35,47.074-47.324,47.039      C242.697,281.342,221.648,260.367,221.548,234.453z M330.642,234.303c0-34.298-27.82-62.1-62.115-62.1      c-34.279,0-62.079,27.802-62.079,62.1c0,34.289,27.8,62.094,62.079,62.094C302.821,296.396,330.642,268.592,330.642,234.303z" fill="#BE4230" fill-rule="evenodd"/><path clip-rule="evenodd" d="M222.278,235.135c-0.125-25.999,20.974-47.064,47.129-47.088      c26.095-0.028,47.299,21.052,47.294,46.998c0,25.86-21.35,47.075-47.324,47.04C243.427,282.023,222.378,261.049,222.278,235.135      z M331.371,234.984c0-34.299-27.819-62.101-62.114-62.101c-34.279,0-62.079,27.802-62.079,62.101      c0,34.289,27.8,62.094,62.079,62.094C303.552,297.078,331.371,269.273,331.371,234.984z" fill="#BE4230" fill-rule="evenodd"/><path clip-rule="evenodd" d="M223.007,235.815c-0.125-25.998,20.975-47.063,47.13-47.088      c26.095-0.028,47.299,21.052,47.294,46.998c0,25.86-21.35,47.074-47.324,47.04C244.157,282.705,223.107,261.729,223.007,235.815      z M332.101,235.665c0-34.298-27.819-62.101-62.114-62.101c-34.28,0-62.079,27.802-62.079,62.101      c0,34.289,27.799,62.094,62.079,62.094C304.281,297.759,332.101,269.954,332.101,235.665z" fill="#BE4230" fill-rule="evenodd"/><path clip-rule="evenodd" d="M223.736,236.496c-0.125-25.999,20.975-47.063,47.13-47.088      c26.095-0.028,47.3,21.053,47.294,46.998c0,25.86-21.35,47.075-47.324,47.04C244.887,283.386,223.837,262.411,223.736,236.496z       M332.83,236.346c0-34.298-27.82-62.101-62.114-62.101c-34.279,0-62.079,27.802-62.079,62.101      c0,34.29,27.8,62.094,62.079,62.094C305.01,298.439,332.83,270.636,332.83,236.346z" fill="#BE4230" fill-rule="evenodd"/><path clip-rule="evenodd" d="M224.466,237.178c-0.125-25.999,20.975-47.064,47.13-47.088      c26.094-0.028,47.3,21.052,47.294,46.998c0,25.859-21.351,47.074-47.324,47.04C245.616,284.067,224.566,263.093,224.466,237.178      z M333.56,237.027c0-34.299-27.819-62.101-62.113-62.101c-34.28,0-62.08,27.802-62.08,62.101c0,34.29,27.8,62.094,62.08,62.094      C305.74,299.121,333.56,271.317,333.56,237.027z" fill="#BE4230" fill-rule="evenodd"/><path clip-rule="evenodd" d="M225.196,237.859c-0.125-25.999,20.975-47.064,47.131-47.088      c26.094-0.028,47.299,21.052,47.293,46.998c0,25.859-21.35,47.075-47.324,47.04      C246.346,284.748,225.296,263.773,225.196,237.859z M334.29,237.708c0-34.298-27.819-62.101-62.113-62.101      c-34.281,0-62.08,27.803-62.08,62.101c0,34.29,27.799,62.094,62.08,62.094C306.471,299.803,334.29,271.998,334.29,237.708z" fill="#BE4230" fill-rule="evenodd"/><path clip-rule="evenodd" d="M225.926,238.54c-0.125-25.999,20.975-47.064,47.131-47.089      c26.094-0.028,47.299,21.053,47.293,46.998c0,25.858-21.35,47.074-47.324,47.039C247.076,285.43,226.026,264.455,225.926,238.54      z M335.019,238.389c0-34.298-27.819-62.101-62.112-62.101c-34.28,0-62.08,27.802-62.08,62.101      c0,34.291,27.8,62.094,62.08,62.094C307.199,300.483,335.019,272.68,335.019,238.389z" fill="#BE4230" fill-rule="evenodd"/><path clip-rule="evenodd" d="M226.655,239.22c-0.125-25.999,20.975-47.064,47.131-47.088      c26.093-0.028,47.299,21.053,47.292,46.998c0,25.859-21.349,47.075-47.324,47.041      C247.805,286.11,226.755,265.136,226.655,239.22z M335.748,239.07c0-34.298-27.818-62.101-62.112-62.101      c-34.281,0-62.08,27.803-62.08,62.101c0,34.29,27.799,62.095,62.08,62.095C307.93,301.165,335.748,273.36,335.748,239.07z" fill="#BE4230" fill-rule="evenodd"/><path clip-rule="evenodd" d="M227.385,239.901c-0.125-25.998,20.975-47.063,47.131-47.088      c26.093-0.029,47.299,21.053,47.292,46.998c0,25.859-21.35,47.074-47.324,47.041      C248.535,286.791,227.485,265.816,227.385,239.901z M336.478,239.751c0-34.298-27.818-62.101-62.111-62.101      c-34.281,0-62.081,27.803-62.081,62.101c0,34.291,27.8,62.095,62.081,62.095C308.659,301.846,336.478,274.042,336.478,239.751z" fill="#BE4230" fill-rule="evenodd"/><path clip-rule="evenodd" d="M228.115,240.583c-0.125-25.998,20.975-47.064,47.131-47.088      c26.094-0.029,47.3,21.053,47.293,46.997c0,25.859-21.35,47.075-47.324,47.041C249.265,287.473,228.215,266.498,228.115,240.583      z M337.207,240.433c0-34.298-27.818-62.101-62.111-62.101c-34.281,0-62.08,27.803-62.08,62.101      c0,34.29,27.799,62.095,62.08,62.095C309.389,302.527,337.207,274.723,337.207,240.433z" fill="#BE4230" fill-rule="evenodd"/><path clip-rule="evenodd" d="M228.845,241.264c-0.125-25.998,20.975-47.064,47.132-47.089      c26.092-0.028,47.299,21.054,47.291,46.998c0,25.858-21.349,47.073-47.324,47.04      C249.995,288.154,228.945,267.18,228.845,241.264z M337.937,241.114c0-34.298-27.817-62.101-62.11-62.101      c-34.282,0-62.082,27.803-62.082,62.101c0,34.291,27.8,62.094,62.082,62.094C310.119,303.208,337.937,275.404,337.937,241.114z" fill="#BE4230" fill-rule="evenodd"/><path clip-rule="evenodd" d="M229.574,241.944c-0.125-25.998,20.975-47.064,47.132-47.088      c26.093-0.029,47.3,21.053,47.292,46.998c0,25.858-21.35,47.074-47.324,47.041C250.724,288.835,229.674,267.86,229.574,241.944z       M338.666,241.795c0-34.299-27.817-62.102-62.11-62.102c-34.282,0-62.081,27.803-62.081,62.102      c0,34.29,27.799,62.094,62.081,62.094C310.849,303.889,338.666,276.085,338.666,241.795z" fill="#BE4230" fill-rule="evenodd"/><path clip-rule="evenodd" d="M230.304,242.626c-0.125-25.998,20.975-47.064,47.131-47.089      c26.093-0.029,47.3,21.053,47.292,46.998c0,25.858-21.35,47.074-47.324,47.041C251.454,289.517,230.404,268.542,230.304,242.626      z M339.396,242.476c0-34.298-27.817-62.101-62.11-62.101c-34.281,0-62.081,27.803-62.081,62.101      c0,34.291,27.8,62.095,62.081,62.095C311.578,304.57,339.396,276.767,339.396,242.476z" fill="#BE4230" fill-rule="evenodd"/><path clip-rule="evenodd" d="M231.034,243.307c-0.125-25.998,20.975-47.064,47.132-47.088      c26.092-0.03,47.3,21.053,47.292,46.997c0,25.858-21.351,47.074-47.325,47.04C252.184,290.198,231.134,269.224,231.034,243.307z       M340.125,243.157c0-34.298-27.816-62.102-62.109-62.102c-34.282,0-62.082,27.804-62.082,62.102      c0,34.29,27.8,62.095,62.082,62.095C312.309,305.252,340.125,277.447,340.125,243.157z" fill="#BE4230" fill-rule="evenodd"/><path clip-rule="evenodd" d="M231.764,243.988c-0.125-25.998,20.975-47.065,47.133-47.089      c26.091-0.029,47.299,21.054,47.291,46.998c0,25.858-21.35,47.074-47.324,47.041      C252.913,290.879,231.863,269.904,231.764,243.988z M340.854,243.838c0-34.298-27.817-62.101-62.108-62.101      c-34.283,0-62.082,27.803-62.082,62.101c0,34.291,27.799,62.095,62.082,62.095C313.037,305.933,340.854,278.129,340.854,243.838      z" fill="#BE4230" fill-rule="evenodd"/><path clip-rule="evenodd" d="M232.493,244.669c-0.125-25.998,20.975-47.064,47.133-47.089      c26.091-0.03,47.299,21.054,47.29,46.997c0,25.858-21.35,47.074-47.324,47.041C253.643,291.56,232.593,270.585,232.493,244.669z       M341.584,244.519c0-34.298-27.817-62.102-62.108-62.102c-34.283,0-62.082,27.804-62.082,62.102      c0,34.291,27.799,62.095,62.082,62.095C313.767,306.613,341.584,278.81,341.584,244.519z" fill="#BE4230" fill-rule="evenodd"/><path clip-rule="evenodd" d="M233.224,245.35c-0.126-25.997,20.974-47.063,47.132-47.088      c26.092-0.03,47.3,21.054,47.291,46.997c0,25.857-21.35,47.073-47.324,47.04C254.373,292.241,233.323,271.267,233.224,245.35z       M342.313,245.2c0-34.298-27.816-62.102-62.108-62.102c-34.283,0-62.082,27.804-62.082,62.102      c0,34.291,27.799,62.095,62.082,62.095C314.497,307.295,342.313,279.491,342.313,245.2z" fill="#BE4230" fill-rule="evenodd"/><path clip-rule="evenodd" d="M233.953,246.031c-0.125-25.997,20.975-47.064,47.133-47.089      c26.091-0.03,47.299,21.054,47.29,46.997c0,25.857-21.349,47.074-47.323,47.041      C255.103,292.923,234.053,271.948,233.953,246.031z M343.043,245.882c0-34.298-27.816-62.102-62.107-62.102      c-34.283,0-62.083,27.804-62.083,62.102c0,34.291,27.799,62.095,62.083,62.095C315.227,307.977,343.043,280.173,343.043,245.882      z" fill="#BE4230" fill-rule="evenodd"/><path clip-rule="evenodd" d="M234.683,246.712c-0.125-25.997,20.975-47.064,47.134-47.088      c26.09-0.03,47.299,21.053,47.289,46.997c0,25.858-21.349,47.074-47.324,47.042      C255.832,293.604,234.782,272.629,234.683,246.712z M343.772,246.562c0-34.297-27.816-62.101-62.106-62.101      c-34.284,0-62.083,27.804-62.083,62.101c0,34.292,27.799,62.095,62.083,62.095C315.956,308.657,343.772,280.854,343.772,246.562      z" fill="#BE4230" fill-rule="evenodd"/><path clip-rule="evenodd" d="M235.412,247.393c-0.125-25.998,20.975-47.064,47.134-47.089      c26.09-0.03,47.299,21.054,47.29,46.997c0,25.857-21.35,47.074-47.324,47.041C256.562,294.284,235.512,273.31,235.412,247.393z       M344.502,247.243c0-34.298-27.816-62.102-62.106-62.102c-34.284,0-62.084,27.804-62.084,62.102      c0,34.292,27.8,62.095,62.084,62.095C316.686,309.338,344.502,281.535,344.502,247.243z" fill="#BE4230" fill-rule="evenodd"/><path clip-rule="evenodd" d="M236.142,248.074c-0.125-25.997,20.975-47.064,47.134-47.089      c26.091-0.03,47.3,21.054,47.29,46.997c0,25.857-21.35,47.074-47.324,47.041C257.291,294.966,236.242,273.991,236.142,248.074z       M345.23,247.924c0-34.297-27.815-62.102-62.105-62.102c-34.283,0-62.083,27.804-62.083,62.102      c0,34.292,27.8,62.095,62.083,62.095C317.415,310.02,345.23,282.216,345.23,247.924z" fill="#BE4230" fill-rule="evenodd"/><path clip-rule="evenodd" d="M236.872,248.755c-0.125-25.998,20.975-47.064,47.134-47.089      c26.09-0.03,47.299,21.055,47.289,46.997c0,25.857-21.35,47.074-47.324,47.042C258.021,295.647,236.972,274.673,236.872,248.755      z M345.961,248.606c0-34.298-27.815-62.102-62.105-62.102c-34.284,0-62.083,27.804-62.083,62.102      c0,34.292,27.799,62.095,62.083,62.095C318.146,310.701,345.961,282.897,345.961,248.606z" fill="#BE4230" fill-rule="evenodd"/><path clip-rule="evenodd" d="M237.602,249.437c-0.125-25.998,20.975-47.065,47.134-47.089      c26.09-0.031,47.3,21.054,47.289,46.997c0,25.857-21.349,47.074-47.323,47.042C258.751,296.328,237.701,275.354,237.602,249.437      z M346.69,249.286c0-34.297-27.815-62.102-62.105-62.102c-34.284,0-62.084,27.804-62.084,62.102      c0,34.292,27.8,62.096,62.084,62.096C318.875,311.382,346.69,283.578,346.69,249.286z" fill="#BE4230" fill-rule="evenodd"/><path clip-rule="evenodd" d="M238.331,250.117c-0.125-25.997,20.975-47.064,47.134-47.089      c26.09-0.031,47.3,21.055,47.289,46.997c0,25.857-21.35,47.074-47.324,47.042C259.48,297.01,238.431,276.034,238.331,250.117z       M347.42,249.967c0-34.297-27.815-62.102-62.105-62.102c-34.284,0-62.084,27.805-62.084,62.102      c0,34.292,27.8,62.095,62.084,62.095C319.604,312.063,347.42,284.26,347.42,249.967z" fill="#BE4230" fill-rule="evenodd"/><path clip-rule="evenodd" d="M239.061,250.799c-0.125-25.997,20.975-47.065,47.135-47.09      c26.089-0.03,47.3,21.055,47.289,46.997c0,25.856-21.35,47.074-47.324,47.042C260.21,297.69,239.161,276.716,239.061,250.799z       M348.149,250.648c0-34.297-27.815-62.102-62.104-62.102c-34.285,0-62.084,27.804-62.084,62.102      c0,34.292,27.799,62.096,62.084,62.096C320.334,312.744,348.149,284.94,348.149,250.648z" fill="#BE4230" fill-rule="evenodd"/><path clip-rule="evenodd" d="M239.791,251.48c-0.125-25.998,20.975-47.065,47.135-47.09      c26.089-0.031,47.299,21.055,47.288,46.996c0,25.857-21.35,47.074-47.324,47.042C260.94,298.372,239.891,277.397,239.791,251.48      z M348.879,251.33c0-34.297-27.814-62.103-62.104-62.103c-34.285,0-62.085,27.805-62.085,62.103      c0,34.292,27.8,62.096,62.085,62.096C321.064,313.426,348.879,285.622,348.879,251.33z" fill="#BE4230" fill-rule="evenodd"/><path clip-rule="evenodd" d="M240.521,252.161c-0.125-25.997,20.975-47.065,47.135-47.089      c26.089-0.031,47.3,21.055,47.288,46.996c0,25.856-21.35,47.074-47.324,47.042C261.67,299.053,240.62,278.078,240.521,252.161z       M349.608,252.011c0-34.297-27.814-62.102-62.104-62.102c-34.285,0-62.085,27.805-62.085,62.102      c0,34.292,27.8,62.096,62.085,62.096C321.794,314.106,349.608,286.303,349.608,252.011z" fill="#BE4230" fill-rule="evenodd"/><path clip-rule="evenodd" d="M241.25,252.842c-0.125-25.997,20.975-47.065,47.135-47.09      c26.089-0.031,47.299,21.055,47.288,46.997c0,25.857-21.35,47.074-47.324,47.042C262.399,299.734,241.35,278.76,241.25,252.842z       M350.338,252.691c0-34.297-27.814-62.102-62.104-62.102c-34.285,0-62.084,27.805-62.084,62.102      c0,34.293,27.799,62.096,62.084,62.096C322.523,314.787,350.338,286.984,350.338,252.691z" fill="#BE4230" fill-rule="evenodd"/><path clip-rule="evenodd" d="M241.979,253.523c-0.125-25.997,20.975-47.065,47.136-47.089      c26.088-0.031,47.299,21.055,47.288,46.996c0,25.856-21.35,47.074-47.324,47.043C263.129,300.415,242.08,279.44,241.979,253.523      z M351.067,253.373c0-34.297-27.813-62.103-62.103-62.103c-34.286,0-62.085,27.806-62.085,62.103      c0,34.293,27.799,62.096,62.085,62.096C323.254,315.469,351.067,287.666,351.067,253.373z" fill="#BE4230" fill-rule="evenodd"/><path clip-rule="evenodd" d="M242.71,254.204c-0.125-25.997,20.975-47.065,47.136-47.089      c26.088-0.031,47.299,21.055,47.287,46.996c0,25.856-21.35,47.075-47.324,47.042C263.859,301.097,242.81,280.122,242.71,254.204      z M351.797,254.054c0-34.297-27.814-62.102-62.102-62.102c-34.286,0-62.086,27.805-62.086,62.102      c0,34.292,27.8,62.095,62.086,62.095C323.982,316.149,351.797,288.347,351.797,254.054z" fill="#BE4230" fill-rule="evenodd"/><path clip-rule="evenodd" d="M243.439,254.885c-0.126-25.998,20.974-47.065,47.136-47.09      c26.087-0.031,47.299,21.056,47.287,46.996c0,25.857-21.35,47.074-47.324,47.043      C264.589,301.777,243.539,280.803,243.439,254.885z M352.525,254.735c0-34.297-27.813-62.103-62.101-62.103      c-34.286,0-62.086,27.806-62.086,62.103c0,34.292,27.8,62.095,62.086,62.095C324.713,316.83,352.525,289.027,352.525,254.735z" fill="#BE4230" fill-rule="evenodd"/><path clip-rule="evenodd" d="M244.169,255.565c-0.125-25.996,20.974-47.064,47.136-47.089      c26.088-0.032,47.3,21.056,47.287,46.996c0,25.856-21.35,47.075-47.324,47.043C265.318,302.459,244.269,281.484,244.169,255.565      z M353.255,255.416c0-34.297-27.813-62.103-62.101-62.103c-34.286,0-62.086,27.806-62.086,62.103      c0,34.293,27.8,62.096,62.086,62.096C325.442,317.512,353.255,289.709,353.255,255.416z" fill="#BE4230" fill-rule="evenodd"/><path clip-rule="evenodd" d="M244.898,256.247c-0.125-25.997,20.975-47.065,47.137-47.09      c26.087-0.031,47.3,21.056,47.287,46.996c0,25.856-21.35,47.074-47.324,47.043C266.049,303.14,244.998,282.166,244.898,256.247z       M353.984,256.097c0-34.297-27.813-62.102-62.1-62.102s-62.086,27.805-62.086,62.102c0,34.293,27.799,62.096,62.086,62.096      S353.984,290.391,353.984,256.097z" fill="#BE4230" fill-rule="evenodd"/><path clip-rule="evenodd" d="M245.628,256.928c-0.125-25.997,20.975-47.065,47.138-47.089      c26.086-0.032,47.299,21.056,47.286,46.996c0,25.856-21.35,47.074-47.324,47.042      C266.777,303.821,245.728,282.847,245.628,256.928z M354.715,256.778c0-34.297-27.813-62.103-62.1-62.103      s-62.087,27.806-62.087,62.103c0,34.293,27.8,62.096,62.087,62.096S354.715,291.071,354.715,256.778z" fill="#BE4230" fill-rule="evenodd"/><path clip-rule="evenodd" d="M246.357,257.609c-0.125-25.997,20.975-47.065,47.138-47.09      c26.087-0.032,47.299,21.056,47.286,46.996c0,25.855-21.35,47.074-47.324,47.043      C267.508,304.502,246.458,283.527,246.357,257.609z M355.443,257.459c0-34.296-27.812-62.102-62.099-62.102      s-62.087,27.806-62.087,62.102c0,34.293,27.8,62.096,62.087,62.096S355.443,291.752,355.443,257.459z" fill="#BE4230" fill-rule="evenodd"/><path clip-rule="evenodd" d="M247.088,258.29c-0.125-25.996,20.975-47.065,47.137-47.09      c26.087-0.032,47.3,21.056,47.286,46.996c0,25.855-21.35,47.074-47.323,47.043C268.237,305.184,247.188,284.209,247.088,258.29z       M356.173,258.141c0-34.297-27.812-62.103-62.099-62.103s-62.086,27.806-62.086,62.103c0,34.293,27.799,62.096,62.086,62.096      S356.173,292.434,356.173,258.141z" fill="#BE4230" fill-rule="evenodd"/><path clip-rule="evenodd" d="M247.817,258.972c-0.125-25.997,20.975-47.066,47.138-47.091      c26.086-0.032,47.299,21.057,47.285,46.996c0,25.855-21.349,47.074-47.324,47.043      C268.967,305.864,247.917,284.891,247.817,258.972z M356.902,258.821c0-34.296-27.812-62.103-62.098-62.103      c-34.288,0-62.087,27.806-62.087,62.103c0,34.293,27.799,62.097,62.087,62.097C329.091,320.918,356.902,293.114,356.902,258.821      z" fill="#BE4230" fill-rule="evenodd"/><path clip-rule="evenodd" d="M248.547,259.652c-0.125-25.996,20.975-47.065,47.139-47.09      c26.086-0.032,47.299,21.056,47.285,46.996c0,25.855-21.35,47.074-47.324,47.043      C269.696,306.546,248.647,285.571,248.547,259.652z M357.632,259.502c0-34.296-27.812-62.103-62.098-62.103      c-34.288,0-62.087,27.807-62.087,62.103c0,34.294,27.799,62.096,62.087,62.096C329.82,321.598,357.632,293.796,357.632,259.502z      " fill="#BE4230" fill-rule="evenodd"/><path clip-rule="evenodd" d="M249.276,260.334c-0.125-25.997,20.976-47.066,47.139-47.091      c26.085-0.032,47.299,21.057,47.285,46.996c0,25.855-21.35,47.074-47.324,47.043      C270.427,307.228,249.376,286.252,249.276,260.334z M358.361,260.184c0-34.296-27.811-62.103-62.097-62.103      c-34.289,0-62.088,27.806-62.088,62.103c0,34.293,27.799,62.096,62.088,62.096C330.551,322.279,358.361,294.477,358.361,260.184      z" fill="#BE4230" fill-rule="evenodd"/><path clip-rule="evenodd" d="M250.006,261.015c-0.125-25.996,20.974-47.065,47.138-47.09      c26.086-0.032,47.3,21.057,47.285,46.996c0,25.855-21.35,47.074-47.324,47.043C271.156,307.908,250.106,286.934,250.006,261.015      z M359.091,260.865c0-34.297-27.812-62.104-62.097-62.104c-34.288,0-62.087,27.806-62.087,62.104      c0,34.293,27.799,62.096,62.087,62.096C331.279,322.961,359.091,295.158,359.091,260.865z" fill="#BE4230" fill-rule="evenodd"/><path clip-rule="evenodd" d="M250.736,261.695c-0.125-25.996,20.975-47.065,47.139-47.09      c26.085-0.033,47.299,21.057,47.285,46.996c0,25.854-21.351,47.074-47.325,47.043      C271.886,308.59,250.836,287.615,250.736,261.695z M359.82,261.546c0-34.297-27.811-62.103-62.096-62.103      c-34.289,0-62.089,27.806-62.089,62.103c0,34.294,27.8,62.096,62.089,62.096C332.01,323.642,359.82,295.84,359.82,261.546z" fill="#BE4230" fill-rule="evenodd"/><path clip-rule="evenodd" d="M251.466,262.377c-0.125-25.997,20.975-47.066,47.139-47.091      c26.085-0.033,47.3,21.057,47.285,46.996c0,25.854-21.35,47.074-47.324,47.044C272.615,309.271,251.565,288.296,251.466,262.377      z M360.55,262.227c0-34.296-27.811-62.103-62.096-62.103c-34.289,0-62.088,27.806-62.088,62.103      c0,34.294,27.799,62.096,62.088,62.096C332.739,324.322,360.55,296.521,360.55,262.227z" fill="#BE4230" fill-rule="evenodd"/><path clip-rule="evenodd" d="M252.196,263.058c-0.125-25.996,20.974-47.065,47.138-47.09      c26.085-0.033,47.3,21.057,47.285,46.996c0,25.855-21.35,47.074-47.324,47.044C273.345,309.951,252.295,288.978,252.196,263.058      z M361.279,262.908c0-34.297-27.811-62.104-62.096-62.104c-34.289,0-62.088,27.807-62.088,62.104      c0,34.293,27.799,62.096,62.088,62.096C333.469,325.004,361.279,297.201,361.279,262.908z" fill="#BE4230" fill-rule="evenodd"/><path clip-rule="evenodd" d="M252.925,263.738c-0.125-25.996,20.975-47.065,47.14-47.09      c26.084-0.033,47.299,21.057,47.284,46.996c0,25.854-21.35,47.074-47.324,47.043      C274.074,310.633,253.025,289.658,252.925,263.738z M362.009,263.589c0-34.296-27.81-62.103-62.095-62.103      c-34.289,0-62.089,27.806-62.089,62.103c0,34.294,27.8,62.097,62.089,62.097C334.199,325.686,362.009,297.883,362.009,263.589z" fill="#BE4230" fill-rule="evenodd"/><path clip-rule="evenodd" d="M253.655,264.42c-0.125-25.996,20.974-47.066,47.14-47.09      c26.084-0.033,47.299,21.057,47.283,46.996c0,25.854-21.35,47.073-47.324,47.044C274.805,311.314,253.755,290.34,253.655,264.42      z M362.738,264.27c0-34.296-27.81-62.103-62.094-62.103c-34.291,0-62.09,27.807-62.09,62.103      c0,34.295,27.799,62.097,62.09,62.097C334.929,326.366,362.738,298.564,362.738,264.27z" fill="#BE4230" fill-rule="evenodd"/><path clip-rule="evenodd" d="M254.385,265.101c-0.125-25.995,20.975-47.066,47.14-47.09      c26.084-0.033,47.3,21.057,47.284,46.995c0,25.854-21.35,47.074-47.324,47.044C275.534,311.996,254.484,291.021,254.385,265.101      z M363.468,264.951c0-34.296-27.81-62.104-62.094-62.104c-34.29,0-62.089,27.808-62.089,62.104      c0,34.295,27.799,62.097,62.089,62.097C335.658,327.048,363.468,299.246,363.468,264.951z" fill="#BE4230" fill-rule="evenodd"/><path clip-rule="evenodd" d="M255.114,265.781c-0.125-25.995,20.975-47.065,47.14-47.09      c26.084-0.033,47.3,21.058,47.284,46.995c0,25.854-21.35,47.075-47.324,47.044C276.264,312.677,255.214,291.702,255.114,265.781      z M364.197,265.633c0-34.297-27.81-62.104-62.094-62.104c-34.29,0-62.089,27.807-62.089,62.104      c0,34.293,27.799,62.096,62.089,62.096C336.388,327.729,364.197,299.926,364.197,265.633z" fill="#BE4230" fill-rule="evenodd"/><path clip-rule="evenodd" d="M255.844,266.463c-0.125-25.996,20.975-47.066,47.141-47.091      c26.083-0.033,47.3,21.058,47.283,46.995c0,25.854-21.35,47.074-47.324,47.045C276.994,313.357,255.944,292.383,255.844,266.463      z M364.927,266.313c0-34.296-27.809-62.104-62.093-62.104c-34.291,0-62.09,27.808-62.09,62.104      c0,34.294,27.799,62.097,62.09,62.097C337.118,328.41,364.927,300.607,364.927,266.313z" fill="#BE4230" fill-rule="evenodd"/><path clip-rule="evenodd" d="M256.574,267.145c-0.126-25.996,20.975-47.067,47.141-47.091      c26.083-0.034,47.299,21.058,47.283,46.996c0,25.854-21.351,47.074-47.324,47.045      C277.724,314.039,256.673,293.064,256.574,267.145z M365.656,266.994c0-34.296-27.809-62.103-62.093-62.103      c-34.29,0-62.089,27.807-62.089,62.103c0,34.295,27.799,62.097,62.089,62.097C337.848,329.091,365.656,301.289,365.656,266.994z      " fill="#BE4230" fill-rule="evenodd"/><path clip-rule="evenodd" d="M257.304,267.825c-0.126-25.996,20.975-47.066,47.14-47.091      c26.084-0.033,47.3,21.058,47.283,46.995c0,25.854-21.349,47.074-47.324,47.045C278.453,314.72,257.403,293.745,257.304,267.825      z M366.386,267.676c0-34.296-27.809-62.104-62.092-62.104c-34.291,0-62.09,27.807-62.09,62.104      c0,34.295,27.799,62.097,62.09,62.097C338.577,329.772,366.386,301.971,366.386,267.676z" fill="#BE4230" fill-rule="evenodd"/><path clip-rule="evenodd" d="M258.033,268.506c-0.125-25.995,20.975-47.066,47.141-47.09      c26.083-0.034,47.3,21.058,47.283,46.996c0,25.854-21.35,47.073-47.324,47.044C279.183,315.401,258.133,294.427,258.033,268.506      z M367.115,268.356c0-34.296-27.809-62.104-62.092-62.104c-34.291,0-62.09,27.808-62.09,62.104      c0,34.295,27.799,62.097,62.09,62.097C339.307,330.453,367.115,302.651,367.115,268.356z" fill="#BE4230" fill-rule="evenodd"/><path clip-rule="evenodd" d="M258.763,269.188c-0.125-25.995,20.976-47.067,47.142-47.091      c26.082-0.034,47.299,21.058,47.282,46.995c0,25.854-21.35,47.074-47.324,47.045      C279.912,316.083,258.863,295.107,258.763,269.188z M367.845,269.037c0-34.295-27.808-62.104-62.091-62.104      c-34.291,0-62.091,27.808-62.091,62.104c0,34.295,27.8,62.097,62.091,62.097C340.037,331.134,367.845,303.332,367.845,269.037z" fill="#BE4230" fill-rule="evenodd"/><path clip-rule="evenodd" d="M259.492,269.868c-0.125-25.995,20.975-47.066,47.142-47.091      c26.083-0.034,47.3,21.059,47.282,46.995c0,25.854-21.35,47.074-47.324,47.045C280.642,316.764,259.592,295.789,259.492,269.868      z M368.574,269.719c0-34.296-27.808-62.104-62.09-62.104c-34.293,0-62.091,27.808-62.091,62.104      c0,34.295,27.798,62.097,62.091,62.097C340.767,331.815,368.574,304.014,368.574,269.719z" fill="#BE4230" fill-rule="evenodd"/><path clip-rule="evenodd" d="M260.223,270.549c-0.125-25.995,20.975-47.066,47.141-47.09      c26.083-0.035,47.301,21.058,47.283,46.995c0,25.854-21.35,47.074-47.324,47.045      C281.372,317.445,260.322,296.471,260.223,270.549z M369.304,270.4c0-34.296-27.808-62.104-62.091-62.104      c-34.291,0-62.091,27.808-62.091,62.104c0,34.295,27.8,62.096,62.091,62.096C341.496,332.496,369.304,304.695,369.304,270.4z" fill="#BE4230" fill-rule="evenodd"/><path clip-rule="evenodd" d="M260.952,271.23c-0.125-25.995,20.975-47.066,47.142-47.091      c26.082-0.034,47.3,21.059,47.282,46.995c0,25.854-21.351,47.074-47.324,47.045C282.102,318.126,261.052,297.151,260.952,271.23      z M370.033,271.081c0-34.296-27.808-62.104-62.09-62.104c-34.292,0-62.091,27.808-62.091,62.104      c0,34.295,27.799,62.097,62.091,62.097C342.226,333.178,370.033,305.376,370.033,271.081z" fill="#BE4230" fill-rule="evenodd"/><path clip-rule="evenodd" d="M261.682,271.911c-0.125-25.995,20.975-47.066,47.143-47.091      c26.081-0.034,47.299,21.059,47.281,46.995c0,25.854-21.35,47.074-47.324,47.045      C282.831,318.807,261.781,297.833,261.682,271.911z M370.763,271.762c0-34.296-27.808-62.104-62.089-62.104      c-34.293,0-62.092,27.808-62.092,62.104s27.799,62.097,62.092,62.097C342.955,333.858,370.763,306.058,370.763,271.762z" fill="#BE4230" fill-rule="evenodd"/><path clip-rule="evenodd" d="M262.412,272.592c-0.126-25.994,20.974-47.066,47.142-47.091      c26.082-0.034,47.3,21.059,47.281,46.995c0,25.854-21.35,47.074-47.324,47.045C283.561,319.488,262.512,298.514,262.412,272.592      z M371.492,272.443c0-34.296-27.807-62.104-62.089-62.104c-34.292,0-62.092,27.809-62.092,62.104      c0,34.295,27.8,62.097,62.092,62.097C343.686,334.54,371.492,306.738,371.492,272.443z" fill="#BE4230" fill-rule="evenodd"/><path clip-rule="evenodd" d="M263.141,273.273c-0.125-25.995,20.975-47.066,47.143-47.091      c26.082-0.035,47.3,21.059,47.281,46.994c0,25.854-21.35,47.074-47.324,47.046C284.291,320.17,263.24,299.195,263.141,273.273z       M372.222,273.124c0-34.296-27.808-62.104-62.089-62.104c-34.292,0-62.091,27.809-62.091,62.104s27.799,62.097,62.091,62.097      C344.414,335.221,372.222,307.42,372.222,273.124z" fill="#BE4230" fill-rule="evenodd"/><path clip-rule="evenodd" d="M263.871,273.955c-0.125-25.996,20.975-47.067,47.143-47.092      c26.081-0.035,47.299,21.059,47.281,46.994c0,25.854-21.35,47.075-47.324,47.047      C285.021,320.851,263.971,299.877,263.871,273.955z M372.951,273.805c0-34.295-27.807-62.104-62.088-62.104      c-34.293,0-62.092,27.809-62.092,62.104c0,34.296,27.799,62.098,62.092,62.098C345.145,335.902,372.951,308.101,372.951,273.805      z" fill="#BE4230" fill-rule="evenodd"/><path clip-rule="evenodd" d="M264.601,274.636c-0.125-25.995,20.975-47.067,47.144-47.091      c26.08-0.035,47.299,21.059,47.28,46.995c0,25.854-21.35,47.074-47.324,47.046C285.75,321.532,264.7,300.557,264.601,274.636z       M373.681,274.486c0-34.296-27.807-62.104-62.087-62.104c-34.294,0-62.093,27.809-62.093,62.104s27.799,62.097,62.093,62.097      C345.874,336.583,373.681,308.782,373.681,274.486z" fill="#BE4230" fill-rule="evenodd"/><path clip-rule="evenodd" d="M265.33,275.316c-0.125-25.994,20.975-47.066,47.144-47.091      c26.081-0.035,47.3,21.06,47.28,46.995c0,25.852-21.35,47.073-47.324,47.045C286.48,322.213,265.43,301.238,265.33,275.316z       M374.41,275.167c0-34.295-27.807-62.104-62.087-62.104c-34.294,0-62.093,27.809-62.093,62.104      c0,34.296,27.799,62.098,62.093,62.098C346.604,337.265,374.41,309.463,374.41,275.167z" fill="#BE4230" fill-rule="evenodd"/><path clip-rule="evenodd" d="M266.06,275.998c-0.124-25.995,20.975-47.067,47.144-47.092      c26.081-0.035,47.3,21.06,47.281,46.995c0,25.853-21.351,47.074-47.325,47.046C287.21,322.895,266.16,301.92,266.06,275.998z       M375.14,275.849c0-34.296-27.806-62.104-62.087-62.104c-34.294,0-62.092,27.809-62.092,62.104s27.798,62.097,62.092,62.097      C347.334,337.945,375.14,310.145,375.14,275.849z" fill="#BE4230" fill-rule="evenodd"/><path clip-rule="evenodd" d="M266.79,276.68c-0.125-25.995,20.975-47.068,47.144-47.092      c26.08-0.035,47.3,21.06,47.279,46.995c0,25.853-21.35,47.074-47.323,47.046C287.939,323.575,266.89,302.601,266.79,276.68z       M375.869,276.529c0-34.295-27.806-62.104-62.086-62.104c-34.294,0-62.093,27.81-62.093,62.104      c0,34.296,27.799,62.098,62.093,62.098C348.063,338.627,375.869,310.825,375.869,276.529z" fill="#BE4230" fill-rule="evenodd"/><path clip-rule="evenodd" d="M267.52,277.36c-0.125-25.995,20.975-47.067,47.144-47.092      c26.08-0.036,47.3,21.06,47.28,46.994c0,25.853-21.35,47.074-47.324,47.046C288.669,324.257,267.619,303.282,267.52,277.36z       M376.598,277.211c0-34.296-27.805-62.105-62.085-62.105c-34.294,0-62.093,27.81-62.093,62.105s27.799,62.097,62.093,62.097      C348.793,339.308,376.598,311.507,376.598,277.211z" fill="#BE4230" fill-rule="evenodd"/><path clip-rule="evenodd" d="M268.249,278.041c-0.125-25.995,20.975-47.067,47.145-47.091      c26.079-0.036,47.299,21.06,47.279,46.995c0,25.852-21.35,47.074-47.324,47.046      C289.398,324.938,268.349,303.963,268.249,278.041z M377.327,277.892c0-34.295-27.805-62.104-62.085-62.104      c-34.294,0-62.093,27.809-62.093,62.104c0,34.296,27.799,62.098,62.093,62.098C349.522,339.989,377.327,312.188,377.327,277.892      z" fill="#BE4230" fill-rule="evenodd"/><path clip-rule="evenodd" d="M268.979,278.723c-0.125-25.995,20.975-47.068,47.145-47.092      c26.08-0.036,47.3,21.06,47.279,46.994c0,25.852-21.35,47.074-47.324,47.047C290.128,325.619,269.078,304.645,268.979,278.723z       M378.057,278.572c0-34.295-27.804-62.104-62.084-62.104c-34.295,0-62.093,27.81-62.093,62.104      c0,34.297,27.798,62.098,62.093,62.098C350.253,340.67,378.057,312.869,378.057,278.572z" fill="#BE4230" fill-rule="evenodd"/><path clip-rule="evenodd" d="M269.709,279.403c-0.125-25.995,20.975-47.067,47.145-47.092      c26.079-0.036,47.299,21.06,47.279,46.994c0,25.852-21.35,47.074-47.324,47.047      C290.857,326.301,269.809,305.326,269.709,279.403z M378.787,279.254c0-34.295-27.806-62.105-62.084-62.105      c-34.295,0-62.094,27.81-62.094,62.105c0,34.297,27.799,62.097,62.094,62.097C350.981,341.351,378.787,313.551,378.787,279.254z      " fill="#BE4230" fill-rule="evenodd"/><path clip-rule="evenodd" d="M270.438,280.084c-0.125-25.994,20.975-47.067,47.145-47.092      c26.079-0.036,47.3,21.061,47.279,46.994c0,25.853-21.35,47.074-47.325,47.047C291.588,326.981,270.538,306.007,270.438,280.084      z M379.516,279.935c0-34.295-27.804-62.104-62.083-62.104c-34.295,0-62.094,27.81-62.094,62.104      c0,34.297,27.799,62.098,62.094,62.098C351.712,342.032,379.516,314.231,379.516,279.935z" fill="#BE4230" fill-rule="evenodd"/><path clip-rule="evenodd" d="M271.168,280.766c-0.125-25.995,20.975-47.067,47.145-47.092      c26.079-0.036,47.301,21.06,47.279,46.995c0,25.852-21.35,47.074-47.324,47.047      C292.317,327.662,271.268,306.688,271.168,280.766z M380.246,280.616c0-34.295-27.805-62.105-62.083-62.105      c-34.296,0-62.095,27.81-62.095,62.105c0,34.296,27.799,62.097,62.095,62.097C352.441,342.713,380.246,314.912,380.246,280.616z      " fill="#BE4230" fill-rule="evenodd"/><path clip-rule="evenodd" d="M271.897,281.446c-0.125-25.994,20.975-47.067,47.146-47.092      c26.078-0.036,47.3,21.06,47.278,46.994c0,25.852-21.35,47.074-47.324,47.047C293.047,328.344,271.998,307.369,271.897,281.446z       M380.975,281.297c0-34.295-27.804-62.104-62.082-62.104c-34.296,0-62.095,27.81-62.095,62.104      c0,34.297,27.799,62.098,62.095,62.098C353.171,343.395,380.975,315.594,380.975,281.297z" fill="#BE4230" fill-rule="evenodd"/><path clip-rule="evenodd" d="M272.627,282.128c-0.125-25.995,20.975-47.068,47.146-47.092      c26.079-0.037,47.3,21.06,47.278,46.994c0,25.852-21.35,47.074-47.324,47.047C293.777,329.025,272.727,308.05,272.627,282.128z       M381.705,281.978c0-34.295-27.804-62.104-62.082-62.104c-34.297,0-62.096,27.81-62.096,62.104      c0,34.298,27.799,62.098,62.096,62.098C353.901,344.075,381.705,316.275,381.705,281.978z" fill="#BE4230" fill-rule="evenodd"/><path clip-rule="evenodd" d="M273.357,282.809c-0.125-25.994,20.975-47.067,47.146-47.092      c26.078-0.036,47.3,21.061,47.278,46.994c0,25.851-21.35,47.074-47.325,47.047C294.507,329.706,273.457,308.731,273.357,282.809      z M382.435,282.659c0-34.295-27.804-62.105-62.082-62.105c-34.296,0-62.096,27.811-62.096,62.105      c0,34.297,27.8,62.098,62.096,62.098C354.631,344.757,382.435,316.956,382.435,282.659z" fill="#BE4230" fill-rule="evenodd"/><path clip-rule="evenodd" d="M274.087,283.49c-0.125-25.994,20.975-47.068,47.146-47.093      c26.078-0.036,47.3,21.062,47.278,46.994c0,25.852-21.35,47.074-47.324,47.047C295.236,330.388,274.187,309.412,274.087,283.49z       M383.163,283.34c0-34.295-27.803-62.105-62.081-62.105c-34.296,0-62.095,27.81-62.095,62.105      c0,34.298,27.799,62.098,62.095,62.098C355.36,345.438,383.163,317.638,383.163,283.34z" fill="#BE4230" fill-rule="evenodd"/><path clip-rule="evenodd" d="M274.816,284.171c-0.125-25.994,20.975-47.068,47.146-47.092      c26.077-0.037,47.3,21.061,47.277,46.994c0,25.852-21.35,47.074-47.324,47.047C295.966,331.068,274.916,310.094,274.816,284.171      z M383.893,284.021c0-34.294-27.803-62.104-62.08-62.104c-34.297,0-62.096,27.811-62.096,62.104      c0,34.298,27.799,62.099,62.096,62.099C356.09,346.119,383.893,318.318,383.893,284.021z" fill="#BE4230" fill-rule="evenodd"/><path clip-rule="evenodd" d="M275.546,284.852c-0.125-25.994,20.975-47.067,47.146-47.092      c26.077-0.037,47.3,21.061,47.277,46.995c0,25.851-21.35,47.074-47.324,47.047C296.695,331.75,275.646,310.775,275.546,284.852z       M384.622,284.702c0-34.295-27.802-62.105-62.08-62.105c-34.296,0-62.096,27.81-62.096,62.105      c0,34.298,27.8,62.098,62.096,62.098C356.82,346.8,384.622,319,384.622,284.702z" fill="#BE4230" fill-rule="evenodd"/><path clip-rule="evenodd" d="M276.275,285.533c-0.124-25.994,20.976-47.068,47.147-47.093      c26.076-0.037,47.3,21.062,47.277,46.994c0,25.851-21.351,47.074-47.325,47.048      C297.426,332.431,276.375,311.456,276.275,285.533z M385.352,285.384c0-34.295-27.803-62.105-62.079-62.105      c-34.298,0-62.097,27.811-62.097,62.105c0,34.297,27.799,62.098,62.097,62.098C357.549,347.481,385.352,319.681,385.352,285.384      z" fill="#BE4230" fill-rule="evenodd"/><path clip-rule="evenodd" d="M277.006,286.214c-0.125-25.994,20.975-47.068,47.146-47.093      c26.077-0.036,47.301,21.062,47.277,46.994c0,25.851-21.35,47.074-47.324,47.048      C298.155,333.111,277.105,312.138,277.006,286.214z M386.081,286.064c0-34.294-27.802-62.105-62.079-62.105      c-34.297,0-62.096,27.811-62.096,62.105c0,34.298,27.799,62.098,62.096,62.098C358.279,348.162,386.081,320.362,386.081,286.064      z" fill="#BE4230" fill-rule="evenodd"/><path clip-rule="evenodd" d="M277.735,286.895c-0.125-25.993,20.975-47.068,47.147-47.092      c26.076-0.037,47.3,21.062,47.276,46.993c0,25.851-21.35,47.075-47.324,47.048C298.885,333.793,277.835,312.818,277.735,286.895      z M386.811,286.745c0-34.294-27.802-62.105-62.078-62.105c-34.298,0-62.097,27.811-62.097,62.105      c0,34.298,27.799,62.099,62.097,62.099C359.009,348.844,386.811,321.043,386.811,286.745z" fill="#BE4230" fill-rule="evenodd"/><path clip-rule="evenodd" d="M278.465,287.576c-0.125-25.994,20.975-47.068,47.147-47.092      c26.076-0.037,47.3,21.061,47.276,46.993c0,25.852-21.35,47.075-47.324,47.049C299.614,334.475,278.564,313.5,278.465,287.576z       M387.54,287.427c0-34.294-27.802-62.106-62.078-62.106c-34.298,0-62.097,27.812-62.097,62.106      c0,34.298,27.799,62.098,62.097,62.098C359.738,349.524,387.54,321.725,387.54,287.427z" fill="#BE4230" fill-rule="evenodd"/><path clip-rule="evenodd" d="M279.194,288.257c-0.125-25.993,20.976-47.067,47.148-47.092      c26.075-0.037,47.3,21.062,47.275,46.994c0,25.851-21.35,47.074-47.324,47.048C300.344,335.155,279.295,314.182,279.194,288.257      z M388.27,288.107c0-34.294-27.801-62.105-62.077-62.105c-34.298,0-62.097,27.811-62.097,62.105      c0,34.298,27.799,62.098,62.097,62.098C360.469,350.205,388.27,322.405,388.27,288.107z" fill="#BE4230" fill-rule="evenodd"/><path clip-rule="evenodd" d="M279.925,288.938c-0.126-25.994,20.974-47.068,47.147-47.093      c26.076-0.037,47.3,21.062,47.276,46.993c0,25.851-21.35,47.074-47.324,47.048C301.074,335.837,280.023,314.862,279.925,288.938      z M388.999,288.788c0-34.293-27.801-62.105-62.077-62.105c-34.298,0-62.098,27.812-62.098,62.105      c0,34.299,27.8,62.099,62.098,62.099C361.198,350.887,388.999,323.087,388.999,288.788z" fill="#BE4230" fill-rule="evenodd"/><path clip-rule="evenodd" d="M280.654,289.619c-0.125-25.993,20.975-47.068,47.148-47.093      c26.075-0.037,47.299,21.063,47.275,46.994c0,25.85-21.35,47.074-47.324,47.048      C301.804,336.518,280.754,315.543,280.654,289.619z M389.729,289.47c0-34.294-27.801-62.105-62.076-62.105      c-34.299,0-62.098,27.811-62.098,62.105c0,34.298,27.799,62.098,62.098,62.098C361.928,351.567,389.729,323.768,389.729,289.47z      " fill="#BE4230" fill-rule="evenodd"/><path clip-rule="evenodd" d="M281.384,290.3c-0.125-25.993,20.975-47.067,47.148-47.092      c26.075-0.038,47.3,21.062,47.275,46.994c0,25.85-21.35,47.074-47.324,47.049C302.533,337.199,281.483,316.225,281.384,290.3z       M390.458,290.15c0-34.294-27.801-62.105-62.076-62.105c-34.299,0-62.098,27.812-62.098,62.105      c0,34.299,27.799,62.099,62.098,62.099C362.657,352.249,390.458,324.449,390.458,290.15z" fill="#BE4230" fill-rule="evenodd"/><path clip-rule="evenodd" d="M282.113,290.981c-0.125-25.993,20.975-47.068,47.149-47.093      c26.074-0.038,47.3,21.063,47.274,46.993c0,25.85-21.35,47.074-47.324,47.049C303.264,337.881,282.213,316.905,282.113,290.981z       M391.188,290.832c0-34.294-27.8-62.106-62.076-62.106c-34.299,0-62.098,27.812-62.098,62.106      c0,34.299,27.799,62.098,62.098,62.098C363.388,352.93,391.188,325.131,391.188,290.832z" fill="#BE4230" fill-rule="evenodd"/><path clip-rule="evenodd" d="M282.844,291.662c-0.125-25.993,20.974-47.068,47.148-47.092      c26.075-0.038,47.3,21.062,47.274,46.993c0,25.851-21.35,47.075-47.323,47.049C303.993,338.562,282.943,317.587,282.844,291.662      z M391.917,291.513c0-34.294-27.801-62.105-62.075-62.105c-34.3,0-62.099,27.812-62.099,62.105      c0,34.299,27.799,62.099,62.099,62.099C364.116,353.611,391.917,325.812,391.917,291.513z" fill="#BE4230" fill-rule="evenodd"/><path clip-rule="evenodd" d="M283.573,292.344c-0.125-25.994,20.975-47.069,47.149-47.093      c26.074-0.038,47.3,21.063,47.274,46.994c0,25.85-21.351,47.074-47.324,47.048C304.723,339.243,283.673,318.268,283.573,292.344      z M392.646,292.194c0-34.295-27.8-62.106-62.075-62.106c-34.299,0-62.098,27.812-62.098,62.106      c0,34.298,27.799,62.099,62.098,62.099C364.847,354.293,392.646,326.492,392.646,292.194z" fill="#BE4230" fill-rule="evenodd"/><path clip-rule="evenodd" d="M284.303,293.024c-0.125-25.993,20.975-47.068,47.149-47.093      c26.074-0.038,47.3,21.063,47.274,46.993c0,25.85-21.35,47.074-47.324,47.049C305.452,339.924,284.402,318.949,284.303,293.024z       M393.376,292.875c0-34.294-27.8-62.106-62.074-62.106c-34.3,0-62.099,27.812-62.099,62.106      c0,34.299,27.799,62.099,62.099,62.099C365.576,354.974,393.376,327.174,393.376,292.875z" fill="#BE4230" fill-rule="evenodd"/></g></g><path clip-rule="evenodd" d="M229.828,267.244l4.775-3.9    c-13.55-8.237-22.625-23.063-22.7-40.037c-0.125-26,20.975-47.062,47.149-47.087c16.4-0.025,30.875,8.337,39.35,20.987l2.225-6.65    l-12.85-22.375c-8.625-4.538-18.449-7.138-28.875-7.138c-34.299,0-62.099,27.813-62.099,62.112c0,10.475,2.6,20.337,7.175,29    L229.828,267.244z" fill="#972E22" fill-rule="evenodd"/><path clip-rule="evenodd" d="M316.053,220.682c0-34.3-27.825-62.099-62.125-62.099    c-34.274,0-62.074,27.799-62.074,62.099c0,34.287,27.8,62.093,62.074,62.093C288.228,282.774,316.053,254.969,316.053,220.682z     M206.954,220.832c-0.125-26,20.975-47.063,47.125-47.087c26.1-0.025,47.299,21.049,47.299,46.999    c0,25.862-21.35,47.074-47.324,47.037C228.104,267.719,207.054,246.744,206.954,220.832z" fill="#F1F2F2" fill-rule="evenodd"/></g></g><g/><g/><g/><g/><g/><g/></svg>