<?xml version="1.0" ?><!DOCTYPE svg  PUBLIC '-//W3C//DTD SVG 1.1//EN'  'http://www.w3.org/Graphics/SVG/1.1/DTD/svg11.dtd'><svg enable-background="new 0 0 512 512" height="512px" id="Calque_1" version="1.1" viewBox="0 0 512 512" width="512px" xml:space="preserve" xmlns="http://www.w3.org/2000/svg" xmlns:xlink="http://www.w3.org/1999/xlink"><g><path d="M512,256c0,141.388-114.612,256-256,256S0,397.388,0,256S114.612,0,256,0S512,114.612,512,256z" fill="#EBEEEF"/><g id="information"><g><rect fill="#27AAE1" height="56.975" width="68.112" x="215.013" y="329.2"/><path d="M321.188,147.469c-16.338-14.362-38.838-21.65-66.888-21.65c-26.125,0-47.575,6.325-63.75,18.8     c-16.675,12.863-24.925,32.138-24.575,57.3l-0.113,6.662l67.25,0.013l0.138-5.6c0.188-7.538,2.163-12.925,6.05-16.462     c3.988-3.625,8.9-5.4,15-5.4c7.675,0,13.325,2.137,17.288,6.525c4.112,4.563,6.1,10.688,6.1,18.725     c0,7.962-1.888,15.05-5.625,21.063c-3.838,6.188-9.2,11.45-15.938,15.688l-0.25,0.15c-15.3,10.712-25.625,20.05-31.575,28.544     c-6.25,8.925-9.337,21.524-9.45,38.475l-0.05,5.8h68.5v-5.774c0-8.425,1.088-15.05,3.25-19.726     c2.038-4.375,6.163-8.649,12.288-12.699c13.55-7.125,24.887-17.031,33.688-29.432c9.024-12.737,13.612-26.9,13.612-42.087     C346.138,181.844,337.75,162.031,321.188,147.469z" fill="#27AAE1"/></g><path d="M216.15,329.125l66.975,0.075l0.05,35.05C275.175,353.75,251.65,329.85,216.15,329.125z" fill="#262262" opacity="0.2"/></g></g><g/><g/><g/><g/><g/><g/></svg>