<?xml version="1.0" ?><!DOCTYPE svg  PUBLIC '-//W3C//DTD SVG 1.1//EN'  'http://www.w3.org/Graphics/SVG/1.1/DTD/svg11.dtd'><svg enable-background="new 0 0 512 512" height="512px" id="Calque_1" version="1.1" viewBox="0 0 512 512" width="512px" xml:space="preserve" xmlns="http://www.w3.org/2000/svg" xmlns:xlink="http://www.w3.org/1999/xlink"><g><path d="M512,256c0,141.386-114.599,255.997-256.003,255.997C114.623,511.997,0,397.386,0,256   S114.623,0.003,255.997,0.003C397.401,0.003,512,114.614,512,256z" fill="#EBEEEF"/><g id="Directions"><rect fill="#27AAE1" height="132.667" width="30.85" x="290.928" y="249.856"/><g><polygon fill="#27AAE1" points="314.353,270 290.952,249.894 338.202,194.944 361.602,215.057    "/><g><polygon fill="#27AAE1" points="304.978,194.007 367.502,247.756 363.102,189.645     "/></g></g><rect fill="#27AAE1" height="86.349" width="30.875" x="190.223" y="296.175"/><g><rect fill="#27AAE1" height="232.791" width="30.843" x="239.634" y="149.732"/><g><polygon fill="#27AAE1" points="213.822,170.707 296.277,170.707 255.059,129.483     "/></g></g><g><polygon fill="#27AAE1" points="197.647,316.324 150.423,261.381 173.798,241.269 221.06,296.225    "/><g><polygon fill="#27AAE1" points="144.511,294.074 207.047,240.344 148.898,235.944     "/></g></g></g></g><g/><g/><g/><g/><g/><g/></svg>