<?xml version="1.0" ?><!DOCTYPE svg  PUBLIC '-//W3C//DTD SVG 1.1//EN'  'http://www.w3.org/Graphics/SVG/1.1/DTD/svg11.dtd'><svg enable-background="new 0 0 512 512" height="512px" id="Calque_1" version="1.1" viewBox="0 0 512 512" width="512px" xml:space="preserve" xmlns="http://www.w3.org/2000/svg" xmlns:xlink="http://www.w3.org/1999/xlink"><g><circle cx="256.003" cy="256" fill="#EBEEEF" r="255.997"/><g id="arrow_5_"><path clip-rule="evenodd" d="M256.103,301.225c0,13.824,0.019,26.975-0.006,40.1    c-0.013,7.25,3.193,12.574,9.731,15.55c6.774,3.075,13.1,1.649,18.3-3.5c33.85-33.3,67.624-66.675,101.437-100.043    c0.337-0.35,0.611-0.762,1.312-1.625c-1.899-1.762-3.774-3.45-5.574-5.225c-32.087-31.637-64.137-63.324-96.236-94.961    c-10.013-9.85-25-6.375-28.456,6.563c-0.419,1.563-0.481,3.275-0.488,4.913c-0.031,12.125-0.019,24.262-0.019,36.399    c0,1.375,0,2.775,0,4.287c-44.987,6.188-80.612,27.438-106.086,64.862c-19.837,29.155-26.625,61.83-24.512,97.604    c1.181-1.675,1.943-2.75,2.687-3.824c20.35-29.35,47.543-48.675,82.706-56.1c7.344-1.551,14.806-2.7,22.262-3.525    C240.609,301.875,248.122,301.699,256.103,301.225z" fill="#44B39D" fill-rule="evenodd"/><path d="M256.103,203.682v45.037c0,0-11.869-23.25-30.937-37.887    C234.928,207.557,245.24,205.182,256.103,203.682z" fill="#2C846D" opacity="0.65"/></g></g><g/><g/><g/><g/><g/><g/></svg>