<?xml version="1.0" ?><!DOCTYPE svg  PUBLIC '-//W3C//DTD SVG 1.1//EN'  'http://www.w3.org/Graphics/SVG/1.1/DTD/svg11.dtd'><svg enable-background="new 0 0 512 512" height="512px" id="Calque_1" version="1.1" viewBox="0 0 512 512" width="512px" xml:space="preserve" xmlns="http://www.w3.org/2000/svg" xmlns:xlink="http://www.w3.org/1999/xlink"><g><path d="M512,256c0,141.389-114.626,256.003-255.997,256.003C114.602,512.003,0,397.389,0,256   C0,114.611,114.602-0.003,256.003-0.003C397.374-0.003,512,114.611,512,256z" fill="#E27C3C"/><g id="rss"><path d="M350.473,256.212" fill="#FBB040"/><g><defs><polygon id="SVGID_1_" points="244.428,351.514 267.578,351.514 448.799,145.811 63.201,145.811     "/></defs><clipPath id="SVGID_2_"><use overflow="visible" xlink:href="#SVGID_1_"/></clipPath><g clip-path="url(#SVGID_2_)"><path d="M256.003,166.674c-100.226,0-181.777,81.539-181.777,181.777c0,100.227,81.551,181.752,181.777,181.752      c100.22,0,181.746-81.525,181.746-181.752C437.749,248.212,356.224,166.674,256.003,166.674z M256.003,499.153      c-83.126,0-150.727-67.614-150.727-150.702c0-83.113,67.601-150.739,150.727-150.739c83.094,0,150.696,67.626,150.696,150.739      C406.699,431.539,339.098,499.153,256.003,499.153z" fill="#FBB040"/><path d="M256.003,219.074c-75.626,0-137.152,61.526-137.152,137.14c0,75.626,61.526,137.14,137.152,137.14      c75.594,0,137.121-61.514,137.121-137.14C393.124,280.601,331.598,219.074,256.003,219.074z M256.003,462.303      c-58.5,0-106.077-47.588-106.077-106.089s47.576-106.089,106.077-106.089c58.495,0,106.07,47.588,106.07,106.089      S314.498,462.303,256.003,462.303z" fill="#FBB040"/><path d="M263.254,250.4c27.769,1.887,52.644,14.5,70.469,33.738      c0.825,0.088,1.25,0.101,1.25,0.101l3.226-27.476c0,0-92.17-36.888-94.445-36.888c-0.175,0-0.625-0.05-1.3-0.125      c-13.9,1.375-27.226,4.825-39.625,10.063C212.478,230.012,236.028,232.575,263.254,250.4z" fill="#D98D39" opacity="0.65"/><path d="M256.003,272.775c-50.301,0-91.201,40.913-91.201,91.201c0,50.301,40.9,91.213,91.201,91.213      c50.294,0,91.195-40.912,91.195-91.213C347.198,313.688,306.298,272.775,256.003,272.775z M256.003,424.14      c-33.175,0-60.151-26.976-60.151-60.163c0-33.163,26.976-60.15,60.151-60.15c33.168,0,60.144,26.987,60.144,60.15      C316.147,397.164,289.172,424.14,256.003,424.14z" fill="#FBB040"/><path d="M254.703,272.801c-13.175,0.188-25.675,3.175-36.95,8.412      c8.375,2.875,26.175,10.063,39.425,22.638c18.119,0.351,34.32,8.75,45.12,21.775c6.7-0.375,11.325-1.601,11.325-1.601      l-17.15-33.963C296.473,290.063,275.723,278.788,254.703,272.801z" fill="#D98D39" opacity="0.65"/></g></g><path d="M330.423,280.525c-94.62-89.589-180.896-38.226-181.746-37.676l-20.625-23.375    c1.125-0.713,29.351-20.838,70.276-23.851c37.3-2.775,94.12,5.625,152.946,61.313L330.423,280.525z" fill="#FFDE17"/><path d="M296.147,319.176c-60.869-55.563-113.595-39.013-114.17-38.813l-20.525-23.288    c3.075-1.063,79.576-30.025,155.096,38.9L296.147,319.176z" fill="#FFDE17"/><path d="M276.272,345.914c0,11.199-9.069,20.275-20.269,20.275c-11.2,0-20.275-9.076-20.275-20.275    c0-11.188,9.075-20.264,20.275-20.264C267.203,325.65,276.272,334.727,276.272,345.914z" fill="#FFDE17"/></g></g><g/><g/><g/><g/><g/><g/></svg>