<?xml version="1.0" ?><!DOCTYPE svg  PUBLIC '-//W3C//DTD SVG 1.1//EN'  'http://www.w3.org/Graphics/SVG/1.1/DTD/svg11.dtd'><svg enable-background="new 0 0 512 512" height="512px" id="Calque_1" version="1.1" viewBox="0 0 512 512" width="512px" xml:space="preserve" xmlns="http://www.w3.org/2000/svg" xmlns:xlink="http://www.w3.org/1999/xlink"><g><path d="M512,256c0,141.386-114.599,255.997-255.991,255.997C114.623,511.997,0,397.386,0,256   S114.623,0.003,256.009,0.003C397.401,0.003,512,114.614,512,256z" fill="#A1C656"/><g id="browser"><rect fill="#FFFFFF" height="19.2" width="191.192" x="183.185" y="165.982"/><path d="M376.677,161.333H135.211c-4.425,0-8.025,3.6-8.025,8.025v173.291c0,4.426,3.6,8.025,8.025,8.025h241.466    c4.425,0,8.024-3.6,8.024-8.025V169.357C384.701,164.933,381.102,161.333,376.677,161.333z M361.977,182.595H198.635    c-4.4,0-7.975-3.05-7.975-6.813c0-3.775,3.575-6.825,7.975-6.825h163.342c4.4,0,7.975,3.05,7.975,6.825    C369.951,179.545,366.377,182.595,361.977,182.595z" fill="#E6E7E8"/><path d="M376.776,161.333H135.298c-4.425,0-8.012,3.6-8.012,8.025v20.85h257.515v-20.85    C384.801,164.933,381.201,161.333,376.776,161.333z M361.977,182.595H198.635c-4.4,0-7.975-3.05-7.975-6.813    c0-3.775,3.575-6.825,7.975-6.825h163.342c4.4,0,7.975,3.05,7.975,6.825C369.951,179.545,366.377,182.595,361.977,182.595z" fill="#27AAE1"/><path d="M142.323,175.782c0,2.763,2.25,5,5.012,5l0,0c2.775,0,5.012-2.237,5.012-5l0,0    c0-2.775-2.237-5.025-5.012-5.025l0,0C144.573,170.757,142.323,173.007,142.323,175.782L142.323,175.782z" fill="#E7CE3C"/><path d="M155.16,175.782c0,2.763,2.25,5,5.013,5l0,0c2.775,0,5.025-2.237,5.025-5l0,0    c0-2.775-2.25-5.025-5.025-5.025l0,0C157.41,170.757,155.16,173.007,155.16,175.782L155.16,175.782z" fill="#8DC63F"/><path d="M168.01,175.782c0,2.763,2.238,5,5.012,5l0,0c2.775,0,5.013-2.237,5.013-5l0,0    c0-2.775-2.237-5.025-5.013-5.025l0,0C170.248,170.757,168.01,173.007,168.01,175.782L168.01,175.782z" fill="#F15A29"/><g><rect fill="#D1D3D4" height="50.556" width="60.162" x="159.86" y="218.77"/><rect fill="#D1D3D4" height="50.543" width="115.105" x="236.922" y="268.557"/><rect fill="#6D6E71" height="9.237" width="115.105" x="236.922" y="218.77"/><rect fill="#D1D3D4" height="2.899" width="115.08" x="236.922" y="234.382"/><rect fill="#D1D3D4" height="2.925" width="60.299" x="159.86" y="284.149"/><rect fill="#D1D3D4" height="2.9" width="60.299" x="159.86" y="290.574"/><rect fill="#D1D3D4" height="2.899" width="60.299" x="159.86" y="297"/><rect fill="#D1D3D4" height="2.912" width="115.08" x="236.922" y="240.794"/><rect fill="#D1D3D4" height="2.925" width="115.08" x="236.922" y="247.219"/><rect fill="#D1D3D4" height="2.913" width="115.08" x="236.922" y="253.644"/><rect fill="#D1D3D4" height="2.913" width="115.08" x="236.922" y="260.068"/></g></g></g><g/><g/><g/><g/><g/><g/></svg>