<?xml version="1.0" ?><!DOCTYPE svg  PUBLIC '-//W3C//DTD SVG 1.1//EN'  'http://www.w3.org/Graphics/SVG/1.1/DTD/svg11.dtd'><svg enable-background="new 0 0 512 512" height="512px" id="Calque_1" version="1.1" viewBox="0 0 512 512" width="512px" xml:space="preserve" xmlns="http://www.w3.org/2000/svg" xmlns:xlink="http://www.w3.org/1999/xlink"><g><path d="M512,256c0,141.386-114.599,255.997-255.991,255.997C114.623,511.997,0,397.386,0,256   S114.623,0.003,256.009,0.003C397.401,0.003,512,114.614,512,256z" fill="#EFC84A"/><g id="email"><polygon fill="#2B3990" points="123.648,381.474 388.551,381.474 388.551,221.488 256.109,156.876 123.648,221.488   "/><rect fill="#262262" height="86.086" opacity="0.65" width="265.128" x="123.648" y="221.488"/><polygon fill="#262262" opacity="0.5" points="361.302,236.4 368.002,211.426 354.401,204.738 350.102,240.063 357.627,239.45       "/><polygon fill="#F1F2F2" points="156.011,309.6 354.477,309.6 354.477,166.664 316.077,130.526 156.011,130.526   "/><rect fill="#F0C946" height="125.811" width="128.592" x="187.06" y="235.351"/><polygon fill="#27AAE1" points="123.648,381.474 388.551,381.474 388.551,221.488 256.109,290.962 123.648,221.488   "/><polygon fill="#2B3990" opacity="0.17" points="255.672,290.512 123.211,364.411 123.648,381.474   "/><polygon fill="#1C75BC" points="123.648,381.474 388.551,381.474 388.551,380.711 255.672,290.512 123.648,380.711   "/><rect fill="#E64E3C" height="8.125" width="95.792" x="187.06" y="160.176"/><rect fill="#D1D3D4" height="10.875" width="128.592" x="187.06" y="187.501"/><rect fill="#D1D3D4" height="10.875" width="77.824" x="187.06" y="209.15"/><polygon fill="#D1D3D4" points="316.077,166.664 354.477,166.664 316.077,130.526   "/><polygon fill="#A7A9AC" opacity="0.15" points="354.477,166.688 316.053,166.688 354.477,202.826   "/><line fill="#F1F2F2" x1="316.077" x2="354.477" y1="167.101" y2="203.238"/></g></g><g/><g/><g/><g/><g/><g/></svg>