<?xml version="1.0" ?><!DOCTYPE svg  PUBLIC '-//W3C//DTD SVG 1.1//EN'  'http://www.w3.org/Graphics/SVG/1.1/DTD/svg11.dtd'><svg enable-background="new 0 0 512 512" height="512px" id="Calque_1" version="1.1" viewBox="0 0 512 512" width="512px" xml:space="preserve" xmlns="http://www.w3.org/2000/svg" xmlns:xlink="http://www.w3.org/1999/xlink"><g><path d="M512,256c0,141.386-114.599,255.997-255.991,255.997C114.623,511.997,0,397.386,0,256   S114.623,0.003,256.009,0.003C397.401,0.003,512,114.614,512,256z" fill="#EBEEEF"/><g id="stop"><path clip-rule="evenodd" d="M194.61,311.799c0,3.976,3.212,7.176,7.175,7.176h108.417    c3.976,0,7.175-3.2,7.175-7.176V200.194c0-3.962-3.199-7.188-7.175-7.188H201.785c-3.963,0-7.175,3.225-7.175,7.188V311.799z" fill="#4CB576" fill-rule="evenodd"/><path d="M256.009,148.383c59.318,0,107.618,48.287,107.618,107.611c0,59.356-48.3,107.63-107.618,107.63    c-59.349,0-107.624-48.274-107.624-107.63C148.386,196.669,196.66,148.383,256.009,148.383 M256.009,129.258    c-70.012,0-126.749,56.737-126.749,126.736c0,70.005,56.737,126.754,126.749,126.754c69.993,0,126.717-56.749,126.717-126.754    C382.727,185.995,326.002,129.258,256.009,129.258L256.009,129.258z" fill="#4CB576"/></g></g><g/><g/><g/><g/><g/><g/></svg>