<?xml version="1.0" ?><!DOCTYPE svg  PUBLIC '-//W3C//DTD SVG 1.1//EN'  'http://www.w3.org/Graphics/SVG/1.1/DTD/svg11.dtd'><svg enable-background="new 0 0 512 512" height="512px" id="Calque_1" version="1.1" viewBox="0 0 512 512" width="512px" xml:space="preserve" xmlns="http://www.w3.org/2000/svg" xmlns:xlink="http://www.w3.org/1999/xlink"><g><path d="M512,256c0,141.386-114.599,255.997-255.991,255.997C114.623,511.997,0,397.386,0,256   S114.623,0.003,256.009,0.003C397.401,0.003,512,114.614,512,256z" fill="#35707F"/><g><path d="M192.585,322.799c0,4.2,3.4,7.601,7.6,7.601h4.05c4.2,0,7.6-3.4,7.6-7.601v-9.125c0-4.188-3.4-7.6-7.6-7.6    h-4.05c-4.2,0-7.6,3.412-7.6,7.6V322.799z" fill="#414042"/><path d="M218.935,341.336H191.06c-6.025,0-10.925-4.912-10.925-10.937v-35.462c0-6.038,4.9-10.938,10.925-10.938    h27.875c6.025,0,10.925,4.899,10.925,10.938v35.462C229.859,336.424,224.959,341.336,218.935,341.336z M191.06,290.662    c-2.35,0-4.275,1.912-4.275,4.275v35.462c0,2.35,1.925,4.263,4.275,4.263h27.875c2.35,0,4.275-1.913,4.275-4.263v-35.462    c0-2.363-1.925-4.275-4.275-4.275H191.06z" fill="#BE4230"/><path d="M185.998,366.387c-9.237,0-16.737-7.488-16.737-16.726v-97.299c0-9.25,7.5-16.725,16.737-16.725    s16.712,7.475,16.712,16.725v97.299C202.71,358.898,195.235,366.387,185.998,366.387z" fill="#E64E3C"/><path d="M169.26,252.362v97.299c0,9.237,7.5,16.726,16.737,16.726c0.038,0,0.087-0.014,0.125-0.014V247.288    h-16.062C169.561,248.888,169.26,250.588,169.26,252.362z" fill="#BE4230"/><path d="M386.176,224.288c0,18.487-14.975,33.449-33.449,33.449s-33.449-14.962-33.449-33.449    c0-18.462,14.975-33.45,33.449-33.45S386.176,205.826,386.176,224.288z" fill="#A02F22"/><path d="M322.352,238.3c5.301,11.475,16.9,19.437,30.375,19.437    c18.475,0,33.449-14.962,33.449-33.449c0-3.362-0.5-6.612-1.424-9.675c-7.45,5-19.875,9.737-40.65,11.399    C330.677,227.075,324.377,231.851,322.352,238.3z" fill="#E1413E" opacity="0.33"/><path d="M331.427,250.1c5.8,4.775,13.2,7.637,21.3,7.637c4.3,0,8.4-0.813,12.15-2.287v-62.312    c-3.75-1.475-7.851-2.3-12.15-2.3c-8.1,0-15.5,2.875-21.3,7.663V250.1z" fill="#6D1912" opacity="0.38"/><path d="M256.559,175.901v0.488H173.96c-26.587,0-48.149,21.449-48.149,47.899    c0,26.462,21.563,47.911,48.149,47.911l81.324-0.037l86.418,30.813V145.614L256.559,175.901z" fill="#E6E7E8"/><path d="M348.677,145.614h-7.1v157.611h7.1c4.2,0,7.6-3.388,7.6-7.575V153.188    C356.276,149.014,352.877,145.614,348.677,145.614z" fill="#BE4230"/><polygon fill="#D1D3D4" points="255.422,176.389 255.422,272.199 341.702,302.975 341.702,145.614   "/><path d="M341.702,145.614l-86.668,30.775H173.96c-23.837,0-43.624,17.237-47.449,39.887    c75.024,21.5,167.892,5.475,215.191-5.55V145.614z" fill="#A7A9AC" opacity="0.27"/><path d="M341.802,211.438v92.611h6.726c4.274,0,7.749-3.387,7.749-7.549v-85.062H341.802z" fill="#E64E3C"/></g></g><g/><g/><g/><g/><g/><g/></svg>