<?xml version="1.0" ?><!DOCTYPE svg  PUBLIC '-//W3C//DTD SVG 1.1//EN'  'http://www.w3.org/Graphics/SVG/1.1/DTD/svg11.dtd'><svg enable-background="new 0 0 512 512" height="512px" id="Calque_1" version="1.1" viewBox="0 0 512 512" width="512px" xml:space="preserve" xmlns="http://www.w3.org/2000/svg" xmlns:xlink="http://www.w3.org/1999/xlink"><g><path d="M512,256c0,141.386-114.599,255.997-255.991,255.997C114.623,511.997,0,397.386,0,256   S114.623,0.003,256.009,0.003C397.401,0.003,512,114.614,512,256z" fill="#EBEEEF"/><g id="quote_6_"><path d="M188.435,309.524c11.5,27.237,32,49.237,32,49.237C115.136,349.398,86.286,259.7,86.286,259.7h0.1    c-2.825-8.213-4.375-17-4.375-26.125c0-44.299,36.025-80.336,80.324-80.336c44.3,0,80.324,36.037,80.324,80.336    C242.659,268.737,219.96,298.662,188.435,309.524z" fill="#44B39D"/><path d="M188.51,309.499c-2.75-6.787-10.625-28.162-10.35-49.262c0,0,11.925,25.938,32.675,37.3    C204.135,302.625,196.61,306.699,188.51,309.499z" fill="#2C846D" opacity="0.65"/><path d="M375.752,309.524c11.475,27.237,31.999,49.237,31.999,49.237C302.452,349.398,273.603,259.7,273.603,259.7    h0.075c-2.8-8.213-4.375-17-4.375-26.125c0-44.299,36.05-80.336,80.324-80.336c44.324,0,80.349,36.037,80.349,80.336    C429.976,268.737,407.276,298.662,375.752,309.524z" fill="#44B39D"/><path d="M375.802,309.499c-2.75-6.787-10.625-28.162-10.325-49.262c0,0,11.9,25.938,32.649,37.3    C391.426,302.625,383.926,306.699,375.802,309.499z" fill="#2C846D" opacity="0.65"/></g></g><g/><g/><g/><g/><g/><g/></svg>