<?xml version="1.0" ?><!DOCTYPE svg  PUBLIC '-//W3C//DTD SVG 1.1//EN'  'http://www.w3.org/Graphics/SVG/1.1/DTD/svg11.dtd'><svg enable-background="new 0 0 512 512" height="512px" id="Calque_1" version="1.1" viewBox="0 0 512 512" width="512px" xml:space="preserve" xmlns="http://www.w3.org/2000/svg" xmlns:xlink="http://www.w3.org/1999/xlink"><g><path d="M512,256c0,141.386-114.599,255.997-255.991,255.997C114.623,511.997,0,397.386,0,256   S114.623,0.003,256.009,0.003C397.401,0.003,512,114.614,512,256z" fill="#344E5D"/><g id="purse"><polygon fill="#43B39C" points="233.435,187.463 277.128,187.463 302.752,139.464 207.835,139.464   "/><path d="M233.435,187.463h43.693l15.399-28.85c-11.824-2.675-24.293-4.188-37.243-4.188    s-25.425,1.512-37.25,4.188L233.435,187.463z" fill="#006838" opacity="0.27"/><path d="M388.251,270.15c0,56.549-59.224,102.398-132.267,102.398c-73.049,0-132.249-45.85-132.249-102.398    c0-56.563,59.199-102.399,132.249-102.399C329.027,167.751,388.251,213.588,388.251,270.15z" fill="#43B39C"/><path d="M189.96,218.426c0,0-2.55,6.125-5.5,14.05c-3.05,7.962-6.025,17.837-7.55,27.562    c-0.675,2.413-0.475,4.926-0.975,7.351c-0.15,2.487-0.3,4.95-0.45,7.324c-0.025,2.476-0.05,4.862-0.075,7.138    c-0.1,2.325,0.275,4.525,0.225,6.688c0,4.3,0.475,7.975,0.5,10.737c0.05,2.763-0.05,4.487-0.05,4.487s-1.325-0.938-3.399-2.837    c-2-1.95-5.15-4.713-7.5-8.913c-1.226-2.074-2.9-4.262-3.75-6.925c-0.95-2.625-2.2-5.412-2.875-8.462    c-0.475-3.063-1.2-6.275-1.25-9.588c0.075-3.313-0.05-6.737,0.65-10.05c0.975-6.725,3.6-13.063,6.7-18.437    c3.4-5.238,7.1-9.663,11-12.637C183.16,219.613,189.96,218.426,189.96,218.426z" fill="#95D2B6"/><path d="M292.428,171.401c-0.025,0.037-0.051,0.063-0.075,0.1c0,0,86.399,30.925,63.999,114.124    c-11.55,42.912-37.824,67.574-60.6,81.486c53.25-13.25,91.799-51.862,91.799-97.474    C387.551,223.075,347.377,183.838,292.428,171.401z" fill="#006838" opacity="0.27"/><path clip-rule="evenodd" d="M265.334,260.45    c6.693,0.763,13.044,2.112,18.994,5.013c15.399,7.524,16.975,24.611,10.899,35.649c-6.25,11.312-16.1,17.537-28.844,19.225    c-0.3,0.037-0.6,0.1-1.1,0.188c0,4.5,0,9,0,13.624c-6.476,0-12.75,0-19.2,0c0-4.486,0-9.037,0-13.574    c-18.35-4.963-30.324-15.55-32.649-35.5c1.075,0,1.85,0,2.625,0c5.375,0,10.775,0.038,16.15-0.037    c1.275-0.013,1.65,0.425,2.075,1.625c0.95,2.862,1.95,5.787,3.45,8.375c1.725,2.95,4.7,4.513,8.125,5.475    c0-7.625,0-15.149,0-22.662c-3.225-0.775-6.475-1.4-9.6-2.338c-6.275-1.837-11.975-4.712-16.075-9.986    c-7.75-9.938-6.55-25.175,2.65-34.55c5.7-5.838,13.55-9.663,23.1-11.225c0-4.475,0-8.975,0-13.612c6.399,0,12.649,0,19.074,0    c0,4.587,0,9.087,0,13.562c19.869,2.313,31.969,17.838,31.243,32.025c-0.425,0.05-0.899,0.15-1.375,0.15    c-5.625,0.013-11.249-0.037-16.874,0.038c-1.351,0.025-1.675-0.5-1.95-1.725c-1.125-4.862-3.75-8.55-8.644-10.287    c-0.4-0.138-0.825-0.225-1.25-0.3c-0.226-0.038-0.476,0.025-0.825,0.038C265.334,246.575,265.334,253.45,265.334,260.45z     M265.509,300.649c4.419-0.662,8.394-1.962,11.319-5.462c2.475-2.976,2.449-6.788-0.075-9.7c-2.925-3.4-6.875-4.325-11.244-4.463    C265.509,287.612,265.509,294.05,265.509,300.649z M245.909,256.8c0-5.649,0-11.3,0-16.962c-5.9,0.575-10.399,5.05-9.975,9.899    C236.334,254.1,240.734,257.263,245.909,256.8z" fill="#FFFFFF" fill-rule="evenodd" id="dollar_1_"/></g></g><g/><g/><g/><g/><g/><g/></svg>