<?xml version="1.0" ?><!DOCTYPE svg  PUBLIC '-//W3C//DTD SVG 1.1//EN'  'http://www.w3.org/Graphics/SVG/1.1/DTD/svg11.dtd'><svg enable-background="new 0 0 512 512" height="512px" id="Calque_1" version="1.1" viewBox="0 0 512 512" width="512px" xml:space="preserve" xmlns="http://www.w3.org/2000/svg" xmlns:xlink="http://www.w3.org/1999/xlink"><g><path d="M512,256.003c0,141.369-114.612,255.994-256,255.994S0,397.372,0,256.003c0-141.388,114.612-256,256-256   S512,114.616,512,256.003z" fill="#EFC84A"/><g id="pin"><g><polygon fill="#A8BEC6" points="246.913,364.822 256.712,395.572 265.188,364.822 265.188,222.766 246.913,222.766    "/><path d="M265.188,255.416c-1.7,1.35-3.55,3.3-5.6,6v102.581l-2.875,31.575l8.475-30.75V255.416z" fill="#80929B"/><rect fill="#5C717C" height="9.132" opacity="0.44" width="18.275" x="246.813" y="265.24"/></g><g><rect fill="#D8444B" height="111.325" width="62.175" x="224.913" y="143.016"/><path d="M224.913,153.266c8.425,4.775,28.95,14.175,62.175,16.025v-26.275h-62.175V153.266z" fill="#96291F" opacity="0.27"/><path d="M190.188,116.441c13.05,23.3,37.625,39.05,65.825,39.05s52.75-15.75,65.8-39.05H190.188z" fill="#E9484B"/><path d="M190.188,265.191c13.05-36.226,37.625-60.701,65.825-60.701s52.75,24.475,65.8,60.701H190.188z" fill="#E9484B"/><path d="M287.088,215.116v-66.475c14.649-6.725,26.8-18.05,34.725-32.2h-38.525     c1.476,7.1,2.575,24.45-16.699,39.875v49.825c0,0,30.324,21.25,35.05,59.051h20.175     C313.888,243.216,301.737,225.616,287.088,215.116z" fill="#BE1E2D" opacity="0.44"/><path d="M235.862,226.516c0,0-0.2,0.625-0.525,1.65c-0.375,0.975-0.85,2.325-1.525,3.775     c-0.7,1.425-1.4,3.1-2.4,4.625c-0.45,0.8-0.9,1.625-1.425,2.4c-0.475,0.8-1.125,1.475-1.575,2.325     c-0.525,0.75-1.025,1.525-1.625,2.25c-0.6,0.7-1.175,1.4-1.675,2.125c-1,1.425-2.4,2.625-3.375,3.8     c-1.9,2.35-4.15,4.025-4.15,4.025s-1.075-2.3-1.225-5.95c-0.225-1.85,0.35-3.775,0.9-5.925c0.5-2.2,1.825-4.075,3-6.075     c1.3-1.875,2.975-3.475,4.575-4.875c1.75-1.25,3.4-2.35,5.1-2.925c1.6-0.675,3.1-1.025,4.2-1.15     C235.188,226.441,235.862,226.516,235.862,226.516z" fill="#FFFFFF"/></g></g></g><g/><g/><g/><g/><g/><g/></svg>