<?xml version="1.0" ?><!DOCTYPE svg  PUBLIC '-//W3C//DTD SVG 1.1//EN'  'http://www.w3.org/Graphics/SVG/1.1/DTD/svg11.dtd'><svg enable-background="new 0 0 512 512" height="512px" id="Calque_1" version="1.1" viewBox="0 0 512 512" width="512px" xml:space="preserve" xmlns="http://www.w3.org/2000/svg" xmlns:xlink="http://www.w3.org/1999/xlink"><g><path d="M512,256c0,141.386-114.599,255.997-256.003,255.997C114.623,511.997,0,397.386,0,256   S114.623,0.003,255.997,0.003C397.401,0.003,512,114.614,512,256z" fill="#EBEEEF"/><g id="connection"><rect fill="#20A2DC" height="81.724" width="15.725" x="342.902" y="180.907"/><rect fill="#20A2DC" height="81.73" width="15.699" x="154.198" y="246.944"/><path d="M350.352,195.044c-18.399,0-33.399-14.975-33.399-33.399c0-18.413,15-33.387,33.399-33.387    c18.425,0,33.4,14.975,33.4,33.387C383.752,180.069,368.776,195.044,350.352,195.044z M350.352,143.97    c-9.75,0-17.675,7.925-17.675,17.675c0,9.75,7.925,17.687,17.675,17.687s17.675-7.938,17.675-17.687    C368.026,151.895,360.102,143.97,350.352,143.97z" fill="#20A2DC"/><g><path d="M230.472,256.006c0-3.212,0.601-6.262,1.7-9.1h-66.074v15.725h65.274     C230.797,260.506,230.472,258.294,230.472,256.006z" fill="#20A2DC"/><path d="M279.853,246.906c1.075,2.838,1.7,5.888,1.7,9.1c0,2.288-0.325,4.5-0.9,6.625h77.975v-15.725H279.853z" fill="#20A2DC"/></g><path d="M255.997,289.399c-18.4,0-33.375-14.975-33.375-33.393c0-18.413,14.975-33.4,33.375-33.4    c18.431,0,33.406,14.987,33.406,33.4C289.402,274.425,274.428,289.399,255.997,289.399z M255.997,238.319    c-9.75,0-17.675,7.938-17.675,17.688c0,9.75,7.925,17.668,17.675,17.668s17.707-7.919,17.707-17.668    C273.703,246.256,265.746,238.319,255.997,238.319z" fill="#20A2DC"/><path d="M161.648,383.748c-18.4,0-33.4-14.975-33.4-33.399s15-33.399,33.4-33.399    c18.424,0,33.399,14.975,33.399,33.399S180.072,383.748,161.648,383.748z M161.648,332.674c-9.75,0-17.675,7.925-17.675,17.675    s7.925,17.675,17.675,17.675c9.75,0,17.7-7.925,17.7-17.675S171.397,332.674,161.648,332.674z" fill="#20A2DC"/></g></g><g/><g/><g/><g/><g/><g/></svg>