<?xml version="1.0" ?><!DOCTYPE svg  PUBLIC '-//W3C//DTD SVG 1.1//EN'  'http://www.w3.org/Graphics/SVG/1.1/DTD/svg11.dtd'><svg enable-background="new 0 0 512 512" height="512px" id="Calque_1" version="1.1" viewBox="0 0 512 512" width="512px" xml:space="preserve" xmlns="http://www.w3.org/2000/svg" xmlns:xlink="http://www.w3.org/1999/xlink"><g><path d="M511.979,256.016C511.979,397.385,397.375,512,256,512C114.625,512,0.022,397.385,0.022,256.016   C0.022,114.641,114.625,0,256,0C397.375,0,511.979,114.641,511.979,256.016z" fill="#E1695C"/><g id="star"><polygon fill="#F9ED32" points="256.794,127.039 297.896,212.057 391.238,226.381 323.094,291.744 338.318,384.961     255.069,340.34 171.151,383.611 187.85,290.669 120.768,224.231 214.322,211.382   "/><polygon fill="#FBB040" points="256.794,127.039 255.769,255.653 214.322,211.382   "/><polygon fill="#FBB040" points="255.769,255.653 120.768,224.231 187.85,291.294   "/><polygon fill="#FBB040" points="255.769,255.653 171.151,383.611 255.069,340.34   "/><polygon fill="#FBB040" points="255.769,255.653 338.318,384.961 323.544,291.419   "/><polygon fill="#FBB040" points="255.769,255.653 391.238,226.381 297.597,211.557   "/></g></g><g/><g/><g/><g/><g/><g/></svg>