<?xml version="1.0" ?><!DOCTYPE svg  PUBLIC '-//W3C//DTD SVG 1.1//EN'  'http://www.w3.org/Graphics/SVG/1.1/DTD/svg11.dtd'><svg enable-background="new 0 0 512 512" height="512px" id="Calque_1" version="1.1" viewBox="0 0 512 512" width="512px" xml:space="preserve" xmlns="http://www.w3.org/2000/svg" xmlns:xlink="http://www.w3.org/1999/xlink"><g><path d="M512,256c0,141.386-114.624,255.997-255.991,255.997C114.611,511.997,0.006,397.386,0.006,256   S114.611,0.003,256.009,0.003C397.376,0.003,512,114.614,512,256z" fill="#EBEEEF"/><g id="arrow_3_"><path clip-rule="evenodd" d="M125.411,248.313c3.5-14.024,16-23.537,31.249-23.55    c17.325-0.025,34.65-0.037,51.975-0.037l60.468,0.3l-23.568-23.075c-0.575-0.575-1.175-1.113-1.775-1.613    c-0.375-0.387-0.725-0.762-1.075-1.137c-14.3-15.362-9.35-40.087,9.575-49.099c12.5-5.938,25.994-3.288,36.643,7.362    c32.15,32.112,64.25,64.262,96.374,96.398c0.675,0.663,1.25,1.4,2.274,2.563c-1.175,0.976-2.274,1.75-3.199,2.675    c-22.45,22.412-44.875,44.838-67.299,67.274c-9.875,9.875-19.65,19.862-29.676,29.575c-8.874,8.6-19.593,11.074-31.293,7.387    c-21.774-6.85-28.875-34.062-13.225-50.749c7.9-8.399,16.399-16.25,24.6-24.35c-0.125-0.338-0.25-0.675-0.375-1    c-1.175,0-2.325,0-3.475,0c-8.65,0-17.275,0-25.9,0c-27.2,0-54.424,0.1-81.649-0.038    C135.186,287.087,120.436,268.188,125.411,248.313z" fill="#44B39D" fill-rule="evenodd"/><path clip-rule="evenodd" d="M269.103,225.025l18.976,19.212    c0,0-42.019-17.25-71.818-19.475L269.103,225.025z" fill="#2C846D" fill-rule="evenodd" opacity="0.65"/></g></g><g/><g/><g/><g/><g/><g/></svg>