<?xml version="1.0" ?><!DOCTYPE svg  PUBLIC '-//W3C//DTD SVG 1.1//EN'  'http://www.w3.org/Graphics/SVG/1.1/DTD/svg11.dtd'><svg enable-background="new 0 0 512 512" height="512px" id="Calque_1" version="1.1" viewBox="0 0 512 512" width="512px" xml:space="preserve" xmlns="http://www.w3.org/2000/svg" xmlns:xlink="http://www.w3.org/1999/xlink"><g><path d="M512,256c0,141.375-114.6,256-256.006,256C114.619,512,0,397.375,0,256C0,114.612,114.619,0,255.994,0   C397.4,0,512,114.612,512,256z" fill="#35707F"/><g id="ai"><g><path d="M151.919,375.875c0,4.763,3.85,8.625,8.612,8.625H351.5c4.75,0,8.6-3.862,8.6-8.625v-187.55     l-60.85-60.838H160.531c-4.763,0-8.612,3.863-8.612,8.613V375.875z" fill="#F9A424"/><g><path d="M242.569,265.888l-2.9,10.438h-9.525l12.425-40.663h12.063l12.613,40.663h-9.9l-3.138-10.438H242.569z       M252.881,259.013l-2.538-8.625c-0.725-2.413-1.45-5.438-2.05-7.85h-0.125c-0.6,2.413-1.2,5.5-1.863,7.85l-2.413,8.625H252.881z      " fill="#FFFFFF"/><path d="M281.875,235.663v40.663h-9.225v-40.663H281.875z" fill="#FFFFFF"/></g></g><g><polygon fill="#B97429" opacity="0.65" points="360.1,188.325 356.875,185.1 301.425,185.188 360.1,244.4    "/><path d="M299.25,127.487v52.225c0,4.763,3.875,8.625,8.625,8.625H360.1v-0.012L299.25,127.487z" fill="#FED092"/></g></g></g><g/><g/><g/><g/><g/><g/></svg>