<?xml version="1.0" ?><!DOCTYPE svg  PUBLIC '-//W3C//DTD SVG 1.1//EN'  'http://www.w3.org/Graphics/SVG/1.1/DTD/svg11.dtd'><svg enable-background="new 0 0 512 512" height="512px" id="Calque_1" version="1.1" viewBox="0 0 512 512" width="512px" xml:space="preserve" xmlns="http://www.w3.org/2000/svg" xmlns:xlink="http://www.w3.org/1999/xlink"><g><circle cx="256.003" cy="256" fill="#EBEEEF" r="255.997"/><g id="vectors"><path d="M164.029,134.408v29.587h-29.6v-29.587H164.029 M174.329,124.12H124.13v50.187h50.199V124.12    L174.329,124.12z" fill="#20A2DC"/><rect fill="#20A2DC" height="20.6" width="163.373" x="174.329" y="139.558"/><path d="M377.576,134.408v29.587h-29.574v-29.587H377.576 M387.876,124.12h-50.174v50.187h50.174V124.12    L387.876,124.12z" fill="#20A2DC"/><rect fill="#20A2DC" height="163.392" width="20.574" x="351.877" y="174.307"/><path d="M377.576,347.999v29.6h-29.574v-29.6H377.576 M387.876,337.699h-50.174v50.174h50.174V337.699    L387.876,337.699z" fill="#20A2DC"/><g><rect fill="#20A2DC" height="163.392" width="20.6" x="139.579" y="174.307"/><rect fill="#20A2DC" height="20.575" width="163.373" x="174.329" y="351.849"/></g><path d="M164.004,347.999v29.6H134.43v-29.6H164.004 M174.329,337.699H124.13v50.174h50.199V337.699    L174.329,337.699z" fill="#20A2DC"/></g></g><g/><g/><g/><g/><g/><g/></svg>