<?xml version="1.0" ?><!DOCTYPE svg  PUBLIC '-//W3C//DTD SVG 1.1//EN'  'http://www.w3.org/Graphics/SVG/1.1/DTD/svg11.dtd'><svg enable-background="new 0 0 512 512" height="512px" id="Calque_1" version="1.1" viewBox="0 0 512 512" width="512px" xml:space="preserve" xmlns="http://www.w3.org/2000/svg" xmlns:xlink="http://www.w3.org/1999/xlink"><g><path d="M511.98,256.016C511.98,397.385,397.391,512,256.009,512C114.634,512,0.019,397.385,0.019,256.016   C0.019,114.641,114.634,0,256.009,0C397.391,0,511.98,114.641,511.98,256.016z" fill="#344E5D"/><g id="grid"><path d="M387.316,128.664c0-2.2-1.8-3.975-3.999-3.975H267.971c-2.2,0-4,1.775-4,3.975v115.353    c0,2.2,1.8,3.975,4,3.975h115.347c2.199,0,3.999-1.774,3.999-3.975V128.664z" fill="#D7DF23"/><path d="M387.316,267.978c0-2.2-1.8-3.987-3.999-3.987H267.971c-2.2,0-4,1.787-4,3.987v115.358    c0,2.2,1.8,3.975,4,3.975h115.347c2.199,0,3.999-1.774,3.999-3.975V267.978z" fill="#D7DF23"/><path d="M247.997,267.978c0-2.2-1.774-3.987-3.975-3.987H128.657c-2.199,0-3.975,1.787-3.975,3.987v115.358    c0,2.2,1.775,3.975,3.975,3.975h115.365c2.2,0,3.975-1.774,3.975-3.975V267.978z" fill="#D7DF23"/><path d="M247.997,128.664c0-2.2-1.774-3.975-3.975-3.975H128.657c-2.199,0-3.975,1.775-3.975,3.975v115.353    c0,2.2,1.775,3.975,3.975,3.975h115.365c2.2,0,3.975-1.774,3.975-3.975V128.664z" fill="#D7DF23"/></g></g><g/><g/><g/><g/><g/><g/></svg>