<?xml version="1.0" ?><!DOCTYPE svg  PUBLIC '-//W3C//DTD SVG 1.1//EN'  'http://www.w3.org/Graphics/SVG/1.1/DTD/svg11.dtd'><svg enable-background="new 0 0 512 512" height="512px" id="Calque_1" version="1.1" viewBox="0 0 512 512" width="512px" xml:space="preserve" xmlns="http://www.w3.org/2000/svg" xmlns:xlink="http://www.w3.org/1999/xlink"><g><path d="M512,256c0,141.388-114.612,256-256,256S0,397.388,0,256S114.612,0,256,0S512,114.612,512,256z" fill="#43B39C"/><g id="toilet_paper"><rect fill="#D1D3D4" height="147.206" width="194.475" x="129.337" y="180.044"/><path d="M230.038,204.981l-0.05-0.013c52.138-0.5,93.825-11.313,93.825-24.612    c0-13.613-43.662-24.663-97.519-24.663c-53.813,0-97.444,11.025-97.513,24.625h-0.006v24.663v126.094    c0,0,2.894,24.45,93.169,25.225h9.119c3.112-0.024,6.044-0.024,8.819,0h143.343V204.981H230.038z" fill="#F1F2F2"/><path d="M128.856,180.631c0,13.637,43.688,24.688,97.587,24.688    c53.906,0,97.606-11.05,97.606-24.688c0-13.613-43.7-24.675-97.606-24.675C172.544,155.956,128.856,167.019,128.856,180.631z" fill="#BCBEC0" opacity="0.38"/><path d="M187.431,180.356c0,5.438,17.406,9.825,38.863,9.825c21.462,0,38.856-4.387,38.856-9.825    c0-5.425-17.394-9.825-38.856-9.825C204.837,170.531,187.431,174.931,187.431,180.356z" fill="#A7A9AC"/><path d="M226.294,190.181c13.543,0,25.443-1.75,32.399-4.413    c-10.837-4.762-34.012-11.35-63.55,0.413C202.225,188.594,213.494,190.181,226.294,190.181z" fill="#BCBEC0" opacity="0.72"/><g><rect fill="#D1D3D4" height="4.487" width="3.15" x="224.819" y="204.981"/><path d="M227.969,342.325h-3.15v-9.476h3.15V342.325z M227.969,323.35h-3.15v-9.475h3.15V323.35z      M227.969,304.375h-3.15v-9.5h3.15V304.375z M227.969,285.4h-3.15v-9.5h3.15V285.4z M227.969,266.406h-3.15v-9.487h3.15V266.406z      M227.969,247.431h-3.15v-9.487h3.15V247.431z M227.969,228.456h-3.15v-9.5h3.15V228.456z" fill="#D1D3D4"/><rect fill="#D1D3D4" height="4.475" width="3.15" x="224.819" y="351.825"/></g></g></g><g/><g/><g/><g/><g/><g/></svg>