<?xml version="1.0" ?><!DOCTYPE svg  PUBLIC '-//W3C//DTD SVG 1.1//EN'  'http://www.w3.org/Graphics/SVG/1.1/DTD/svg11.dtd'><svg enable-background="new 0 0 512 512" height="512px" id="Calque_1" version="1.1" viewBox="0 0 512 512" width="512px" xml:space="preserve" xmlns="http://www.w3.org/2000/svg" xmlns:xlink="http://www.w3.org/1999/xlink"><g><path d="M512,256c0,141.386-114.599,255.997-255.991,255.997C114.623,511.997,0,397.386,0,256   S114.623,0.003,256.009,0.003C397.401,0.003,512,114.614,512,256z" fill="#EBEEEF"/><g id="quote_7_"><path d="M323.552,309.524c-11.475,27.225-31.999,49.225-31.999,49.225    c105.299-9.351,134.148-99.043,134.148-99.043h-0.101c2.825-8.2,4.4-16.987,4.4-26.137c0-44.287-36.05-80.324-80.349-80.324    c-44.3,0-80.324,36.037-80.324,80.324C269.328,268.731,292.027,298.649,323.552,309.524z" fill="#44B39D"/><path d="M323.477,309.475c2.775-6.775,10.65-28.15,10.351-49.219c0,0-11.899,25.919-32.649,37.294    C307.877,302.625,315.377,306.699,323.477,309.475z" fill="#2C846D" opacity="0.65"/><path d="M136.235,309.524c-11.475,27.225-31.999,49.225-31.999,49.225    c105.298-9.351,134.161-99.043,134.161-99.043h-0.1c2.825-8.2,4.388-16.987,4.388-26.137c0-44.287-36.037-80.324-80.337-80.324    c-44.299,0-80.336,36.037-80.336,80.324C82.011,268.731,104.724,298.649,136.235,309.524z" fill="#44B39D"/><path d="M136.186,309.475c2.75-6.775,10.625-28.15,10.337-49.219c0,0-11.913,25.919-32.662,37.294    C120.561,302.625,128.073,306.699,136.186,309.475z" fill="#2C846D" opacity="0.65"/></g></g><g/><g/><g/><g/><g/><g/></svg>