<?xml version="1.0" ?><!DOCTYPE svg  PUBLIC '-//W3C//DTD SVG 1.1//EN'  'http://www.w3.org/Graphics/SVG/1.1/DTD/svg11.dtd'><svg enable-background="new 0 0 512 512" height="512px" id="Calque_1" version="1.1" viewBox="0 0 512 512" width="512px" xml:space="preserve" xmlns="http://www.w3.org/2000/svg" xmlns:xlink="http://www.w3.org/1999/xlink"><g><path d="M512,256.003c0,141.369-114.612,255.994-256,255.994S0,397.372,0,256.003c0-141.388,114.612-256,256-256   S512,114.616,512,256.003z" fill="#344E5D"/><g id="ticket"><path d="M387.188,222.441v-27.025c0-3.825-3.1-6.925-6.9-6.925H131.712c-3.8,0-6.9,3.1-6.9,6.925v27.025    c18.45,0.1,33.4,15.075,33.4,33.575c0,18.481-14.95,33.457-33.4,33.557v27.025c0,3.824,3.1,6.924,6.9,6.924h248.575    c3.801,0,6.9-3.1,6.9-6.924v-27.025c-18.525,0-33.55-15.025-33.55-33.557C353.638,237.466,368.662,222.441,387.188,222.441z" fill="#2CA4D5"/><path d="M303.938,224.741c0.45,0,0.825,0.35,0.825,0.8v60.932c0,0.449-0.375,0.824-0.825,0.824H183.513    c-0.45,0-0.8-0.375-0.8-0.824v-60.932c0-0.45,0.35-0.8,0.8-0.8H303.938 M303.938,218.641H183.513c-3.8,0-6.9,3.1-6.9,6.9v60.932    c0,3.824,3.1,6.924,6.9,6.924h120.425c3.825,0,6.925-3.1,6.925-6.924v-60.932C310.862,221.741,307.763,218.641,303.938,218.641    L303.938,218.641z" fill="#43C6F4"/><g><rect fill="#1C75BC" height="9.15" width="6.125" x="329.987" y="188.491"/><path d="M336.112,297.697h-6.125v-16.676h6.125V297.697z M336.112,264.341h-6.125v-16.675h6.125V264.341z      M336.112,230.991h-6.125v-16.675h6.125V230.991z" fill="#1C75BC"/><rect fill="#1C75BC" height="9.149" width="6.125" x="329.987" y="314.372"/></g><g><path d="M217.663,268.416h-4.825v-18.15c-1.75,1.625-3.825,2.85-6.225,3.65v-4.375c1.275-0.4,2.625-1.2,4.1-2.35     c1.475-1.125,2.475-2.475,3.025-4h3.925V268.416z" fill="#FFFFFF"/><path d="M241.112,263.941v4.475h-16.875c0.175-1.7,0.725-3.301,1.65-4.801c0.9-1.524,2.725-3.524,5.425-6.024     c2.15-2.025,3.5-3.4,3.975-4.125c0.65-1,1-1.975,1-2.95c0-1.075-0.3-1.9-0.85-2.475c-0.6-0.575-1.4-0.875-2.4-0.875     s-1.825,0.325-2.4,0.925c-0.6,0.6-0.95,1.6-1.025,3l-4.8-0.475c0.275-2.65,1.175-4.55,2.675-5.7c1.525-1.15,3.4-1.725,5.65-1.725     c2.5,0,4.45,0.675,5.85,2c1.425,1.325,2.125,3,2.125,4.975c0,1.15-0.2,2.225-0.6,3.225c-0.4,1.025-1.05,2.1-1.925,3.225     c-0.6,0.75-1.625,1.826-3.15,3.201c-1.525,1.399-2.5,2.324-2.9,2.774c-0.4,0.476-0.725,0.925-0.975,1.351H241.112z" fill="#FFFFFF"/><path d="M244.388,248.116v-4.475h16.45v3.475c-1.351,1.35-2.726,3.275-4.15,5.775c-1.4,2.5-2.475,5.15-3.2,7.975     c-0.75,2.826-1.1,5.326-1.1,7.551h-4.65c0.1-3.475,0.8-7.025,2.175-10.625c1.35-3.625,3.15-6.85,5.425-9.675H244.388z" fill="#FFFFFF"/><path d="M263.963,261.966l4.8-0.5c0.149,1.075,0.55,1.925,1.225,2.575c0.675,0.625,1.45,0.949,2.325,0.949     c1,0,1.85-0.424,2.55-1.225c0.7-0.824,1.05-2.05,1.05-3.699c0-1.551-0.35-2.701-1.024-3.476c-0.7-0.775-1.601-1.15-2.7-1.15     c-1.4,0-2.625,0.6-3.725,1.825l-3.926-0.55l2.476-13.075h12.75v4.5h-9.101l-0.75,4.25c1.075-0.525,2.176-0.8,3.301-0.8     c2.125,0,3.949,0.775,5.425,2.35c1.475,1.55,2.225,3.549,2.225,6.049c0,2.051-0.6,3.9-1.8,5.525     c-1.625,2.225-3.9,3.332-6.8,3.332c-2.325,0-4.2-0.632-5.675-1.882C265.138,265.716,264.263,264.041,263.963,261.966z" fill="#FFFFFF"/></g></g></g><g/><g/><g/><g/><g/><g/></svg>