<?xml version="1.0" ?><!DOCTYPE svg  PUBLIC '-//W3C//DTD SVG 1.1//EN'  'http://www.w3.org/Graphics/SVG/1.1/DTD/svg11.dtd'><svg enable-background="new 0 0 512 512" height="512px" id="Calque_1" version="1.1" viewBox="0 0 512 512" width="512px" xml:space="preserve" xmlns="http://www.w3.org/2000/svg" xmlns:xlink="http://www.w3.org/1999/xlink"><g><path d="M512.006,256c0,141.387-114.611,256-256,256C114.619,512-0.006,397.387-0.006,256   c0-141.388,114.625-256,256.013-256C397.395,0,512.006,114.612,512.006,256z" fill="#A0D1DC"/><g id="hat"><path d="M343.719,282.706v-67.175H168.288v65.737c6.094,3.263,39.5,29.638,88.056,29.537    C281.869,310.769,311.582,296.331,343.719,282.706z" fill="#18262D"/><path d="M255.906,310.769c0.488,0,0.95,0.037,1.45,0.037c25.213-0.037,54.588-14.475,86.363-28.1    v-67.175h-87.813V310.769z" fill="#0F161A" opacity="0.65"/><path d="M168.288,232.256c14.081,10.925,74.456,51.987,175.431,43.525v-60.25H173.293    c-2.019,1.375-3.7,2.837-5.006,4.412V232.256z" fill="#0F161A" opacity="0.44"/><g><polygon fill="#2B4250" points="255.994,166.656 384.994,209.293 255.394,251.918 127.012,209.681    "/><polygon fill="#2B4250" points="255.994,166.757 384.994,209.393 255.394,252.018 127.012,209.781    "/><polygon fill="#2B4250" points="255.994,166.857 384.994,209.493 255.394,252.119 127.012,209.881    "/><polygon fill="#2B4250" points="255.994,166.958 384.994,209.593 255.394,252.219 127.012,209.982    "/><polygon fill="#2B4250" points="255.994,167.058 384.994,209.694 255.394,252.319 127.012,210.083    "/><polygon fill="#2B4250" points="255.994,167.158 384.994,209.794 255.394,252.42 127.012,210.183    "/><polygon fill="#2B4250" points="255.994,167.258 384.994,209.894 255.394,252.521 127.012,210.283    "/><polygon fill="#2B4250" points="255.994,167.359 384.994,209.994 255.394,252.621 127.012,210.383    "/><polygon fill="#2B4250" points="255.994,167.459 384.994,210.095 255.394,252.721 127.012,210.483    "/><polygon fill="#2B4250" points="255.994,167.56 384.994,210.194 255.394,252.821 127.013,210.584    "/><polygon fill="#2B4250" points="255.994,167.66 384.994,210.295 255.394,252.922 127.012,210.685    "/><polygon fill="#2B4250" points="255.994,167.761 384.994,210.396 255.395,253.022 127.012,210.785    "/><polygon fill="#2B4250" points="255.993,167.86 384.994,210.496 255.394,253.123 127.012,210.885    "/><polygon fill="#2B4250" points="255.994,167.961 384.994,210.596 255.394,253.223 127.012,210.986    "/><polygon fill="#2B4250" points="255.994,168.062 384.994,210.696 255.394,253.324 127.012,211.086    "/><polygon fill="#2B4250" points="255.994,168.162 384.994,210.796 255.394,253.424 127.012,211.187    "/><polygon fill="#2B4250" points="255.994,168.262 384.994,210.896 255.395,253.524 127.012,211.287    "/><polygon fill="#2B4250" points="255.994,168.363 384.994,210.996 255.394,253.625 127.012,211.388    "/><polygon fill="#2B4250" points="255.994,168.463 384.994,211.096 255.394,253.725 127.012,211.488    "/><polygon fill="#2B4250" points="255.993,168.563 384.994,211.197 255.394,253.825 127.013,211.588    "/><polygon fill="#2B4250" points="255.994,168.664 384.994,211.297 255.394,253.926 127.012,211.688    "/><polygon fill="#2B4250" points="255.994,168.764 384.994,211.397 255.395,254.026 127.012,211.789    "/><polygon fill="#2B4250" points="255.994,168.865 384.994,211.497 255.394,254.127 127.013,211.889    "/><polygon fill="#2B4250" points="255.993,168.965 384.994,211.598 255.394,254.227 127.012,211.989    "/><polygon fill="#2B4250" points="255.994,169.065 384.994,211.697 255.394,254.327 127.012,212.09    "/><polygon fill="#2B4250" points="255.994,169.166 384.994,211.798 255.394,254.428 127.012,212.19    "/><polygon fill="#2B4250" points="255.993,169.266 384.994,211.898 255.395,254.528 127.012,212.291    "/><polygon fill="#2B4250" points="255.994,169.366 384.994,211.998 255.394,254.628 127.013,212.392    "/><polygon fill="#2B4250" points="255.994,169.467 384.994,212.099 255.394,254.729 127.012,212.492    "/><polygon fill="#2B4250" points="255.994,169.567 384.994,212.199 255.394,254.83 127.012,212.592    "/><polygon fill="#2B4250" points="255.994,169.668 384.994,212.299 255.394,254.93 127.012,212.692    "/><polygon fill="#2B4250" points="255.994,169.768 384.994,212.399 255.395,255.03 127.012,212.793    "/><polygon fill="#2B4250" points="255.994,169.868 384.994,212.499 255.394,255.131 127.012,212.894    "/><polygon fill="#2B4250" points="255.994,169.969 384.994,212.6 255.394,255.231 127.012,212.993    "/><polygon fill="#2B4250" points="255.994,170.069 384.994,212.699 255.395,255.331 127.012,213.094    "/><polygon fill="#2B4250" points="255.994,170.17 384.994,212.8 255.394,255.432 127.012,213.194    "/><polygon fill="#2B4250" points="255.994,170.27 384.994,212.9 255.394,255.532 127.012,213.294    "/><polygon fill="#2B4250" points="255.994,170.37 384.994,213 255.394,255.633 127.012,213.395    "/><polygon fill="#2B4250" points="255.994,170.471 384.994,213.101 255.394,255.732 127.013,213.496    "/><polygon fill="#2B4250" points="255.993,170.571 384.994,213.2 255.395,255.833 127.012,213.596    "/><polygon fill="#2B4250" points="255.994,170.671 384.994,213.301 255.394,255.934 127.012,213.696    "/><polygon fill="#2B4250" points="255.994,170.771 384.994,213.401 255.394,256.034 127.012,213.797    "/><polygon fill="#2B4250" points="255.993,170.872 384.994,213.501 255.394,256.134 127.012,213.897    "/><polygon fill="#2B4250" points="255.994,170.973 384.994,213.602 255.394,256.235 127.013,213.997    "/><polygon fill="#2B4250" points="255.994,171.073 384.994,213.702 255.395,256.335 127.012,214.098    "/><polygon fill="#2B4250" points="255.994,171.173 384.994,213.802 255.394,256.436 127.012,214.198    "/><polygon fill="#2B4250" points="255.993,171.273 384.994,213.902 255.394,256.536 127.013,214.299    "/><polygon fill="#2B4250" points="255.994,171.374 384.994,214.002 255.394,256.636 127.012,214.399    "/><polygon fill="#2B4250" points="255.994,171.474 384.994,214.103 255.394,256.737 127.012,214.499    "/><polygon fill="#2B4250" points="255.994,171.575 384.994,214.203 255.395,256.837 127.012,214.6    "/><polygon fill="#2B4250" points="255.994,171.675 384.994,214.303 255.394,256.938 127.012,214.7    "/><polygon fill="#2B4250" points="255.994,171.775 384.994,214.403 255.394,257.038 127.013,214.801    "/><polygon fill="#2B4250" points="255.994,171.875 384.994,214.503 255.394,257.139 127.012,214.901    "/><polygon fill="#2B4250" points="255.993,171.976 384.994,214.603 255.394,257.238 127.012,215.001    "/><polygon fill="#2B4250" points="255.994,172.076 384.994,214.703 255.395,257.339 127.012,215.102    "/><polygon fill="#2B4250" points="255.994,172.177 384.994,214.804 255.394,257.439 127.012,215.202    "/><polygon fill="#2B4250" points="255.994,172.277 384.994,214.904 255.394,257.54 127.013,215.303    "/><polygon fill="#2B4250" points="255.994,172.378 384.994,215.004 255.394,257.641 127.012,215.403    "/><polygon fill="#2B4250" points="255.994,172.478 384.994,215.104 255.394,257.741 127.012,215.503    "/><polygon fill="#2B4250" points="255.994,172.579 384.994,215.205 255.394,257.841 127.012,215.604    "/><polygon fill="#2B4250" points="255.994,172.679 384.994,215.305 255.394,257.941 127.012,215.704    "/><polygon fill="#2B4250" points="255.994,172.779 384.994,215.405 255.394,258.042 127.012,215.804    "/><polygon fill="#2B4250" points="255.994,172.879 384.994,215.505 255.394,258.143 127.012,215.905    "/><polygon fill="#2B4250" points="255.994,172.98 384.994,215.605 255.394,258.242 127.012,216.005    "/><polygon fill="#2B4250" points="255.994,173.08 384.994,215.706 255.394,258.343 127.012,216.105    "/><polygon fill="#2B4250" points="255.994,173.181 384.994,215.806 255.394,258.443 127.012,216.206    "/></g><polygon fill="#80929B" opacity="0.44" points="255.968,173.181 127.012,209.681 127.012,216.206 255.394,258.443     255.968,258.256   "/><polygon fill="#3C5767" points="255.994,166.656 384.994,209.293 255.394,251.918 127.012,209.681   "/><polygon fill="#18262D" opacity="0.38" points="257.193,204.531 378.443,211.73 378.307,217.98 317.344,238.344 315.707,231.293       "/><path d="M244.969,208.006c0,3.138,5.112,5.688,11.4,5.688c6.299,0,11.413-2.55,11.413-5.688    c0-3.15-5.113-5.713-11.413-5.713C250.081,202.293,244.969,204.855,244.969,208.006z" fill="#18262D" opacity="0.65"/><path d="M249.444,207.894c0-2.663,3.7-4.888,8.65-5.513c-0.563-0.037-1.125-0.088-1.725-0.088    c-6.288,0-11.4,2.563-11.4,5.713c0,3.138,5.112,5.688,11.4,5.688c0.963,0,1.887-0.063,2.776-0.175    C253.668,213.094,249.444,210.756,249.444,207.894z" fill="#18262D" opacity="0.72"/><path d="M316.043,318.456L316.043,318.456c-1.799,0-3.25-1.476-3.25-3.263l0.201-82.287l-56.776-22    c-1.675-0.65-2.512-2.538-1.862-4.213c0.663-1.688,2.538-2.513,4.212-1.862l58.875,22.813c1.25,0.487,2.076,1.688,2.076,3.037    l-0.201,84.525C319.307,316.993,317.844,318.456,316.043,318.456z" fill="#F0C946"/><path d="M305.531,318.48c0,5.551,4.488,10.038,10.037,10.038c5.551,0,10.051-4.487,10.051-10.038    c0-5.563-4.5-10.05-10.051-10.05C310.02,308.431,305.531,312.918,305.531,318.48z" fill="#F0C946"/><polygon fill="#F0C946" points="307.969,345.344 323.182,345.344 318.619,325.806 312.531,325.806   "/></g></g><g/><g/><g/><g/><g/><g/></svg>