<?xml version="1.0" ?><!DOCTYPE svg  PUBLIC '-//W3C//DTD SVG 1.1//EN'  'http://www.w3.org/Graphics/SVG/1.1/DTD/svg11.dtd'><svg enable-background="new 0 0 512 512" height="512px" id="Calque_1" version="1.1" viewBox="0 0 512 512" width="512px" xml:space="preserve" xmlns="http://www.w3.org/2000/svg" xmlns:xlink="http://www.w3.org/1999/xlink"><g><path d="M512,256c0,141.386-114.624,255.997-255.991,255.997C114.611,511.997,0.012,397.386,0.012,256   S114.611,0.003,256.009,0.003C397.376,0.003,512,114.614,512,256z" fill="#D6D9B8"/><g id="book"><path d="M382.676,353.812c0,16.912-13.699,30.612-30.6,30.612H159.936c-16.913,0-30.612-13.7-30.612-30.612    V171.839c0-16.9,13.7-30.612,30.612-30.612h192.141c16.9,0,30.6,13.712,30.6,30.612V353.812z" fill="#BE4230"/><path d="M354.552,192.251c-0.675-16.313-14.075-29.325-30.55-29.325H162.311v29.325H354.552z" fill="#FFFFFF"/><rect fill="#AA372B" height="192.173" width="31.887" x="176.085" y="192.251"/><path d="M345.327,192.288H183.635v192.136h161.692c16.925,0,30.624-13.7,30.624-30.612V222.9    C375.951,206,362.252,192.288,345.327,192.288z" fill="#F15E4A"/><g><rect fill="#E6E7E8" height="2.55" width="152.216" x="174.385" y="171.414"/><rect fill="#E6E7E8" height="2.538" width="152.216" x="174.385" y="176.526"/><rect fill="#E6E7E8" height="2.55" width="152.216" x="174.385" y="181.626"/></g><rect fill="#AA372B" height="33.162" opacity="0.3" width="98.63" x="230.472" y="351.262"/><rect fill="#AA372B" height="15.3" opacity="0.3" width="98.617" x="230.484" y="249.163"/><polygon fill="#58595B" opacity="0.2" points="301.978,192.238 272.928,163.188 257.146,178.976 270.428,192.238   "/><polygon fill="#E7CE3C" points="257.135,179.014 288.603,179.014 288.603,127.577 272.453,140.339 257.135,127.577   "/></g></g><g/><g/><g/><g/><g/><g/></svg>