<?xml version="1.0" ?><!DOCTYPE svg  PUBLIC '-//W3C//DTD SVG 1.1//EN'  'http://www.w3.org/Graphics/SVG/1.1/DTD/svg11.dtd'><svg enable-background="new 0 0 512 512" height="512px" id="Calque_1" version="1.1" viewBox="0 0 512 512" width="512px" xml:space="preserve" xmlns="http://www.w3.org/2000/svg" xmlns:xlink="http://www.w3.org/1999/xlink"><g><path d="M512,256c0,141.386-114.599,255.997-256.003,255.997C114.623,511.997,0,397.386,0,256   S114.623,0.003,255.997,0.003C397.401,0.003,512,114.614,512,256z" fill="#D6D9B8"/><g id="flag_1_"><rect fill="#80929B" height="239.21" width="8.875" x="198.422" y="126.289"/><rect fill="#A8BEC6" height="14.324" width="23.3" x="191.223" y="365.499"/><rect fill="#5C717C" height="13.75" width="44.649" x="180.548" y="371.961"/><polygon fill="#4EC5EE" points="298.002,247.188 331.477,222.9 294.702,225.525   "/><polygon fill="#2B3990" opacity="0.17" points="296.053,234.325 297.978,247.05 298.353,246.913 301.652,244.525 313.303,224.2     297.103,225.351   "/><polygon fill="#1C75BC" points="307.127,198.613 298.002,247.188 252.697,222.25   "/><polygon fill="#2B3990" opacity="0.27" points="262.847,227.825 303.577,217.45 307.127,198.613 255.422,221.063 258.646,225.525       "/><polygon fill="#27AAE1" points="207.422,141.052 307.127,198.613 207.422,256.175   "/></g></g><g/><g/><g/><g/><g/><g/></svg>