<?xml version="1.0" ?><!DOCTYPE svg  PUBLIC '-//W3C//DTD SVG 1.1//EN'  'http://www.w3.org/Graphics/SVG/1.1/DTD/svg11.dtd'><svg enable-background="new 0 0 512 512" height="512px" id="Calque_1" version="1.1" viewBox="0 0 512 512" width="512px" xml:space="preserve" xmlns="http://www.w3.org/2000/svg" xmlns:xlink="http://www.w3.org/1999/xlink"><g><path d="M512,256.003c0,141.367-114.599,255.991-255.991,255.991C114.623,511.994,0,397.37,0,256.003   C0,114.617,114.623,0.006,256.009,0.006C397.401,0.006,512,114.617,512,256.003z" fill="#35707F"/><g id="fenec"><rect fill="#D68928" height="10.625" width="259.716" x="126.136" y="207.054"/><rect fill="#D68928" height="10.65" width="259.716" x="126.136" y="309.496"/><rect fill="#996026" height="10.625" opacity="0.44" width="16.075" x="308.252" y="207.054"/><rect fill="#996026" height="10.625" opacity="0.44" width="16.074" x="218.585" y="207.054"/><rect fill="#996026" height="10.625" opacity="0.44" width="16.075" x="128.886" y="207.054"/><rect fill="#996026" height="10.65" opacity="0.44" width="16.075" x="308.252" y="309.496"/><rect fill="#996026" height="10.65" opacity="0.44" width="16.074" x="218.585" y="309.496"/><rect fill="#996026" height="10.65" opacity="0.44" width="16.075" x="128.886" y="309.496"/><g><g><polygon fill="#FCB556" points="324.377,347.821 355.302,347.821 355.302,177.154 339.502,164.154 324.377,177.154     "/><polygon fill="#FCB556" points="234.734,347.821 265.684,347.821 265.684,177.154 249.859,164.154 234.734,177.154     "/><polygon fill="#FCB556" points="145.11,347.821 176.035,347.821 176.035,177.154 160.235,164.154 145.11,177.154     "/></g><g><polygon fill="#FCB556" points="324.477,347.821 355.402,347.821 355.402,177.154 339.602,164.154 324.477,177.154     "/><polygon fill="#FCB556" points="234.834,347.821 265.783,347.821 265.783,177.154 249.959,164.154 234.834,177.154     "/><polygon fill="#FCB556" points="145.21,347.821 176.135,347.821 176.135,177.154 160.335,164.154 145.21,177.154     "/></g><g><polygon fill="#FCB556" points="324.577,347.821 355.503,347.821 355.503,177.154 339.702,164.154 324.577,177.154     "/><polygon fill="#FCB556" points="234.935,347.821 265.884,347.821 265.884,177.154 250.06,164.154 234.935,177.154     "/><polygon fill="#FCB556" points="145.311,347.821 176.236,347.821 176.236,177.154 160.436,164.154 145.311,177.154     "/></g><g><polygon fill="#FCB556" points="324.678,347.821 355.604,347.821 355.604,177.154 339.802,164.154 324.678,177.154     "/><polygon fill="#FCB556" points="235.036,347.821 265.983,347.821 265.983,177.154 250.161,164.154 235.036,177.154     "/><polygon fill="#FCB556" points="145.411,347.821 176.337,347.821 176.337,177.154 160.535,164.154 145.411,177.154     "/></g><g><polygon fill="#FCB556" points="324.777,347.821 355.703,347.821 355.703,177.154 339.901,164.154 324.777,177.154     "/><polygon fill="#FCB556" points="235.136,347.821 266.083,347.821 266.083,177.154 250.261,164.154 235.136,177.154     "/><polygon fill="#FCB556" points="145.51,347.821 176.437,347.821 176.437,177.154 160.635,164.154 145.51,177.154     "/></g><g><polygon fill="#FCB556" points="324.877,347.821 355.805,347.821 355.805,177.154 340.002,164.154 324.877,177.154     "/><polygon fill="#FCB556" points="235.236,347.821 266.184,347.821 266.184,177.154 250.362,164.154 235.236,177.154     "/><polygon fill="#FCB556" points="145.61,347.821 176.538,347.821 176.538,177.154 160.735,164.154 145.61,177.154     "/></g><g><polygon fill="#FCB556" points="324.977,347.821 355.904,347.821 355.904,177.154 340.103,164.155 324.977,177.154     "/><polygon fill="#FCB556" points="235.337,347.821 266.283,347.821 266.283,177.154 250.462,164.155 235.337,177.154     "/><polygon fill="#FCB556" points="145.71,347.821 176.638,347.821 176.638,177.154 160.835,164.155 145.71,177.154     "/></g><g><polygon fill="#FCB556" points="325.077,347.821 356.005,347.821 356.005,177.154 340.202,164.154 325.077,177.154     "/><polygon fill="#FCB556" points="235.437,347.821 266.383,347.821 266.383,177.154 250.563,164.154 235.437,177.154     "/><polygon fill="#FCB556" points="145.81,347.821 176.738,347.821 176.738,177.154 160.936,164.154 145.81,177.154     "/></g><g><polygon fill="#FCB556" points="325.177,347.821 356.105,347.821 356.105,177.154 340.303,164.154 325.177,177.154     "/><polygon fill="#FCB556" points="235.538,347.821 266.482,347.821 266.482,177.154 250.663,164.154 235.538,177.154     "/><polygon fill="#FCB556" points="145.91,347.821 176.839,347.821 176.839,177.154 161.035,164.154 145.91,177.154     "/></g><g><polygon fill="#FCB556" points="325.276,347.821 356.205,347.821 356.205,177.154 340.401,164.154 325.276,177.154     "/><polygon fill="#FCB556" points="235.638,347.821 266.582,347.821 266.582,177.154 250.763,164.154 235.638,177.154     "/><polygon fill="#FCB556" points="146.01,347.821 176.938,347.821 176.938,177.154 161.135,164.154 146.01,177.154     "/></g><g><polygon fill="#FCB557" points="325.377,347.821 356.306,347.821 356.306,177.154 340.502,164.154 325.377,177.154     "/><polygon fill="#FCB557" points="235.738,347.821 266.683,347.821 266.683,177.154 250.863,164.154 235.738,177.154     "/><polygon fill="#FCB557" points="146.11,347.821 177.039,347.821 177.039,177.154 161.235,164.154 146.11,177.154     "/></g><g><polygon fill="#FCB557" points="325.477,347.821 356.406,347.821 356.406,177.154 340.602,164.154 325.477,177.154     "/><polygon fill="#FCB557" points="235.839,347.821 266.782,347.821 266.782,177.154 250.964,164.154 235.839,177.154     "/><polygon fill="#FCB557" points="146.21,347.821 177.14,347.821 177.14,177.154 161.335,164.154 146.21,177.154     "/></g><g><polygon fill="#FCB557" points="325.577,347.821 356.507,347.821 356.507,177.154 340.702,164.154 325.577,177.154     "/><polygon fill="#FCB557" points="235.94,347.821 266.883,347.821 266.883,177.154 251.065,164.154 235.94,177.154     "/><polygon fill="#FCB557" points="146.31,347.821 177.241,347.821 177.241,177.154 161.436,164.154 146.31,177.154     "/></g><g><polygon fill="#FCB557" points="325.678,347.821 356.607,347.821 356.607,177.154 340.803,164.154 325.678,177.154     "/><polygon fill="#FCB557" points="236.041,347.821 266.982,347.821 266.982,177.154 251.165,164.154 236.041,177.154     "/><polygon fill="#FCB557" points="146.41,347.821 177.341,347.821 177.341,177.154 161.535,164.154 146.41,177.154     "/></g><g><polygon fill="#FCB557" points="325.776,347.821 356.708,347.821 356.708,177.154 340.902,164.154 325.776,177.154     "/><polygon fill="#FCB557" points="236.141,347.821 267.082,347.821 267.082,177.154 251.265,164.154 236.141,177.154     "/><polygon fill="#FCB557" points="146.51,347.821 177.441,347.821 177.441,177.154 161.635,164.154 146.51,177.154     "/></g><g><polygon fill="#FCB557" points="325.877,347.821 356.809,347.821 356.809,177.154 341.002,164.154 325.877,177.154     "/><polygon fill="#FCB557" points="236.241,347.821 267.182,347.821 267.182,177.154 251.366,164.154 236.241,177.154     "/><polygon fill="#FCB557" points="146.61,347.821 177.542,347.821 177.542,177.154 161.735,164.154 146.61,177.154     "/></g><g><polygon fill="#FCB557" points="325.977,347.821 356.908,347.821 356.908,177.154 341.102,164.154 325.977,177.154     "/><polygon fill="#FCB557" points="236.341,347.821 267.281,347.821 267.281,177.154 251.466,164.154 236.341,177.154     "/><polygon fill="#FCB557" points="146.71,347.821 177.642,347.821 177.642,177.154 161.835,164.154 146.71,177.154     "/></g><g><polygon fill="#FCB557" points="326.077,347.821 357.01,347.821 357.01,177.154 341.202,164.154 326.077,177.154     "/><polygon fill="#FCB557" points="236.442,347.821 267.382,347.821 267.382,177.154 251.566,164.154 236.442,177.154     "/><polygon fill="#FCB557" points="146.811,347.821 177.742,347.821 177.742,177.154 161.936,164.154 146.811,177.154     "/></g><g><polygon fill="#FCB557" points="326.177,347.821 357.11,347.821 357.11,177.154 341.303,164.155 326.177,177.154     "/><polygon fill="#FCB557" points="236.542,347.821 267.482,347.821 267.482,177.154 251.667,164.155 236.542,177.154     "/><polygon fill="#FCB557" points="146.911,347.821 177.843,347.821 177.843,177.154 162.035,164.155 146.911,177.154     "/></g><g><polygon fill="#FCB557" points="326.277,347.821 357.21,347.821 357.21,177.154 341.402,164.154 326.277,177.154     "/><polygon fill="#FCB557" points="236.643,347.821 267.582,347.821 267.582,177.154 251.768,164.154 236.643,177.154     "/><polygon fill="#FCB557" points="147.01,347.821 177.943,347.821 177.943,177.154 162.135,164.154 147.01,177.154     "/></g><g><polygon fill="#FCB557" points="326.377,347.82 357.311,347.82 357.311,177.154 341.502,164.154 326.377,177.154     "/><polygon fill="#FCB557" points="236.743,347.82 267.682,347.82 267.682,177.154 251.868,164.154 236.743,177.154     "/><polygon fill="#FCB557" points="147.11,347.82 178.044,347.82 178.044,177.154 162.235,164.154 147.11,177.154     "/></g><g><polygon fill="#FCB557" points="326.477,347.821 357.41,347.821 357.41,177.154 341.602,164.154 326.477,177.154     "/><polygon fill="#FCB557" points="236.843,347.821 267.781,347.821 267.781,177.154 251.968,164.154 236.843,177.154     "/><polygon fill="#FCB557" points="147.21,347.821 178.145,347.821 178.145,177.154 162.335,164.154 147.21,177.154     "/></g><g><polygon fill="#FCB557" points="326.577,347.821 357.512,347.821 357.512,177.154 341.702,164.154 326.577,177.154     "/><polygon fill="#FCB557" points="236.944,347.821 267.881,347.821 267.881,177.154 252.069,164.154 236.944,177.154     "/><polygon fill="#FCB557" points="147.311,347.821 178.245,347.821 178.245,177.154 162.436,164.154 147.311,177.154     "/></g><g><polygon fill="#FCB557" points="326.677,347.821 357.611,347.821 357.611,177.154 341.802,164.154 326.677,177.154     "/><polygon fill="#FCB557" points="237.044,347.821 267.981,347.821 267.981,177.154 252.169,164.154 237.044,177.154     "/><polygon fill="#FCB557" points="147.41,347.821 178.345,347.821 178.345,177.154 162.535,164.154 147.41,177.154     "/></g><g><polygon fill="#FCB657" points="326.776,347.821 357.712,347.821 357.712,177.154 341.902,164.154 326.776,177.154     "/><polygon fill="#FCB657" points="237.145,347.821 268.081,347.821 268.081,177.154 252.27,164.154 237.145,177.154     "/><polygon fill="#FCB657" points="147.51,347.821 178.445,347.821 178.445,177.154 162.635,164.154 147.51,177.154     "/></g><g><polygon fill="#FCB657" points="326.877,347.821 357.813,347.821 357.813,177.154 342.002,164.154 326.877,177.154     "/><polygon fill="#FCB657" points="237.245,347.821 268.181,347.821 268.181,177.154 252.37,164.154 237.245,177.154     "/><polygon fill="#FCB657" points="147.61,347.821 178.546,347.821 178.546,177.154 162.735,164.154 147.61,177.154     "/></g><g><polygon fill="#FCB657" points="326.977,347.822 357.913,347.822 357.913,177.154 342.102,164.154 326.977,177.154     "/><polygon fill="#FCB657" points="237.346,347.822 268.281,347.822 268.281,177.154 252.471,164.154 237.346,177.154     "/><polygon fill="#FCB657" points="147.711,347.822 178.646,347.822 178.646,177.154 162.836,164.154 147.711,177.154     "/></g><g><polygon fill="#FCB657" points="327.077,347.821 358.014,347.821 358.014,177.154 342.201,164.154 327.077,177.154     "/><polygon fill="#FCB657" points="237.446,347.821 268.381,347.821 268.381,177.154 252.571,164.154 237.446,177.154     "/><polygon fill="#FCB657" points="147.81,347.821 178.747,347.821 178.747,177.154 162.936,164.154 147.81,177.154     "/></g><g><polygon fill="#FCB657" points="327.177,347.821 358.113,347.821 358.113,177.154 342.302,164.154 327.177,177.154     "/><polygon fill="#FCB657" points="237.546,347.821 268.48,347.821 268.48,177.154 252.671,164.154 237.546,177.154     "/><polygon fill="#FCB657" points="147.91,347.821 178.847,347.821 178.847,177.154 163.035,164.154 147.91,177.154     "/></g><g><polygon fill="#FCB657" points="327.277,347.821 358.215,347.821 358.215,177.154 342.402,164.154 327.277,177.154     "/><polygon fill="#FCB657" points="237.647,347.821 268.58,347.821 268.58,177.154 252.771,164.154 237.647,177.154     "/><polygon fill="#FCB657" points="148.01,347.821 178.948,347.821 178.948,177.154 163.135,164.154 148.01,177.154     "/></g><g><polygon fill="#FCB657" points="327.377,347.821 358.314,347.821 358.314,177.154 342.502,164.154 327.377,177.154     "/><polygon fill="#FCB657" points="237.747,347.821 268.681,347.821 268.681,177.154 252.872,164.154 237.747,177.154     "/><polygon fill="#FCB657" points="148.11,347.821 179.048,347.821 179.048,177.154 163.235,164.154 148.11,177.154     "/></g><g><polygon fill="#FCB657" points="327.477,347.821 358.416,347.821 358.416,177.154 342.602,164.154 327.477,177.154     "/><polygon fill="#FCB657" points="237.848,347.821 268.78,347.821 268.78,177.154 252.973,164.154 237.848,177.154     "/><polygon fill="#FCB657" points="148.21,347.821 179.149,347.821 179.149,177.154 163.335,164.154 148.21,177.154     "/></g><g><polygon fill="#FCB657" points="327.577,347.821 358.516,347.821 358.516,177.154 342.702,164.154 327.577,177.154     "/><polygon fill="#FCB657" points="237.948,347.821 268.881,347.821 268.881,177.154 253.073,164.154 237.948,177.154     "/><polygon fill="#FCB657" points="148.311,347.821 179.249,347.821 179.249,177.154 163.436,164.154 148.311,177.154     "/></g><g><polygon fill="#FCB657" points="327.677,347.821 358.616,347.821 358.616,177.154 342.802,164.154 327.677,177.154     "/><polygon fill="#FCB657" points="238.049,347.821 268.98,347.821 268.98,177.154 253.174,164.154 238.049,177.154     "/><polygon fill="#FCB657" points="148.41,347.821 179.35,347.821 179.35,177.154 163.535,164.154 148.41,177.154     "/></g><g><polygon fill="#FCB657" points="327.777,347.821 358.717,347.821 358.717,177.154 342.902,164.154 327.777,177.154     "/><polygon fill="#FCB657" points="238.149,347.821 269.08,347.821 269.08,177.154 253.273,164.154 238.149,177.154     "/><polygon fill="#FCB657" points="148.511,347.821 179.45,347.821 179.45,177.154 163.635,164.154 148.511,177.154     "/></g><g><polygon fill="#FCB657" points="327.877,347.821 358.817,347.821 358.817,177.154 343.002,164.154 327.877,177.154     "/><polygon fill="#FCB657" points="238.25,347.821 269.18,347.821 269.18,177.154 253.375,164.154 238.25,177.154     "/><polygon fill="#FCB657" points="148.61,347.821 179.551,347.821 179.551,177.154 163.735,164.154 148.61,177.154     "/></g><g><polygon fill="#FCB657" points="327.977,347.821 358.917,347.821 358.917,177.154 343.102,164.154 327.977,177.154     "/><polygon fill="#FCB657" points="238.35,347.821 269.279,347.821 269.279,177.154 253.475,164.154 238.35,177.154     "/><polygon fill="#FCB657" points="148.71,347.821 179.65,347.821 179.65,177.154 163.835,164.154 148.71,177.154     "/></g><g><polygon fill="#FCB657" points="328.076,347.821 359.018,347.821 359.018,177.154 343.202,164.154 328.076,177.154     "/><polygon fill="#FCB657" points="238.45,347.821 269.38,347.821 269.38,177.154 253.575,164.154 238.45,177.154     "/><polygon fill="#FCB657" points="148.81,347.821 179.751,347.821 179.751,177.154 163.936,164.154 148.81,177.154     "/></g><g><polygon fill="#FCB657" points="328.177,347.821 359.118,347.821 359.118,177.154 343.302,164.154 328.177,177.154     "/><polygon fill="#FCB657" points="238.551,347.821 269.479,347.821 269.479,177.154 253.675,164.154 238.551,177.154     "/><polygon fill="#FCB657" points="148.91,347.821 179.852,347.821 179.852,177.154 164.035,164.154 148.91,177.154     "/></g><g><polygon fill="#FCB657" points="328.277,347.821 359.219,347.821 359.219,177.154 343.402,164.154 328.277,177.154     "/><polygon fill="#FCB657" points="238.651,347.821 269.58,347.821 269.58,177.154 253.776,164.154 238.651,177.154     "/><polygon fill="#FCB657" points="149.01,347.821 179.952,347.821 179.952,177.154 164.135,164.154 149.01,177.154     "/></g><g><polygon fill="#FCB657" points="328.377,347.821 359.318,347.821 359.318,177.154 343.502,164.154 328.377,177.154     "/><polygon fill="#FCB657" points="238.752,347.821 269.68,347.821 269.68,177.154 253.876,164.154 238.752,177.154     "/><polygon fill="#FCB657" points="149.11,347.821 180.053,347.821 180.053,177.154 164.235,164.154 149.11,177.154     "/></g><g><polygon fill="#FCB657" points="328.477,347.821 359.42,347.821 359.42,177.154 343.602,164.154 328.477,177.154     "/><polygon fill="#FCB657" points="238.853,347.821 269.779,347.821 269.779,177.154 253.977,164.154 238.853,177.154     "/><polygon fill="#FCB657" points="149.21,347.821 180.153,347.821 180.153,177.154 164.335,164.154 149.21,177.154     "/></g><g><polygon fill="#FCB657" points="328.577,347.821 359.52,347.821 359.52,177.154 343.702,164.154 328.577,177.154     "/><polygon fill="#FCB657" points="238.952,347.821 269.879,347.821 269.879,177.154 254.077,164.154 238.952,177.154     "/><polygon fill="#FCB657" points="149.311,347.821 180.253,347.821 180.253,177.154 164.436,164.154 149.311,177.154     "/></g><g><polygon fill="#FCB657" points="328.677,347.821 359.621,347.821 359.621,177.154 343.802,164.154 328.677,177.154     "/><polygon fill="#FCB657" points="239.053,347.821 269.979,347.821 269.979,177.154 254.178,164.154 239.053,177.154     "/><polygon fill="#FCB657" points="149.41,347.821 180.354,347.821 180.354,177.154 164.535,164.154 149.41,177.154     "/></g><g><polygon fill="#FCB658" points="328.776,347.821 359.721,347.821 359.721,177.154 343.902,164.154 328.776,177.154     "/><polygon fill="#FCB658" points="239.153,347.821 270.079,347.821 270.079,177.154 254.278,164.154 239.153,177.154     "/><polygon fill="#FCB658" points="149.51,347.821 180.454,347.821 180.454,177.154 164.635,164.154 149.51,177.154     "/></g><g><polygon fill="#FCB658" points="328.877,347.821 359.821,347.821 359.821,177.154 344.002,164.154 328.877,177.154     "/><polygon fill="#FCB658" points="239.254,347.821 270.179,347.821 270.179,177.154 254.378,164.154 239.254,177.154     "/><polygon fill="#FCB658" points="149.61,347.821 180.555,347.821 180.555,177.154 164.735,164.154 149.61,177.154     "/></g><g><polygon fill="#FCB658" points="328.977,347.821 359.922,347.821 359.922,177.154 344.102,164.154 328.977,177.154     "/><polygon fill="#FCB658" points="239.354,347.821 270.279,347.821 270.279,177.154 254.479,164.154 239.354,177.154     "/><polygon fill="#FCB658" points="149.71,347.821 180.655,347.821 180.655,177.154 164.835,164.154 149.71,177.154     "/></g><g><polygon fill="#FCB658" points="329.076,347.821 360.022,347.821 360.022,177.154 344.201,164.154 329.076,177.154     "/><polygon fill="#FCB658" points="239.455,347.821 270.379,347.821 270.379,177.154 254.579,164.154 239.455,177.154     "/><polygon fill="#FCB658" points="149.811,347.821 180.755,347.821 180.755,177.154 164.935,164.154 149.811,177.154     "/></g><g><polygon fill="#FCB658" points="329.177,347.821 360.122,347.821 360.122,177.154 344.302,164.154 329.177,177.154     "/><polygon fill="#FCB658" points="239.555,347.821 270.479,347.821 270.479,177.154 254.68,164.154 239.555,177.154     "/><polygon fill="#FCB658" points="149.91,347.821 180.856,347.821 180.856,177.154 165.035,164.154 149.91,177.154     "/></g><g><polygon fill="#FCB658" points="329.277,347.821 360.223,347.821 360.223,177.154 344.401,164.154 329.277,177.154     "/><polygon fill="#FCB658" points="239.656,347.821 270.578,347.821 270.578,177.154 254.78,164.154 239.656,177.154     "/><polygon fill="#FCB658" points="150.01,347.821 180.957,347.821 180.957,177.154 165.135,164.154 150.01,177.154     "/></g><g><polygon fill="#FCB658" points="329.377,347.821 360.323,347.821 360.323,177.154 344.502,164.154 329.377,177.154     "/><polygon fill="#FCB658" points="239.756,347.821 270.678,347.821 270.678,177.154 254.881,164.154 239.756,177.154     "/><polygon fill="#FCB658" points="150.11,347.821 181.057,347.821 181.057,177.154 165.235,164.154 150.11,177.154     "/></g><g><polygon fill="#FCB658" points="329.477,347.821 360.424,347.821 360.424,177.154 344.602,164.154 329.477,177.154     "/><polygon fill="#FCB658" points="239.856,347.821 270.778,347.821 270.778,177.154 254.981,164.154 239.856,177.154     "/><polygon fill="#FCB658" points="150.21,347.821 181.157,347.821 181.157,177.154 165.335,164.154 150.21,177.154     "/></g><g><polygon fill="#FCB658" points="329.577,347.821 360.524,347.821 360.524,177.154 344.701,164.154 329.577,177.154     "/><polygon fill="#FCB658" points="239.957,347.821 270.878,347.821 270.878,177.154 255.082,164.154 239.957,177.154     "/><polygon fill="#FCB658" points="150.31,347.821 181.258,347.821 181.258,177.154 165.435,164.154 150.31,177.154     "/></g><g><polygon fill="#FCB658" points="329.677,347.821 360.625,347.821 360.625,177.154 344.802,164.154 329.677,177.154     "/><polygon fill="#FCB658" points="240.058,347.821 270.979,347.821 270.979,177.154 255.182,164.154 240.058,177.154     "/><polygon fill="#FCB658" points="150.41,347.821 181.358,347.821 181.358,177.154 165.535,164.154 150.41,177.154     "/></g><g><polygon fill="#FCB658" points="329.776,347.821 360.726,347.821 360.726,177.154 344.901,164.154 329.776,177.154     "/><polygon fill="#FCB658" points="240.158,347.821 271.078,347.821 271.078,177.154 255.282,164.154 240.158,177.154     "/><polygon fill="#FCB658" points="150.51,347.821 181.458,347.821 181.458,177.154 165.635,164.154 150.51,177.154     "/></g><g><polygon fill="#FCB658" points="329.877,347.821 360.826,347.821 360.826,177.154 345.002,164.154 329.877,177.154     "/><polygon fill="#FCB658" points="240.258,347.821 271.178,347.821 271.178,177.154 255.383,164.154 240.258,177.154     "/><polygon fill="#FCB658" points="150.61,347.821 181.559,347.821 181.559,177.154 165.735,164.154 150.61,177.154     "/></g><g><polygon fill="#FCB658" points="329.977,347.821 360.926,347.821 360.926,177.154 345.102,164.154 329.977,177.154     "/><polygon fill="#FCB658" points="240.359,347.821 271.278,347.821 271.278,177.154 255.483,164.154 240.359,177.154     "/><polygon fill="#FCB658" points="150.71,347.821 181.659,347.821 181.659,177.154 165.835,164.154 150.71,177.154     "/></g><g><polygon fill="#FCB658" points="330.077,347.821 361.026,347.821 361.026,177.154 345.202,164.154 330.077,177.154     "/><polygon fill="#FCB658" points="240.459,347.821 271.378,347.821 271.378,177.154 255.583,164.154 240.459,177.154     "/><polygon fill="#FCB658" points="150.81,347.821 181.76,347.821 181.76,177.154 165.935,164.154 150.81,177.154     "/></g><g><polygon fill="#FCB658" points="330.177,347.821 361.127,347.821 361.127,177.154 345.302,164.154 330.177,177.154     "/><polygon fill="#FCB658" points="240.56,347.821 271.478,347.821 271.478,177.154 255.684,164.154 240.56,177.154     "/><polygon fill="#FCB658" points="150.91,347.821 181.86,347.821 181.86,177.154 166.035,164.154 150.91,177.154     "/></g></g><g><polygon fill="#E9A02D" points="330.177,347.821 361.127,347.821 361.127,177.154 345.302,164.154 330.177,177.154    "/><polygon fill="#E9A02D" points="240.56,347.821 271.478,347.821 271.478,177.154 255.684,164.154 240.56,177.154    "/><polygon fill="#E9A02D" points="150.91,347.821 181.86,347.821 181.86,177.154 166.035,164.154 150.91,177.154    "/></g></g></g><g/><g/><g/><g/><g/><g/></svg>