<?xml version="1.0" ?><!DOCTYPE svg  PUBLIC '-//W3C//DTD SVG 1.1//EN'  'http://www.w3.org/Graphics/SVG/1.1/DTD/svg11.dtd'><svg enable-background="new 0 0 512 512" height="512px" id="Calque_1" version="1.1" viewBox="0 0 512 512" width="512px" xml:space="preserve" xmlns="http://www.w3.org/2000/svg" xmlns:xlink="http://www.w3.org/1999/xlink"><g><circle cx="256.003" cy="256" fill="#E27C3C" r="255.997"/><g id="imac"><path d="M273.203,324.824l-17.2,0.825l-17.206-0.825c0,0-1.656,37.212-21.193,37.487h33.043h10.713h33.043    C274.853,362.036,273.203,324.824,273.203,324.824z" fill="#BCBEC0"/><path d="M274.652,336.074c-1.225-6.3-1.449-11.25-1.449-11.25l-17.2,0.825l-17.206-0.825    c0,0-0.225,4.95-1.456,11.25H274.652z" fill="#A7A9AC"/><path d="M380.852,322.499c0,4.275-3.463,7.763-7.75,7.763H138.898c-4.281,0-7.75-3.487-7.75-7.763V154.214    c0-4.275,3.469-7.75,7.75-7.75h234.203c4.287,0,7.75,3.475,7.75,7.75V322.499z" fill="#D1D3D4"/><path d="M373.102,146.076H138.898c-4.281,0-7.75,3.463-7.75,7.75v129.511h249.703V153.826    C380.852,149.539,377.389,146.076,373.102,146.076z"/><rect fill="#414042" height="120.198" width="231.098" x="140.454" y="154.602"/><rect fill="#D1D3D4" height="3.875" width="91.505" x="210.247" y="362.049"/><path d="M260.465,305.625c0,2.462-2,4.462-4.462,4.462c-2.462,0-4.456-2-4.456-4.462    c0-2.463,1.994-4.45,4.456-4.45C258.465,301.175,260.465,303.162,260.465,305.625z" fill="#58595B"/></g></g><g/><g/><g/><g/><g/><g/></svg>