<?xml version="1.0" ?><!DOCTYPE svg  PUBLIC '-//W3C//DTD SVG 1.1//EN'  'http://www.w3.org/Graphics/SVG/1.1/DTD/svg11.dtd'><svg enable-background="new 0 0 512 512" height="512px" id="Calque_1" version="1.1" viewBox="0 0 512 512" width="512px" xml:space="preserve" xmlns="http://www.w3.org/2000/svg" xmlns:xlink="http://www.w3.org/1999/xlink"><g><path d="M512,256c0,141.386-114.599,255.997-256.003,255.997C114.623,511.997,0,397.386,0,256   S114.623,0.003,255.997,0.003C397.401,0.003,512,114.614,512,256z" fill="#489BA8"/><g id="calendar"><path d="M372.802,361.999c0,12.975-10.525,23.499-23.5,23.499H162.71c-12.975,0-23.487-10.524-23.487-23.499    V178.338c0-12.987,10.512-23.5,23.487-23.5h186.592c12.975,0,23.5,10.512,23.5,23.5V361.999z" fill="#EFC950"/><path d="M372.802,348.312c0,12.962-10.525,23.487-23.5,23.487H162.71c-12.975,0-23.487-10.525-23.487-23.487    V164.639c0-12.975,10.512-23.487,23.487-23.487h186.592c12.975,0,23.5,10.513,23.5,23.487V348.312z" fill="#FEDB52"/><path d="M349.302,141.151H162.71c-12.975,0-23.487,10.513-23.487,23.487v70.486h233.579v-70.486    C372.802,151.664,362.276,141.151,349.302,141.151z" fill="#E64E3C"/><g><g><path d="M210.71,161.214c0,4.813-3.913,8.725-8.725,8.725s-8.712-3.912-8.712-8.725s3.9-8.725,8.712-8.725      S210.71,156.401,210.71,161.214z" fill="#BE1E2D"/><path d="M201.985,152.489c4.813,0,8.725,3.913,8.725,8.725s-3.913,8.725-8.725,8.725s-8.712-3.912-8.712-8.725      S197.172,152.489,201.985,152.489 M201.985,148.214c-7.163,0-13,5.825-13,13c0,7.162,5.837,13,13,13s12.987-5.837,12.987-13      C214.972,154.039,209.147,148.214,201.985,148.214L201.985,148.214z" fill="#F37167"/></g><g><path d="M319.577,161.214c0,4.813-3.899,8.725-8.7,8.725c-4.85,0-8.725-3.912-8.725-8.725      s3.875-8.725,8.725-8.725C315.678,152.489,319.577,156.401,319.577,161.214z" fill="#BE1E2D"/><path d="M310.877,152.489c4.801,0,8.7,3.913,8.7,8.725s-3.899,8.725-8.7,8.725c-4.85,0-8.725-3.912-8.725-8.725      S306.027,152.489,310.877,152.489 M310.877,148.214c-7.175,0-13,5.825-13,13c0,7.162,5.825,13,13,13      c7.15,0,12.975-5.837,12.975-13C323.852,154.039,318.027,148.214,310.877,148.214L310.877,148.214z" fill="#F37167"/></g><path d="M201.922,141.276c-0.05,0.3-0.125,0.588-0.15,0.888     c-2.5,20.649,4.975,21.725,4.975,21.725l19.412-22.612H201.922z" fill="#8F1A1D" opacity="0.44"/><path d="M310.928,141.276c-0.051,0.3-0.125,0.588-0.15,0.888     c-2.5,20.649,4.975,21.725,4.975,21.725l19.425-22.612H310.928z" fill="#8F1A1D" opacity="0.44"/><path d="M195.223,158.901c0,3.737,3.024,6.762,6.762,6.762l0,0c3.738,0,6.762-3.025,6.762-6.762v-25.638     c0-3.737-3.024-6.762-6.762-6.762l0,0c-3.738,0-6.762,3.025-6.762,6.762V158.901z" fill="#D1D3D4"/><path d="M304.103,158.901c0,3.737,3.024,6.762,6.774,6.762l0,0c3.726,0,6.75-3.025,6.75-6.762v-25.638     c0-3.737-3.024-6.762-6.75-6.762l0,0c-3.75,0-6.774,3.025-6.774,6.762V158.901z" fill="#D1D3D4"/></g><g><path d="M212.072,214.838v-16.524l-4.5,16.524h-5l-4.475-16.45v16.45h-4.675v-24.112h7.4l4.362,17.688     l4.363-17.688h7.25v24.112H212.072z" fill="#FFFFFF"/><path d="M238.847,214.838l-1.524-4.975h-8.9l-1.7,4.975h-5.35l8.612-24.112h5.838l8.5,24.112H238.847z      M232.847,196.138h-0.037l-3.088,9.587h6.15L232.847,196.138z" fill="#FFFFFF"/><path d="M262.946,214.838v-6.212c0-2.325-0.862-3.237-3.774-3.237h-5.375v9.45h-4.9v-24.112h12.25     c4.45,0,7.4,2.975,7.4,6.963c0,2.587-1.275,4.762-3.601,5.6c2.15,0.688,2.95,1.888,2.95,4.725v6.825H262.946z M253.797,194.9     v6.425h6.324c2.676,0,3.7-1.337,3.7-3.2c0-1.875-1.024-3.226-3.524-3.226H253.797z" fill="#FFFFFF"/><path d="M294.577,206.551c-1,5.487-4.8,9.125-10.374,9.125c-6.325,0-11.15-4.325-11.15-12.612     c0-8.163,4.325-13.138,11.225-13.138c6.025,0,9.825,3.85,10.3,8.712h-5.05c-0.675-2.725-2.824-4.35-5.225-4.35     c-4.175,0-6.125,3.225-6.125,8.487c0,5.338,1.95,8.5,5.875,8.5c2.975,0,4.8-1.7,5.475-4.725H294.577z" fill="#FFFFFF"/><path d="M313.502,214.838v-10.825h-9.399v10.825h-5.05v-24.112h5.05v9.075h9.399v-9.075h5.075v24.112H313.502z" fill="#FFFFFF"/></g><g><path d="M204.047,335.461c0.1-13.137,3.2-22.212,21.35-35.249c10.15-7.263,13.15-10.888,13.15-16.875     c0-7.149-4.388-9.287-9.837-9.287c-6.3,0-10.362,3.1-10.362,12.6h-13.35c0-15.274,8.55-24.462,23.075-24.462     c14.312,0,24.024,6.725,24.024,20.725c0,10.787-5.325,16.987-20.5,27.774c-5.45,3.95-9.512,9.075-9.824,12.713h30.549v12.062     H204.047z" fill="#FFFFFF"/><path d="M274.753,320.187c0.325,4.375,2.875,6.625,7.475,6.625c7.575,0,11.2-7.263,12.075-22.425     c-3.325,3.838-7.475,6.625-14.55,6.625c-11.206,0-20.081-8.762-20.081-23.5c0-14.524,9.406-25.324,23.406-25.324     c16.649,0,24.899,12.188,24.899,35.574c0,28.412-8.775,40.162-26.399,40.162c-11.426,0-19.119-6.3-20.606-17.737H274.753z      M294.077,287.074c0-8.112-3.95-13.662-10.8-13.662c-6.399,0-9.925,5.875-9.925,13.45c0,8.112,4.075,13.25,10.15,13.25     C289.703,300.112,294.077,294.875,294.077,287.074z" fill="#FFFFFF"/></g></g></g><g/><g/><g/><g/><g/><g/></svg>