<?xml version="1.0" ?><!DOCTYPE svg  PUBLIC '-//W3C//DTD SVG 1.1//EN'  'http://www.w3.org/Graphics/SVG/1.1/DTD/svg11.dtd'><svg enable-background="new 0 0 512 512" height="512px" id="Calque_1" version="1.1" viewBox="0 0 512 512" width="512px" xml:space="preserve" xmlns="http://www.w3.org/2000/svg" xmlns:xlink="http://www.w3.org/1999/xlink"><g><path d="M512,256c0,141.388-114.6,256-256,256C114.612,512,0,397.388,0,256S114.612,0,256,0   C397.4,0,512,114.612,512,256z" fill="#35707F"/><g id="goods"><rect fill="#B1D357" height="24.35" width="48.676" x="326.85" y="324.95"/><rect fill="#B1D357" height="24.35" width="48.662" x="226.138" y="324.95"/><rect fill="#B1D357" height="28.75" width="48.669" x="125.425" y="320.55"/><rect fill="#8DC63F" height="24.35" width="48.65" x="337.925" y="324.95"/><rect fill="#8DC63F" height="24.35" width="48.669" x="136.494" y="324.95"/><rect fill="#8DC63F" height="24.35" width="48.662" x="236.688" y="324.95"/><rect fill="#E1C682" height="81.119" width="131.25" x="244.575" y="239.431"/><rect fill="#EDD7A4" height="81.119" width="9.95" x="234.625" y="239.431"/><rect fill="#CCAF76" height="76.675" width="68.588" x="289.537" y="162.706"/><rect fill="#E9CE9C" height="76.675" width="6.274" x="283.263" y="162.706"/><rect fill="#E1C682" height="39.45" width="86.637" x="152.538" y="281.1"/><rect fill="#EDD8A9" height="39.45" width="3.688" x="148.85" y="281.1"/><rect fill="#27AAE1" height="14.2" width="11.8" x="189.956" y="281.1"/><rect fill="#27AAE1" height="14.2" width="11.8" x="304.3" y="239.431"/><rect fill="#27AAE1" height="14.188" width="11.8" x="317.925" y="162.706"/><polygon fill="#C1A46B" opacity="0.2" points="239.419,281.375 239.419,320.55 287.475,320.55   "/><rect fill="#8DC63F" height="9.575" width="249.963" x="136.487" y="320.55"/></g></g><g/><g/><g/><g/><g/><g/></svg>