<?xml version="1.0" ?><!DOCTYPE svg  PUBLIC '-//W3C//DTD SVG 1.1//EN'  'http://www.w3.org/Graphics/SVG/1.1/DTD/svg11.dtd'><svg enable-background="new 0 0 512 512" height="512px" id="Calque_1" version="1.1" viewBox="0 0 512 512" width="512px" xml:space="preserve" xmlns="http://www.w3.org/2000/svg" xmlns:xlink="http://www.w3.org/1999/xlink"><g><circle cx="256.003" cy="256" fill="#43B39C" r="255.997"/><g id="wand_2_"><path d="M153.223,382.924c-2.075,2.063-5.438,2.063-7.512,0l0,0c-2.075-2.075-2.075-5.438,0-7.513L284.915,236.2    c2.075-2.063,5.438-2.063,7.513,0l0,0c2.074,2.075,2.063,5.438,0,7.513L153.223,382.924z" fill="#EF4136"/><path d="M288.564,240.063c-2.074-2.063-5.437-2.063-7.512,0l-39.612,39.625l6.05,1.313l2.219,5.425l38.855-38.85    C290.627,245.5,290.627,242.138,288.564,240.063z" fill="#BE1E2D"/><path d="M257.828,272.037L150.71,378.511c0,0-3.2,2.263-6.519,1.063    c0.094,1.226,0.587,2.413,1.519,3.351c2.075,2.063,5.438,2.063,7.512,0l108.53-108.537L257.828,272.037z" fill="#931A25" opacity="0.27"/><polygon fill="#F9ED32" points="314.439,202.963 304.702,242.475 331.739,272.9 291.152,275.862 270.578,310.975 255.222,273.287     215.466,264.563 246.572,238.313 242.572,197.813 277.152,219.275   "/><polygon fill="#FBB040" points="314.439,202.963 278.728,245.362 277.152,219.275   "/><polygon fill="#FBB040" points="278.728,245.362 242.572,197.813 246.396,238.525   "/><polygon fill="#FBB040" points="278.728,245.362 215.466,264.563 255.222,273.287   "/><polygon fill="#FBB040" points="278.728,245.362 270.578,310.975 291.402,275.862   "/><polygon fill="#FBB040" points="278.728,245.362 331.739,272.9 304.728,242.237   "/><polygon fill="#F9ED32" points="326.814,160.063 325.402,166.889 329.215,172.726 322.302,173.488 317.928,178.913     315.053,172.576 308.54,170.089 313.689,165.401 314.04,158.438 320.09,161.889   "/><polygon fill="#F9ED32" points="365.451,181.301 364.026,188.139 367.852,193.963 360.927,194.738 356.552,200.163     353.677,193.813 347.164,191.338 352.314,186.639 352.664,179.676 358.714,183.139   "/><polygon fill="#F9ED32" points="330.677,129.164 329.277,135.989 333.077,141.826 326.152,142.589 321.777,148.014     318.902,141.664 312.402,139.189 317.553,134.489 317.902,127.539 323.952,130.977   "/></g></g><g/><g/><g/><g/><g/><g/></svg>