<?xml version="1.0" ?><!DOCTYPE svg  PUBLIC '-//W3C//DTD SVG 1.1//EN'  'http://www.w3.org/Graphics/SVG/1.1/DTD/svg11.dtd'><svg enable-background="new 0 0 512 512" height="512px" id="Calque_1" version="1.1" viewBox="0 0 512 512" width="512px" xml:space="preserve" xmlns="http://www.w3.org/2000/svg" xmlns:xlink="http://www.w3.org/1999/xlink"><g><path d="M511.975,256.025C511.975,397.387,397.361,512,256.006,512C114.626,512,0.025,397.387,0.025,256.025   C0.025,114.639,114.626,0,256.006,0C397.361,0,511.975,114.639,511.975,256.025z" fill="#EBEEEF"/><g id="Earphones"><path d="M203.861,195.981c2.649,0.825,5.425,1,8.324,0.75c12.049-7.624,27.41-12.198,44.171-12.198    c16.717,0,32.065,4.549,44.089,12.148c2.9,0.3,5.699,0.125,8.425-0.7c17.723-5.45,12.174-15.524,12.174-15.524    c-23.473-13.998-50.421-14.598-64.688-13.698c-14.249-0.9-41.196-0.3-64.682,13.698    C191.675,180.457,186.138,190.531,203.861,195.981z" fill="#414042"/><path d="M211.386,166.059c0,0-0.612,0.375-1.675,1.025c-0.538,0.3-1.175,0.7-1.925,1.125    c-0.75,0.425-1.6,0.9-2.5,1.45c-1.825,1.05-3.962,2.3-6.237,3.625c-0.563,0.325-1.137,0.675-1.737,1    c-0.575,0.375-1.15,0.725-1.75,1.075c-1.2,0.675-2.388,1.425-3.575,2.15c-1.2,0.725-2.35,1.524-3.524,2.225    c-1.15,0.75-2.3,1.475-3.375,2.2c-1.075,0.775-2.112,1.475-3.1,2.15c-0.95,0.75-1.875,1.425-2.725,2.025    c-0.8,0.675-1.55,1.275-2.225,1.825c-0.675,0.5-1.2,1.05-1.662,1.45c-0.913,0.825-1.463,1.3-1.463,1.3s0.375-0.6,1.088-1.65    c0.362-0.5,0.762-1.149,1.362-1.774c0.575-0.675,1.2-1.45,1.949-2.2c0.75-0.774,1.575-1.6,2.5-2.425    c0.925-0.8,1.9-1.649,2.975-2.475c1.063-0.8,2.15-1.675,3.325-2.449c1.149-0.775,2.337-1.6,3.562-2.325    c1.225-0.725,2.45-1.475,3.675-2.149c1.225-0.675,2.462-1.3,3.65-1.9c1.187-0.625,2.375-1.125,3.487-1.625    c1.1-0.525,2.175-0.95,3.162-1.35c1.987-0.8,3.662-1.375,4.862-1.75C210.698,166.234,211.386,166.059,211.386,166.059z" fill="#FFFFFF" opacity="0.44"/><path d="M147.68,300.596c-1.913-8.249-2.913-16.773-2.913-25.447c0-29.822,11.611-57.845,32.697-78.917    c21.073-21.073,49.095-32.697,78.893-32.697c29.815,0,57.838,11.624,78.911,32.697c21.072,21.073,32.672,49.095,32.672,78.917    c0,8.674-0.976,17.198-2.9,25.447h8.574c1.775-8.199,2.725-16.724,2.725-25.447c0-66.269-53.72-119.988-119.981-119.988    c-66.269,0-119.964,53.72-119.964,119.988c0,8.724,0.925,17.248,2.7,25.447H147.68z" fill="#D1D3D4"/><path d="M256.331,151.385c-35.996,0-68.581,14.749-92.091,38.496l13.648,13.649    c20.011-20.273,47.771-32.847,78.442-32.847c30.69,0,58.488,12.599,78.511,32.896l13.624-13.624    C324.969,166.159,292.347,151.385,256.331,151.385z" fill="#00A79D"/><path d="M127.481,345.241c0,1.075,0.887,1.95,1.962,1.95l0,0c1.075,0,1.95-0.875,1.95-1.95v-36.896    c0-1.1-0.875-1.975-1.95-1.975l0,0c-1.075,0-1.962,0.875-1.962,1.975V345.241z" fill="#00A79D"/><path d="M131.256,351.666c0,2.324,2.162,4.225,4.837,4.225h16.074c2.662,0,4.825-1.9,4.825-4.225v-49.771    c0-2.325-2.163-4.199-4.825-4.199h-16.074c-2.675,0-4.837,1.874-4.837,4.199V351.666z" fill="#414042"/><rect fill="#D1D3D4" height="67.669" width="11.174" x="150.842" y="292.946"/><path d="M384.513,345.241c0,1.075-0.9,1.95-1.976,1.95l0,0c-1.074,0-1.949-0.875-1.949-1.95v-36.896    c0-1.1,0.875-1.975,1.949-1.975l0,0c1.075,0,1.976,0.875,1.976,1.975V345.241z" fill="#00A79D"/><path d="M380.738,351.666c0,2.324-2.176,4.225-4.85,4.225h-16.074c-2.649,0-4.824-1.9-4.824-4.225v-49.771    c0-2.325,2.175-4.199,4.824-4.199h16.074c2.674,0,4.85,1.874,4.85,4.199V351.666z" fill="#414042"/><rect fill="#D1D3D4" height="67.669" width="11.174" x="349.966" y="292.946"/></g></g><g/><g/><g/><g/><g/><g/></svg>