<?xml version="1.0" ?><!DOCTYPE svg  PUBLIC '-//W3C//DTD SVG 1.1//EN'  'http://www.w3.org/Graphics/SVG/1.1/DTD/svg11.dtd'><svg enable-background="new 0 0 512 512" height="512px" id="Calque_1" version="1.1" viewBox="0 0 512 512" width="512px" xml:space="preserve" xmlns="http://www.w3.org/2000/svg" xmlns:xlink="http://www.w3.org/1999/xlink"><g><path d="M512,256c0,141.386-114.599,255.997-255.991,255.997C114.623,511.997,0,397.386,0,256   S114.623,0.003,256.009,0.003C397.401,0.003,512,114.614,512,256z" fill="#A1C656"/><g id="Barrier"><rect fill="#F9ED32" height="53.543" width="206.229" x="152.898" y="252.432"/><g><defs><rect height="53.543" id="SVGID_1_" width="206.229" x="152.898" y="252.432"/></defs><clipPath id="SVGID_2_"><use overflow="visible" xlink:href="#SVGID_1_"/></clipPath><g clip-path="url(#SVGID_2_)"><polygon fill="#FBB040" points="298.103,327.749 345.027,327.749 424.376,236.531 377.451,236.531     "/><polygon fill="#FBB040" points="218.722,327.749 265.646,327.749 345.027,236.531 298.103,236.531     "/><polygon fill="#FBB040" points="139.348,327.749 186.285,327.749 265.646,236.531 218.722,236.531     "/><polygon fill="#FBB040" points="59.999,327.749 106.924,327.749 186.285,236.531 139.348,236.531     "/></g></g><rect fill="#BE1E2D" height="53.543" opacity="0.27" width="20.5" x="338.627" y="252.432"/><rect fill="#BE1E2D" height="53.543" opacity="0.27" width="20.487" x="156.085" y="252.432"/><g><rect fill="#F9ED32" height="160.617" width="13.875" x="147.448" y="196.182"/><rect fill="#F9ED32" height="160.617" width="13.875" x="353.802" y="196.182"/></g><g opacity="0.27"><rect fill="#BE1E2D" height="29.737" width="13.875" x="147.448" y="196.182"/><rect fill="#BE1E2D" height="29.737" width="13.875" x="353.802" y="196.182"/></g><rect fill="#F9ED32" height="53.537" width="259.754" x="126.123" y="155.208"/><g><defs><rect height="53.537" id="SVGID_3_" width="259.754" x="126.123" y="155.208"/></defs><clipPath id="SVGID_4_"><use overflow="visible" xlink:href="#SVGID_3_"/></clipPath><g clip-path="url(#SVGID_4_)"><polygon fill="#FBB040" points="298.103,224.594 345.027,224.594 424.376,133.383 377.451,133.383     "/><polygon fill="#FBB040" points="218.722,224.594 265.646,224.594 345.027,133.383 298.103,133.383     "/><polygon fill="#FBB040" points="139.348,224.594 186.285,224.594 265.646,133.383 218.722,133.383     "/><polygon fill="#FBB040" points="59.999,224.594 106.924,224.594 186.285,133.383 139.348,133.383     "/></g></g></g></g><g/><g/><g/><g/><g/><g/></svg>