<?xml version="1.0" ?><!DOCTYPE svg  PUBLIC '-//W3C//DTD SVG 1.1//EN'  'http://www.w3.org/Graphics/SVG/1.1/DTD/svg11.dtd'><svg enable-background="new 0 0 512 512" height="512px" id="Calque_1" version="1.1" viewBox="0 0 512 512" width="512px" xml:space="preserve" xmlns="http://www.w3.org/2000/svg" xmlns:xlink="http://www.w3.org/1999/xlink"><g><path d="M512,256c0,141.386-114.599,255.997-255.997,255.997C114.617,511.997,0.006,397.386,0.006,256   S114.617,0.003,256.003,0.003C397.401,0.003,512,114.614,512,256z" fill="#E1695C"/><g id="flag"><rect fill="#80929B" height="239.21" width="8.881" x="198.422" y="126.289"/><rect fill="#A8BEC6" height="14.324" width="23.306" x="191.21" y="365.499"/><rect fill="#5C717C" height="13.75" width="44.644" x="180.541" y="371.961"/><polygon fill="#F3E862" points="297.99,247.188 331.452,222.9 294.702,225.525   "/><polygon fill="#8DC63F" opacity="0.27" points="296.027,234.325 297.965,247.05 298.353,246.913 301.64,244.525 313.277,224.2     297.077,225.351   "/><polygon fill="#D7CA26" points="307.115,198.613 297.99,247.188 252.697,222.25   "/><polygon fill="#A97C50" opacity="0.27" points="262.834,227.825 303.577,217.45 307.115,198.613 255.428,221.063 258.652,225.525       "/><polygon fill="#F9ED32" points="207.41,141.052 307.115,198.613 207.41,256.175   "/></g></g><g/><g/><g/><g/><g/><g/></svg>