<?xml version="1.0" ?><!DOCTYPE svg  PUBLIC '-//W3C//DTD SVG 1.1//EN'  'http://www.w3.org/Graphics/SVG/1.1/DTD/svg11.dtd'><svg enable-background="new 0 0 512 512" height="512px" id="Calque_1" version="1.1" viewBox="0 0 512 512" width="512px" xml:space="preserve" xmlns="http://www.w3.org/2000/svg" xmlns:xlink="http://www.w3.org/1999/xlink"><g><path d="M512.003,256c0,141.388-114.601,256-255.994,256C114.622,512-0.003,397.388-0.003,256S114.622,0,256.009,0   C397.402,0,512.003,114.612,512.003,256z" fill="#78B0D2"/><g id="files"><polygon fill="#D7DF23" points="200.271,387.737 328.953,387.737 370.928,345.775 370.928,152.725 200.271,152.725   "/><polygon fill="#B7B734" opacity="0.44" points="329.303,387.737 371.027,345.775 329.378,345.775 287.652,387.737   "/><polygon fill="#EEEA4B" points="329.078,387.737 371.027,345.775 329.078,345.775   "/><rect fill="#B7B734" height="214.462" opacity="0.44" width="119.693" x="199.459" y="152.712"/><polygon fill="#F9ED32" points="140.984,359.275 269.678,359.275 311.628,317.313 311.628,124.263 140.984,124.263   "/><polygon fill="#CF7E31" opacity="0.17" points="270.003,359.275 311.753,317.313 270.104,317.313 228.359,359.275   "/><polygon fill="#FDF59F" points="269.777,359.275 311.753,317.313 269.777,317.313   "/></g></g><g/><g/><g/><g/><g/><g/></svg>