<?xml version="1.0" ?><!DOCTYPE svg  PUBLIC '-//W3C//DTD SVG 1.1//EN'  'http://www.w3.org/Graphics/SVG/1.1/DTD/svg11.dtd'><svg enable-background="new 0 0 512 512" height="512px" id="Calque_1" version="1.1" viewBox="0 0 512 512" width="512px" xml:space="preserve" xmlns="http://www.w3.org/2000/svg" xmlns:xlink="http://www.w3.org/1999/xlink"><g><path d="M512,256c0,141.388-114.612,256-256,256S0,397.388,0,256S114.612,0,256,0S512,114.612,512,256z" fill="#E27C3C"/><g id="Shield"><path clip-rule="evenodd" d="M144.25,183.9c-0.175-7.637,3.575-12.212,11.425-12.862    c10.625-0.875,20.175-4.85,29.25-9.95c10.325-5.825,20.15-12.538,30.5-18.3c10.575-5.875,21.475-11.125,32.3-16.525    c5.45-2.725,10.95-2.463,16.55-0.1c13.024,5.5,25.399,12.175,37.449,19.587c11.051,6.788,22.351,13.15,33.726,19.362    c6.675,3.638,14.024,5.35,21.625,5.975c6.5,0.538,10.975,5.212,10.649,11.738c-0.475,9.425-1.199,18.837-2.225,28.212    c-2.05,18.962-5.675,37.637-11.2,55.9c-9.825,32.588-25.55,61.838-49.524,86.275c-12.775,13-27.275,23.762-43.025,32.875    c-3.825,2.212-7.775,2.137-11.6-0.088c-29.575-17.15-53.625-39.95-71-69.575c-13.525-23-22.1-47.8-27.575-73.787    C147.525,223.362,145.35,203.85,144.25,183.9z" fill="#FBB040" fill-rule="evenodd"/><path d="M256.3,150.587c10.175,4.438,20.675,10,32,16.962c12.476,7.663,25.2,14.725,34.9,20.038    c5.6,3.063,11.6,5.337,18.125,6.888c-0.351,4.612-0.775,9.225-1.275,13.813c-1.925,17.887-5.375,35.125-10.25,51.25    c-9.274,30.738-23.45,55.513-43.3,75.738c-8.8,8.975-18.825,17-30.475,24.35c-23.4-14.862-41.375-33.3-54.8-56.162    c-11.225-19.088-19.25-40.7-24.6-66.101c-2.775-13.188-4.75-27.313-6-42.912c8.675-2.138,17.45-5.763,26.875-11.063    c5.325-3,10.525-6.225,15.725-9.45c5.075-3.138,9.85-6.112,14.625-8.775c8.025-4.45,16.275-8.538,25.025-12.875L256.3,150.587     M255.825,124.3c-2.725,0-5.425,0.625-8.1,1.963c-10.825,5.4-21.725,10.65-32.3,16.525c-10.35,5.762-20.175,12.475-30.5,18.3    c-9.075,5.1-18.625,9.075-29.25,9.95c-7.85,0.65-11.6,5.225-11.425,12.862c1.1,19.95,3.275,39.462,7.325,58.738    c5.475,25.987,14.05,50.787,27.575,73.787c17.375,29.625,41.425,52.425,71,69.575c1.95,1.138,3.925,1.713,5.9,1.713    c1.925,0,3.825-0.538,5.7-1.625c15.75-9.113,30.25-19.875,43.025-32.875c23.975-24.438,39.699-53.688,49.524-86.275    c5.525-18.263,9.15-36.938,11.2-55.9c1.025-9.375,1.75-18.788,2.225-28.212c0.325-6.525-4.149-11.2-10.649-11.738    c-7.601-0.625-14.95-2.337-21.625-5.975c-11.375-6.212-22.675-12.575-33.726-19.362c-12.05-7.413-24.425-14.087-37.449-19.587    C261.425,124.962,258.625,124.3,255.825,124.3L255.825,124.3z" fill="#FEDB52"/><path clip-rule="evenodd" d="M254.65,176.15l0.525,157.863    c0,0-54.925-55.463-61.325-123.725L254.65,176.15z" fill="#FEDB52" fill-rule="evenodd" opacity="0.9"/></g></g><g/><g/><g/><g/><g/><g/></svg>