<?xml version="1.0" ?><!DOCTYPE svg  PUBLIC '-//W3C//DTD SVG 1.1//EN'  'http://www.w3.org/Graphics/SVG/1.1/DTD/svg11.dtd'><svg enable-background="new 0 0 512 512" height="512px" id="Calque_1" version="1.1" viewBox="0 0 512 512" width="512px" xml:space="preserve" xmlns="http://www.w3.org/2000/svg" xmlns:xlink="http://www.w3.org/1999/xlink"><g><path d="M512,256c0,141.388-114.612,256-256,256S0,397.388,0,256S114.612,0,256,0S512,114.612,512,256z" fill="#E1695C"/><g id="pallet"><path clip-rule="evenodd" d="M322.862,241.663c-14.875-22.55,21-23.325,22.025-44.075    c0.6-12.225-7.101-20.3-13.5-24.825c-21.101-12.425-46.726-19.725-74.351-19.725c-72.024,0-130.399,49.425-130.399,110.4    c0,60.95,58.375,110.4,130.399,110.4c59.801,0,110.176-34.125,125.551-80.601C392.412,256.388,336.838,262.888,322.862,241.663z     M317.287,323.412c-14.425,0-26.125-11-26.125-24.6c0-13.575,11.7-24.575,26.125-24.575c14.426,0,26.125,11,26.125,24.575    C343.412,312.412,331.713,323.412,317.287,323.412z" fill="#F0C946" fill-rule="evenodd"/><path clip-rule="evenodd" d="M236.837,331.487c0,12.101,9.8,21.9,21.9,21.9    c12.101,0,21.9-9.8,21.9-21.9c0-12.1-9.8-21.899-21.9-21.899C246.638,309.588,236.837,319.388,236.837,331.487z" fill="#BA68A9" fill-rule="evenodd"/><path clip-rule="evenodd" d="M311.213,322.737    c-11.476-2.575-20.025-12.274-20.051-23.875l-119.5-118.875c-3.675,2.675-7.125,5.525-10.425,8.55    c13.9,21.25,88.925,134.1,123.025,148.7c0,0-5.425,21.675,0.575,34.075c18.05-3.325,34.699-9.825,49.1-18.75L311.213,322.737z" fill="#8B5E3C" fill-rule="evenodd" opacity="0.38"/><path clip-rule="evenodd" d="M192.288,206.987c0,12.1,9.8,21.9,21.875,21.9    c12.1,0,21.9-9.8,21.9-21.9c0-12.1-9.8-21.9-21.9-21.9C202.087,185.087,192.288,194.888,192.288,206.987z" fill="#EE3533" fill-rule="evenodd"/><path clip-rule="evenodd" d="M316.713,312.862c0,0-15.375-68.125-180.851-174.7l-5.625,5.65    c0,0,97.85,151.625,174.7,179.825L316.713,312.862z" fill="#996026" fill-rule="evenodd"/><path clip-rule="evenodd" d="M316.713,312.862c0,0,23.05,0.525,36.375,22.55    c13.324,22.025,32.274,26.625,32.274,26.625s-78.899,28.7-80.425-38.399L316.713,312.862z" fill="#FBF7C1" fill-rule="evenodd"/><path clip-rule="evenodd" d="M273.813,248.712c-3.525,7.325-12.675,20.725-34.775,29.2    c21.9,20.775,44.7,37.95,65.9,45.726l11.775-10.775C316.713,312.862,311.438,289.487,273.813,248.712z" fill="#F1943F" fill-rule="evenodd"/><path clip-rule="evenodd" d="M135.862,138.163l-3.925,3.925    c17.925,13.225,143.675,107.375,180.75,174.4c0,0.025,0,0.025,0,0.025l4.025-3.65    C316.713,312.862,301.338,244.737,135.862,138.163z" fill="#4B3014" fill-rule="evenodd" opacity="0.24"/><path clip-rule="evenodd" d="M385.362,362.037c0,0-15.975-3.875-28.875-21.55    c-0.149,3.325-2.425,7.525-13.075,7.525c-10.925,0-10.975,10.3-9.425,18.149C357.037,372.338,385.362,362.037,385.362,362.037z" fill="#EE3533" fill-rule="evenodd"/><path clip-rule="evenodd" d="M255.063,196.237c0,12.1,9.8,21.9,21.9,21.9    c12.074,0,21.899-9.8,21.899-21.9c0-12.1-9.825-21.9-21.899-21.9C264.862,174.337,255.063,184.138,255.063,196.237z" fill="#FFFFFF" fill-rule="evenodd"/><path clip-rule="evenodd" d="M175.362,315.338c0,12.1,9.825,21.899,21.9,21.899    c12.1,0,21.9-9.8,21.9-21.899c0-12.101-9.8-21.9-21.9-21.9C185.188,293.438,175.362,303.237,175.362,315.338z" fill="#FFDE17" fill-rule="evenodd"/><path clip-rule="evenodd" d="M150.013,255.413c0,12.075,9.8,21.9,21.9,21.9    s21.9-9.825,21.9-21.9c0-12.1-9.8-21.9-21.9-21.9S150.013,243.313,150.013,255.413z" fill="#8DC63F" fill-rule="evenodd"/><path d="M275.037,291.138c0,0-0.225-0.101-0.625-0.3c-0.399-0.226-1-0.5-1.75-0.9    c-1.475-0.825-3.55-2-5.949-3.55c-2.426-1.55-5.176-3.425-8.025-5.55c-0.725-0.551-1.425-1.075-2.15-1.65    c-0.725-0.55-1.475-1.125-2.2-1.725c-1.45-1.176-2.9-2.4-4.35-3.625c-1.425-1.275-2.85-2.525-4.225-3.825    c-1.375-1.275-2.675-2.575-3.925-3.851c-2.5-2.574-4.7-5.125-6.475-7.425c-0.875-1.149-1.65-2.225-2.3-3.225    c-0.65-0.975-1.15-1.875-1.55-2.65c-0.375-0.75-0.65-1.375-0.8-1.8c-0.175-0.425-0.25-0.65-0.25-0.65s0.175,0.175,0.5,0.5    c0.275,0.325,0.775,0.775,1.375,1.35c0.625,0.55,1.35,1.225,2.225,1.95c0.875,0.75,1.85,1.575,2.95,2.475    c2.175,1.8,4.7,3.9,7.425,6.125c0.675,0.55,1.35,1.15,2.05,1.725c0.7,0.575,1.4,1.176,2.1,1.775c1.4,1.175,2.825,2.425,4.25,3.65    c1.425,1.25,2.85,2.475,4.225,3.725c1.375,1.225,2.725,2.45,4.025,3.675c2.6,2.4,4.975,4.7,6.975,6.726    c2,2.024,3.625,3.774,4.75,5.024c0.55,0.625,0.975,1.15,1.275,1.476C274.888,290.938,275.037,291.138,275.037,291.138z" fill="#FFFFFF" opacity="0.38"/></g></g><g/><g/><g/><g/><g/><g/></svg>