<?xml version="1.0" ?><!DOCTYPE svg  PUBLIC '-//W3C//DTD SVG 1.1//EN'  'http://www.w3.org/Graphics/SVG/1.1/DTD/svg11.dtd'><svg enable-background="new 0 0 512 512" height="512px" id="Calque_1" version="1.1" viewBox="0 0 512 512" width="512px" xml:space="preserve" xmlns="http://www.w3.org/2000/svg" xmlns:xlink="http://www.w3.org/1999/xlink"><g><path d="M511.975,256.016C511.975,397.385,397.36,512,256.003,512C114.615,512,0.025,397.385,0.025,256.016   C0.025,114.641,114.615,0,256.003,0C397.36,0,511.975,114.641,511.975,256.016z" fill="#35707F"/><path clip-rule="evenodd" d="M309.018,125.665   c4.75,1.25,9.674,2.012,14.199,3.825c20.572,8.274,33.121,23.385,36.521,45.384c3,19.373-3.025,36.109-16.799,49.92   c-34.771,34.897-69.619,69.725-104.497,104.523c-18.099,18.023-46.846,12.924-57.021-10c-5.724-12.974-2.962-27.872,7.675-38.547   c32.197-32.365,64.557-64.613,96.848-96.885c4.1-4.1,8.925-5.037,13.549-2.913c4.274,1.95,6.999,6.399,6.774,11.074   c-0.199,3.424-1.85,6.099-4.25,8.474c-10.023,9.974-19.998,19.974-29.997,29.973c-21.967,21.985-43.952,43.952-65.9,65.926   c-4.649,4.649-5.625,10.349-2.7,15.148c3.549,5.774,11.274,7.225,16.699,3.1c0.774-0.6,1.5-1.3,2.187-1.975   c34.785-34.772,69.563-69.525,104.31-104.335c12.424-12.437,14.273-30.91,4.649-44.608c-12.599-17.949-37.247-20.249-53.12-4.5   c-35.216,34.947-70.338,70.007-105.26,105.278c-18.299,18.468-22.536,43.69-11.162,66.613c8.75,17.674,23.298,28.298,42.922,31.247   c19.698,2.925,36.521-3.3,50.533-17.323c34.516-34.521,69.038-69.02,103.51-103.56c3.675-3.663,7.724-5.55,12.898-3.95   c7.5,2.313,10.475,11.499,5.774,17.773c-0.85,1.138-1.899,2.162-2.924,3.175c-34.123,34.142-68.295,68.238-102.367,102.435   c-12.08,12.1-26.166,20.474-43.002,23.773c-19.124,3.699-37.459,1.1-54.57-8.35c-18.773-10.373-31.723-25.848-38.172-46.296   c-6.925-21.998-4.688-43.321,6.324-63.638c4.012-7.425,9.35-13.837,15.312-19.786c33.822-33.797,67.707-67.557,101.403-101.479   c10.23-10.312,21.955-17.324,36.554-19.049c0.225-0.025,0.45-0.287,0.675-0.45C300.719,125.665,304.868,125.665,309.018,125.665z" fill="#F16668" fill-rule="evenodd" id="attachment"/></g><g/><g/><g/><g/><g/><g/></svg>