<?xml version="1.0" ?><!DOCTYPE svg  PUBLIC '-//W3C//DTD SVG 1.1//EN'  'http://www.w3.org/Graphics/SVG/1.1/DTD/svg11.dtd'><svg enable-background="new 0 0 512 512" height="512px" id="Calque_1" version="1.1" viewBox="0 0 512 512" width="512px" xml:space="preserve" xmlns="http://www.w3.org/2000/svg" xmlns:xlink="http://www.w3.org/1999/xlink"><g><path d="M512,256c0,141.383-114.621,255.99-255.99,255.99C114.615,511.99,0,397.383,0,256   C0,114.618,114.615,0.009,256.01,0.009C397.379,0.009,512,114.618,512,256z" fill="#489BA8"/><g id="chef"><path d="M164.838,359.746c0,13.85,40.823,25.074,91.197,25.074s91.197-11.225,91.197-25.074    s-40.823-25.074-91.197-25.074S164.838,345.896,164.838,359.746z" fill="#DCDBDB"/><rect fill="#DCDBDB" height="96.471" width="182.394" x="164.838" y="265.625"/><path d="M347.231,265.625H164.838v50.123c0.275,0.074,0.525,0.175,0.8,0.274c0,0,73.397,27.8,181.594,0    c0.075-0.024-0.075-1.05,0-1.075V265.625z" fill="#E6E7E8"/><path d="M384.83,256.025c0,35.774-29.024,64.797-64.798,64.797c-35.799,0-64.798-29.023-64.798-64.797    c0-35.798,28.999-64.797,64.798-64.797C355.806,191.228,384.83,220.227,384.83,256.025z" fill="#E6E7E8"/><path d="M256.76,256.025c0,35.774-29.024,64.797-64.798,64.797c-35.799,0-64.798-29.023-64.798-64.797    c0-35.798,28.999-64.797,64.798-64.797C227.735,191.228,256.76,220.227,256.76,256.025z" fill="#E6E7E8"/><path d="M320.782,191.978c0,35.773-29.024,64.797-64.798,64.797c-35.799,0-64.797-29.024-64.797-64.797    c0-35.799,28.999-64.798,64.797-64.798C291.758,127.18,320.782,156.179,320.782,191.978z" fill="#E6E7E8"/><path d="M320.707,191.152c-0.05-3.85-0.449-7.6-1.15-11.274    c-31.773,7.699-47.522,21.749-47.522,21.749C288.033,191.627,312.832,191.077,320.707,191.152z" fill="#D1D3D4" opacity="0.44"/><path d="M190.787,191.327c-4.525,0.1-8.925,0.65-13.2,1.6c14.85,8.75,21.649,35.899,21.649,35.899    c4.8-16.8-8.049-36.849-8.049-36.849C191.062,191.728,190.912,191.577,190.787,191.327z" fill="#D1D3D4" opacity="0.44"/><path d="M347.231,322.647v-7.7c0,0-43.474,12.8-83.997,13.325    C263.234,328.272,313.107,333.947,347.231,322.647z" fill="#BCBEC0" opacity="0.72"/></g></g><g/><g/><g/><g/><g/><g/></svg>