<?xml version="1.0" ?><!DOCTYPE svg  PUBLIC '-//W3C//DTD SVG 1.1//EN'  'http://www.w3.org/Graphics/SVG/1.1/DTD/svg11.dtd'><svg enable-background="new 0 0 512 512" height="512px" id="Calque_1" version="1.1" viewBox="0 0 512 512" width="512px" xml:space="preserve" xmlns="http://www.w3.org/2000/svg" xmlns:xlink="http://www.w3.org/1999/xlink"><g><path d="M512,256.003c0,141.369-114.612,255.994-256,255.994S0,397.372,0,256.003c0-141.388,114.612-256,256-256   S512,114.616,512,256.003z" fill="#43B39C"/><g id="mouse"><path d="M234.694,228.116c-2.675,0-4.975-2.1-5.15-4.85c-0.025-0.425-2.35-44.55,44.156-50.25    c38.225-4.675,49.5-41.3,49.95-42.85c0.824-2.725,3.699-4.275,6.399-3.5c2.75,0.8,4.325,3.675,3.525,6.4    c-0.525,1.825-13.525,44.7-58.601,50.225c-36.956,4.525-35.206,37.9-35.106,39.325c0.2,2.825-1.975,5.3-4.825,5.475    C234.919,228.091,234.819,228.116,234.694,228.116z" fill="#2B4250"/><path d="M291.925,328.672c0,31.426-25.481,56.875-56.856,56.875l0,0c-31.4,0-56.85-25.449-56.85-56.875v-65.256    c0-31.375,25.45-56.85,56.85-56.85l0,0c31.375,0,56.856,25.475,56.856,56.85V328.672z" fill="#E6E7E8"/><path d="M291.925,263.865v-0.449c0-31.375-25.481-56.85-56.856-56.85c-31.4,0-56.85,25.475-56.85,56.85v0.449    H291.925z" fill="#EFC84A"/><path d="M235.069,206.566c-0.2,0-0.375,0.025-0.575,0.025v178.931c0.2,0,0.375,0.025,0.575,0.025    c31.375,0,56.856-25.449,56.856-56.875v-65.256C291.925,232.041,266.443,206.566,235.069,206.566z" fill="#939598" opacity="0.17"/><path d="M235.069,206.566c-0.2,0-0.375,0.025-0.575,0.025v57.274h57.431v-0.449    C291.925,232.041,266.443,206.566,235.069,206.566z" fill="#D98D39" opacity="0.17"/><path d="M241.519,278.947c0,3.574-2.9,6.449-6.45,6.449l0,0c-3.575,0-6.475-2.875-6.475-6.449v-34.906    c0-3.575,2.9-6.45,6.475-6.45l0,0c3.55,0,6.45,2.875,6.45,6.45V278.947z" fill="#2B4250"/><path d="M214.019,230.691c0.025,0.025-0.4,0.15-1.025,0.6c-0.65,0.4-1.525,1.025-2.5,2    c-1.1,0.8-1.95,2.275-3.075,3.625c-0.6,0.65-0.875,1.675-1.35,2.55c-0.35,0.95-1.025,1.7-1.275,2.825    c-0.275,1.075-0.575,2.175-0.875,3.325c-0.175,0.55-0.35,1.1-0.525,1.675c-0.125,0.6-0.125,1.25-0.225,1.875    c-0.125,1.275-0.275,2.575-0.4,3.9c-0.075,0.65-0.15,1.325-0.25,1.975l0.025,2.1c0.05,2.85,0.1,5.775,0.15,8.75    c0.15,3.182,0.275,6.406,0.425,9.631c0.15,6.426,0.125,12.875-0.1,18.926l-0.075,2.25c-0.025,0.975-0.1,1.55-0.15,2.324    c-0.15,1.451-0.275,2.875-0.4,4.25c-0.225,2.775-0.575,5.4-0.9,7.801c-1.225,9.675-2.975,16.1-2.975,16.1s-1.725-6.425-2.95-16.1    c-0.35-2.4-0.675-5.025-0.9-7.801c-0.25-2.725-0.5-5.6-0.75-8.574c-0.575-6.025-0.975-12.45-1.125-18.9    c-0.05-3.225-0.075-6.449-0.1-9.631c0.05-3.275,0.55-6.676,0.8-9.85l0.25-2.375c0.2-0.8,0.425-1.575,0.65-2.325    c0.475-1.525,0.925-3,1.375-4.45c0.65-2.9,2.65-5.4,3.825-7.675c1.55-2.175,3.35-3.975,5-5.3c1.825-1.25,3.35-2.25,4.875-2.675    c1.375-0.6,2.6-0.675,3.375-0.775S214.019,230.716,214.019,230.691z" fill="#FFFFFF" opacity="0.65"/></g></g><g/><g/><g/><g/><g/><g/></svg>