<?xml version="1.0" ?><!DOCTYPE svg  PUBLIC '-//W3C//DTD SVG 1.1//EN'  'http://www.w3.org/Graphics/SVG/1.1/DTD/svg11.dtd'><svg enable-background="new 0 0 512 512" height="512px" id="Calque_1" version="1.1" viewBox="0 0 512 512" width="512px" xml:space="preserve" xmlns="http://www.w3.org/2000/svg" xmlns:xlink="http://www.w3.org/1999/xlink"><g><path d="M512,256c0,141.386-114.599,255.997-255.991,255.997C114.623,511.997,0,397.386,0,256   S114.623,0.003,256.009,0.003C397.401,0.003,512,114.614,512,256z" fill="#EFC84A"/><path clip-rule="evenodd" d="M339.727,126.908H172.285   c-3.1,0-5.625,2.513-5.625,5.613v246.953c0,3.1,2.525,5.625,5.625,5.625h167.441c3.101,0,5.601-2.525,5.601-5.625V132.521   C345.327,129.42,342.827,126.908,339.727,126.908z M198.685,375.373c0,1.375-1.1,2.476-2.45,2.476h-15.25   c-1.351,0-2.45-1.101-2.45-2.476v-15.225c0-1.375,1.1-2.475,2.45-2.475h15.25c1.35,0,2.45,1.1,2.45,2.475V375.373z    M198.685,346.224c0,1.351-1.1,2.45-2.45,2.45h-15.25c-1.351,0-2.45-1.1-2.45-2.45v-15.249c0-1.351,1.1-2.45,2.45-2.45h15.25   c1.35,0,2.45,1.1,2.45,2.45V346.224z M198.685,316.549c0,1.375-1.1,2.476-2.45,2.476h-15.25c-1.351,0-2.45-1.101-2.45-2.476   v-15.225c0-1.375,1.1-2.475,2.45-2.475h15.25c1.35,0,2.45,1.1,2.45,2.475V316.549z M198.685,286.899c0,1.375-1.1,2.476-2.45,2.476   h-15.25c-1.351,0-2.45-1.101-2.45-2.476v-15.225c0-1.375,1.1-2.475,2.45-2.475h15.25c1.35,0,2.45,1.1,2.45,2.475V286.899z    M198.685,240.606c0,1.362-1.1,2.475-2.45,2.475h-15.25c-1.351,0-2.45-1.112-2.45-2.475v-15.237c0-1.362,1.1-2.462,2.45-2.462   h15.25c1.35,0,2.45,1.1,2.45,2.462V240.606z M198.685,211.444c0,1.362-1.1,2.462-2.45,2.462h-15.25c-1.351,0-2.45-1.1-2.45-2.462   v-15.237c0-1.362,1.1-2.462,2.45-2.462h15.25c1.35,0,2.45,1.1,2.45,2.462V211.444z M198.685,181.782c0,1.362-1.1,2.475-2.45,2.475   h-15.25c-1.351,0-2.45-1.112-2.45-2.475v-15.237c0-1.362,1.1-2.463,2.45-2.463h15.25c1.35,0,2.45,1.101,2.45,2.463V181.782z    M198.685,152.133c0,1.362-1.1,2.462-2.45,2.462h-15.25c-1.351,0-2.45-1.1-2.45-2.462v-15.237c0-1.363,1.1-2.476,2.45-2.476h15.25   c1.35,0,2.45,1.113,2.45,2.476V152.133z M300.603,373.948c0,1.476-1.2,2.65-2.65,2.65h-84.018c-1.475,0-2.65-1.175-2.65-2.65   V271.574c0-1.449,1.175-2.649,2.65-2.649h84.018c1.45,0,2.65,1.2,2.65,2.649V373.948z M300.603,239.169   c0,1.475-1.2,2.663-2.65,2.663h-84.018c-1.475,0-2.65-1.188-2.65-2.663V136.808c0-1.462,1.175-2.65,2.65-2.65h84.018   c1.45,0,2.65,1.188,2.65,2.65V239.169z M333.477,375.373c0,1.375-1.1,2.476-2.475,2.476h-15.225c-1.375,0-2.475-1.101-2.475-2.476   v-15.225c0-1.375,1.1-2.475,2.475-2.475h15.225c1.375,0,2.475,1.1,2.475,2.475V375.373z M333.477,346.224   c0,1.351-1.1,2.45-2.475,2.45h-15.225c-1.375,0-2.475-1.1-2.475-2.45v-15.249c0-1.351,1.1-2.45,2.475-2.45h15.225   c1.375,0,2.475,1.1,2.475,2.45V346.224z M333.477,316.549c0,1.375-1.1,2.476-2.475,2.476h-15.225c-1.375,0-2.475-1.101-2.475-2.476   v-15.225c0-1.375,1.1-2.475,2.475-2.475h15.225c1.375,0,2.475,1.1,2.475,2.475V316.549z M333.477,286.899   c0,1.375-1.1,2.476-2.475,2.476h-15.225c-1.375,0-2.475-1.101-2.475-2.476v-15.225c0-1.375,1.1-2.475,2.475-2.475h15.225   c1.375,0,2.475,1.1,2.475,2.475V286.899z M333.477,240.606c0,1.362-1.1,2.475-2.475,2.475h-15.225   c-1.375,0-2.475-1.112-2.475-2.475v-15.237c0-1.362,1.1-2.462,2.475-2.462h15.225c1.375,0,2.475,1.1,2.475,2.462V240.606z    M333.477,211.444c0,1.362-1.1,2.462-2.475,2.462h-15.225c-1.375,0-2.475-1.1-2.475-2.462v-15.237c0-1.362,1.1-2.462,2.475-2.462   h15.225c1.375,0,2.475,1.1,2.475,2.462V211.444z M333.477,181.782c0,1.362-1.1,2.475-2.475,2.475h-15.225   c-1.375,0-2.475-1.112-2.475-2.475v-15.237c0-1.362,1.1-2.463,2.475-2.463h15.225c1.375,0,2.475,1.101,2.475,2.463V181.782z    M333.477,152.133c0,1.362-1.1,2.462-2.475,2.462h-15.225c-1.375,0-2.475-1.1-2.475-2.462v-15.237c0-1.363,1.1-2.476,2.475-2.476   h15.225c1.375,0,2.475,1.113,2.475,2.476V152.133z" fill="#344E5D" fill-rule="evenodd" id="clip"/></g><g/><g/><g/><g/><g/><g/></svg>