<?xml version="1.0" ?><!DOCTYPE svg  PUBLIC '-//W3C//DTD SVG 1.1//EN'  'http://www.w3.org/Graphics/SVG/1.1/DTD/svg11.dtd'><svg enable-background="new 0 0 512 512" height="512px" id="Calque_1" version="1.1" viewBox="0 0 512 512" width="512px" xml:space="preserve" xmlns="http://www.w3.org/2000/svg" xmlns:xlink="http://www.w3.org/1999/xlink"><g><path d="M512,256.003c0,141.369-114.612,255.994-256,255.994S0,397.372,0,256.003c0-141.388,114.612-256,256-256   S512,114.616,512,256.003z" fill="#87BEC5"/><g id="aircraft"><path clip-rule="evenodd" d="M186.875,368.021c0-3.625-0.15-7.25,0.025-10.85    c0.325-5.949,3.175-10.625,7.925-14.175c12.075-9.075,24.125-18.149,36.25-27.175c1.675-1.25,2.425-2.375,2.15-4.65    c-1.25-10.55-2.275-21.15-3.3-31.75c-0.2-2.275-1.65-1.75-2.925-1.475c-6.95,1.449-13.925,2.975-20.875,4.425    c-18.175,3.825-36.35,7.649-54.525,11.425c-5.2,1.075-10.4,2.176-15.625,3.1c-5.9,1.051-9.65-2-9.825-8    c-0.15-4.424,0-8.85-0.1-13.299c-0.2-7.469,4.075-12.119,10.025-15.494c9.425-5.35,19-10.425,28.525-15.625    c18.725-10.225,37.4-20.5,56.175-30.65c2.1-1.15,2.575-2.45,2.4-4.75c-0.75-10.325-2.625-20.625-1.375-31.025    c1.7-14.125,5.275-27.675,13.375-39.625c1.8-2.675,3.975-5.2,6.4-7.325c9.7-8.425,20.85-7.525,29.85,1.225    c5.825,5.675,9.425,12.775,12.226,20.25c4.975,13.3,7.225,27,6.1,41.2c-0.425,5.225-0.85,10.425-1.375,15.625    c-0.225,2.025,0.2,3.325,2.175,4.35c17.75,9.55,35.425,19.175,53.125,28.775c10.7,5.85,21.425,11.65,32.075,17.625    c6.825,3.825,10.7,9.444,10.15,17.669c-0.25,3.699,0.024,7.4-0.051,11.125c-0.149,5.5-4.75,9.125-10.125,8.025    c-19.774-4.125-39.524-8.226-59.3-12.375c-10.675-2.226-21.325-4.476-32-6.701c-1.625-0.35-2.649-0.25-2.85,1.951    c-1,10.774-2.226,21.524-3.226,32.299c-0.1,0.926,0.5,2.301,1.25,2.875c12.4,9.375,24.825,18.701,37.325,27.951    c5.351,3.949,7.925,9.299,8.101,15.774c0.175,6.774,0.074,13.575,0,20.351c-0.051,5.074-3.15,7.074-7.75,4.899    c-16.551-7.875-33.15-15.625-49.575-23.774c-7.9-3.951-15.35-4.201-23.275-0.275c-16.125,7.949-32.4,15.625-48.6,23.4    c-0.8,0.399-1.6,0.824-2.45,1.125c-3.4,1.199-6.15-0.4-6.35-3.976c-0.225-4.149-0.05-8.325-0.05-12.476    C186.95,368.021,186.9,368.021,186.875,368.021z" fill="#E6E7E8" fill-rule="evenodd"/><path clip-rule="evenodd" d="M267.25,360.021c0.15,0.051,0.3,0.125,0.45,0.201    c3.399,1.674,6.825,3.299,10.225,4.949c3.976-5.65,8.55-17.5,14.05-40.9c-4.125-3.1-8.25-6.149-12.375-9.25    c-0.75-0.574-1.35-1.949-1.25-2.875c1-10.774,2.226-21.524,3.226-32.299c0.2-2.201,1.225-2.301,2.85-1.951    c5.425,1.125,10.875,2.275,16.3,3.426c0.851-4.65,1.7-9.45,2.575-14.568c2.2-12.851,4.375-27.625,5.976-42.851    c-6.25-3.375-12.476-6.775-18.726-10.15c-1.975-1.025-2.399-2.325-2.175-4.35c0.525-5.2,0.95-10.4,1.375-15.625    c1.125-14.2-1.125-27.9-6.1-41.2c-2.801-7.475-6.4-14.575-12.226-20.25c-5.024-4.875-10.725-7.225-16.475-6.95    c6.75,5,23.1,21.375,21.45,61.75C274.525,233.229,268.35,340.997,267.25,360.021z" fill="#A8BEC6" fill-rule="evenodd" opacity="0.44"/><path clip-rule="evenodd" d="M172.975,245.053c0,8,6.5,14.475,14.475,14.475l0,0    c8,0,14.5-6.475,14.5-14.475v-25.85c0-8-6.5-14.475-14.5-14.475l0,0c-7.975,0-14.475,6.475-14.475,14.475V245.053z" fill="#80929B" fill-rule="evenodd"/><path clip-rule="evenodd" d="M309.575,245.053c0,8,6.5,14.475,14.5,14.475l0,0    c7.975,0,14.475-6.475,14.475-14.475v-25.85c0-8-6.5-14.475-14.475-14.475l0,0c-8,0-14.5,6.475-14.5,14.475V245.053z" fill="#80929B" fill-rule="evenodd"/><path clip-rule="evenodd" d="M309.575,245.053c0,8,6.5,14.475,14.5,14.475l0,0    c7.975,0,14.475-6.475,14.475-14.475v-25.85c0-8-6.5-14.475-14.475-14.475l0,0c-8,0-14.5,6.475-14.5,14.475V245.053z" fill="#80929B" fill-rule="evenodd"/><path clip-rule="evenodd" d="M338.55,219.203c0-6.325-4.075-11.625-9.7-13.6    c2.9,3,6,8.325,6,17.725c0,17.6,0,25.35,0,25.35l3.625-2.975c0.025-0.225,0.075-0.425,0.075-0.65V219.203z" fill="#5C717C" fill-rule="evenodd"/><path clip-rule="evenodd" d="M201.95,219.203c0-6.325-4.075-11.625-9.7-13.6    c2.9,3,6,8.325,6,17.725c0,17.6,0,25.35,0,25.35l3.625-2.975c0.025-0.225,0.075-0.425,0.075-0.65V219.203z" fill="#5C717C" fill-rule="evenodd"/><path clip-rule="evenodd" d="M223.175,209.078c0.175,2.3-0.3,3.6-2.4,4.75    c-18.775,10.15-37.45,20.425-56.175,30.65c-9.525,5.2-19.1,10.275-28.525,15.625c-5.95,3.375-10.225,8.025-10.025,15.494    c0.1,4.449-0.05,8.875,0.1,13.299c0.175,6,3.925,9.051,9.825,8c5.225-0.924,10.425-2.024,15.625-3.1    c18.175-3.775,36.35-7.6,54.525-11.425c6.95-1.45,13.925-2.976,20.875-4.425c1.175-0.25,2.4-0.6,2.8,1.05" fill="#E2574C" fill-rule="evenodd"/><path clip-rule="evenodd" d="M288.4,209.178c-0.176,2.3,0.3,3.6,2.399,4.75    c18.775,10.15,37.45,20.4,56.175,30.65c9.5,5.2,19.101,10.275,28.525,15.625c5.95,3.375,10.225,8.025,10.025,15.494    c-0.101,4.425,0.05,8.875-0.075,13.3c-0.2,6-3.95,9.05-9.851,8c-5.225-0.925-10.425-2.024-15.625-3.101    c-18.175-3.799-36.35-7.6-54.524-11.424c-6.976-1.451-13.925-2.976-20.9-4.426c-1.149-0.25-2.375-0.6-2.774,1.051" fill="#E2574C" fill-rule="evenodd"/><path clip-rule="evenodd" d="M233.25,311.771c0.05,1.851-0.65,2.926-2.175,4.051    c-12.125,9.025-24.175,18.1-36.25,27.175c-4.75,3.55-7.6,8.226-7.925,14.175c-0.175,3.6-0.025,7.225-0.025,10.85    c0.025,0,0.075,0,0.1,0c0,4.15-0.175,8.326,0.05,12.476c0.2,3.575,2.95,5.175,6.35,3.976c0.85-0.301,1.65-0.726,2.45-1.125    c14.6-7,29.225-13.951,43.75-21.051L233.25,311.771z" fill="#E2574C" fill-rule="evenodd"/><path clip-rule="evenodd" d="M317.275,383.997c4.6,2.175,7.699,0.175,7.75-4.899    c0.074-6.775,0.175-13.576,0-20.351c-0.176-6.476-2.75-11.825-8.101-15.774c-12.5-9.25-24.925-18.576-37.325-27.951    c-0.625-0.475-1.024-1.449-1.125-2.324l-6.25,49.699C287.175,369.747,302.225,376.848,317.275,383.997z" fill="#E2574C" fill-rule="evenodd"/><path d="M243.825,164.378c0,0-0.025,0.3-0.125,0.825c-0.05,0.55-0.05,1.35-0.15,2.275    c-0.025,1.975-0.2,4.675-0.15,7.95c0.025,1.65-0.1,3.35-0.05,5.225c0.05,1.85,0.1,3.8,0.05,5.825c-0.075,4,0.1,8.325-0.1,12.625    c-0.125,2.15,0,4.325-0.1,6.45c-0.025,2.125-0.125,4.225-0.275,6.275c-0.4,4.075-0.4,7.9-0.825,11.225    c-0.65,6.6-1.9,11.15-1.9,11.15s-1.875-4.25-3.425-10.825c-0.8-3.275-1.725-7.1-2.1-11.3c-0.375-4.175-0.725-8.65-0.7-13.125    c0.15-2.275,0.3-4.525,0.425-6.725c0.2-2.225,0.325-4.375,0.8-6.5c0.375-2.1,0.85-4.1,1.3-6c0.325-1.9,1.125-3.7,1.675-5.325    c1.05-3.25,2.6-5.8,3.65-7.525C243,165.128,243.825,164.378,243.825,164.378z" fill="#FFFFFF"/><path clip-rule="evenodd" d="M251.575,383.747c0,1.649,1.85,3,4.15,3l0,0    c2.275,0,4.15-1.351,4.15-3v-39.524c0-1.65-1.875-3-4.15-3l0,0c-2.3,0-4.15,1.35-4.15,3V383.747z" fill="#80929B" fill-rule="evenodd"/><path clip-rule="evenodd" d="M223.175,209.078c0.175,2.3-0.3,3.6-2.4,4.75    c-18.775,10.15-37.45,20.425-56.175,30.65c-9.525,5.2-19.1,10.275-28.525,15.625c-5.95,3.375-10.225,8.025-10.025,15.494    c0.075,2.85,0.05,5.699,0.05,8.524l101.05-33.194L223.175,209.078z" fill="#2D4453" fill-rule="evenodd"/><path clip-rule="evenodd" d="M288.45,208.979c-0.175,2.3,0.274,3.625,2.375,4.75    c18.774,10.15,37.475,20.425,56.2,30.65c9.5,5.2,19.074,10.275,28.524,15.625c5.925,3.375,10.226,8.024,10.025,15.493    c-0.075,2.851-0.05,5.7-0.05,8.524l-101.051-33.168L288.45,208.979z" fill="#2D4453" fill-rule="evenodd"/><path clip-rule="evenodd" d="M283.2,151.479c-2.75-7.075-6.25-13.75-11.775-19.15    c-9-8.75-20.15-9.65-29.85-1.225c-2.425,2.125-4.6,4.65-6.4,7.325c-2.875,4.225-5.15,8.7-7,13.275    C241.825,146.003,261,142.528,283.2,151.479z" fill="#2D4453" fill-rule="evenodd"/><path clip-rule="evenodd" d="M266.975,128.854    c-1.125-0.725-2.25-1.375-3.399-1.875c-0.125-0.05-0.275-0.075-0.4-0.15c-1.3-0.5-2.575-0.925-3.899-1.15    c-0.025-0.025-0.075-0.025-0.075-0.025c-1.425-0.25-2.825-0.35-4.25-0.275c3.875,2.875,10.925,9.575,15.925,22.375    c4,0.875,8.075,2.025,12.325,3.725c-0.025-0.05-0.05-0.1-0.05-0.125c-0.65-1.7-1.351-3.35-2.125-4.975    c-0.15-0.325-0.325-0.625-0.476-0.95c-0.675-1.35-1.35-2.7-2.125-4c-0.399-0.7-0.875-1.35-1.325-2    c-0.6-0.925-1.175-1.85-1.824-2.725c-1.176-1.525-2.45-3-3.851-4.375c-1.225-1.175-2.475-2.2-3.774-3.075    C267.425,129.078,267.2,128.979,266.975,128.854z" fill="#18262D" fill-rule="evenodd" opacity="0.44"/></g></g><g/><g/><g/><g/><g/><g/></svg>