<?xml version="1.0" ?><!DOCTYPE svg  PUBLIC '-//W3C//DTD SVG 1.1//EN'  'http://www.w3.org/Graphics/SVG/1.1/DTD/svg11.dtd'><svg enable-background="new 0 0 512 512" height="512px" id="Calque_1" version="1.1" viewBox="0 0 512 512" width="512px" xml:space="preserve" xmlns="http://www.w3.org/2000/svg" xmlns:xlink="http://www.w3.org/1999/xlink"><g><path d="M512,256c0,141.388-114.612,256-256,256S0,397.388,0,256S114.612,0,256,0S512,114.612,512,256z" fill="#E1695C"/><g id="user_3_"><path d="M313.938,216.663c0,0-11.25,50.212,12.975,68.387c0,0-4.75,18.088-26.6,13.813    c-21.875-4.3-26.2-20.75-26.2-20.75l11.25-42.4L313.938,216.663z" fill="#533A2D"/><path d="M200.038,202.813c0,0,11.625,58.612-13.4,79.825c0,0,4.9,21.112,27.475,16.1    c22.575-4.987,27.05-24.188,27.05-24.188l-11.6-49.512L200.038,202.813z" fill="#453129"/><path d="M229.712,257.838c0,0-0.625,29.438-14.4,40.699c0,0,43.825,33.2,85.775,0.625c0,0-16.275-8.75-19.4-37.563    C278.563,232.8,229.712,257.838,229.712,257.838z" fill="#E6B984"/><path d="M281.987,264.1l-12.774-15.987c-13.25-2.237-32.875,6.55-38.15,9.075c-0.475,0.35-0.925,0.725-1.375,1.1    c-0.05,1.551-0.35,6.95-1.575,13.525c7.925,4.475,27,13.275,32.025,11.7c5.075-1.575,16.825-8.487,23.375-11.7    C282.912,269.438,282.388,266.862,281.987,264.1z" fill="#D8A97C"/><path d="M384.813,386.612c-3.025-16.475-17.275-60.649-84.5-87.75c0,0-15.05,11.788-45.4,9.7    c-11.7-0.8-21.15-3.575-39.6-10.025c0,0-79.55,32.65-88.125,88.075H384.813z" fill="#FEDB52"/><path d="M203.888,303.925c8.2,9.888,37.775,44.263,52.7,45.388c14.75,1.125,44.575-36.013,52.725-46.563    c-2.9-1.325-5.875-2.625-9-3.888c0,0-15.05,11.788-45.4,9.7c-11.7-0.8-21.15-3.575-39.6-10.025    C215.313,298.537,210.837,300.412,203.888,303.925z" fill="#FBF7C1"/><path d="M237.862,131.375c0,0-68.875,8.138-29.45,91.413c0,0,13.8,44.45,45.725,56.35    c0,0,4.375,2.513,10.649-0.625c6.25-3.125,36.875-27.975,39.375-51.125c0,0,27.601-26.525,17.575-65.325    C311.737,123.237,245.388,119.475,237.862,131.375z" fill="#F0D2B1"/><path d="M206.438,213.4c0.625,1.438,1.3,2.888,1.975,4.375c0,0,0.05,0.113,0.1,0.275    c5.225-11.537,21.025-43.938,36.4-51.612c0,0,19.4,16.275,33.175,21.288c13.75,5,25.899,17.525,25.274,41.012    c0.375-17.075,0.375-62.925,0.375-62.925S203.913,73.788,206.438,213.4z" fill="#E5B680" opacity="0.72"/><path d="M248.038,162.862c0,0,87.2-38.225,1.1-36.7c-5.625,0.975-9.725,2.8-11.275,5.325    c0,0-68.875,8.325-29.45,93.475C206.388,185.263,248.038,162.862,248.038,162.862z" fill="#453129"/><path d="M321.737,162.063c-10-38.825-76.35-42.587-83.875-30.688c0,0,1.4,41.325,37.075,50.087    c35.7,8.775,27.4,54.462,27.4,54.462S331.763,200.862,321.737,162.063z" fill="#533A2D"/><path d="M221.112,150.163c0,0-1.2,1.413-3,3.55c-0.875,1.063-1.925,2.275-2.95,3.6    c-0.55,0.663-1.05,1.375-1.575,2.087c-0.575,0.7-1.05,1.438-1.575,2.175c-0.5,0.737-0.975,1.487-1.45,2.225    c-0.425,0.763-0.925,1.488-1.275,2.213c-0.35,0.775-0.8,1.462-1.075,2.175c-0.275,0.7-0.6,1.362-0.85,2    c-0.175,0.638-0.4,1.225-0.575,1.737c-0.175,0.538-0.25,1.013-0.375,1.413c-0.2,0.775-0.325,1.238-0.325,1.238    s-0.075-0.463-0.175-1.288c-0.025-0.4-0.125-0.925-0.075-1.5c0.025-0.575,0.075-1.225,0.15-1.95    c0.075-0.725,0.275-1.475,0.45-2.288c0.2-0.813,0.525-1.612,0.85-2.462c0.325-0.837,0.75-1.675,1.175-2.5    c0.475-0.825,0.975-1.65,1.475-2.425c0.6-0.763,1.1-1.563,1.725-2.275c0.6-0.7,1.225-1.388,1.85-2.025    c0.6-0.65,1.25-1.2,1.85-1.75c0.6-0.55,1.2-1.012,1.75-1.45C219.362,150.962,221.112,150.163,221.112,150.163z" fill="#FBF7C1" opacity="0.65"/><path d="M300.313,298.862c0,0-33.125,40.726-41.35,45.476c-8.226,4.774-44.575-45.325-44.575-45.325l9.3-4.125" fill="#E6B984"/></g></g><g/><g/><g/><g/><g/><g/></svg>