<?xml version="1.0" ?><!DOCTYPE svg  PUBLIC '-//W3C//DTD SVG 1.1//EN'  'http://www.w3.org/Graphics/SVG/1.1/DTD/svg11.dtd'><svg enable-background="new 0 0 512 512" height="512px" id="Calque_1" version="1.1" viewBox="0 0 512 512" width="512px" xml:space="preserve" xmlns="http://www.w3.org/2000/svg" xmlns:xlink="http://www.w3.org/1999/xlink"><g><path d="M512,256.003c0,141.367-114.599,255.991-255.991,255.991C114.623,511.994,0,397.37,0,256.003   C0,114.617,114.623,0.006,256.009,0.006C397.401,0.006,512,114.617,512,256.003z" fill="#87BEC5"/><g id="brush"><path d="M269.853,216.392c12.875-34.3,6.125-64.625,2.75-77.975c-1.8-7.175-7.181-9.8-11.756-10.7v-0.15    l-1.226-0.05c-1.375-0.2-2.625-0.225-3.649-0.225c-1,0-2.25,0.025-3.625,0.225l-1.225,0.05v0.15c-4.575,0.9-9.95,3.525-11.75,10.7    c-3.375,13.35-10.125,43.675,2.75,77.975c12.875,34.324-0.925,87.03-0.925,87.03h9.325l0,0h5.45h5.475l0,0h9.331    C270.777,303.422,256.972,250.716,269.853,216.392z M255.997,156.292c-4.25,0-7.725-3.45-7.725-7.7    c0-4.25,3.476-7.699,7.725-7.699s7.7,3.45,7.7,7.699C263.696,152.842,260.246,156.292,255.997,156.292z" fill="#E9A02D"/><path d="M251.722,148.592c0-3.675,2.55-6.725,5.976-7.5c-0.551-0.125-1.125-0.2-1.701-0.2    c-4.25,0-7.725,3.45-7.725,7.699c0,4.25,3.476,7.7,7.725,7.7c0.575,0,1.15-0.075,1.701-0.2    C254.271,155.292,251.722,152.242,251.722,148.592z" fill="#D68928"/><path d="M272.603,138.417c-1.8-7.175-7.181-9.8-11.756-10.7v-0.15c0,0,6.075,4.05,7.75,11    c2.806,11.6,9.806,48.799-3.4,77.999c-9.225,20.399-3.649,63.905,2.075,86.855h3.506c0,0-13.806-52.706-0.925-87.03    C282.728,182.092,275.978,151.767,272.603,138.417z" fill="#996026" opacity="0.44"/><path d="M223.472,314.972c0,5.675,4.6,10.274,10.275,10.274h44.48c5.675,0,10.274-4.6,10.274-10.274v-9.825    c0-5.675-4.6-10.275-10.274-10.275h-44.48c-5.675,0-10.275,4.601-10.275,10.275V314.972z" fill="#D68928"/><path d="M302.202,329.771v-19.525c0-5.649-4.6-10.25-10.274-10.25h-71.881c-5.649,0-10.25,4.601-10.25,10.25    v19.525H302.202z" fill="#2D4453"/><polygon fill="#D1D3D4" points="209.797,323.946 209.797,384.695 218.847,384.695 219.422,365.171 220.672,384.695     229.447,384.695 230.522,366.871 231.047,384.695 235.047,384.695 236.797,373.721 236.797,384.695 245.547,384.695     247.347,353.195 248.122,384.695 255.622,384.695 256.771,360.896 258.097,384.695 263.821,384.695 265.321,364.021     265.871,384.695 281.253,384.695 280.453,352.046 283.228,384.695 288.428,384.695 288.428,358.896 291.877,384.695     302.202,384.695 302.202,323.946   "/><rect fill="#80929B" height="10.7" width="92.405" x="209.797" y="323.946"/></g></g><g/><g/><g/><g/><g/><g/></svg>