<?xml version="1.0" ?><!DOCTYPE svg  PUBLIC '-//W3C//DTD SVG 1.1//EN'  'http://www.w3.org/Graphics/SVG/1.1/DTD/svg11.dtd'><svg enable-background="new 0 0 512 512" height="512px" id="Calque_1" version="1.1" viewBox="0 0 512 512" width="512px" xml:space="preserve" xmlns="http://www.w3.org/2000/svg" xmlns:xlink="http://www.w3.org/1999/xlink"><g><path d="M512,256c0,141.388-114.612,256-256,256S0,397.388,0,256S114.612,0,256,0S512,114.612,512,256z" fill="#35707F"/><g id="Bottle"><path d="M264.781,156.487l25.394,38.575v179.95h-68.356v-179.95l25.406-38.575H264.781 M270.037,146.737h-28.075    l-28.519,43.3c-0.763,0-1.388,0.55-1.388,1.225v192.3c0,0.675,0.625,1.225,1.388,1.225h85.106c0.775,0,1.4-0.55,1.4-1.225v-192.3    c0-0.675-0.625-1.225-1.4-1.225L270.037,146.737L270.037,146.737z" fill="#E6E7E8"/><rect fill="#27AAE1" height="157.476" width="53.719" x="229.144" y="210.237"/><rect fill="#1C75BC" height="157.476" opacity="0.27" width="18.925" x="263.938" y="210.237"/><rect fill="#D1D3D4" height="4.9" width="31.181" x="240.131" y="141.862"/><rect fill="#27AAE1" height="14.65" width="27.925" x="241.962" y="127.212"/><rect fill="#1C75BC" height="14.65" opacity="0.44" width="9.007" x="260.881" y="127.212"/><path d="M243.794,224.888c0,0,1.225,2.25,2.094,5.625c0.925,3.375,1.587,7.875,1.568,12.35    c0.025,4.525-0.637,9-1.556,12.375c-0.875,3.375-2.106,5.625-2.106,5.625s-1.231-2.25-2.1-5.625    c-0.931-3.375-1.587-7.85-1.563-12.375c-0.013-4.475,0.644-8.975,1.569-12.35C242.569,227.138,243.794,224.888,243.794,224.888z" fill="#FFFFFF"/><path d="M246.231,290.787c0,1.7-1.356,3.051-3.044,3.051s-3.056-1.351-3.056-3.051c0-1.675,1.369-3.05,3.056-3.05    S246.231,289.112,246.231,290.787z" fill="#1C75BC"/><path d="M251.119,305.438c0,1.675-1.362,3.05-3.05,3.05s-3.05-1.375-3.05-3.05s1.363-3.05,3.05-3.05    S251.119,303.763,251.119,305.438z" fill="#1C75BC"/><path d="M275.55,256.587c0,1.675-1.375,3.05-3.05,3.05c-1.7,0-3.05-1.375-3.05-3.05c0-1.675,1.35-3.05,3.05-3.05    C274.175,253.538,275.55,254.913,275.55,256.587z" fill="#36C0F0"/><path d="M271.875,272.487c0,1.675-1.375,3.05-3.05,3.05c-1.694,0-3.063-1.375-3.063-3.05s1.368-3.05,3.063-3.05    C270.5,269.438,271.875,270.813,271.875,272.487z" fill="#36C0F0"/><path d="M251.119,349.412c0,1.676-1.362,3.051-3.05,3.051s-3.05-1.375-3.05-3.051c0-1.699,1.363-3.05,3.05-3.05    S251.119,347.713,251.119,349.412z" fill="#1C75BC"/></g></g><g/><g/><g/><g/><g/><g/></svg>