<?xml version="1.0" ?><!DOCTYPE svg  PUBLIC '-//W3C//DTD SVG 1.1//EN'  'http://www.w3.org/Graphics/SVG/1.1/DTD/svg11.dtd'><svg enable-background="new 0 0 512 512" height="512px" id="Calque_1" version="1.1" viewBox="0 0 512 512" width="512px" xml:space="preserve" xmlns="http://www.w3.org/2000/svg" xmlns:xlink="http://www.w3.org/1999/xlink"><g><path d="M511.975,256.025C511.975,397.387,397.387,512,256,512C114.626,512,0.025,397.387,0.025,256.025   C0.025,114.639,114.626,0,256,0C397.387,0,511.975,114.639,511.975,256.025z" fill="#35707F"/><g id="staircase"><rect fill="#EEB144" height="259" width="31.147" x="307.22" y="126.5"/><rect fill="#EFC84A" height="259" width="7.999" x="307.22" y="126.5"/><polygon fill="#4B3014" opacity="0.1" points="338.367,165.709 311.319,143.436 303.971,152.373 338.367,180.695   "/><polygon fill="#4B3014" opacity="0.1" points="338.367,219.141 311.319,196.868 303.971,205.805 338.367,234.14   "/><polygon fill="#4B3014" opacity="0.1" points="338.367,272.586 311.319,250.313 303.971,259.237 338.367,287.572   "/><polygon fill="#4B3014" opacity="0.1" points="338.367,326.006 311.319,303.732 303.971,312.657 338.367,341.004   "/><polygon fill="#4B3014" opacity="0.1" points="338.367,385.4 338.367,379.45 311.319,357.178 303.971,366.102 327.393,385.4   "/><rect fill="#D98D39" height="11.574" width="113.039" x="198.631" y="143.336"/><rect fill="#D98D39" height="11.573" width="113.039" x="198.631" y="196.769"/><rect fill="#D98D39" height="11.574" width="113.039" x="198.631" y="250.213"/><rect fill="#D98D39" height="11.562" width="113.039" x="198.631" y="303.646"/><rect fill="#D98D39" height="11.573" width="113.039" x="198.631" y="357.078"/><rect fill="#EEB144" height="259" width="31.147" x="173.633" y="126.5"/><rect fill="#EFC84A" height="259" width="8.024" x="173.633" y="126.5"/></g></g><g/><g/><g/><g/><g/><g/></svg>