<?xml version="1.0" ?><!DOCTYPE svg  PUBLIC '-//W3C//DTD SVG 1.1//EN'  'http://www.w3.org/Graphics/SVG/1.1/DTD/svg11.dtd'><svg enable-background="new 0 0 512 512" height="512px" id="Calque_1" version="1.1" viewBox="0 0 512 512" width="512px" xml:space="preserve" xmlns="http://www.w3.org/2000/svg" xmlns:xlink="http://www.w3.org/1999/xlink"><g><path d="M512,256c0,141.388-114.612,256-256,256S0,397.388,0,256S114.612,0,256,0S512,114.612,512,256z" fill="#D6D9B8"/><g id="burn_1_"><g><path d="M173.319,377.525c-4.469-7.726-4.4-16.2,0.019-19.375l-0.019-0.025l149.019-86.05l0.063,0.1     c4.949-1.75,11.975,2.425,16.287,9.875c4.313,7.5,4.4,15.65,0.412,19.075l0.051,0.075l-149.007,86.05l-0.019-0.025     C185.163,389.45,177.794,385.275,173.319,377.525z" fill="#955524"/><path d="M191.25,367.175c4.65,8.05,4.4,16.9-0.556,19.75c-4.95,2.851-12.725-1.35-17.375-9.399     c-4.638-8.025-4.394-16.875,0.563-19.726C178.825,354.925,186.606,359.15,191.25,367.175z" fill="#FFE180"/><g><g><g><line fill="#AB6127" x1="332.612" x2="204.05" y1="296.775" y2="371"/><path d="M205.337,373.25L333.9,299.025c1.25-0.726,1.925-1.875,1.5-2.601c-0.426-0.725-1.763-0.725-3-0.024        l-128.569,74.225c-1.237,0.725-1.9,1.9-1.481,2.625C202.763,373.95,204.106,373.975,205.337,373.25z" fill="#AB6127"/></g></g><g><g><line fill="#AB6127" x1="327.75" x2="199.188" y1="288.375" y2="362.6"/><path d="M200.487,364.85L329.05,290.6c1.237-0.699,1.675-2.274,0.95-3.524c-0.725-1.226-2.3-1.65-3.525-0.95        L197.9,360.35c-1.237,0.726-1.663,2.301-0.95,3.551C197.669,365.125,199.244,365.55,200.487,364.85z" fill="#AB6127"/></g></g><g><g><line fill="#AB6127" x1="322.362" x2="193.8" y1="279.025" y2="353.25"/><path d="M194.55,354.575l128.575-74.25c1.225-0.7,1.9-1.875,1.475-2.601c-0.412-0.725-1.75-0.725-3,0        L193.038,351.95c-1.231,0.725-1.894,1.875-1.481,2.6C191.975,355.275,193.319,355.275,194.55,354.575z" fill="#AB6127"/></g></g></g><g><path d="M179.481,374.4c1.606,2.774,4.081,4.35,5.525,3.524c1.45-0.85,1.313-3.774-0.294-6.55      c-1.612-2.8-4.081-4.375-5.531-3.525C177.744,368.675,177.869,371.6,179.481,374.4z" fill="#BCA760"/><path d="M179.181,367.85c1.45-0.85,3.919,0.726,5.531,3.525c1.606,2.775,1.744,5.7,0.294,6.55      c-1.444,0.825-3.919-0.75-5.525-3.524C177.869,371.6,177.744,368.675,179.181,367.85 M177.894,365.6      c-2.813,1.625-3.094,5.875-0.65,10.075c2.431,4.226,6.244,6.125,9.05,4.5c2.818-1.625,3.094-5.875,0.656-10.1      C184.513,365.85,180.7,363.975,177.894,365.6L177.894,365.6z" fill="#EFD378"/></g><path d="M173.337,358.15l-0.019-0.025l149.019-86.05l0.063,0.1c2.399-0.85,5.324-0.3,8.175,1.375     L183.112,358.7c0,0-11.512,7.25-2.543,26.8c-2.688-1.775-5.25-4.5-7.25-7.975C168.85,369.8,168.919,361.325,173.337,358.15z" fill="#4B3014" opacity="0.17"/></g><path d="M232.788,362.625l32.119-18.525l-8.719-12.375l-17.95-9.375c0,0-1.037-0.125-2.619-0.199    l-14.85,8.574C223.194,333.9,234.038,348.925,232.788,362.625z" fill="#4B3014" opacity="0.44"/><g><path d="M338.675,377.525c4.476-7.726,4.413-16.2-0.013-19.375l0.025-0.025l-149.025-86.05l-0.056,0.1     c-4.944-1.75-11.969,2.425-16.288,9.875c-4.313,7.5-4.4,15.65-0.425,19.075l-0.043,0.075l149.012,86.05l0.013-0.025     C326.85,389.45,334.213,385.275,338.675,377.525z" fill="#955524"/><path d="M320.75,367.175c-4.65,8.05-4.4,16.9,0.55,19.75c4.95,2.851,12.737-1.35,17.375-9.399     c4.65-8.025,4.4-16.875-0.55-19.726C333.175,354.925,325.4,359.15,320.75,367.175z" fill="#FFE180"/><g><g><g><line fill="#AB6127" x1="179.388" x2="307.95" y1="296.775" y2="371"/><path d="M306.65,373.25l-128.557-74.225c-1.244-0.726-1.906-1.875-1.487-2.601        c0.418-0.725,1.756-0.725,3-0.024l128.568,74.225c1.226,0.725,1.9,1.9,1.476,2.625C309.25,373.95,307.9,373.975,306.65,373.25        z" fill="#AB6127"/></g></g><g><g><line fill="#AB6127" x1="184.244" x2="312.8" y1="288.375" y2="362.6"/><path d="M311.525,364.85L182.95,290.6c-1.238-0.699-1.663-2.274-0.95-3.524c0.712-1.226,2.3-1.65,3.538-0.95        L314.1,360.35c1.238,0.726,1.676,2.301,0.95,3.551C314.325,365.125,312.75,365.55,311.525,364.85z" fill="#AB6127"/></g></g><g><g><line fill="#AB6127" x1="189.638" x2="318.2" y1="279.025" y2="353.25"/><path d="M317.45,354.575l-128.569-74.25c-1.231-0.7-1.9-1.875-1.488-2.601c0.419-0.725,1.756-0.725,2.994,0        L318.95,351.95c1.25,0.725,1.912,1.875,1.5,2.6C320.025,355.275,318.688,355.275,317.45,354.575z" fill="#AB6127"/></g></g></g><g><path d="M332.525,374.4c-1.601,2.774-4.075,4.35-5.525,3.524c-1.45-0.85-1.325-3.774,0.3-6.55      c1.601-2.8,4.075-4.375,5.525-3.525C334.263,368.675,334.125,371.6,332.525,374.4z" fill="#BCA760"/><path d="M332.825,367.85c1.438,0.825,1.3,3.75-0.3,6.551c-1.601,2.774-4.075,4.35-5.525,3.524      c-1.45-0.85-1.325-3.774,0.3-6.55C328.9,368.575,331.375,367,332.825,367.85 M334.1,365.6c-2.8-1.625-6.612,0.25-9.05,4.476      c-2.438,4.225-2.162,8.475,0.65,10.1s6.625-0.274,9.063-4.5C337.2,371.475,336.925,367.225,334.1,365.6L334.1,365.6z" fill="#EFD378"/></g><path d="M338.662,358.15l0.025-0.025l-149.025-86.05l-0.056,0.1     c-2.413-0.85-5.325-0.3-8.175,1.375L328.9,358.7c0,0,11.5,7.25,2.537,26.8c2.675-1.775,5.237-4.5,7.237-7.975     C343.15,369.8,343.088,361.325,338.662,358.15z" fill="#4B3014" opacity="0.17"/></g><g><path d="M342.625,240.944c0,0-4.313,19.837-21.125,31.481c0,0,23.713-43.131,6.463-73.318     c0,0-5.788,34.313-19.913,33.675c-13.938-1.95-9.975-18.35-12.325-26.45c-2.024-6.962-8.774-10.337-10.762-11.2     c-0.15-0.075-0.338-0.175-0.563-0.3c-0.15-0.075-0.301-0.162-0.45-0.25c-2.101-1.175-6-3.688-8.275-7.112     c-0.075-0.1-0.125-0.188-0.175-0.263c-3.25-5.712-4.575-14.262,3.275-25.537c15.537-22.325,5.199-35.875,5.199-35.875     c-2.6-9.913,0,28.462-31.487,35.8c-23.181,5.4-20.168,20.862-16.969,28.625l-0.056,0.05c0,0,3.663,8.625,3.663,13.363     c0,0.487,0.031,0.775,0.094,0.913c-0.256,5.337-2.594,11.112-11.1,12.337c-3.237,0.25-14.85,0.45-23.487-8.7     c-2.05-3.712-1.712-8.075-0.006-12.525c2.225-5.825,1.587-10.55,1.244-12.25c-0.663-5.45-3.906-14.038-17.631-14.913     c-20.275-1.3,10.781,0,0,22.85c-10.781,22.862,3.019,47.013,3.019,47.013s4.744,7.762-1.725,12.5     c-6.475,4.75-11.65-13.363-12.944-21.563c-1.293-8.188-36.65,81.081,61.675,87.981c7.85,0.55,14.356,0.975,19.688,1.25     c2.831,0.824,6.781,1.375,12.225,1.55c24.05,0.774,45.237-21.7,54.95-33.925C335.987,275.875,343.05,261.381,342.625,240.944z      M251.744,313.175c-13.612-2.075-27.281-3.875-27.281-3.875s11.938,1.4,28.219,0.7     C252.094,311.05,251.719,312.125,251.744,313.175z" fill="#E27C3C"/><path d="M311.912,271.55c0,0-6.037,16.825-28.899,20.726c0,0,19.412-23.731,10.362-48.319     c-9.075-24.575-9.075-32.775-9.075-32.775s-14.649,25.013-7.75,44.425c6.9,19.394-9.493,28.894-9.493,28.894     s10.793-28.031-1.719-42.256c-12.513-14.237,3.887,9.913-18.544,40.106c0,0-10.356-6.899-9.919-23.73     c0,0-11.65,20.706-0.438,37.531c0,0-23.288-8.2-22.856-34.944c0.438-26.725-9.056-37.95-9.056-37.95s5.175,20.275-3.019,50.894     c-3.044,11.399-0.9,20.524,3.781,27.399l-0.119-0.024c11.65,16.399,23.943,16.399,29.119,15.949     c5.168-0.425,14.012,0.65,14.012,0.65c41.4,9.075,56.063-14,56.063-14c-4.487,3.6-15.337,6.15-21.537,7.375     C294.75,304.2,309.638,291.3,311.912,271.55z" fill="#FEDB52"/></g></g></g><g/><g/><g/><g/><g/><g/></svg>