<?xml version="1.0" ?><!DOCTYPE svg  PUBLIC '-//W3C//DTD SVG 1.1//EN'  'http://www.w3.org/Graphics/SVG/1.1/DTD/svg11.dtd'><svg enable-background="new 0 0 512 512" height="512px" id="Calque_1" version="1.1" viewBox="0 0 512 512" width="512px" xml:space="preserve" xmlns="http://www.w3.org/2000/svg" xmlns:xlink="http://www.w3.org/1999/xlink"><g><path d="M511.979,256.025C511.979,397.387,397.389,512,256.009,512C114.636,512,0.021,397.387,0.021,256.025   C0.021,114.639,114.636,0,256.009,0C397.389,0,511.979,114.639,511.979,256.025z" fill="#EBEEEF"/><g id="spanner"><path d="M374.092,338.379L244.698,204.143c1.825-5.687,2.825-11.749,2.825-18.048    c0-32.372-26.223-58.619-58.594-58.619c-5.674,0-11.124,0.812-16.324,2.3l31.222,33.171l-8.224,32.385l-30.322,8.236    l-32.797-33.297c-1.399,5.037-2.175,10.337-2.175,15.824c0,32.359,26.248,58.594,58.62,58.594c5.849,0,11.474-0.862,16.798-2.45    l129.119,133.962c5.35,5.524,12.474,8.324,19.623,8.324c6.799,0,13.623-2.525,18.897-7.625    C384.215,366.451,384.54,349.203,374.092,338.379z M363.768,367.151l-13.499,3.55L338.42,358.84l3.524-13.511l13.649-3.662    l11.849,11.849L363.768,367.151z" fill="#A7A9AC"/><polygon fill="#BCBEC0" opacity="0.27" points="222.325,167.571 203.827,162.946 195.603,195.331 165.28,203.567 223.875,223.091       "/><path d="M373.491,376.788c10.724-10.449,10.999-27.609,0.601-38.409L244.698,204.143    c1.825-5.687,2.825-11.749,2.825-18.048c0-32.372-26.223-58.619-58.594-58.619c-5.274,0-11.099,1-15.949,2.312l42.171,45.633    l8.725,47.67L342.67,345.142l12.924-3.475l11.849,11.849l-3.601,13.361L373.491,376.788z" fill="#939598"/></g></g><g/><g/><g/><g/><g/><g/></svg>