<?xml version="1.0" ?><!DOCTYPE svg  PUBLIC '-//W3C//DTD SVG 1.1//EN'  'http://www.w3.org/Graphics/SVG/1.1/DTD/svg11.dtd'><svg enable-background="new 0 0 512 512" height="512px" id="Calque_1" version="1.1" viewBox="0 0 512 512" width="512px" xml:space="preserve" xmlns="http://www.w3.org/2000/svg" xmlns:xlink="http://www.w3.org/1999/xlink"><g><path d="M511.979,256.016C511.979,397.385,397.375,512,256,512C114.625,512,0.022,397.385,0.022,256.016   C0.022,114.641,114.625,0,256,0C397.375,0,511.979,114.641,511.979,256.016z" fill="#EBEEEF"/><g id="garbage"><path d="M291.847,138.676v43.196h-71.681v-43.196H291.847 M299.696,126.89h-87.38    c-2.175,0-3.925,1.762-3.925,3.924v58.908c0,2.175,1.75,3.925,3.925,3.925h87.38c2.175,0,3.925-1.75,3.925-3.925v-58.908    C303.621,128.651,301.871,126.89,299.696,126.89L299.696,126.89z" fill="#5C717C"/><path d="M170.095,381.161c0,2.175,1.763,3.95,3.925,3.95H337.98c2.175,0,3.938-1.775,3.938-3.95V168.123    c0-2.162-1.763-3.924-3.938-3.924H174.02c-2.162,0-3.925,1.762-3.925,3.924V381.161z" fill="#A8BEC6"/><polygon fill="#80929B" opacity="0.5" points="170.582,182.672 341.418,190.709 341.418,168.123 170.582,168.123   "/><path d="M354.666,178.922v-25.535c0-2.15-1.749-3.913-3.924-3.913H161.258c-2.162,0-3.924,1.763-3.924,3.913    v25.535H354.666z" fill="#5C717C"/><g><path d="M302.671,208.382h-14.736c-2.175,0-3.925,1.762-3.925,3.925v141.381c0,2.15,1.75,3.925,3.925,3.925     h14.736c2.162,0,3.912-1.774,3.912-3.925V212.307C306.583,210.145,304.833,208.382,302.671,208.382z" fill="#5C717C"/><path d="M263.361,208.382h-14.723c-2.163,0-3.925,1.762-3.925,3.925v141.381c0,2.15,1.762,3.925,3.925,3.925     h14.723c2.176,0,3.938-1.774,3.938-3.925V212.307C267.299,210.145,265.537,208.382,263.361,208.382z" fill="#5C717C"/><path d="M224.078,208.382h-14.736c-2.163,0-3.912,1.762-3.912,3.925v141.381c0,2.15,1.75,3.925,3.912,3.925     h14.736c2.163,0,3.925-1.774,3.925-3.925V212.307C228.002,210.145,226.24,208.382,224.078,208.382z" fill="#5C717C"/></g><rect fill="#2D4453" height="4.4" opacity="0.72" width="11.6" x="291.797" y="144.988"/><rect fill="#2D4453" height="4.4" opacity="0.72" width="11.599" x="208.542" y="144.988"/></g></g><g/><g/><g/><g/><g/><g/></svg>