<?xml version="1.0" ?><!DOCTYPE svg  PUBLIC '-//W3C//DTD SVG 1.1//EN'  'http://www.w3.org/Graphics/SVG/1.1/DTD/svg11.dtd'><svg enable-background="new 0 0 512 512" height="512px" id="Calque_1" version="1.1" viewBox="0 0 512 512" width="512px" xml:space="preserve" xmlns="http://www.w3.org/2000/svg" xmlns:xlink="http://www.w3.org/1999/xlink"><g><path d="M512,256c0,141.386-114.599,255.997-255.991,255.997C114.623,511.997,0,397.386,0,256   S114.623,0.003,256.009,0.003C397.401,0.003,512,114.614,512,256z" fill="#A0D1DC"/><g id="pill"><path clip-rule="evenodd" d="M255.984,127.464c-32.813,0-59.425,26.612-59.425,59.437v68.062    c13.213,9.188,49.887,26.262,118.868,1.2v-69.262C315.428,154.076,288.803,127.464,255.984,127.464z" fill="#E6E7E8" fill-rule="evenodd"/><path clip-rule="evenodd" d="M196.56,254.962V325.1c0,32.824,26.612,59.437,59.425,59.437    c32.818,0,59.443-26.612,59.443-59.437v-68.937C246.447,281.225,209.772,264.15,196.56,254.962z" fill="#EE3533" fill-rule="evenodd"/><path clip-rule="evenodd" d="M216.847,333.312    c0,8.537,6.925,15.462,15.475,15.462l0,0c8.55,0,15.449-6.925,15.449-15.462V175.776c0-8.538-6.899-15.462-15.449-15.462l0,0    c-8.55,0-15.475,6.925-15.475,15.462V333.312z" fill="#F1F2F2" fill-rule="evenodd" opacity="0.44"/><path clip-rule="evenodd" d="M232.322,160.313    c-8.55,0-15.475,6.925-15.475,15.462v88.799c8.175,2.55,18.45,4.412,30.924,4.575v-93.375    C247.771,167.238,240.872,160.313,232.322,160.313z" fill="#FFFFFF" fill-rule="evenodd" opacity="0.86"/></g></g><g/><g/><g/><g/><g/><g/></svg>