<?xml version="1.0" ?><!DOCTYPE svg  PUBLIC '-//W3C//DTD SVG 1.1//EN'  'http://www.w3.org/Graphics/SVG/1.1/DTD/svg11.dtd'><svg enable-background="new 0 0 512 512" height="512px" id="Calque_1" version="1.1" viewBox="0 0 512 512" width="512px" xml:space="preserve" xmlns="http://www.w3.org/2000/svg" xmlns:xlink="http://www.w3.org/1999/xlink"><g><path d="M512,256c0,141.388-114.6,256-256.006,256C114.619,512,0,397.388,0,256S114.619,0,255.994,0   C397.4,0,512,114.612,512,256z" fill="#D6D9B8"/><g id="law"><path d="M242.344,359.05c0,7.088,5.75,12.838,12.85,12.838l0,0c7.1,0,12.85-5.75,12.85-12.838V137.388    c0-7.1-5.75-12.85-12.85-12.85l0,0c-7.1,0-12.85,5.75-12.85,12.85V359.05z" fill="#C49A6C"/><path d="M266.119,365.763c1.199-1.963,1.925-4.25,1.925-6.713V137.388    c0-7.1-5.75-12.85-12.85-12.85c-1.125,0-2.2,0.2-3.225,0.462c3.35,2.85,6.675,8.962,6.975,22.025c0.65,26.988,0,212.663,0,212.663    S261.869,362.487,266.119,365.763z" fill="#594A42" opacity="0.27"/><path d="M216.969,372.862c0,7.625,6.2,13.813,13.825,13.813h48.831c7.625,0,13.8-6.188,13.8-13.813l0,0    c0-7.638-6.175-13.813-13.8-13.813h-48.831C223.169,359.05,216.969,365.225,216.969,372.862L216.969,372.862z" fill="#726658"/><path d="M279.625,359.05h-12.807c7.632,0,13.807,6.175,13.807,13.813    c0,7.625-6.175,13.813-13.807,13.813h12.807c7.625,0,13.8-6.188,13.8-13.813C293.425,365.225,287.25,359.05,279.625,359.05z" fill="#3C2415" opacity="0.17"/><rect fill="#594A42" height="20.725" width="120.157" x="195.119" y="366.75"/><rect fill="#3C2415" height="20.725" opacity="0.44" width="28.15" x="287.125" y="366.75"/><g><path d="M220.944,294.8c-1.5,0-2.925-0.862-3.55-2.325l-41.75-97.012c-0.85-1.95,0.05-4.225,2-5.063     c1.975-0.85,4.225,0.05,5.075,2.013l41.75,97.012c0.85,1.95-0.05,4.226-2,5.063C221.969,294.7,221.444,294.8,220.944,294.8z" fill="#939598"/><path d="M136.744,294.8c-0.5,0-1.025-0.1-1.525-0.313c-1.95-0.837-2.85-3.112-2-5.063l41.75-97.012     c0.85-1.962,3.1-2.863,5.075-2.013c1.95,0.837,2.85,3.113,2,5.063l-41.75,97.012C139.669,293.938,138.244,294.8,136.744,294.8z" fill="#939598"/></g><g><path d="M375.225,267.8c-1.475,0-2.899-0.875-3.524-2.325l-41.775-97.012c-0.825-1.962,0.075-4.225,2.025-5.063     c1.95-0.85,4.225,0.05,5.075,2.013l41.75,97.012c0.85,1.95-0.051,4.226-2.025,5.063C376.25,267.7,375.75,267.8,375.225,267.8z" fill="#939598"/><path d="M291.05,267.8c-0.5,0-1.024-0.1-1.524-0.313c-1.95-0.837-2.851-3.112-2.025-5.063l41.775-97.012     c0.824-1.962,3.1-2.863,5.05-2.013c1.975,0.837,2.875,3.1,2.024,5.063l-41.75,97.012C293.975,266.925,292.55,267.8,291.05,267.8z     " fill="#939598"/></g><path d="M166.544,202.275c-2.9,0-5.675-1.65-7-4.45c-1.8-3.863-0.125-8.45,3.75-10.25    c93.7-43.6,178.506-27.613,182.056-26.913c4.176,0.825,6.9,4.875,6.075,9.05c-0.825,4.175-4.85,6.9-9.05,6.075    c-0.825-0.15-83.606-15.625-172.581,25.775C168.744,202.05,167.619,202.275,166.544,202.275z" fill="#594A42"/><g><path d="M259.693,168.275c0,2.488-2,4.5-4.5,4.5c-2.475,0-4.5-2.012-4.5-4.5c0-2.487,2.025-4.5,4.5-4.5     C257.693,163.775,259.693,165.788,259.693,168.275z" fill="#C49A6C"/></g><g><path d="M283.575,262.662c2.375,24.15,23.649,43.051,49.575,43.051c25.899,0,47.175-18.9,49.55-43.051H283.575z" fill="#414042"/></g><path d="M303.475,270.65c0.025,0.063,0.075,0.387,0.301,1.188c0.199,0.774,0.574,1.912,1.074,3.262    c1.025,2.7,2.65,6.275,4.875,9.513c1.125,1.612,2.325,3.2,3.625,4.525c1.25,1.399,2.575,2.537,3.775,3.462    c1.175,0.963,2.25,1.65,3.025,2.088c0.774,0.463,1.225,0.737,1.225,0.737s-0.5-0.162-1.35-0.438    c-0.875-0.25-2.101-0.675-3.525-1.35c-1.425-0.65-3.075-1.5-4.725-2.625c-1.676-1.075-3.351-2.425-4.926-3.862    c-3.225-2.875-5.925-6.301-7.75-9.025c-0.925-1.35-1.649-2.537-2.125-3.4c-0.475-0.85-0.774-1.5-0.75-1.438L303.475,270.65z" fill="#FFFFFF"/><g><path d="M129.294,289.662c2.375,24.15,23.65,43.051,49.55,43.051s47.175-18.9,49.55-43.051H129.294z" fill="#414042"/></g><path d="M149.169,297.65c0.025,0.063,0.075,0.387,0.3,1.188c0.225,0.774,0.575,1.912,1.075,3.262    c1.025,2.7,2.65,6.275,4.9,9.513c1.1,1.612,2.325,3.2,3.6,4.525c1.25,1.388,2.6,2.55,3.775,3.475c1.2,0.938,2.25,1.638,3.05,2.075    c0.775,0.463,1.2,0.737,1.2,0.737s-0.475-0.162-1.35-0.438c-0.875-0.237-2.1-0.675-3.525-1.35c-1.425-0.638-3.075-1.5-4.7-2.625    c-1.7-1.075-3.35-2.425-4.95-3.862c-3.225-2.875-5.925-6.301-7.75-9.025c-0.925-1.35-1.625-2.537-2.125-3.4    c-0.475-0.85-0.75-1.5-0.725-1.438L149.169,297.65z" fill="#FFFFFF"/></g></g><g/><g/><g/><g/><g/><g/></svg>