<?xml version="1.0" ?><!DOCTYPE svg  PUBLIC '-//W3C//DTD SVG 1.1//EN'  'http://www.w3.org/Graphics/SVG/1.1/DTD/svg11.dtd'><svg enable-background="new 0 0 512 512" height="512px" id="Calque_1" version="1.1" viewBox="0 0 512 512" width="512px" xml:space="preserve" xmlns="http://www.w3.org/2000/svg" xmlns:xlink="http://www.w3.org/1999/xlink"><g><path d="M512,256.003c0,141.369-114.612,255.994-256,255.994S0,397.372,0,256.003c0-141.388,114.612-256,256-256   S512,114.616,512,256.003z" fill="#CFD5D6"/><g id="love"><g id="cardiogram_1_"><path clip-rule="evenodd" d="M249.656,184.066c5.075-8.125,11.35-14.8,19.025-20.15     c39.168-27.3,94.243-4.85,102.793,42.1c4.351,23.925-2.899,44.3-20.399,61.051c-31.05,29.705-62.25,59.23-93.169,89.031     c-5.65,5.449-11.725,4.699-16.65-0.076c-25.475-24.699-51.3-49.1-76.95-73.6c-7-6.675-14.35-13-20.7-20.23     c-16.7-18.951-21.525-41.025-13.45-64.926c8.175-24.175,25.425-39.375,50.625-43.775c28.525-5,51.275,5.325,67.85,29.075     C248.906,182.966,249.181,183.366,249.656,184.066z" fill="#EE3533" fill-rule="evenodd"/><path d="M184.781,178.291c0,0-0.725,0.625-2,1.7c-0.625,0.525-1.4,1.175-2.275,1.925     c-0.825,0.725-1.775,1.55-2.825,2.45c-0.975,0.95-2.125,1.875-3.2,2.975c-0.55,0.525-1.125,1.05-1.7,1.625     c-0.55,0.55-1.125,1.15-1.7,1.725c-1.2,1.15-2.2,2.5-3.375,3.725c-1.025,1.35-2.15,2.625-3.075,4.05     c-0.925,1.4-1.95,2.775-2.65,4.25c-0.4,0.75-0.775,1.45-1.2,2.175c-0.3,0.75-0.6,1.475-0.925,2.2     c-0.3,0.725-0.625,1.45-0.925,2.175c-0.2,0.725-0.4,1.45-0.625,2.15c-0.225,0.725-0.45,1.425-0.675,2.075     c-0.125,0.7-0.25,1.375-0.35,2.025c-0.225,1.3-0.625,2.525-0.725,3.625c-0.075,1.1-0.2,2.075-0.3,2.9     c-0.2,1.625-0.375,2.625-0.375,2.625s-0.45-0.85-1.05-2.425c-0.3-0.8-0.675-1.775-1.05-2.925c-0.325-1.15-0.475-2.5-0.7-3.95     c-0.1-0.75-0.2-1.525-0.25-2.35c0.025-0.8,0.075-1.65,0.125-2.5c0.05-0.875,0.1-1.75,0.175-2.675     c0.125-0.9,0.425-1.8,0.625-2.725c0.225-0.925,0.475-1.875,0.775-2.825c0.375-0.9,0.775-1.8,1.2-2.725     c0.7-1.875,1.9-3.525,2.975-5.25c1.15-1.675,2.5-3.175,3.825-4.625c1.45-1.325,2.8-2.725,4.325-3.775     c0.75-0.525,1.45-1.1,2.2-1.6c0.75-0.45,1.5-0.9,2.2-1.325c1.45-0.9,2.9-1.525,4.2-2.15c2.725-1.1,5.025-1.8,6.7-2.125     C183.806,178.341,184.781,178.291,184.781,178.291z" fill="#FFFFFF" opacity="0.44"/></g><path clip-rule="evenodd" d="M327.3,289.797    c-20.649-41.381-73.568-91.656-93.494-48.181l-31.85,76.806c13.125,12.525,26.275,24.975,39.3,37.6    c4.925,4.775,11,5.525,16.65,0.076C280.95,333.896,304.125,311.872,327.3,289.797z" fill="#BE1E2D" fill-rule="evenodd" opacity="0.55"/><g id="cardiogram_2_"><path clip-rule="evenodd" d="M318.25,244.766c4.975-3.575,10.3-5.975,16.125-7.275     c29.7-6.575,56.725,20.05,50.35,49.806c-3.25,15.15-12.475,25.426-26.85,31.025c-25.5,9.975-51.075,19.8-76.55,29.85     c-4.65,1.85-8.05-0.074-9.8-4.1c-8.994-20.75-18.294-41.4-27.469-62.075c-2.5-5.625-5.3-11.149-7.275-16.956     c-5.25-15.225-2.725-29.4,7.85-41.525c10.675-12.25,24.543-17.025,40.444-13.5c18.05,3.975,28.925,15.575,32.95,33.625     C318.075,243.941,318.15,244.241,318.25,244.766z" fill="#F16668" fill-rule="evenodd"/><path d="M281.425,225.591c0,0-0.6,0.2-1.6,0.5c-0.5,0.175-1.101,0.375-1.8,0.6     c-0.676,0.225-1.426,0.475-2.25,0.775c-0.825,0.325-1.726,0.575-2.625,0.975c-0.45,0.175-0.926,0.325-1.4,0.525     s-0.95,0.4-1.425,0.625c-0.976,0.375-1.894,0.925-2.869,1.35c-0.925,0.55-1.925,1.05-2.8,1.65c-0.9,0.6-1.825,1.15-2.6,1.875     c-0.426,0.325-0.825,0.65-1.226,0.975c-0.375,0.35-0.725,0.725-1.1,1.075c-0.351,0.35-0.726,0.7-1.05,1.05     c-0.325,0.375-0.625,0.775-0.9,1.125c-0.325,0.375-0.625,0.725-0.9,1.075c-0.25,0.375-0.475,0.725-0.725,1.075     c-0.425,0.725-0.95,1.35-1.3,1.975c-0.3,0.65-0.625,1.175-0.875,1.65c-0.5,0.9-0.85,1.45-0.85,1.45s-0.05-0.6-0.025-1.675     c0-0.55,0-1.225,0.075-1.975c0.1-0.775,0.325-1.6,0.55-2.525c0.125-0.45,0.275-0.95,0.425-1.45c0.225-0.45,0.45-0.95,0.675-1.425     c0.25-0.5,0.5-1.025,0.775-1.55c0.275-0.5,0.675-0.95,1.025-1.45s0.725-1,1.125-1.475c0.45-0.425,0.9-0.875,1.375-1.325     c0.875-0.925,2-1.6,3.051-2.35c1.074-0.7,2.225-1.275,3.35-1.8c1.175-0.425,2.325-0.925,3.469-1.175     c0.575-0.15,1.125-0.3,1.675-0.4c0.575-0.1,1.101-0.175,1.65-0.275c1.05-0.175,2.075-0.175,2.975-0.225     c1.875,0,3.4,0.15,4.476,0.375C280.825,225.391,281.425,225.591,281.425,225.591z" fill="#FFFFFF" opacity="0.44"/></g></g></g><g/><g/><g/><g/><g/><g/></svg>