<?xml version="1.0" ?><!DOCTYPE svg  PUBLIC '-//W3C//DTD SVG 1.1//EN'  'http://www.w3.org/Graphics/SVG/1.1/DTD/svg11.dtd'><svg enable-background="new 0 0 512 512" height="512px" id="Calque_1" version="1.1" viewBox="0 0 512 512" width="512px" xml:space="preserve" xmlns="http://www.w3.org/2000/svg" xmlns:xlink="http://www.w3.org/1999/xlink"><g><path d="M512,256c0,141.386-114.599,255.997-255.991,255.997C114.623,511.997,0,397.386,0,256   S114.623,0.003,256.009,0.003C397.401,0.003,512,114.614,512,256z" fill="#78B0D2"/><g id="rocket"><path d="M161.085,296.8c0,6.925,5.625,12.55,12.55,12.55h67.974c6.925,0,12.537-5.625,12.537-12.55v-54.894    c0-6.925-5.612-12.55-12.537-12.55h-5.2c-6.925,0-12.55,5.625-12.55,12.55L161.085,296.8z" fill="#E2574C"/><path d="M209.71,309.35h23.449c-4.649-35.275-13.925-50.743-22.475-55.894L193.06,268.85    C196.56,282.524,207.235,304.375,209.71,309.35z" fill="#BE1E2D" opacity="0.44"/><path d="M350.927,296.8c0,6.925-5.625,12.55-12.55,12.55h-67.975c-6.931,0-12.556-5.625-12.556-12.55v-54.894    c0-6.925,5.625-12.55,12.556-12.55h5.176c6.949,0,12.549,5.625,12.549,12.55L350.927,296.8z" fill="#E2574C"/><path d="M302.303,309.35h-23.475c4.675-35.275,13.949-50.743,22.499-55.894l17.625,15.394    C315.452,282.524,304.777,304.375,302.303,309.35z" fill="#BE1E2D" opacity="0.44"/><path d="M273.353,325.475c-1.375-4.101-15.706-35.5-36.843,1.375c-1.325,2.3-2.5,4.449-3.525,6.425    c-0.675,7.199-2.15,27.074,3.05,21.675c1.5-3.275,9.325-11.4,9.325-6.25c0,5.449,7.513,38.899,10.237,36.85    c2.725-2.051,11.6-4.101,17.081-29.35c5.45-25.25,0.675,16.374,9.55-3.426C291.103,332.975,273.353,325.475,273.353,325.475z" fill="#FEDB52"/><path d="M283.527,336.049c-2.875-7.449-10.175-10.574-10.175-10.574    c-1.375-4.101-15.706-35.5-36.843,1.375c-1.325,2.3-2.5,4.449-3.525,6.425c-0.05,0.625-0.125,1.35-0.175,2.124    C253.972,343.773,277.178,337.949,283.527,336.049z" fill="#CF7E31" opacity="0.27"/><path d="M265.047,131.583c-5.575-5.2-8.65-5.275-9.275-5.225c-0.625-0.05-3.712,0.025-9.287,5.225    c-6.25,5.899-64.299,73.824-33.45,183.517c0,0,5.225,14.375,15.175,15.675c5.325,0.7,16.425,1.975,27.562,1.55    c11.125,0.425,22.231-0.85,27.581-1.55c9.925-1.3,15.149-15.675,15.149-15.675C329.352,205.407,271.328,137.482,265.047,131.583z" fill="#E6E7E8"/><path d="M265.097,131.633c-5.575-5.2-8.675-5.275-9.3-5.225c-0.35-0.025-1.525,0.025-3.438,0.975    c5.787,2.5,16.668,13.4,28.943,56.549c14.125,49.625-4.15,119.167-13.206,148.317c6.406-0.325,11.981-0.975,15.306-1.425    c9.925-1.3,15.15-15.675,15.15-15.675C329.402,205.457,271.378,137.533,265.097,131.633z" fill="#BCBEC0" opacity="0.4"/><g><path d="M234.084,206.607c0,12,9.7,21.7,21.687,21.7c11.975,0,21.706-9.7,21.706-21.7     c0-11.975-9.731-21.675-21.706-21.675C243.784,184.932,234.084,194.632,234.084,206.607z" fill="#A8BEC6"/><path d="M255.771,191.207c8.5,0,15.406,6.9,15.406,15.4c0,8.525-6.906,15.425-15.406,15.425     c-8.512,0-15.412-6.9-15.412-15.425C240.359,198.107,247.259,191.207,255.771,191.207 M255.771,184.932     c-11.987,0-21.687,9.7-21.687,21.675c0,12,9.7,21.7,21.687,21.7c11.975,0,21.706-9.7,21.706-21.7     C277.478,194.632,267.746,184.932,255.771,184.932L255.771,184.932z" fill="#2D4453"/></g><path d="M255.771,184.932c11.975,0,21.706,9.7,21.706,21.675c0,12-9.731,21.7-21.706,21.7    c-11.987,0-21.687-9.7-21.687-21.7C234.084,194.632,243.784,184.932,255.771,184.932 M255.771,178.657    c-15.412,0-27.962,12.55-27.962,27.95c0,15.425,12.55,27.975,27.962,27.975c15.406,0,27.956-12.55,27.956-27.975    C283.728,191.207,271.178,178.657,255.771,178.657L255.771,178.657z" fill="#D1D3D4"/><path d="M259.172,333.624c5.625-13.225,16.605-63.399,11.156-71.317c-1.757-2.551-3.981-4.051-6.257-4.95    c-5.325-2.575-10.975-1.725-14.612-0.65c-1.05,0.275-2.1,0.65-3.149,1.175c-0.5,0.2-0.8,0.375-0.8,0.375l0.075,0.025    c-1.6,0.925-3.1,2.2-4.375,4.025c-5.375,7.793,5.225,56.617,10.9,70.692c0.475,0.976,1.212,2.25,2.112,2.976    c1.025,0.649,1.85,0.725,2.525,0.549C257.922,336.35,258.996,334.049,259.172,333.624z" fill="#E2574C"/><path d="M252.06,199.057c0,0-0.625,0.675-1.351,1.525c-0.175,0.175-0.325,0.475-0.524,0.675    c-0.175,0.25-0.375,0.45-0.525,0.725c-0.2,0.25-0.325,0.55-0.55,0.775c-0.225,0.225-0.3,0.55-0.475,0.825    c-0.4,0.5-0.625,1.1-0.925,1.675c-0.125,0.3-0.325,0.575-0.475,0.825c-0.125,0.3-0.25,0.575-0.375,0.825    c-0.45,1.025-1.075,1.8-1.075,1.8s-0.45-0.75-0.7-2.05c-0.2-0.65-0.2-1.4,0-2.225c0.075-0.399,0.125-0.85,0.25-1.274    c0.175-0.4,0.425-0.8,0.625-1.2c0.275-0.375,0.45-0.775,0.8-1.1c0.3-0.325,0.675-0.6,0.975-0.875c0.3-0.3,0.725-0.425,1.075-0.6    c0.375-0.175,0.675-0.325,1.024-0.375c0.65-0.15,1.226-0.15,1.625-0.1C251.859,198.957,252.06,199.057,252.06,199.057z" fill="#FFFFFF"/><path d="M251.009,263.606c0.025,0.024-0.125,0.1-0.3,0.35c-0.125,0.3-0.399,0.575-0.5,1.125    c-0.1,0.575-0.375,1.125-0.425,1.9c-0.025,0.75-0.1,1.6-0.2,2.493c0.05,0.926,0.075,1.95,0.101,3    c0.024,1.075,0.024,2.175,0.175,3.35c0.125,1.176,0.275,2.375,0.35,3.601c0.05,1.225,0.2,2.475,0.4,3.7    c0.325,2.5,0.65,5,0.85,7.35c0.3,2.35,0.601,4.55,0.775,6.45c0.375,3.8,0.35,6.399,0.35,6.399s-1.024-2.375-2.125-6.05    c-0.575-1.825-1.2-4-1.75-6.35c-0.45-2.351-0.825-4.9-1.2-7.45c-0.4-2.525-0.325-5.175-0.4-7.575    c-0.075-1.225,0.1-2.399,0.25-3.524c0.125-1.125,0.25-2.176,0.475-3.15c0.275-0.943,0.55-1.818,0.825-2.568    c0.225-0.775,0.725-1.375,1-1.875c0.25-0.5,0.775-0.75,0.95-0.95C250.859,263.631,251.034,263.631,251.009,263.606z" fill="#FFFFFF"/><path d="M270.328,262.307c-1.757-2.551-3.981-4.051-6.257-4.95c-0.2-0.101-0.425-0.15-0.625-0.25    c10.281,12.568-0.375,47.743-4.075,65.317c-2.149,10.15-4.549,12.375-6.374,12.125c0.35,0.551,0.75,1.051,1.225,1.426    c1.025,0.649,1.85,0.725,2.525,0.549c1.175-0.174,2.25-2.475,2.425-2.899C264.797,320.399,275.777,270.225,270.328,262.307z" fill="#BE1E2D" opacity="0.44"/></g></g><g/><g/><g/><g/><g/><g/></svg>