<?xml version="1.0" ?><!DOCTYPE svg  PUBLIC '-//W3C//DTD SVG 1.1//EN'  'http://www.w3.org/Graphics/SVG/1.1/DTD/svg11.dtd'><svg enable-background="new 0 0 512 512" height="512px" id="Calque_1" version="1.1" viewBox="0 0 512 512" width="512px" xml:space="preserve" xmlns="http://www.w3.org/2000/svg" xmlns:xlink="http://www.w3.org/1999/xlink"><g><path d="M512,256c0,141.386-114.599,255.997-255.991,255.997C114.623,511.997,0,397.386,0,256   S114.623,0.003,256.009,0.003C397.401,0.003,512,114.614,512,256z" fill="#43B39C"/><g id="Backpack"><path d="M255.484,132.714c14.743,0,26.743,11.7,26.743,26.125c0,14.399-12,26.125-26.743,26.125    c-14.75,0-26.75-11.725-26.75-26.125C228.734,144.414,240.734,132.714,255.484,132.714 M255.484,127.839    c-17.45,0-31.6,13.875-31.6,31c0,17.125,14.149,31,31.6,31c17.443,0,31.594-13.875,31.594-31    C287.078,141.714,272.928,127.839,255.484,127.839L255.484,127.839z" fill="#594A42"/><path d="M126.661,342.812c0,10.725,8.725,19.45,19.45,19.45h8.925c10.725,0,19.45-8.726,19.45-19.45v-42.149    c0-10.75-8.725-19.45-19.45-19.45h-8.925c-10.725,0-19.45,8.7-19.45,19.45V342.812z" fill="#F0C946"/><path d="M173.686,295.438c-2.3-8.176-9.726-14.226-18.65-14.226h-8.925    c-1.975,0-3.85,0.375-5.649,0.925v79.175c1.8,0.55,3.675,0.95,5.649,0.95h8.925c8.925,0,16.35-6.051,18.65-14.25V295.438z" fill="#CF7E31" opacity="0.27"/><path d="M385.326,342.812c0,10.725-8.725,19.45-19.475,19.45h-8.9c-10.725,0-19.449-8.726-19.449-19.45v-42.149    c0-10.75,8.725-19.45,19.449-19.45h8.9c10.75,0,19.475,8.7,19.475,19.45V342.812z" fill="#F0C946"/><path d="M338.302,295.438c2.3-8.176,9.726-14.226,18.649-14.226h8.9c2,0,3.875,0.375,5.675,0.925    v79.175c-1.8,0.55-3.675,0.95-5.675,0.95h-8.9c-8.924,0-16.35-6.051-18.649-14.25V295.438z" fill="#CF7E31" opacity="0.27"/><path d="M148.91,364.711c0,10.75,8.75,19.45,19.55,19.45h174.967c10.8,0,19.524-8.7,19.524-19.45V185.563    c0-10.725-8.725-19.45-19.524-19.45H168.46c-10.8,0-19.55,8.725-19.55,19.45V364.711z" fill="#CF7E31"/><path d="M343.427,335.512H168.46c-10.8,0-19.55-8.725-19.55-19.45v48.649    c0,10.75,8.75,19.45,19.55,19.45h174.967c10.8,0,19.524-8.7,19.524-19.45v-48.649    C362.951,326.787,354.227,335.512,343.427,335.512z" fill="#8B5E3C" opacity="0.4"/><path d="M148.11,185.588c0,18.8,15.225,34.025,34.024,34.025h146.667c18.8,0,34.05-15.225,34.05-34.025l0,0    c0-18.8-15.25-34.049-34.05-34.049H182.135C163.335,151.539,148.11,166.789,148.11,185.588L148.11,185.588z" fill="#FEDB52"/><path d="M328.802,151.539h-4.6c9.225,4.774,23.524,18.899,23.925,60.799    c0.6,61.975,0,145.873,0,145.873s-0.35,13.7-9.25,25.95h4.55c10.8,0,19.524-8.7,19.524-19.45V185.563    c0-0.7-0.125-1.375-0.199-2.075C361.677,165.688,346.902,151.539,328.802,151.539z" fill="#8B5E3C" opacity="0.27"/><g><polygon fill="#D1D3D4" points="197.91,298.237 206.835,303.087 215.734,298.237 215.734,145.064 197.91,145.064    "/><rect fill="#E6E7E8" height="74.549" width="17.824" x="197.91" y="145.064"/><path d="M222.035,286.487h-30.4v-31h30.4V286.487z M198.935,279.188h15.8v-16.4h-15.8V279.188z" fill="#FFFFFF"/><polygon fill="#D1D3D4" points="295.202,298.237 304.127,303.087 313.053,298.237 313.053,145.064 295.202,145.064    "/><rect fill="#E6E7E8" height="74.549" width="17.851" x="295.202" y="145.064"/><path d="M319.327,286.487h-30.399v-31h30.399V286.487z M296.228,279.188h15.8v-16.4h-15.8V279.188z" fill="#FFFFFF"/></g></g></g><g/><g/><g/><g/><g/><g/></svg>