<?xml version="1.0" ?><!DOCTYPE svg  PUBLIC '-//W3C//DTD SVG 1.1//EN'  'http://www.w3.org/Graphics/SVG/1.1/DTD/svg11.dtd'><svg enable-background="new 0 0 512 512" height="512px" id="Calque_1" version="1.1" viewBox="0 0 512 512" width="512px" xml:space="preserve" xmlns="http://www.w3.org/2000/svg" xmlns:xlink="http://www.w3.org/1999/xlink"><g><path d="M512,256c0,141.386-114.599,255.997-256.003,255.997C114.623,511.997,0,397.386,0,256   S114.623,0.003,255.997,0.003C397.401,0.003,512,114.614,512,256z" fill="#EBEEEF"/><g id="arrow_2_"><path clip-rule="evenodd" d="M386.602,248.3c-3.5-14-16-23.524-31.25-23.549    c-17.3-0.013-34.625-0.025-51.949-0.025l-60.506,0.3l23.575-23.075c0.6-0.575,1.175-1.113,1.8-1.613    c0.35-0.387,0.731-0.75,1.081-1.137c14.275-15.387,9.351-40.087-9.606-49.099c-12.475-5.938-25.974-3.3-36.624,7.35    c-32.175,32.112-64.274,64.274-96.399,96.411c-0.65,0.663-1.25,1.4-2.275,2.575c1.175,0.963,2.275,1.737,3.225,2.662    c22.424,22.425,44.849,44.85,67.274,67.274c9.875,9.888,19.65,19.837,29.7,29.587c8.875,8.575,19.575,11.063,31.275,7.388    c21.781-6.85,28.906-34.087,13.23-50.749c-7.906-8.412-16.381-16.25-24.605-24.362c0.125-0.325,0.25-0.675,0.375-1    c1.175,0,2.325,0,3.5,0c8.625,0,17.25,0,25.881,0c27.225,0,54.424,0.112,81.648-0.038    C376.826,287.087,391.602,268.175,386.602,248.3z" fill="#44B39D" fill-rule="evenodd"/><path clip-rule="evenodd" d="M242.896,225.025l-18.949,19.212    c0,0,41.999-17.237,71.83-19.475L242.896,225.025z" fill="#2C846D" fill-rule="evenodd" opacity="0.65"/></g></g><g/><g/><g/><g/><g/><g/></svg>