<?xml version="1.0" ?><!DOCTYPE svg  PUBLIC '-//W3C//DTD SVG 1.1//EN'  'http://www.w3.org/Graphics/SVG/1.1/DTD/svg11.dtd'><svg enable-background="new 0 0 512 512" height="512px" id="Calque_1" version="1.1" viewBox="0 0 512 512" width="512px" xml:space="preserve" xmlns="http://www.w3.org/2000/svg" xmlns:xlink="http://www.w3.org/1999/xlink"><g><path d="M512,256c0,141.388-114.612,256-256,256S0,397.388,0,256S114.612,0,256,0S512,114.612,512,256z" fill="#344E5D"/><g id="psd"><g><path d="M151.906,375.875c0,4.775,3.856,8.625,8.612,8.625h190.956c4.75,0,8.625-3.85,8.625-8.625V188.331     l-60.85-60.837H160.519c-4.756,0-8.612,3.863-8.612,8.613V375.875z" fill="#27AAE1"/><g><path d="M204.219,236.231c2.837-0.475,6.819-0.838,12.425-0.838c5.675,0,9.719,1.088,12.432,3.25      c2.594,2.063,4.344,5.438,4.344,9.425c0,3.975-1.325,7.35-3.738,9.65c-3.137,2.95-7.788,4.275-13.219,4.275      c-1.2,0-2.288-0.051-3.131-0.176v14.531h-9.112V236.231z M213.331,254.706c0.781,0.175,1.75,0.238,3.075,0.238      c4.888,0,7.906-2.475,7.906-6.638c0-3.737-2.6-5.975-7.181-5.975c-1.869,0-3.138,0.175-3.8,0.363V254.706z" fill="#FFFFFF"/><path d="M239.556,266.881c2.469,1.275,6.275,2.544,10.194,2.544c4.225,0,6.456-1.756,6.456-4.406      c0-2.537-1.931-3.987-6.818-5.737c-6.756-2.35-11.156-6.087-11.156-12c0-6.938,5.787-12.25,15.381-12.25      c4.588,0,7.969,0.962,10.382,2.05l-2.057,7.425c-1.625-0.788-4.525-1.938-8.506-1.938s-5.913,1.813-5.913,3.925      c0,2.6,2.294,3.738,7.544,5.725c7.182,2.663,10.557,6.4,10.557,12.138c0,6.818-5.25,12.594-16.413,12.594      c-4.644,0-9.225-1.2-11.519-2.45L239.556,266.881z" fill="#FFFFFF"/><path d="M271.825,236.231c3.375-0.538,7.774-0.838,12.425-0.838c7.713,0,12.725,1.388,16.65,4.338      c4.225,3.137,6.875,8.15,6.875,15.337c0,7.775-2.838,13.15-6.75,16.457c-4.288,3.574-10.801,5.25-18.775,5.25      c-4.763,0-8.15-0.301-10.425-0.601V236.231z M281.05,269.425c0.775,0.175,2.05,0.175,3.2,0.175      c8.325,0.075,13.75-4.519,13.75-14.243c0.063-8.438-4.888-12.9-12.787-12.9c-2.063,0-3.388,0.175-4.163,0.363V269.425z" fill="#FFFFFF"/></g></g><g><polygon fill="#5892B2" opacity="0.72" points="360.1,188.331 356.862,185.106 301.4,185.194 360.1,244.406    "/><path d="M299.25,127.494v52.225c0,4.763,3.85,8.625,8.612,8.625H360.1v-0.013L299.25,127.494z" fill="#BDDFF5"/></g></g></g><g/><g/><g/><g/><g/><g/></svg>