<?xml version="1.0" ?><!DOCTYPE svg  PUBLIC '-//W3C//DTD SVG 1.1//EN'  'http://www.w3.org/Graphics/SVG/1.1/DTD/svg11.dtd'><svg enable-background="new 0 0 512 512" height="512px" id="Calque_1" version="1.1" viewBox="0 0 512 512" width="512px" xml:space="preserve" xmlns="http://www.w3.org/2000/svg" xmlns:xlink="http://www.w3.org/1999/xlink"><g><path d="M511.979,256.025C511.979,397.387,397.389,512,256.009,512C114.636,512,0.021,397.387,0.021,256.025   C0.021,114.639,114.636,0,256.009,0C397.389,0,511.979,114.639,511.979,256.025z" fill="#EBEEEF"/><g id="list"><rect fill="#58595B" height="24.173" width="190.987" x="166.931" y="147.136"/><path d="M150.032,159.234c0,7.774-6.324,14.099-14.099,14.099c-7.799,0-14.099-6.324-14.099-14.099    c0-7.799,6.299-14.099,14.099-14.099C143.708,145.136,150.032,151.436,150.032,159.234z" fill="#43B39C"/><rect fill="#58595B" height="24.173" width="190.987" x="166.931" y="211.654"/><path d="M150.032,223.729c0,7.799-6.324,14.098-14.099,14.098c-7.799,0-14.099-6.299-14.099-14.098    c0-7.774,6.299-14.099,14.099-14.099C143.708,209.63,150.032,215.954,150.032,223.729z" fill="#43B39C"/><rect fill="#43B39C" height="24.172" width="190.988" x="199.177" y="276.148"/><path d="M182.279,288.247c0,7.799-6.299,14.099-14.099,14.099c-7.774,0-14.099-6.3-14.099-14.099    c0-7.8,6.325-14.099,14.099-14.099C175.979,274.148,182.279,280.447,182.279,288.247z" fill="#43B39C"/><rect fill="#58595B" height="24.173" width="190.987" x="166.931" y="340.667"/><path d="M150.032,352.74c0,7.8-6.324,14.124-14.099,14.124c-7.799,0-14.099-6.324-14.099-14.124    c0-7.773,6.299-14.099,14.099-14.099C143.708,338.642,150.032,344.967,150.032,352.74z" fill="#43B39C"/></g></g><g/><g/><g/><g/><g/><g/></svg>