<?xml version="1.0" ?><!DOCTYPE svg  PUBLIC '-//W3C//DTD SVG 1.1//EN'  'http://www.w3.org/Graphics/SVG/1.1/DTD/svg11.dtd'><svg enable-background="new 0 0 512 512" height="512px" id="Calque_1" version="1.1" viewBox="0 0 512 512" width="512px" xml:space="preserve" xmlns="http://www.w3.org/2000/svg" xmlns:xlink="http://www.w3.org/1999/xlink"><g><path d="M512,256c0,141.388-114.612,256-256,256S0,397.388,0,256S114.612,0,256,0S512,114.612,512,256z" fill="#A0D1DC"/><g id="eyeglasses"><circle cx="182.775" cy="256.462" fill="#A8BEC6" opacity="0.72" r="42.663"/><circle cx="330.05" cy="256.462" fill="#A8BEC6" opacity="0.72" r="42.663"/><g><path d="M328.8,198.638c-31.938,0-57.825,25.887-57.825,57.837c0,31.937,25.888,57.825,57.825,57.825     c31.95,0,57.838-25.888,57.838-57.825C386.638,224.525,360.75,198.638,328.8,198.638z M328.8,291.912     c-19.537,0-35.438-15.899-35.438-35.437c0-19.55,15.9-35.45,35.438-35.45c19.55,0,35.45,15.9,35.45,35.45     C364.25,276.013,348.35,291.912,328.8,291.912z" fill="#414042"/><path d="M183.2,197.7c-31.95,0-57.838,25.9-57.838,57.837c0,31.937,25.888,57.837,57.838,57.837     c31.938,0,57.825-25.9,57.825-57.837C241.025,223.6,215.138,197.7,183.2,197.7z M183.2,290.987     c-19.55,0-35.45-15.899-35.45-35.45s15.9-35.45,35.45-35.45c19.537,0,35.438,15.9,35.438,35.45S202.737,290.987,183.2,290.987z" fill="#414042"/></g><path d="M273.225,262.475c-7.725-7.45-27.024-7.925-33.875-0.837L223.237,246.1    c15.275-15.85,48.963-15.725,65.525,0.25L273.225,262.475z" fill="#414042"/><g><path d="M365.213,239.675c0,4.638,3.762,8.4,8.399,8.4H384.8c4.638,0,8.4-3.763,8.4-8.4l0,0     c0-4.625-3.763-8.387-8.4-8.387h-11.188C368.975,231.288,365.213,235.05,365.213,239.675L365.213,239.675z" fill="#414042"/><path d="M118.8,239.675c0,4.638,3.763,8.4,8.4,8.4h11.188c4.637,0,8.4-3.763,8.4-8.4l0,0     c0-4.625-3.763-8.387-8.4-8.387H127.2C122.563,231.288,118.8,235.05,118.8,239.675L118.8,239.675z" fill="#414042"/></g><path d="M173.175,238.325c0,0-1.3,1.5-2.725,3.425c-1.375,2.013-3.025,4.362-4.225,6.962    c-0.85,1.175-1.325,2.563-1.925,3.85c-0.662,1.263-1.475,2.475-1.762,3.663c-0.975,2.275-2.163,3.975-2.163,3.975    s-0.888-1.663-1.413-4.438c-0.6-2.688-0.275-6.7,1.638-10.088c0.862-1.75,2.137-3.25,3.55-4.438    c1.313-1.262,3.038-1.837,4.275-2.45C171.2,237.837,173.175,238.325,173.175,238.325z" fill="#FFFFFF"/><path d="M318.338,238.325c0,0-1.301,1.5-2.726,3.425c-1.375,2.013-3.024,4.362-4.225,6.962    c-0.851,1.175-1.325,2.563-1.925,3.85c-0.663,1.263-1.476,2.475-1.763,3.663c-0.976,2.275-2.163,3.975-2.163,3.975    s-0.887-1.663-1.412-4.438c-0.6-2.688-0.275-6.7,1.638-10.088c0.862-1.75,2.138-3.25,3.55-4.438    c1.313-1.262,3.037-1.837,4.275-2.45C316.362,237.837,318.338,238.325,318.338,238.325z" fill="#FFFFFF"/></g></g><g/><g/><g/><g/><g/><g/></svg>