<?xml version="1.0" ?><!DOCTYPE svg  PUBLIC '-//W3C//DTD SVG 1.1//EN'  'http://www.w3.org/Graphics/SVG/1.1/DTD/svg11.dtd'><svg enable-background="new 0 0 512 512" height="512px" id="Calque_1" version="1.1" viewBox="0 0 512 512" width="512px" xml:space="preserve" xmlns="http://www.w3.org/2000/svg" xmlns:xlink="http://www.w3.org/1999/xlink"><g><path d="M512,256c0,141.386-114.599,255.997-255.997,255.997C114.63,511.997,0.006,397.386,0.006,256   S114.63,0.003,256.003,0.003C397.401,0.003,512,114.614,512,256z" fill="#344E5D"/><g id="statistics"><path d="M246.791,139.001c-64.612,0-116.999,52.387-116.999,116.999c0,64.611,52.387,116.998,116.999,116.998    S363.789,320.611,363.789,256H246.791V139.001z" fill="#C2B59B"/><path d="M363.677,260.912c-4.25-1.824-9.463-3.5-15.263-4.912h-67.262    c-9.262,3.563-15.487,9.463-15.925,18.438l64.687,63.874C349.777,318.262,362.414,291.063,363.677,260.912z" fill="#594A42" opacity="0.27"/><path d="M265.228,157.438v116.999h116.999C382.227,209.813,329.84,157.438,265.228,157.438z" fill="#FFDE17"/><path d="M155.329,183.088L246.791,256V139.001C209.753,139.001,176.754,156.227,155.329,183.088z" fill="#8DC63F"/><path d="M137.954,213.088L246.791,256c-9.4-16.387-61.487-62.212-83.886-81.524    C152.204,185.476,143.679,198.576,137.954,213.088z" fill="#F15A29"/></g></g><g/><g/><g/><g/><g/><g/></svg>