<?xml version="1.0" ?><!DOCTYPE svg  PUBLIC '-//W3C//DTD SVG 1.1//EN'  'http://www.w3.org/Graphics/SVG/1.1/DTD/svg11.dtd'><svg enable-background="new 0 0 512 512" height="512px" id="Calque_1" version="1.1" viewBox="0 0 512 512" width="512px" xml:space="preserve" xmlns="http://www.w3.org/2000/svg" xmlns:xlink="http://www.w3.org/1999/xlink"><g><path d="M512,256c0,141.388-114.6,256-256.006,256C114.612,512,0,397.388,0,256S114.612,0,255.994,0   C397.4,0,512,114.612,512,256z" fill="#EFC84A"/><g id="drop"><path d="M324.975,255.263L255.969,127.4l-0.175,2.1l0.05-2.925l-72.075,133.563h0.225    c-7.2,12.325-11.35,26.638-11.35,41.925c0,46.025,37.35,83.35,83.375,83.35c46.031,0,83.331-37.324,83.331-83.35    C339.35,284.713,334.05,268.612,324.975,255.263z" fill="#27AAE1"/><path d="M259.119,385.338c44.581-1.65,80.23-38.275,80.23-83.275c0-17.35-5.3-33.45-14.375-46.8    L265.094,144.3C291.75,198.862,352.65,345.588,259.119,385.338z" fill="#1C75BC" opacity="0.72"/><path d="M225.194,238.462c0,0-0.175,0.325-0.5,0.95c-0.325,0.612-0.75,1.55-1.35,2.675s-1.3,2.525-2.125,4.087    s-1.75,3.313-2.775,5.25c-2.025,3.813-4.375,8.237-6.775,12.987c-1.225,2.351-2.425,4.825-3.65,7.301c-1.2,2.5-2.4,5.037-3.5,7.6    c-2.275,5.125-4.275,10.3-5.85,15.225c-0.775,2.476-1.425,4.875-1.975,7.188c-0.275,1.15-0.45,2.288-0.7,3.375    c-0.225,1.113-0.325,2.163-0.5,3.213c-0.25,2.05-0.475,3.975-0.5,5.675c-0.15,1.737-0.05,3.237-0.05,4.513    c0.075,1.263,0.15,2.263,0.2,2.963c0.05,0.699,0.05,1.074,0.05,1.074s-0.175-0.324-0.525-0.925c-0.3-0.625-0.925-1.487-1.425-2.7    c-0.475-1.225-1.175-2.699-1.625-4.5c-0.55-1.774-0.9-3.85-1.225-6.125c-0.1-1.149-0.225-2.35-0.275-3.587    c0-1.237-0.025-2.513,0.025-3.838c0.15-2.625,0.425-5.388,0.975-8.188c0.275-1.412,0.575-2.825,0.95-4.237    c0.2-0.7,0.375-1.425,0.55-2.138c0.225-0.712,0.45-1.412,0.675-2.112c0.875-2.85,2.025-5.65,3.2-8.4    c0.6-1.375,1.25-2.725,1.9-4.074c0.675-1.325,1.375-2.638,2.1-3.913c0.7-1.287,1.425-2.55,2.2-3.763    c0.725-1.225,1.5-2.425,2.3-3.574c3.075-4.625,6.325-8.663,9.325-11.95c1.475-1.65,2.9-3.1,4.2-4.363    c1.275-1.262,2.475-2.288,3.45-3.137c0.975-0.875,1.8-1.475,2.35-1.913C224.869,238.663,225.194,238.462,225.194,238.462z" fill="#F1F2F2"/></g></g><g/><g/><g/><g/><g/><g/></svg>