<?xml version="1.0" ?><!DOCTYPE svg  PUBLIC '-//W3C//DTD SVG 1.1//EN'  'http://www.w3.org/Graphics/SVG/1.1/DTD/svg11.dtd'><svg enable-background="new 0 0 512 512" height="512px" id="Calque_1" version="1.1" viewBox="0 0 512 512" width="512px" xml:space="preserve" xmlns="http://www.w3.org/2000/svg" xmlns:xlink="http://www.w3.org/1999/xlink"><g><path d="M512,256c0,141.386-114.624,255.997-255.991,255.997C114.611,511.997,0.012,397.386,0.012,256   S114.611,0.003,256.009,0.003C397.376,0.003,512,114.614,512,256z" fill="#E1695C"/><g id="search"><g><path d="M280.428,215.044c0,37.087-30.068,67.181-67.168,67.181c-37.112,0-67.174-30.093-67.174-67.181     c0-37.112,30.062-67.187,67.174-67.187C250.359,147.857,280.428,177.932,280.428,215.044z" fill="#1C75BC"/><path d="M213.26,147.857c37.1,0,67.168,30.075,67.168,67.187c0,37.087-30.068,67.181-67.168,67.181     c-37.112,0-67.174-30.093-67.174-67.181C146.085,177.932,176.147,147.857,213.26,147.857 M213.26,129.333     c-47.274,0-85.711,38.449-85.711,85.711c0,47.25,38.437,85.706,85.711,85.706c47.262,0,85.718-38.456,85.718-85.706     C298.978,167.782,260.521,129.333,213.26,129.333L213.26,129.333z" fill="#E6E7E8"/></g><g><path d="M272.703,215.044c0,32.825-26.606,59.456-59.443,59.456c-32.85,0-59.449-26.631-59.449-59.456     c0-32.85,26.6-59.461,59.449-59.461C246.097,155.583,272.703,182.194,272.703,215.044z" fill="#27AAE1"/></g><path d="M227.534,252.856c-26.475,0-49.299-15.6-59.824-38.1c0,0.1-0.012,0.188-0.012,0.287    c0,25.15,20.4,45.55,45.562,45.55c10.15,0,19.5-3.362,27.075-8.975C236.197,252.419,231.922,252.856,227.534,252.856z" fill="#FFFFFF" opacity="0.65"/><polygon fill="#E6E7E8" points="329.302,308.549 311.277,326.574 263.234,278.524 281.253,260.506   "/><path d="M350.402,378.323c4.524,4.525,11.874,4.525,16.399,0l13.1-13.1c4.524-4.524,4.524-11.85,0-16.375    l-64.424-64.424c-4.525-4.525-11.875-4.525-16.4,0l-13.1,13.1c-4.524,4.524-4.524,11.85,0,16.375L350.402,378.323z" fill="#A97C50"/><path d="M315.478,284.425c-4.525-4.525-11.875-4.525-16.4,0l-2.149,2.149l81.849,79.75l1.125-1.101    c4.524-4.524,4.524-11.85,0-16.375L315.478,284.425z" fill="#C49A6C"/><path d="M351.802,379.474c3.75,3.75,9.274,4.274,12.35,1.175l18.3-18.274c3.075-3.101,2.551-8.625-1.175-12.351    l0,0c-3.725-3.725-9.274-4.25-12.35-1.175l-18.274,18.3C347.552,370.224,348.077,375.748,351.802,379.474L351.802,379.474z" fill="#594A42"/><path d="M159.073,164.782c0.188-0.612,0.313-1.025,0.313-1.025s-4.25,1.9-8.875,6.637    c-4.75,4.588-9.825,12-12.575,20.525c-1.35,4.25-2.3,8.663-2.425,12.9c-0.163,2.1-0.125,4.138,0.112,6.063    c0.163,1.938,0.413,3.725,0.888,5.375c0.7,3.287,1.825,5.875,2.8,7.612c0.913,1.737,1.538,2.663,1.538,2.663s0.087-0.3,0.188-0.7    C136.561,196.357,151.46,174.045,159.073,164.782z" fill="#FFFFFF"/></g></g><g/><g/><g/><g/><g/><g/></svg>