<?xml version="1.0" ?><!DOCTYPE svg  PUBLIC '-//W3C//DTD SVG 1.1//EN'  'http://www.w3.org/Graphics/SVG/1.1/DTD/svg11.dtd'><svg enable-background="new 0 0 512 512" height="512px" id="Calque_1" version="1.1" viewBox="0 0 512 512" width="512px" xml:space="preserve" xmlns="http://www.w3.org/2000/svg" xmlns:xlink="http://www.w3.org/1999/xlink"><g><path d="M511.98,256.016C511.98,397.385,397.391,512,256.009,512C114.634,512,0.019,397.385,0.019,256.016   C0.019,114.641,114.634,0,256.009,0C397.391,0,511.98,114.641,511.98,256.016z" fill="#43B39C"/><path clip-rule="evenodd" d="M275.376,235.917   c13.899,1.575,27.048,4.362,39.372,10.375c31.872,15.586,35.146,51.001,22.548,73.874c-12.924,23.424-33.322,36.322-59.77,39.822   c-0.601,0.075-1.226,0.2-2.25,0.375c0,9.35,0,18.648,0,28.248c-13.405,0-26.404,0-39.778,0c0-9.3,0-18.749,0-28.123   c-37.997-10.274-62.82-32.223-67.644-73.568c2.25,0,3.85,0,5.449,0c11.124,0,22.273,0.1,33.422-0.051   c2.675-0.05,3.45,0.875,4.3,3.35c2,5.925,4.05,11.975,7.175,17.349c3.549,6.1,9.724,9.35,16.798,11.35c0-15.799,0-31.397,0-46.946   c-6.674-1.6-13.374-2.925-19.874-4.844c-12.974-3.812-24.772-9.762-33.297-20.686c-16.049-20.598-13.549-52.17,5.475-71.594   c11.824-12.099,28.072-20.023,47.871-23.248c0-9.262,0-18.599,0-28.197c13.274,0,26.223,0,39.528,0c0,9.499,0,18.823,0,28.098   c41.146,4.774,66.22,36.946,64.744,66.344c-0.899,0.101-1.874,0.3-2.85,0.3c-11.648,0.025-23.298-0.075-34.947,0.087   c-2.799,0.038-3.499-1.037-4.074-3.562c-2.3-10.099-7.749-17.749-17.898-21.323c-0.85-0.3-1.699-0.475-2.574-0.625   c-0.476-0.075-0.976,0.038-1.726,0.075C275.376,207.17,275.376,221.394,275.376,235.917z M275.727,319.191   c9.174-1.35,17.423-4.074,23.447-11.299c5.125-6.174,5.1-14.074-0.125-20.123c-6.074-7.024-14.248-8.949-23.322-9.249   C275.727,292.194,275.727,305.518,275.727,319.191z M235.148,228.343c0-11.699,0-23.411,0-35.134   c-12.249,1.187-21.573,10.461-20.673,20.511C215.275,222.744,224.424,229.306,235.148,228.343z" fill="#FFFFFF" fill-rule="evenodd" id="dollar"/></g><g/><g/><g/><g/><g/><g/></svg>