<?xml version="1.0" ?><!DOCTYPE svg  PUBLIC '-//W3C//DTD SVG 1.1//EN'  'http://www.w3.org/Graphics/SVG/1.1/DTD/svg11.dtd'><svg enable-background="new 0 0 512 512" height="512px" id="Calque_1" version="1.1" viewBox="0 0 512 512" width="512px" xml:space="preserve" xmlns="http://www.w3.org/2000/svg" xmlns:xlink="http://www.w3.org/1999/xlink"><g><path d="M512,256c0,141.388-114.612,256-256,256S0,397.388,0,256S114.612,0,256,0S512,114.612,512,256z" fill="#E1695C"/><g id="usb"><rect fill="#A8BEC6" height="110.4" width="124.906" x="193.544" y="132.688"/><rect fill="#5C717C" height="49.15" opacity="0.17" width="124.906" x="193.544" y="193.938"/><rect fill="#80929B" height="110.4" opacity="0.44" width="20.538" x="297.912" y="132.688"/><path d="M180.644,372.013c0,4.024,3.275,7.3,7.313,7.3H324.05c4.025,0,7.3-3.275,7.3-7.3V212.538    c0-4.05-3.274-7.3-7.3-7.3H187.956c-4.037,0-7.313,3.25-7.313,7.3V372.013z" fill="#2D4453"/><polygon fill="#BFD3D8" points="268.9,205.237 262.443,205.237 262.443,185.862 242.3,185.862 242.3,156.063 263.25,156.063     263.25,132.688 269.7,132.688 269.7,162.513 248.75,162.513 248.75,179.438 268.9,179.438   "/><g><rect fill="#5C717C" height="22.55" width="12.487" x="291.7" y="158.087"/><rect fill="#5C717C" height="22.55" width="12.494" x="207.819" y="158.087"/></g><path d="M324.05,205.237H302.2c2.575,1.325,5.537,4.8,5.537,13.675c0,15.725,0,149.525,0,149.525    s0,6.1-5.263,10.875h21.575c4.025,0,7.3-3.275,7.3-7.3V212.538C331.35,208.487,328.075,205.237,324.05,205.237z" fill="#18262D" opacity="0.44"/></g></g><g/><g/><g/><g/><g/><g/></svg>