<?xml version="1.0" ?><!DOCTYPE svg  PUBLIC '-//W3C//DTD SVG 1.1//EN'  'http://www.w3.org/Graphics/SVG/1.1/DTD/svg11.dtd'><svg enable-background="new 0 0 512 512" height="512px" id="Calque_1" version="1.1" viewBox="0 0 512 512" width="512px" xml:space="preserve" xmlns="http://www.w3.org/2000/svg" xmlns:xlink="http://www.w3.org/1999/xlink"><g><path d="M511.979,256.016C511.979,397.385,397.388,512,256,512C114.625,512,0.022,397.385,0.022,256.016   C0.022,114.641,114.625,0,256,0C397.388,0,511.979,114.641,511.979,256.016z" fill="#344E5D"/><g id="cloud"><path d="M387.727,287.345c0-24.93-20.211-45.153-45.146-45.153c-0.888,0-1.762,0.038-2.625,0.075    c-1.024-28.485-24.423-51.258-53.158-51.258c-22.598,0-41.896,14.086-49.607,33.96c-3.763-2.213-8.125-3.475-12.787-3.475    c-13.974,0-25.31,11.336-25.31,25.298c0,4.3,1.075,8.337,2.962,11.886c-12.062,6.725-20.224,19.617-20.224,34.416    c0,20.299,15.361,37.021,35.085,39.146v0.25h131.701v-0.399C370.69,329.141,387.727,310.218,387.727,287.345z" fill="#00A651"/><g opacity="0.38"><defs><path d="M387.727,287.345c0-24.93-20.211-45.153-45.146-45.153c-0.888,0-1.762,0.038-2.625,0.075      c-1.024-28.485-24.423-51.258-53.158-51.258c-22.598,0-41.896,14.086-49.607,33.96c-3.763-2.213-8.125-3.475-12.787-3.475      c-13.974,0-25.31,11.336-25.31,25.298c0,4.3,1.075,8.337,2.962,11.886c-12.062,6.725-20.224,19.617-20.224,34.416      c0,20.299,15.361,37.021,35.085,39.146v0.25h131.701v-0.399C370.69,329.141,387.727,310.218,387.727,287.345z" id="SVGID_1_" opacity="0.38"/></defs><clipPath id="SVGID_2_"><use overflow="visible" xlink:href="#SVGID_1_"/></clipPath><g clip-path="url(#SVGID_2_)"><path d="M452.945,406.26c0-24.924-20.211-45.146-45.146-45.146c-0.875,0-1.763,0.05-2.625,0.1      c-1.024-28.497-24.423-51.271-53.158-51.271c-22.598,0-41.896,14.099-49.608,33.947c-3.749-2.2-8.124-3.475-12.786-3.475      c-13.974,0-25.311,11.349-25.311,25.323c0,4.273,1.075,8.324,2.962,11.873c-12.061,6.725-20.21,19.624-20.21,34.422      c0,20.299,15.349,36.997,35.084,39.147v0.225h131.688v-0.399C435.91,448.056,452.945,429.157,452.945,406.26z" fill="#006838"/><path d="M452.26,405.531c0-24.925-20.212-45.147-45.146-45.147c-0.875,0-1.763,0.05-2.625,0.101      c-1.024-28.497-24.423-51.271-53.158-51.271c-22.597,0-41.896,14.099-49.608,33.948c-3.749-2.201-8.124-3.475-12.786-3.475      c-13.974,0-25.311,11.349-25.311,25.323c0,4.272,1.075,8.323,2.962,11.873c-12.061,6.724-20.209,19.623-20.209,34.422      c0,20.299,15.348,36.996,35.083,39.147v0.224h131.688v-0.398C435.224,447.327,452.26,428.429,452.26,405.531z" fill="#006838"/><path d="M451.573,404.802c0-24.923-20.211-45.146-45.146-45.146c-0.875,0-1.763,0.049-2.625,0.099      c-1.023-28.497-24.423-51.271-53.158-51.271c-22.598,0-41.896,14.099-49.608,33.947c-3.749-2.199-8.124-3.474-12.786-3.474      c-13.974,0-25.311,11.348-25.311,25.322c0,4.273,1.075,8.325,2.962,11.873c-12.061,6.725-20.21,19.625-20.21,34.422      c0,20.299,15.349,36.997,35.084,39.147v0.226h131.688v-0.4C434.538,446.598,451.573,427.699,451.573,404.802z" fill="#006838"/><path d="M450.887,404.074c0-24.925-20.211-45.147-45.145-45.147c-0.876,0-1.764,0.049-2.626,0.1      c-1.023-28.497-24.422-51.271-53.157-51.271c-22.598,0-41.897,14.099-49.608,33.947c-3.75-2.2-8.125-3.475-12.787-3.475      c-13.974,0-25.31,11.349-25.31,25.322c0,4.274,1.074,8.325,2.961,11.874c-12.06,6.725-20.209,19.623-20.209,34.421      c0,20.3,15.349,36.997,35.084,39.148v0.225h131.688v-0.399C433.853,445.869,450.887,426.971,450.887,404.074z" fill="#006838"/><path d="M450.202,403.345c0-24.924-20.212-45.146-45.146-45.146c-0.876,0-1.763,0.048-2.625,0.099      c-1.024-28.497-24.424-51.271-53.158-51.271c-22.599,0-41.896,14.099-49.608,33.947c-3.75-2.2-8.124-3.475-12.787-3.475      c-13.974,0-25.311,11.349-25.311,25.322c0,4.274,1.075,8.325,2.962,11.874c-12.06,6.725-20.209,19.624-20.209,34.422      c0,20.299,15.348,36.997,35.083,39.147v0.225h131.689v-0.399C433.166,445.141,450.202,426.242,450.202,403.345z" fill="#006838"/><path d="M449.516,402.616c0-24.924-20.211-45.146-45.146-45.146c-0.875,0-1.763,0.049-2.625,0.099      c-1.024-28.496-24.423-51.27-53.158-51.27c-22.598,0-41.896,14.098-49.608,33.947c-3.749-2.2-8.124-3.475-12.786-3.475      c-13.974,0-25.311,11.348-25.311,25.322c0,4.274,1.075,8.325,2.962,11.873c-12.061,6.726-20.21,19.624-20.21,34.422      c0,20.299,15.349,36.998,35.084,39.148v0.225h131.688v-0.399C432.48,444.411,449.516,425.514,449.516,402.616z" fill="#006838"/><path d="M448.83,401.888c0-24.925-20.212-45.146-45.146-45.146c-0.876,0-1.763,0.049-2.625,0.1      c-1.024-28.497-24.424-51.271-53.158-51.271c-22.598,0-41.896,14.098-49.608,33.947c-3.75-2.2-8.125-3.475-12.787-3.475      c-13.973,0-25.31,11.348-25.31,25.322c0,4.274,1.074,8.325,2.962,11.873c-12.061,6.726-20.21,19.624-20.21,34.423      c0,20.298,15.349,36.997,35.084,39.147v0.225h131.688v-0.4C431.795,443.684,448.83,424.785,448.83,401.888z" fill="#006838"/><path d="M448.145,401.159c0-24.925-20.211-45.146-45.146-45.146c-0.876,0-1.763,0.049-2.625,0.099      c-1.024-28.496-24.424-51.27-53.158-51.27c-22.598,0-41.896,14.098-49.608,33.947c-3.75-2.2-8.124-3.475-12.787-3.475      c-13.974,0-25.31,11.348-25.31,25.322c0,4.274,1.074,8.325,2.961,11.873c-12.06,6.726-20.209,19.624-20.209,34.423      c0,20.299,15.349,36.997,35.083,39.146v0.225h131.689v-0.399C431.109,442.955,448.145,424.056,448.145,401.159z" fill="#006838"/><path d="M447.458,400.431c0-24.925-20.211-45.146-45.146-45.146c-0.875,0-1.763,0.048-2.625,0.099      c-1.023-28.497-24.423-51.271-53.157-51.271c-22.599,0-41.896,14.099-49.608,33.948c-3.75-2.201-8.125-3.475-12.787-3.475      c-13.974,0-25.311,11.347-25.311,25.321c0,4.275,1.075,8.326,2.962,11.874c-12.06,6.725-20.21,19.624-20.21,34.422      c0,20.299,15.349,36.997,35.084,39.147v0.225h131.688v-0.399C430.423,442.226,447.458,423.327,447.458,400.431z" fill="#006838"/><path d="M446.772,399.702c0-24.926-20.212-45.146-45.146-45.146c-0.876,0-1.763,0.048-2.625,0.098      c-1.024-28.496-24.424-51.27-53.158-51.27c-22.598,0-41.896,14.098-49.608,33.947c-3.75-2.2-8.125-3.475-12.787-3.475      c-13.974,0-25.31,11.348-25.31,25.321c0,4.275,1.074,8.326,2.961,11.874c-12.06,6.726-20.21,19.624-20.21,34.423      c0,20.299,15.35,36.996,35.084,39.147v0.225h131.689v-0.399C429.737,441.497,446.772,422.599,446.772,399.702z" fill="#006838"/><path d="M446.087,398.974c0-24.925-20.212-45.146-45.146-45.146c-0.876,0-1.763,0.048-2.625,0.098      c-1.024-28.496-24.424-51.27-53.158-51.27c-22.598,0-41.896,14.098-49.608,33.947c-3.75-2.2-8.125-3.475-12.787-3.475      c-13.974,0-25.31,11.348-25.31,25.321c0,4.276,1.074,8.326,2.961,11.874c-12.06,6.726-20.21,19.625-20.21,34.423      c0,20.299,15.35,36.997,35.084,39.147v0.225h131.689v-0.399C429.051,440.769,446.087,421.87,446.087,398.974z" fill="#006838"/><path d="M445.401,398.245c0-24.926-20.212-45.146-45.146-45.146c-0.876,0-1.763,0.048-2.625,0.098      c-1.024-28.496-24.424-51.27-53.158-51.27c-22.598,0-41.896,14.098-49.608,33.947c-3.75-2.2-8.125-3.475-12.787-3.475      c-13.974,0-25.31,11.348-25.31,25.321c0,4.276,1.074,8.326,2.961,11.874c-12.06,6.726-20.21,19.624-20.21,34.423      c0,20.299,15.35,36.997,35.084,39.147v0.225h131.689v-0.399C428.365,440.04,445.401,421.142,445.401,398.245z" fill="#006838"/><path d="M444.715,397.517c0-24.926-20.211-45.147-45.146-45.147c-0.876,0-1.763,0.048-2.625,0.099      c-1.024-28.496-24.424-51.27-53.158-51.27c-22.598,0-41.896,14.098-49.608,33.947c-3.75-2.2-8.125-3.475-12.787-3.475      c-13.973,0-25.31,11.347-25.31,25.321c0,4.275,1.074,8.326,2.961,11.874c-12.06,6.726-20.21,19.624-20.21,34.422      c0,20.299,15.35,36.997,35.084,39.147v0.225h131.689v-0.399C427.68,439.311,444.715,420.412,444.715,397.517z" fill="#006838"/><path d="M444.029,396.788c0-24.927-20.212-45.147-45.146-45.147c-0.876,0-1.763,0.048-2.626,0.098      c-1.023-28.496-24.423-51.27-53.157-51.27c-22.599,0-41.896,14.098-49.608,33.947c-3.75-2.2-8.125-3.475-12.787-3.475      c-13.974,0-25.31,11.348-25.31,25.321c0,4.276,1.075,8.326,2.961,11.874c-12.06,6.726-20.21,19.624-20.21,34.423      c0,20.299,15.35,36.997,35.084,39.147v0.225H404.92v-0.399C426.994,438.582,444.029,419.684,444.029,396.788z" fill="#006838"/><path d="M443.344,396.06c0-24.927-20.213-45.147-45.146-45.147c-0.875,0-1.762,0.048-2.624,0.099      c-1.024-28.496-24.424-51.27-53.158-51.27c-22.598,0-41.896,14.097-49.609,33.947c-3.749-2.201-8.124-3.476-12.787-3.476      c-13.973,0-25.309,11.347-25.309,25.321c0,4.276,1.075,8.327,2.96,11.874c-12.059,6.727-20.209,19.625-20.209,34.423      c0,20.299,15.35,36.997,35.084,39.147v0.225h131.688v-0.399C426.309,437.854,443.344,418.955,443.344,396.06z" fill="#006838"/><path d="M442.658,395.331c0-24.926-20.212-45.146-45.146-45.146c-0.876,0-1.762,0.046-2.624,0.097      c-1.025-28.496-24.425-51.269-53.158-51.269c-22.599,0-41.897,14.097-49.608,33.947c-3.751-2.201-8.126-3.475-12.788-3.475      c-13.974,0-25.309,11.346-25.309,25.32c0,4.276,1.074,8.326,2.961,11.874c-12.06,6.727-20.21,19.624-20.21,34.423      c0,20.299,15.35,36.997,35.085,39.147v0.225h131.689v-0.399C425.623,437.125,442.658,418.227,442.658,395.331z" fill="#006838"/><path d="M441.972,394.603c0-24.927-20.212-45.147-45.146-45.147c-0.876,0-1.763,0.047-2.625,0.098      c-1.024-28.496-24.424-51.27-53.158-51.27c-22.598,0-41.896,14.098-49.608,33.947c-3.75-2.2-8.125-3.475-12.787-3.475      c-13.974,0-25.31,11.347-25.31,25.321c0,4.276,1.074,8.326,2.961,11.874c-12.06,6.726-20.21,19.624-20.21,34.423      c0,20.299,15.35,36.997,35.084,39.146v0.226h131.689v-0.4C424.937,436.396,441.972,417.498,441.972,394.603z" fill="#006838"/><path d="M441.285,393.874c0-24.927-20.212-45.147-45.146-45.147c-0.876,0-1.763,0.046-2.624,0.098      c-1.025-28.496-24.425-51.27-53.158-51.27c-22.599,0-41.896,14.098-49.608,33.947c-3.751-2.2-8.126-3.475-12.788-3.475      c-13.974,0-25.309,11.346-25.309,25.32c0,4.277,1.074,8.326,2.961,11.874c-12.06,6.727-20.21,19.624-20.21,34.423      c0,20.299,15.349,36.997,35.083,39.147v0.225h131.689v-0.399C424.25,435.667,441.285,416.769,441.285,393.874z" fill="#006838"/><path d="M440.6,393.146c0-24.927-20.212-45.147-45.146-45.147c-0.876,0-1.763,0.046-2.624,0.097      c-1.025-28.495-24.425-51.269-53.159-51.269c-22.598,0-41.896,14.098-49.608,33.947c-3.75-2.2-8.125-3.475-12.787-3.475      c-13.974,0-25.309,11.346-25.309,25.32c0,4.277,1.074,8.327,2.96,11.874c-12.059,6.727-20.21,19.625-20.21,34.423      c0,20.299,15.35,36.997,35.084,39.147v0.225h131.69v-0.399C423.564,434.938,440.6,416.04,440.6,393.146z" fill="#006838"/><path d="M439.914,392.417c0-24.927-20.212-45.147-45.145-45.147c-0.877,0-1.764,0.046-2.626,0.097      c-1.024-28.495-24.424-51.269-53.158-51.269c-22.598,0-41.896,14.098-49.607,33.947c-3.751-2.2-8.126-3.475-12.788-3.475      c-13.974,0-25.309,11.346-25.309,25.32c0,4.277,1.074,8.327,2.96,11.874c-12.06,6.727-20.21,19.624-20.21,34.423      c0,20.299,15.35,36.998,35.084,39.147v0.225h131.689v-0.399C422.879,434.21,439.914,415.312,439.914,392.417z" fill="#006838"/><path d="M439.229,391.688c0-24.928-20.213-45.147-45.146-45.147c-0.877,0-1.763,0.045-2.625,0.097      c-1.024-28.495-24.425-51.27-53.158-51.27c-22.598,0-41.896,14.098-49.608,33.948c-3.751-2.201-8.126-3.476-12.788-3.476      c-13.974,0-25.309,11.347-25.309,25.32c0,4.278,1.074,8.327,2.96,11.875c-12.059,6.727-20.21,19.624-20.21,34.423      c0,20.299,15.35,36.997,35.083,39.146v0.226h131.69v-0.399C422.193,433.481,439.229,414.583,439.229,391.688z" fill="#006838"/><path d="M438.543,390.959c0-24.928-20.213-45.147-45.146-45.147c-0.876,0-1.763,0.046-2.625,0.097      c-1.024-28.495-24.424-51.269-53.158-51.269c-22.598,0-41.896,14.098-49.607,33.947c-3.752-2.2-8.126-3.475-12.788-3.475      c-13.974,0-25.31,11.346-25.31,25.32c0,4.277,1.074,8.327,2.961,11.874c-12.06,6.727-20.21,19.624-20.21,34.424      c0,20.298,15.351,36.996,35.084,39.146v0.225h131.69v-0.399C421.507,432.752,438.543,413.854,438.543,390.959z" fill="#006838"/><path d="M437.856,390.23c0-24.927-20.212-45.146-45.146-45.146c-0.876,0-1.763,0.045-2.625,0.096      c-1.024-28.495-24.424-51.269-53.158-51.269c-22.598,0-41.896,14.098-49.608,33.947c-3.75-2.2-8.125-3.475-12.787-3.475      c-13.974,0-25.309,11.346-25.309,25.32c0,4.278,1.073,8.327,2.96,11.874c-12.059,6.727-20.21,19.625-20.21,34.423      c0,20.299,15.351,36.997,35.084,39.147v0.225h131.689v-0.399C420.821,432.024,437.856,413.126,437.856,390.23z" fill="#006838"/><path d="M437.171,389.502c0-24.928-20.212-45.146-45.146-45.146c-0.877,0-1.763,0.045-2.625,0.097      c-1.024-28.496-24.424-51.27-53.158-51.27c-22.598,0-41.896,14.098-49.608,33.948c-3.751-2.201-8.126-3.476-12.788-3.476      c-13.973,0-25.309,11.346-25.309,25.32c0,4.278,1.074,8.327,2.96,11.874c-12.059,6.727-20.21,19.624-20.21,34.423      c0,20.299,15.35,36.997,35.083,39.147v0.225h131.69v-0.399C420.136,431.296,437.171,412.396,437.171,389.502z" fill="#006838"/><path d="M436.485,388.773c0-24.928-20.213-45.146-45.146-45.146c-0.877,0-1.763,0.044-2.625,0.096      c-1.025-28.495-24.425-51.269-53.158-51.269c-22.598,0-41.896,14.097-49.608,33.947c-3.751-2.2-8.126-3.476-12.788-3.476      c-13.974,0-25.309,11.346-25.309,25.32c0,4.279,1.074,8.328,2.96,11.875c-12.059,6.727-20.21,19.624-20.21,34.423      c0,20.299,15.35,36.997,35.084,39.147v0.225h131.69v-0.399C419.449,430.566,436.485,411.668,436.485,388.773z" fill="#006838"/><path d="M435.799,388.045c0-24.928-20.213-45.147-45.146-45.147c-0.877,0-1.763,0.045-2.625,0.097      c-1.024-28.496-24.425-51.27-53.158-51.27c-22.598,0-41.896,14.098-49.608,33.947c-3.751-2.199-8.126-3.475-12.788-3.475      c-13.974,0-25.308,11.346-25.308,25.32c0,4.278,1.073,8.328,2.959,11.875c-12.059,6.726-20.21,19.623-20.21,34.423      c0,20.298,15.351,36.997,35.085,39.147v0.225h131.689v-0.4C418.764,429.838,435.799,410.938,435.799,388.045z" fill="#006838"/><path d="M435.113,387.316c0-24.928-20.213-45.147-45.146-45.147c-0.877,0-1.763,0.045-2.625,0.097      c-1.024-28.496-24.425-51.269-53.158-51.269c-22.598,0-41.896,14.097-49.608,33.946c-3.751-2.199-8.126-3.474-12.788-3.474      c-13.974,0-25.309,11.345-25.309,25.319c0,4.278,1.073,8.327,2.96,11.875c-12.059,6.726-20.21,19.624-20.21,34.423      c0,20.298,15.351,36.997,35.084,39.146v0.225h131.69v-0.399C418.078,429.109,435.113,410.211,435.113,387.316z" fill="#006838"/><path d="M434.428,386.589c0-24.929-20.213-45.148-45.146-45.148c-0.877,0-1.763,0.045-2.625,0.097      c-1.024-28.495-24.425-51.269-53.158-51.269c-22.598,0-41.896,14.097-49.608,33.947c-3.751-2.2-8.126-3.476-12.788-3.476      c-13.974,0-25.309,11.346-25.309,25.319c0,4.28,1.073,8.329,2.96,11.876c-12.059,6.726-20.21,19.623-20.21,34.423      c0,20.298,15.351,36.997,35.084,39.147v0.225h131.69v-0.399C417.393,428.381,434.428,409.482,434.428,386.589z" fill="#006838"/><path d="M433.742,385.859c0-24.929-20.214-45.147-45.146-45.147c-0.877,0-1.763,0.044-2.625,0.096      c-1.023-28.495-24.424-51.269-53.158-51.269c-22.597,0-41.896,14.097-49.607,33.947c-3.752-2.2-8.126-3.475-12.789-3.475      c-13.973,0-25.308,11.345-25.308,25.319c0,4.279,1.073,8.328,2.96,11.875c-12.059,6.727-20.21,19.624-20.21,34.423      c0,20.299,15.351,36.997,35.085,39.147v0.225h131.69v-0.399C416.706,427.651,433.742,408.753,433.742,385.859z" fill="#006838"/><path d="M433.056,385.131c0-24.929-20.213-45.147-45.146-45.147c-0.877,0-1.763,0.044-2.625,0.096      c-1.024-28.495-24.425-51.269-53.158-51.269c-22.598,0-41.896,14.097-49.608,33.947c-3.751-2.2-8.126-3.475-12.788-3.475      c-13.974,0-25.309,11.345-25.309,25.318c0,4.28,1.073,8.328,2.96,11.876c-12.059,6.726-20.21,19.623-20.21,34.423      c0,20.299,15.351,36.997,35.084,39.146v0.226h131.69v-0.399C416.021,426.923,433.056,408.024,433.056,385.131z" fill="#006838"/><path d="M432.37,384.402c0-24.929-20.213-45.147-45.146-45.147c-0.877,0-1.763,0.044-2.625,0.095      c-1.025-28.494-24.425-51.268-53.158-51.268c-22.598,0-41.896,14.097-49.608,33.947c-3.751-2.2-8.126-3.475-12.788-3.475      c-13.974,0-25.309,11.345-25.309,25.318c0,4.28,1.073,8.329,2.96,11.876c-12.059,6.727-20.21,19.624-20.21,34.423      c0,20.299,15.35,36.997,35.084,39.146v0.226h131.69v-0.4C415.335,426.194,432.37,407.296,432.37,384.402z" fill="#006838"/><path d="M431.685,383.674c0-24.929-20.214-45.147-45.146-45.147c-0.877,0-1.763,0.044-2.625,0.096      c-1.024-28.495-24.425-51.269-53.158-51.269c-22.598,0-41.896,14.096-49.608,33.947c-3.751-2.2-8.126-3.475-12.789-3.475      c-13.973,0-25.308,11.345-25.308,25.318c0,4.28,1.073,8.329,2.959,11.876c-12.058,6.727-20.21,19.624-20.21,34.423      c0,20.299,15.351,36.997,35.084,39.147v0.225h131.69v-0.399C414.649,425.466,431.685,406.567,431.685,383.674z" fill="#006838"/><path d="M430.998,382.945c0-24.93-20.213-45.147-45.146-45.147c-0.877,0-1.763,0.043-2.625,0.095      c-1.024-28.495-24.425-51.269-53.158-51.269c-22.598,0-41.896,14.097-49.608,33.947c-3.751-2.199-8.126-3.475-12.788-3.475      c-13.974,0-25.309,11.345-25.309,25.319c0,4.28,1.073,8.328,2.96,11.875c-12.059,6.728-20.21,19.624-20.21,34.423      c0,20.299,15.351,36.997,35.084,39.147v0.225h131.69v-0.399C413.963,424.736,430.998,405.838,430.998,382.945z" fill="#006838"/><path d="M430.313,382.217c0-24.93-20.214-45.148-45.146-45.148c-0.878,0-1.763,0.043-2.625,0.096      c-1.024-28.495-24.426-51.269-53.158-51.269c-22.598,0-41.897,14.097-49.608,33.947c-3.752-2.2-8.127-3.475-12.789-3.475      c-13.973,0-25.308,11.344-25.308,25.318c0,4.28,1.073,8.329,2.96,11.876c-12.058,6.727-20.21,19.623-20.21,34.423      c0,20.299,15.351,36.997,35.083,39.147v0.225h131.691v-0.399C413.277,424.008,430.313,405.109,430.313,382.217z" fill="#006838"/><path d="M429.627,381.488c0-24.93-20.213-45.147-45.146-45.147c-0.877,0-1.762,0.042-2.625,0.095      c-1.023-28.495-24.425-51.269-53.157-51.269c-22.599,0-41.896,14.097-49.608,33.947c-3.752-2.2-8.127-3.475-12.789-3.475      c-13.973,0-25.308,11.345-25.308,25.318c0,4.281,1.072,8.329,2.959,11.876c-12.059,6.727-20.21,19.624-20.21,34.423      c0,20.299,15.352,36.997,35.084,39.147v0.225h131.691v-0.399C412.591,423.279,429.627,404.381,429.627,381.488z" fill="#006838"/><path d="M428.941,380.76c0-24.93-20.214-45.147-45.146-45.147c-0.878,0-1.763,0.042-2.626,0.095      c-1.024-28.495-24.425-51.269-53.158-51.269c-22.597,0-41.896,14.097-49.607,33.947c-3.752-2.2-8.127-3.475-12.789-3.475      c-13.974,0-25.308,11.345-25.308,25.318c0,4.281,1.073,8.329,2.959,11.876c-12.058,6.727-20.21,19.624-20.21,34.423      c0,20.299,15.352,36.997,35.084,39.147v0.225h131.691v-0.399C411.905,422.551,428.941,403.652,428.941,380.76z" fill="#006838"/><path d="M428.255,380.031c0-24.93-20.214-45.148-45.146-45.148c-0.878,0-1.763,0.043-2.625,0.095      c-1.024-28.494-24.426-51.268-53.158-51.268c-22.598,0-41.896,14.096-49.608,33.947c-3.751-2.2-8.126-3.475-12.789-3.475      c-13.973,0-25.308,11.344-25.308,25.317c0,4.281,1.073,8.33,2.959,11.876c-12.058,6.728-20.21,19.624-20.21,34.424      c0,20.298,15.351,36.997,35.084,39.146v0.226h131.69v-0.4C411.22,421.821,428.255,402.924,428.255,380.031z" fill="#006838"/><path d="M427.569,379.302c0-24.93-20.214-45.147-45.146-45.147c-0.877,0-1.763,0.042-2.625,0.095      c-1.024-28.495-24.425-51.268-53.158-51.268c-22.597,0-41.896,14.096-49.608,33.947c-3.751-2.201-8.126-3.475-12.788-3.475      c-13.974,0-25.308,11.343-25.308,25.317c0,4.281,1.072,8.329,2.959,11.876c-12.058,6.727-20.21,19.624-20.21,34.423      c0,20.299,15.352,36.997,35.084,39.147v0.225H388.46v-0.399C410.533,421.093,427.569,402.194,427.569,379.302z" fill="#006838"/><path d="M426.884,378.573c0-24.93-20.214-45.147-45.146-45.147c-0.879,0-1.764,0.042-2.626,0.095      c-1.024-28.494-24.425-51.269-53.158-51.269c-22.597,0-41.896,14.097-49.607,33.947c-3.752-2.199-8.127-3.475-12.789-3.475      c-13.974,0-25.308,11.344-25.308,25.318c0,4.281,1.073,8.329,2.959,11.876c-12.058,6.727-20.21,19.624-20.21,34.423      c0,20.299,15.352,36.997,35.084,39.147v0.225h131.692v-0.399C409.848,420.365,426.884,401.466,426.884,378.573z" fill="#006838"/><path d="M426.198,377.846c0-24.931-20.214-45.148-45.146-45.148c-0.878,0-1.764,0.042-2.625,0.095      c-1.025-28.495-24.426-51.269-53.159-51.269c-22.598,0-41.896,14.097-49.608,33.947c-3.751-2.199-8.126-3.474-12.789-3.474      c-13.973,0-25.308,11.343-25.308,25.317c0,4.281,1.073,8.33,2.96,11.876c-12.059,6.728-20.21,19.624-20.21,34.423      c0,20.299,15.352,36.997,35.084,39.147v0.225h131.691v-0.399C409.162,419.637,426.198,400.738,426.198,377.846z" fill="#006838"/><path d="M425.512,377.117c0-24.931-20.214-45.148-45.146-45.148c-0.878,0-1.763,0.042-2.625,0.094      c-1.024-28.494-24.426-51.268-53.158-51.268c-22.598,0-41.896,14.096-49.608,33.947c-3.752-2.2-8.127-3.475-12.789-3.475      c-13.974,0-25.308,11.344-25.308,25.317c0,4.282,1.072,8.33,2.959,11.876c-12.058,6.728-20.21,19.624-20.21,34.424      c0,20.299,15.352,36.997,35.084,39.147v0.225h131.691v-0.399C408.477,418.907,425.512,400.009,425.512,377.117z" fill="#006838"/><path d="M424.826,376.388c0-24.931-20.215-45.148-45.146-45.148c-0.878,0-1.762,0.042-2.625,0.095      c-1.024-28.494-24.426-51.268-53.158-51.268c-22.598,0-41.896,14.096-49.608,33.947c-3.751-2.2-8.126-3.475-12.788-3.475      c-13.974,0-25.308,11.343-25.308,25.317c0,4.282,1.072,8.33,2.959,11.876c-12.059,6.728-20.211,19.624-20.211,34.424      c0,20.298,15.352,36.997,35.084,39.146v0.226h131.691v-0.4C407.79,418.178,424.826,399.279,424.826,376.388z" fill="#006838"/><path d="M424.14,375.66c0-24.932-20.214-45.148-45.146-45.148c-0.878,0-1.762,0.041-2.625,0.094      c-1.024-28.494-24.426-51.268-53.158-51.268c-22.598,0-41.896,14.096-49.608,33.947c-3.752-2.2-8.127-3.475-12.788-3.475      c-13.974,0-25.308,11.343-25.308,25.317c0,4.282,1.072,8.33,2.959,11.876c-12.058,6.728-20.21,19.624-20.21,34.423      c0,20.299,15.352,36.998,35.084,39.147v0.225h131.692v-0.399C407.104,417.449,424.14,398.551,424.14,375.66z" fill="#006838"/><path d="M423.454,374.932c0-24.932-20.214-45.148-45.146-45.148c-0.878,0-1.763,0.041-2.625,0.094      c-1.024-28.494-24.426-51.268-53.158-51.268c-22.598,0-41.896,14.096-49.608,33.947c-3.752-2.2-8.127-3.475-12.788-3.475      c-13.975,0-25.308,11.343-25.308,25.317c0,4.282,1.072,8.33,2.959,11.876c-12.058,6.728-20.21,19.624-20.21,34.423      c0,20.299,15.352,36.997,35.084,39.147v0.225h131.691v-0.398C406.419,416.721,423.454,397.823,423.454,374.932z" fill="#006838"/><path d="M422.769,374.202c0-24.931-20.214-45.147-45.146-45.147c-0.879,0-1.763,0.04-2.625,0.094      c-1.025-28.494-24.427-51.268-53.158-51.268c-22.598,0-41.896,14.096-49.608,33.947c-3.752-2.201-8.128-3.475-12.79-3.475      c-13.973,0-25.307,11.342-25.307,25.316c0,4.283,1.072,8.33,2.958,11.876c-12.057,6.728-20.21,19.624-20.21,34.424      c0,20.299,15.352,36.997,35.084,39.147v0.225h131.692v-0.399C405.732,415.992,422.769,397.094,422.769,374.202z" fill="#006838"/><path d="M422.082,373.474c0-24.932-20.214-45.147-45.146-45.147c-0.878,0-1.763,0.04-2.625,0.093      c-1.024-28.494-24.426-51.268-53.158-51.268c-22.598,0-41.896,14.096-49.608,33.947c-3.752-2.2-8.127-3.475-12.789-3.475      c-13.974,0-25.307,11.343-25.307,25.317c0,4.283,1.072,8.33,2.959,11.876c-12.058,6.728-20.21,19.624-20.21,34.424      c0,20.298,15.352,36.997,35.084,39.146v0.226h131.691v-0.4C405.047,415.264,422.082,396.365,422.082,373.474z" fill="#006838"/><path d="M421.396,372.745c0-24.932-20.214-45.147-45.146-45.147c-0.878,0-1.763,0.039-2.625,0.093      c-1.024-28.494-24.426-51.268-53.158-51.268c-22.598,0-41.896,14.096-49.608,33.947c-3.752-2.2-8.127-3.475-12.789-3.475      c-13.974,0-25.308,11.343-25.308,25.317c0,4.283,1.072,8.33,2.959,11.876c-12.058,6.728-20.21,19.624-20.21,34.424      c0,20.299,15.352,36.997,35.084,39.146v0.226h131.691v-0.4C404.361,414.535,421.396,395.637,421.396,372.745z" fill="#006838"/><path d="M420.711,372.017c0-24.932-20.214-45.147-45.146-45.147c-0.878,0-1.763,0.04-2.625,0.093      c-1.024-28.494-24.426-51.268-53.158-51.268c-22.598,0-41.896,14.096-49.608,33.947c-3.752-2.2-8.127-3.474-12.789-3.474      c-13.974,0-25.308,11.342-25.308,25.316c0,4.283,1.072,8.33,2.959,11.876c-12.058,6.728-20.21,19.624-20.21,34.424      c0,20.299,15.352,36.997,35.084,39.147v0.225h131.691v-0.4C403.676,413.807,420.711,394.908,420.711,372.017z" fill="#006838"/><path d="M420.025,371.288c0-24.932-20.215-45.148-45.146-45.148c-0.878,0-1.763,0.04-2.625,0.093      c-1.023-28.493-24.426-51.267-53.158-51.267c-22.598,0-41.896,14.096-49.607,33.947c-3.753-2.2-8.128-3.475-12.79-3.475      c-13.974,0-25.307,11.342-25.307,25.316c0,4.284,1.071,8.331,2.958,11.877c-12.058,6.728-20.21,19.623-20.21,34.423      c0,20.299,15.353,36.997,35.084,39.147v0.226h131.692v-0.4C402.989,413.077,420.025,394.179,420.025,371.288z" fill="#006838"/><path d="M419.339,370.559c0-24.932-20.214-45.147-45.146-45.147c-0.879,0-1.763,0.04-2.625,0.093      c-1.024-28.494-24.426-51.268-53.158-51.268c-22.598,0-41.896,14.096-49.608,33.947c-3.753-2.2-8.128-3.475-12.79-3.475      c-13.974,0-25.307,11.343-25.307,25.316c0,4.284,1.071,8.331,2.958,11.877c-12.057,6.729-20.21,19.624-20.21,34.424      c0,20.298,15.352,36.997,35.084,39.146v0.225h131.691v-0.398C402.303,412.349,419.339,393.45,419.339,370.559z" fill="#006838"/><path d="M418.653,369.831c0-24.933-20.214-45.148-45.146-45.148c-0.879,0-1.763,0.039-2.625,0.093      c-1.025-28.494-24.427-51.268-53.158-51.268c-22.598,0-41.896,14.096-49.608,33.948c-3.753-2.2-8.128-3.475-12.79-3.475      c-13.974,0-25.307,11.341-25.307,25.315c0,4.284,1.071,8.332,2.958,11.877c-12.057,6.729-20.21,19.624-20.21,34.424      c0,20.299,15.353,36.997,35.084,39.147v0.225h131.693v-0.399C401.618,411.62,418.653,392.722,418.653,369.831z" fill="#006838"/><path d="M417.968,369.103c0-24.933-20.214-45.147-45.146-45.147c-0.879,0-1.763,0.038-2.625,0.092      c-1.024-28.493-24.427-51.268-53.158-51.268c-22.598,0-41.896,14.096-49.608,33.948c-3.753-2.2-8.128-3.476-12.79-3.476      c-13.974,0-25.307,11.342-25.307,25.316c0,4.285,1.071,8.331,2.958,11.877c-12.057,6.729-20.21,19.624-20.21,34.424      c0,20.299,15.353,36.997,35.084,39.147v0.225h131.692v-0.399C400.933,410.892,417.968,391.993,417.968,369.103z" fill="#006838"/><path d="M417.281,368.374c0-24.933-20.214-45.148-45.146-45.148c-0.878,0-1.763,0.039-2.624,0.093      c-1.025-28.494-24.428-51.268-53.159-51.268c-22.598,0-41.896,14.096-49.608,33.947c-3.752-2.199-8.127-3.475-12.79-3.475      c-13.974,0-25.307,11.342-25.307,25.316c0,4.284,1.071,8.331,2.958,11.877c-12.058,6.728-20.21,19.623-20.21,34.423      c0,20.299,15.352,36.998,35.083,39.147v0.226h131.693v-0.4C400.246,410.163,417.281,391.264,417.281,368.374z" fill="#006838"/><path d="M416.596,367.645c0-24.933-20.215-45.148-45.146-45.148c-0.879,0-1.763,0.039-2.626,0.093      c-1.023-28.493-24.426-51.267-53.158-51.267c-22.598,0-41.896,14.095-49.607,33.947c-3.753-2.2-8.128-3.475-12.79-3.475      c-13.974,0-25.307,11.342-25.307,25.315c0,4.285,1.071,8.332,2.958,11.877c-12.057,6.729-20.21,19.624-20.21,34.424      c0,20.298,15.353,36.997,35.084,39.147v0.225h131.692v-0.399C399.561,409.434,416.596,390.535,416.596,367.645z" fill="#006838"/><path d="M415.91,366.917c0-24.933-20.215-45.148-45.146-45.148c-0.878,0-1.762,0.038-2.624,0.092      c-1.024-28.493-24.427-51.267-53.159-51.267c-22.597,0-41.896,14.096-49.607,33.947c-3.754-2.2-8.128-3.475-12.79-3.475      c-13.974,0-25.307,11.341-25.307,25.315c0,4.285,1.071,8.331,2.958,11.877c-12.057,6.729-20.21,19.624-20.21,34.424      c0,20.299,15.352,36.997,35.084,39.147v0.225h131.692v-0.399C398.875,408.705,415.91,389.807,415.91,366.917z" fill="#006838"/><path d="M415.225,366.188c0-24.934-20.215-45.148-45.146-45.148c-0.879,0-1.763,0.038-2.625,0.092      c-1.025-28.493-24.427-51.267-53.159-51.267c-22.598,0-41.896,14.096-49.607,33.947c-3.753-2.2-8.128-3.475-12.79-3.475      c-13.974,0-25.307,11.341-25.307,25.315c0,4.285,1.071,8.332,2.958,11.877c-12.057,6.729-20.21,19.624-20.21,34.424      c0,20.299,15.352,36.997,35.084,39.147v0.225h131.692v-0.399C398.189,407.977,415.225,389.078,415.225,366.188z" fill="#006838"/><path d="M414.539,365.459c0-24.934-20.216-45.147-45.146-45.147c-0.879,0-1.763,0.038-2.625,0.092      c-1.024-28.493-24.427-51.267-53.158-51.267c-22.598,0-41.896,14.094-49.608,33.947c-3.753-2.2-8.128-3.475-12.79-3.475      c-13.974,0-25.307,11.341-25.307,25.314c0,4.286,1.071,8.332,2.958,11.878c-12.057,6.728-20.21,19.623-20.21,34.424      c0,20.298,15.353,36.997,35.084,39.147v0.225H375.43v-0.399C397.503,407.248,414.539,388.35,414.539,365.459z" fill="#006838"/><path d="M413.853,364.73c0-24.934-20.215-45.148-45.146-45.148c-0.879,0-1.763,0.038-2.625,0.092      c-1.025-28.493-24.428-51.267-53.158-51.267c-22.598,0-41.896,14.095-49.608,33.947c-3.754-2.2-8.128-3.475-12.791-3.475      c-13.974,0-25.306,11.341-25.306,25.315c0,4.285,1.071,8.332,2.958,11.877c-12.058,6.729-20.211,19.624-20.211,34.424      c0,20.299,15.353,36.997,35.085,39.147v0.225h131.692v-0.399C396.816,406.519,413.853,387.621,413.853,364.73z" fill="#006838"/><path d="M413.167,364.002c0-24.934-20.216-45.148-45.146-45.148c-0.879,0-1.763,0.038-2.625,0.092      c-1.025-28.492-24.428-51.267-53.158-51.267c-22.598,0-41.896,14.095-49.608,33.948c-3.753-2.201-8.128-3.475-12.791-3.475      c-13.974,0-25.306,11.34-25.306,25.314c0,4.285,1.071,8.332,2.958,11.877c-12.057,6.729-20.211,19.624-20.211,34.424      c0,20.299,15.354,36.997,35.084,39.147v0.225h131.693v-0.399C396.131,405.79,413.167,386.892,413.167,364.002z" fill="#006838"/><path d="M412.481,363.273c0-24.934-20.215-45.148-45.146-45.148c-0.88,0-1.764,0.038-2.626,0.092      c-1.024-28.493-24.427-51.266-53.157-51.266c-22.598,0-41.896,14.094-49.609,33.947c-3.753-2.201-8.127-3.476-12.79-3.476      c-13.974,0-25.307,11.341-25.307,25.315c0,4.286,1.071,8.332,2.958,11.877c-12.057,6.729-20.21,19.624-20.21,34.424      c0,20.299,15.353,36.997,35.083,39.147v0.226h131.693v-0.4C395.445,405.063,412.481,386.163,412.481,363.273z" fill="#006838"/><path d="M411.795,362.545c0-24.934-20.215-45.148-45.146-45.148c-0.879,0-1.763,0.038-2.625,0.092      c-1.024-28.493-24.427-51.267-53.158-51.267c-22.598,0-41.896,14.095-49.608,33.947c-3.753-2.2-8.128-3.475-12.791-3.475      c-13.974,0-25.306,11.341-25.306,25.314c0,4.286,1.071,8.333,2.958,11.878c-12.057,6.729-20.21,19.623-20.21,34.424      c0,20.299,15.353,36.997,35.084,39.147v0.225h131.692v-0.399C394.76,404.333,411.795,385.435,411.795,362.545z" fill="#006838"/><path d="M411.109,361.816c0-24.934-20.216-45.148-45.146-45.148c-0.879,0-1.762,0.037-2.625,0.091      c-1.024-28.493-24.427-51.267-53.158-51.267c-22.598,0-41.896,14.095-49.608,33.947c-3.753-2.199-8.128-3.475-12.79-3.475      c-13.974,0-25.306,11.341-25.306,25.315c0,4.286,1.071,8.333,2.958,11.877c-12.057,6.729-20.21,19.624-20.21,34.425      c0,20.298,15.353,36.996,35.084,39.146v0.225H372v-0.399C394.073,403.604,411.109,384.705,411.109,361.816z" fill="#006838"/><path d="M410.424,361.088c0-24.934-20.216-45.148-45.146-45.148c-0.879,0-1.762,0.037-2.625,0.092      c-1.024-28.493-24.427-51.268-53.158-51.268c-22.598,0-41.896,14.095-49.607,33.947c-3.754-2.199-8.129-3.475-12.791-3.475      c-13.974,0-25.307,11.341-25.307,25.315c0,4.286,1.071,8.333,2.958,11.877c-12.056,6.729-20.21,19.624-20.21,34.424      c0,20.299,15.353,36.998,35.084,39.147v0.225h131.693v-0.399C393.388,402.875,410.424,383.977,410.424,361.088z" fill="#006838"/><path d="M409.738,360.359c0-24.935-20.216-45.148-45.146-45.148c-0.879,0-1.762,0.037-2.625,0.091      c-1.024-28.493-24.428-51.266-53.158-51.266c-22.598,0-41.896,14.094-49.608,33.947c-3.753-2.2-8.128-3.475-12.79-3.475      c-13.974,0-25.306,11.34-25.306,25.313c0,4.287,1.071,8.334,2.958,11.878c-12.057,6.729-20.21,19.624-20.21,34.425      c0,20.298,15.353,36.997,35.084,39.146v0.226h131.693v-0.399C392.702,402.146,409.738,383.248,409.738,360.359z" fill="#006838"/><path d="M409.052,359.631c0-24.935-20.216-45.148-45.146-45.148c-0.88,0-1.764,0.037-2.625,0.091      c-1.025-28.493-24.428-51.267-53.158-51.267c-22.598,0-41.896,14.095-49.608,33.947c-3.754-2.2-8.128-3.475-12.791-3.475      c-13.974,0-25.306,11.34-25.306,25.314c0,4.287,1.07,8.333,2.957,11.878c-12.056,6.729-20.21,19.624-20.21,34.424      c0,20.299,15.354,36.997,35.084,39.147v0.225h131.693v-0.399C392.016,401.418,409.052,382.52,409.052,359.631z" fill="#006838"/><path d="M408.365,358.902c0-24.936-20.215-45.148-45.146-45.148c-0.88,0-1.763,0.036-2.624,0.09      c-1.025-28.492-24.428-51.266-53.159-51.266c-22.597,0-41.896,14.094-49.608,33.947c-3.754-2.2-8.128-3.475-12.791-3.475      c-13.974,0-25.306,11.34-25.306,25.313c0,4.288,1.071,8.334,2.958,11.878c-12.057,6.729-20.21,19.624-20.21,34.425      c0,20.298,15.353,36.997,35.084,39.146v0.226h131.692v-0.4C391.33,400.689,408.365,381.791,408.365,358.902z" fill="#006838"/><path d="M407.68,358.174c0-24.935-20.215-45.148-45.146-45.148c-0.88,0-1.763,0.035-2.625,0.09      c-1.024-28.492-24.427-51.266-53.158-51.266c-22.598,0-41.896,14.094-49.608,33.947c-3.753-2.2-8.129-3.475-12.791-3.475      c-13.974,0-25.306,11.34-25.306,25.313c0,4.288,1.07,8.334,2.958,11.878c-12.056,6.729-20.211,19.625-20.211,34.425      c0,20.298,15.354,36.997,35.084,39.147v0.225H368.57v-0.4C390.645,399.961,407.68,381.063,407.68,358.174z" fill="#006838"/><path d="M406.994,357.445c0-24.936-20.215-45.148-45.146-45.148c-0.88,0-1.763,0.035-2.625,0.09      c-1.024-28.492-24.428-51.266-53.158-51.266c-22.598,0-41.896,14.094-49.608,33.947c-3.754-2.2-8.128-3.475-12.791-3.475      c-13.974,0-25.306,11.34-25.306,25.313c0,4.288,1.07,8.334,2.958,11.878c-12.057,6.729-20.211,19.624-20.211,34.424      c0,20.299,15.354,36.998,35.085,39.148v0.225h131.693v-0.4C389.959,399.232,406.994,380.334,406.994,357.445z" fill="#006838"/><path d="M406.309,356.717c0-24.936-20.216-45.149-45.146-45.149c-0.879,0-1.762,0.036-2.624,0.091      c-1.025-28.492-24.428-51.266-53.158-51.266c-22.599,0-41.896,14.094-49.608,33.947c-3.754-2.201-8.129-3.475-12.791-3.475      c-13.974,0-25.306,11.339-25.306,25.313c0,4.288,1.07,8.333,2.957,11.878c-12.057,6.729-20.21,19.624-20.21,34.424      c0,20.299,15.353,36.997,35.084,39.147v0.226h131.693v-0.4C389.272,398.504,406.309,379.605,406.309,356.717z" fill="#006838"/><path d="M405.622,355.988c0-24.936-20.216-45.149-45.146-45.149c-0.88,0-1.763,0.036-2.625,0.09      c-1.025-28.491-24.428-51.266-53.158-51.266c-22.598,0-41.896,14.095-49.608,33.947c-3.754-2.2-8.129-3.475-12.791-3.475      c-13.974,0-25.306,11.339-25.306,25.313c0,4.289,1.07,8.334,2.958,11.878c-12.056,6.729-20.21,19.624-20.21,34.425      c0,20.299,15.354,36.997,35.084,39.147v0.225h131.694v-0.399C388.586,397.774,405.622,378.876,405.622,355.988z" fill="#006838"/><path d="M404.938,355.26c0-24.936-20.217-45.149-45.146-45.149c-0.88,0-1.763,0.036-2.625,0.091      c-1.025-28.493-24.428-51.266-53.158-51.266c-22.598,0-41.896,14.094-49.608,33.946c-3.754-2.2-8.129-3.475-12.791-3.475      c-13.974,0-25.306,11.339-25.306,25.313c0,4.289,1.07,8.334,2.957,11.879c-12.056,6.729-20.21,19.623-20.21,34.424      c0,20.299,15.354,36.997,35.084,39.147v0.225h131.693v-0.399C387.9,397.046,404.938,378.147,404.938,355.26z" fill="#006838"/><path d="M404.252,354.531c0-24.936-20.217-45.148-45.146-45.148c-0.88,0-1.763,0.034-2.625,0.09      c-1.025-28.492-24.428-51.266-53.158-51.266c-22.598,0-41.896,14.094-49.608,33.947c-3.754-2.201-8.129-3.475-12.791-3.475      c-13.974,0-25.306,11.339-25.306,25.313c0,4.289,1.07,8.334,2.957,11.879c-12.056,6.729-20.21,19.623-20.21,34.424      c0,20.299,15.354,36.997,35.084,39.146v0.226h131.694v-0.399C387.215,396.317,404.252,377.419,404.252,354.531z" fill="#006838"/><path d="M403.565,353.803c0-24.937-20.216-45.149-45.146-45.149c-0.881,0-1.764,0.034-2.626,0.09      c-1.024-28.492-24.428-51.266-53.158-51.266c-22.597,0-41.896,14.094-49.607,33.947c-3.755-2.2-8.13-3.475-12.792-3.475      c-13.974,0-25.305,11.339-25.305,25.313c0,4.29,1.069,8.335,2.957,11.879c-12.056,6.729-20.21,19.624-20.21,34.425      c0,20.298,15.354,36.996,35.084,39.146v0.226h131.693v-0.399C386.529,395.589,403.565,376.689,403.565,353.803z" fill="#006838"/><path d="M402.879,353.074c0-24.937-20.216-45.15-45.146-45.15c-0.881,0-1.763,0.035-2.625,0.09      c-1.024-28.492-24.428-51.265-53.158-51.265c-22.598,0-41.896,14.093-49.608,33.948c-3.754-2.2-8.129-3.475-12.792-3.475      c-13.974,0-25.305,11.338-25.305,25.313c0,4.289,1.07,8.335,2.957,11.879c-12.056,6.729-20.21,19.623-20.21,34.424      c0,20.299,15.354,36.997,35.084,39.147v0.225H363.77v-0.399C385.843,394.859,402.879,375.961,402.879,353.074z" fill="#006838"/><path d="M402.193,352.346c0-24.938-20.216-45.149-45.146-45.149c-0.88,0-1.763,0.034-2.625,0.09      c-1.025-28.493-24.429-51.266-53.158-51.266c-22.599,0-41.896,14.094-49.608,33.947c-3.754-2.2-8.129-3.476-12.792-3.476      c-13.974,0-25.305,11.339-25.305,25.313c0,4.289,1.069,8.334,2.957,11.879c-12.056,6.729-20.21,19.624-20.21,34.424      c0,20.299,15.354,36.997,35.084,39.147v0.225h131.693v-0.399C385.157,394.131,402.193,375.232,402.193,352.346z" fill="#006838"/><path d="M401.508,351.617c0-24.937-20.217-45.149-45.146-45.149c-0.88,0-1.763,0.034-2.626,0.089      c-1.024-28.491-24.428-51.265-53.157-51.265c-22.598,0-41.896,14.094-49.608,33.947c-3.755-2.2-8.129-3.475-12.792-3.475      c-13.974,0-25.305,11.339-25.305,25.313c0,4.29,1.069,8.335,2.957,11.879c-12.055,6.729-20.21,19.623-20.21,34.424      c0,20.299,15.354,36.997,35.084,39.147v0.225h131.693v-0.399C384.472,393.402,401.508,374.504,401.508,351.617z" fill="#006838"/><path d="M400.822,350.889c0-24.938-20.217-45.149-45.146-45.149c-0.881,0-1.763,0.034-2.625,0.089      c-1.024-28.492-24.428-51.266-53.158-51.266c-22.598,0-41.896,14.094-49.608,33.947c-3.754-2.199-8.129-3.475-12.791-3.475      c-13.974,0-25.306,11.339-25.306,25.313c0,4.29,1.07,8.335,2.957,11.879c-12.056,6.729-20.21,19.624-20.21,34.425      c0,20.298,15.354,36.997,35.084,39.147v0.225h131.694v-0.4C383.786,392.674,400.822,373.775,400.822,350.889z" fill="#006838"/><path d="M400.136,350.159c0-24.937-20.216-45.149-45.146-45.149c-0.881,0-1.764,0.034-2.625,0.09      c-1.025-28.492-24.429-51.266-53.158-51.266c-22.598,0-41.896,14.094-49.608,33.947c-3.755-2.2-8.13-3.475-12.792-3.475      c-13.974,0-25.305,11.338-25.305,25.313c0,4.29,1.069,8.334,2.956,11.879c-12.055,6.729-20.21,19.623-20.21,34.424      c0,20.299,15.354,36.998,35.084,39.147v0.225h131.694v-0.399C383.1,391.944,400.136,373.047,400.136,350.159z" fill="#006838"/><path d="M399.45,349.431c0-24.937-20.217-45.149-45.146-45.149c-0.881,0-1.763,0.034-2.625,0.09      c-1.025-28.492-24.429-51.266-53.158-51.266c-22.598,0-41.896,14.094-49.608,33.947c-3.755-2.2-8.13-3.475-12.792-3.475      c-13.974,0-25.305,11.338-25.305,25.313c0,4.29,1.069,8.335,2.957,11.879c-12.055,6.729-20.21,19.623-20.21,34.424      c0,20.299,15.354,36.998,35.084,39.147v0.226h131.694v-0.4C382.414,391.216,399.45,372.318,399.45,349.431z" fill="#006838"/><path d="M398.765,348.702c0-24.937-20.217-45.148-45.146-45.148c-0.88,0-1.762,0.033-2.624,0.089      c-1.025-28.492-24.429-51.266-53.158-51.266c-22.598,0-41.896,14.094-49.608,33.947c-3.755-2.2-8.13-3.475-12.792-3.475      c-13.974,0-25.305,11.338-25.305,25.313c0,4.29,1.069,8.335,2.957,11.879c-12.055,6.729-20.21,19.623-20.21,34.424      c0,20.299,15.354,36.997,35.084,39.147v0.226h131.694v-0.4C381.729,390.487,398.765,371.59,398.765,348.702z" fill="#006838"/><path d="M398.078,347.974c0-24.937-20.217-45.149-45.146-45.149c-0.881,0-1.763,0.033-2.625,0.089      c-1.025-28.491-24.429-51.265-53.158-51.265c-22.598,0-41.896,14.093-49.608,33.948c-3.755-2.2-8.13-3.475-12.792-3.475      c-13.974,0-25.305,11.338-25.305,25.312c0,4.291,1.069,8.335,2.957,11.879c-12.056,6.73-20.211,19.624-20.211,34.425      c0,20.298,15.354,36.997,35.084,39.146v0.226h131.694v-0.399C381.043,389.759,398.078,370.86,398.078,347.974z" fill="#006838"/><path d="M397.393,347.245c0-24.938-20.217-45.149-45.146-45.149c-0.88,0-1.763,0.033-2.625,0.088      c-1.024-28.491-24.429-51.265-53.158-51.265c-22.598,0-41.896,14.093-49.607,33.948c-3.755-2.201-8.13-3.475-12.792-3.475      c-13.974,0-25.304,11.337-25.304,25.311c0,4.291,1.069,8.336,2.956,11.88c-12.056,6.729-20.21,19.623-20.21,34.425      c0,20.298,15.354,36.996,35.084,39.146v0.225h131.694v-0.399C380.356,389.029,397.393,370.132,397.393,347.245z" fill="#006838"/><path d="M396.707,346.517c0-24.938-20.217-45.149-45.146-45.149c-0.881,0-1.763,0.033-2.625,0.089      c-1.024-28.491-24.428-51.265-53.158-51.265c-22.598,0-41.896,14.092-49.608,33.948c-3.754-2.201-8.13-3.476-12.792-3.476      c-13.974,0-25.305,11.338-25.305,25.312c0,4.291,1.07,8.336,2.957,11.88c-12.055,6.729-20.211,19.624-20.211,34.425      c0,20.298,15.354,36.996,35.085,39.146v0.226h131.694v-0.4C379.671,388.302,396.707,369.403,396.707,346.517z" fill="#006838"/><path d="M396.021,345.789c0-24.938-20.217-45.15-45.146-45.15c-0.881,0-1.762,0.033-2.625,0.089      c-1.024-28.491-24.428-51.265-53.158-51.265c-22.598,0-41.896,14.092-49.607,33.947c-3.756-2.2-8.13-3.474-12.792-3.474      c-13.974,0-25.304,11.337-25.304,25.311c0,4.292,1.069,8.336,2.956,11.88c-12.056,6.729-20.211,19.623-20.211,34.425      c0,20.298,15.354,36.997,35.085,39.146v0.226h131.694v-0.4C378.985,387.573,396.021,368.674,396.021,345.789z" fill="#006838"/><path d="M395.335,345.06c0-24.938-20.216-45.149-45.146-45.149c-0.881,0-1.763,0.032-2.625,0.088      c-1.025-28.491-24.429-51.265-53.158-51.265c-22.598,0-41.896,14.093-49.608,33.947c-3.755-2.2-8.13-3.475-12.792-3.475      c-13.974,0-25.305,11.337-25.305,25.312c0,4.291,1.069,8.336,2.956,11.879c-12.055,6.73-20.21,19.624-20.21,34.425      c0,20.299,15.354,36.997,35.084,39.147v0.225h131.694v-0.399C378.299,386.844,395.335,367.945,395.335,345.06z" fill="#006838"/><path d="M394.648,344.331c0-24.938-20.217-45.149-45.146-45.149c-0.881,0-1.763,0.031-2.625,0.088      c-1.024-28.491-24.429-51.265-53.157-51.265c-22.599,0-41.896,14.093-49.608,33.946c-3.756-2.199-8.131-3.475-12.793-3.475      c-13.974,0-25.305,11.338-25.305,25.312c0,4.292,1.069,8.336,2.957,11.88c-12.056,6.73-20.211,19.623-20.211,34.425      c0,20.298,15.355,36.997,35.085,39.147v0.225H355.54v-0.4C377.613,386.115,394.648,367.217,394.648,344.331z" fill="#006838"/><path d="M393.964,343.603c0-24.938-20.218-45.149-45.146-45.149c-0.881,0-1.763,0.032-2.625,0.088      c-1.024-28.491-24.429-51.265-53.158-51.265c-22.597,0-41.896,14.093-49.608,33.947c-3.755-2.2-8.13-3.475-12.792-3.475      c-13.974,0-25.304,11.337-25.304,25.311c0,4.292,1.069,8.337,2.956,11.88c-12.055,6.73-20.21,19.623-20.21,34.424      c0,20.299,15.355,36.998,35.084,39.148v0.225h131.695v-0.4C376.928,385.387,393.964,366.488,393.964,343.603z" fill="#006838"/><path d="M393.278,342.874c0-24.938-20.218-45.149-45.146-45.149c-0.881,0-1.763,0.031-2.624,0.088      c-1.025-28.491-24.43-51.265-53.159-51.265c-22.598,0-41.896,14.093-49.607,33.947c-3.756-2.2-8.131-3.475-12.793-3.475      c-13.974,0-25.304,11.337-25.304,25.311c0,4.292,1.069,8.337,2.956,11.88c-12.055,6.73-20.21,19.624-20.21,34.425      c0,20.298,15.354,36.997,35.084,39.146v0.226h131.694v-0.4C376.242,384.658,393.278,365.76,393.278,342.874z" fill="#006838"/><path d="M392.592,342.146c0-24.938-20.217-45.149-45.146-45.149c-0.881,0-1.762,0.031-2.625,0.087      c-1.024-28.491-24.429-51.265-53.158-51.265c-22.598,0-41.896,14.093-49.607,33.947c-3.756-2.199-8.13-3.475-12.792-3.475      c-13.975,0-25.305,11.337-25.305,25.312c0,4.292,1.068,8.336,2.956,11.879c-12.055,6.731-20.21,19.624-20.21,34.425      c0,20.299,15.355,36.998,35.084,39.147v0.225h131.695v-0.399C375.556,383.93,392.592,365.031,392.592,342.146z" fill="#006838"/><path d="M391.906,341.416c0-24.938-20.218-45.149-45.146-45.149c-0.881,0-1.763,0.031-2.625,0.088      c-1.025-28.491-24.43-51.265-53.158-51.265c-22.598,0-41.896,14.093-49.608,33.947c-3.756-2.2-8.13-3.475-12.792-3.475      c-13.974,0-25.304,11.337-25.304,25.311c0,4.293,1.069,8.337,2.956,11.879c-12.055,6.731-20.21,19.625-20.21,34.426      c0,20.299,15.355,36.997,35.084,39.146v0.226h131.695v-0.399C374.87,383.2,391.906,364.302,391.906,341.416z" fill="#006838"/><path d="M391.221,340.688c0-24.938-20.218-45.148-45.146-45.148c-0.881,0-1.763,0.031-2.625,0.086      c-1.025-28.49-24.43-51.264-53.158-51.264c-22.598,0-41.896,14.093-49.608,33.947c-3.755-2.2-8.13-3.475-12.792-3.475      c-13.974,0-25.305,11.336-25.305,25.311c0,4.293,1.069,8.337,2.956,11.879c-12.055,6.731-20.21,19.625-20.21,34.426      c0,20.299,15.355,36.997,35.084,39.146v0.226h131.695v-0.399C374.184,382.472,391.221,363.573,391.221,340.688z" fill="#006838"/><path d="M390.534,339.96c0-24.939-20.218-45.15-45.146-45.15c-0.882,0-1.764,0.031-2.625,0.087      c-1.025-28.49-24.43-51.264-53.158-51.264c-22.598,0-41.896,14.092-49.608,33.947c-3.756-2.2-8.13-3.475-12.792-3.475      c-13.974,0-25.304,11.336-25.304,25.311c0,4.293,1.068,8.337,2.956,11.88c-12.055,6.73-20.211,19.624-20.211,34.425      c0,20.299,15.355,36.996,35.085,39.146v0.226h131.695v-0.399C373.498,381.743,390.534,362.845,390.534,339.96z" fill="#006838"/><path d="M389.849,339.23c0-24.939-20.218-45.149-45.146-45.149c-0.882,0-1.763,0.03-2.625,0.087      c-1.025-28.49-24.43-51.264-53.159-51.264c-22.597,0-41.896,14.092-49.608,33.947c-3.756-2.201-8.13-3.475-12.792-3.475      c-13.974,0-25.304,11.336-25.304,25.311c0,4.293,1.068,8.336,2.955,11.879c-12.054,6.73-20.21,19.624-20.21,34.426      c0,20.298,15.355,36.997,35.084,39.146v0.226h131.695v-0.399C372.813,381.014,389.849,362.116,389.849,339.23z" fill="#006838"/><path d="M389.163,338.502c0-24.939-20.218-45.149-45.146-45.149c-0.882,0-1.763,0.03-2.625,0.087      c-1.024-28.49-24.429-51.264-53.158-51.264c-22.598,0-41.896,14.092-49.608,33.947c-3.756-2.201-8.13-3.475-12.792-3.475      c-13.974,0-25.304,11.336-25.304,25.31c0,4.294,1.068,8.337,2.956,11.88c-12.055,6.731-20.21,19.624-20.21,34.426      c0,20.298,15.355,36.997,35.084,39.146v0.225h131.695v-0.399C372.127,380.286,389.163,361.387,389.163,338.502z" fill="#006838"/><path d="M388.477,337.773c0-24.939-20.217-45.149-45.146-45.149c-0.882,0-1.763,0.03-2.625,0.087      c-1.024-28.49-24.43-51.264-53.158-51.264c-22.598,0-41.896,14.092-49.608,33.948c-3.756-2.2-8.131-3.475-12.793-3.475      c-13.974,0-25.304,11.335-25.304,25.31c0,4.294,1.068,8.337,2.956,11.88c-12.054,6.731-20.21,19.623-20.21,34.425      c0,20.299,15.355,36.997,35.084,39.147v0.225h131.695v-0.399C371.441,379.557,388.477,360.658,388.477,337.773z" fill="#006838"/><path d="M387.791,337.045c0-24.939-20.218-45.149-45.146-45.149c-0.881,0-1.762,0.03-2.625,0.087      c-1.024-28.49-24.43-51.265-53.157-51.265c-22.598,0-41.896,14.092-49.608,33.948c-3.756-2.201-8.131-3.476-12.793-3.476      c-13.974,0-25.304,11.336-25.304,25.31c0,4.295,1.068,8.338,2.955,11.881c-12.054,6.73-20.21,19.623-20.21,34.425      c0,20.298,15.355,36.997,35.084,39.147v0.225h131.695v-0.4C370.755,378.828,387.791,359.93,387.791,337.045z" fill="#006838"/><path d="M387.105,336.316c0-24.939-20.218-45.149-45.146-45.149c-0.882,0-1.763,0.03-2.625,0.087      c-1.024-28.49-24.43-51.265-53.158-51.265c-22.598,0-41.896,14.092-49.608,33.947c-3.756-2.2-8.131-3.475-12.793-3.475      c-13.974,0-25.304,11.335-25.304,25.31c0,4.295,1.068,8.338,2.956,11.88c-12.054,6.731-20.21,19.624-20.21,34.426      c0,20.298,15.355,36.997,35.084,39.147v0.225h131.695v-0.4C370.069,378.1,387.105,359.201,387.105,336.316z" fill="#006838"/><path d="M386.42,335.588c0-24.939-20.218-45.149-45.146-45.149c-0.882,0-1.763,0.029-2.625,0.086      c-1.024-28.49-24.43-51.264-53.158-51.264c-22.598,0-41.896,14.092-49.608,33.947c-3.756-2.2-8.131-3.475-12.793-3.475      c-13.974,0-25.304,11.335-25.304,25.31c0,4.295,1.068,8.338,2.956,11.881c-12.055,6.73-20.211,19.623-20.211,34.425      c0,20.298,15.355,36.997,35.084,39.146v0.226h131.696v-0.4C369.383,377.371,386.42,358.473,386.42,335.588z" fill="#006838"/><path d="M385.733,334.859c0-24.94-20.218-45.149-45.146-45.149c-0.883,0-1.764,0.029-2.625,0.086      c-1.025-28.491-24.43-51.264-53.158-51.264c-22.598,0-41.896,14.092-49.608,33.947c-3.756-2.2-8.131-3.475-12.793-3.475      c-13.974,0-25.304,11.335-25.304,25.31c0,4.294,1.068,8.338,2.955,11.88c-12.054,6.731-20.21,19.624-20.21,34.425      c0,20.299,15.355,36.998,35.084,39.147v0.226h131.696v-0.4C368.697,376.642,385.733,357.743,385.733,334.859z" fill="#006838"/><path d="M385.048,334.131c0-24.94-20.218-45.15-45.146-45.15c-0.882,0-1.763,0.029-2.624,0.087      c-1.025-28.491-24.431-51.264-53.158-51.264c-22.598,0-41.897,14.092-49.608,33.947c-3.756-2.2-8.131-3.476-12.793-3.476      c-13.974,0-25.303,11.336-25.303,25.31c0,4.295,1.067,8.338,2.955,11.881c-12.054,6.731-20.211,19.624-20.211,34.425      c0,20.299,15.355,36.998,35.085,39.146v0.226h131.695v-0.399C368.012,375.914,385.048,357.016,385.048,334.131z" fill="#006838"/><path d="M384.362,333.402c0-24.94-20.219-45.15-45.146-45.15c-0.882,0-1.763,0.029-2.625,0.086      c-1.024-28.49-24.43-51.264-53.158-51.264c-22.598,0-41.896,14.092-49.608,33.947c-3.756-2.2-8.131-3.475-12.793-3.475      c-13.974,0-25.304,11.336-25.304,25.31c0,4.295,1.068,8.338,2.956,11.88c-12.054,6.732-20.21,19.624-20.21,34.426      c0,20.299,15.355,36.998,35.084,39.147v0.225h131.695v-0.399C367.326,375.185,384.362,356.286,384.362,333.402z" fill="#006838"/><path d="M383.676,332.674c0-24.941-20.218-45.15-45.146-45.15c-0.882,0-1.763,0.029-2.626,0.086      c-1.023-28.49-24.43-51.263-53.157-51.263c-22.598,0-41.896,14.092-49.608,33.947c-3.757-2.2-8.131-3.475-12.793-3.475      c-13.974,0-25.304,11.335-25.304,25.309c0,4.296,1.068,8.339,2.955,11.881c-12.054,6.732-20.21,19.624-20.21,34.426      c0,20.299,15.355,36.997,35.084,39.146v0.226h131.695v-0.4C366.64,374.456,383.676,355.558,383.676,332.674z" fill="#006838"/><path d="M382.99,331.945c0-24.941-20.218-45.15-45.146-45.15c-0.883,0-1.763,0.029-2.626,0.086      c-1.024-28.49-24.43-51.264-53.158-51.264c-22.597,0-41.896,14.092-49.607,33.947c-3.757-2.2-8.132-3.475-12.794-3.475      c-13.974,0-25.303,11.335-25.303,25.309c0,4.296,1.067,8.339,2.955,11.881c-12.055,6.731-20.211,19.624-20.211,34.426      c0,20.299,15.356,36.997,35.085,39.146v0.226h131.695v-0.4C365.954,373.728,382.99,354.829,382.99,331.945z" fill="#006838"/><path d="M382.305,331.217c0-24.941-20.219-45.15-45.146-45.15c-0.882,0-1.763,0.028-2.625,0.086      c-1.024-28.49-24.43-51.264-53.158-51.264c-22.598,0-41.896,14.092-49.608,33.947c-3.757-2.2-8.131-3.475-12.793-3.475      c-13.974,0-25.304,11.335-25.304,25.309c0,4.296,1.068,8.338,2.956,11.881c-12.054,6.731-20.21,19.623-20.21,34.426      c0,20.298,15.355,36.997,35.084,39.146v0.225h131.696v-0.399C365.268,372.998,382.305,354.1,382.305,331.217z" fill="#006838"/><path d="M381.619,330.488c0-24.941-20.219-45.15-45.146-45.15c-0.883,0-1.763,0.028-2.625,0.086      c-1.025-28.49-24.43-51.264-53.158-51.264c-22.598,0-41.896,14.092-49.608,33.947c-3.757-2.2-8.131-3.475-12.793-3.475      c-13.974,0-25.303,11.334-25.303,25.309c0,4.295,1.067,8.338,2.955,11.881c-12.054,6.731-20.211,19.623-20.211,34.425      c0,20.299,15.356,36.997,35.085,39.147v0.225H342.51v-0.399C364.582,372.27,381.619,353.371,381.619,330.488z" fill="#006838"/><path d="M380.933,329.76c0-24.941-20.218-45.15-45.146-45.15c-0.883,0-1.764,0.027-2.625,0.085      c-1.025-28.49-24.431-51.263-53.158-51.263c-22.598,0-41.896,14.091-49.608,33.948c-3.757-2.2-8.131-3.475-12.794-3.475      c-13.974,0-25.303,11.334-25.303,25.309c0,4.295,1.067,8.338,2.955,11.881c-12.054,6.731-20.21,19.623-20.21,34.425      c0,20.298,15.356,36.997,35.084,39.147v0.225h131.697v-0.4C363.896,371.541,380.933,352.643,380.933,329.76z" fill="#006838"/><path d="M380.247,329.031c0-24.941-20.218-45.15-45.146-45.15c-0.883,0-1.764,0.027-2.626,0.085      c-1.024-28.49-24.43-51.263-53.157-51.263c-22.599,0-41.896,14.091-49.608,33.948c-3.757-2.201-8.132-3.475-12.794-3.475      c-13.974,0-25.303,11.334-25.303,25.308c0,4.296,1.067,8.339,2.954,11.881c-12.054,6.731-20.21,19.624-20.21,34.426      c0,20.298,15.356,36.997,35.084,39.146v0.226h131.696v-0.4C363.211,370.813,380.247,351.914,380.247,329.031z" fill="#006838"/><path d="M379.562,328.303c0-24.942-20.219-45.15-45.146-45.15c-0.882,0-1.763,0.027-2.625,0.085      c-1.024-28.49-24.431-51.264-53.158-51.264c-22.598,0-41.896,14.092-49.608,33.947c-3.757-2.2-8.131-3.474-12.794-3.474      c-13.974,0-25.303,11.333-25.303,25.308c0,4.296,1.067,8.339,2.955,11.881c-12.054,6.731-20.211,19.624-20.211,34.426      c0,20.298,15.356,36.997,35.085,39.146v0.226h131.695v-0.4C362.525,370.084,379.562,351.186,379.562,328.303z" fill="#006838"/><path d="M378.875,327.574c0-24.942-20.218-45.15-45.146-45.15c-0.883,0-1.763,0.027-2.625,0.085      c-1.025-28.49-24.431-51.264-53.158-51.264c-22.598,0-41.896,14.092-49.608,33.947c-3.757-2.2-8.132-3.475-12.793-3.475      c-13.974,0-25.303,11.334-25.303,25.309c0,4.296,1.067,8.339,2.955,11.881c-12.054,6.731-20.211,19.623-20.211,34.426      c0,20.298,15.356,36.997,35.084,39.146v0.226h131.696v-0.4C361.839,369.355,378.875,350.457,378.875,327.574z" fill="#006838"/><path d="M378.189,326.846c0-24.942-20.219-45.15-45.146-45.15c-0.882,0-1.762,0.027-2.625,0.084      c-1.024-28.489-24.431-51.263-53.158-51.263c-22.598,0-41.896,14.091-49.607,33.947c-3.757-2.2-8.132-3.475-12.794-3.475      c-13.974,0-25.303,11.334-25.303,25.308c0,4.297,1.067,8.34,2.954,11.882c-12.054,6.731-20.21,19.623-20.21,34.425      c0,20.299,15.356,36.998,35.084,39.147v0.226H339.08v-0.4C361.153,368.626,378.189,349.729,378.189,326.846z" fill="#006838"/><path d="M377.504,326.117c0-24.943-20.219-45.15-45.146-45.15c-0.883,0-1.763,0.026-2.625,0.084      c-1.025-28.489-24.43-51.263-53.158-51.263c-22.598,0-41.896,14.091-49.607,33.947c-3.757-2.2-8.132-3.475-12.794-3.475      c-13.975,0-25.303,11.333-25.303,25.308c0,4.297,1.067,8.34,2.955,11.881c-12.054,6.732-20.211,19.624-20.211,34.426      c0,20.299,15.356,36.997,35.085,39.147v0.226h131.696v-0.4C360.468,367.897,377.504,348.999,377.504,326.117z" fill="#006838"/><path d="M376.818,325.389c0-24.943-20.22-45.15-45.146-45.15c-0.883,0-1.763,0.026-2.625,0.084      c-1.025-28.489-24.431-51.263-53.158-51.263c-22.598,0-41.896,14.091-49.608,33.947c-3.757-2.2-8.132-3.475-12.794-3.475      c-13.974,0-25.303,11.333-25.303,25.308c0,4.297,1.067,8.339,2.955,11.881c-12.053,6.732-20.21,19.623-20.21,34.426      c0,20.298,15.356,36.997,35.084,39.146v0.226h131.697v-0.399C359.781,367.169,376.818,348.271,376.818,325.389z" fill="#006838"/><path d="M376.132,324.66c0-24.943-20.219-45.151-45.146-45.151c-0.883,0-1.764,0.026-2.625,0.085      c-1.025-28.49-24.432-51.263-53.158-51.263c-22.598,0-41.896,14.091-49.608,33.948c-3.758-2.2-8.132-3.476-12.794-3.476      c-13.974,0-25.303,11.334-25.303,25.309c0,4.297,1.067,8.339,2.954,11.881c-12.053,6.732-20.21,19.623-20.21,34.426      c0,20.298,15.356,36.997,35.084,39.146v0.226h131.696v-0.4C359.096,366.44,376.132,347.542,376.132,324.66z" fill="#006838"/><path d="M375.446,323.931c0-24.942-20.219-45.15-45.146-45.15c-0.883,0-1.763,0.026-2.625,0.084      c-1.024-28.489-24.431-51.262-53.158-51.262c-22.598,0-41.896,14.091-49.608,33.947c-3.757-2.199-8.132-3.475-12.794-3.475      c-13.974,0-25.302,11.334-25.302,25.308c0,4.298,1.067,8.34,2.955,11.882c-12.054,6.731-20.211,19.623-20.211,34.426      c0,20.298,15.357,36.997,35.085,39.146v0.225h131.696v-0.399C358.41,365.711,375.446,346.813,375.446,323.931z" fill="#006838"/><path d="M374.761,323.203c0-24.943-20.22-45.151-45.146-45.151c-0.883,0-1.763,0.026-2.625,0.084      c-1.025-28.489-24.431-51.263-53.158-51.263c-22.598,0-41.896,14.091-49.608,33.947c-3.757-2.2-8.132-3.475-12.794-3.475      c-13.974,0-25.303,11.334-25.303,25.308c0,4.298,1.067,8.34,2.955,11.881c-12.053,6.732-20.21,19.624-20.21,34.426      c0,20.299,15.356,36.997,35.084,39.147v0.225h131.697v-0.399C357.724,364.982,374.761,346.084,374.761,323.203z" fill="#006838"/><path d="M374.074,322.474c0-24.942-20.219-45.15-45.146-45.15c-0.883,0-1.762,0.026-2.624,0.084      c-1.025-28.489-24.432-51.263-53.159-51.263c-22.597,0-41.896,14.091-49.607,33.947c-3.758-2.2-8.132-3.475-12.794-3.475      c-13.974,0-25.303,11.333-25.303,25.307c0,4.299,1.067,8.341,2.954,11.882c-12.053,6.732-20.21,19.624-20.21,34.427      c0,20.298,15.356,36.996,35.084,39.146v0.225h131.696v-0.399C357.038,364.254,374.074,345.355,374.074,322.474z" fill="#006838"/><path d="M373.389,321.745c0-24.943-20.219-45.15-45.146-45.15c-0.883,0-1.762,0.026-2.625,0.084      c-1.025-28.489-24.431-51.263-53.158-51.263c-22.598,0-41.896,14.091-49.607,33.947c-3.758-2.2-8.133-3.475-12.794-3.475      c-13.974,0-25.303,11.333-25.303,25.307c0,4.299,1.067,8.341,2.954,11.882c-12.053,6.732-20.21,19.624-20.21,34.426      c0,20.298,15.357,36.997,35.085,39.146v0.226h131.696v-0.4C356.353,363.525,373.389,344.627,373.389,321.745z" fill="#006838"/><path d="M372.703,321.018c0-24.944-20.219-45.151-45.146-45.151c-0.883,0-1.763,0.025-2.625,0.084      c-1.025-28.489-24.431-51.263-53.158-51.263c-22.598,0-41.896,14.091-49.608,33.948c-3.757-2.2-8.132-3.475-12.794-3.475      c-13.974,0-25.303,11.332-25.303,25.307c0,4.299,1.067,8.341,2.954,11.881c-12.053,6.733-20.21,19.624-20.21,34.427      c0,20.298,15.356,36.997,35.084,39.147v0.225h131.697v-0.4C355.666,362.797,372.703,343.898,372.703,321.018z" fill="#006838"/><path d="M372.018,320.288c0-24.943-20.22-45.15-45.146-45.15c-0.884,0-1.763,0.025-2.625,0.083      c-1.025-28.488-24.432-51.262-53.158-51.262c-22.598,0-41.896,14.09-49.608,33.947c-3.758-2.2-8.132-3.475-12.794-3.475      c-13.975,0-25.302,11.333-25.302,25.307c0,4.299,1.066,8.34,2.954,11.881c-12.053,6.732-20.211,19.624-20.211,34.427      c0,20.298,15.357,36.997,35.085,39.146v0.226h131.696v-0.4C354.98,362.068,372.018,343.17,372.018,320.288z" fill="#006838"/><path d="M371.331,319.56c0-24.944-20.219-45.15-45.146-45.15c-0.884,0-1.763,0.025-2.625,0.083      c-1.025-28.489-24.432-51.263-53.159-51.263c-22.597,0-41.896,14.091-49.607,33.947c-3.758-2.199-8.133-3.475-12.795-3.475      c-13.974,0-25.302,11.333-25.302,25.307c0,4.3,1.066,8.341,2.954,11.882c-12.053,6.732-20.211,19.624-20.211,34.426      c0,20.299,15.357,36.998,35.084,39.147v0.226h131.697v-0.4C354.295,361.34,371.331,342.441,371.331,319.56z" fill="#006838"/><path d="M370.646,318.831c0-24.944-20.22-45.151-45.146-45.151c-0.884,0-1.763,0.025-2.625,0.084      c-1.024-28.489-24.431-51.262-53.158-51.262c-22.598,0-41.896,14.09-49.608,33.947c-3.757-2.2-8.132-3.474-12.794-3.474      c-13.974,0-25.302,11.333-25.302,25.306c0,4.3,1.066,8.341,2.954,11.882c-12.053,6.732-20.21,19.623-20.21,34.426      c0,20.299,15.356,36.997,35.084,39.146v0.226h131.697v-0.399C353.609,360.61,370.646,341.712,370.646,318.831z" fill="#006838"/><path d="M369.959,318.103c0-24.944-20.219-45.151-45.146-45.151c-0.884,0-1.763,0.025-2.625,0.084      c-1.025-28.489-24.432-51.263-53.158-51.263c-22.598,0-41.896,14.09-49.608,33.947c-3.757-2.2-8.133-3.474-12.794-3.474      c-13.974,0-25.302,11.332-25.302,25.305c0,4.301,1.066,8.342,2.954,11.883c-12.053,6.732-20.211,19.623-20.211,34.426      c0,20.299,15.357,36.997,35.085,39.146v0.226h131.697v-0.399C352.924,359.882,369.959,340.983,369.959,318.103z" fill="#006838"/><path d="M369.273,317.374c0-24.944-20.22-45.151-45.146-45.151c-0.884,0-1.763,0.025-2.625,0.084      c-1.025-28.489-24.433-51.263-53.158-51.263c-22.598,0-41.896,14.09-49.608,33.947c-3.758-2.2-8.133-3.475-12.795-3.475      c-13.974,0-25.302,11.332-25.302,25.306c0,4.3,1.066,8.342,2.954,11.883c-12.052,6.732-20.21,19.623-20.21,34.426      c0,20.298,15.357,36.997,35.084,39.146v0.226h131.697v-0.4C352.237,359.153,369.273,340.255,369.273,317.374z" fill="#006838"/><path d="M368.588,316.646c0-24.944-20.22-45.151-45.146-45.151c-0.884,0-1.762,0.024-2.625,0.083      c-1.025-28.488-24.431-51.262-53.157-51.262c-22.599,0-41.896,14.09-49.608,33.947c-3.759-2.2-8.133-3.474-12.795-3.474      c-13.974,0-25.302,11.331-25.302,25.306c0,4.3,1.065,8.342,2.953,11.882c-12.052,6.733-20.211,19.624-20.211,34.427      c0,20.298,15.357,36.996,35.085,39.146v0.226h131.697v-0.4C351.552,358.425,368.588,339.525,368.588,316.646z" fill="#006838"/><path d="M367.902,315.917c0-24.944-20.22-45.151-45.146-45.151c-0.884,0-1.763,0.024-2.625,0.083      c-1.025-28.488-24.432-51.262-53.158-51.262c-22.598,0-41.896,14.09-49.608,33.947c-3.758-2.2-8.133-3.474-12.795-3.474      c-13.974,0-25.302,11.331-25.302,25.306c0,4.3,1.066,8.342,2.954,11.882c-12.053,6.733-20.211,19.624-20.211,34.427      c0,20.298,15.357,36.996,35.085,39.146v0.226h131.697v-0.4C350.865,357.695,367.902,338.798,367.902,315.917z" fill="#006838"/><path d="M367.217,315.188c0-24.945-20.221-45.151-45.146-45.151c-0.884,0-1.763,0.023-2.625,0.083      c-1.025-28.488-24.432-51.262-53.158-51.262c-22.598,0-41.896,14.09-49.608,33.947c-3.758-2.201-8.133-3.474-12.795-3.474      c-13.974,0-25.302,11.331-25.302,25.305c0,4.301,1.066,8.342,2.954,11.882c-12.052,6.734-20.21,19.624-20.21,34.428      c0,20.298,15.357,36.996,35.084,39.146v0.225h131.698v-0.399C350.18,356.967,367.217,338.068,367.217,315.188z" fill="#006838"/><path d="M366.531,314.46c0-24.945-20.221-45.151-45.146-45.151c-0.885,0-1.763,0.024-2.625,0.083      c-1.025-28.489-24.433-51.263-53.158-51.263c-22.598,0-41.896,14.09-49.608,33.948c-3.759-2.201-8.133-3.475-12.795-3.475      c-13.974,0-25.302,11.332-25.302,25.305c0,4.301,1.065,8.342,2.953,11.883c-12.052,6.733-20.211,19.623-20.211,34.426      c0,20.299,15.358,36.997,35.085,39.147v0.225h131.697v-0.4C349.494,356.238,366.531,337.34,366.531,314.46z" fill="#006838"/><path d="M365.845,313.731c0-24.945-20.22-45.151-45.146-45.151c-0.885,0-1.764,0.023-2.626,0.082      c-1.025-28.488-24.432-51.261-53.157-51.261c-22.599,0-41.897,14.09-49.608,33.947c-3.759-2.2-8.133-3.475-12.796-3.475      c-13.974,0-25.301,11.332-25.301,25.306c0,4.301,1.066,8.342,2.953,11.882c-12.052,6.733-20.21,19.624-20.21,34.427      c0,20.298,15.358,36.997,35.085,39.146v0.226h131.697v-0.4C348.809,355.51,365.845,336.611,365.845,313.731z" fill="#006838"/><path d="M365.158,313.002c0-24.945-20.219-45.15-45.146-45.15c-0.884,0-1.763,0.023-2.625,0.082      c-1.025-28.488-24.433-51.262-53.158-51.262c-22.598,0-41.896,14.09-49.608,33.947c-3.758-2.2-8.133-3.475-12.795-3.475      c-13.974,0-25.302,11.331-25.302,25.306c0,4.3,1.066,8.342,2.953,11.882c-12.052,6.733-20.21,19.623-20.21,34.427      c0,20.298,15.358,36.997,35.084,39.146v0.226H326.05v-0.4C348.122,354.781,365.158,335.883,365.158,313.002z" fill="#006838"/><path d="M364.473,312.273c0-24.945-20.22-45.15-45.146-45.15c-0.884,0-1.762,0.023-2.624,0.082      c-1.025-28.488-24.433-51.262-53.158-51.262c-22.598,0-41.896,14.09-49.608,33.947c-3.759-2.2-8.133-3.475-12.795-3.475      c-13.974,0-25.301,11.331-25.301,25.305c0,4.301,1.065,8.343,2.953,11.883c-12.052,6.733-20.211,19.623-20.211,34.426      c0,20.299,15.358,36.998,35.085,39.147v0.226h131.697v-0.4C347.437,354.053,364.473,335.154,364.473,312.273z" fill="#006838"/><path d="M363.787,311.546c0-24.946-20.22-45.151-45.146-45.151c-0.884,0-1.763,0.022-2.625,0.082      c-1.025-28.489-24.432-51.262-53.158-51.262c-22.598,0-41.896,14.09-49.607,33.947c-3.759-2.2-8.134-3.475-12.796-3.475      c-13.974,0-25.301,11.331-25.301,25.305c0,4.301,1.066,8.342,2.954,11.883c-12.052,6.733-20.211,19.623-20.211,34.426      c0,20.299,15.358,36.997,35.084,39.146v0.227h131.698v-0.4C346.75,353.324,363.787,334.426,363.787,311.546z" fill="#006838"/><path d="M363.102,310.816c0-24.945-20.221-45.15-45.146-45.15c-0.885,0-1.763,0.022-2.625,0.082      c-1.025-28.489-24.432-51.262-53.158-51.262c-22.598,0-41.896,14.089-49.608,33.947c-3.758-2.2-8.133-3.475-12.795-3.475      c-13.974,0-25.302,11.331-25.302,25.305c0,4.301,1.066,8.342,2.954,11.882c-12.052,6.734-20.211,19.624-20.211,34.427      c0,20.299,15.358,36.997,35.084,39.146v0.227h131.698v-0.401C346.064,352.595,363.102,333.696,363.102,310.816z" fill="#006838"/><path d="M362.415,310.088c0-24.945-20.22-45.15-45.146-45.15c-0.885,0-1.763,0.022-2.625,0.081      c-1.025-28.488-24.433-51.261-53.158-51.261c-22.598,0-41.896,14.089-49.608,33.947c-3.758-2.2-8.133-3.475-12.795-3.475      c-13.974,0-25.301,11.331-25.301,25.306c0,4.301,1.065,8.342,2.953,11.882c-12.052,6.733-20.211,19.624-20.211,34.427      c0,20.298,15.358,36.997,35.085,39.146v0.226h131.698v-0.399C345.379,351.866,362.415,332.968,362.415,310.088z" fill="#006838"/><path d="M361.73,309.36c0-24.946-20.221-45.152-45.146-45.152c-0.885,0-1.764,0.022-2.625,0.082      c-1.025-28.488-24.433-51.262-53.158-51.262c-22.598,0-41.896,14.09-49.608,33.948c-3.759-2.2-8.134-3.475-12.796-3.475      c-13.974,0-25.301,11.331-25.301,25.305c0,4.302,1.065,8.343,2.953,11.883c-12.052,6.733-20.21,19.624-20.21,34.427      c0,20.298,15.358,36.997,35.084,39.146v0.226H322.62v-0.4C344.693,351.138,361.73,332.238,361.73,309.36z" fill="#006838"/><path d="M361.044,308.631c0-24.946-20.221-45.151-45.146-45.151c-0.884,0-1.763,0.022-2.625,0.082      c-1.025-28.488-24.433-51.262-53.158-51.262c-22.598,0-41.896,14.09-49.608,33.947c-3.759-2.2-8.133-3.475-12.795-3.475      c-13.974,0-25.301,11.331-25.301,25.305c0,4.302,1.065,8.343,2.952,11.883c-12.052,6.733-20.21,19.624-20.21,34.427      c0,20.298,15.358,36.997,35.084,39.146v0.225h131.698v-0.399C344.008,350.409,361.044,331.511,361.044,308.631z" fill="#006838"/><path d="M360.357,307.902c0-24.946-20.22-45.151-45.146-45.151c-0.885,0-1.763,0.022-2.625,0.082      c-1.025-28.488-24.433-51.262-53.158-51.262c-22.598,0-41.896,14.09-49.608,33.947c-3.759-2.2-8.134-3.475-12.796-3.475      c-13.974,0-25.3,11.33-25.3,25.304c0,4.303,1.065,8.344,2.953,11.883c-12.052,6.734-20.211,19.625-20.211,34.428      c0,20.297,15.358,36.996,35.085,39.146v0.225h131.697v-0.399C343.321,349.68,360.357,330.781,360.357,307.902z" fill="#006838"/><path d="M359.672,307.174c0-24.946-20.221-45.151-45.146-45.151c-0.884,0-1.762,0.021-2.624,0.081      c-1.025-28.488-24.433-51.261-53.159-51.261c-22.597,0-41.896,14.089-49.607,33.948c-3.759-2.2-8.134-3.475-12.796-3.475      c-13.974,0-25.301,11.331-25.301,25.304c0,4.303,1.065,8.343,2.953,11.883c-12.052,6.734-20.21,19.624-20.21,34.427      c0,20.298,15.358,36.997,35.084,39.147v0.225h131.698v-0.4C342.636,348.951,359.672,330.053,359.672,307.174z" fill="#006838"/><path d="M358.986,306.445c0-24.947-20.221-45.151-45.146-45.151c-0.885,0-1.763,0.021-2.625,0.081      c-1.025-28.488-24.432-51.261-53.158-51.261c-22.597,0-41.896,14.089-49.608,33.947c-3.759-2.201-8.134-3.475-12.796-3.475      c-13.974,0-25.3,11.33-25.3,25.304c0,4.303,1.065,8.343,2.952,11.883c-12.052,6.734-20.21,19.624-20.21,34.427      c0,20.298,15.358,36.997,35.084,39.146v0.226h131.698v-0.4C341.95,348.223,358.986,329.324,358.986,306.445z" fill="#006838"/><path d="M358.301,305.717c0-24.947-20.221-45.151-45.146-45.151c-0.885,0-1.763,0.021-2.625,0.081      c-1.025-28.488-24.433-51.261-53.158-51.261c-22.598,0-41.896,14.089-49.608,33.947c-3.759-2.2-8.134-3.474-12.796-3.474      c-13.974,0-25.301,11.329-25.301,25.304c0,4.303,1.065,8.343,2.952,11.883c-12.051,6.734-20.21,19.624-20.21,34.427      c0,20.298,15.358,36.997,35.085,39.146v0.226h131.698v-0.4C341.264,347.494,358.301,328.596,358.301,305.717z" fill="#006838"/><path d="M357.614,304.988c0-24.947-20.22-45.151-45.146-45.151c-0.885,0-1.764,0.021-2.625,0.081      c-1.025-28.488-24.433-51.261-53.158-51.261c-22.598,0-41.896,14.089-49.608,33.947c-3.759-2.2-8.134-3.474-12.796-3.474      c-13.974,0-25.301,11.33-25.301,25.303c0,4.304,1.065,8.344,2.953,11.884c-12.052,6.733-20.21,19.623-20.21,34.427      c0,20.298,15.358,36.997,35.084,39.146v0.226h131.699v-0.4C340.578,346.766,357.614,327.867,357.614,304.988z" fill="#006838"/><path d="M356.929,304.26c0-24.947-20.221-45.151-45.146-45.151c-0.884,0-1.763,0.021-2.624,0.08      c-1.025-28.487-24.434-51.261-53.159-51.261c-22.597,0-41.896,14.089-49.607,33.947c-3.759-2.2-8.134-3.474-12.796-3.474      c-13.974,0-25.3,11.33-25.3,25.303c0,4.304,1.064,8.344,2.952,11.884c-12.052,6.733-20.211,19.623-20.211,34.427      c0,20.298,15.359,36.996,35.085,39.146v0.225h131.698v-0.399C339.893,346.037,356.929,327.139,356.929,304.26z" fill="#006838"/><path d="M356.243,303.531c0-24.947-20.221-45.151-45.146-45.151c-0.885,0-1.763,0.021-2.625,0.08      c-1.025-28.487-24.433-51.261-53.158-51.261c-22.598,0-41.896,14.089-49.608,33.947c-3.759-2.2-8.134-3.475-12.796-3.475      c-13.974,0-25.3,11.329-25.3,25.303c0,4.305,1.064,8.344,2.953,11.884c-12.052,6.734-20.211,19.624-20.211,34.427      c0,20.299,15.358,36.997,35.084,39.146v0.226h131.699v-0.4C339.206,345.309,356.243,326.409,356.243,303.531z" fill="#006838"/><path d="M355.557,302.803c0-24.948-20.221-45.151-45.146-45.151c-0.885,0-1.763,0.021-2.625,0.08      c-1.025-28.487-24.434-51.261-53.158-51.261c-22.598,0-41.896,14.089-49.608,33.947c-3.759-2.2-8.134-3.475-12.796-3.475      c-13.974,0-25.301,11.329-25.301,25.303c0,4.305,1.065,8.344,2.953,11.884c-12.051,6.734-20.211,19.624-20.211,34.427      c0,20.298,15.359,36.997,35.085,39.146v0.226h131.698v-0.399C338.521,344.579,355.557,325.681,355.557,302.803z" fill="#006838"/><path d="M354.871,302.074c0-24.948-20.221-45.151-45.146-45.151c-0.886,0-1.763,0.02-2.625,0.08      c-1.025-28.488-24.434-51.261-53.159-51.261c-22.598,0-41.896,14.089-49.608,33.948c-3.76-2.2-8.134-3.475-12.796-3.475      c-13.975,0-25.301,11.329-25.301,25.303c0,4.305,1.064,8.344,2.952,11.884c-12.051,6.733-20.211,19.624-20.211,34.427      c0,20.298,15.359,36.997,35.085,39.146v0.226h131.698v-0.4C337.835,343.851,354.871,324.952,354.871,302.074z" fill="#006838"/><path d="M354.186,301.346c0-24.948-20.221-45.151-45.146-45.151c-0.885,0-1.763,0.02-2.625,0.079      c-1.025-28.487-24.433-51.26-53.158-51.26c-22.598,0-41.896,14.088-49.608,33.947c-3.76-2.2-8.135-3.475-12.797-3.475      c-13.974,0-25.3,11.329-25.3,25.303c0,4.305,1.065,8.344,2.952,11.884c-12.051,6.733-20.21,19.623-20.21,34.427      c0,20.298,15.358,36.997,35.084,39.146v0.226h131.699v-0.4C337.148,343.122,354.186,324.224,354.186,301.346z" fill="#006838"/><path d="M353.5,300.617c0-24.948-20.222-45.151-45.146-45.151c-0.885,0-1.763,0.02-2.625,0.079      c-1.025-28.487-24.434-51.26-53.158-51.26c-22.598,0-41.896,14.088-49.608,33.947c-3.76-2.2-8.134-3.474-12.796-3.474      c-13.974,0-25.301,11.329-25.301,25.302c0,4.306,1.064,8.345,2.952,11.884c-12.051,6.735-20.21,19.624-20.21,34.428      c0,20.298,15.359,36.997,35.084,39.146v0.226h131.699v-0.401C336.463,342.394,353.5,323.494,353.5,300.617z" fill="#006838"/><path d="M352.813,299.889c0-24.949-20.221-45.152-45.146-45.152c-0.886,0-1.763,0.02-2.625,0.08      c-1.025-28.487-24.434-51.261-53.158-51.261c-22.598,0-41.896,14.089-49.608,33.947c-3.76-2.2-8.134-3.475-12.796-3.475      c-13.974,0-25.3,11.329-25.3,25.303c0,4.305,1.064,8.345,2.952,11.884c-12.051,6.734-20.211,19.624-20.211,34.427      c0,20.298,15.359,36.997,35.085,39.147v0.225h131.699v-0.399C335.777,341.664,352.813,322.766,352.813,299.889z" fill="#006838"/><path d="M352.128,299.16c0-24.949-20.222-45.152-45.146-45.152c-0.886,0-1.764,0.019-2.625,0.08      c-1.026-28.487-24.434-51.261-53.159-51.261c-22.597,0-41.896,14.088-49.607,33.947c-3.76-2.2-8.135-3.475-12.796-3.475      c-13.974,0-25.3,11.329-25.3,25.303c0,4.305,1.064,8.345,2.952,11.884c-12.051,6.734-20.211,19.623-20.211,34.427      c0,20.298,15.359,36.997,35.085,39.146v0.226h131.699v-0.4C335.091,340.936,352.128,322.037,352.128,299.16z" fill="#006838"/><path d="M351.442,298.432c0-24.949-20.222-45.152-45.146-45.152c-0.886,0-1.763,0.019-2.625,0.079      c-1.025-28.487-24.434-51.26-53.158-51.26c-22.598,0-41.896,14.088-49.608,33.947c-3.76-2.2-8.134-3.475-12.796-3.475      c-13.975,0-25.3,11.329-25.3,25.303c0,4.305,1.064,8.344,2.952,11.884c-12.051,6.734-20.211,19.623-20.211,34.427      c0,20.298,15.359,36.997,35.084,39.146v0.226h131.699v-0.4C334.405,340.207,351.442,321.309,351.442,298.432z" fill="#006838"/><path d="M350.756,297.702c0-24.948-20.221-45.151-45.146-45.151c-0.886,0-1.763,0.019-2.625,0.079      c-1.025-28.487-24.434-51.26-53.159-51.26c-22.597,0-41.896,14.088-49.607,33.947c-3.76-2.2-8.135-3.475-12.797-3.475      c-13.974,0-25.3,11.329-25.3,25.302c0,4.306,1.064,8.345,2.952,11.884c-12.05,6.735-20.21,19.624-20.21,34.428      c0,20.298,15.359,36.997,35.085,39.146v0.226h131.699v-0.4C333.72,339.479,350.756,320.58,350.756,297.702z" fill="#006838"/><path d="M350.07,296.975c0-24.949-20.221-45.152-45.146-45.152c-0.885,0-1.762,0.019-2.625,0.079      c-1.025-28.487-24.433-51.26-53.158-51.26c-22.597,0-41.896,14.088-49.608,33.947c-3.759-2.2-8.134-3.475-12.796-3.475      c-13.974,0-25.3,11.328-25.3,25.302c0,4.306,1.064,8.345,2.952,11.884c-12.051,6.734-20.211,19.624-20.211,34.428      c0,20.298,15.359,36.997,35.085,39.146v0.226h131.699v-0.4C333.033,338.749,350.07,319.852,350.07,296.975z" fill="#006838"/><path d="M349.385,296.246c0-24.95-20.222-45.152-45.146-45.152c-0.886,0-1.763,0.019-2.625,0.079      c-1.025-28.487-24.434-51.261-53.158-51.261c-22.597,0-41.896,14.089-49.608,33.947c-3.76-2.2-8.135-3.475-12.796-3.475      c-13.975,0-25.3,11.329-25.3,25.302c0,4.306,1.064,8.345,2.952,11.884c-12.051,6.734-20.21,19.624-20.21,34.427      c0,20.298,15.359,36.998,35.084,39.146v0.227h131.699v-0.4C332.348,338.021,349.385,319.122,349.385,296.246z" fill="#006838"/><path d="M348.699,295.517c0-24.949-20.223-45.151-45.146-45.151c-0.886,0-1.763,0.019-2.625,0.079      c-1.025-28.486-24.434-51.26-53.158-51.26c-22.598,0-41.896,14.088-49.608,33.947c-3.76-2.2-8.134-3.475-12.797-3.475      c-13.974,0-25.299,11.328-25.299,25.302c0,4.305,1.064,8.345,2.952,11.884c-12.051,6.735-20.211,19.623-20.211,34.427      c0,20.298,15.359,36.997,35.085,39.146v0.226H309.59v-0.4C331.662,337.292,348.699,318.394,348.699,295.517z" fill="#006838"/><path d="M348.013,294.788c0-24.949-20.222-45.151-45.146-45.151c-0.887,0-1.763,0.018-2.625,0.078      c-1.025-28.486-24.434-51.26-53.159-51.26c-22.597,0-41.896,14.088-49.608,33.947c-3.761-2.2-8.135-3.475-12.797-3.475      c-13.974,0-25.3,11.328-25.3,25.302c0,4.306,1.064,8.345,2.952,11.884c-12.05,6.735-20.211,19.624-20.211,34.428      c0,20.298,15.359,36.997,35.085,39.146v0.226h131.699v-0.4C330.977,336.563,348.013,317.665,348.013,294.788z" fill="#006838"/><path d="M347.327,294.061c0-24.951-20.222-45.152-45.146-45.152c-0.886,0-1.763,0.018-2.625,0.078      c-1.025-28.486-24.434-51.26-53.158-51.26c-22.598,0-41.896,14.088-49.608,33.947c-3.76-2.2-8.134-3.475-12.797-3.475      c-13.974,0-25.3,11.327-25.3,25.302c0,4.306,1.064,8.345,2.952,11.884c-12.05,6.735-20.211,19.624-20.211,34.428      c0,20.298,15.36,36.997,35.085,39.146v0.226h131.699v-0.4C330.291,335.835,347.327,316.937,347.327,294.061z" fill="#006838"/><path d="M346.642,293.331c0-24.95-20.222-45.151-45.146-45.151c-0.886,0-1.763,0.017-2.625,0.078      c-1.025-28.486-24.434-51.26-53.158-51.26c-22.598,0-41.896,14.088-49.608,33.947c-3.761-2.2-8.135-3.474-12.797-3.474      c-13.974,0-25.3,11.327-25.3,25.301c0,4.307,1.064,8.346,2.951,11.885c-12.05,6.735-20.21,19.624-20.21,34.428      c0,20.298,15.359,36.996,35.084,39.146v0.225h131.7v-0.399C329.604,335.106,346.642,316.207,346.642,293.331z" fill="#006838"/><path d="M345.955,292.603c0-24.95-20.222-45.152-45.146-45.152c-0.887,0-1.763,0.017-2.625,0.079      c-1.025-28.486-24.434-51.26-53.158-51.26c-22.598,0-41.896,14.088-49.608,33.947c-3.761-2.2-8.135-3.474-12.797-3.474      c-13.975,0-25.3,11.327-25.3,25.301c0,4.307,1.064,8.346,2.951,11.885c-12.05,6.735-20.21,19.623-20.21,34.428      c0,20.298,15.359,36.996,35.084,39.146v0.225h131.7v-0.399C328.919,334.378,345.955,315.479,345.955,292.603z" fill="#006838"/><path d="M345.27,291.874c0-24.95-20.222-45.152-45.146-45.152c-0.886,0-1.763,0.018-2.625,0.078      c-1.025-28.486-24.434-51.26-53.158-51.26c-22.598,0-41.896,14.088-49.607,33.947c-3.761-2.2-8.135-3.475-12.797-3.475      c-13.974,0-25.3,11.327-25.3,25.301c0,4.308,1.064,8.346,2.952,11.884c-12.05,6.735-20.211,19.624-20.211,34.428      c0,20.298,15.36,36.997,35.085,39.147v0.225H306.16v-0.4C328.233,333.648,345.27,314.75,345.27,291.874z" fill="#006838"/><path d="M344.584,291.146c0-24.95-20.222-45.152-45.146-45.152c-0.887,0-1.763,0.017-2.625,0.078      c-1.025-28.486-24.434-51.26-53.158-51.26c-22.598,0-41.896,14.088-49.608,33.948c-3.761-2.2-8.135-3.475-12.797-3.475      c-13.974,0-25.299,11.327-25.299,25.301c0,4.307,1.063,8.346,2.951,11.884c-12.05,6.735-20.21,19.624-20.21,34.428      c0,20.298,15.359,36.997,35.084,39.146v0.226h131.7v-0.4C327.547,332.92,344.584,314.021,344.584,291.146z" fill="#006838"/><path d="M343.898,290.417c0-24.95-20.223-45.152-45.146-45.152c-0.887,0-1.763,0.017-2.625,0.078      c-1.025-28.486-24.435-51.26-53.159-51.26c-22.598,0-41.896,14.087-49.607,33.947c-3.761-2.201-8.135-3.475-12.797-3.475      c-13.975,0-25.299,11.327-25.299,25.301c0,4.308,1.063,8.347,2.951,11.885c-12.05,6.735-20.211,19.624-20.211,34.428      c0,20.298,15.36,36.997,35.085,39.146v0.226h131.7v-0.4C326.861,332.191,343.898,313.293,343.898,290.417z" fill="#006838"/><path d="M343.212,289.688c0-24.951-20.222-45.152-45.146-45.152c-0.887,0-1.763,0.016-2.626,0.077      c-1.024-28.486-24.434-51.259-53.158-51.259c-22.598,0-41.896,14.088-49.608,33.947c-3.761-2.2-8.135-3.475-12.798-3.475      c-13.974,0-25.299,11.327-25.299,25.301c0,4.308,1.063,8.347,2.951,11.885c-12.049,6.735-20.21,19.624-20.21,34.427      c0,20.299,15.36,36.998,35.085,39.147v0.226h131.699v-0.4C326.176,331.463,343.212,312.564,343.212,289.688z" fill="#006838"/><path d="M342.526,288.96c0-24.951-20.222-45.152-45.146-45.152c-0.886,0-1.763,0.017-2.625,0.078      c-1.025-28.486-24.435-51.259-53.158-51.259c-22.598,0-41.896,14.088-49.608,33.947c-3.761-2.2-8.136-3.474-12.798-3.474      c-13.974,0-25.299,11.327-25.299,25.3c0,4.308,1.063,8.347,2.951,11.885c-12.05,6.735-20.21,19.623-20.21,34.427      c0,20.299,15.36,36.998,35.084,39.147v0.225h131.7v-0.399C325.489,330.733,342.526,311.835,342.526,288.96z" fill="#006838"/><path d="M341.841,288.231c0-24.951-20.223-45.152-45.146-45.152c-0.887,0-1.763,0.016-2.625,0.078      c-1.025-28.486-24.435-51.26-53.158-51.26c-22.598,0-41.896,14.088-49.608,33.947c-3.761-2.2-8.136-3.475-12.798-3.475      c-13.974,0-25.299,11.327-25.299,25.301c0,4.308,1.063,8.347,2.951,11.885c-12.05,6.735-20.211,19.623-20.211,34.427      c0,20.298,15.36,36.997,35.085,39.146v0.226h131.7v-0.4C324.804,330.005,341.841,311.106,341.841,288.231z" fill="#006838"/><path d="M341.154,287.503c0-24.952-20.223-45.152-45.146-45.152c-0.887,0-1.763,0.016-2.626,0.077      c-1.024-28.486-24.434-51.259-53.157-51.259c-22.598,0-41.896,14.088-49.608,33.947c-3.761-2.2-8.136-3.475-12.797-3.475      c-13.974,0-25.299,11.327-25.299,25.3c0,4.309,1.063,8.347,2.951,11.885c-12.05,6.736-20.211,19.624-20.211,34.428      c0,20.298,15.36,36.997,35.085,39.146v0.226h131.7v-0.4C324.118,329.276,341.154,310.378,341.154,287.503z" fill="#006838"/><path d="M340.469,286.774c0-24.952-20.223-45.152-45.146-45.152c-0.888,0-1.764,0.016-2.626,0.077      c-1.025-28.486-24.434-51.259-53.158-51.259c-22.598,0-41.896,14.087-49.608,33.947c-3.762-2.201-8.136-3.475-12.798-3.475      c-13.974,0-25.299,11.326-25.299,25.3c0,4.308,1.063,8.347,2.951,11.885c-12.05,6.735-20.211,19.624-20.211,34.428      c0,20.298,15.36,36.997,35.085,39.146v0.226H301.36v-0.4C323.433,328.548,340.469,309.649,340.469,286.774z" fill="#006838"/><path d="M339.783,286.046c0-24.952-20.223-45.152-45.146-45.152c-0.887,0-1.763,0.016-2.625,0.077      c-1.025-28.486-24.435-51.26-53.158-51.26c-22.598,0-41.896,14.088-49.608,33.948c-3.761-2.201-8.136-3.475-12.798-3.475      c-13.974,0-25.299,11.326-25.299,25.3c0,4.309,1.063,8.348,2.951,11.886c-12.05,6.735-20.211,19.623-20.211,34.427      c0,20.299,15.36,36.997,35.085,39.147v0.226h131.7v-0.4C322.746,327.818,339.783,308.921,339.783,286.046z" fill="#006838"/><path d="M339.098,285.317c0-24.952-20.223-45.152-45.146-45.152c-0.887,0-1.763,0.015-2.625,0.077      c-1.025-28.486-24.435-51.259-53.158-51.259c-22.598,0-41.896,14.087-49.608,33.947c-3.762-2.2-8.136-3.475-12.798-3.475      c-13.974,0-25.299,11.326-25.299,25.3c0,4.309,1.063,8.348,2.951,11.885c-12.05,6.736-20.211,19.624-20.211,34.428      c0,20.298,15.361,36.996,35.085,39.146v0.227h131.701v-0.401C322.061,327.09,339.098,308.192,339.098,285.317z" fill="#006838"/><path d="M338.411,284.589c0-24.952-20.223-45.153-45.146-45.153c-0.887,0-1.763,0.015-2.626,0.077      c-1.024-28.486-24.435-51.259-53.158-51.259c-22.598,0-41.896,14.087-49.608,33.947c-3.761-2.2-8.136-3.475-12.798-3.475      c-13.975,0-25.299,11.326-25.299,25.299c0,4.31,1.063,8.348,2.95,11.885c-12.049,6.736-20.21,19.624-20.21,34.428      c0,20.298,15.36,36.997,35.085,39.147v0.225h131.7v-0.399C321.375,326.362,338.411,307.463,338.411,284.589z" fill="#006838"/><path d="M337.726,283.859c0-24.951-20.223-45.152-45.146-45.152c-0.887,0-1.763,0.015-2.625,0.077      c-1.025-28.486-24.435-51.259-53.158-51.259c-22.598,0-41.896,14.087-49.607,33.947c-3.762-2.2-8.136-3.475-12.798-3.475      c-13.974,0-25.299,11.326-25.299,25.3c0,4.31,1.063,8.348,2.951,11.885c-12.05,6.736-20.211,19.624-20.211,34.428      c0,20.298,15.36,36.997,35.085,39.146v0.226h131.7v-0.4C320.688,325.633,337.726,306.734,337.726,283.859z" fill="#006838"/><path d="M337.04,283.132c0-24.953-20.223-45.153-45.146-45.153c-0.887,0-1.763,0.015-2.625,0.076      c-1.025-28.485-24.436-51.259-53.158-51.259c-22.598,0-41.896,14.087-49.608,33.947c-3.762-2.2-8.136-3.475-12.798-3.475      c-13.974,0-25.298,11.326-25.298,25.299c0,4.31,1.063,8.348,2.95,11.886c-12.049,6.735-20.211,19.623-20.211,34.428      c0,20.298,15.361,36.997,35.085,39.146v0.226h131.701v-0.4C320.003,324.904,337.04,306.006,337.04,283.132z" fill="#006838"/><path d="M336.354,282.402c0-24.952-20.223-45.152-45.146-45.152c-0.888,0-1.763,0.015-2.626,0.076      c-1.024-28.485-24.435-51.259-53.158-51.259c-22.598,0-41.896,14.087-49.608,33.947c-3.761-2.2-8.136-3.475-12.798-3.475      c-13.974,0-25.298,11.326-25.298,25.3c0,4.31,1.063,8.348,2.951,11.886c-12.05,6.735-20.211,19.623-20.211,34.427      c0,20.299,15.36,36.998,35.084,39.147v0.226h131.701v-0.4C319.317,324.176,336.354,305.277,336.354,282.402z" fill="#006838"/><path d="M335.668,281.674c0-24.952-20.223-45.152-45.146-45.152c-0.887,0-1.763,0.015-2.625,0.077      c-1.025-28.486-24.435-51.259-53.158-51.259c-22.598,0-41.896,14.086-49.608,33.947c-3.761-2.2-8.136-3.474-12.798-3.474      c-13.974,0-25.299,11.325-25.299,25.299c0,4.31,1.063,8.348,2.95,11.886c-12.049,6.736-20.21,19.624-20.21,34.428      c0,20.298,15.36,36.996,35.085,39.146v0.225h131.7v-0.399C318.631,323.447,335.668,304.548,335.668,281.674z" fill="#006838"/><path d="M334.982,280.946c0-24.954-20.223-45.153-45.146-45.153c-0.887,0-1.763,0.014-2.625,0.076      c-1.025-28.485-24.435-51.259-53.158-51.259c-22.598,0-41.896,14.087-49.608,33.947c-3.762-2.2-8.136-3.474-12.798-3.474      c-13.974,0-25.298,11.325-25.298,25.299c0,4.31,1.063,8.348,2.95,11.886c-12.049,6.736-20.211,19.624-20.211,34.427      c0,20.299,15.361,36.997,35.085,39.146v0.226h131.701v-0.4C317.945,322.718,334.982,303.819,334.982,280.946z" fill="#006838"/><path d="M334.297,280.217c0-24.953-20.224-45.152-45.146-45.152c-0.888,0-1.763,0.014-2.625,0.076      c-1.025-28.485-24.436-51.259-53.158-51.259c-22.598,0-41.896,14.087-49.608,33.947c-3.761-2.2-8.136-3.475-12.798-3.475      c-13.974,0-25.298,11.325-25.298,25.299c0,4.311,1.063,8.348,2.95,11.886c-12.049,6.736-20.21,19.623-20.21,34.428      c0,20.298,15.361,36.997,35.084,39.146v0.226h131.701v-0.4C317.26,321.989,334.297,303.091,334.297,280.217z" fill="#006838"/><path d="M333.611,279.488c0-24.953-20.224-45.152-45.147-45.152c-0.887,0-1.763,0.014-2.625,0.076      c-1.025-28.486-24.435-51.259-53.158-51.259c-22.598,0-41.896,14.086-49.608,33.947c-3.762-2.2-8.136-3.475-12.799-3.475      c-13.974,0-25.298,11.325-25.298,25.299c0,4.311,1.063,8.348,2.95,11.886c-12.049,6.736-20.211,19.623-20.211,34.428      c0,20.298,15.361,36.997,35.085,39.146v0.226h131.701v-0.4C316.573,321.261,333.611,302.362,333.611,279.488z" fill="#006838"/><path d="M332.925,278.76c0-24.953-20.224-45.152-45.146-45.152c-0.887,0-1.763,0.013-2.625,0.076      c-1.025-28.485-24.436-51.259-53.158-51.259c-22.598,0-41.896,14.087-49.608,33.948c-3.762-2.201-8.136-3.475-12.798-3.475      c-13.975,0-25.298,11.325-25.298,25.298c0,4.312,1.062,8.349,2.95,11.886c-12.049,6.737-20.211,19.624-20.211,34.428      c0,20.298,15.361,36.997,35.085,39.146v0.226h131.701v-0.4C315.888,320.532,332.925,301.634,332.925,278.76z" fill="#006838"/><path d="M332.239,278.031c0-24.953-20.224-45.152-45.146-45.152c-0.888,0-1.763,0.013-2.625,0.075      c-1.025-28.485-24.436-51.258-53.159-51.258c-22.597,0-41.896,14.086-49.607,33.947c-3.762-2.2-8.137-3.475-12.799-3.475      c-13.974,0-25.298,11.325-25.298,25.298c0,4.311,1.062,8.349,2.95,11.886c-12.049,6.736-20.211,19.624-20.211,34.428      c0,20.298,15.361,36.997,35.085,39.146v0.225H293.13v-0.399C315.202,319.803,332.239,300.905,332.239,278.031z" fill="#006838"/><path d="M331.553,277.303c0-24.954-20.223-45.153-45.146-45.153c-0.887,0-1.762,0.014-2.624,0.076      c-1.025-28.485-24.436-51.259-53.159-51.259c-22.598,0-41.896,14.087-49.608,33.947c-3.762-2.2-8.137-3.474-12.799-3.474      c-13.974,0-25.298,11.324-25.298,25.298c0,4.312,1.063,8.349,2.95,11.886c-12.049,6.737-20.21,19.623-20.21,34.428      c0,20.299,15.361,36.998,35.084,39.146v0.226h131.701v-0.4C314.516,319.074,331.553,300.176,331.553,277.303z" fill="#006838"/><path d="M330.867,276.574c0-24.954-20.223-45.153-45.146-45.153c-0.888,0-1.763,0.013-2.625,0.075      c-1.025-28.485-24.436-51.258-53.158-51.258c-22.597,0-41.896,14.086-49.607,33.947c-3.762-2.2-8.137-3.475-12.799-3.475      c-13.974,0-25.297,11.324-25.297,25.298c0,4.312,1.062,8.349,2.95,11.886c-12.049,6.736-20.211,19.623-20.211,34.428      c0,20.298,15.362,36.997,35.085,39.146v0.227h131.701v-0.401C313.83,318.346,330.867,299.447,330.867,276.574z" fill="#006838"/><path d="M330.182,275.846c0-24.954-20.224-45.153-45.146-45.153c-0.888,0-1.763,0.013-2.625,0.075      c-1.025-28.485-24.436-51.258-53.158-51.258c-22.598,0-41.896,14.086-49.608,33.947c-3.762-2.2-8.137-3.475-12.799-3.475      c-13.974,0-25.298,11.324-25.298,25.298c0,4.312,1.062,8.349,2.95,11.886c-12.049,6.737-20.211,19.624-20.211,34.428      c0,20.298,15.361,36.997,35.085,39.146v0.226h131.701v-0.4C313.145,317.617,330.182,298.719,330.182,275.846z" fill="#006838"/></g></g><path d="M330.182,275.846c0-24.954-20.224-45.153-45.146-45.153c-0.888,0-1.763,0.013-2.625,0.075    c-1.025-28.485-24.436-51.258-53.158-51.258c-22.598,0-41.896,14.086-49.608,33.947c-3.762-2.2-8.137-3.475-12.799-3.475    c-13.974,0-25.298,11.324-25.298,25.298c0,4.312,1.062,8.349,2.95,11.886c-12.049,6.737-20.211,19.624-20.211,34.428    c0,20.298,15.361,36.997,35.085,39.146v0.226h131.701v-0.4C313.145,317.617,330.182,298.719,330.182,275.846z" fill="#D7DF23"/></g></g><g/><g/><g/><g/><g/><g/></svg>