<?xml version="1.0" ?><!DOCTYPE svg  PUBLIC '-//W3C//DTD SVG 1.1//EN'  'http://www.w3.org/Graphics/SVG/1.1/DTD/svg11.dtd'><svg enable-background="new 0 0 512 512" height="512px" id="Calque_1" version="1.1" viewBox="0 0 512 512" width="512px" xml:space="preserve" xmlns="http://www.w3.org/2000/svg" xmlns:xlink="http://www.w3.org/1999/xlink"><g><path d="M512,256c0,141.388-114.612,256-256,256S0,397.388,0,256S114.612,0,256,0S512,114.612,512,256z" fill="#A0D1DC"/><g id="focus"><path d="M256,172.269c47.5,0,86.15,37.563,86.15,83.725c0,46.181-38.65,83.731-86.15,83.731    c-47.494,0-86.138-37.55-86.138-83.731C169.862,209.831,208.506,172.269,256,172.269 M256,146.669    c-61.712,0-111.737,48.95-111.737,109.325c0,60.381,50.025,109.332,111.737,109.332c61.713,0,111.75-48.95,111.75-109.332    C367.75,195.619,317.713,146.669,256,146.669L256,146.669z" fill="#414042"/><g><rect fill="#F7941E" height="44.832" width="3.95" x="254.025" y="234.244"/><rect fill="#F7941E" height="107.662" width="13.175" x="249.413" y="126.981"/><rect fill="#F7941E" height="107.65" width="13.175" x="249.413" y="277.375"/><rect fill="#F7941E" height="13.175" width="107.663" x="126.975" y="250.069"/><rect fill="#F7941E" height="13.175" width="107.663" x="277.362" y="250.069"/><rect fill="#F7941E" height="3.95" width="44.825" x="233.587" y="254.681"/></g></g></g><g/><g/><g/><g/><g/><g/></svg>