<?xml version="1.0" ?><!DOCTYPE svg  PUBLIC '-//W3C//DTD SVG 1.1//EN'  'http://www.w3.org/Graphics/SVG/1.1/DTD/svg11.dtd'><svg enable-background="new 0 0 512 512" height="512px" id="Calque_1" version="1.1" viewBox="0 0 512 512" width="512px" xml:space="preserve" xmlns="http://www.w3.org/2000/svg" xmlns:xlink="http://www.w3.org/1999/xlink"><g><path d="M512,256c0,141.386-114.599,255.997-256.003,255.997C114.623,511.997,0,397.386,0,256   S114.623,0.003,255.997,0.003C397.401,0.003,512,114.614,512,256z" fill="#E1695C"/><g id="options"><polyline fill="#EEB144" points="237.322,123.733 215.472,175.007 238.959,194.657 258.121,154.395   "/><polyline fill="#EEB144" points="123.736,274.699 171.385,296.25 168.522,266.544 140.711,262.219   "/><polyline fill="#F9ED32" points="338.152,227.719 361.177,216.219 355.401,233.957   "/><polyline fill="#EEB144" points="274.703,388.273 307.002,369.574 282.078,345.124 249.021,354.249   "/><polyline fill="#EEB144" points="388.276,237.307 338.152,227.719 340.077,248.331   "/><polygon fill="#CF7E31" points="171.385,296.25 188.647,283.324 174.26,260.307 165.147,264.156   "/><polygon fill="#F9ED32" points="123.736,274.699 359.502,274.699 388.276,237.307 152.511,237.307   "/><rect fill="#F7941E" height="37.393" opacity="0.3" width="56.78" x="227.622" y="237.307"/><polygon fill="#F9ED32" points="274.703,388.273 274.703,152.495 237.322,123.733 237.322,359.499   "/></g></g><g/><g/><g/><g/><g/><g/></svg>