<?xml version="1.0" ?><!DOCTYPE svg  PUBLIC '-//W3C//DTD SVG 1.1//EN'  'http://www.w3.org/Graphics/SVG/1.1/DTD/svg11.dtd'><svg enable-background="new 0 0 512 512" height="512px" id="Calque_1" version="1.1" viewBox="0 0 512 512" width="512px" xml:space="preserve" xmlns="http://www.w3.org/2000/svg" xmlns:xlink="http://www.w3.org/1999/xlink"><g><path d="M512,256.003c0,141.367-114.599,255.991-255.991,255.991C114.623,511.994,0,397.37,0,256.003   C0,114.617,114.623,0.006,256.009,0.006C397.401,0.006,512,114.617,512,256.003z" fill="#EBEEEF"/><g id="Museum"><g><g><rect fill="#A8BEC6" height="140.555" width="23.3" x="328.302" y="210.941"/><rect fill="#B6CAD1" height="140.555" width="12.025" x="328.302" y="210.941"/><rect fill="#A8BEC6" height="140.555" width="23.3" x="272.353" y="210.941"/><rect fill="#A8BEC6" height="140.555" width="23.3" x="216.372" y="210.941"/><rect fill="#A8BEC6" height="140.555" width="23.3" x="160.423" y="210.941"/><rect fill="#B6CAD1" height="140.555" width="12.025" x="272.353" y="210.941"/><rect fill="#B6CAD1" height="140.555" width="12.05" x="216.372" y="210.941"/><rect fill="#B6CAD1" height="140.555" width="12.025" x="160.423" y="210.941"/></g><g opacity="0.17"><rect fill="#2D4453" height="23.3" width="23.3" x="328.302" y="210.941"/><rect fill="#2D4453" height="23.3" width="23.3" x="272.353" y="210.941"/><rect fill="#2D4453" height="23.3" width="23.3" x="216.372" y="210.941"/><rect fill="#2D4453" height="23.3" width="23.3" x="160.423" y="210.941"/></g></g><rect fill="#B6CAD1" height="22.524" width="218.979" x="146.523" y="336.021"/><rect fill="#2D4453" height="10.875" opacity="0.17" width="218.979" x="146.523" y="347.671"/><rect fill="#A8BEC6" height="17.075" width="260.128" x="125.948" y="354.671"/><g><polygon fill="#80929B" points="146.523,218.691 365.502,218.691 365.502,196.167 254.447,140.242 146.523,196.167    "/><path d="M365.502,202.792v-6.625l-111.055-55.924l93.63,63.424     C348.077,203.667,353.502,204.217,365.502,202.792z" fill="#2D4453" opacity="0.38"/><rect fill="#A8BEC6" height="22.525" width="218.979" x="146.523" y="196.167"/><rect fill="#2D4453" height="22.525" opacity="0.38" width="29.025" x="336.477" y="196.167"/></g></g></g><g/><g/><g/><g/><g/><g/></svg>