<?xml version="1.0" ?><!DOCTYPE svg  PUBLIC '-//W3C//DTD SVG 1.1//EN'  'http://www.w3.org/Graphics/SVG/1.1/DTD/svg11.dtd'><svg enable-background="new 0 0 512 512" height="512px" id="Calque_1" version="1.1" viewBox="0 0 512 512" width="512px" xml:space="preserve" xmlns="http://www.w3.org/2000/svg" xmlns:xlink="http://www.w3.org/1999/xlink"><g><path d="M512,256c0,141.388-114.612,256-256,256S0,397.388,0,256S114.612,0,256,0S512,114.612,512,256z" fill="#EFC84A"/><g id="printer"><path d="M145.006,237.313c0,8.987,7.281,16.275,16.262,16.275h189.456c8.976,0,16.275-7.288,16.275-16.275v-17.888    c0-8.975-7.3-16.25-16.275-16.25H161.269c-8.981,0-16.262,7.275-16.262,16.25V237.313z" fill="#4A416B"/><path d="M384.475,320.25c0,3.15-2.55,5.7-5.699,5.7H133.212c-3.137,0-5.688-2.55-5.688-5.7V219.425    c0-3.137,2.55-5.688,5.688-5.688h245.563c3.149,0,5.699,2.55,5.699,5.688V320.25z" fill="#786A9E"/><path d="M337.325,261.7h-162.65c-8.981,0-16.262,7.287-16.262,16.274v47.976h195.163v-47.976    C353.575,268.987,346.3,261.7,337.325,261.7z" fill="#4A416B"/><path d="M189.525,238.4c0,3.138-2.55,5.688-5.688,5.688c-3.137,0-5.7-2.55-5.7-5.688c0-3.15,2.563-5.7,5.7-5.7    C186.975,232.7,189.525,235.25,189.525,238.4z" fill="#F15E4A"/><path d="M205.806,238.4c0,3.138-2.556,5.688-5.694,5.688c-3.144,0-5.693-2.55-5.693-5.688    c0-3.15,2.55-5.7,5.693-5.7C203.25,232.7,205.806,235.25,205.806,238.4z" fill="#8DC63F"/><path d="M255.394,238.4c0,1.8-1.462,3.25-3.25,3.25h-34.969c-1.793,0-3.25-1.45-3.25-3.25l0,0    c0-1.788,1.457-3.25,3.25-3.25h34.969C253.931,235.15,255.394,236.612,255.394,238.4L255.394,238.4z" fill="#ACA1CF"/><rect fill="#211E35" height="13.013" width="167.506" x="172.244" y="280.412"/><path d="M366.05,325.95l-34.425-39.038c-3.237,1.851-1.7,26.9-0.763,39.038H366.05z" fill="#211E35" opacity="0.33"/><rect fill="#E6E7E8" height="99.213" width="151.25" x="180.375" y="286.912"/><rect fill="#D1D3D4" height="21.15" width="151.25" x="180.375" y="286.912"/><polygon fill="#211E35" points="192.987,140.513 319,140.513 331.213,213.688 180.781,213.688   "/><polygon fill="#E6E7E8" points="199.119,125.875 312.875,125.875 323.9,213.688 188.094,213.688   "/><g><rect fill="#939598" height="4.875" width="47.987" x="263.737" y="361.725"/><rect fill="#939598" height="6.7" width="33.375" x="198.656" y="358.375"/><rect fill="#BCBEC0" height="2.513" width="114.693" x="198.656" y="340.125"/><rect fill="#BCBEC0" height="2.513" width="114.693" x="198.656" y="331.987"/><rect fill="#BCBEC0" height="2.513" width="114.693" x="198.656" y="323.85"/><rect fill="#BCBEC0" height="2.512" width="114.693" x="198.656" y="315.713"/></g></g></g><g/><g/><g/><g/><g/><g/></svg>