<?xml version="1.0" ?><!DOCTYPE svg  PUBLIC '-//W3C//DTD SVG 1.1//EN'  'http://www.w3.org/Graphics/SVG/1.1/DTD/svg11.dtd'><svg enable-background="new 0 0 512 512" height="512px" id="Calque_1" version="1.1" viewBox="0 0 512 512" width="512px" xml:space="preserve" xmlns="http://www.w3.org/2000/svg" xmlns:xlink="http://www.w3.org/1999/xlink"><g><path d="M512,256c0,141.386-114.599,255.997-255.991,255.997C114.623,511.997,0,397.386,0,256   S114.623,0.003,256.009,0.003C397.401,0.003,512,114.614,512,256z" fill="#EFC84A"/><g id="play"><path d="M125.486,329.1c0,5.674,4.6,10.249,10.25,10.249h240.517c5.649,0,10.249-4.575,10.249-10.249V182.895    c0-5.662-4.6-10.25-10.249-10.25H135.735c-5.649,0-10.25,4.588-10.25,10.25V329.1z" fill="#EF4136"/><path d="M125.486,255.706V329.1c0,5.674,4.6,10.249,10.25,10.249h240.517    c5.649,0,10.249-4.575,10.249-10.249v-73.394H125.486z" fill="#BE1E2D" opacity="0.4"/><polygon fill="#FFFFFF" points="283.878,256.006 228.109,288.199 228.109,223.807   "/><polygon fill="#E6E7E8" points="228.109,288.199 283.878,256.006 283.353,255.706 228.109,255.706   "/></g></g><g/><g/><g/><g/><g/><g/></svg>