<?xml version="1.0" ?><!DOCTYPE svg  PUBLIC '-//W3C//DTD SVG 1.1//EN'  'http://www.w3.org/Graphics/SVG/1.1/DTD/svg11.dtd'><svg enable-background="new 0 0 512 512" height="512px" id="Calque_1" version="1.1" viewBox="0 0 512 512" width="512px" xml:space="preserve" xmlns="http://www.w3.org/2000/svg" xmlns:xlink="http://www.w3.org/1999/xlink"><g><path d="M511.98,256.016C511.98,397.385,397.391,512,255.997,512C114.634,512,0.019,397.385,0.019,256.016   C0.019,114.641,114.634,0,255.997,0C397.391,0,511.98,114.641,511.98,256.016z" fill="#35707F"/><g id="message_1_"><path d="M384.691,328.566c0,2.6-2.1,4.699-4.699,4.699h-247.96c-2.612,0-4.712-2.1-4.712-4.699V183.422    c0-2.6,2.1-4.699,4.712-4.699h247.96c2.6,0,4.699,2.1,4.699,4.699V328.566z" fill="#DDB843"/><path d="M252.472,230.468L127.32,328.566c0,2.6,2.1,4.699,4.712,4.699h247.96    c2.6,0,4.699-2.1,4.699-4.699L252.472,230.468z" fill="#996026" opacity="0.27"/><path d="M253.072,298.594l131.619-110.747v-4.425c0-2.6-2.1-4.699-4.699-4.699h-247.96    c-2.612,0-4.712,2.1-4.712,4.699v4.475L253.072,298.594z" fill="#996026" opacity="0.65"/><path d="M252.472,281.52L127.32,183.422c0-2.6,2.1-4.699,4.712-4.699h247.96c2.6,0,4.699,2.1,4.699,4.699    L252.472,281.52z" fill="#FEDB52"/></g></g><g/><g/><g/><g/><g/><g/></svg>