<?xml version="1.0" ?><!DOCTYPE svg  PUBLIC '-//W3C//DTD SVG 1.1//EN'  'http://www.w3.org/Graphics/SVG/1.1/DTD/svg11.dtd'><svg enable-background="new 0 0 512 512" height="512px" id="Calque_1" version="1.1" viewBox="0 0 512 512" width="512px" xml:space="preserve" xmlns="http://www.w3.org/2000/svg" xmlns:xlink="http://www.w3.org/1999/xlink"><g><path d="M512,256c0,141.388-114.612,256-256,256S0,397.388,0,256S114.612,0,256,0S512,114.612,512,256z" fill="#78B0D2"/><g id="washer"><rect fill="#E6E7E8" height="202.388" width="197.325" x="157.337" y="181.5"/><rect fill="#F1F2F2" height="53.975" width="197.325" x="157.337" y="128.125"/><g><path d="M310.412,282.688c0,30.05-24.375,54.4-54.399,54.4c-30.05,0-54.4-24.351-54.4-54.4     c0-30.038,24.35-54.388,54.4-54.388C286.037,228.3,310.412,252.65,310.412,282.688z" fill="#F1F2F2"/><path d="M256.013,228.3c30.024,0,54.399,24.35,54.399,54.388c0,30.05-24.375,54.4-54.399,54.4     c-30.05,0-54.4-24.351-54.4-54.4C201.612,252.65,225.962,228.3,256.013,228.3 M256.013,209.1c-40.6,0-73.6,33.012-73.6,73.587     c0,40.588,33,73.6,73.6,73.6c40.575,0,73.6-33.012,73.6-73.6C329.612,242.112,296.588,209.1,256.013,209.1L256.013,209.1z" fill="#5C717C"/></g><g><path d="M310.412,282.688c0,30.05-24.375,54.4-54.399,54.4c-30.05,0-54.4-24.351-54.4-54.4     c0-30.038,24.35-54.388,54.4-54.388C286.037,228.3,310.412,252.65,310.412,282.688z" fill="#A8BEC6"/><path d="M256.013,241.1c22.925,0,41.6,18.65,41.6,41.587s-18.675,41.6-41.6,41.6c-22.95,0-41.6-18.662-41.6-41.6     S233.063,241.1,256.013,241.1 M256.013,228.3c-30.05,0-54.4,24.35-54.4,54.388c0,30.05,24.35,54.4,54.4,54.4     c30.024,0,54.399-24.351,54.399-54.4C310.412,252.65,286.037,228.3,256.013,228.3L256.013,228.3z" fill="#80929B"/></g><path d="M287.213,282.7c0,6.399,5.175,11.587,11.6,11.587c6.4,0,11.6-5.188,11.6-11.587    c0-6.413-5.199-11.601-11.6-11.601C292.388,271.1,287.213,276.287,287.213,282.7z" fill="#2D4453"/><path d="M243.888,254.462c0,0-1.75,2.325-3.925,5.688c-1.325,1.5-2.225,3.725-3.625,5.649    c-0.675,0.987-1.05,2.188-1.7,3.237c-0.525,1.101-1.375,2.101-1.65,3.325c-0.75,2.325-2.175,4.5-2.425,6.825    c-0.275,2.263-1.675,4.412-1.4,6.362c-0.225,3.851-0.875,6.862-0.875,6.862s-1.375-2.412-2.725-6.675    c-0.85-2.112-0.55-4.712-0.55-7.524c-0.2-2.9,1.3-5.613,2.15-8.476c2.45-5.462,6.65-9.787,10.275-12.149    C240.987,255.075,243.888,254.462,243.888,254.462z" fill="#FFFFFF"/><rect fill="#D1D3D4" height="19.4" width="75.05" x="260.638" y="145.413"/><path d="M188.913,155.013c0-3.263-2.65-5.9-5.9-5.9s-5.9,2.638-5.9,5.9c0,3.262,2.65,5.9,5.9,5.9    S188.913,158.275,188.913,155.013z" fill="#3CB29D"/><path d="M209.188,155.013c0-3.263-2.675-5.9-5.925-5.9s-5.9,2.638-5.9,5.9c0,3.262,2.65,5.9,5.9,5.9    S209.188,158.275,209.188,155.013z" fill="#E2574C"/><path d="M229.438,155.013c0-3.263-2.65-5.9-5.9-5.9c-3.275,0-5.925,2.638-5.925,5.9c0,3.262,2.65,5.9,5.925,5.9    C226.788,160.913,229.438,158.275,229.438,155.013z" fill="#F3B459"/></g></g><g/><g/><g/><g/><g/><g/></svg>