<?xml version="1.0" ?><!DOCTYPE svg  PUBLIC '-//W3C//DTD SVG 1.1//EN'  'http://www.w3.org/Graphics/SVG/1.1/DTD/svg11.dtd'><svg enable-background="new 0 0 512 512" height="512px" id="Calque_1" version="1.1" viewBox="0 0 512 512" width="512px" xml:space="preserve" xmlns="http://www.w3.org/2000/svg" xmlns:xlink="http://www.w3.org/1999/xlink"><g><path d="M512,256c0,141.386-114.599,255.997-256.003,255.997C114.623,511.997,0,397.386,0,256   S114.623,0.003,255.997,0.003C397.401,0.003,512,114.614,512,256z" fill="#E1695C"/><g id="battery"><path clip-rule="evenodd" d="M344.352,274.262c0,9.101,7.375,16.463,16.475,16.463h7.7    c9.101,0,16.476-7.362,16.476-16.463V237.75c0-9.1-7.375-16.462-16.476-16.462h-7.7c-9.1,0-16.475,7.362-16.475,16.462V274.262z" fill="#344E5D" fill-rule="evenodd"/><path d="M343.102,216.9V295.1H145.548V216.9H343.102 M351.352,198.388H137.311    c-5.688,0-10.287,4.613-10.287,10.288v94.661c0,5.675,4.6,10.287,10.287,10.287h214.041c5.675,0,10.275-4.612,10.275-10.287    v-94.661C361.627,203.001,357.026,198.388,351.352,198.388L351.352,198.388z" fill="#FFFFFF"/><rect clip-rule="evenodd" fill="#F3B459" fill-rule="evenodd" height="59.687" width="35.149" x="157.673" y="226.163"/><rect clip-rule="evenodd" fill="#F3B459" fill-rule="evenodd" height="59.687" width="35.149" x="203.723" y="226.163"/></g></g><g/><g/><g/><g/><g/><g/></svg>