<?xml version="1.0" ?><!DOCTYPE svg  PUBLIC '-//W3C//DTD SVG 1.1//EN'  'http://www.w3.org/Graphics/SVG/1.1/DTD/svg11.dtd'><svg enable-background="new 0 0 512 512" height="512px" id="Calque_1" version="1.1" viewBox="0 0 512 512" width="512px" xml:space="preserve" xmlns="http://www.w3.org/2000/svg" xmlns:xlink="http://www.w3.org/1999/xlink"><g><path d="M512,256c0,141.388-114.625,256-256,256C114.612,512,0,397.388,0,256S114.612,0,256,0   C397.375,0,512,114.612,512,256z" fill="#344E5D"/><g id="cardiogram"><path clip-rule="evenodd" d="M249.563,185.544c4.962-7.963,11.125-14.5,18.644-19.738    c38.356-26.737,92.294-4.75,100.669,41.25c4.275,23.413-2.838,43.388-19.975,59.775c-30.4,29.094-60.963,58.019-91.257,87.219    c-5.537,5.325-11.487,4.601-16.306-0.075c-24.962-24.199-50.244-48.1-75.381-72.1c-6.837-6.525-14.037-12.75-20.262-19.807    c-16.369-18.575-21.082-40.175-13.175-63.587c7.994-23.675,24.906-38.563,49.582-42.875c27.944-4.9,50.212,5.2,66.462,28.475    C248.831,184.469,249.106,184.869,249.563,185.544z" fill="#EE3533" fill-rule="evenodd"/><path d="M186.025,179.881c0,0-0.719,0.612-1.975,1.663c-0.612,0.525-1.362,1.15-2.212,1.887    c-0.819,0.712-1.75,1.538-2.762,2.413c-0.969,0.938-2.088,1.825-3.144,2.913c-0.543,0.512-1.112,1.038-1.668,1.587    c-0.544,0.55-1.094,1.125-1.663,1.7c-1.163,1.112-2.156,2.438-3.3,3.637c-1,1.313-2.119,2.575-3.012,3.962    c-0.9,1.388-1.919,2.713-2.6,4.175c-0.388,0.725-0.769,1.425-1.169,2.112c-0.306,0.738-0.6,1.45-0.906,2.163    c-0.3,0.725-0.625,1.413-0.9,2.125c-0.212,0.725-0.413,1.425-0.612,2.125c-0.225,0.7-0.45,1.375-0.663,2.025    c-0.125,0.688-0.244,1.337-0.362,1.975c-0.219,1.275-0.594,2.475-0.707,3.563c-0.069,1.075-0.194,2.025-0.281,2.837    c-0.194,1.6-0.375,2.563-0.375,2.563s-0.431-0.825-1.019-2.375c-0.294-0.775-0.681-1.737-1.025-2.85    c-0.338-1.125-0.488-2.45-0.7-3.887c-0.094-0.725-0.181-1.488-0.25-2.288c0.044-0.788,0.081-1.612,0.125-2.45    c0.056-0.85,0.112-1.725,0.188-2.625c0.119-0.887,0.4-1.762,0.612-2.675c0.213-0.9,0.457-1.837,0.744-2.75    c0.362-0.888,0.756-1.775,1.168-2.675c0.7-1.85,1.881-3.463,2.931-5.15c1.131-1.625,2.45-3.1,3.744-4.525    c1.406-1.3,2.744-2.663,4.237-3.688c0.719-0.538,1.419-1.087,2.144-1.575c0.738-0.45,1.463-0.875,2.169-1.313    c1.4-0.875,2.844-1.475,4.112-2.1c2.65-1.075,4.913-1.763,6.557-2.087C185.069,179.931,186.025,179.881,186.025,179.881z" fill="#FFFFFF" opacity="0.44"/><path d="M386.75,251.481c-14.425,0.95-28.85,1.525-43.25,2.175c-14.412,0.75-28.825,1.15-43.25,1.513l-2.45,0.063    l-1-2.45l-11.875-28.862l8.65-0.388c-4.425,18.263-9.313,36.412-14.075,54.594l-3.3,12.6l-6.9-11.199l-20.356-33.032l10.394-0.587    L235.231,298.2l-6.544,14.2l-4.506-14.95c-7.987-26.5-15.675-53.094-23.181-79.731l9.331,0.288    c-8.725,21.2-17.287,42.462-26.137,63.619l-0.794,1.9l-1.813-0.101c-18.775-0.925-37.55-1.5-56.325-2.774    c18.775-1.301,37.55-1.875,56.325-2.801l-2.612,1.801c7.231-21.744,14.756-43.394,22.125-65.094l4.712-13.875l4.612,14.163    c8.588,26.313,17,52.688,25.094,79.156l-11.05-0.75l24.169-52.281l4.688-10.15l5.706,9.563L278.9,273.7l-10.207,1.425    c5.307-18.031,10.481-36.094,16.106-54.031l4.15-13.25l4.487,12.862l10.263,29.45l-3.45-2.375    c14.425,0.362,28.838,0.763,43.25,1.513C357.9,249.956,372.325,250.519,386.75,251.481z" fill="#FFDE17"/></g></g><g/><g/><g/><g/><g/><g/></svg>