<?xml version="1.0" ?><!DOCTYPE svg  PUBLIC '-//W3C//DTD SVG 1.1//EN'  'http://www.w3.org/Graphics/SVG/1.1/DTD/svg11.dtd'><svg enable-background="new 0 0 512 512" height="512px" id="Calque_1" version="1.1" viewBox="0 0 512 512" width="512px" xml:space="preserve" xmlns="http://www.w3.org/2000/svg" xmlns:xlink="http://www.w3.org/1999/xlink"><g><path d="M512,256c0,141.386-114.599,255.997-255.991,255.997C114.623,511.997,0,397.386,0,256   S114.623,0.003,256.009,0.003C397.401,0.003,512,114.614,512,256z" fill="#EFC84A"/><g id="pen"><polygon fill="#F16668" points="219.234,132.845 219.234,344.924 258.309,392.498 292.553,344.324 292.752,133.521     271.652,119.808 239.234,119.508   "/><polygon fill="#E9484B" points="219.234,344.924 221.635,347.849 236.51,329.475 239.185,119.533 219.234,132.845   "/><polygon fill="#E9484B" points="289.178,349.074 292.553,344.324 292.752,133.521 271.652,119.808 269.728,325.749   "/><polygon fill="#E1C682" points="236.584,327.749 219.234,344.924 258.309,392.498 292.553,344.324 269.678,325.225   "/><polygon fill="#EDD6A2" points="236.584,327.749 254.984,373.398 261.047,372.799 269.678,325.225   "/><path d="M241.909,372.498l16.399,20l14.395-20.25C260.859,365.049,246.459,370.448,241.909,372.498z" fill="#636565"/></g></g><g/><g/><g/><g/><g/><g/></svg>