<?xml version="1.0" ?><!DOCTYPE svg  PUBLIC '-//W3C//DTD SVG 1.1//EN'  'http://www.w3.org/Graphics/SVG/1.1/DTD/svg11.dtd'><svg enable-background="new 0 0 512 512" height="512px" id="Calque_1" version="1.1" viewBox="0 0 512 512" width="512px" xml:space="preserve" xmlns="http://www.w3.org/2000/svg" xmlns:xlink="http://www.w3.org/1999/xlink"><g><path d="M512.003,256c0,141.388-114.601,256-255.994,256C114.622,512-0.003,397.388-0.003,256S114.622,0,256.009,0   C397.402,0,512.003,114.612,512.003,256z" fill="#E1695C"/><g id="user_9_"><path d="M229.734,257.85c0,0-0.625,29.426-14.4,40.7c0,0,43.825,33.188,85.77,0.612c0,0-16.275-8.762-19.4-37.563    C278.578,232.813,229.734,257.85,229.734,257.85z" fill="#E6B984"/><path d="M282.027,264.112l-12.799-16c-13.244-2.25-32.869,6.55-38.145,9.075c-0.475,0.35-0.925,0.725-1.35,1.112    c-0.05,1.525-0.35,6.938-1.6,13.513c7.925,4.463,27,13.275,32.025,11.7c5.075-1.575,16.844-8.487,23.368-11.7    C282.902,269.438,282.402,266.862,282.027,264.112z" fill="#D8A97C"/><path d="M384.828,386.612c-3-16.462-17.25-60.662-84.5-87.763c0,0-15.051,11.801-45.394,9.713    c-11.7-0.8-21.125-3.575-39.6-10.013c0,0-79.6,32.638-88.175,88.063H384.828z" fill="#FEDB52"/><path d="M237.884,131.375c0,0-68.875,8.138-29.425,91.413c0,0,13.775,44.45,45.7,56.35c0,0,4.375,2.5,10.649-0.638    c6.244-3.112,36.869-27.95,39.395-51.125c0,0,27.6-26.5,17.574-65.313C311.753,123.237,245.384,119.475,237.884,131.375z" fill="#F0D2B1"/><path d="M206.459,213.4c0.625,1.425,1.3,2.888,2,4.375c0,0,0.025,0.113,0.075,0.275    c5.25-11.525,21.025-43.925,36.4-51.625c0,0,19.4,16.288,33.169,21.3c13.774,5,25.899,17.525,25.274,41.012    c0.375-17.087,0.399-62.95,0.399-62.95S203.934,73.8,206.459,213.4z" fill="#E5B680" opacity="0.72"/><path d="M248.059,162.063c0,0,87.194-37.388,1.1-35.9c-5.6,0.95-9.725,2.737-11.275,5.212    c0,0-68.875,8.138-29.425,91.413C206.409,183.962,248.059,162.063,248.059,162.063z" fill="#453129"/><path d="M321.777,162.063c-10.024-38.825-76.393-42.587-83.893-30.688c0,0,1.4,41.325,37.094,50.087    c35.674,8.763,27.375,54.475,27.375,54.475S331.803,200.875,321.777,162.063z" fill="#533A2D"/><path d="M221.134,150.163c0,0-1.2,1.413-3,3.538c-0.875,1.063-1.9,2.287-2.95,3.625    c-0.55,0.637-1.05,1.362-1.575,2.075c-0.55,0.688-1.05,1.45-1.55,2.175c-0.525,0.725-0.975,1.5-1.475,2.225    c-0.4,0.775-0.925,1.475-1.275,2.225c-0.35,0.763-0.775,1.438-1.075,2.163c-0.275,0.7-0.6,1.362-0.85,2    c-0.175,0.625-0.4,1.212-0.575,1.737c-0.175,0.525-0.25,1.013-0.375,1.413c-0.2,0.775-0.325,1.238-0.325,1.238    s-0.075-0.45-0.175-1.288c0-0.4-0.125-0.925-0.075-1.5c0.025-0.587,0.075-1.238,0.15-1.962c0.075-0.713,0.275-1.463,0.475-2.275    c0.175-0.813,0.5-1.612,0.825-2.462c0.325-0.837,0.75-1.663,1.175-2.512c0.475-0.813,0.975-1.625,1.5-2.425    c0.575-0.75,1.1-1.563,1.725-2.262c0.575-0.713,1.2-1.388,1.825-2.013c0.6-0.663,1.25-1.212,1.85-1.775    c0.6-0.538,1.225-1,1.75-1.438C219.384,150.938,221.134,150.163,221.134,150.163z" fill="#FBF7C1" opacity="0.65"/><path d="M263.084,308.875c0,0,11.419,10.325,10.719,17.85c0,0,38.95-15.649,39.676-21.925    c0,0-8.701-12.725-20.15-12.412L263.084,308.875z" fill="#FBF7C1"/><path d="M252.734,308.463c0,0-4.025,2.899-7.6,8c-2.2,3.137-4.025,7.475-5.6,11l-38.1-22.313    c0,0,4.225-4.288,9.1-7.688c3.575-2.5,7.575-4.138,10-5.2L252.734,308.463z" fill="#FBF7C1"/></g></g><g/><g/><g/><g/><g/><g/></svg>