<?xml version="1.0" ?><!DOCTYPE svg  PUBLIC '-//W3C//DTD SVG 1.1//EN'  'http://www.w3.org/Graphics/SVG/1.1/DTD/svg11.dtd'><svg enable-background="new 0 0 512 512" height="512px" id="Calque_1" version="1.1" viewBox="0 0 512 512" width="512px" xml:space="preserve" xmlns="http://www.w3.org/2000/svg" xmlns:xlink="http://www.w3.org/1999/xlink"><g><path d="M512,256c0,141.388-114.625,256-256,256C114.6,512,0,397.388,0,256S114.6,0,256,0   C397.375,0,512,114.612,512,256z" fill="#D6D9B8"/><g id="direction"><g><path d="M283.375,377.925c0,6-19.25,10.875-43,10.875s-43-4.875-43-10.875c0-6.013,19.25-10.888,43-10.888     S283.375,371.912,283.375,377.925z" fill="#A97C50"/><path d="M283.375,377.823c0,6.001-19.25,10.875-43,10.875c-23.75,0-43-4.874-43-10.875     c0-6.013,19.25-10.887,43-10.887C264.125,366.937,283.375,371.811,283.375,377.823z" fill="#A97C50"/><path d="M283.375,377.723c0,6-19.25,10.875-43,10.875s-43-4.875-43-10.875c0-6.013,19.25-10.888,43-10.888     S283.375,371.71,283.375,377.723z" fill="#A97C50"/><path d="M283.375,377.622c0,6-19.25,10.875-43,10.875s-43-4.875-43-10.875c0-6.013,19.25-10.888,43-10.888     S283.375,371.609,283.375,377.622z" fill="#A97C50"/><path d="M283.375,377.521c0,6.001-19.25,10.876-43,10.876c-23.75,0-43-4.875-43-10.876     c0-6.012,19.25-10.887,43-10.887C264.125,366.634,283.375,371.509,283.375,377.521z" fill="#A97C50"/><path d="M283.375,377.419c0,6.001-19.25,10.876-43,10.876s-43-4.875-43-10.876c0-6.012,19.25-10.887,43-10.887     S283.375,371.407,283.375,377.419z" fill="#A97C50"/><path d="M283.375,377.318c0,6.001-19.25,10.876-43,10.876s-43-4.875-43-10.876c0-6.012,19.25-10.887,43-10.887     S283.375,371.307,283.375,377.318z" fill="#A97C50"/><path d="M283.375,377.217c0,6.002-19.25,10.877-43,10.877s-43-4.875-43-10.877c0-6.011,19.25-10.886,43-10.886     S283.375,371.206,283.375,377.217z" fill="#A97C50"/><path d="M283.375,377.115c0,6.002-19.25,10.877-43,10.877c-23.75,0-43-4.875-43-10.877     c0-6.011,19.25-10.886,43-10.886C264.125,366.229,283.375,371.104,283.375,377.115z" fill="#A97C50"/><path d="M283.375,377.015c0,6.002-19.25,10.877-43,10.877s-43-4.875-43-10.877c0-6.011,19.25-10.886,43-10.886     S283.375,371.004,283.375,377.015z" fill="#A97C50"/><path d="M283.375,376.913c0,6.003-19.25,10.878-43,10.878s-43-4.875-43-10.878c0-6.01,19.25-10.885,43-10.885     S283.375,370.903,283.375,376.913z" fill="#A97C50"/><path d="M283.375,376.813c0,6.003-19.25,10.878-43,10.878c-23.75,0-43-4.875-43-10.878     c0-6.01,19.25-10.885,43-10.885C264.125,365.928,283.375,370.803,283.375,376.813z" fill="#A97C50"/><path d="M283.375,376.711c0,6.003-19.25,10.878-43,10.878c-23.75,0-43-4.875-43-10.878     c0-6.01,19.25-10.885,43-10.885C264.125,365.826,283.375,370.701,283.375,376.711z" fill="#A97C50"/><path d="M283.375,376.61c0,6.003-19.25,10.878-43,10.878c-23.75,0-43-4.875-43-10.878     c0-6.01,19.25-10.885,43-10.885C264.125,365.726,283.375,370.601,283.375,376.61z" fill="#A97C50"/><path d="M283.375,376.509c0,6.003-19.25,10.878-43,10.878s-43-4.875-43-10.878c0-6.01,19.25-10.884,43-10.884     S283.375,370.499,283.375,376.509z" fill="#A97C50"/><path d="M283.375,376.407c0,6.004-19.25,10.879-43,10.879c-23.75,0-43-4.875-43-10.879     c0-6.009,19.25-10.884,43-10.884C264.125,365.523,283.375,370.398,283.375,376.407z" fill="#A97C50"/><path d="M283.375,376.307c0,6.004-19.25,10.879-43,10.879s-43-4.875-43-10.879c0-6.01,19.25-10.884,43-10.884     S283.375,370.297,283.375,376.307z" fill="#A97C50"/><path d="M283.375,376.205c0,6.004-19.25,10.879-43,10.879s-43-4.875-43-10.879c0-6.008,19.25-10.883,43-10.883     S283.375,370.197,283.375,376.205z" fill="#A97C50"/><path d="M283.375,376.104c0,6.004-19.25,10.879-43,10.879s-43-4.875-43-10.879c0-6.009,19.25-10.884,43-10.884     S283.375,370.096,283.375,376.104z" fill="#A97C50"/><path d="M283.375,376.003c0,6.005-19.25,10.88-43,10.88s-43-4.875-43-10.88c0-6.008,19.25-10.883,43-10.883     S283.375,369.995,283.375,376.003z" fill="#A97C50"/><path d="M283.375,375.902c0,6.005-19.25,10.879-43,10.879s-43-4.874-43-10.879c0-6.008,19.25-10.884,43-10.884     S283.375,369.895,283.375,375.902z" fill="#A97C50"/><path d="M283.375,375.801c0,6.005-19.25,10.88-43,10.88s-43-4.875-43-10.88c0-6.008,19.25-10.883,43-10.883     S283.375,369.793,283.375,375.801z" fill="#A97C50"/><path d="M283.375,375.699c0,6.006-19.25,10.881-43,10.881s-43-4.875-43-10.881c0-6.007,19.25-10.882,43-10.882     S283.375,369.692,283.375,375.699z" fill="#A97C50"/><path d="M283.375,375.598c0,6.006-19.25,10.881-43,10.881c-23.75,0-43-4.875-43-10.881     c0-6.007,19.25-10.882,43-10.882C264.125,364.716,283.375,369.591,283.375,375.598z" fill="#A97C50"/><path d="M283.375,375.498c0,6.005-19.25,10.88-43,10.88s-43-4.875-43-10.88c0-6.008,19.25-10.883,43-10.883     S283.375,369.49,283.375,375.498z" fill="#A97C50"/><path d="M283.375,375.396c0,6.006-19.25,10.881-43,10.881s-43-4.875-43-10.881c0-6.007,19.25-10.882,43-10.882     S283.375,369.39,283.375,375.396z" fill="#A97C50"/><path d="M283.375,375.295c0,6.006-19.25,10.881-43,10.881s-43-4.875-43-10.881c0-6.007,19.25-10.881,43-10.881     S283.375,369.288,283.375,375.295z" fill="#A97C50"/><path d="M283.375,375.193c0,6.007-19.25,10.882-43,10.882c-23.75,0-43-4.875-43-10.882     c0-6.006,19.25-10.881,43-10.881C264.125,364.313,283.375,369.188,283.375,375.193z" fill="#A97C50"/><path d="M283.375,375.093c0,6.007-19.25,10.882-43,10.882s-43-4.875-43-10.882c0-6.006,19.25-10.882,43-10.882     S283.375,369.087,283.375,375.093z" fill="#A97C50"/><path d="M283.375,374.992c0,6.006-19.25,10.882-43,10.882s-43-4.876-43-10.882c0-6.007,19.25-10.881,43-10.881     S283.375,368.985,283.375,374.992z" fill="#A97C50"/><path d="M283.375,374.891c0,6.007-19.25,10.882-43,10.882s-43-4.875-43-10.882c0-6.006,19.25-10.881,43-10.881     S283.375,368.885,283.375,374.891z" fill="#A97C50"/><path d="M283.375,374.789c0,6.008-19.25,10.883-43,10.883s-43-4.875-43-10.883c0-6.005,19.25-10.88,43-10.88     S283.375,368.784,283.375,374.789z" fill="#A97C50"/><path d="M283.375,374.688c0,6.007-19.25,10.882-43,10.882s-43-4.875-43-10.882c0-6.005,19.25-10.881,43-10.881     S283.375,368.684,283.375,374.688z" fill="#A97C50"/><path d="M283.375,374.587c0,6.008-19.25,10.883-43,10.883s-43-4.875-43-10.883c0-6.005,19.25-10.88,43-10.88     S283.375,368.582,283.375,374.587z" fill="#A97C50"/><path d="M283.375,374.486c0,6.008-19.25,10.883-43,10.883s-43-4.875-43-10.883c0-6.005,19.25-10.88,43-10.88     S283.375,368.481,283.375,374.486z" fill="#A97C50"/><path d="M283.375,374.385c0,6.009-19.25,10.883-43,10.883s-43-4.874-43-10.883c0-6.004,19.25-10.879,43-10.879     S283.375,368.381,283.375,374.385z" fill="#A97C50"/><path d="M283.375,374.283c0,6.009-19.25,10.884-43,10.884s-43-4.875-43-10.884c0-6.004,19.25-10.879,43-10.879     S283.375,368.279,283.375,374.283z" fill="#A97C50"/><path d="M283.375,374.183c0,6.009-19.25,10.884-43,10.884s-43-4.875-43-10.884c0-6.004,19.25-10.879,43-10.879     S283.375,368.179,283.375,374.183z" fill="#A97C50"/><path d="M283.375,374.082c0,6.008-19.25,10.884-43,10.884s-43-4.876-43-10.884c0-6.004,19.25-10.879,43-10.879     S283.375,368.078,283.375,374.082z" fill="#A97C50"/><path d="M283.375,373.98c0,6.009-19.25,10.885-43,10.885s-43-4.876-43-10.885c0-6.004,19.25-10.879,43-10.879     S283.375,367.977,283.375,373.98z" fill="#A97C50"/><path d="M283.375,373.879c0,6.01-19.25,10.885-43,10.885s-43-4.875-43-10.885c0-6.003,19.25-10.878,43-10.878     S283.375,367.876,283.375,373.879z" fill="#A97C50"/><path d="M283.375,373.778c0,6.009-19.25,10.885-43,10.885s-43-4.876-43-10.885c0-6.004,19.25-10.878,43-10.878     S283.375,367.774,283.375,373.778z" fill="#A97C50"/><path d="M283.375,373.677c0,6.01-19.25,10.885-43,10.885s-43-4.875-43-10.885c0-6.003,19.25-10.878,43-10.878     S283.375,367.674,283.375,373.677z" fill="#A97C50"/><path d="M283.375,373.576c0,6.01-19.25,10.885-43,10.885s-43-4.875-43-10.885c0-6.003,19.25-10.878,43-10.878     S283.375,367.573,283.375,373.576z" fill="#A97C50"/><path d="M283.375,373.475c0,6.011-19.25,10.886-43,10.886s-43-4.875-43-10.886c0-6.002,19.25-10.877,43-10.877     S283.375,367.473,283.375,373.475z" fill="#A97C50"/><path d="M283.375,373.373c0,6.011-19.25,10.886-43,10.886s-43-4.875-43-10.886c0-6.002,19.25-10.877,43-10.877     S283.375,367.371,283.375,373.373z" fill="#A97C50"/><path d="M283.375,373.272c0,6.011-19.25,10.886-43,10.886s-43-4.875-43-10.886c0-6.002,19.25-10.877,43-10.877     S283.375,367.271,283.375,373.272z" fill="#A97C50"/><path d="M283.375,373.172c0,6.011-19.25,10.885-43,10.885s-43-4.874-43-10.885c0-6.002,19.25-10.877,43-10.877     S283.375,367.17,283.375,373.172z" fill="#A97C50"/><path d="M283.375,373.07c0,6.011-19.25,10.886-43,10.886s-43-4.875-43-10.886c0-6.002,19.25-10.877,43-10.877     S283.375,367.068,283.375,373.07z" fill="#A97C50"/><path d="M283.375,372.969c0,6.012-19.25,10.887-43,10.887s-43-4.875-43-10.887c0-6.001,19.25-10.876,43-10.876     S283.375,366.968,283.375,372.969z" fill="#A97C50"/><path d="M283.375,372.868c0,6.012-19.25,10.887-43,10.887s-43-4.875-43-10.887c0-6.001,19.25-10.877,43-10.877     S283.375,366.867,283.375,372.868z" fill="#A97C50"/><path d="M283.375,372.767c0,6.012-19.25,10.888-43,10.888s-43-4.876-43-10.888c0-6.001,19.25-10.876,43-10.876     S283.375,366.766,283.375,372.767z" fill="#A97C50"/><path d="M283.375,372.666c0,6.012-19.25,10.887-43,10.887s-43-4.875-43-10.887c0-6.001,19.25-10.876,43-10.876     S283.375,366.665,283.375,372.666z" fill="#A97C50"/><path d="M283.375,372.564c0,6.013-19.25,10.888-43,10.888s-43-4.875-43-10.888c0-6.001,19.25-10.875,43-10.875     S283.375,366.563,283.375,372.564z" fill="#A97C50"/><path d="M283.375,372.463c0,6.013-19.25,10.888-43,10.888s-43-4.875-43-10.888c0-6,19.25-10.875,43-10.875     S283.375,366.463,283.375,372.463z" fill="#A97C50"/><path d="M283.375,372.362c0,6.013-19.25,10.888-43,10.888s-43-4.875-43-10.888c0-6,19.25-10.875,43-10.875     S283.375,366.362,283.375,372.362z" fill="#A97C50"/></g><g><path d="M283.375,377.925c0,6-19.25,10.875-43,10.875s-43-4.875-43-10.875c0-6.013,19.25-10.888,43-10.888     S283.375,371.912,283.375,377.925z" fill="#A97C50"/><path d="M283.375,377.823c0,6.001-19.25,10.875-43,10.875c-23.75,0-43-4.874-43-10.875     c0-6.013,19.25-10.887,43-10.887C264.125,366.937,283.375,371.811,283.375,377.823z" fill="#A97C50"/><path d="M283.375,377.723c0,6-19.25,10.875-43,10.875s-43-4.875-43-10.875c0-6.013,19.25-10.888,43-10.888     S283.375,371.71,283.375,377.723z" fill="#A97C50"/><path d="M283.375,377.622c0,6-19.25,10.875-43,10.875s-43-4.875-43-10.875c0-6.013,19.25-10.888,43-10.888     S283.375,371.609,283.375,377.622z" fill="#A97C50"/><path d="M283.375,377.521c0,6.001-19.25,10.876-43,10.876c-23.75,0-43-4.875-43-10.876     c0-6.012,19.25-10.887,43-10.887C264.125,366.634,283.375,371.509,283.375,377.521z" fill="#A97C50"/><path d="M283.375,377.419c0,6.001-19.25,10.876-43,10.876s-43-4.875-43-10.876c0-6.012,19.25-10.887,43-10.887     S283.375,371.407,283.375,377.419z" fill="#A97C50"/><path d="M283.375,377.318c0,6.001-19.25,10.876-43,10.876s-43-4.875-43-10.876c0-6.012,19.25-10.887,43-10.887     S283.375,371.307,283.375,377.318z" fill="#A97C50"/><path d="M283.375,377.217c0,6.002-19.25,10.877-43,10.877s-43-4.875-43-10.877c0-6.011,19.25-10.886,43-10.886     S283.375,371.206,283.375,377.217z" fill="#A97C50"/><path d="M283.375,377.115c0,6.002-19.25,10.877-43,10.877c-23.75,0-43-4.875-43-10.877     c0-6.011,19.25-10.886,43-10.886C264.125,366.229,283.375,371.104,283.375,377.115z" fill="#A97C50"/><path d="M283.375,377.015c0,6.002-19.25,10.877-43,10.877s-43-4.875-43-10.877c0-6.011,19.25-10.886,43-10.886     S283.375,371.004,283.375,377.015z" fill="#A97C50"/><path d="M283.375,376.913c0,6.003-19.25,10.878-43,10.878s-43-4.875-43-10.878c0-6.01,19.25-10.885,43-10.885     S283.375,370.903,283.375,376.913z" fill="#A97C50"/><path d="M283.375,376.813c0,6.003-19.25,10.878-43,10.878c-23.75,0-43-4.875-43-10.878     c0-6.01,19.25-10.885,43-10.885C264.125,365.928,283.375,370.803,283.375,376.813z" fill="#A97C50"/><path d="M283.375,376.711c0,6.003-19.25,10.878-43,10.878c-23.75,0-43-4.875-43-10.878     c0-6.01,19.25-10.885,43-10.885C264.125,365.826,283.375,370.701,283.375,376.711z" fill="#A97C50"/><path d="M283.375,376.61c0,6.003-19.25,10.878-43,10.878c-23.75,0-43-4.875-43-10.878     c0-6.01,19.25-10.885,43-10.885C264.125,365.726,283.375,370.601,283.375,376.61z" fill="#A97C50"/><path d="M283.375,376.509c0,6.003-19.25,10.878-43,10.878s-43-4.875-43-10.878c0-6.01,19.25-10.884,43-10.884     S283.375,370.499,283.375,376.509z" fill="#A97C50"/><path d="M283.375,376.407c0,6.004-19.25,10.879-43,10.879c-23.75,0-43-4.875-43-10.879     c0-6.009,19.25-10.884,43-10.884C264.125,365.523,283.375,370.398,283.375,376.407z" fill="#A97C50"/><path d="M283.375,376.307c0,6.004-19.25,10.879-43,10.879s-43-4.875-43-10.879c0-6.01,19.25-10.884,43-10.884     S283.375,370.297,283.375,376.307z" fill="#A97C50"/><path d="M283.375,376.205c0,6.004-19.25,10.879-43,10.879s-43-4.875-43-10.879c0-6.008,19.25-10.883,43-10.883     S283.375,370.197,283.375,376.205z" fill="#A97C50"/><path d="M283.375,376.104c0,6.004-19.25,10.879-43,10.879s-43-4.875-43-10.879c0-6.009,19.25-10.884,43-10.884     S283.375,370.096,283.375,376.104z" fill="#A97C50"/><path d="M283.375,376.003c0,6.005-19.25,10.88-43,10.88s-43-4.875-43-10.88c0-6.008,19.25-10.883,43-10.883     S283.375,369.995,283.375,376.003z" fill="#A97C50"/><path d="M283.375,375.902c0,6.005-19.25,10.879-43,10.879s-43-4.874-43-10.879c0-6.008,19.25-10.884,43-10.884     S283.375,369.895,283.375,375.902z" fill="#A97C50"/><path d="M283.375,375.801c0,6.005-19.25,10.88-43,10.88s-43-4.875-43-10.88c0-6.008,19.25-10.883,43-10.883     S283.375,369.793,283.375,375.801z" fill="#A97C50"/><path d="M283.375,375.699c0,6.006-19.25,10.881-43,10.881s-43-4.875-43-10.881c0-6.007,19.25-10.882,43-10.882     S283.375,369.692,283.375,375.699z" fill="#A97C50"/><path d="M283.375,375.598c0,6.006-19.25,10.881-43,10.881c-23.75,0-43-4.875-43-10.881     c0-6.007,19.25-10.882,43-10.882C264.125,364.716,283.375,369.591,283.375,375.598z" fill="#A97C50"/><path d="M283.375,375.498c0,6.005-19.25,10.88-43,10.88s-43-4.875-43-10.88c0-6.008,19.25-10.883,43-10.883     S283.375,369.49,283.375,375.498z" fill="#A97C50"/><path d="M283.375,375.396c0,6.006-19.25,10.881-43,10.881s-43-4.875-43-10.881c0-6.007,19.25-10.882,43-10.882     S283.375,369.39,283.375,375.396z" fill="#A97C50"/><path d="M283.375,375.295c0,6.006-19.25,10.881-43,10.881s-43-4.875-43-10.881c0-6.007,19.25-10.881,43-10.881     S283.375,369.288,283.375,375.295z" fill="#A97C50"/><path d="M283.375,375.193c0,6.007-19.25,10.882-43,10.882c-23.75,0-43-4.875-43-10.882     c0-6.006,19.25-10.881,43-10.881C264.125,364.313,283.375,369.188,283.375,375.193z" fill="#A97C50"/><path d="M283.375,375.093c0,6.007-19.25,10.882-43,10.882s-43-4.875-43-10.882c0-6.006,19.25-10.882,43-10.882     S283.375,369.087,283.375,375.093z" fill="#A97C50"/><path d="M283.375,374.992c0,6.006-19.25,10.882-43,10.882s-43-4.876-43-10.882c0-6.007,19.25-10.881,43-10.881     S283.375,368.985,283.375,374.992z" fill="#A97C50"/><path d="M283.375,374.891c0,6.007-19.25,10.882-43,10.882s-43-4.875-43-10.882c0-6.006,19.25-10.881,43-10.881     S283.375,368.885,283.375,374.891z" fill="#A97C50"/><path d="M283.375,374.789c0,6.008-19.25,10.883-43,10.883s-43-4.875-43-10.883c0-6.005,19.25-10.88,43-10.88     S283.375,368.784,283.375,374.789z" fill="#A97C50"/><path d="M283.375,374.688c0,6.007-19.25,10.882-43,10.882s-43-4.875-43-10.882c0-6.005,19.25-10.881,43-10.881     S283.375,368.684,283.375,374.688z" fill="#A97C50"/><path d="M283.375,374.587c0,6.008-19.25,10.883-43,10.883s-43-4.875-43-10.883c0-6.005,19.25-10.88,43-10.88     S283.375,368.582,283.375,374.587z" fill="#A97C50"/><path d="M283.375,374.486c0,6.008-19.25,10.883-43,10.883s-43-4.875-43-10.883c0-6.005,19.25-10.88,43-10.88     S283.375,368.481,283.375,374.486z" fill="#A97C50"/><path d="M283.375,374.385c0,6.009-19.25,10.883-43,10.883s-43-4.874-43-10.883c0-6.004,19.25-10.879,43-10.879     S283.375,368.381,283.375,374.385z" fill="#A97C50"/><path d="M283.375,374.283c0,6.009-19.25,10.884-43,10.884s-43-4.875-43-10.884c0-6.004,19.25-10.879,43-10.879     S283.375,368.279,283.375,374.283z" fill="#A97C50"/><path d="M283.375,374.183c0,6.009-19.25,10.884-43,10.884s-43-4.875-43-10.884c0-6.004,19.25-10.879,43-10.879     S283.375,368.179,283.375,374.183z" fill="#A97C50"/><path d="M283.375,374.082c0,6.008-19.25,10.884-43,10.884s-43-4.876-43-10.884c0-6.004,19.25-10.879,43-10.879     S283.375,368.078,283.375,374.082z" fill="#A97C50"/><path d="M283.375,373.98c0,6.009-19.25,10.885-43,10.885s-43-4.876-43-10.885c0-6.004,19.25-10.879,43-10.879     S283.375,367.977,283.375,373.98z" fill="#A97C50"/><path d="M283.375,373.879c0,6.01-19.25,10.885-43,10.885s-43-4.875-43-10.885c0-6.003,19.25-10.878,43-10.878     S283.375,367.876,283.375,373.879z" fill="#A97C50"/><path d="M283.375,373.778c0,6.009-19.25,10.885-43,10.885s-43-4.876-43-10.885c0-6.004,19.25-10.878,43-10.878     S283.375,367.774,283.375,373.778z" fill="#A97C50"/><path d="M283.375,373.677c0,6.01-19.25,10.885-43,10.885s-43-4.875-43-10.885c0-6.003,19.25-10.878,43-10.878     S283.375,367.674,283.375,373.677z" fill="#A97C50"/><path d="M283.375,373.576c0,6.01-19.25,10.885-43,10.885s-43-4.875-43-10.885c0-6.003,19.25-10.878,43-10.878     S283.375,367.573,283.375,373.576z" fill="#A97C50"/><path d="M283.375,373.475c0,6.011-19.25,10.886-43,10.886s-43-4.875-43-10.886c0-6.002,19.25-10.877,43-10.877     S283.375,367.473,283.375,373.475z" fill="#A97C50"/><path d="M283.375,373.373c0,6.011-19.25,10.886-43,10.886s-43-4.875-43-10.886c0-6.002,19.25-10.877,43-10.877     S283.375,367.371,283.375,373.373z" fill="#A97C50"/><path d="M283.375,373.272c0,6.011-19.25,10.886-43,10.886s-43-4.875-43-10.886c0-6.002,19.25-10.877,43-10.877     S283.375,367.271,283.375,373.272z" fill="#A97C50"/><path d="M283.375,373.172c0,6.011-19.25,10.885-43,10.885s-43-4.874-43-10.885c0-6.002,19.25-10.877,43-10.877     S283.375,367.17,283.375,373.172z" fill="#A97C50"/><path d="M283.375,373.07c0,6.011-19.25,10.886-43,10.886s-43-4.875-43-10.886c0-6.002,19.25-10.877,43-10.877     S283.375,367.068,283.375,373.07z" fill="#A97C50"/><path d="M283.375,372.969c0,6.012-19.25,10.887-43,10.887s-43-4.875-43-10.887c0-6.001,19.25-10.876,43-10.876     S283.375,366.968,283.375,372.969z" fill="#A97C50"/><path d="M283.375,372.868c0,6.012-19.25,10.887-43,10.887s-43-4.875-43-10.887c0-6.001,19.25-10.877,43-10.877     S283.375,366.867,283.375,372.868z" fill="#A97C50"/><path d="M283.375,372.767c0,6.012-19.25,10.888-43,10.888s-43-4.876-43-10.888c0-6.001,19.25-10.876,43-10.876     S283.375,366.766,283.375,372.767z" fill="#A97C50"/><path d="M283.375,372.666c0,6.012-19.25,10.887-43,10.887s-43-4.875-43-10.887c0-6.001,19.25-10.876,43-10.876     S283.375,366.665,283.375,372.666z" fill="#A97C50"/><path d="M283.375,372.564c0,6.013-19.25,10.888-43,10.888s-43-4.875-43-10.888c0-6.001,19.25-10.875,43-10.875     S283.375,366.563,283.375,372.564z" fill="#A97C50"/><path d="M283.375,372.463c0,6.013-19.25,10.888-43,10.888s-43-4.875-43-10.888c0-6,19.25-10.875,43-10.875     S283.375,366.463,283.375,372.463z" fill="#A97C50"/><path d="M283.375,372.362c0,6.013-19.25,10.888-43,10.888s-43-4.875-43-10.888c0-6,19.25-10.875,43-10.875     S283.375,366.362,283.375,372.362z" fill="#A97C50"/></g><path d="M270.475,385.712v-7.837h-11.65v9.837C263.75,387.037,268.875,386.037,270.475,385.712z" fill="#594A42" opacity="0.39"/><path d="M283.375,372.362c0,6.013-19.25,10.888-43,10.888s-43-4.875-43-10.888c0-6,19.25-10.875,43-10.875    S283.375,366.362,283.375,372.362z" fill="#C49A6C"/><polygon fill="#E9484B" points="155.125,225.513 237.275,225.513 237.275,184.237 155.125,184.237 142.55,204.013   "/><polygon fill="#FFDE17" points="308.05,277.275 244.725,277.275 244.725,236 308.05,236 322,255.775   "/><path d="M258.975,382.162c4.325-0.524,8.275-1.225,11.65-2.063l-22.375-11.625h-15.6    L258.975,382.162z" fill="#594A42" opacity="0.3"/><path d="M248.25,130.837c0-4.212-3.525-7.625-7.9-7.625c-4.35,0-7.9,3.413-7.9,7.625v25.137    c0,0.125,0.076,0.226,0.076,0.351v212.149c0,0,7.125,3.063,15.699,0V156.138c0-0.063,0.025-0.113,0.025-0.163V130.837z" fill="#C2B59B"/><polygon fill="#594A42" opacity="0.38" points="239.9,206.025 248.15,218.013 248.15,203.625   "/><path d="M240.35,123.212c-1.5,0-2.85,0.512-4.05,1.238c3.399-0.675,7.851,0.912,7.851,13.862    c0,19.6,0,207.45,0,231.162c1.299-0.212,2.649-0.5,4.074-1V156.138c0-0.063,0.025-0.113,0.025-0.163v-25.137    C248.25,126.625,244.725,123.212,240.35,123.212z" fill="#9B8579" opacity="0.33"/><polygon fill="#E9484B" points="355.1,206.025 239.9,206.025 239.9,164.763 355.1,164.763 369.425,184.525   "/></g></g><g/><g/><g/><g/><g/><g/></svg>