<?xml version="1.0" ?><!DOCTYPE svg  PUBLIC '-//W3C//DTD SVG 1.1//EN'  'http://www.w3.org/Graphics/SVG/1.1/DTD/svg11.dtd'><svg enable-background="new 0 0 512 512" height="512px" id="Calque_1" version="1.1" viewBox="0 0 512 512" width="512px" xml:space="preserve" xmlns="http://www.w3.org/2000/svg" xmlns:xlink="http://www.w3.org/1999/xlink"><g><path d="M512,256c0,141.388-114.612,256-256,256S0,397.388,0,256S114.612,0,256,0S512,114.612,512,256z" fill="#EBEEEF"/><g id="Refresh"><path d="M387.263,232.7l-5.425-72.375l-17.051,11.625c-5.375-5.9-13.925-13.963-25.725-21.038    c-19.375-11.638-51.225-22.625-93.075-8.938c-19.05,6.25-34.375,16.762-45.525,31.25c-8.85,11.487-14.925,25.3-18.05,41.05    c-5.175,25.8-0.6,48.387-0.4,49.337l32.4-6.712c-0.05-0.163-3.35-17.188,0.425-36.15c4.85-24.313,18.425-39.788,41.45-47.337    c23.6-7.712,45.375-5.962,64.675,5.237c6.824,3.95,12.199,8.45,16.074,12.225l-15.175,10.337L387.263,232.7z" fill="#8DC63F"/><path d="M329.963,248.375l-32.4,6.725c0.05,0.163,3.35,17.175-0.425,36.15c-4.851,24.313-18.425,39.8-41.45,47.338    c-23.6,7.725-45.35,5.962-64.675-5.238c-6.825-3.949-12.2-8.449-16.075-12.225l15.175-10.325l-65.375-31.5l5.425,72.375    l17.025-11.625c5.375,5.9,13.925,13.963,25.725,21.05c12.975,7.775,31.525,15.275,54.95,15.275c11.55,0,24.275-1.825,38.125-6.35    c19.05-6.238,34.375-16.75,45.55-31.25c8.825-11.488,14.9-25.288,18.051-41.038C334.713,271.925,330.162,249.337,329.963,248.375z    " fill="#E64E3C"/><path d="M214.413,256.9c-0.025-0.112-1.5-7.775-1.35-18.487l-31.75-17.688    c-3.3,23,0.525,42.025,0.7,42.887L214.413,256.9z" fill="#006838" opacity="0.27"/><polygon fill="#D7DF23" points="214.413,256.9 176.763,221.975 156.087,247.05 182.013,263.612   "/><path d="M297.563,255.1c0.05,0.15,2.9,14.95,0.25,32.325l9.15,14.825l19.649,7.063    c1.175-3.737,2.175-7.588,2.976-11.575c5.125-25.813,0.574-48.4,0.375-49.362L297.563,255.1z" fill="#BE1E2D" opacity="0.55"/><polygon fill="#F16668" points="297.563,255.1 307.638,296.1 342.838,297.862 329.963,248.375   "/><polygon fill="#BE1E2D" points="342.838,297.862 356.912,277.2 317.763,280.725 307.638,296.1   "/></g></g><g/><g/><g/><g/><g/><g/></svg>