<?xml version="1.0" ?><!DOCTYPE svg  PUBLIC '-//W3C//DTD SVG 1.1//EN'  'http://www.w3.org/Graphics/SVG/1.1/DTD/svg11.dtd'><svg enable-background="new 0 0 512 512" height="512px" id="Calque_1" version="1.1" viewBox="0 0 512 512" width="512px" xml:space="preserve" xmlns="http://www.w3.org/2000/svg" xmlns:xlink="http://www.w3.org/1999/xlink"><g><path d="M512,256.003c0,141.364-114.608,255.985-255.997,255.985C114.621,511.988,0,397.367,0,256.003   C0,114.621,114.621,0.013,256.003,0.013C397.392,0.013,512,114.621,512,256.003z" fill="#A1C656"/><g id="shape_1_"><rect fill="#FFFFFF" height="5.625" width="215.992" x="146.126" y="252.479"/><path d="M154.576,255.278c0,6.25-5.05,11.274-11.274,11.274c-6.225,0-11.275-5.024-11.275-11.274    c0-6.2,5.05-11.25,11.275-11.25C149.526,244.029,154.576,249.079,154.576,255.278z" fill="#FFFFFF"/><path d="M380.117,255.278c0,6.25-5.05,11.274-11.274,11.274s-11.274-5.024-11.274-11.274    c0-6.2,5.05-11.25,11.274-11.25S380.117,249.079,380.117,255.278z" fill="#FFFFFF"/><path d="M256.947,260.928L256.947,260.928v-11.274l0,0c44.323,0,75.972-10.225,94.097-30.424    c18.199-20.274,15.849-44.048,15.824-44.298l11.199-1.275c0.125,1.175,3.05,28.749-18.449,52.898    C339.294,249.354,304.745,260.928,256.947,260.928z" fill="#FFFFFF"/><path d="M133.102,337.719c-0.15-1.175-3.05-28.773,18.449-52.923c20.324-22.817,54.848-34.367,102.646-34.367    h0.025v11.274h-0.025c-44.323,0-75.973,10.219-94.097,30.418c-18.174,20.299-15.824,44.073-15.799,44.323L133.102,337.719z" fill="#FFFFFF"/><path d="M381.617,153.407v16.899h-16.899v-16.899H381.617 M387.242,147.782h-28.174v28.174h28.174V147.782    L387.242,147.782z" fill="#FFFFFF"/><path d="M147.301,341.693v16.9h-16.899v-16.9H147.301 M152.926,336.044h-28.174v28.174h28.174V336.044    L152.926,336.044z" fill="#FFFFFF"/><rect fill="#FFFFFF" height="32.868" width="32.874" x="240.498" y="238.854"/></g></g><g/><g/><g/><g/><g/><g/></svg>