<?xml version="1.0" ?><!DOCTYPE svg  PUBLIC '-//W3C//DTD SVG 1.1//EN'  'http://www.w3.org/Graphics/SVG/1.1/DTD/svg11.dtd'><svg enable-background="new 0 0 512 512" height="512px" id="Calque_1" version="1.1" viewBox="0 0 512 512" width="512px" xml:space="preserve" xmlns="http://www.w3.org/2000/svg" xmlns:xlink="http://www.w3.org/1999/xlink"><g><path d="M511.98,256.016C511.98,397.385,397.391,512,255.997,512C114.634,512,0.019,397.385,0.019,256.016   C0.019,114.641,114.634,0,255.997,0C397.391,0,511.98,114.641,511.98,256.016z" fill="#CFD5D6"/><g id="help"><path d="M255.997,189.622c36.603,0,66.375,29.772,66.375,66.382c0,36.59-29.772,66.388-66.375,66.388    c-36.622,0-66.394-29.798-66.394-66.388C189.603,219.394,219.375,189.622,255.997,189.622 M255.997,127.377    c-71.044,0-128.601,57.595-128.601,128.626c0,71.038,57.557,128.608,128.601,128.608c71.025,0,128.621-57.57,128.621-128.608    C384.617,184.972,327.021,127.377,255.997,127.377L255.997,127.377z" fill="#E6E7E8"/><g><defs><path d="M255.997,189.622c36.603,0,66.375,29.772,66.375,66.382c0,36.59-29.772,66.388-66.375,66.388      c-36.622,0-66.394-29.798-66.394-66.388C189.603,219.394,219.375,189.622,255.997,189.622 M255.997,127.377      c-71.044,0-128.601,57.595-128.601,128.626c0,71.038,57.557,128.608,128.601,128.608c71.025,0,128.621-57.57,128.621-128.608      C384.617,184.972,327.021,127.377,255.997,127.377L255.997,127.377z" id="SVGID_1_"/></defs><clipPath id="SVGID_2_"><use overflow="visible" xlink:href="#SVGID_1_"/></clipPath><g clip-path="url(#SVGID_2_)"><polygon fill="#E64E3C" points="229.049,203.096 282.951,203.096 298.799,105.604 213.175,105.604     "/><polygon fill="#E64E3C" points="229.049,306.942 213.175,404.435 298.799,404.435 282.951,306.942     "/><polygon fill="#E64E3C" points="106.584,297.844 204.076,281.97 204.076,228.068 106.584,212.207     "/><polygon fill="#E64E3C" points="307.924,228.068 307.924,281.97 405.415,297.844 405.415,212.207     "/></g></g><g opacity="0.1"><path d="M261.171,322.142c1.726,0.149,3.45,0.25,5.2,0.25c36.603,0,66.375-29.798,66.375-66.388     c0-36.609-29.772-66.382-66.375-66.382c-1.75,0-3.475,0.087-5.2,0.212c34.204,2.649,61.201,31.31,61.201,66.169     C322.372,290.844,295.375,319.492,261.171,322.142z"/><path d="M137.782,256.003c0-69.294,54.77-125.764,123.389-128.501c-1.725-0.063-3.425-0.125-5.174-0.125     c-71.044,0-128.601,57.595-128.601,128.626c0,71.038,57.557,128.608,128.601,128.608c1.75,0,3.45-0.051,5.174-0.125     C192.552,381.762,137.782,325.291,137.782,256.003z"/></g></g></g><g/><g/><g/><g/><g/><g/></svg>