<?xml version="1.0" ?><!DOCTYPE svg  PUBLIC '-//W3C//DTD SVG 1.1//EN'  'http://www.w3.org/Graphics/SVG/1.1/DTD/svg11.dtd'><svg enable-background="new 0 0 512 512" height="512px" id="Calque_1" version="1.1" viewBox="0 0 512 512" width="512px" xml:space="preserve" xmlns="http://www.w3.org/2000/svg" xmlns:xlink="http://www.w3.org/1999/xlink"><g><path d="M512,256c0,141.386-114.624,255.997-255.991,255.997C114.611,511.997,0.012,397.386,0.012,256   S114.611,0.003,256.009,0.003C397.376,0.003,512,114.614,512,256z" fill="#43B39C"/><g id="alarm"><path d="M345.627,386.398c-2.2,0-4.375-0.925-5.875-2.75l-54.574-65.462c-2.7-3.237-2.25-8.05,0.975-10.763    c3.25-2.688,8.075-2.262,10.775,0.988l54.549,65.461c2.7,3.25,2.275,8.063-0.975,10.75    C349.077,385.823,347.352,386.398,345.627,386.398z" fill="#E7CE3C"/><path d="M181.873,386.398c-1.725,0-3.462-0.575-4.887-1.775c-3.25-2.688-3.688-7.5-0.975-10.75l54.549-65.461    c2.7-3.25,7.525-3.676,10.762-0.988c3.238,2.713,3.675,7.525,0.975,10.763l-54.562,65.462    C186.235,385.474,184.06,386.398,181.873,386.398z" fill="#E7CE3C"/><path d="M323.102,339.824c-9.199-4.238-13.524,0.149-14.824,6.05l9.9,11.899    c4.174-3.637,8.074-8.813,10.124-11.725L323.102,339.824z" fill="#C7AD2E" opacity="0.65"/><path d="M198.91,346.387c9.2-4.25,13.5,0.149,14.824,6.037l-9.899,11.9    c-4.175-3.638-8.075-8.813-10.125-11.713L198.91,346.387z" fill="#C7AD2E" opacity="0.65"/><path d="M211.785,161.301c2.55,2.562,3,6.25,1.012,8.25l-29.475,29.475c-1.987,2-5.687,1.538-8.237-1.012    l-16.975-16.987c-2.563-2.55-3.025-6.237-1.025-8.225l29.475-29.487c2-2,5.675-1.538,8.25,1.025L211.785,161.301z" fill="#E7CE3C"/><path d="M297.853,161.301c-2.55,2.562-3.025,6.25-1.025,8.25l29.475,29.475c2,2,5.7,1.538,8.25-1.012    l16.976-16.987c2.549-2.55,3.024-6.237,1.024-8.225l-29.475-29.487c-2-2-5.7-1.538-8.25,1.025L297.853,161.301z" fill="#E7CE3C"/><path d="M232.959,147.438c0,12.05,10.25,21.825,22.9,21.825c12.662,0,22.918-9.775,22.918-21.825    c0-12.05-10.256-21.824-22.918-21.824C243.209,125.614,232.959,135.389,232.959,147.438z" fill="#E9484B"/><path d="M182.16,147.714l-25.075,25.087c-2,1.988-1.538,5.675,1.025,8.225l16.975,16.987    c1.213,1.212,2.675,1.938,4.1,2.163c0.2-0.475,0.387-0.95,0.575-1.463C188.897,174.201,185.885,157.201,182.16,147.714z" fill="#F9ED32" opacity="0.4"/><path d="M327.602,147.714l25.075,25.087c2,1.988,1.55,5.675-1.024,8.225l-16.976,16.987    c-1.2,1.212-2.675,1.938-4.1,2.163c-0.2-0.475-0.375-0.95-0.575-1.463C320.877,174.201,323.902,157.201,327.602,147.714z" fill="#F9ED32" opacity="0.4"/><path d="M367.852,255.737c0,61.774-50.074,111.849-111.842,111.849c-61.774,0-111.849-50.074-111.849-111.849    c0-61.774,50.074-111.849,111.849-111.849C317.777,143.889,367.852,193.963,367.852,255.737z" fill="#D1D3D4"/><path d="M346.027,255.737c0-49.637-40.375-90.023-90.018-90.023c-22.2,0-42.525,8.087-58.25,21.449    c-14.675,18.663-23.462,42.175-23.462,67.75c0,27.912,10.462,53.375,27.612,72.737c15.074,11.362,33.812,18.112,54.099,18.112    C305.652,345.762,346.027,305.375,346.027,255.737z" fill="#E6E7E8"/><polygon fill="#D1D3D4" opacity="0.65" points="259.659,199.538 345.802,279.425 319.752,326.662 252.709,261.362   "/><path d="M255.784,260.912c-2.412,0-4.375-1.949-4.375-4.35v-54.562c0-2.4,1.963-4.363,4.375-4.363    c2.399,0,4.35,1.962,4.35,4.363v54.562C260.134,258.963,258.184,260.912,255.784,260.912z" fill="#BCBEC0"/><path d="M297.978,303.475c-1.65,0-3.3-0.625-4.575-1.85l-41.468-40.375c-2.588-2.525-2.65-6.675-0.125-9.263    c2.524-2.587,6.675-2.649,9.262-0.125l41.456,40.375c2.6,2.524,2.65,6.662,0.125,9.263    C301.377,302.813,299.678,303.475,297.978,303.475z" fill="#BCBEC0"/><path d="M266.371,255.737c0,5.726-4.637,10.362-10.362,10.362s-10.375-4.637-10.375-10.362    c0-5.725,4.65-10.362,10.375-10.362S266.371,250.013,266.371,255.737z" fill="#6D6E71"/><path d="M256.009,165.714c49.643,0,90.018,40.387,90.018,90.023c0,49.638-40.375,90.024-90.018,90.024    c-49.649,0-90.024-40.387-90.024-90.024C165.985,206.101,206.36,165.714,256.009,165.714 M256.009,143.889    c-61.774,0-111.849,50.075-111.849,111.849c0,61.774,50.074,111.849,111.849,111.849c61.768,0,111.842-50.074,111.842-111.849    C367.852,193.963,317.777,143.889,256.009,143.889L256.009,143.889z" fill="#1C2D35"/></g></g><g/><g/><g/><g/><g/><g/></svg>