<?xml version="1.0" ?><!DOCTYPE svg  PUBLIC '-//W3C//DTD SVG 1.1//EN'  'http://www.w3.org/Graphics/SVG/1.1/DTD/svg11.dtd'><svg enable-background="new 0 0 512 512" height="512px" id="Calque_1" version="1.1" viewBox="0 0 512 512" width="512px" xml:space="preserve" xmlns="http://www.w3.org/2000/svg" xmlns:xlink="http://www.w3.org/1999/xlink"><g><path d="M512,256c0,141.386-114.599,255.997-255.991,255.997C114.623,511.997,0,397.386,0,256   S114.623,0.003,256.009,0.003C397.401,0.003,512,114.614,512,256z" fill="#EBEEEF"/><g id="wrench"><path d="M365.302,340.424L237.709,208.063c1.825-5.612,2.8-11.587,2.8-17.812    c0-31.912-25.875-57.774-57.787-57.774c-5.575,0-10.975,0.787-16.075,2.263l30.775,32.699l-8.112,31.938l-29.912,8.112    l-32.337-32.825c-1.375,4.962-2.125,10.187-2.125,15.587c0,31.924,25.875,57.787,57.787,57.787c5.763,0,11.325-0.837,16.575-2.4    l127.304,132.073c5.275,5.463,12.325,8.213,19.351,8.213c6.725,0,13.425-2.488,18.649-7.525    C375.276,368.111,375.602,351.099,365.302,340.424z M355.127,368.799l-13.325,3.487l-11.675-11.688l3.5-13.313l13.425-3.612    l11.7,11.688L355.127,368.799z" fill="#A7A9AC"/><polygon fill="#BCBEC0" opacity="0.27" points="215.672,172.001 197.422,167.438 189.31,199.376 159.398,207.488 217.185,226.75       "/><path d="M364.701,378.299c10.575-10.301,10.851-27.237,0.601-37.875L237.709,208.063    c1.825-5.612,2.8-11.587,2.8-17.812c0-31.912-25.875-57.774-57.787-57.774c-5.188,0-10.925,0.987-15.712,2.263l41.562,44.999    l8.612,47.012l117.143,120.349l12.725-3.425l11.7,11.688l-3.551,13.175L364.701,378.299z" fill="#939598"/><polygon fill="#D1D3D4" points="183.272,345.773 172.36,335.174 243.672,261.838 254.572,272.438   "/><polygon fill="#E6E7E8" points="251.322,265.95 172.585,345.374 172.36,335.174 243.672,261.838   "/><polygon fill="#BCBEC0" points="170.223,332.199 156.023,343.012 134.061,380.174 139.461,385.924 175.285,362.611     185.76,348.411   "/><polygon fill="#6D6E71" opacity="0.27" points="243.672,261.838 235.459,270.287 245.072,272.537 251.259,275.85 254.572,272.438       "/><path d="M271.928,212.9c0,0-4.381,18.575-27.706,18.25l-15.537,16.55l39.199,40.225l16.569-15.888    c0,0-2.726-19.262,15.874-29.399L271.928,212.9z" fill="#414042"/><path d="M244.222,231.15l-15.537,16.55l20.225,20.763l0.05,0.024l37.168-39.712l-11.624-13.188    l-2.575-2.688C271.928,212.9,267.547,231.476,244.222,231.15z" fill="#6D6E71" opacity="0.27"/><polygon fill="#EE3533" points="269.603,202.913 310.228,243.525 387.051,166.701 346.452,126.077   "/><polygon fill="#93251E" points="269.603,202.913 310.228,243.525 318.377,235.388 277.753,194.763   "/><polygon fill="#F15E4A" points="261.996,205.451 308.202,251.638 316.327,243.5 270.152,197.301   "/><path d="M177.647,340.624c0.025-0.2,0.038-0.425,0.038-0.638l-7.462-7.787l-14.2,10.813    l-21.962,37.162l2.55,2.712l0.488-0.35l22.3-31.763L177.647,340.624z" fill="#E6E7E8" opacity="0.33"/><polygon fill="#FFFFFF" opacity="0.17" points="367.776,147.376 285.777,229.2 261.996,205.451 270.152,197.301 272.703,199.838     346.452,126.077   "/></g></g><g/><g/><g/><g/><g/><g/></svg>