<?xml version="1.0" ?><!DOCTYPE svg  PUBLIC '-//W3C//DTD SVG 1.1//EN'  'http://www.w3.org/Graphics/SVG/1.1/DTD/svg11.dtd'><svg enable-background="new 0 0 512 512" height="512px" id="Calque_1" version="1.1" viewBox="0 0 512 512" width="512px" xml:space="preserve" xmlns="http://www.w3.org/2000/svg" xmlns:xlink="http://www.w3.org/1999/xlink"><g><path d="M512,256c0,141.388-114.612,256-256,256S0,397.388,0,256S114.612,0,256,0S512,114.612,512,256z" fill="#EBEEEF"/><g id="arrow_9_"><path clip-rule="evenodd" d="M256.1,210.769c0-13.837,0.025-26.962,0-40.1    c-0.025-7.25,3.175-12.588,9.725-15.538c6.774-3.087,13.075-1.663,18.3,3.475c33.85,33.313,67.625,66.712,101.425,100.063    c0.351,0.337,0.625,0.75,1.325,1.612c-1.9,1.775-3.8,3.45-5.575,5.225c-32.1,31.645-64.149,63.319-96.25,94.969    c-10,9.875-24.975,6.375-28.45-6.574c-0.425-1.551-0.475-3.25-0.475-4.9c-0.05-12.15-0.025-24.25-0.025-36.4    c0-1.399,0-2.774,0-4.3c-45-6.175-80.625-27.425-106.075-64.856c-19.85-29.138-26.65-61.825-24.525-97.6    c1.175,1.688,1.95,2.737,2.675,3.837c20.375,29.325,47.55,48.638,82.725,56.087c7.35,1.563,14.775,2.7,22.25,3.525    C240.6,210.119,248.125,210.294,256.1,210.769z" fill="#44B39D" fill-rule="evenodd"/><path d="M256.1,308.3v-45.019c0,0-11.875,23.244-30.95,37.894    C234.925,304.45,245.225,306.825,256.1,308.3z" fill="#2C846D" opacity="0.65"/></g></g><g/><g/><g/><g/><g/><g/></svg>