<?xml version="1.0" ?><!DOCTYPE svg  PUBLIC '-//W3C//DTD SVG 1.1//EN'  'http://www.w3.org/Graphics/SVG/1.1/DTD/svg11.dtd'><svg enable-background="new 0 0 512 512" height="512px" id="Calque_1" version="1.1" viewBox="0 0 512 512" width="512px" xml:space="preserve" xmlns="http://www.w3.org/2000/svg" xmlns:xlink="http://www.w3.org/1999/xlink"><g><path d="M512,256c0,141.388-114.612,256-256,256S0,397.388,0,256S114.612,0,256,0S512,114.612,512,256z" fill="#D6D9B8"/><g id="volume"><path d="M298.138,257.656c0,18.619-15.088,33.719-33.706,33.719c-18.613,0-33.7-15.1-33.7-33.719    c0-18.612,15.087-33.712,33.7-33.712C283.05,223.944,298.138,239.044,298.138,257.656z" fill="#18262D"/><path d="M308.75,206.319c0,0,1.9,0.475,4.975,1.938c3.051,1.462,7.325,3.862,11.851,7.7    c4.537,3.8,9.3,9.113,12.975,15.988c1.8,3.45,3.325,7.262,4.3,11.337c0.926,4.075,1.5,8.375,1.275,12.663    c0.025,2.15-0.425,4.25-0.625,6.363c-0.425,2.074-0.875,4.137-1.5,6.112c-1.225,3.956-2.875,7.631-4.8,10.931    c-1.875,3.351-4.101,6.25-6.25,8.9c-2.288,2.525-4.45,4.875-6.726,6.75c-2.125,2-4.3,3.55-6.25,4.875    c-1.875,1.425-3.649,2.45-5.137,3.25c-2.95,1.65-4.713,2.45-4.713,2.45s0.925-1.775,2.675-4.55    c0.925-1.375,1.925-3.101,3.088-5.025c1.188-1.9,2.487-4.05,3.787-6.425c1.425-2.275,2.675-4.875,4.088-7.5    c1.263-2.7,2.612-5.476,3.7-8.4c1.162-2.899,2.012-5.943,2.787-8.981c0.375-1.524,0.525-3.1,0.85-4.625    c0.075-1.563,0.4-3.1,0.351-4.649c0.263-3.113-0.163-6.2-0.525-9.25c-0.537-3.05-1.3-6.05-2.25-8.963    c-2.013-5.787-4.763-11.162-7.513-15.712c-2.688-4.587-5.387-8.325-7.287-10.987C309.888,207.844,308.75,206.319,308.75,206.319z" fill="#4596D1"/><path d="M327.475,177.294c0,0,2.9,1.063,7.65,3.662c4.7,2.6,11.325,6.7,18.412,12.838    c3.525,3.087,7.263,6.587,10.838,10.712c3.5,4.163,7.1,8.75,10.075,14.05c3.05,5.238,5.774,11.038,7.524,17.337    c1.025,3.088,1.588,6.375,2.2,9.625c0.288,3.325,0.851,6.65,0.688,10.013c0.138,6.737-1.162,13.369-2.837,19.693    c-1.976,6.2-4.525,12.075-7.625,17.275c-1.676,2.525-3.051,5.175-4.875,7.425c-1.775,2.275-3.438,4.55-5.2,6.625    c-3.688,3.976-7.188,7.7-10.8,10.675c-1.788,1.5-3.4,3.051-5.088,4.351c-1.713,1.25-3.338,2.399-4.862,3.524    c-1.538,1.075-2.925,2.15-4.288,3.051c-1.412,0.824-2.688,1.6-3.837,2.274c-4.625,2.75-7.351,4.15-7.351,4.15    s1.95-2.425,5.476-6.375c0.875-0.976,1.85-2.075,2.912-3.275c0.976-1.25,2.101-2.55,3.263-3.975c2.35-2.775,4.95-5.925,7.588-9.5    c2.813-3.425,5.3-7.476,8.137-11.55c1.25-2.125,2.538-4.301,3.851-6.525c1.325-2.2,2.325-4.6,3.524-6.95    c1.226-2.325,1.988-4.875,3.051-7.325c0.925-2.5,1.524-5.1,2.375-7.649c1.024-5.231,2.1-10.544,1.899-15.919    c0.2-2.688-0.274-5.35-0.425-8.025c-0.525-2.638-0.725-5.313-1.5-7.888c-0.575-2.625-1.475-5.15-2.275-7.688    c-1-2.475-1.862-4.987-3.024-7.337c-2.138-4.8-4.788-9.25-7.4-13.462c-2.662-4.163-5.412-8.025-8.1-11.525    c-2.75-3.425-5.3-6.625-7.726-9.338c-2.425-2.712-4.563-5.087-6.387-7.012C329.688,179.444,327.475,177.294,327.475,177.294z" fill="#4596D1"/><path d="M264.432,223.944c-4.669,0-9.113,0.962-13.157,2.675    c-10.931,13.163-15.1,27.962,0.781,23.05c28.556-8.825,40.994,2.225,45.981,10.05c0.038-0.688,0.101-1.362,0.101-2.063    C298.138,239.044,283.05,223.944,264.432,223.944z" fill="#2D4453" opacity="0.65"/><polygon fill="#80929B" points="187.038,317.75 276.3,386.45 276.3,125.556 187.038,194.256   "/><rect fill="#2D4453" height="123.819" width="41.087" x="127.119" y="194.256"/><rect fill="#A8BEC6" height="123.819" width="19.344" x="167.694" y="194.256"/><polygon fill="#FFFFFF" opacity="0.3" points="276.4,177.006 187.288,220.881 127.119,220.981 127.119,193.919 187.038,193.919     276.3,125.556   "/></g></g><g/><g/><g/><g/><g/><g/></svg>