<?xml version="1.0" ?><!DOCTYPE svg  PUBLIC '-//W3C//DTD SVG 1.1//EN'  'http://www.w3.org/Graphics/SVG/1.1/DTD/svg11.dtd'><svg enable-background="new 0 0 512 512" height="512px" id="Calque_1" version="1.1" viewBox="0 0 512 512" width="512px" xml:space="preserve" xmlns="http://www.w3.org/2000/svg" xmlns:xlink="http://www.w3.org/1999/xlink"><g><path d="M512,256c0,141.386-114.599,255.997-256.003,255.997C114.623,511.997,0,397.386,0,256   S114.623,0.003,255.997,0.003C397.401,0.003,512,114.614,512,256z" fill="#78B0D2"/><g id="user_4_"><path d="M313.978,216.663c0,0-11.25,50.212,12.975,68.387c0,0-4.726,18.087-26.6,13.813    c-21.875-4.3-26.2-20.75-26.2-20.75l11.25-42.399L313.978,216.663z" fill="#533A2D"/><path d="M200.098,202.813c0,0,11.6,58.611-13.425,79.823c0,0,4.899,21.113,27.475,16.101    c22.574-4.987,27.074-24.188,27.074-24.188l-11.625-49.512L200.098,202.813z" fill="#453129"/><path d="M229.747,257.838c0,0-0.625,29.437-14.4,40.699c0,0,43.825,33.199,85.78,0.625    c0,0-16.274-8.75-19.399-37.563C278.603,232.8,229.747,257.838,229.747,257.838z" fill="#E6B984"/><path d="M282.027,264.1l-12.774-15.987c-13.256-2.237-32.881,6.55-38.156,9.075c-0.475,0.35-0.925,0.725-1.375,1.1    c-0.05,1.551-0.325,6.95-1.575,13.525c7.925,4.475,27,13.274,32.025,11.699c5.074-1.574,16.855-8.487,23.381-11.699    C282.953,269.438,282.428,266.862,282.027,264.1z" fill="#D8A97C"/><path d="M384.852,386.611c-3.025-16.476-17.25-60.649-84.499-87.749c0,0-15.024,11.787-45.406,9.699    c-11.7-0.8-21.125-3.575-39.6-10.024c0,0-79.624,32.649-88.199,88.074H384.852z" fill="#009444"/><path d="M203.947,303.924c8.175,9.888,37.75,44.263,52.674,45.388c14.781,1.125,44.581-36.013,52.731-46.562    c-2.9-1.325-5.875-2.625-9-3.888c0,0-15.024,11.787-45.406,9.699c-11.7-0.8-21.125-3.575-39.6-10.024    C215.347,298.537,210.872,300.412,203.947,303.924z" fill="#8DC63F"/><path d="M237.897,131.376c0,0-68.899,8.137-29.425,91.412c0,0,13.775,44.449,45.7,56.349    c0,0,4.375,2.513,10.649-0.625c6.257-3.125,36.881-27.974,39.406-51.124c0,0,27.574-26.524,17.575-65.324    C311.777,123.239,245.396,119.477,237.897,131.376z" fill="#F0D2B1"/><path d="M206.472,213.4c0.625,1.438,1.275,2.888,2,4.375c0,0,0.025,0.112,0.075,0.275    c5.25-11.538,21.025-43.938,36.375-51.612c0,0,19.425,16.275,33.206,21.287c13.774,5,25.899,17.525,25.274,41.012    c0.375-17.075,0.4-62.924,0.4-62.924S203.947,73.79,206.472,213.4z" fill="#E5B680" opacity="0.72"/><path d="M248.072,162.863c0,0,87.206-38.224,1.1-36.699c-5.6,0.975-9.725,2.8-11.275,5.325    c0,0-68.899,8.325-29.425,93.474C206.422,185.264,248.072,162.863,248.072,162.863z" fill="#453129"/><path d="M321.803,162.063c-10.025-38.824-76.406-42.587-83.906-30.687c0,0,1.4,41.325,37.106,50.087    c35.675,8.775,27.374,54.462,27.374,54.462S331.802,200.863,321.803,162.063z" fill="#533A2D"/><path d="M221.147,150.164c0,0-1.2,1.412-3,3.55c-0.875,1.063-1.9,2.275-2.95,3.6    c-0.55,0.663-1.05,1.375-1.575,2.088c-0.55,0.7-1.05,1.438-1.575,2.175c-0.5,0.737-0.975,1.487-1.45,2.225    c-0.4,0.763-0.925,1.488-1.275,2.213c-0.35,0.775-0.8,1.462-1.075,2.175c-0.275,0.7-0.625,1.362-0.85,2    c-0.175,0.638-0.4,1.225-0.575,1.737c-0.2,0.538-0.25,1.013-0.375,1.413c-0.2,0.774-0.325,1.237-0.325,1.237    s-0.075-0.463-0.175-1.288c-0.025-0.4-0.125-0.925-0.075-1.5c0.025-0.575,0.05-1.225,0.15-1.95    c0.075-0.726,0.275-1.476,0.45-2.288c0.2-0.813,0.525-1.612,0.85-2.462c0.325-0.838,0.75-1.675,1.175-2.5    c0.45-0.825,0.975-1.65,1.5-2.425c0.575-0.762,1.075-1.563,1.7-2.275c0.6-0.7,1.225-1.388,1.85-2.025    c0.601-0.65,1.25-1.2,1.851-1.75c0.6-0.55,1.2-1.012,1.774-1.45C219.422,150.964,221.147,150.164,221.147,150.164z" fill="#FBF7C1" opacity="0.65"/><path d="M300.353,298.862c0,0-33.131,40.724-41.356,45.474c-8.225,4.775-44.574-45.324-44.574-45.324l9.3-4.125" fill="#E6B984"/></g></g><g/><g/><g/><g/><g/><g/></svg>