<?xml version="1.0" ?><!DOCTYPE svg  PUBLIC '-//W3C//DTD SVG 1.1//EN'  'http://www.w3.org/Graphics/SVG/1.1/DTD/svg11.dtd'><svg enable-background="new 0 0 512 512" height="512px" id="Calque_1" version="1.1" viewBox="0 0 512 512" width="512px" xml:space="preserve" xmlns="http://www.w3.org/2000/svg" xmlns:xlink="http://www.w3.org/1999/xlink"><g><path d="M512,256c0,141.386-114.599,255.997-255.991,255.997C114.623,511.997,0,397.386,0,256   S114.623,0.003,256.009,0.003C397.401,0.003,512,114.614,512,256z" fill="#EFC84A"/><g id="design"><polygon fill="#F16668" points="315.952,136.357 141.498,310.824 134.523,382.099 202.31,370.623 376.276,196.169     369.802,168.757 343.377,141.833   "/><polygon fill="#E9484B" points="141.498,310.824 141.061,315.199 168.41,312.324 343.302,141.82 315.952,136.357   "/><polygon fill="#E9484B" points="195.622,371.773 202.31,370.623 376.276,196.169 369.802,168.757 198.81,336.574   "/><polygon fill="#E1C682" points="169.91,310.949 141.498,310.824 134.523,382.099 202.31,370.623 199.197,336.124   "/><polygon fill="#EDD6A2" points="169.91,310.949 147.485,363.648 152.96,368.148 199.197,336.124   "/><path d="M137.461,352.148l-2.938,29.95l28.487-4.825C159.186,361.599,142.886,354.199,137.461,352.148z" fill="#636565"/><polygon fill="#BE1E2D" opacity="0.55" points="190.822,261.369 204.085,277.5 222.41,313.524 223.16,349.749 257.072,315.824     200.51,252.006   "/><g><polygon fill="#E6E7E8" points="323.702,385.674 385.326,324.35 188.285,126.32 126.661,187.645    "/><path d="M188.235,141.833l181.591,182.491l-46.074,45.85L142.161,187.682L188.235,141.833 M188.285,126.32     l-61.625,61.324l197.042,198.029l61.624-61.324L188.285,126.32L188.285,126.32z" fill="#BCBEC0"/></g><g><rect fill="#BCBEC0" height="10.96" transform="matrix(0.7071 -0.7071 0.7071 0.7071 -150.3667 319.1809)" width="25.739" x="297.233" y="335.619"/><polygon fill="#BCBEC0" points="297.127,309.924 278.928,328.124 283.178,332.35 301.353,314.174    "/><rect fill="#BCBEC0" height="10.96" transform="matrix(0.707 -0.7072 0.7072 0.707 -133.842 279.3488)" width="25.733" x="257.339" y="295.719"/><polygon fill="#BCBEC0" points="257.234,270.025 239.034,288.225 243.259,292.449 261.459,274.274    "/><polygon fill="#BCBEC0" points="235.51,248.331 217.322,266.519 225.084,274.274 243.271,256.069    "/><polygon fill="#BCBEC0" points="217.335,230.132 199.135,248.331 203.36,252.557 221.56,234.369    "/><polygon fill="#BCBEC0" points="195.61,208.419 177.423,226.619 185.173,234.369 203.36,216.182    "/><polygon fill="#BCBEC0" points="177.435,190.232 159.235,208.432 163.46,212.657 181.66,194.47    "/></g><polygon fill="#FFFFFF" opacity="0.4" points="169.311,145.22 366.852,342.749 385.326,324.35 188.285,126.32   "/></g></g><g/><g/><g/><g/><g/><g/></svg>