<?xml version="1.0" ?><!DOCTYPE svg  PUBLIC '-//W3C//DTD SVG 1.1//EN'  'http://www.w3.org/Graphics/SVG/1.1/DTD/svg11.dtd'><svg enable-background="new 0 0 512 512" height="512px" id="Calque_1" version="1.1" viewBox="0 0 512 512" width="512px" xml:space="preserve" xmlns="http://www.w3.org/2000/svg" xmlns:xlink="http://www.w3.org/1999/xlink"><g><path d="M511.979,256.016C511.979,397.385,397.388,512,256,512C114.625,512,0.022,397.385,0.022,256.016   C0.022,114.641,114.625,0,256,0C397.388,0,511.979,114.641,511.979,256.016z" fill="#43B39C"/><g id="vcard"><path d="M361.028,173.473H150.984c-13.824,0-25.023,11.199-25.023,25.011v115.034    c0,13.799,11.199,24.998,25.023,24.998h14.199v-12.774h69.632v12.774h42.983v-12.774h69.606v12.774h13.624    c13.824,0,25.022-11.199,25.022-24.998V198.483C386.051,184.672,374.853,173.473,361.028,173.473z" fill="#E6E7E8"/><g><rect clip-rule="evenodd" fill="#E64E3C" fill-rule="evenodd" height="72.925" width="99.204" x="151.984" y="213.27"/><path d="M251.188,213.27v72.925h-99.204V213.27H251.188 M257.45,207.02h-6.262h-99.204h-6.237v6.25v72.925v6.249     h6.237h99.204h6.262v-6.249V213.27V207.02L257.45,207.02z" fill="#FFFFFF"/></g><path clip-rule="evenodd" d="M170.407,286.194c0.175-2.175,0.213-4.324,0.525-6.399    c0.112-0.775,0.7-1.649,1.35-2.1c1.563-1.15,3.188-2.275,4.962-3.025c4.05-1.699,8.225-3.174,12.336-4.749    c0.837-0.3,1.663-0.6,2.475-0.95c0.962-0.406,1.462-1.181,1.487-2.219c0.025-1.587,0.075-3.174-0.025-4.762    c-0.037-0.662-0.274-1.425-0.7-1.925c-1.7-2.063-2.35-4.5-2.875-7.024c-0.225-1.075-0.65-2.137-1.1-3.162    c-0.775-1.787-1.725-3.712-1.325-5.575c0.5-2.412,0.225-4.712-0.013-7.049c-0.313-3.125,0.737-5.787,2.6-8.174    c2.513-3.212,6-4.637,9.987-4.937c3.35-0.25,6.625,0.162,9.574,1.938c3.512,2.112,5.649,5.225,6.099,9.312    c0.175,1.587-0.149,3.225-0.3,4.825c-0.1,1.087-0.2,2.125,0.175,3.187c0.2,0.588,0.2,1.3,0.101,1.912    c-0.3,1.862-0.875,3.625-1.75,5.337c-0.6,1.187-0.725,2.625-1.025,3.95c-0.45,1.912-1.175,3.662-2.375,5.262    c-0.5,0.638-0.788,1.55-0.875,2.362c-0.138,1.351-0.013,2.737-0.05,4.112c-0.025,1.525,0.775,2.425,2.112,2.906    c1.937,0.675,3.887,1.3,5.799,2c3.962,1.399,7.899,2.85,11.524,5.024c0.537,0.3,1.037,0.675,1.524,1.05    c1.038,0.8,1.775,1.775,1.838,3.175c0.075,1.875,0.2,3.774,0.3,5.699C211.991,286.194,191.306,286.194,170.407,286.194z" fill="#BE4230" fill-rule="evenodd"/><rect clip-rule="evenodd" fill="#27AAE1" fill-rule="evenodd" height="11.674" width="88.779" x="271.249" y="222.006"/><rect clip-rule="evenodd" fill="#BCBEC0" fill-rule="evenodd" height="5.412" width="72.506" x="271.249" y="247.029"/><rect clip-rule="evenodd" fill="#BCBEC0" fill-rule="evenodd" height="5.412" width="72.506" x="271.249" y="259.541"/><rect clip-rule="evenodd" fill="#BCBEC0" fill-rule="evenodd" height="5.425" width="72.506" x="271.249" y="272.046"/></g></g><g/><g/><g/><g/><g/><g/></svg>