<?xml version="1.0" ?><!DOCTYPE svg  PUBLIC '-//W3C//DTD SVG 1.1//EN'  'http://www.w3.org/Graphics/SVG/1.1/DTD/svg11.dtd'><svg enable-background="new 0 0 512 512" height="512px" id="Calque_1" version="1.1" viewBox="0 0 512 512" width="512px" xml:space="preserve" xmlns="http://www.w3.org/2000/svg" xmlns:xlink="http://www.w3.org/1999/xlink"><g><path d="M511.979,256.025C511.979,397.387,397.389,512,256.009,512C114.636,512,0.021,397.387,0.021,256.025   C0.021,114.639,114.636,0,256.009,0C397.389,0,511.979,114.639,511.979,256.025z" fill="#EFC84A"/><g id="cup"><path d="M352.993,198.093c6.399,0,11.574,5.2,11.574,11.586v75.28c0,6.374-5.175,11.573-11.574,11.573H295.1    c-6.4,0-11.6-5.199-11.6-11.573v-75.28c0-6.387,5.199-11.586,11.6-11.586H352.993 M352.993,174.945H295.1    c-19.199,0-34.754,15.549-34.754,34.734v75.28c0,19.173,15.555,34.733,34.754,34.733h57.894c19.198,0,34.747-15.561,34.747-34.733    v-75.28C387.74,190.494,372.191,174.945,352.993,174.945L352.993,174.945z" fill="#E9484B"/><rect fill="#BE1E2D" height="22.973" opacity="0.72" width="25.697" x="317.872" y="174.945"/><rect fill="#BE1E2D" height="22.798" opacity="0.72" width="25.697" x="317.872" y="296.608"/><path clip-rule="evenodd" d="M124.26,140.199v196.856c0,19.198,15.548,34.746,34.746,34.746    h136.068c19.198,0,34.746-15.548,34.746-34.746V140.199H124.26z" fill="#E9484B" fill-rule="evenodd"/><rect clip-rule="evenodd" fill="#FFFFFF" fill-rule="evenodd" height="173.708" opacity="0.4" width="43.42" x="147.433" y="161.909"/><path clip-rule="evenodd" d="M302.323,338.479c0,0-0.725,22.498-21.548,33.321    h14.299c19.198,0,34.746-15.548,34.746-34.746V140.199h-27.497V338.479z" fill="#BE1E2D" fill-rule="evenodd" opacity="0.38"/></g></g><g/><g/><g/><g/><g/><g/></svg>