<?xml version="1.0" ?><!DOCTYPE svg  PUBLIC '-//W3C//DTD SVG 1.1//EN'  'http://www.w3.org/Graphics/SVG/1.1/DTD/svg11.dtd'><svg enable-background="new 0 0 512 512" height="512px" id="Calque_1" version="1.1" viewBox="0 0 512 512" width="512px" xml:space="preserve" xmlns="http://www.w3.org/2000/svg" xmlns:xlink="http://www.w3.org/1999/xlink"><g><path d="M512,256c0,141.388-114.612,256-256,256S0,397.388,0,256S114.612,0,256,0S512,114.612,512,256z" fill="#EFC84A"/><g id="user_2_"><path d="M313.95,216.663c0,0-11.25,50.212,12.975,68.387c0,0-4.75,18.088-26.6,13.813    c-21.875-4.3-26.2-20.75-26.2-20.75l11.25-42.4L313.95,216.663z" fill="#533A2D"/><path d="M200.075,202.813c0,0,11.6,58.612-13.425,79.825c0,0,4.9,21.112,27.5,16.1    c22.575-4.987,27.05-24.188,27.05-24.188l-11.625-49.512L200.075,202.813z" fill="#453129"/><path d="M229.725,257.838c0,0-0.625,29.438-14.4,40.699c0,0,43.825,33.2,85.774,0.625    c0,0-16.274-8.75-19.399-37.563C278.575,232.8,229.725,257.838,229.725,257.838z" fill="#E6B984"/><path d="M282,264.1l-12.775-15.987c-13.25-2.237-32.875,6.55-38.149,9.075c-0.45,0.35-0.925,0.725-1.35,1.1    c-0.075,1.551-0.35,6.95-1.6,13.525c7.925,4.475,27.025,13.275,32.025,11.7c5.074-1.575,16.85-8.487,23.375-11.7    C282.9,269.438,282.4,266.862,282,264.1z" fill="#D8A97C"/><path d="M384.825,386.612c-3.025-16.475-17.275-60.649-84.5-87.75c0,0-15.05,11.788-45.375,9.7    c-11.7-0.8-21.15-3.575-39.625-10.025c0,0-79.6,32.65-88.15,88.075H384.825z" fill="#E9484B"/><path d="M203.925,303.925c8.2,9.888,37.75,44.263,52.675,45.388c14.775,1.125,44.575-36.013,52.725-46.563    c-2.9-1.325-5.875-2.625-9-3.888c0,0-15.05,11.788-45.375,9.7c-11.7-0.8-21.15-3.575-39.625-10.025    C215.325,298.537,210.825,300.412,203.925,303.925z" fill="#F5959B"/><path d="M237.875,131.375c0,0-68.875,8.138-29.425,91.413c0,0,13.775,44.45,45.725,56.35    c0,0,4.351,2.513,10.625-0.625c6.25-3.125,36.875-27.975,39.375-51.125c0,0,27.601-26.525,17.601-65.325    C311.75,123.237,245.4,119.475,237.875,131.375z" fill="#F0D2B1"/><path d="M206.45,213.4c0.625,1.438,1.3,2.888,2,4.375c0,0,0.025,0.113,0.075,0.275    c5.25-11.537,21.025-43.938,36.4-51.612c0,0,19.4,16.275,33.175,21.288c13.775,5,25.9,17.525,25.275,41.012    c0.375-17.075,0.4-62.925,0.4-62.925S203.925,73.788,206.45,213.4z" fill="#E5B680" opacity="0.72"/><path d="M248.075,162.862c0,0,87.175-38.225,1.1-36.7c-5.625,0.975-9.75,2.8-11.3,5.325    c0,0-68.875,8.325-29.425,93.475C206.4,185.263,248.075,162.862,248.075,162.862z" fill="#453129"/><path d="M321.775,162.063c-10.025-38.825-76.375-42.587-83.9-30.688c0,0,1.4,41.325,37.075,50.087    c35.7,8.775,27.399,54.462,27.399,54.462S331.775,200.862,321.775,162.063z" fill="#533A2D"/><path d="M221.125,150.163c0,0-1.2,1.413-3,3.55c-0.875,1.063-1.9,2.275-2.95,3.6    c-0.55,0.663-1.05,1.375-1.575,2.087c-0.575,0.7-1.025,1.438-1.575,2.175c-0.5,0.737-0.95,1.487-1.45,2.225    c-0.4,0.763-0.925,1.488-1.275,2.213c-0.35,0.775-0.8,1.462-1.075,2.175c-0.275,0.7-0.625,1.362-0.85,2    c-0.2,0.638-0.4,1.225-0.575,1.737c-0.2,0.538-0.25,1.013-0.375,1.413c-0.2,0.775-0.325,1.238-0.325,1.238    s-0.075-0.463-0.175-1.288c-0.025-0.4-0.125-0.925-0.075-1.5c0.025-0.575,0.05-1.225,0.15-1.95    c0.075-0.725,0.275-1.475,0.475-2.288c0.175-0.813,0.5-1.612,0.825-2.462c0.325-0.837,0.75-1.675,1.175-2.5    c0.475-0.825,0.975-1.65,1.5-2.425c0.55-0.763,1.1-1.563,1.7-2.275c0.6-0.7,1.225-1.388,1.85-2.025c0.6-0.65,1.25-1.2,1.85-1.75    c0.6-0.55,1.2-1.012,1.75-1.45C219.375,150.962,221.125,150.163,221.125,150.163z" fill="#FBF7C1" opacity="0.65"/><path d="M300.325,298.862c0,0-33.125,40.726-41.351,45.476c-8.2,4.774-44.575-45.325-44.575-45.325l9.3-4.125" fill="#E6B984"/></g></g><g/><g/><g/><g/><g/><g/></svg>