<?xml version="1.0" ?><!DOCTYPE svg  PUBLIC '-//W3C//DTD SVG 1.1//EN'  'http://www.w3.org/Graphics/SVG/1.1/DTD/svg11.dtd'><svg enable-background="new 0 0 512 512" height="512px" id="Calque_1" version="1.1" viewBox="0 0 512 512" width="512px" xml:space="preserve" xmlns="http://www.w3.org/2000/svg" xmlns:xlink="http://www.w3.org/1999/xlink"><g><path d="M512,256.003c0,141.369-114.612,255.994-256,255.994S0,397.372,0,256.003c0-141.388,114.612-256,256-256   S512,114.616,512,256.003z" fill="#EFC84A"/><g id="eraser"><path d="M310.938,128.503h-109.9c-8.475,0-15.325,6.875-15.325,15.35v91.05h140.575v-91.05    C326.287,135.378,319.412,128.503,310.938,128.503z" fill="#458691"/><path d="M185.712,234.903v133.243c0,8.476,6.85,15.351,15.325,15.351h109.9c8.475,0,15.325-6.875,15.325-15.351    V234.903H185.712z" fill="#D68928"/><path d="M310.938,352.797h-109.9c-8.475,0-15.325-6.875-15.325-15.35v15.35c0,8.475,6.85,15.325,15.325,15.325    h109.9c8.475,0,15.35-6.851,15.35-15.325v-15.35C326.287,345.922,319.412,352.797,310.938,352.797z" fill="#FAF39D"/><path d="M185.712,322.122c0,8.45,6.85,15.325,15.325,15.325h109.9c8.475,0,15.35-6.875,15.35-15.325v-87.219    H185.712V322.122z" fill="#E9A02D"/></g></g><g/><g/><g/><g/><g/><g/></svg>