<?xml version="1.0" ?><!DOCTYPE svg  PUBLIC '-//W3C//DTD SVG 1.1//EN'  'http://www.w3.org/Graphics/SVG/1.1/DTD/svg11.dtd'><svg enable-background="new 0 0 512 512" height="512px" id="Calque_1" version="1.1" viewBox="0 0 512 512" width="512px" xml:space="preserve" xmlns="http://www.w3.org/2000/svg" xmlns:xlink="http://www.w3.org/1999/xlink"><g><path d="M511.979,256.016C511.979,397.385,397.363,512,256,512C114.612,512,0.022,397.385,0.022,256.016   C0.022,114.641,114.612,0,256,0C397.363,0,511.979,114.641,511.979,256.016z" fill="#EFC84A"/><g id="medal"><polygon fill="#9B8579" points="303.221,262.54 256,289.194 208.779,262.54 154.809,358.213 188.681,354.289 202.854,385.336     256,291.119 309.146,385.336 323.294,354.289 357.191,358.213   "/><g opacity="0.65"><polygon fill="#594A42" opacity="0.65" points="241.926,309.268 236.477,309.867 229.728,310.617 224.703,306.043      220.628,302.343 215.229,301.219 208.579,299.844 205.229,293.943 202.505,289.169 197.73,286.444 195.88,285.395      186.031,302.868 187.806,303.868 195.655,317.667 211.179,320.866 222.903,331.565 233.877,330.341 244.976,310.643    "/><polygon fill="#594A42" opacity="0.65" points="314.545,282.62 314.47,283.095 308.545,286.444 303.771,289.169 301.046,293.943      297.696,299.844 291.047,301.219 285.647,302.343 281.572,306.043 276.573,310.617 269.799,309.867 266.374,309.492      278.523,331.016 283.373,331.565 295.097,320.866 310.62,317.667 318.494,303.868 324.594,300.394    "/></g><g><polygon clip-rule="evenodd" fill="#E27D3C" fill-rule="evenodd" points="242.601,144.726 254.625,150.162 267.724,148.7      277.473,157.574 290.372,160.236 296.896,171.698 308.346,178.223 311.021,191.121 319.895,200.871 318.444,213.97      323.869,225.981 318.444,237.992 319.895,251.091 311.021,260.84 308.346,273.746 296.896,280.27 290.372,291.719      277.473,294.394 267.724,303.268 254.625,301.818 242.601,307.242 230.602,301.818 217.503,303.268 207.754,294.394      194.83,291.719 188.331,280.27 176.856,273.746 174.207,260.84 165.333,251.091 166.783,237.992 161.333,225.981 166.783,213.97      165.333,200.871 174.207,191.121 176.856,178.223 188.331,171.698 194.83,160.236 207.754,157.574 217.503,148.7      230.602,150.162    "/></g><g><polygon clip-rule="evenodd" fill="#F7941E" fill-rule="evenodd" points="262.674,144.726 274.698,150.162 287.797,148.7      297.547,157.574 310.445,160.236 316.97,171.698 328.419,178.223 331.094,191.121 339.968,200.871 338.518,213.97      343.942,225.981 338.518,237.992 339.968,251.091 331.094,260.84 328.419,273.746 316.97,280.27 310.445,291.719      297.547,294.394 287.797,303.268 274.698,301.818 262.674,307.242 250.676,301.818 237.577,303.268 227.827,294.394      214.929,291.719 208.404,280.27 196.93,273.746 194.28,260.84 185.406,251.091 186.856,237.992 181.432,225.981 186.856,213.97      185.406,200.871 194.28,191.121 196.93,178.223 208.404,171.698 214.929,160.236 227.827,157.574 237.577,148.7 250.676,150.162         "/></g><g opacity="0.27"><defs><polygon id="SVGID_1_" opacity="0.27" points="262.674,144.726 274.698,150.162 287.797,148.7 297.547,157.574 310.445,160.236       316.97,171.698 328.419,178.223 331.094,191.121 339.968,200.871 338.518,213.97 343.942,225.981 338.518,237.992       339.968,251.091 331.094,260.84 328.419,273.746 316.97,280.27 310.445,291.719 297.547,294.394 287.797,303.268       274.698,301.818 262.674,307.242 250.676,301.818 237.577,303.268 227.827,294.394 214.929,291.719 208.404,280.27       196.93,273.746 194.28,260.84 185.406,251.091 186.856,237.992 181.432,225.981 186.856,213.97 185.406,200.871 194.28,191.121       196.93,178.223 208.404,171.698 214.929,160.236 227.827,157.574 237.577,148.7 250.676,150.162     "/></defs><clipPath id="SVGID_2_"><use overflow="visible" xlink:href="#SVGID_1_"/></clipPath><g clip-path="url(#SVGID_2_)"><polygon fill="#BE1E2D" points="253.9,252.016 286.572,209.07 270.624,196.934 249.926,224.131 231.927,210.295       219.703,226.193 231.252,235.08     "/><polygon fill="#BE1E2D" points="254.703,252.619 287.376,209.673 271.427,197.536 250.729,224.733 232.73,210.897       220.506,226.796 232.055,235.683     "/><polygon fill="#BE1E2D" points="255.506,253.221 288.179,210.274 272.229,198.138 251.532,225.335 233.532,211.499       221.309,227.398 232.858,236.285     "/><polygon fill="#BE1E2D" points="256.309,253.823 288.981,210.877 273.033,198.74 252.334,225.938 234.336,212.102 222.112,228       233.661,236.887     "/><polygon fill="#BE1E2D" points="257.112,254.426 289.785,211.48 273.836,199.342 253.138,226.54 235.139,212.704       222.915,228.603 234.463,237.49     "/><polygon fill="#BE1E2D" points="257.915,255.028 290.588,212.083 274.639,199.945 253.94,227.142 235.942,213.307       223.718,229.205 235.267,238.092     "/><polygon fill="#BE1E2D" points="258.718,255.631 291.392,212.685 275.441,200.547 254.743,227.744 236.745,213.909       224.521,229.807 236.07,238.695     "/><polygon fill="#BE1E2D" points="259.521,256.233 292.194,213.288 276.245,201.149 255.546,228.346 237.548,214.511       225.324,230.409 236.873,239.297     "/><polygon fill="#BE1E2D" points="260.324,256.837 292.998,213.89 277.048,201.751 256.35,228.948 238.351,215.113       226.127,231.012 237.676,239.899     "/><polygon fill="#BE1E2D" points="261.127,257.439 293.801,214.493 277.851,202.354 257.152,229.55 239.154,215.716       226.93,231.614 238.479,240.501     "/><polygon fill="#BE1E2D" points="261.93,258.041 294.604,215.095 278.653,202.956 257.955,230.152 239.956,216.317       227.732,232.216 239.281,241.104     "/><polygon fill="#BE1E2D" points="262.732,258.644 295.407,215.697 279.456,203.558 258.758,230.754 240.759,216.92       228.535,232.818 240.084,241.706     "/><polygon fill="#BE1E2D" points="263.535,259.246 296.21,216.3 280.26,204.16 259.562,231.356 241.562,217.522 229.338,233.42       240.887,242.309     "/><polygon fill="#BE1E2D" points="264.338,259.849 297.014,216.902 281.063,204.762 260.363,231.958 242.365,218.125       230.141,234.023 241.69,242.911     "/><polygon fill="#BE1E2D" points="265.142,260.451 297.817,217.505 281.865,205.364 261.167,232.561 243.168,218.727       230.944,234.625 242.493,243.514     "/><polygon fill="#BE1E2D" points="265.944,261.054 298.619,218.107 282.668,205.966 261.97,233.163 243.971,219.329       231.747,235.227 243.296,244.116     "/><polygon fill="#BE1E2D" points="266.747,261.656 299.423,218.71 283.471,206.569 262.772,233.765 244.773,219.931       232.55,235.83 244.099,244.718     "/><polygon fill="#BE1E2D" points="267.55,262.259 300.227,219.313 284.274,207.171 263.576,234.367 245.577,220.533       233.353,236.432 244.901,245.321     "/><polygon fill="#BE1E2D" points="268.354,262.861 301.029,219.915 285.077,207.773 264.379,234.97 246.38,221.136       234.156,237.035 245.705,245.923     "/><polygon fill="#BE1E2D" points="269.156,263.464 301.833,220.518 285.88,208.375 265.182,235.572 247.183,221.738       234.959,237.637 246.508,246.526     "/><polygon fill="#BE1E2D" points="269.959,264.066 302.636,221.12 286.683,208.978 265.984,236.173 247.985,222.34       235.762,238.238 247.311,247.127     "/><polygon fill="#BE1E2D" points="270.762,264.669 303.439,221.723 287.486,209.58 266.787,236.775 248.789,222.942       236.565,238.841 248.114,247.73     "/><polygon fill="#BE1E2D" points="271.565,265.271 304.242,222.325 288.289,210.182 267.59,237.378 249.592,223.545       237.368,239.443 248.917,248.333     "/><polygon fill="#BE1E2D" points="272.367,265.874 305.045,222.927 289.092,210.784 268.393,237.98 250.395,224.146       238.17,240.045 249.719,248.935     "/><polygon fill="#BE1E2D" points="273.171,266.477 305.849,223.53 289.895,211.386 269.196,238.582 251.197,224.749       238.973,240.647 250.522,249.537     "/><polygon fill="#BE1E2D" points="273.974,267.079 306.652,224.133 290.697,211.988 269.999,239.185 252,225.352 239.776,241.25       251.325,250.14     "/><polygon fill="#BE1E2D" points="274.776,267.682 307.455,224.735 291.5,212.591 270.802,239.786 252.803,225.954       240.579,241.853 252.128,250.742     "/><polygon fill="#BE1E2D" points="275.58,268.284 308.259,225.338 292.303,213.193 271.605,240.389 253.606,226.556       241.382,242.455 252.931,251.345     "/><polygon fill="#BE1E2D" points="276.383,268.887 309.062,225.94 293.105,213.795 272.408,240.991 254.409,227.158       242.186,243.057 253.734,251.947     "/><polygon fill="#BE1E2D" points="277.186,269.489 309.864,226.543 293.909,214.397 273.211,241.593 255.212,227.76       242.988,243.659 254.537,252.549     "/><polygon fill="#BE1E2D" points="277.988,270.092 310.668,227.145 294.712,215 274.014,242.195 256.015,228.363 243.791,244.262       255.34,253.152     "/><polygon fill="#BE1E2D" points="278.791,270.694 311.471,227.748 295.515,215.602 274.816,242.797 256.818,228.965       244.594,244.864 256.143,253.754     "/><polygon fill="#BE1E2D" points="279.594,271.297 312.273,228.351 296.317,216.204 275.619,243.399 257.621,229.567       245.397,245.466 256.945,254.356     "/><polygon fill="#BE1E2D" points="280.397,271.898 313.077,228.953 297.121,216.806 276.423,244.001 258.424,230.169       246.2,246.068 257.749,254.958     "/><polygon fill="#BE1E2D" points="281.2,272.502 313.881,229.556 297.924,217.409 277.226,244.604 259.227,230.771       247.003,246.67 258.552,255.561     "/><polygon fill="#BE1E2D" points="282.003,273.104 314.684,230.158 298.727,218.011 278.028,245.206 260.03,231.374       247.806,247.272 259.354,256.163     "/><polygon fill="#BE1E2D" points="282.806,273.707 315.487,230.761 299.529,218.613 278.832,245.808 260.832,231.977       248.608,247.875 260.158,256.766     "/><polygon fill="#BE1E2D" points="283.609,274.31 316.29,231.363 300.332,219.215 279.635,246.41 261.636,232.578       249.412,248.478 260.961,257.368     "/><polygon fill="#BE1E2D" points="284.412,274.912 317.094,231.965 301.135,219.817 280.438,247.012 262.438,233.181       250.215,249.08 261.764,257.971     "/><polygon fill="#BE1E2D" points="285.215,275.515 317.896,232.568 301.938,220.419 281.24,247.614 263.242,233.783       251.018,249.682 262.566,258.573     "/><polygon fill="#BE1E2D" points="286.018,276.117 318.699,233.17 302.741,221.021 282.043,248.216 264.045,234.385       251.82,250.284 263.369,259.176     "/><polygon fill="#BE1E2D" points="286.82,276.719 319.503,233.773 303.544,221.624 282.846,248.819 264.848,234.987       252.623,250.887 264.172,259.777     "/><polygon fill="#BE1E2D" points="287.623,277.322 320.306,234.376 304.347,222.226 283.648,249.421 265.65,235.59       253.426,251.489 264.975,260.381     "/><polygon fill="#BE1E2D" points="288.427,277.924 321.109,234.978 305.15,222.828 284.452,250.023 266.453,236.191       254.229,252.091 265.778,260.982     "/><polygon fill="#BE1E2D" points="289.229,278.527 321.912,235.581 305.953,223.43 285.255,250.625 267.256,236.794       255.032,252.693 266.581,261.585     "/><polygon fill="#BE1E2D" points="290.032,279.129 322.716,236.184 306.756,224.032 286.058,251.227 268.06,237.396       255.835,253.295 267.384,262.188     "/><polygon fill="#BE1E2D" points="290.835,279.731 323.52,236.785 307.559,224.635 286.86,251.829 268.862,237.999       256.638,253.897 268.187,262.789     "/><polygon fill="#BE1E2D" points="291.639,280.334 324.322,237.388 308.361,225.237 287.663,252.432 269.665,238.601       257.441,254.5 268.99,263.393     "/><polygon fill="#BE1E2D" points="292.441,280.937 325.125,237.99 309.165,225.839 288.467,253.034 270.468,239.203       258.244,255.102 269.793,263.994     "/><polygon fill="#BE1E2D" points="293.244,281.539 325.929,238.593 309.968,226.441 289.27,253.636 271.271,239.806       259.047,255.704 270.596,264.597     "/><polygon fill="#BE1E2D" points="294.047,282.142 326.731,239.195 310.771,227.043 290.072,254.238 272.074,240.408       259.85,256.307 271.398,265.199     "/><polygon fill="#BE1E2D" points="294.85,282.744 327.535,239.798 311.574,227.646 290.875,254.84 272.877,241.01       260.652,256.909 272.201,265.802     "/><polygon fill="#BE1E2D" points="295.652,283.347 328.338,240.401 312.377,228.248 291.678,255.442 273.68,241.612       261.455,257.512 273.004,266.404     "/><polygon fill="#BE1E2D" points="296.456,283.949 329.141,241.003 313.18,228.85 292.481,256.044 274.482,242.215       262.259,258.113 273.807,267.006     "/><polygon fill="#BE1E2D" points="297.259,284.553 329.944,241.605 313.982,229.452 293.284,256.646 275.285,242.817       263.062,258.716 274.61,267.608     "/><polygon fill="#BE1E2D" points="298.062,285.154 330.748,242.208 314.785,230.055 294.087,257.248 276.089,243.419       263.864,259.318 275.413,268.211     "/><polygon fill="#BE1E2D" points="298.865,285.757 331.551,242.811 315.588,230.657 294.89,257.851 276.892,244.021       264.667,259.92 276.217,268.813     "/><polygon fill="#BE1E2D" points="299.668,286.359 332.354,243.413 316.391,231.259 295.693,258.453 277.694,244.623       265.471,260.522 277.02,269.416     "/><polygon fill="#BE1E2D" points="300.471,286.962 333.157,244.016 317.193,231.861 296.496,259.055 278.497,245.226       266.273,261.125 277.822,270.019     "/><polygon fill="#BE1E2D" points="301.273,287.564 333.96,244.618 317.997,232.463 297.299,259.657 279.3,245.828       267.076,261.728 278.625,270.621     "/><polygon fill="#BE1E2D" points="302.076,288.167 334.764,245.221 318.8,233.065 298.102,260.259 280.104,246.43       267.879,262.329 279.428,271.223     "/><polygon fill="#BE1E2D" points="302.879,288.77 335.566,245.823 319.604,233.668 298.904,260.861 280.906,247.033       268.682,262.932 280.23,271.825     "/><polygon fill="#BE1E2D" points="303.682,289.372 336.37,246.426 320.405,234.27 299.707,261.463 281.709,247.635       269.484,263.533 281.033,272.428     "/><polygon fill="#BE1E2D" points="304.484,289.975 337.173,247.028 321.209,234.872 300.511,262.065 282.512,248.237       270.287,264.137 281.836,273.03     "/><polygon fill="#BE1E2D" points="305.288,290.577 337.977,247.631 322.012,235.475 301.313,262.668 283.314,248.84       271.091,264.738 282.64,273.633     "/><polygon fill="#BE1E2D" points="306.091,291.18 338.779,248.233 322.814,236.076 302.116,263.27 284.118,249.442       271.894,265.341 283.442,274.234     "/><polygon fill="#BE1E2D" points="306.894,291.782 339.582,248.836 323.617,236.679 302.919,263.872 284.921,250.044       272.696,265.942 284.245,274.837     "/><polygon fill="#BE1E2D" points="307.697,292.385 340.386,249.438 324.42,237.281 303.723,264.474 285.724,250.646       273.5,266.545 285.048,275.439     "/><polygon fill="#BE1E2D" points="308.5,292.987 341.188,250.041 325.224,237.883 304.525,265.076 286.527,251.248       274.303,267.147 285.852,276.042     "/><polygon fill="#BE1E2D" points="309.303,293.59 341.992,250.643 326.026,238.485 305.328,265.678 287.33,251.851       275.105,267.75 286.654,276.645     "/><polygon fill="#BE1E2D" points="310.105,294.192 342.795,251.246 326.829,239.087 306.131,266.28 288.133,252.453       275.908,268.352 287.457,277.247     "/><polygon fill="#BE1E2D" points="310.908,294.795 343.599,251.849 327.632,239.689 306.934,266.883 288.936,253.055       276.711,268.954 288.26,277.85     "/><polygon fill="#BE1E2D" points="311.711,295.396 344.401,252.451 328.435,240.292 307.736,267.484 289.738,253.657       277.514,269.557 289.063,278.452     "/><polygon fill="#BE1E2D" points="312.514,296 345.205,253.054 329.238,240.894 308.539,268.087 290.541,254.26 278.317,270.158       289.866,279.055     "/><polygon fill="#BE1E2D" points="313.317,296.602 346.008,253.656 330.041,241.496 309.343,268.689 291.344,254.862       279.119,270.761 290.669,279.656     "/><polygon fill="#BE1E2D" points="314.12,297.205 346.811,254.259 330.844,242.099 310.146,269.291 292.147,255.464       279.923,271.363 291.472,280.259     "/><polygon fill="#BE1E2D" points="314.923,297.808 347.614,254.861 331.646,242.701 310.949,269.894 292.95,256.066       280.726,271.966 292.274,280.861     "/><polygon fill="#BE1E2D" points="315.727,298.41 348.417,255.463 332.449,243.303 311.751,270.496 293.753,256.668       281.528,272.567 293.077,281.464     "/><polygon fill="#BE1E2D" points="316.529,299.013 349.221,256.066 333.253,243.905 312.555,271.098 294.557,257.271       282.332,273.17 293.881,282.065     "/><polygon fill="#BE1E2D" points="317.332,299.615 350.023,256.668 334.056,244.507 313.357,271.7 295.359,257.873       283.135,273.772 294.684,282.668     "/><polygon fill="#BE1E2D" points="318.135,300.217 350.827,257.271 334.858,245.109 314.16,272.302 296.162,258.476       283.938,274.375 295.486,283.271     "/><polygon fill="#BE1E2D" points="318.938,300.819 351.63,257.874 335.661,245.711 314.963,272.904 296.965,259.078       284.74,274.977 296.289,283.873     "/><polygon fill="#BE1E2D" points="319.74,301.422 352.434,258.477 336.464,246.313 315.767,273.507 297.768,259.68       285.543,275.579 297.093,284.476     "/><polygon fill="#BE1E2D" points="320.543,302.024 353.236,259.078 337.268,246.916 316.568,274.108 298.57,260.282       286.346,276.182 297.896,285.078     "/><polygon fill="#BE1E2D" points="321.347,302.627 354.04,259.682 338.07,247.519 317.372,274.711 299.373,260.885       287.149,276.784 298.698,285.681     "/><polygon fill="#BE1E2D" points="322.149,303.23 354.843,260.283 338.873,248.12 318.175,275.313 300.177,261.487       287.952,277.386 299.501,286.283     "/><polygon fill="#BE1E2D" points="322.952,303.832 355.646,260.886 339.676,248.723 318.978,275.915 300.979,262.089       288.755,277.988 300.304,286.885     "/><polygon fill="#BE1E2D" points="323.755,304.436 356.449,261.488 340.479,249.325 319.78,276.518 301.782,262.691       289.559,278.59 301.106,287.487     "/><polygon fill="#BE1E2D" points="324.559,305.037 357.252,262.091 341.282,249.927 320.584,277.119 302.586,263.293       290.36,279.193 301.91,288.09     "/><polygon fill="#BE1E2D" points="325.361,305.64 358.056,262.693 342.085,250.529 321.387,277.722 303.389,263.896       291.164,279.795 302.713,288.692     "/><polygon fill="#BE1E2D" points="326.164,306.242 358.858,263.296 342.888,251.131 322.189,278.323 304.191,264.498       291.967,280.397 303.516,289.294     "/><polygon fill="#BE1E2D" points="326.967,306.845 359.662,263.898 343.69,251.734 322.992,278.926 304.994,265.101       292.77,280.999 304.318,289.896     "/><polygon fill="#BE1E2D" points="327.771,307.447 360.466,264.501 344.494,252.336 323.795,279.527 305.797,265.702       293.573,281.602 305.121,290.499     "/><polygon fill="#BE1E2D" points="328.573,308.05 361.269,265.104 345.297,252.938 324.598,280.13 306.601,266.305       294.376,282.204 305.924,291.102     "/><polygon fill="#BE1E2D" points="329.376,308.652 362.071,265.706 346.1,253.54 325.401,280.732 307.402,266.907       295.179,282.807 306.728,291.704     "/><polygon fill="#BE1E2D" points="330.179,309.255 362.875,266.309 346.902,254.142 326.204,281.334 308.206,267.51       295.981,283.408 307.53,292.307     "/><polygon fill="#BE1E2D" points="330.981,309.857 363.678,266.911 347.705,254.744 327.007,281.937 309.009,268.111       296.784,284.011 308.333,292.909     "/><polygon fill="#BE1E2D" points="331.784,310.46 364.48,267.514 348.509,255.347 327.81,282.538 309.812,268.714       297.587,284.613 309.137,293.512     "/><polygon fill="#BE1E2D" points="332.588,311.063 365.284,268.116 349.312,255.949 328.613,283.141 310.615,269.315       298.391,285.216 309.939,294.113     "/><polygon fill="#BE1E2D" points="333.391,311.665 366.088,268.719 350.114,256.551 329.416,283.742 311.418,269.918       299.193,285.817 310.742,294.716     "/><polygon fill="#BE1E2D" points="334.193,312.268 366.891,269.321 350.917,257.153 330.219,284.345 312.221,270.521       299.996,286.42 311.545,295.318     "/></g></g><polygon fill="#E6E7E8" points="253.9,252.016 286.572,209.07 270.624,196.934 249.926,224.131 231.927,210.295 219.703,226.193     231.252,235.08   "/><path d="M253.125,148.675l6.199,2.813l5.025,2.262l5.449-0.612l6.774-0.75l4.999,4.575l4.075,3.712l5.399,1.112    l6.649,1.375l3.35,5.899l2.726,4.775l4.773,2.725l5.925,3.362l1.375,6.662l1.101,5.387l3.699,4.062l4.574,5.025l-0.75,6.75    l-0.6,5.462l2.275,5.012l2.799,6.2l-2.799,6.187l-2.275,5.012l0.6,5.462l0.75,6.75l-4.574,5.037l-3.699,4.05l-1.101,5.387    l-1.375,6.656l-5.925,3.374l-4.773,2.725l-2.726,4.774l-3.35,5.9l-6.649,1.375l-5.399,1.124l-4.075,3.7l-4.999,4.574l-6.774-0.75    l-5.449-0.6l-5.025,2.25l-6.199,2.8l-6.174-2.8l-5.024-2.25l-5.45,0.6l-6.749,0.75l-5.025-4.574l-4.075-3.7l-5.399-1.124    l-6.649-1.375l-3.35-5.9l-2.725-4.774l-4.775-2.725l-5.899-3.374l-1.375-6.656l-1.125-5.387l-3.7-4.05l-4.574-5.037l0.75-6.75    l0.6-5.462l-2.25-5.012l-2.824-6.187l2.824-6.2l2.25-5.012l-0.6-5.462l-0.75-6.75l4.574-5.025l3.7-4.062l1.125-5.387l1.375-6.662    l5.899-3.362l4.775-2.725l2.725-4.775l3.35-5.899l6.649-1.375l5.399-1.112l4.075-3.712l5.025-4.575l6.749,0.75l5.45,0.612    l5.024-2.262L253.125,148.675 M253.125,126.664l-14.448,6.537l-15.774-1.75l-11.724,10.687l-15.523,3.213l-7.85,13.786    l-13.799,7.849l-3.199,15.537l-10.699,11.736l1.75,15.761l-6.525,14.461l6.525,14.449l-1.75,15.773l10.699,11.736l3.199,15.53    l13.799,7.85l7.85,13.799l15.523,3.199l11.724,10.675l15.774-1.75l14.448,6.549l14.475-6.549l15.773,1.75l11.724-10.675    l15.523-3.199l7.874-13.799l13.774-7.85l3.225-15.53l10.674-11.736l-1.749-15.773l6.549-14.449l-6.549-14.461l1.749-15.761    l-10.674-11.736l-3.225-15.537l-13.774-7.849l-7.874-13.786l-15.523-3.213l-11.724-10.687l-15.773,1.75L253.125,126.664    L253.125,126.664z" fill="#E6E7E8"/></g></g><g/><g/><g/><g/><g/><g/></svg>