<?xml version="1.0" ?><!DOCTYPE svg  PUBLIC '-//W3C//DTD SVG 1.1//EN'  'http://www.w3.org/Graphics/SVG/1.1/DTD/svg11.dtd'><svg enable-background="new 0 0 512 512" height="512px" id="Calque_1" version="1.1" viewBox="0 0 512 512" width="512px" xml:space="preserve" xmlns="http://www.w3.org/2000/svg" xmlns:xlink="http://www.w3.org/1999/xlink"><g><path d="M512,256.003c0,141.369-114.612,255.994-256,255.994S0,397.372,0,256.003c0-141.388,114.612-256,256-256   S512,114.616,512,256.003z" fill="#78B0D2"/><g id="crop"><path d="M319.287,385.872c-7.375,0-13.324-5.976-13.324-13.325V206.872H139.438    c-7.35,0-13.325-5.975-13.325-13.325c0-7.35,5.975-13.325,13.325-13.325h179.85c7.351,0,13.325,5.975,13.325,13.325v179    C332.612,379.896,326.638,385.872,319.287,385.872z" fill="#FFFFFF"/><path d="M365.938,339.223h-179.85c-7.35,0-13.325-5.976-13.325-13.326v-179c0-7.35,5.975-13.325,13.325-13.325    s13.325,5.975,13.325,13.325v165.675h166.525c7.35,0,13.3,5.975,13.3,13.324C379.237,333.247,373.287,339.223,365.938,339.223z" fill="#FFFFFF"/><path d="M194.388,323.422c-1.7,0-3.4-0.65-4.725-1.949c-2.575-2.625-2.575-6.826,0.025-9.426l184.85-184    c2.601-2.6,6.825-2.575,9.4,0.025c2.6,2.6,2.6,6.825,0,9.4l-184.85,184C197.788,322.771,196.087,323.422,194.388,323.422z" fill="#FFFFFF"/></g></g><g/><g/><g/><g/><g/><g/></svg>