<?xml version="1.0" ?><!DOCTYPE svg  PUBLIC '-//W3C//DTD SVG 1.1//EN'  'http://www.w3.org/Graphics/SVG/1.1/DTD/svg11.dtd'><svg enable-background="new 0 0 512 512" height="512px" id="Calque_1" version="1.1" viewBox="0 0 512 512" width="512px" xml:space="preserve" xmlns="http://www.w3.org/2000/svg" xmlns:xlink="http://www.w3.org/1999/xlink"><g><path d="M512,256c0,141.388-114.612,256-256,256S0,397.388,0,256S114.612,0,256,0S512,114.612,512,256z" fill="#E1695C"/><g id="full"><path d="M362.625,149.35v213.3H149.35v-213.3H362.625 M385.9,126.087H126.1v259.825h259.8V126.087L385.9,126.087z" fill="#FFFFFF"/><polygon fill="#EEB144" points="276.95,248.737 300.725,244.725 285.525,229.925   "/><polygon fill="#EEB144" points="248.75,235.025 244.05,210.05 231,224.188   "/><polyline fill="#EEB144" points="235.025,263.263 218.2,262.313 232.05,275.112   "/><polyline fill="#EEB144" points="263.25,276.975 266.2,294.05 278.725,281.787   "/><g><g><polygon fill="#F9D422" points="276.95,248.737 263.25,235.025 309.85,188.438 323.55,202.138     "/><g><polygon fill="#F9D422" points="297.8,180.85 331.125,214.175 331.125,180.862      "/></g></g><g><polygon fill="#F9D422" points="309.85,323.563 263.25,276.975 276.95,263.263 323.55,309.85     "/><g><polygon fill="#F9D422" points="331.125,297.825 297.8,331.125 331.125,331.125      "/></g></g><g><polygon fill="#F9D422" points="235.025,248.737 188.425,202.138 202.125,188.438 248.75,235.025     "/><g><polygon fill="#F9D422" points="180.85,214.175 214.15,180.85 180.85,180.862      "/></g></g><g><polygon fill="#F9D422" points="202.125,323.563 188.425,309.85 235.025,263.263 248.75,276.975     "/><g><polygon fill="#F9D422" points="214.15,331.125 180.85,297.825 180.85,331.125      "/></g></g></g></g></g><g/><g/><g/><g/><g/><g/></svg>