<?xml version="1.0" ?><!DOCTYPE svg  PUBLIC '-//W3C//DTD SVG 1.1//EN'  'http://www.w3.org/Graphics/SVG/1.1/DTD/svg11.dtd'><svg enable-background="new 0 0 512 512" height="512px" id="Calque_1" version="1.1" viewBox="0 0 512 512" width="512px" xml:space="preserve" xmlns="http://www.w3.org/2000/svg" xmlns:xlink="http://www.w3.org/1999/xlink"><g><path d="M511.975,256.025C511.975,397.387,397.361,512,256,512C114.626,512,0.025,397.387,0.025,256.025   C0.025,114.639,114.626,0,256,0C397.361,0,511.975,114.639,511.975,256.025z" fill="#D6D9B8"/><g id="share"><polygon fill="#BF1E69" points="170.021,266.111 159.547,245.889 342.729,150.96 353.19,171.196   "/><polygon fill="#BF1E69" points="342.729,357.328 159.547,262.412 170.021,242.164 353.19,337.092   "/><path d="M342.729,150.96l-47.82,24.761c-0.05,0.925-0.125,1.824-0.125,2.749    c0,7.35,2.101,14.211,5.65,20.073l52.757-27.347L342.729,150.96z" fill="#802461" opacity="0.65"/><path d="M343.104,357.578l-47.795-24.761c-0.075-0.912-0.15-1.813-0.15-2.737    c0-7.361,2.101-14.211,5.65-20.072l52.757,27.347L343.104,357.578z" fill="#802461" opacity="0.65"/><path d="M200.893,224.453l-41.346,21.436l10.474,20.223l44.845-23.235    C212.167,235.39,207.268,228.99,200.893,224.453z" fill="#802461" opacity="0.65"/><path d="M201.181,284.072l-41.359-21.436l10.487-20.223l44.858,23.235    C212.454,273.136,207.542,279.535,201.181,284.072z" fill="#802461" opacity="0.65"/><path d="M385.938,347.203c0,21.398-17.349,38.746-38.746,38.746c-21.386,0-38.734-17.348-38.734-38.746    c0-21.397,17.349-38.733,38.734-38.733C368.589,308.47,385.938,325.806,385.938,347.203z" fill="#ED1970"/><path d="M385.938,164.796c0,21.385-17.349,38.721-38.746,38.721c-21.386,0-38.734-17.336-38.734-38.721    c0-21.398,17.349-38.746,38.734-38.746C368.589,126.05,385.938,143.398,385.938,164.796z" fill="#ED1970"/><path d="M203.518,256c0,21.386-17.348,38.733-38.746,38.733S126.05,277.386,126.05,256    s17.323-38.733,38.721-38.733S203.518,234.614,203.518,256z" fill="#ED1970"/></g></g><g/><g/><g/><g/><g/><g/></svg>