<?xml version="1.0" ?><!DOCTYPE svg  PUBLIC '-//W3C//DTD SVG 1.1//EN'  'http://www.w3.org/Graphics/SVG/1.1/DTD/svg11.dtd'><svg enable-background="new 0 0 512 512" height="512px" id="Calque_1" version="1.1" viewBox="0 0 512 512" width="512px" xml:space="preserve" xmlns="http://www.w3.org/2000/svg" xmlns:xlink="http://www.w3.org/1999/xlink"><g><path d="M512,256c0,141.388-114.6,256-256.006,256C114.612,512,0,397.388,0,256S114.612,0,255.994,0   C397.4,0,512,114.612,512,256z" fill="#E27C3C"/><g id="user_6_"><path d="M229.719,257.862c0,0-0.625,29.413-14.4,40.7c0,0,43.85,33.175,85.806,0.612c0,0-16.3-8.763-19.425-37.563    S229.719,257.862,229.719,257.862z" fill="#E6B984"/><path d="M282,264.1l-12.775-15.987c-13.256-2.237-32.881,6.55-38.131,9.075c-0.5,0.35-0.95,0.725-1.375,1.112    c-0.075,1.525-0.35,6.95-1.575,13.513c7.9,4.475,26.975,13.275,32,11.7c5.101-1.575,16.856-8.487,23.382-11.7    C282.925,269.425,282.4,266.875,282,264.1z" fill="#D8A97C"/><path d="M384.85,386.612c-3.024-16.462-17.274-60.649-84.524-87.75c0,0-15.025,11.788-45.406,9.7    c-11.7-0.8-21.125-3.575-39.6-10c0,0-79.594,32.625-88.169,88.05H384.85z" fill="#D1D3D4"/><path d="M237.869,131.388c0,0-68.869,8.125-29.425,91.4c0,0,13.775,44.45,45.7,56.35c0,0,4.4,2.5,10.65-0.625    c6.281-3.138,36.881-27.963,39.406-51.138c0,0,27.6-26.487,17.575-65.313C311.75,123.237,245.394,119.487,237.869,131.388z" fill="#F0D2B1"/><path d="M206.444,213.388c0.625,1.45,1.3,2.9,2,4.387c0,0,0.025,0.113,0.1,0.263    c5.225-11.513,21-43.913,36.375-51.6c0,0,19.399,16.275,33.181,21.275c13.775,5.013,25.9,17.55,25.275,41.013    c0.375-17.075,0.4-62.913,0.4-62.913S203.919,73.8,206.444,213.388z" fill="#E5B680" opacity="0.72"/><path d="M248.044,162.063c0,0,87.206-37.388,1.1-35.9c-5.6,0.95-9.725,2.75-11.275,5.225    c0,0-68.869,8.125-29.425,91.4C206.394,183.962,248.044,162.063,248.044,162.063z" fill="#453129"/><path d="M321.775,162.063c-10.025-38.825-76.382-42.575-83.907-30.675c0,0,1.4,41.313,37.106,50.075    c35.676,8.763,27.4,54.475,27.4,54.475S331.8,200.888,321.775,162.063z" fill="#533A2D"/><path d="M221.119,150.163c0,0-1.2,1.425-3,3.538c-0.875,1.075-1.9,2.287-2.95,3.625    c-0.55,0.637-1.05,1.362-1.575,2.075c-0.55,0.688-1.025,1.45-1.575,2.163c-0.5,0.737-0.95,1.513-1.45,2.225    c-0.4,0.775-0.9,1.5-1.275,2.237c-0.35,0.763-0.8,1.438-1.075,2.15c-0.275,0.713-0.6,1.388-0.825,1.988    c-0.2,0.65-0.4,1.25-0.6,1.775c-0.175,0.525-0.25,1-0.375,1.4c-0.175,0.775-0.325,1.25-0.325,1.25s-0.075-0.462-0.175-1.3    c0-0.4-0.125-0.925-0.075-1.5c0.025-0.575,0.075-1.238,0.15-1.95c0.075-0.712,0.275-1.475,0.475-2.275    c0.175-0.813,0.525-1.625,0.825-2.475c0.325-0.837,0.75-1.663,1.175-2.5c0.475-0.825,0.975-1.637,1.5-2.438    c0.575-0.75,1.1-1.563,1.725-2.262c0.575-0.7,1.2-1.375,1.825-2.025c0.6-0.65,1.25-1.2,1.85-1.75c0.6-0.55,1.225-1,1.775-1.45    C219.394,150.938,221.119,150.163,221.119,150.163z" fill="#FBF7C1" opacity="0.65"/><path d="M252.894,308.263c0,0-4.05,2.899-7.6,8c-2.2,3.138-4.025,7.475-5.6,11l-38.125-22.313    c0,0,4.25-4.288,9.125-7.688c3.575-2.5,7.575-4.125,10-5.2L252.894,308.263z" fill="#E6E7E8"/><path d="M263.068,308.875c0,0,11.457,10.338,10.731,17.838c0,0,38.95-15.65,39.675-21.913    c0,0-8.699-12.725-20.149-12.412L263.068,308.875z" fill="#E6E7E8"/></g></g><g/><g/><g/><g/><g/><g/></svg>