<?xml version="1.0" ?><!DOCTYPE svg  PUBLIC '-//W3C//DTD SVG 1.1//EN'  'http://www.w3.org/Graphics/SVG/1.1/DTD/svg11.dtd'><svg enable-background="new 0 0 512 512" height="512px" id="Calque_1" version="1.1" viewBox="0 0 512 512" width="512px" xml:space="preserve" xmlns="http://www.w3.org/2000/svg" xmlns:xlink="http://www.w3.org/1999/xlink"><g><path d="M512,256c0,141.388-114.625,256-255.994,256C114.606,512,0,397.388,0,256S114.606,0,256.006,0   C397.375,0,512,114.612,512,256z" fill="#35707F"/><g id="eye"><path d="M386.175,256.306c0,41.394-57,74.969-127.281,74.969c-70.287,0-127.262-33.575-127.262-74.969    c0-41.4,56.975-74.962,127.262-74.962C329.175,181.344,386.175,214.906,386.175,256.306z" fill="#F1F2F2"/><g><defs><path d="M382.025,256.819c0.5,40.481-56.075,73.981-126.344,74.856c-70.275,0.9-127.675-31.2-128.175-71.669      c-0.513-40.462,56.05-73.987,126.337-74.862C324.125,184.269,381.5,216.356,382.025,256.819z" id="SVGID_1_"/></defs><clipPath id="SVGID_2_"><use overflow="visible" xlink:href="#SVGID_1_"/></clipPath><g clip-path="url(#SVGID_2_)"><path d="M176.006,244.219c0.525,43.381,36.15,78.131,79.55,77.581c43.394-0.55,78.119-36.149,77.594-79.543      c-0.551-43.4-36.176-78.138-79.569-77.6C210.194,165.206,175.456,200.819,176.006,244.219z" fill="#39B54A"/><path d="M210.869,243.781c0.313,24.138,20.113,43.469,44.25,43.169c24.131-0.325,43.457-20.132,43.157-44.269      c-0.301-24.137-20.125-43.45-44.257-43.15C229.881,199.831,210.556,219.631,210.869,243.781z" fill="#006838"/><path d="M239.031,215.856c0.075,6.387-5.025,11.637-11.413,11.712c-6.387,0.087-11.637-5.038-11.712-11.413      c-0.087-6.388,5.025-11.638,11.425-11.725C233.706,204.356,238.956,209.481,239.031,215.856z" fill="#FFFFFF"/></g></g><path d="M256.006,332.175c-71.775,0-130.175-34.175-130.175-76.181c0-41.987,58.4-76.163,130.175-76.163    c71.769,0,130.168,34.175,130.168,76.163C386.175,298,327.775,332.175,256.006,332.175z M256.006,185.619    c-68.587,0-124.375,31.575-124.375,70.375c0,38.806,55.788,70.381,124.375,70.381c68.569,0,124.369-31.575,124.369-70.381    C380.375,217.194,324.575,185.619,256.006,185.619z" fill="#E6E7E8"/></g></g><g/><g/><g/><g/><g/><g/></svg>