<?xml version="1.0" ?><!DOCTYPE svg  PUBLIC '-//W3C//DTD SVG 1.1//EN'  'http://www.w3.org/Graphics/SVG/1.1/DTD/svg11.dtd'><svg enable-background="new 0 0 512 512" height="512px" id="Calque_1" version="1.1" viewBox="0 0 512 512" width="512px" xml:space="preserve" xmlns="http://www.w3.org/2000/svg" xmlns:xlink="http://www.w3.org/1999/xlink"><g><path d="M512,256c0,141.386-114.599,255.997-256.003,255.997C114.623,511.997,0,397.386,0,256   S114.623,0.003,255.997,0.003C397.401,0.003,512,114.614,512,256z" fill="#A1C656"/><g id="bell"><path d="M236.872,369.324c0,10.562,8.563,19.137,19.125,19.137l0,0c10.575,0,19.131-8.575,19.131-19.137l0,0    c0-10.563-8.557-19.138-19.131-19.138l0,0C245.435,350.187,236.872,358.762,236.872,369.324L236.872,369.324z" fill="#5C717C"/><path d="M236.872,369.324c0,10.512,8.462,19.024,18.95,19.124c-8.1-13.2,7.375-28.687,7.375-28.687    c-7.237-3.488-13.125-5.45-17.937-6.263C240.197,356.937,236.872,362.736,236.872,369.324z" fill="#18262D" opacity="0.17"/><path d="M337.052,295.25c0.025-0.65,0.05-1.301,0.05-1.963v-66.725c0-44.424-35.999-80.449-80.455-80.449    c-44.424,0-80.449,36.025-80.449,80.449v66.725c0,0.662,0.038,1.313,0.05,1.963H337.052z" fill="#EFC84A"/><path d="M147.598,335.486c0,16.25,13.175,29.438,29.425,29.438h157.954c16.25,0,29.45-13.188,29.45-29.438v-11.774    c0-16.263-13.2-29.438-29.45-29.438H177.022c-16.25,0-29.425,13.175-29.425,29.438V335.486z" fill="#EFC84A"/><path d="M256.646,129.427c3.25,0,5.888,2.637,5.888,5.887s-2.638,5.887-5.888,5.887    c-3.237,0-5.887-2.637-5.887-5.887S253.409,129.427,256.646,129.427 M256.646,123.539c-6.5,0-11.774,5.275-11.774,11.775    s5.274,11.775,11.774,11.775c6.513,0,11.775-5.275,11.775-11.775S263.159,123.539,256.646,123.539L256.646,123.539z" fill="#80929B"/><rect fill="#DDB843" height="11.787" width="160.729" x="176.248" y="282.987"/><path d="M221.697,180.963c0,0-2.3,2.3-5.325,5.762c-1.5,1.713-3.162,3.775-4.85,5.988    c-0.825,1.125-1.663,2.288-2.45,3.512c-0.825,1.2-1.6,2.45-2.337,3.725c-0.837,1.212-1.413,2.563-2.137,3.813    c-0.7,1.275-1.275,2.6-1.9,3.837c-0.575,1.263-1.025,2.537-1.575,3.725c-0.55,1.188-0.875,2.351-1.3,3.438    c-0.35,1.075-0.85,2.05-1.075,2.963c-0.274,0.9-0.563,1.7-0.774,2.362c-0.476,1.313-0.8,2.087-0.8,2.087s-0.175-0.8-0.375-2.2    c-0.1-0.7-0.225-1.563-0.3-2.538c-0.125-1.012-0.024-2.113,0-3.337c0.075-1.213,0.05-2.575,0.388-3.938    c0.288-1.362,0.438-2.888,0.95-4.337s0.862-3.038,1.587-4.5c0.7-1.462,1.35-3,2.25-4.387c0.863-1.413,1.75-2.825,2.8-4.063    c0.95-1.325,2.112-2.438,3.162-3.563c1.063-1.125,2.237-2.05,3.325-2.938c1.125-0.862,2.2-1.625,3.262-2.237    c2.075-1.3,3.975-2.088,5.325-2.575C220.885,181.101,221.697,180.963,221.697,180.963z" fill="#FBF7C1"/><path d="M266.797,146.764c19.23,8.275,57.43,29.6,57.43,68.537c0,51.999,0,78.986,0,78.986h12.851    c0.024-0.338,0.024-0.662,0.024-1v-66.725C337.102,185.576,306.452,151.764,266.797,146.764z" fill="#4B3014" opacity="0.17"/><path d="M334.977,294.274h-10.699c-0.025,0-0.025,0-0.051,0.013c0,0,39.25,31.387-1.475,69.649    c-0.35,0.337-0.675,0.649-1,0.987h13.225c16.25,0,29.45-13.188,29.45-29.438v-11.774    C364.427,307.449,351.227,294.274,334.977,294.274z" fill="#4B3014" opacity="0.15"/></g></g><g/><g/><g/><g/><g/><g/></svg>