<?xml version="1.0" ?><!DOCTYPE svg  PUBLIC '-//W3C//DTD SVG 1.1//EN'  'http://www.w3.org/Graphics/SVG/1.1/DTD/svg11.dtd'><svg enable-background="new 0 0 512 512" height="512px" id="Calque_1" version="1.1" viewBox="0 0 512 512" width="512px" xml:space="preserve" xmlns="http://www.w3.org/2000/svg" xmlns:xlink="http://www.w3.org/1999/xlink"><g><path d="M512,256c0,141.386-114.599,255.997-255.991,255.997C114.623,511.997,0,397.386,0,256   S114.623,0.003,256.009,0.003C397.401,0.003,512,114.614,512,256z" fill="#E1695C"/><g id="phone"><path clip-rule="evenodd" d="M379.877,327.274c-1.325-1.275-2.65-2.525-4.176-3.525    c-16.175-10.649-32.225-21.55-48.674-31.8c-9.575-5.975-19.725-3.675-27.225,4.801c-3.525,3.975-7.025,8.024-10.9,11.674    c-4.225,4-9.475,5.575-15.35,5.025c-6.881-0.65-12.818-3.675-18.431-7.375c-13.675-8.975-25.174-20.399-36.087-32.449    c-7.413-8.169-14.387-16.669-18.538-27.081c-3.825-9.563-2.662-18.237,4.875-25.625c2.738-2.7,5.638-5.25,8.575-7.762    c10.575-9.05,12.125-19.112,4.575-30.987c-6.101-9.563-12.15-19.163-18.5-28.55c-5.075-7.5-10.15-15.075-16-21.938    c-6.037-7.075-14.287-8.188-22.55-3.825c-3.875,2.05-7.475,4.712-10.912,7.462c-21.962,17.587-29.362,40.225-23.287,67.562    c5.2,23.362,16.5,43.787,30.087,63.1c16.612,23.568,36.274,44.468,57.637,63.718c21.075,19,43.675,35.8,69.931,47.149    c13.425,5.8,27.324,9.649,43.174,9.875c25.625-0.05,43.025-15.025,56-36.325C389.051,342.299,386.876,333.899,379.877,327.274z" fill="#EFC84A" fill-rule="evenodd"/><path clip-rule="evenodd" d="M375.701,323.749    c-3.399-2.225-6.8-4.5-10.199-6.75c-14.95,18.851-46.55,48.225-99.155,50.6c5.981,3.375,12.156,6.475,18.581,9.25    c13.425,5.8,27.324,9.649,43.174,9.875c25.625-0.05,43.025-15.025,56-36.325c4.949-8.1,2.774-16.499-4.225-23.124    C378.552,325.999,377.227,324.749,375.701,323.749z" fill="#D8AD32" fill-rule="evenodd" opacity="0.27"/><path clip-rule="evenodd" d="M157.048,223.407c0.275-0.1,0.55-0.188,0.813-0.275    c-0.087-0.875-0.162-1.763-0.287-2.638c-0.976-6.8-0.938-13.55,0.75-20.25c3.225-12.8,10.75-22.562,21.2-30.287    c1.9-1.399,3.55-2.837,1.975-5.262c-2.95-4.563-6.05-9.05-9.2-13.487c-1.612-2.262-3.9-2.45-5.9-0.7    c-3.837,3.35-7.725,6.688-11.125,10.462c-6.05,6.7-9,14.913-8.225,23.787c0.725,8.15,2.55,16.263,4.513,24.25    C152.773,213.957,155.173,218.606,157.048,223.407z" fill="#EFC84A" fill-rule="evenodd"/><path clip-rule="evenodd" d="M157.048,223.407c-1.875-4.8-4.275-9.45-5.487-14.4    c-1.963-7.987-3.788-16.1-4.513-24.25c-0.775-8.875,2.175-17.087,8.225-23.787c3.4-3.774,7.288-7.112,11.125-10.462    c2-1.75,4.288-1.563,5.9,0.7c3.15,4.438,6.25,8.925,9.2,13.487c1.575,2.425-0.075,3.863-1.975,5.262    c-10.45,7.725-17.975,17.487-21.2,30.287c-1.687,6.7-1.725,13.45-0.75,20.25c0.125,0.875,0.2,1.763,0.287,2.638    C157.598,223.219,157.323,223.307,157.048,223.407z" fill="#F9ED32" fill-rule="evenodd"/></g></g><g/><g/><g/><g/><g/><g/></svg>