<?xml version="1.0" ?><!DOCTYPE svg  PUBLIC '-//W3C//DTD SVG 1.1//EN'  'http://www.w3.org/Graphics/SVG/1.1/DTD/svg11.dtd'><svg enable-background="new 0 0 512 512" height="512px" id="Calque_1" version="1.1" viewBox="0 0 512 512" width="512px" xml:space="preserve" xmlns="http://www.w3.org/2000/svg" xmlns:xlink="http://www.w3.org/1999/xlink"><g><path d="M512,256c0,141.388-114.6,256-256.006,256C114.619,512,0,397.388,0,256S114.619,0,255.994,0   C397.4,0,512,114.612,512,256z" fill="#35707F"/><g id="key"><path clip-rule="evenodd" d="M303.275,127.775c-28.476,0-53.481,14.725-67.907,36.938    c-1.15,1.688-2.15,3.388-3.1,5.087c-0.125,0.238-0.25,0.463-0.375,0.688c-1.1,2.05-2.1,4.088-2.95,6.15    c-0.3,0.675-0.55,1.387-0.85,2.075c-0.3,0.775-0.575,1.538-0.85,2.325c-3.15,8.663-4.975,17.975-4.975,27.737    c0,7.638,1.125,14.988,3.1,21.975l-97.675,97.1v56.375h52.775l3.6-25.199l25.775-2.988l2.4-26.387l26.4-4.2l3.6-25.2l24-1.787    L279.1,286.1c7.65,2.388,15.75,3.688,24.176,3.688c44.75,0,81.024-36.274,81.024-81.012    C384.3,164.038,348.025,127.775,303.275,127.775z M323.225,212.625c-14.55,0-26.375-11.8-26.375-26.35    c0-14.563,11.825-26.362,26.375-26.362c14.551,0,26.351,11.8,26.351,26.362C349.575,200.825,337.775,212.625,323.225,212.625z" fill="#FBB040" fill-rule="evenodd"/><polygon clip-rule="evenodd" fill="#996026" fill-rule="evenodd" opacity="0.5" points="237.044,244.275 142.869,337.85     142.869,354.037 243.644,252.675   "/><path d="M323.225,216.487c-16.675,0-30.225-13.55-30.225-30.212s13.55-30.225,30.225-30.225    c16.65,0,30.2,13.563,30.2,30.225S339.875,216.487,323.225,216.487z M323.225,163.775c-12.425,0-22.524,10.087-22.524,22.5    s10.1,22.488,22.524,22.488c12.4,0,22.5-10.075,22.5-22.488S335.625,163.775,323.225,163.775z" fill="#CF7E31"/></g></g><g/><g/><g/><g/><g/><g/></svg>