<?xml version="1.0" ?><!DOCTYPE svg  PUBLIC '-//W3C//DTD SVG 1.1//EN'  'http://www.w3.org/Graphics/SVG/1.1/DTD/svg11.dtd'><svg enable-background="new 0 0 512 512" height="512px" id="Calque_1" version="1.1" viewBox="0 0 512 512" width="512px" xml:space="preserve" xmlns="http://www.w3.org/2000/svg" xmlns:xlink="http://www.w3.org/1999/xlink"><g><path d="M512,256c0,141.386-114.599,255.997-255.991,255.997C114.623,511.997,0,397.386,0,256   S114.623,0.003,256.009,0.003C397.401,0.003,512,114.614,512,256z" fill="#EBEEEF"/><g id="arrow_10_"><path clip-rule="evenodd" d="M255.872,178.264c-38.575,0-77.149-0.013-115.699,0    c-8.45,0-14.574,6.125-13.6,13.975c0.35,2.625,1.75,5.462,3.5,7.5c34.85,40.225,69.849,80.387,104.799,120.549    c1.7,1.912,3.325,3.887,5.05,5.813c9.325,10.225,23.024,10.274,32.156-0.038c13.8-15.712,27.449-31.512,41.174-47.324    c22.45-25.813,44.875-51.712,67.425-77.474c3.925-4.5,6.374-9.212,3.8-15.038c-2.675-5.975-7.7-8.05-14.125-8    C332.202,178.326,294.027,178.264,255.872,178.264z" fill="#44B39D" fill-rule="evenodd"/></g></g><g/><g/><g/><g/><g/><g/></svg>