<?xml version="1.0" ?><!DOCTYPE svg  PUBLIC '-//W3C//DTD SVG 1.1//EN'  'http://www.w3.org/Graphics/SVG/1.1/DTD/svg11.dtd'><svg enable-background="new 0 0 512 512" height="512px" id="Calque_1" version="1.1" viewBox="0 0 512 512" width="512px" xml:space="preserve" xmlns="http://www.w3.org/2000/svg" xmlns:xlink="http://www.w3.org/1999/xlink"><g><path d="M512,256c0,141.386-114.599,255.997-255.991,255.997C114.623,511.997,0,397.386,0,256   S114.623,0.003,256.009,0.003C397.401,0.003,512,114.614,512,256z" fill="#A1C656"/><g id="drawing"><g id="pen_1_"><polygon fill="#F16668" points="316.553,132.383 142.11,306.85 135.136,378.123 202.922,366.648 376.877,192.194      370.401,164.782 343.977,137.857    "/><polygon fill="#E9484B" points="142.11,306.85 141.686,311.225 169.022,308.35 343.927,137.845 316.553,132.383    "/><polygon fill="#E9484B" points="196.235,367.799 202.922,366.648 376.877,192.194 370.401,164.782 199.435,332.6    "/><polygon fill="#E1C682" points="170.51,306.975 142.11,306.85 135.136,378.123 202.922,366.648 199.81,332.149    "/><polygon fill="#EDD6A2" points="170.51,306.975 148.085,359.674 153.573,364.174 199.81,332.149    "/><path d="M138.061,348.174l-2.925,29.949l28.487-4.824C159.811,357.624,143.485,350.224,138.061,348.174z" fill="#636565"/><polygon fill="#BE1E2D" opacity="0.55" points="204.235,244.594 217.51,260.719 235.834,296.75 236.572,332.975 276.953,293      213.935,235.231    "/></g><g id="brush_2_"><path clip-rule="evenodd" d="M301.452,313.249c0,0-64.78-15.824-163.792-175.566l5.475-5.3     c0,0,143.167,95.961,168.816,169.791L301.452,313.249z" fill="#996026" fill-rule="evenodd"/><path clip-rule="evenodd" d="M301.452,313.249c0,0,0.125,22.024,20.925,35.1     c20.8,13.101,24.9,31.274,24.9,31.274s28.699-74.873-35.325-77.449L301.452,313.249z" fill="#FBF7C1" fill-rule="evenodd"/><path clip-rule="evenodd" d="M240.909,271.225c7.075-3.243,20.013-11.756,28.469-32.706     c19.475,21.237,35.499,43.305,42.574,63.655l-10.5,11.075C301.452,313.249,279.228,307.824,240.909,271.225z" fill="#F1943F" fill-rule="evenodd"/><path clip-rule="evenodd" d="M137.661,137.683l3.825-3.688     c12.325,17.337,100.149,138.954,163.517,175.479l0,0l-3.55,3.774C301.452,313.249,236.672,297.425,137.661,137.683z" fill="#4B3014" fill-rule="evenodd" opacity="0.24"/><path clip-rule="evenodd" d="M347.277,379.623c0,0-3.45-15.299-20.101-27.949     c3.175-0.05,7.226-2.175,7.4-12.35c0.175-10.425,10-10.3,17.475-8.7C357.602,352.749,347.277,379.623,347.277,379.623z" fill="#EE3533" fill-rule="evenodd"/><path d="M281.402,273.1c0,0-0.1-0.199-0.274-0.625c-0.2-0.35-0.476-0.949-0.825-1.65     c-0.75-1.424-1.85-3.431-3.275-5.756c-1.449-2.324-3.199-4.975-5.175-7.762c-0.5-0.675-1.024-1.375-1.55-2.075     c-0.525-0.713-1.075-1.425-1.606-2.112c-1.087-1.425-2.237-2.825-3.399-4.213c-1.176-1.4-2.363-2.763-3.575-4.1     c-1.188-1.338-2.4-2.613-3.625-3.825c-2.4-2.413-4.8-4.587-6.938-6.3c-1.1-0.862-2.125-1.612-3.05-2.25     c-0.925-0.625-1.8-1.125-2.5-1.525c-0.75-0.375-1.325-0.662-1.725-0.8c-0.4-0.162-0.625-0.25-0.625-0.25s0.175,0.175,0.475,0.487     c0.325,0.275,0.725,0.763,1.275,1.338c0.5,0.6,1.125,1.313,1.825,2.15c0.7,0.85,1.476,1.813,2.325,2.875     c1.675,2.075,3.625,4.55,5.712,7.163c0.525,0.675,1.05,1.337,1.6,1.987c0.538,0.688,1.087,1.362,1.662,2.05     c1.112,1.362,2.288,2.75,3.413,4.125c1.162,1.375,2.313,2.75,3.475,4.087c1.15,1.35,2.325,2.65,3.45,3.913     c2.231,2.525,4.406,4.825,6.306,6.775c1.9,1.938,3.575,3.518,4.75,4.618c0.575,0.524,1.075,0.95,1.375,1.226     C281.228,272.949,281.402,273.1,281.402,273.1z" fill="#FFFFFF" opacity="0.38"/></g></g></g><g/><g/><g/><g/><g/><g/></svg>