<?xml version="1.0" ?><!DOCTYPE svg  PUBLIC '-//W3C//DTD SVG 1.1//EN'  'http://www.w3.org/Graphics/SVG/1.1/DTD/svg11.dtd'><svg enable-background="new 0 0 512 512" height="512px" id="Calque_1" version="1.1" viewBox="0 0 512 512" width="512px" xml:space="preserve" xmlns="http://www.w3.org/2000/svg" xmlns:xlink="http://www.w3.org/1999/xlink"><g><path d="M512,256c0,141.386-114.599,255.997-255.991,255.997C114.623,511.997,0,397.386,0,256   S114.623,0.003,256.009,0.003C397.401,0.003,512,114.614,512,256z" fill="#EBEEEF"/><g id="roller"><path d="M271.665,338.187c-4.325,0-7.825-3.524-7.825-7.85v-69.725c0-3.35,2.125-6.35,5.301-7.425l86.373-29.524    v-53.949H197.216c-4.325,0-7.824-3.525-7.824-7.85s3.5-7.825,7.824-7.825h166.123c4.325,0,7.851,3.5,7.851,7.825v67.399    c0,3.35-2.125,6.325-5.301,7.425l-86.398,29.525v64.124C279.49,334.662,275.99,338.187,271.665,338.187z" fill="#A8BEC6"/><path clip-rule="evenodd" d="M140.817,165.589c0,6.925,5.6,12.55,12.525,12.55l0,0    c6.925,0,12.55-5.625,12.55-12.55v-9.4c0-6.925-5.625-12.524-12.55-12.524l0,0c-6.925,0-12.525,5.6-12.525,12.524V165.589z" fill="#EEB144" fill-rule="evenodd"/><rect clip-rule="evenodd" fill="#80929B" fill-rule="evenodd" height="15.55" width="14.375" x="338.664" y="154.039"/><path clip-rule="evenodd" d="M148.492,179.313c0,8.65,7,15.675,15.65,15.675h163.772    c8.676,0,15.676-7.025,15.676-15.675v-36.825c0-8.675-7-15.675-15.676-15.675H164.142c-8.65,0-15.65,7-15.65,15.675V179.313z" fill="#FEDB52" fill-rule="evenodd"/><rect clip-rule="evenodd" fill="#80929B" fill-rule="evenodd" height="9.149" width="15.65" x="263.84" y="298.087"/><path clip-rule="evenodd" d="M252.865,306.837L252.865,306.837v59.55    c0,10.399,8.425,18.799,18.8,18.799s18.8-8.399,18.8-18.799v-59.55l0,0H252.865z" fill="#2D4453" fill-rule="evenodd"/><rect clip-rule="evenodd" fill="#FBF7C1" fill-rule="evenodd" height="28.6" opacity="0.4" width="179.048" x="156.517" y="134.839"/><path clip-rule="evenodd" d="M290.465,306.837L290.465,306.837h-14.199v57.725    c0,0-0.025,12.975-12.025,19.1c2.275,0.975,4.775,1.524,7.425,1.524c10.375,0,18.8-8.399,18.8-18.799V306.837z" fill="#18262D" fill-rule="evenodd" opacity="0.72"/></g></g><g/><g/><g/><g/><g/><g/></svg>